<svg width="78" height="82" viewBox="0 0 78 82" fill="none" xmlns="http://www.w3.org/2000/svg">
<g clip-path="url(#clip0_229_16065)">
<path d="M59.3657 64.8389C59.0767 65.0054 58.7747 65.1602 58.4644 65.3006C57.7246 65.6374 56.9468 65.8425 56.1927 66.034C55.4169 66.2316 54.6872 66.4218 54.0887 66.7411L53.9703 66.8093C53.2929 67.1996 52.6787 67.8092 52.0226 68.4556C51.4542 69.0133 50.8724 69.5914 50.2053 70.0653C49.9281 70.2633 49.6427 70.4469 49.3537 70.6134C46.3076 72.3683 42.7568 72.4258 38.4978 70.7941C38.3592 70.7397 38.2159 70.688 38.0745 70.6288C36.1352 69.8473 34.3257 68.8312 32.9652 68.0359C32.5746 67.807 32.199 67.5822 31.8309 67.3595C24.2469 62.8038 18.7754 57.3699 15.5622 51.2231C15.1841 50.5011 14.8486 49.7546 14.5716 48.9999C12.7364 44.0731 13.3011 39.183 16.1161 35.5921C17.2532 34.1378 18.7228 32.8884 20.4851 31.8731C21.9963 31.0024 23.7314 30.2905 25.7955 29.6895C26.989 29.3407 28.0866 28.913 29.057 28.4179C29.4044 28.2433 30.0779 27.8681 30.9638 27.3577C31.6365 26.9701 32.278 26.5941 32.6116 26.3956C33.2645 26.0066 33.9107 25.5512 34.536 25.0375C34.956 24.6932 35.3792 24.3216 35.7913 23.9307C37.3418 22.4492 38.8328 21.3026 40.344 20.4319C41.1162 19.987 41.9074 19.608 42.6938 19.3083C43.3101 19.0747 43.9315 18.8829 44.5534 18.7357C44.6477 18.7133 44.7373 18.6936 44.8345 18.676C45.0986 18.6197 45.407 18.5635 45.7548 18.5102C51.0159 17.7743 56.1723 20.5256 59.5551 25.8715C63.2665 31.744 65.2181 39.2058 65.3571 48.0444C65.4499 54.4481 65.0789 61.5474 59.3657 64.8389Z" fill="#E84343"/>
<path d="M21.0335 32.8358C22.6157 31.9242 24.3493 31.2643 26.1046 30.7517C27.4549 30.3574 28.5876 29.903 29.5552 29.4031C29.9784 29.1848 30.7609 28.7468 31.5141 28.3129C32.1915 27.9226 32.8378 27.5439 33.1761 27.3425C33.8386 26.9481 34.5179 26.4736 35.2324 25.8957C35.6572 25.5487 36.0965 25.1614 36.5457 24.7363C37.8697 23.4749 39.3101 22.3062 40.8924 21.3946C41.5935 20.9907 42.3223 20.6347 43.085 20.3487C43.6437 20.1356 44.217 19.9588 44.8048 19.8182C44.8822 19.7992 44.9624 19.785 45.0425 19.7708C45.3284 19.7084 45.615 19.6584 45.9072 19.6179C51.2485 18.8678 55.8182 22.0466 58.6183 26.4687C62.6611 32.8727 64.1316 40.6053 64.2504 48.0618C64.3389 53.6368 64.1828 60.7914 58.8154 63.8836C58.5549 64.0338 58.286 64.1695 58.0022 64.301C56.6038 64.9404 54.8993 65.0594 53.5716 65.7667C53.5195 65.7967 53.4694 65.8192 53.4173 65.8492C51.9866 66.6735 50.9107 68.2012 49.565 69.1619C49.3088 69.3415 49.0565 69.506 48.8007 69.6533C45.6409 71.4738 42.1704 71.0246 38.8762 69.7641C38.7376 69.7097 38.6017 69.6601 38.4679 69.603C36.7355 68.9069 35.0602 67.9924 33.5082 67.0836C33.1251 66.8568 32.7523 66.6368 32.3918 66.4162C25.996 62.5761 20.0393 57.4281 16.5318 50.7156C16.1786 50.0368 15.8633 49.3362 15.5989 48.6254C14.0573 44.4821 14.1412 39.9073 16.981 36.2829C18.1114 34.8389 19.5033 33.7173 21.0335 32.8358ZM19.9273 30.9157C18.0466 31.9993 16.4723 33.341 15.2464 34.9039C12.1935 38.8046 11.5752 44.0836 13.5471 49.3792C13.8415 50.1749 14.1944 50.9626 14.5973 51.7278C17.9061 58.0625 23.5198 63.6446 31.2804 68.3096C31.6485 68.5322 32.0316 68.7591 32.4222 68.988C33.821 69.806 35.6735 70.8421 37.6784 71.6498C37.832 71.7083 37.9837 71.7744 38.142 71.8302C42.7082 73.5789 46.567 73.4975 49.9116 71.5706C50.229 71.3878 50.5428 71.1878 50.8456 70.9686C51.5878 70.4387 52.2047 69.834 52.798 69.2428C53.4007 68.6462 53.9739 68.0859 54.5282 67.7665C54.5566 67.7502 54.585 67.7338 54.6134 67.7174C55.0955 67.4589 55.7674 67.2891 56.4801 67.1023C57.2437 66.9053 58.1063 66.6832 58.9342 66.3022C59.273 66.1454 59.6062 65.979 59.9283 65.7934C66.6743 61.9069 66.5309 52.8855 66.4524 48.0398C66.3075 38.9937 64.2942 31.3373 60.4757 25.2899C56.8547 19.5634 51.2932 16.6236 45.5938 17.4202C45.231 17.4694 44.9056 17.5289 44.5905 17.5954C44.4934 17.613 44.3991 17.6354 44.3047 17.6578C43.6319 17.8152 42.9576 18.0247 42.2959 18.278C41.464 18.5975 40.6227 18.999 39.7985 19.4739C38.2114 20.3882 36.6549 21.5855 35.0369 23.125C34.6505 23.4947 34.253 23.8452 33.8491 24.1737C33.2515 24.6587 32.6641 25.0738 32.049 25.441C31.7202 25.6368 31.0834 26.0101 30.4202 26.3922C29.5485 26.8944 28.8892 27.2614 28.5635 27.4299C27.6528 27.897 26.6196 28.2941 25.4864 28.6272C23.3308 29.2554 21.5143 30.0014 19.9273 30.9157Z" fill="#A32F2F"/>
<g opacity="0.13">
<path d="M64.2544 48.0592C64.3446 53.7356 64.179 61.049 58.5107 64.0461C58.3469 64.1341 58.1803 64.2173 58.0034 64.2936C56.834 64.8266 55.4525 65.0024 54.2511 65.458C54.0186 65.5472 53.7916 65.6461 53.5729 65.7593C52.0691 66.5553 50.9593 68.1664 49.5662 69.1544C47.6635 70.5064 45.3755 71.0254 43.0596 70.806C39.0285 70.4241 35.0693 68.8308 31.8008 66.4431C30.5918 65.5605 29.4832 64.5561 28.4519 63.5327C30.9916 66.0462 35.8198 66.1799 39.1005 65.7411C50.3062 64.24 56.7169 52.587 57.6266 42.1406C57.6408 41.979 57.6522 41.8126 57.6636 41.6462C57.6938 41.2388 57.7119 40.832 57.7252 40.428C57.8738 35.6369 57.0568 30.539 54.8246 26.2373C52.8085 22.3545 50.2377 18.9 45.5124 19.6788C45.6435 19.6544 45.7774 19.6348 45.9112 19.6153C47.6351 19.3765 49.2741 19.5383 50.8039 20.0251C52.4565 20.5498 53.9833 21.4476 55.3281 22.61C56.5919 23.6975 57.7035 25.0135 58.6223 26.466C62.6652 32.8701 64.1309 40.6054 64.2544 48.0592Z" fill="#A31414"/>
</g>
<g opacity="0.19">
<path d="M30.8261 37.0528C31.0746 37.6704 31.2351 38.3323 31.3072 38.9941C31.4759 40.6231 31.0977 42.1132 30.6662 43.6532C30.211 45.2836 29.9735 46.9741 29.2474 48.5176C27.8648 51.4623 24.0095 52.8203 20.9669 51.6899C18.1781 50.6497 16.1588 47.747 15.9983 44.7962C15.7184 39.7214 20.0629 33.408 25.4471 33.4771C27.0032 33.4949 28.5796 34.0955 29.667 35.2272C30.1651 35.7522 30.5518 36.3797 30.8261 37.0528Z" fill="white"/>
</g>
<g opacity="0.31">
<path d="M33.7063 33.181C33.4646 33.1667 33.2289 33.1299 33.0002 33.0507C32.4502 32.8625 31.9561 32.3992 31.8698 31.8223C31.7476 31.0297 32.3961 30.3044 33.1336 30.0074C33.8683 29.7056 34.6888 29.706 35.4725 29.5549C37.7198 29.1297 37.5455 27.0309 39.2225 26.0647C40.0183 25.6062 41.0936 26.016 41.2081 26.9922C41.271 27.5505 41.0386 28.0999 40.7703 28.587C39.5197 30.8738 37.2826 32.6421 34.7206 33.1016C34.3905 33.1639 34.0466 33.2022 33.7063 33.181Z" fill="#942A1D"/>
</g>
<path d="M44.2191 19.7661C44.1851 19.7729 44.1436 19.7776 44.0986 19.7651C44.1381 19.768 44.1776 19.7708 44.2191 19.7661Z" fill="#2F7309"/>
<path d="M36.8245 31.9792C36.5402 32.143 36.1711 32.1703 35.8611 32.0484C35.6166 31.9527 35.0472 31.7309 34.2907 29.4432C33.5414 27.1897 31.6204 19.2883 38.3105 12.2054C38.9519 11.5226 39.8381 10.8266 40.6814 10.3408C41.6668 9.77309 42.5373 9.52088 43.2686 9.58546C45.7716 9.81207 47.0887 11.8791 47.278 13.8287C47.4459 15.522 47.2412 17.3023 46.67 19.1146C46.666 19.1296 46.6641 19.1372 46.6601 19.1522C44.5415 25.8135 38.0715 31.1649 36.8786 31.9417C36.8624 31.9574 36.8434 31.9683 36.8245 31.9792Z" fill="#6B931F"/>
<path d="M41.2377 11.3056C41.934 10.9044 42.6392 10.6388 43.1853 10.6886C45.0829 10.8612 46.0409 12.4254 46.1914 13.9243C46.355 15.5882 46.119 17.2266 45.6204 18.7925C43.6228 25.0835 37.4573 30.2403 36.2785 31.009C36.1885 31.0608 35.7539 30.3394 35.3398 29.0948C34.2644 25.8592 33.3482 19.0667 39.1186 12.9612C39.6456 12.4082 40.437 11.7669 41.2377 11.3056ZM40.1315 9.38558C39.203 9.92052 38.2256 10.6882 37.5127 11.4441C30.4062 18.9652 32.4564 27.3867 33.252 29.7861C34.1729 32.5673 35.0195 32.8979 35.4709 33.079C36.0881 33.3179 36.8048 33.2695 37.3732 32.942C37.4111 32.9201 37.4538 32.8956 37.4889 32.8689C38.9788 31.8955 45.4865 26.4456 47.6912 19.5174C47.6971 19.4948 47.7058 19.477 47.7117 19.4545C48.3279 17.5012 48.5504 15.5765 48.3654 13.7331C48.0838 10.8457 46.0663 8.73472 43.3508 8.48985C42.3968 8.40013 41.3111 8.70599 40.1315 9.38558Z" fill="#526B10"/>
<path d="M36.0037 30.9817C35.7643 30.6209 35.8076 30.3018 35.8659 29.9869C35.9168 29.6699 35.9779 29.3598 36.0362 29.0449C36.1557 28.4199 36.2976 27.8011 36.4443 27.1795C36.748 25.9433 37.0919 24.7222 37.5211 23.5287C37.9401 22.3284 38.4471 21.1604 39.0027 20.022C39.5733 18.8877 40.2355 17.8029 40.9724 16.771C41.0604 16.65 41.2282 16.6236 41.3495 16.7136C41.4604 16.7967 41.4925 16.9509 41.4289 17.0706L41.4222 17.0808C40.8109 18.1555 40.2174 19.239 39.7483 20.3852C39.2586 21.5176 38.8148 22.6747 38.4562 23.8595C38.0902 25.0422 37.7466 26.231 37.4734 27.4434C37.3354 28.0471 37.2124 28.655 37.1016 29.2623C37.0452 29.5696 36.9936 29.8743 36.9467 30.1762C36.9101 30.485 36.8557 30.7849 36.5411 31.0493L36.5249 31.065C36.3757 31.1893 36.1482 31.1669 36.023 31.0153C36.0175 31.0057 36.012 30.9961 36.0037 30.9817Z" fill="#526B10"/>
<g opacity="0.17">
<path d="M46.187 13.9272C46.3506 15.5911 46.1146 17.2295 45.616 18.7954C45.7554 17.6027 45.7839 16.4035 45.6062 15.208C45.1927 12.4095 43.2592 11.3752 40.9795 13.0914C40.518 13.4404 40.0854 13.8175 39.6816 14.2228C37.616 16.2887 36.2712 19.0582 35.6514 21.947C35.1511 24.2875 35.1005 26.7077 35.3381 29.1025C34.2627 25.8669 33.3466 19.0745 39.117 12.9689C40.1129 11.9157 42.0192 10.5809 43.1876 10.6813C45.0833 10.8614 46.0413 12.4257 46.187 13.9272Z" fill="#EEFFBB"/>
</g>
<g opacity="0.14">
<path d="M24.7114 45.332C25.8807 44.5688 26.6108 43.3938 26.1453 41.9614C25.6832 40.5462 24.192 39.5896 22.7172 39.6145C20.4915 39.6501 18.3229 41.7562 19.075 44.0912C19.946 46.786 22.811 46.5675 24.7114 45.332Z" fill="white"/>
</g>
<g opacity="0.19">
<path d="M27.4034 53.761C28.1478 52.7312 29.3539 52.0428 30.6174 52.1331C31.6243 52.2052 32.5571 52.729 33.3035 53.4114C34.5386 54.5475 36.0444 56.5698 36.0366 58.3196C36.0269 60.2304 34.8578 61.6072 32.8816 61.5502C29.5743 61.4609 25.8197 58.7332 26.7618 55.0896C26.8908 54.6126 27.1098 54.1603 27.4034 53.761Z" fill="white"/>
</g>
<path d="M35.8601 32.6372L35.7835 32.6686C35.3437 32.858 34.7992 32.6794 34.5305 32.246C29.5486 24.1134 29.1738 12.2588 29.161 11.7547L29.163 11.7472C29.1345 11.6102 29.1277 11.467 29.136 11.328C29.1812 10.848 29.4788 10.4336 29.962 10.1552C30.5495 9.8168 31.4102 9.67894 32.3235 9.78569C33.0264 9.86665 33.6862 10.0811 34.1803 10.391C34.8434 10.8082 35.191 11.4006 35.1292 12.0052C35.1115 12.1497 35.0788 12.29 35.016 12.4221L35.0101 12.4447C34.6192 13.8143 32.8115 21.3001 36.3501 31.3959C36.5102 31.8599 36.3244 32.3697 35.9075 32.6099L35.8601 32.6372Z" fill="#735830"/>
<path d="M30.3769 10.8753C30.7938 10.6351 31.4792 10.5215 32.2365 10.6094C33.4365 10.7428 34.3658 11.3263 34.3052 11.911C34.2977 11.9857 34.2732 12.0637 34.231 12.1328C34.2298 12.1526 34.2259 12.1677 34.2219 12.1828C33.7908 13.6906 31.9548 21.3462 35.5716 31.6655C35.6016 31.7505 35.5685 31.8463 35.488 31.8927C35.4785 31.8981 35.4738 31.9009 35.4643 31.9063C35.3782 31.9431 35.2724 31.9018 35.2226 31.8154C30.2987 23.7836 29.976 11.7456 29.976 11.7456C29.9866 11.7202 29.9851 11.6956 29.991 11.673C29.9609 11.588 29.9459 11.5072 29.9526 11.4202C29.9778 11.2011 30.1305 11.0172 30.3769 10.8753ZM29.5473 9.43525C28.8319 9.84737 28.3942 10.4895 28.3194 11.2359C28.2982 11.4399 28.3061 11.6399 28.3406 11.8311C28.374 12.8858 28.8602 24.5612 33.8358 32.6719C34.3315 33.4668 35.2876 33.7791 36.1131 33.4377L36.2114 33.4003L36.3298 33.332C37.0831 32.8981 37.4196 31.9818 37.1398 31.1456C33.7158 21.3802 35.3866 14.1714 35.8003 12.6991C35.8788 12.5068 35.9301 12.3111 35.9486 12.1022C36.0427 11.1594 35.5563 10.2824 34.614 9.68724C34.0098 9.30652 33.2469 9.05558 32.4106 8.96201C31.3093 8.83567 30.2958 9.00402 29.5473 9.43525Z" fill="#594124"/>
<g opacity="0.58">
<path d="M30.8534 10.6837C30.8507 10.7556 30.8629 10.8317 30.8874 10.907C30.8815 10.9296 30.8784 10.957 30.88 10.9817C30.88 10.9817 30.6885 24 35.5764 31.6626C35.6309 31.7463 35.5646 31.8612 35.4738 31.9007C35.383 31.9402 35.2819 31.8962 35.2321 31.8098C30.3082 23.778 29.9855 11.74 29.9855 11.74C29.9866 11.7201 29.9851 11.6954 29.991 11.6729C29.9609 11.5879 29.9459 11.507 29.9573 11.4173C29.9876 11.0866 30.339 10.8203 30.8534 10.6837Z" fill="#856941"/>
</g>
<path d="M34.3112 11.911C34.37 11.3261 33.4426 10.7416 32.24 10.6056C31.0373 10.4695 30.0147 10.8334 29.9559 11.4183C29.8971 12.0031 30.8245 12.5876 32.0271 12.7237C33.2298 12.8597 34.2524 12.4959 34.3112 11.911Z" fill="#856941"/>
<path d="M32.4834 32.9526C32.4834 32.9526 35.416 34.4725 38.4447 31.417" stroke="#A32F2F" stroke-width="3" stroke-miterlimit="10" stroke-linecap="round" stroke-linejoin="round"/>
<g opacity="0.18">
<path d="M58.5051 61.5051C59.4365 60.9685 59.7508 59.7684 59.2071 58.8247C58.6634 57.8809 57.4675 57.5508 56.5361 58.0875C55.6047 58.6241 55.2904 59.8242 55.8341 60.7679C56.3778 61.7117 57.5737 62.0417 58.5051 61.5051Z" fill="#8F0D00"/>
</g>
<g opacity="0.18">
<path d="M61.3358 55.412C61.6602 55.2251 61.7697 54.8071 61.5803 54.4784C61.3909 54.1497 60.9744 54.0347 60.6499 54.2216C60.3255 54.4085 60.216 54.8265 60.4054 55.1553C60.5948 55.484 61.0113 55.599 61.3358 55.412Z" fill="#8F0D00"/>
</g>
<g opacity="0.18">
<path d="M57.7173 55.9878C58.5231 55.5235 58.795 54.4853 58.3246 53.6688C57.8542 52.8523 56.8196 52.5667 56.0138 53.031C55.2079 53.4952 54.936 54.5335 55.4064 55.35C55.8768 56.1665 56.9114 56.4521 57.7173 55.9878Z" fill="#8F0D00"/>
</g>
</g>
<defs>
<clipPath id="clip0_229_16065">
<rect width="53" height="64" fill="white" transform="translate(0 26.4575) rotate(-29.9472)"/>
</clipPath>
</defs>
</svg>
