<svg width="34" height="34" viewBox="0 0 34 34" fill="none" xmlns="http://www.w3.org/2000/svg">
<rect x="2" y="2" width="30" height="30" rx="15" fill="#F7ECE1"/>
<path d="M8.95447 14.9205C8.7552 14.9205 8.47085 14.8191 8.24685 14.3361C7.71741 13.1955 7.77777 10.5284 8.53339 9.6442C8.75448 9.38568 9.10501 9.38206 9.2941 9.37988H9.35301C10.3333 9.37988 11.3006 9.65289 12.3093 10.2134C12.4926 10.3155 12.7725 10.5726 12.5936 11.1519C12.406 11.7581 12.0213 12.2635 11.6337 12.7197C11.166 13.2694 10.7515 13.688 10.329 14.0363C10.209 14.1355 10.0846 14.2333 9.95808 14.3288C9.88245 14.3853 9.81408 14.4462 9.7479 14.5041C9.59227 14.641 9.43082 14.7829 9.18646 14.8763C9.10865 14.9053 9.03083 14.9205 8.95447 14.9205Z" fill="#EDB659"/>
<path d="M9.3535 9.59612C10.3804 9.59612 11.3171 9.90969 12.2036 10.4021C12.4611 10.5455 12.4712 10.8098 12.3854 11.0865C12.2109 11.6513 11.8465 12.1314 11.4676 12.5775C11.0735 13.041 10.6618 13.4784 10.1906 13.8673C10.0713 13.965 9.95058 14.0606 9.82694 14.1533C9.56877 14.3474 9.41314 14.5552 9.10769 14.6718C9.0546 14.6921 9.00369 14.7015 8.95497 14.7015C7.97827 14.7015 7.81027 10.8243 8.70043 9.78296C8.84515 9.6135 9.08078 9.59757 9.2975 9.59467C9.31641 9.59612 9.33532 9.59612 9.3535 9.59612ZM9.3535 9.16162C9.33314 9.16162 9.31278 9.16162 9.29241 9.16162C9.08442 9.16379 8.65316 9.16886 8.36807 9.5027C7.84081 10.1197 7.71718 11.274 7.69027 11.9069C7.64809 12.9077 7.78191 13.8499 8.04954 14.4263C8.32226 15.0136 8.69243 15.1375 8.95497 15.1375C9.05824 15.1375 9.16223 15.1179 9.26405 15.0788C9.5455 14.9709 9.72949 14.8094 9.89167 14.666C9.95785 14.6081 10.0204 14.5531 10.0888 14.5009C10.2175 14.4046 10.3447 14.3039 10.4677 14.2026C10.9004 13.8455 11.3236 13.4183 11.7993 12.8592C12.2022 12.3856 12.6021 11.8584 12.8014 11.2154C13.0341 10.463 12.6087 10.1313 12.4152 10.0234C11.3745 9.44332 10.3724 9.16162 9.3535 9.16162Z" fill="#997738"/>
<path d="M9.15373 13.3655C9.12464 13.2707 9.11228 13.1649 9.09846 13.0715C9.06282 12.834 9.09919 12.6066 9.10501 12.3713C9.11082 12.1163 9.161 11.8556 9.20973 11.6058C9.26646 11.3169 9.37482 10.9287 9.66644 10.7875C9.91589 10.6673 10.2148 10.7245 10.4773 10.76C10.83 10.8085 11.1951 10.8903 11.4919 11.0938C11.7653 11.2807 11.7915 11.6514 11.6824 11.9375C11.39 12.7051 10.6417 13.1946 9.91662 13.5183C9.89408 13.5285 9.87153 13.5379 9.84899 13.548C9.72172 13.6016 9.58863 13.6661 9.44827 13.6465C9.27518 13.6219 9.19664 13.5046 9.15373 13.3655Z" fill="#BF9146"/>
<path d="M12.2939 10.4679C11.371 10.1362 10.4001 9.93999 9.35505 9.94868C9.08233 9.95085 8.78633 9.96751 8.60379 10.137C8.51725 10.2173 8.43871 10.3151 8.36816 10.4266C8.45471 10.163 8.56525 9.94144 8.69906 9.7843C8.84379 9.61484 9.07942 9.59891 9.29614 9.59601C10.3448 9.58442 11.2997 9.90016 12.2022 10.402C12.2372 10.4223 12.2677 10.444 12.2939 10.4679Z" fill="#F0C170"/>
<path d="M24.9871 14.9205C24.9107 14.9205 24.8329 14.9053 24.7566 14.8763C24.5115 14.7829 24.3508 14.641 24.1951 14.5041C24.1289 14.4454 24.0599 14.3853 23.985 14.3288C23.8584 14.234 23.7333 14.1355 23.6141 14.0363C23.1915 13.688 22.777 13.2694 22.3094 12.7197C21.9217 12.2635 21.537 11.7581 21.3494 11.1519C21.1705 10.5726 21.4505 10.3155 21.6337 10.2134C22.6424 9.65217 23.6097 9.37988 24.59 9.37988H24.6489C24.8373 9.38206 25.1886 9.38568 25.4096 9.6442C26.1653 10.5284 26.2256 13.1955 25.6962 14.3361C25.4707 14.8191 25.1864 14.9205 24.9871 14.9205Z" fill="#EDB659"/>
<path d="M24.5897 9.59661C24.6086 9.59661 24.6268 9.59661 24.6457 9.59661C24.8624 9.59878 25.098 9.61544 25.2428 9.78489C26.1322 10.8255 25.9642 14.7034 24.9882 14.7034C24.9395 14.7034 24.8886 14.694 24.8355 14.6738C24.5301 14.5572 24.3752 14.3493 24.1162 14.1552C23.9926 14.0626 23.8719 13.967 23.7526 13.8692C23.2814 13.4803 22.8697 13.0429 22.4756 12.5795C22.0959 12.1334 21.7323 11.6525 21.5578 11.0884C21.472 10.8118 21.4821 10.5474 21.7396 10.4041C22.6261 9.91017 23.5628 9.59661 24.5897 9.59661ZM24.5897 9.16211C23.5708 9.16211 22.5687 9.44381 21.5272 10.0239C21.3338 10.1318 20.9083 10.4634 21.1411 11.2159C21.3403 11.8589 21.7403 12.3861 22.1432 12.8597C22.6188 13.4195 23.0421 13.846 23.4748 14.203C23.5977 14.3044 23.725 14.4051 23.8537 14.5014C23.9228 14.5528 23.9853 14.6079 24.0508 14.6665C24.213 14.8092 24.397 14.9714 24.6784 15.0793C24.7802 15.1184 24.8842 15.1379 24.9875 15.1379C25.25 15.1379 25.6202 15.0148 25.8929 14.4268C26.1606 13.8504 26.2951 12.9082 26.2522 11.9074C26.2253 11.2745 26.1017 10.1202 25.5744 9.50319C25.2893 9.16935 24.8573 9.16428 24.6501 9.16211C24.6304 9.16211 24.6101 9.16211 24.5897 9.16211Z" fill="#997738"/>
<path d="M24.7869 13.3655C24.816 13.2707 24.8284 13.1649 24.8422 13.0715C24.8778 12.834 24.8415 12.6066 24.8357 12.3713C24.8298 12.1163 24.7797 11.8556 24.7309 11.6058C24.6742 11.3169 24.5658 10.9287 24.2742 10.7875C24.0248 10.6673 23.7259 10.7245 23.4633 10.76C23.1106 10.8085 22.7455 10.8903 22.4488 11.0938C22.1754 11.2807 22.1492 11.6514 22.2583 11.9375C22.5506 12.7051 23.299 13.1946 24.024 13.5183C24.0466 13.5285 24.0691 13.5379 24.0917 13.548C24.2189 13.6016 24.352 13.6661 24.4924 13.6465C24.6662 13.6219 24.7448 13.5046 24.7869 13.3655Z" fill="#BF9146"/>
<path d="M21.6484 10.4679C22.5713 10.1362 23.5422 9.93999 24.5873 9.94868C24.86 9.95085 25.156 9.96751 25.3385 10.137C25.4251 10.2173 25.5036 10.3151 25.5742 10.4266C25.4876 10.163 25.3771 9.94144 25.2432 9.7843C25.0985 9.61484 24.8629 9.59891 24.6462 9.59601C23.5975 9.58442 22.6426 9.90016 21.7401 10.402C21.7052 10.4223 21.6746 10.444 21.6484 10.4679Z" fill="#F0C170"/>
<path d="M26.0962 16.895C25.806 15.3757 25.1449 13.9324 24.1435 12.7882C22.9566 11.4319 21.4672 10.5585 19.6905 10.1711C19.0949 10.0415 19.0964 10.0386 19.204 9.46575C19.2411 9.26878 19.1684 9.20288 18.9778 9.26805C18.6847 9.36799 18.4673 9.57075 18.2557 9.78366C18.1844 9.85463 18.1255 9.99222 17.9982 9.93791C17.8702 9.88287 17.868 9.74311 17.8571 9.61638C17.8266 9.25429 17.9313 8.91611 18.0338 8.57647C18.0608 8.48812 18.0971 8.38674 18.0338 8.31649C17.9589 8.23466 17.8484 8.27666 17.7524 8.30346C17.2433 8.4454 16.8513 8.75751 16.5212 9.15074C16.3517 9.35278 16.2019 9.57075 16.0441 9.78221C15.8797 10.0031 15.8194 10.006 15.6717 9.78004C15.543 9.58306 15.3881 9.41506 15.1794 9.30136C15.1117 9.26443 15.0383 9.19056 14.9532 9.25646C14.8761 9.31512 14.9328 9.39044 14.9459 9.4614C15.0339 9.93718 14.9794 10.0393 14.6056 10.111C12.7482 10.4427 11.1875 11.2972 9.91697 12.6811C8.61373 14.1004 7.9083 15.7798 7.75848 17.6684C7.64431 19.103 7.77085 20.531 8.29302 21.8968C9.61443 25.3554 13.6907 26.1578 17.0179 26.152C19.7349 26.147 22.921 25.8066 24.7689 23.5928C26.1114 21.9844 26.4242 19.7779 26.2205 17.7546C26.1914 17.4664 26.1507 17.1796 26.0962 16.895Z" fill="#ECBB68"/>
<path d="M16.9831 26.2828C14.6348 26.2828 11.4189 25.8715 9.43784 23.9097C9.42111 23.8938 9.40148 23.8742 9.38111 23.8532C8.81458 23.2789 8.37969 22.5968 8.08951 21.827C7.5928 20.5097 7.4139 19.0766 7.54189 17.4472C7.69752 15.4557 8.44296 13.7119 9.75638 12.2629C11.0523 10.8319 12.6712 9.93179 14.5679 9.58926C14.7395 9.55595 14.7562 9.52843 14.7562 9.52843C14.7672 9.50743 14.7781 9.43501 14.7322 9.18445C14.7301 9.17504 14.7272 9.16635 14.7242 9.15838C14.7039 9.09538 14.6421 8.9042 14.8202 8.7666C14.8799 8.71953 14.9511 8.69419 15.0253 8.69419C15.1308 8.69419 15.2093 8.74416 15.261 8.77747C15.2697 8.78326 15.2784 8.78905 15.2864 8.7934C15.5068 8.91578 15.6937 9.09827 15.8566 9.35173C15.8573 9.35318 15.8588 9.35463 15.8595 9.35608C15.8624 9.35173 15.866 9.34739 15.8697 9.34304C15.914 9.28294 15.9577 9.22211 16.0013 9.16128C16.1126 9.00558 16.2282 8.84554 16.354 8.69274C16.754 8.209 17.1925 7.90484 17.6943 7.76291L17.7183 7.75567C17.7736 7.73756 17.8434 7.71729 17.9205 7.71729C18.0303 7.71729 18.1263 7.75929 18.1976 7.83822C18.3387 7.99681 18.2805 8.18944 18.2492 8.293L18.2398 8.32559C18.1423 8.65291 18.05 8.96285 18.0762 9.28294C18.0762 9.28294 18.0798 9.32928 18.0812 9.34015C18.0878 9.3329 18.0943 9.32566 18.1016 9.31842C18.3234 9.09176 18.5685 8.86002 18.9081 8.74198C18.9794 8.71736 19.0419 8.70505 19.1001 8.70505C19.2041 8.70505 19.2943 8.74488 19.3554 8.81802C19.4652 8.94982 19.4318 9.12869 19.4208 9.18735C19.3925 9.33942 19.3634 9.49584 19.3699 9.5516C19.4216 9.58057 19.5903 9.61823 19.7401 9.65081C21.5604 10.0527 23.0986 10.9695 24.3116 12.3744C25.3145 13.536 26.0061 15.0111 26.313 16.6405C26.3668 16.9273 26.4097 17.2263 26.4396 17.5305C26.6832 19.9803 26.1501 22.1384 24.94 23.6084C24.8687 23.6953 24.796 23.7786 24.7247 23.8554C24.7058 23.8764 24.6862 23.8974 24.6658 23.9184C22.6884 26.0054 19.5416 26.2784 17.0209 26.2835H16.9831V26.2828Z" fill="#EDB659"/>
<path d="M17.921 7.9345C17.9632 7.9345 18.0024 7.94681 18.0359 7.98302C18.0992 8.05399 18.0628 8.15682 18.0359 8.24662C17.9334 8.5906 17.8286 8.93385 17.8592 9.30101C17.8701 9.42918 17.8723 9.57112 18.0003 9.62688C18.0206 9.63557 18.0388 9.63919 18.0555 9.63919C18.1457 9.63919 18.1974 9.53129 18.257 9.47046C18.4686 9.25394 18.6861 9.049 18.9791 8.94761C19.0264 8.93096 19.0664 8.92299 19.0999 8.92299C19.1995 8.92299 19.2337 8.9983 19.206 9.14821C19.0984 9.72899 19.0977 9.73261 19.6926 9.86368C21.4693 10.2562 22.9587 11.1418 24.1456 12.517C25.147 13.6779 25.8081 15.1407 26.0982 16.681C26.1528 16.9692 26.1935 17.2603 26.2219 17.5522C26.4255 19.6037 26.1135 21.8407 24.7703 23.4715C24.7034 23.5526 24.6343 23.6316 24.5637 23.7083C24.5448 23.7286 24.5266 23.7482 24.5077 23.7677C22.6321 25.7469 19.6119 26.0619 17.0192 26.0669C17.0076 26.0669 16.9952 26.0669 16.9836 26.0669C14.4251 26.0669 11.4332 25.5796 9.59176 23.7576C9.57358 23.7402 9.55613 23.7228 9.53867 23.7047C9.01432 23.1732 8.5867 22.5287 8.29434 21.7524C7.77218 20.3677 7.64563 18.9201 7.75981 17.4653C7.90963 15.5491 8.61506 13.8466 9.9183 12.4084C11.1888 11.0057 12.7495 10.1389 14.6069 9.80285C14.98 9.73044 15.0353 9.62688 14.9473 9.14459C14.9349 9.07289 14.8782 8.99613 14.9545 8.93675C14.9793 8.9172 15.0025 8.90996 15.0251 8.90996C15.0811 8.90996 15.132 8.95558 15.1807 8.98237C15.3887 9.09824 15.5443 9.26769 15.6731 9.46756C15.7465 9.58198 15.7989 9.63847 15.8527 9.63847C15.9065 9.63847 15.9632 9.58198 16.0454 9.46974C16.2032 9.25538 16.353 9.03379 16.5225 8.82885C16.8527 8.42983 17.2446 8.11409 17.7537 7.96999C17.8083 7.95478 17.8664 7.9345 17.921 7.9345ZM17.921 7.5C17.8126 7.5 17.7188 7.52752 17.657 7.54562L17.6352 7.55214C17.0897 7.70639 16.6156 8.03371 16.1865 8.55294C16.0687 8.6956 15.961 8.84261 15.8578 8.98599C15.7196 8.8245 15.5661 8.6985 15.3938 8.60291C15.3894 8.60074 15.3851 8.59711 15.38 8.59422C15.3203 8.55584 15.196 8.47618 15.0265 8.47618C14.9036 8.47618 14.7858 8.51746 14.6862 8.59567C14.5742 8.68257 14.4062 8.87954 14.5182 9.22424C14.5189 9.22714 14.5196 9.22931 14.5211 9.23221C14.532 9.29304 14.5385 9.33866 14.5429 9.37342C14.5378 9.37415 14.5327 9.3756 14.5276 9.37632C12.5837 9.72827 10.9241 10.6509 9.59613 12.118C8.2478 13.6026 7.48491 15.3905 7.32492 17.4305C7.19401 19.0925 7.378 20.556 7.88563 21.9037C8.18598 22.7017 8.63688 23.4093 9.22596 24.006C9.24632 24.027 9.26668 24.0472 9.28777 24.0675C11.3226 26.0778 14.5953 26.5 16.9836 26.5H17.0199C18.6846 26.4971 19.9929 26.3624 21.1384 26.0778C22.6823 25.694 23.9216 25.0169 24.8234 24.0668C24.8444 24.0451 24.8641 24.0241 24.8844 24.0016C24.9579 23.9227 25.0335 23.8365 25.1077 23.746C25.7819 22.9277 26.251 21.9233 26.5026 20.7602C26.7193 19.7587 26.7709 18.6645 26.656 17.5087C26.6255 17.1988 26.5819 16.8932 26.5266 16.5999C26.2124 14.9336 25.5033 13.4237 24.4757 12.2324C23.2314 10.7906 21.654 9.85065 19.7864 9.4386C19.7268 9.42556 19.6606 9.41108 19.6039 9.39732C19.6126 9.34446 19.6242 9.28435 19.6344 9.22787C19.6766 9.00337 19.6388 8.81871 19.5224 8.67895C19.4191 8.55584 19.2693 8.48777 19.0999 8.48777C19.017 8.48777 18.9304 8.5037 18.8359 8.53628C18.6424 8.60291 18.4788 8.69995 18.3333 8.81147C18.3632 8.67315 18.4053 8.53194 18.449 8.38638L18.4541 8.36973L18.4584 8.35452C18.4926 8.24155 18.5835 7.94247 18.3617 7.69408C18.2483 7.5688 18.0919 7.5 17.921 7.5Z" fill="#997738"/>
<path d="M24.5078 23.7666C22.6322 25.7458 19.6119 26.0608 17.0192 26.0659C14.4528 26.0702 11.4419 25.5872 9.5918 23.7565C10.7249 24.0129 11.8586 23.7275 12.8295 23.1525C13.3961 22.8172 13.8688 22.3531 14.3786 21.9403C15.1626 21.3066 16.2076 20.8236 17.2309 20.8236H17.2323V20.8135C18.2556 20.8135 19.0861 21.3059 19.8701 21.9403C20.3799 22.3531 20.8526 22.8172 21.4191 23.1525C22.3755 23.7188 23.3936 24.0042 24.5078 23.7666Z" fill="#F3D198"/>
<path d="M11.0826 23.9189C11.0769 23.9232 11.0704 23.9274 11.0647 23.9309C11.0626 23.9281 11.0598 23.9253 11.0576 23.9225C11.0655 23.9211 11.074 23.9204 11.0826 23.9189Z" fill="#E2B465"/>
<g opacity="0.1">
<path d="M19.1165 8.92383C19.1296 8.99118 19.1558 9.05056 19.2147 9.08677C19.2219 8.98466 19.1899 8.93035 19.1165 8.92383ZM10.7778 23.602C10.2535 23.0545 9.82584 22.3912 9.53348 21.591C9.01131 20.1644 8.88477 18.6733 8.99895 17.1743C9.14876 15.2009 9.8542 13.447 11.1574 11.9661C11.8687 11.1572 12.6701 10.5213 13.5639 10.0572C12.1574 10.4931 10.9436 11.2767 9.9182 12.4085C8.61569 13.8467 7.91025 15.5492 7.76044 17.4647C7.64626 18.9195 7.7728 20.3671 8.29497 21.7517C8.58732 22.5281 9.01495 23.1718 9.5393 23.7041C9.55675 23.7222 9.57421 23.7396 9.59239 23.757C11.4425 25.5877 14.4533 26.0714 17.0198 26.0663C17.4213 26.0656 17.8336 26.0569 18.2496 26.0366C15.6853 26.0403 12.6796 25.5413 10.8316 23.657C10.8134 23.6389 10.796 23.6208 10.7778 23.602Z" fill="#997738"/>
</g>
<path d="M11.3867 18.3234C11.4253 18.0047 11.57 17.7078 11.8878 17.5268C12.2434 17.324 12.6202 17.2849 12.9961 17.4747C13.0907 17.5225 13.1889 17.5978 13.186 17.7245C13.183 17.8462 13.082 17.8932 12.9889 17.936C12.5787 18.1228 12.1918 18.3487 11.8209 18.6044C11.738 18.6616 11.6369 18.7521 11.5198 18.6695C11.4136 18.5949 11.386 18.4805 11.3867 18.3234Z" fill="#7C5F33"/>
<path d="M22.923 18.3334C22.9245 18.4674 22.9346 18.6136 22.7936 18.6846C22.6692 18.7469 22.571 18.6462 22.4743 18.5839C22.1325 18.3624 21.7994 18.1284 21.4161 17.9742C21.2954 17.9257 21.1238 17.8641 21.142 17.6947C21.1594 17.5296 21.3201 17.4658 21.4619 17.4159C22.1383 17.1769 22.9172 17.6679 22.923 18.3334Z" fill="#7C5F33"/>
<path d="M17.1816 22.9995L17.167 24.2147" stroke="#7C5F33" stroke-width="0.530915" stroke-miterlimit="10" stroke-linecap="round" stroke-linejoin="round"/>
<path d="M17.1475 25.1453C16.8813 25.1453 16.6231 25.0953 16.4013 25.0019C16.3715 24.9896 16.3417 24.9758 16.3133 24.9614C16.0137 24.8136 15.8057 24.5862 15.7133 24.3045C15.6602 24.1423 15.6762 23.991 15.7592 23.8773C15.837 23.7708 15.9621 23.7114 16.1119 23.7114C16.1548 23.7114 16.1991 23.7165 16.245 23.7259C16.2631 23.7296 16.2835 23.7346 16.3031 23.739C16.3722 23.7542 16.442 23.7716 16.5119 23.7889L16.6064 23.8121C16.7744 23.8519 16.9162 23.8802 17.0624 23.8874C17.0857 23.8889 17.1097 23.8889 17.1329 23.8889C17.3409 23.8889 17.5475 23.8461 17.7402 23.7998C17.7853 23.7889 17.8304 23.7773 17.8762 23.7665C17.9249 23.7542 17.9744 23.7419 18.0238 23.7303L18.0587 23.7223C18.1191 23.7078 18.186 23.6919 18.2573 23.6919C18.4144 23.6919 18.5089 23.7708 18.5605 23.8375C18.6696 23.9779 18.682 24.1539 18.5969 24.3603C18.4973 24.6007 18.3045 24.8006 18.0391 24.9389C17.7846 25.0714 17.4682 25.1453 17.1475 25.1453Z" fill="#BF5858"/>
<path d="M18.2564 23.8728C18.3161 23.8728 18.3714 23.8909 18.4157 23.9481C18.4957 24.0517 18.4761 24.1741 18.4274 24.2914C18.3394 24.5036 18.1677 24.6665 17.9539 24.778C17.719 24.9011 17.4325 24.9634 17.1474 24.9634C16.9118 24.9634 16.6761 24.9207 16.4718 24.8345C16.4456 24.8237 16.4201 24.8113 16.3954 24.799C16.1561 24.681 15.9685 24.4971 15.8856 24.2472C15.8165 24.0365 15.9191 23.8917 16.111 23.8917C16.1409 23.8917 16.1721 23.8953 16.2056 23.9025C16.2238 23.9061 16.242 23.9105 16.2601 23.9148C16.3612 23.938 16.4616 23.9633 16.5619 23.988C16.7227 24.0263 16.8841 24.0604 17.0521 24.0684C17.0783 24.0698 17.1052 24.0705 17.1314 24.0705C17.3539 24.0705 17.5685 24.0278 17.7815 23.9764C17.8761 23.9532 17.9706 23.9293 18.0652 23.9061C18.0768 23.9032 18.0877 23.9011 18.0994 23.8982C18.1524 23.8859 18.2063 23.8728 18.2564 23.8728ZM18.2564 23.5107C18.1641 23.5107 18.0819 23.5303 18.0165 23.5455L17.9975 23.5498L17.983 23.5535C17.9306 23.5658 17.8805 23.5788 17.831 23.5911C17.7859 23.602 17.7416 23.6136 17.6965 23.6244C17.5154 23.6679 17.3212 23.7084 17.1321 23.7084C17.1117 23.7084 17.0907 23.7077 17.0703 23.707C16.9387 23.7005 16.8063 23.6744 16.6478 23.636C16.6165 23.6281 16.5838 23.6201 16.5518 23.6121C16.4819 23.5947 16.4121 23.5774 16.3416 23.5614C16.3234 23.5571 16.3016 23.552 16.2805 23.5477C16.2245 23.5354 16.167 23.5296 16.111 23.5296C15.9045 23.5296 15.7227 23.6172 15.6114 23.77C15.4936 23.9322 15.4682 24.1415 15.5402 24.3595C15.6485 24.6882 15.8885 24.9526 16.234 25.1235C16.2623 25.1379 16.2958 25.1532 16.3292 25.1676C16.5743 25.2712 16.8572 25.3255 17.1474 25.3255C17.4972 25.3255 17.8441 25.2444 18.1234 25.0981C18.4259 24.9403 18.647 24.7092 18.7633 24.429C18.903 24.0915 18.8077 23.8605 18.703 23.7258C18.5953 23.5875 18.4368 23.5107 18.2564 23.5107Z" fill="#9E4848"/>
<path d="M17.9533 24.7777C17.5242 25.0029 16.9235 25.0254 16.4719 24.8342C16.4457 24.8233 16.4202 24.811 16.3955 24.7987C16.6035 24.3852 17.5031 24.5214 17.8129 24.6771C17.8675 24.7046 17.9147 24.7386 17.9533 24.7777Z" fill="#E87272"/>
<path d="M16.9805 23.1643C16.9376 23.1528 16.8961 23.1368 16.8569 23.118C16.4874 22.9435 16.1798 22.6661 15.9747 22.3134C15.742 21.9144 15.8758 21.5596 16.3282 21.4553C16.8867 21.3264 17.4598 21.3264 18.0197 21.4459C18.4416 21.5364 18.587 21.8963 18.371 22.2693C18.2677 22.4474 18.1441 22.614 17.9957 22.7574C17.8539 22.8935 17.6896 23.0065 17.5092 23.0869C17.4125 23.1303 17.3063 23.1738 17.2001 23.1846C17.1267 23.1926 17.0518 23.1839 16.9805 23.1643Z" fill="#2E3537"/>
<path d="M17.7318 21.6437C17.8481 21.5872 17.987 21.5865 18.1048 21.6401C18.1834 21.6756 18.2379 21.7335 18.2372 21.8399C18.2365 22.0217 18.0779 22.0825 17.9208 22.0825C17.7638 22.0825 17.6059 22.0217 17.6045 21.8399C17.6045 21.7349 17.659 21.6792 17.7318 21.6437Z" fill="#6B7071"/>
<path d="M13.4488 21.8596C12.5303 21.8567 11.8103 21.1426 11.8096 20.2331C11.8081 19.3214 12.5259 18.6037 13.4437 18.5986H13.4532C13.8997 18.5986 14.3164 18.7666 14.627 19.0715C14.9389 19.3771 15.1098 19.7884 15.1098 20.228C15.1098 21.1426 14.3819 21.8596 13.4539 21.8596H13.4488Z" fill="#FEFEFE"/>
<path d="M13.4521 18.7801C14.2754 18.7801 14.9277 19.4195 14.9277 20.2284C14.9277 21.0445 14.2819 21.6789 13.4536 21.6789C13.4521 21.6789 13.4507 21.6789 13.4492 21.6789C12.6325 21.6767 11.9918 21.0409 11.9911 20.2327C11.9903 19.426 12.6325 18.7837 13.4441 18.7793C13.4463 18.7801 13.4492 18.7801 13.4521 18.7801ZM13.4521 18.418H13.4412C12.4223 18.4238 11.6252 19.2211 11.626 20.2335C11.6274 21.2444 12.4267 22.0381 13.447 22.041H13.4528C14.4834 22.041 15.2906 21.2451 15.2906 20.2284C15.2906 19.7396 15.1001 19.2826 14.7532 18.943C14.4092 18.6041 13.9466 18.418 13.4521 18.418Z" fill="#7C5F33"/>
<path d="M20.7068 21.8605C19.7992 21.8562 19.0603 21.1255 19.0596 20.2319C19.0596 19.7952 19.2327 19.3846 19.5483 19.0761C19.8625 18.7691 20.2806 18.5996 20.725 18.5996C21.6362 18.6032 22.3758 19.3346 22.3802 20.2297C22.3824 20.6577 22.2144 21.0625 21.9082 21.3696C21.5919 21.686 21.1686 21.8605 20.7163 21.8605H20.7068Z" fill="#FEFEFE"/>
<path d="M20.7252 18.7805C20.7273 18.7805 20.7295 18.7805 20.7317 18.7805C21.5382 18.7842 22.1949 19.433 22.1986 20.2303C22.2029 21.0291 21.536 21.6794 20.7157 21.6794C20.7128 21.6794 20.7106 21.6794 20.7077 21.6794C19.8975 21.675 19.2423 21.0284 19.2416 20.2318C19.2416 19.4294 19.9055 18.7805 20.7252 18.7805ZM20.7252 18.4185C20.2328 18.4185 19.7695 18.606 19.4212 18.9471C19.0707 19.2896 18.8779 19.7459 18.8779 20.2318C18.8787 21.2246 19.6983 22.0364 20.7055 22.0415H20.715C21.216 22.0415 21.6859 21.8481 22.0364 21.4969C22.3775 21.1558 22.5644 20.7054 22.5615 20.2289C22.5564 19.2346 21.736 18.4228 20.7324 18.4185H20.7252Z" fill="#7C5F33"/>
<path d="M20.7058 21.3573C21.3508 21.3616 21.8737 20.854 21.8737 20.224C21.8737 19.6048 21.3617 19.0964 20.7298 19.0899C20.0883 19.0827 19.5647 19.5932 19.5654 20.2247C19.5654 20.8489 20.0738 21.3537 20.7058 21.3573Z" fill="#473321"/>
<path d="M20.7115 20.898C21.0955 20.9009 21.406 20.5989 21.406 20.2238C21.406 19.8552 21.1013 19.5532 20.7253 19.5489C20.3435 19.5445 20.0322 19.848 20.0322 20.2238C20.033 20.5953 20.3355 20.8958 20.7115 20.898Z" fill="#252728"/>
<path opacity="0.9" d="M21.1 19.5499C20.9269 19.5543 20.7749 19.702 20.7734 19.8678C20.772 20.0424 20.932 20.1937 21.1153 20.1901C21.2876 20.1872 21.4425 20.038 21.4411 19.8758C21.4396 19.6955 21.2825 19.5449 21.1 19.5499Z" fill="white"/>
<path d="M13.4548 21.3573C14.0999 21.3616 14.6228 20.854 14.6228 20.224C14.6228 19.6048 14.1108 19.0964 13.4788 19.0899C12.8373 19.0827 12.3137 19.5932 12.3145 20.2247C12.3145 20.8489 12.8228 21.3537 13.4548 21.3573Z" fill="#473321"/>
<path d="M13.4615 20.898C13.8455 20.9009 14.156 20.5989 14.156 20.2238C14.156 19.8552 13.8513 19.5532 13.4753 19.5489C13.0935 19.5445 12.7822 19.848 12.7822 20.2238C12.783 20.5953 13.0855 20.8958 13.4615 20.898Z" fill="#252728"/>
<path opacity="0.9" d="M13.85 19.5499C13.6769 19.5543 13.5249 19.702 13.5234 19.8678C13.522 20.0424 13.682 20.1937 13.8653 20.1901C14.0376 20.1872 14.1925 20.038 14.1911 19.8758C14.1903 19.6955 14.0325 19.5449 13.85 19.5499Z" fill="white"/>
<rect x="0.5" y="0.5" width="33" height="33" rx="16.5" stroke="#FF7529"/>
</svg>
