<svg width="58" height="58" viewBox="0 0 58 58" fill="none" xmlns="http://www.w3.org/2000/svg">
<g clip-path="url(#clip0_229_16233)">
<path d="M29.0563 57.5063C44.7838 57.5063 57.5335 44.7437 57.5335 29.0002C57.5335 13.2567 44.7838 0.494141 29.0563 0.494141C13.3288 0.494141 0.579102 13.2567 0.579102 29.0002C0.579102 44.7437 13.3288 57.5063 29.0563 57.5063Z" fill="#FFD309"/>
<path d="M17.0702 55.0641C11.8972 52.7121 7.59351 48.8979 4.62518 44.0333L4.55469 43.9196L4.57035 43.7863C5.77257 32.8104 20.8805 15.6644 41.8155 13.7789L41.9839 13.7632L42.1092 13.8769C43.1979 14.8529 44.6781 16.464 45.571 17.5538L45.6649 17.6675L45.661 17.8164C45.2342 29.251 38.7493 38.4238 33.3843 44.1038C27.2362 50.611 20.3636 54.8054 17.27 55.0954L17.1681 55.1033L17.0702 55.0641Z" fill="#E0557E"/>
<path d="M41.8508 14.1669C42.912 15.1155 44.3688 16.7031 45.2734 17.8007C44.498 38.5531 22.9404 54.1664 17.2347 54.7034C12.1361 52.3867 7.85981 48.5726 4.96196 43.8255C6.13676 33.0965 21.1742 16.0328 41.8508 14.1669ZM42.121 13.3555L41.7842 13.3868C20.6534 15.2919 5.40447 32.6378 4.18659 43.7431L4.15918 44.0097L4.30016 44.2371C7.31157 49.1684 11.674 53.0374 16.9175 55.4208L17.1055 55.507L17.3131 55.4874C20.4811 55.1895 27.4673 50.9481 33.6781 44.3743C39.09 38.6432 45.6297 29.3882 46.0644 17.8321L46.0761 17.5342L45.8882 17.3029C44.9836 16.2014 43.4877 14.5707 42.3833 13.5828L42.121 13.3555Z" fill="#BF426D"/>
<path d="M51.8171 44.6486C54.0923 34.2685 51.0064 21.7833 46.6988 16.6364L46.6323 16.558L46.6127 16.4561C46.5539 16.1386 46.4795 15.872 46.409 15.6407C46.2446 15.0645 46.0997 14.5666 46.4678 13.9669L46.6127 13.7317L46.8829 13.7866C50.1371 14.453 53.869 16.1346 54.7971 16.9461L54.8598 17.001L54.895 17.0754C56.6925 20.9366 57.6049 24.9507 57.6049 29C57.6049 35.2524 55.7448 41.0775 52.4984 44.9818L51.4724 46.2205L51.8171 44.6486Z" fill="#E0557E"/>
<path d="M46.8081 14.1669C50.0858 14.8372 53.7159 16.5149 54.5461 17.2362C56.2104 20.8112 57.2207 24.7939 57.2207 28.9962C57.2207 34.833 55.5956 40.6463 52.2043 44.727C54.4247 34.5978 51.5817 21.8461 47.0039 16.3777C46.7963 15.2802 46.4047 14.8176 46.8081 14.1669ZM46.4282 13.2927L46.1424 13.7592C45.6842 14.504 45.8643 15.1351 46.0405 15.7466C46.1071 15.9818 46.1776 16.2288 46.2324 16.5267L46.2716 16.7305L46.4047 16.8873C50.6536 21.9637 53.6885 34.296 51.4407 44.5663L50.7515 47.7101L52.8074 45.2366C56.1125 41.2618 58.0039 35.3465 58.0039 29.004C58.0039 24.8959 57.0798 20.8269 55.2588 16.9109L55.1883 16.7619L55.063 16.6521C54.1153 15.825 50.403 14.1042 46.9686 13.4025L46.4282 13.2927Z" fill="#BF426D"/>
<path d="M45.3862 13.5163C45.1199 13.5163 44.8497 13.336 44.5129 13.1047C44.3054 12.9636 43.9686 12.7362 43.8041 12.7049C43.7415 12.8029 43.6318 12.8734 43.5144 12.8852C43.4987 12.8852 43.487 12.8891 43.4713 12.8891C43.3577 12.8891 43.2442 12.8421 43.1698 12.7519C39.4848 8.34192 29.2483 5.38234 21.9998 5.38234C17.5943 5.38234 13.7684 6.25649 10.6316 7.98129C10.5729 8.01265 10.5063 8.02833 10.4437 8.02833C10.3184 8.02833 10.197 7.96953 10.1226 7.85977C10.009 7.69513 10.0364 7.47169 10.1852 7.33841C15.1468 2.99507 22.0233 0.498047 29.0565 0.498047C34.3392 0.498047 39.4182 1.89356 43.7454 4.53954C43.7963 4.5709 43.8394 4.6101 43.8707 4.66106C45.1904 6.68377 46.5101 10.0079 45.9188 12.7715C45.9345 12.9479 45.9266 13.1753 45.7817 13.3438C45.6799 13.4536 45.5429 13.5163 45.3862 13.5163Z" fill="#E0557E"/>
<path d="M29.0568 0.889953C34.363 0.889953 39.3207 2.29722 43.5421 4.87265C45.038 7.16584 46.064 10.341 45.5236 12.7479C45.5589 13.0184 45.504 13.1203 45.3905 13.1203C45.0655 13.1203 44.2666 12.3088 43.7771 12.3088C43.6518 12.3088 43.546 12.3637 43.4756 12.497C40.3545 8.76127 31.0775 4.98633 22.0041 4.98633C17.9158 4.98633 13.8705 5.75464 10.4479 7.63623C15.3429 3.33994 22.0315 0.889953 29.0568 0.889953ZM29.0568 0.105957C21.8239 0.105957 15.0336 2.57162 9.93102 7.04824C9.62949 7.31088 9.57467 7.76167 9.80571 8.08703C9.95844 8.30263 10.2012 8.42023 10.4479 8.42023C10.5772 8.42023 10.7064 8.38887 10.8239 8.32223C13.9019 6.6288 17.6651 5.77033 22.0041 5.77033C29.1665 5.77033 39.2619 8.67503 42.8725 12.9988C43.0213 13.1791 43.2445 13.281 43.4716 13.281C43.4991 13.281 43.5265 13.281 43.5539 13.2771C43.6714 13.2653 43.7849 13.2261 43.8867 13.1634C44.0199 13.2379 44.1883 13.3555 44.294 13.426C44.6739 13.6848 45.0028 13.9043 45.3866 13.9043C45.6568 13.9043 45.8996 13.7945 46.0758 13.5946C46.3107 13.328 46.3264 12.9948 46.3147 12.7871C46.8942 9.91766 45.5471 6.5112 44.1961 4.44145C44.1334 4.34345 44.0473 4.26113 43.9494 4.20233C39.5595 1.52499 34.41 0.105957 29.0568 0.105957Z" fill="#BF426D"/>
<g opacity="0.3">
<path d="M27.5831 19.73C32.734 18.5627 36.1491 14.2529 35.2107 10.1038C34.2723 5.95481 29.336 3.53765 24.185 4.70498C19.034 5.8723 15.619 10.1821 16.5573 14.3311C17.4957 18.4801 22.4321 20.8973 27.5831 19.73Z" fill="white"/>
</g>
<path d="M46.7772 18.1259C45.6533 18.1259 44.3885 17.6751 43.3037 16.8871C42.2895 16.1502 41.5141 15.1898 41.1264 14.1902C40.7035 13.1005 40.7779 12.0773 41.334 11.309C41.847 10.5995 42.7124 10.2114 43.7697 10.2114C44.8936 10.2114 46.1585 10.6622 47.2432 11.4501C48.2575 12.1871 49.0328 13.1475 49.4205 14.1471C49.8435 15.2368 49.7691 16.26 49.213 17.0283C48.7 17.7378 47.8345 18.1259 46.7772 18.1259Z" fill="#E0557E"/>
<path d="M43.7736 10.7995C44.7408 10.7995 45.8726 11.1798 46.9025 11.9246C48.8135 13.3122 49.6359 15.4447 48.7391 16.6834C48.324 17.2557 47.6113 17.538 46.7772 17.538C45.8099 17.538 44.6782 17.1577 43.6483 16.4129C41.7373 15.0253 40.9149 12.8928 41.8117 11.6541C42.2268 11.0818 42.9395 10.7995 43.7736 10.7995ZM43.7736 9.62354C42.5205 9.62354 41.4866 10.1018 40.8601 10.9642C40.1944 11.8854 40.0925 13.1358 40.5781 14.402C41.005 15.5113 41.8508 16.5619 42.9552 17.3655C44.1534 18.2357 45.5084 18.714 46.7733 18.714C48.0264 18.714 49.0602 18.2357 49.6868 17.3733C50.9869 15.5819 50.0627 12.7713 47.5878 10.972C46.3895 10.1018 45.0346 9.62354 43.7736 9.62354Z" fill="#C95079"/>
<path opacity="0.1" d="M1.05371 29.239C1.05371 44.6288 13.5184 57.1061 28.8926 57.1061C40.9461 57.1061 51.2139 49.4387 55.0868 38.7097C50.2074 46.7692 41.3612 52.1552 31.2618 52.1552C15.8876 52.1552 3.4229 39.6779 3.4229 24.2881C3.4229 20.96 4.00638 17.7692 5.07937 14.8096C2.52221 19.0157 1.05371 23.9588 1.05371 29.239Z" fill="black"/>
<g opacity="0.3">
<path d="M15.1641 25.8228C16.66 23.1902 16.1567 20.0791 14.04 18.8739C11.9232 17.6686 8.99463 18.8258 7.49873 21.4584C6.00283 24.091 6.50611 27.2021 8.62283 28.4073C10.7396 29.6125 13.6682 28.4554 15.1641 25.8228Z" fill="white"/>
</g>
<g opacity="0.24">
<path d="M47.6772 15.7521C48.2243 15.2636 48.0366 14.159 47.2578 13.2849C46.479 12.4108 45.4041 12.0982 44.8569 12.5867C44.3098 13.0752 44.4975 14.1798 45.2763 15.0539C46.0551 15.928 47.13 16.2406 47.6772 15.7521Z" fill="white"/>
</g>
<g opacity="0.3">
<path d="M13.6084 5.59389C17.6458 3.69662 22.208 2.62255 27.0403 2.62255C43.5385 2.62255 56.9116 15.0998 56.9116 30.4897C56.9116 30.9091 56.8999 31.3246 56.8803 31.7362C56.9899 30.7327 57.0487 29.7135 57.0487 28.6826C57.0487 13.2927 44.584 0.815436 29.2059 0.815436C23.4219 0.811516 18.057 2.57551 13.6084 5.59389Z" fill="white"/>
</g>
<path d="M28.9706 1.56799C44.106 1.56799 56.3749 13.8493 56.3749 29C56.3749 44.1507 44.106 56.432 28.9706 56.432C13.8353 56.432 1.5664 44.1507 1.5664 29C1.5664 13.8493 13.8353 1.56799 28.9706 1.56799ZM28.9706 0C12.9972 0 0 13.0104 0 29C0 44.9896 12.9972 58 28.9706 58C44.944 58 57.9413 44.9896 57.9413 29C57.9413 13.0104 44.944 0 28.9706 0Z" fill="#BF4F7D"/>
</g>
<defs>
<clipPath id="clip0_229_16233">
<rect width="58" height="58" fill="white"/>
</clipPath>
</defs>
</svg>
