<svg width="144" height="97" viewBox="0 0 144 97" fill="none" xmlns="http://www.w3.org/2000/svg">
<g clip-path="url(#clip0_229_15411)">
<g opacity="0.69">
<path d="M38.8681 8.09946C39.4035 8.25058 39.9628 8.45827 40.5342 8.72916C44.8346 10.7602 48.2159 15.0234 49.8037 20.415C50.9307 24.2612 52.4036 31.6137 49.6695 37.699C49.1528 38.8588 48.4948 39.9189 47.7244 40.8476C45.1809 43.9269 41.4613 46.3355 36.6695 48.0228C35.618 48.3938 34.5044 48.7373 33.2749 49.068C31.3951 49.5839 29.4808 50.0104 27.6297 50.4248C26.608 50.6547 25.5863 50.8846 24.562 51.1237L24.3369 51.1798C23.1389 51.4695 21.9079 51.7699 20.5748 51.8322C19.6196 51.8616 18.7287 51.7696 17.9163 51.5403C17.1594 51.3267 16.464 51.0008 15.8605 50.5614C13.5573 48.9047 12.7846 45.4276 14.1438 42.8013C14.3389 42.4278 14.5632 42.0924 14.8743 41.7317C14.911 41.6723 14.8868 41.5459 14.809 41.504C13.9735 41.039 13.2168 40.5065 12.5548 39.921C10.927 38.4848 9.9691 36.8291 9.76867 35.138C9.4964 32.8187 10.6494 30.3933 12.8011 28.808C13.3084 28.423 13.9081 28.064 14.6067 27.7429C14.6988 27.6991 14.7421 27.6516 14.7722 27.5803C14.7852 27.5342 14.8098 27.4115 14.7052 27.2525C13.1413 24.7779 13.1035 21.6277 14.6077 19.0524C15.4699 17.5516 16.7888 16.3391 18.4267 15.5855C20.2699 14.7403 22.388 14.5807 24.4122 15.142C24.8632 13.6149 25.8905 12.2703 27.2768 11.5254C28.5947 10.811 30.2384 10.6371 31.7708 11.0696C31.7893 11.0748 31.7985 11.0774 31.8077 11.08C32.1073 10.4071 32.5309 9.78914 33.0747 9.27487C34.1282 8.2965 35.9787 7.28396 38.8681 8.09946Z" fill="#6B931F"/>
<path d="M18.4564 49.6994C17.9394 49.5535 17.4433 49.3337 16.9969 49.0084C15.4136 47.8738 14.9905 45.3824 15.8678 43.6865C16.004 43.416 16.1759 43.1954 16.357 42.9774C17.2077 42.0116 16.8773 40.4632 15.7488 39.8357C15.069 39.4545 14.4167 39.0112 13.8248 38.4954C12.7638 37.558 11.8416 36.3409 11.6816 34.9304C11.4717 33.1668 12.5135 31.4178 13.9463 30.367C14.4036 30.0177 14.91 29.7421 15.4178 29.4967C16.6781 28.9155 17.0633 27.4097 16.3349 26.2473C15.0821 24.2592 15.1786 21.9044 16.2662 20.0287C16.9173 18.887 17.9328 17.9377 19.2286 17.3367C20.6942 16.664 22.3935 16.5755 23.9444 17.0132C24.5906 17.1956 25.2015 17.4677 25.7678 17.8269C25.7837 17.8413 25.8114 17.8492 25.8299 17.8544C25.9868 17.8987 26.1563 17.7571 26.1267 17.5794C25.8262 15.8899 26.6687 14.0347 28.1852 13.2169C29.1151 12.712 30.2348 12.6293 31.2502 12.9159C32.0902 13.153 32.8599 13.6394 33.3879 14.3465C33.3306 14.1609 33.2944 13.9713 33.2793 13.7777C33.1505 12.645 33.5565 11.454 34.3971 10.6647C35.5399 9.58194 36.9746 9.54835 38.3408 9.93395C38.8116 10.0668 39.2786 10.2485 39.7193 10.4526C43.8614 12.409 46.6692 16.5503 47.9613 20.9414C49.388 25.8091 50.0788 32.0837 47.923 36.897C47.4887 37.8708 46.9304 38.7896 46.2492 39.6139C43.6335 42.7726 39.9009 44.8386 36.0383 46.2002C34.9565 46.5725 33.8758 46.9054 32.7727 47.212C29.9214 47.9919 26.997 48.5718 24.123 49.2556C22.925 49.5454 21.7217 49.8536 20.5005 49.9076C19.8195 49.9545 19.121 49.887 18.4564 49.6994ZM17.4142 53.3918C18.4204 53.6758 19.5104 53.8041 20.6499 53.7569C22.1833 53.6914 23.5736 53.3562 24.7927 53.0625L25.0297 52.9998C26.0355 52.7554 27.0545 52.5348 28.0762 52.3049C29.9392 51.8839 31.8746 51.4534 33.7873 50.9268C35.0734 50.5722 36.2198 50.2181 37.3135 49.8391C42.4461 48.0386 46.4418 45.4289 49.2124 42.0748C50.0917 41.0074 50.8427 39.7942 51.434 38.476C54.4246 31.8352 52.8578 23.9679 51.6615 19.8729C49.9152 13.9482 46.1583 9.25008 41.3736 6.99268C40.6967 6.67205 40.0292 6.42386 39.4015 6.24669C36.466 5.41816 33.7603 5.99998 31.7742 7.88122C31.4314 8.21303 31.1229 8.56449 30.8461 8.94483C29.291 8.80489 27.7201 9.10902 26.3693 9.83405C25.0304 10.5525 23.9614 11.656 23.2449 12.9588C21.3219 12.7449 19.3768 13.0331 17.6442 13.8397C15.638 14.7685 14.0155 16.2441 12.9517 18.1065C11.3858 20.7941 11.1774 24.0043 12.3406 26.8043C12.0986 26.9553 11.8633 27.1181 11.6439 27.2953C8.9874 29.2565 7.53228 32.3639 7.88846 35.3747C8.1352 37.5373 9.32239 39.6165 11.3017 41.3612C11.628 41.6527 11.9781 41.9308 12.3426 42.1932C10.7252 45.6635 11.7641 49.9633 14.7803 52.1302C15.5476 52.6956 16.4357 53.1157 17.4142 53.3918Z" fill="#526B10"/>
<path opacity="0.3" d="M19.2378 17.3393C21.3099 16.3893 23.8614 16.6011 25.7771 17.8295C25.9435 17.9462 26.1695 17.7808 26.136 17.582C25.8354 15.8925 26.6779 14.0374 28.1945 13.2196C29.9003 12.2958 32.2288 12.8034 33.4063 14.3517C33.3491 14.1661 33.3129 13.9765 33.2978 13.7829C33.169 12.6502 33.5749 11.4592 34.4156 10.6699C35.9512 9.21962 38.0093 9.66098 39.7444 10.4696C43.8865 12.4261 46.6943 16.5673 47.9864 20.9585C49.4131 25.8262 50.1039 32.1008 47.9481 36.9141C47.5787 36.3514 47.2566 35.7621 46.984 35.3862C45.6275 33.5183 44.1448 31.7444 42.5256 30.1014C39.3741 26.8598 35.7696 24.0584 31.8387 21.8127C28.8688 20.1174 25.6152 18.7207 22.1787 18.6079C20.1442 18.5419 18.0469 19.0164 16.2806 20.0129C16.9292 18.8803 17.9446 17.9311 19.2378 17.3393Z" fill="#526B10"/>
<path d="M14.0832 36.8041C15.1463 37.5925 16.5331 37.8344 17.8597 37.7603C18.7199 37.7141 19.6455 37.5069 20.2165 36.8608C20.672 36.3415 20.8317 35.5992 20.7057 34.9158C20.5796 34.2324 20.2048 33.6184 19.717 33.1219C16.7111 30.0709 9.60735 33.4877 14.0832 36.8041Z" fill="#75A122"/>
<path d="M18.2821 48.7632C19.3638 49.1681 20.5819 48.9837 21.6715 48.5836C22.2177 48.379 22.761 48.1137 23.1033 47.6423C23.3801 47.2619 23.4971 46.7767 23.4903 46.3064C23.4769 44.5883 21.8055 43.1299 20.0915 43.1644C17.1786 43.2093 14.7402 47.4346 18.2821 48.7632Z" fill="#75A122"/>
<path d="M66.4157 17.0704C68.3911 17.628 70.3831 18.4095 72.3455 19.4019C82.5704 24.5602 91.695 32.5574 99.7402 39.612C104.854 44.095 109.831 48.8485 114.55 53.7386L115.22 54.4361C119.509 58.8756 123.934 63.4635 126.959 69.1311C128.497 72.0169 131.368 77.3819 128.461 82.033C128.192 82.4555 127.915 82.8358 127.618 83.1806C126.404 84.622 124.771 85.676 122.775 86.2885C121.826 86.5787 120.793 86.7757 119.626 86.8849L119.493 86.8972C118.87 86.9505 118.256 87.0065 117.639 87.0415C113.313 87.3254 108.832 87.1672 103.954 86.5478C103.954 86.5478 103.358 86.4694 103.34 86.4642C97.7394 85.7206 92.2702 84.476 87.1845 83.2499L78.8629 81.2001C76.6147 80.6553 74.4258 80.0773 72.3672 79.4963C61.0498 76.3021 51.8697 72.3855 44.3151 67.5124C39.4314 64.37 35.9528 60.169 34.5168 55.6873C34.5127 55.6663 34.4995 55.6426 34.4955 55.6215C33.3774 52.0967 33.5558 48.5691 35.0112 45.1428C35.0766 44.9818 35.1564 44.805 35.2362 44.6282C35.4181 44.231 35.6184 43.8391 35.8279 43.4497C36.7789 41.7049 37.9875 40.2122 39.1529 38.767C40.0689 37.6402 40.9246 36.5861 41.6389 35.4322C42.4975 34.05 43.2933 32.4308 44.0566 30.5035C44.5572 29.2594 45.001 27.9694 45.326 26.9947L45.4356 26.6768C45.758 25.7114 46.1515 24.776 46.5915 23.9234C47.5107 22.1497 48.6706 20.6532 50.0542 19.459C52.5296 17.3272 55.6472 16.2038 59.3136 16.1025C61.552 16.0465 63.9325 16.3696 66.4157 17.0704Z" fill="#FF7529"/>
<path d="M72.8887 77.6503C63.2883 74.9406 53.6887 71.2744 45.3485 65.9006C41.2662 63.2733 37.7203 59.452 36.3241 55.0414C35.4256 52.1865 35.4261 49.0771 36.7743 45.8896C36.837 45.7379 36.909 45.5887 36.9718 45.437C37.134 45.0742 37.312 44.7258 37.5086 44.3826C39.0856 41.4789 41.5409 39.2418 43.2724 36.4614C44.3067 34.8099 45.135 33.0404 45.8459 31.2278C46.3217 30.0365 46.742 28.8296 47.1532 27.6201C47.1911 27.5212 47.2171 27.4289 47.255 27.3299C47.5617 26.4198 47.9082 25.5808 48.301 24.8246C49.1338 23.2158 50.1547 21.9292 51.3136 20.9308C53.5761 18.988 56.3837 18.116 59.3769 18.0339C61.4874 17.9718 63.7046 18.3086 65.8924 18.9261C67.794 19.4628 69.6844 20.2156 71.4726 21.119C81.3491 26.0992 90.1961 33.8087 98.4751 41.059C103.563 45.5249 108.473 50.1996 113.167 55.0726C117.638 59.7131 122.219 64.3151 125.271 70.03C126.991 73.2564 129.016 77.5254 126.837 81.0067C126.634 81.3381 126.408 81.6432 126.169 81.9246C125.102 83.1981 123.745 83.9811 122.221 84.4379C121.347 84.7095 120.413 84.8746 119.443 84.9594C119.4 84.9674 119.352 84.9636 119.31 84.9717C118.705 85.0303 118.115 85.073 117.515 85.1131C112.977 85.407 108.555 85.1854 104.196 84.6328C104.022 84.6136 103.86 84.5878 103.686 84.5686C103.637 84.5648 103.6 84.5544 103.552 84.5506C98.2107 83.8405 92.942 82.6624 87.6347 81.3737C87.2444 81.2735 86.8515 81.1826 86.452 81.0798C86.0524 80.977 85.6595 80.886 85.2692 80.7858C84.8209 80.6792 84.3752 80.5634 83.9269 80.4568C83.1898 80.2786 82.4461 80.0887 81.709 79.9105C80.9073 79.7141 80.1148 79.5204 79.3131 79.324C77.185 78.813 75.0395 78.2573 72.8887 77.6503ZM71.8465 81.3427C73.9327 81.9316 76.1428 82.5055 78.4186 83.0582C79.2111 83.2519 80.0036 83.4457 80.796 83.6395C81.3736 83.7825 81.9419 83.923 82.5102 84.0635L83.0113 84.1949C83.3555 84.2821 83.7089 84.3719 84.0741 84.455L84.3628 84.5266L84.9496 84.6723L85.5456 84.8205L86.1601 84.974L86.7284 85.1145C91.8669 86.3655 97.3941 87.6165 103.053 88.3665C103.062 88.3691 103.062 88.3691 103.071 88.3717C103.129 88.3781 103.187 88.3845 103.245 88.3909L103.41 88.4075L103.746 88.4525C108.722 89.0795 113.311 89.2387 117.768 88.9517C118.409 88.9035 119.041 88.8527 119.676 88.7927C119.697 88.7887 119.728 88.7873 119.749 88.7832L119.809 88.7804C121.109 88.659 122.259 88.4352 123.349 88.105C125.693 87.3913 127.641 86.1373 129.111 84.3895C129.44 84.0037 129.779 83.5415 130.087 83.0503C133.579 77.458 130.258 71.2182 128.651 68.2234C125.503 62.3216 120.975 57.6352 116.604 53.1024L115.933 52.4049C111.176 47.4741 106.158 42.6891 101.003 38.1746C92.8698 31.0452 83.65 22.9613 73.2073 17.6918C71.1394 16.6496 69.03 15.825 66.9345 15.2336C64.2667 14.4806 61.6845 14.1306 59.2736 14.1976C55.1554 14.3109 51.6324 15.599 48.818 18.0138C47.2505 19.3654 45.9265 21.0548 44.8934 23.0555C44.4089 23.9951 43.9682 25.0269 43.6094 26.1216L43.5611 26.2575L43.5377 26.3405C43.5325 26.359 43.5273 26.3775 43.522 26.3959C43.2049 27.3429 42.7715 28.596 42.2906 29.8057C41.5652 31.6342 40.819 33.1478 40.0168 34.4363C39.3641 35.4779 38.5373 36.5004 37.6646 37.5796C36.4415 39.0882 35.1724 40.6535 34.1351 42.5634C33.9085 42.9778 33.6859 43.4133 33.4936 43.8474C33.4112 44.0334 33.3262 44.2287 33.2438 44.4147C31.6328 48.2157 31.4351 52.306 32.6743 56.2138C32.6823 56.256 32.7022 56.2915 32.7128 56.3244C34.2925 61.2153 38.0423 65.762 43.2891 69.1365C50.9968 74.1026 60.3445 78.0964 71.8465 81.3427Z" fill="#F0681D"/>
<path d="M108.526 68.3735C89.878 57.1104 69.6288 48.9435 48.491 44.7016C46.8272 44.3816 45.1404 44.2842 43.4676 44.42C38.2791 44.8293 34.7581 49.9948 36.2958 54.9636C36.3064 54.9965 36.3105 55.0176 36.3237 55.0413C37.72 59.4519 41.2659 63.2732 45.3482 65.9005C55.5539 72.4686 67.6329 76.4958 79.3194 79.3357C80.1119 79.5295 80.9136 79.7259 81.706 79.9197C82.4524 80.1004 83.1868 80.2878 83.9239 80.4659C84.3696 80.5817 84.8179 80.6883 85.2755 80.7975C85.6658 80.8977 86.0679 80.9913 86.4582 81.0915C86.8485 81.1917 87.2415 81.2827 87.641 81.3855C92.9483 82.6741 98.2077 83.8496 103.549 84.5597C103.597 84.5635 103.634 84.574 103.683 84.5778C103.857 84.597 104.019 84.6228 104.193 84.642C108.564 85.1879 112.984 85.4188 117.513 85.1223C118.112 85.0821 118.705 85.0302 119.307 84.9808C119.349 84.9728 119.397 84.9766 119.44 84.9685C120.404 84.8719 121.337 84.7068 122.218 84.4471C123.559 84.0383 124.78 83.3861 125.779 82.3526C120.816 76.6662 114.718 72.2839 108.526 68.3735Z" fill="#FF8642"/>
<g opacity="0.08">
<path d="M86.377 33.8869C86.9858 34.3079 87.5853 34.7263 88.1914 35.1565C87.5945 34.7289 86.9858 34.3079 86.377 33.8869Z" fill="#5E2C0B"/>
</g>
<path d="M88.2372 81.9225C89.4552 80.0437 90.3285 77.9381 90.7787 75.743" stroke="#F0681D" stroke-width="4" stroke-miterlimit="10" stroke-linecap="round" stroke-linejoin="round"/>
<path d="M87.1235 54.2999C89.1147 51.553 90.616 48.4585 91.5568 45.1959" stroke="#F0681D" stroke-width="4" stroke-miterlimit="10" stroke-linecap="round" stroke-linejoin="round"/>
<path d="M60.2191 66.0412C62.475 62.8508 64.2727 59.3416 65.5429 55.6537" stroke="#F0681D" stroke-width="4" stroke-miterlimit="10" stroke-linecap="round" stroke-linejoin="round"/>
<path d="M65.0722 31.4716C67.9031 28.4335 69.7733 24.5262 70.4321 20.4266" stroke="#F0681D" stroke-width="4" stroke-miterlimit="10" stroke-linecap="round" stroke-linejoin="round"/>
<path d="M42.3349 63.8643C44.1214 62.1958 45.5179 60.1083 46.3551 57.8131" stroke="#F0681D" stroke-width="4" stroke-miterlimit="10" stroke-linecap="round" stroke-linejoin="round"/>
<path d="M99.0922 68.8504C101.076 66.5898 102.644 63.9628 103.679 61.1452" stroke="#F0681D" stroke-width="4" stroke-miterlimit="10" stroke-linecap="round" stroke-linejoin="round"/>
<path d="M46.9973 44.38C49.4086 41.9809 51.2437 39.0105 52.3229 35.787" stroke="#F0681D" stroke-width="4" stroke-miterlimit="10" stroke-linecap="round" stroke-linejoin="round"/>
<path opacity="0.1" d="M47.5968 63.1265C50.2009 64.1405 53.0558 64.4779 55.5605 63.6898C60.2554 62.2044 60.1458 57.1902 57.2353 53.907C55.8733 52.3764 54.0859 51.2938 52.3302 50.2402C48.4715 47.9152 40.4613 44.3388 39.039 51.5319C38.5282 54.1186 39.6883 56.7881 41.3825 58.8012C42.8877 60.6014 45.126 62.17 47.5968 63.1265Z" fill="white"/>
<path opacity="0.1" d="M109.741 82.7494C110.501 82.7048 111.221 82.5892 111.868 82.3829C113.54 81.8584 114.96 80.0765 114.436 78.4036C113.95 76.8412 112.16 76.1566 110.589 75.6833C102.468 73.2417 94.3439 70.8092 86.2134 68.3649C84.5966 67.8787 82.8914 67.3874 81.2311 67.7261C79.2732 68.1303 77.6471 70.1132 78.0013 72.1068C78.5663 75.2961 82.9185 76.2254 85.3853 77.1609C89.6673 78.798 94.0629 80.1383 98.5522 81.0765C101.577 81.7308 106.168 82.977 109.741 82.7494Z" fill="white"/>
<path d="M113.282 70.7328C115.859 67.5334 117.682 63.7225 118.595 59.7142" stroke="#F0681D" stroke-width="4" stroke-miterlimit="10" stroke-linecap="round" stroke-linejoin="round"/>
<path d="M15.0399 29.8484C14.9591 30.1346 14.8717 30.4089 14.7935 30.6859C14.8248 30.5751 14.8535 30.4736 14.8821 30.372C14.9342 30.1874 14.993 30.0146 15.0399 29.8484Z" fill="#6E9620"/>
<path d="M14.7909 30.6951C14.7154 30.9628 14.6346 31.249 14.5538 31.5352C14.6228 31.2556 14.7009 30.9787 14.7909 30.6951Z" fill="#6E9620"/>
<path d="M16.0672 44.5001C16.1353 44.7884 16.1942 45.0741 16.2557 45.3506C16.2263 45.2426 16.2062 45.1373 16.1861 45.032C16.1381 44.849 16.0993 44.6686 16.0672 44.5001Z" fill="#6E9620"/>
<path d="M16.2531 45.3599C16.3146 45.6364 16.3853 45.9155 16.4416 46.2104C16.3775 45.9432 16.3093 45.6549 16.2531 45.3599Z" fill="#6E9620"/>
</g>
</g>
<defs>
<clipPath id="clip0_229_15411">
<rect width="131.571" height="63.4499" fill="white" transform="translate(126.624 96.8032) rotate(-164.239)"/>
</clipPath>
</defs>
</svg>
