<svg width="44" height="44" viewBox="0 0 44 44" fill="none" xmlns="http://www.w3.org/2000/svg">
<path d="M19.17 25.5804C18.98 25.5804 18.79 25.5104 18.64 25.3604C18.35 25.0704 18.35 24.5904 18.64 24.3004L24.3 18.6404C24.59 18.3504 25.07 18.3504 25.36 18.6404C25.65 18.9304 25.65 19.4104 25.36 19.7004L19.7 25.3604C19.56 25.5104 19.36 25.5804 19.17 25.5804Z" fill="white"/>
<path d="M24.83 25.5804C24.64 25.5804 24.45 25.5104 24.3 25.3604L18.64 19.7004C18.35 19.4104 18.35 18.9304 18.64 18.6404C18.93 18.3504 19.41 18.3504 19.7 18.6404L25.36 24.3004C25.65 24.5904 25.65 25.0704 25.36 25.3604C25.21 25.5104 25.02 25.5804 24.83 25.5804Z" fill="white"/>
<rect x="0.5" y="0.5" width="43" height="43" rx="21.5" stroke="#9DA3AF"/>
</svg>
