<svg width="38" height="38" viewBox="0 0 38 38" fill="none" xmlns="http://www.w3.org/2000/svg">
<path d="M16.1704 22.5799C15.9804 22.5799 15.7904 22.5099 15.6404 22.3599C15.3504 22.0699 15.3504 21.5899 15.6404 21.2999L21.3004 15.6399C21.5904 15.3499 22.0704 15.3499 22.3604 15.6399C22.6504 15.9299 22.6504 16.4099 22.3604 16.6999L16.7004 22.3599C16.5604 22.5099 16.3604 22.5799 16.1704 22.5799Z" fill="#2A364D"/>
<path d="M21.8304 22.5799C21.6404 22.5799 21.4504 22.5099 21.3004 22.3599L15.6404 16.6999C15.3504 16.4099 15.3504 15.9299 15.6404 15.6399C15.9304 15.3499 16.4104 15.3499 16.7004 15.6399L22.3604 21.2999C22.6504 21.5899 22.6504 22.0699 22.3604 22.3599C22.2104 22.5099 22.0204 22.5799 21.8304 22.5799Z" fill="#2A364D"/>
<rect x="0.5" y="0.5" width="37" height="37" rx="18.5" stroke="#E9EBEC"/>
</svg>
