<svg width="68" height="56" viewBox="0 0 68 56" fill="none" xmlns="http://www.w3.org/2000/svg">
<g clip-path="url(#clip0_229_16152)">
<path d="M37.0131 54.9972C32.4795 54.9972 28.1154 53.1569 24.9333 49.9227C22.7488 50.9055 20.4196 51.4069 17.9957 51.4069C17.6615 51.4069 17.3274 51.3969 16.9932 51.3769C8.53435 50.8854 1.68148 44.1111 1.04806 35.6218C0.414645 27.1827 5.98073 19.5961 14.0805 17.6806C15.7413 8.21854 24.0456 1.0982 33.6765 1.00293H33.881C43.5718 1.00293 51.7563 7.80737 53.6017 17.2895C61.9109 19.0796 67.6117 26.7164 66.9583 35.341C66.3897 42.8475 60.8685 49.1706 53.5319 50.715C52.3698 50.9607 51.1827 51.086 50.0057 51.086C49.3324 51.086 48.654 51.0459 47.9807 50.9657C44.9633 53.528 41.1478 54.9571 37.1877 54.9972H37.0131Z" fill="#CCECFF"/>
<path d="M33.8755 2.00573C43.3668 2.00573 51.2671 8.98066 52.7334 18.1418C60.6536 19.5107 66.6037 26.7364 65.9554 35.2658C65.4167 42.3259 60.2147 48.283 53.3219 49.7371C52.1948 49.9728 51.0875 50.0831 50.0002 50.0831C49.2072 50.0831 48.4242 50.0229 47.6611 49.9126C44.8731 52.4148 41.2072 53.9542 37.1723 53.9943C37.1174 53.9943 37.0676 53.9943 37.0127 53.9943C32.3194 53.9943 28.09 51.9534 25.1573 48.7042C23.0027 49.7872 20.5738 50.404 17.9953 50.404C17.681 50.404 17.3668 50.394 17.0476 50.3789C9.12243 49.9126 2.63864 43.5093 2.04014 35.5466C1.4167 27.1877 7.17231 20.0222 14.9529 18.5179C16.2496 9.26648 24.11 2.101 33.686 2.00573C33.7509 2.00573 33.8107 2.00573 33.8755 2.00573ZM33.8755 0H33.6661C28.5838 0.0501433 23.691 1.94054 19.8905 5.32521C16.479 8.3639 14.1399 12.4205 13.2172 16.8632C4.98777 19.1347 -0.598265 26.9871 0.0501136 35.697C0.72343 44.6877 7.98029 51.8531 16.9329 52.3746C17.287 52.3947 17.6411 52.4047 17.9953 52.4047C20.3294 52.4047 22.5838 51.9685 24.7135 51.101C28.0352 54.2249 32.4391 55.995 37.0127 55.995H37.1923C41.2371 55.9549 45.1424 54.5458 48.2845 52.0036C48.8581 52.0587 49.4317 52.0838 50.0002 52.0838C51.2471 52.0838 52.499 51.9534 53.7309 51.6927C61.4965 50.058 67.3419 43.3639 67.9454 35.4112C68.6237 26.5007 62.888 18.5831 54.4391 16.447C53.4366 12.0544 51.0476 8.06805 47.6162 5.10458C43.7958 1.81519 38.9179 0 33.8755 0Z" fill="#6CB9E0"/>
<path d="M12.6087 22.6097C12.6087 22.6097 12.2795 16.6125 19.3917 15.6548" stroke="#6CB9E0" stroke-width="3" stroke-miterlimit="10" stroke-linecap="round" stroke-linejoin="round"/>
<path d="M52.5738 13.9498C52.5738 13.9498 56.0152 23.6826 49.2372 27.7091" stroke="#6CB9E0" stroke-width="3" stroke-miterlimit="10" stroke-linecap="round" stroke-linejoin="round"/>
<path d="M26.1396 50.9807C26.1396 50.9807 21.8504 47.5459 21.9601 42.0903" stroke="#6CB9E0" stroke-width="3" stroke-miterlimit="10" stroke-linecap="round" stroke-linejoin="round"/>
<path d="M44.2247 50.5445C44.2247 50.5445 48.3993 51.8683 49.4367 48.3081" stroke="#6CB9E0" stroke-width="3" stroke-miterlimit="10" stroke-linecap="round" stroke-linejoin="round"/>
<path d="M43.4171 20.5086C45.1678 23.0659 46.1353 26.1748 46.1852 29.2837C46.3149 37.2614 39.8112 45.7758 31.2875 44.2364C27.457 43.5444 24.0705 40.7414 22.6341 37.106C22.5493 36.8954 22.2999 36.8252 22.1254 36.9656C20.275 38.4498 18.1453 39.6834 15.7962 39.8839C11.467 40.255 7.72637 36.2736 9.62662 31.9763C10.4047 30.2163 12.1054 28.9026 14.0007 28.5967C14.2401 26.7965 14.659 24.9262 15.871 23.5773C17.078 22.2285 19.2925 21.6368 20.7239 22.745C21.9358 18.7134 25.5368 15.5695 29.6366 14.712C33.7363 13.8496 38.1802 15.2034 41.2775 18.0365C42.0805 18.7736 42.7987 19.606 43.4171 20.5086Z" fill="#E3F5FF"/>
<path d="M56.9375 28.6918C56.8577 29.0128 56.8278 29.3487 56.7929 29.6747C56.5086 32.3874 55.6657 35.04 54.339 37.4218C53.6657 38.6252 52.8527 39.7986 52.6233 41.1575C52.3939 42.5163 52.9724 44.151 54.2841 44.5572C55.2866 44.8681 56.354 44.3817 57.2268 43.795C61.3565 41.0371 63.5759 35.6668 62.6083 30.7778C62.2442 28.9375 59.1769 25.6732 57.3215 27.8745C57.127 28.1152 57.0123 28.396 56.9375 28.6918Z" fill="#E3F5FF"/>
<path d="M41.5967 12.0497C41.9209 12.6815 42.4346 13.1929 42.9034 13.7194C44.4994 15.5095 45.7513 17.6206 46.5543 19.887C46.7787 20.5138 47.0032 21.2058 47.5618 21.5668C48.3997 22.1134 49.5967 21.5719 50.0854 20.6994C50.5692 19.8219 50.5244 18.7538 50.3847 17.761C50.1204 15.8806 49.5518 14.0002 48.4396 12.4658C47.3772 11.0017 45.7313 9.94364 44.0007 9.45725C42.26 8.96584 40.5343 10.0088 41.5967 12.0497Z" fill="#E3F5FF"/>
</g>
<defs>
<clipPath id="clip0_229_16152">
<rect width="68" height="56" fill="white"/>
</clipPath>
</defs>
</svg>
