<svg width="115" height="106" viewBox="0 0 115 106" fill="none" xmlns="http://www.w3.org/2000/svg">
<g clip-path="url(#clip0_229_16264)">
<path d="M49.2971 79.537C46.8739 78.8877 44.4918 78.0416 42.2072 77.0255C42.2019 77.0241 41.8368 76.857 41.8368 76.857C41.7442 76.8149 41.2719 76.596 41.2719 76.596C40.8882 76.4124 40.5046 76.2288 40.1345 76.0374C39.9964 75.9715 39.8596 75.9002 39.7229 75.8289C39.5955 75.766 39.4641 75.6961 39.3382 75.6278L38.6078 75.2301C38.4323 75.1311 38.2917 75.053 38.147 74.9681C38.0519 74.9138 37.5176 74.6032 37.5176 74.6032C37.3931 74.5295 37.2538 74.446 37.1254 74.3654C36.5002 73.9844 35.8647 73.5775 35.2404 73.1505L34.798 72.8415L34.536 72.6559C34.1539 72.3804 33.7825 72.1078 33.4194 71.8258C33.4194 71.8258 32.9803 71.4831 32.8856 71.4058C32.7668 71.3105 32.6427 71.2137 32.5254 71.1131C32.3693 70.9847 32.2133 70.8563 32.0586 70.7225C31.9639 70.6452 31.8706 70.5625 31.7774 70.4798C31.6468 70.364 31.5108 70.2468 31.3763 70.1242L31.1711 69.9423C30.6797 69.4932 30.2406 69.0639 29.8245 68.635L29.5042 68.3011C29.374 68.1623 29.2679 68.0415 29.1657 67.9276C29.0541 67.8054 28.944 67.6777 28.8379 67.557C28.7411 67.4445 28.6442 67.332 28.5488 67.2141C28.4786 67.1317 28.4136 67.0509 28.3434 66.9686L27.9726 66.4999C27.8772 66.382 27.7886 66.2602 27.7001 66.1383L27.4477 65.7879C27.4014 65.7236 27.3552 65.6593 27.3143 65.5964C27.239 65.4896 27.1612 65.3707 27.0835 65.2517L26.9648 65.0699L26.8476 64.8827C26.8186 64.8403 26.7752 64.7652 26.7318 64.6901C26.6673 64.5862 26.6003 64.4702 26.5387 64.3555L26.3405 63.9966C26.2789 63.882 26.2133 63.7605 26.1545 63.6351C26.0682 63.462 25.9833 63.2834 25.9092 63.1077C25.8988 63.0819 25.796 62.8408 25.7569 62.7495C25.6828 62.5739 25.617 62.3889 25.5497 62.2093L25.4877 62.0311C25.4337 61.8666 25.3772 61.6898 25.326 61.5145L25.2867 61.3597C25.2638 61.2728 25.2424 61.1805 25.2209 61.0882C25.2045 61.0203 25.1884 60.9294 25.1656 60.8425C25.1656 60.8425 25.121 60.5997 25.1099 60.5333C25.1074 60.5211 25.0721 60.2866 25.0721 60.2866C25.0575 60.1903 25.0483 60.0955 25.0405 59.9953L25.0292 59.8653C25.026 59.8125 25.0108 59.5892 25.0108 59.5892L25.0092 59.4445C25.0085 59.4039 25.0035 59.3795 24.9985 59.3551C24.9671 59.2139 24.9429 59.0458 24.9856 58.7572C25.0055 58.6182 25.0207 58.5184 25.0481 58.4161L32.8613 26.629C32.9136 26.4122 33.056 26.2253 33.2487 26.1096C33.4413 25.9938 33.6744 25.964 33.8898 26.0217L89.9256 41.0364C90.1464 41.0956 90.3279 41.2366 90.4408 41.4399C90.5497 41.6365 90.5796 41.8696 90.5097 42.0874L81.2136 73.0328C81.1732 73.1836 81.138 73.2723 81.0778 73.3889C81.075 73.3996 81.0652 73.4144 81.0512 73.4452C78.2579 80.3374 63.1256 83.2423 49.2971 79.537Z" fill="#F5D01D"/>
<path d="M89.6988 41.8413L82.2104 66.773L80.4028 72.7867C80.3422 73.0128 80.3506 72.917 80.2659 73.1251C77.8094 79.213 63.784 82.5531 49.5139 78.7294C47.0584 78.0714 44.7262 77.233 42.5519 76.258C42.5264 76.2454 42.4995 76.2382 42.474 76.2256C42.376 76.182 42.2834 76.1399 42.1854 76.0963C42.0928 76.0542 42.0002 76.0121 41.9076 75.9699C41.815 75.9278 41.7224 75.8857 41.6313 75.8382C41.2515 75.6614 40.8801 75.4753 40.5086 75.2892C40.3758 75.2248 40.2445 75.155 40.1131 75.0851C39.9857 75.0221 39.8597 74.9538 39.7338 74.8854C39.6333 74.8296 39.5367 74.7807 39.4362 74.7249C39.4014 74.704 39.3652 74.6885 39.3304 74.6677C39.2137 74.6076 39.1039 74.5435 38.9887 74.478C38.848 74.3999 38.7074 74.3218 38.5681 74.2384C38.4676 74.1826 38.3672 74.1268 38.2735 74.0671C38.1637 74.003 38.0593 73.9404 37.9494 73.8764C37.8195 73.8012 37.6911 73.7206 37.5612 73.6454C36.9199 73.26 36.3059 72.8589 35.7095 72.4567C35.636 72.4082 35.5585 72.3528 35.4849 72.3042C35.4167 72.2571 35.3486 72.21 35.2804 72.1628C35.1936 72.0992 35.1053 72.0409 35.0185 71.9772C34.6457 71.71 34.2797 71.4388 33.9205 71.1637C33.8391 71.1015 33.7576 71.0392 33.683 70.9731C33.5869 70.9011 33.4975 70.8253 33.4068 70.7548C33.288 70.6595 33.1693 70.5642 33.0559 70.4703C32.8998 70.3419 32.7491 70.215 32.5985 70.0881C32.5038 70.0108 32.4159 69.9295 32.3212 69.8522C32.1906 69.7364 32.06 69.6206 31.9294 69.5048C31.8494 69.4372 31.7762 69.3657 31.7016 69.2995C31.2514 68.8904 30.8271 68.4708 30.4243 68.057C30.3206 67.9485 30.2116 67.8384 30.1133 67.7313C30.104 67.723 30.0947 67.7148 30.0907 67.708C29.9871 67.5994 29.8848 67.4854 29.7866 67.3783C29.6804 67.2575 29.5728 67.1421 29.4721 67.0228C29.3752 66.9103 29.2838 66.7992 29.1923 66.6882C29.126 66.6127 29.0611 66.5318 29.0016 66.4524C28.9234 66.3564 28.8506 66.2619 28.7764 66.1728C28.7341 66.1152 28.6864 66.0563 28.6441 65.9988C28.5541 65.8823 28.4694 65.7673 28.3848 65.6523C28.3425 65.5948 28.3002 65.5373 28.2579 65.4798C28.2525 65.4784 28.2486 65.4716 28.2446 65.4647C28.2063 65.4141 28.1693 65.358 28.1364 65.3088C28.0941 65.2513 28.0571 65.1952 28.0148 65.1377C27.9356 65.0241 27.8618 64.912 27.784 64.7931C27.747 64.737 27.7116 64.6756 27.6746 64.6195C27.6377 64.5634 27.6062 64.5088 27.5693 64.4528C27.5284 64.3899 27.4929 64.3284 27.452 64.2655C27.3875 64.1617 27.3245 64.0525 27.2668 63.9447C27.2352 63.89 27.2051 63.83 27.1736 63.7754C27.1421 63.7208 27.112 63.6608 27.0804 63.6062C27.0188 63.4916 26.9611 63.3838 26.9048 63.2706C26.8224 63.1043 26.74 62.9379 26.6699 62.7691C26.6595 62.7432 26.6437 62.7159 26.6348 62.6846C26.5997 62.6002 26.5631 62.5212 26.528 62.4367C26.4578 62.2679 26.393 62.1005 26.3336 61.9345C26.3182 61.8842 26.2975 61.8325 26.2821 61.7822C26.2281 61.6177 26.178 61.46 26.1347 61.2984C26.1233 61.2549 26.1079 61.2046 26.0979 61.1558C26.0789 61.0757 26.0546 60.9941 26.0411 60.9155C26.0207 60.8408 26.0057 60.7675 25.9961 60.6957C25.9886 60.659 25.9811 60.6224 25.9736 60.5858C25.965 60.5315 25.9565 60.4773 25.9479 60.4231C25.9404 60.3864 25.9383 60.3513 25.9308 60.3146C25.9247 60.2726 25.9187 60.2306 25.9126 60.1886C25.9005 60.1045 25.8884 60.0205 25.8817 59.9379C25.8756 59.8959 25.875 59.8553 25.8689 59.8133C25.8643 59.7659 25.8651 59.7199 25.859 59.6779C25.8569 59.6427 25.8548 59.6075 25.8541 59.5669C25.8534 59.5264 25.8528 59.4858 25.8521 59.4452C25.8449 59.149 25.7795 59.1776 25.8154 58.8929C25.8263 58.8093 25.8357 58.731 25.8573 58.6502C26.0969 57.6699 26.3433 56.6857 26.5829 55.7053C27.9065 50.2487 29.2433 44.8072 30.5787 39.3711L32.5715 31.2661L33.6645 26.8211L89.7003 41.8359M90.1317 40.226L34.0958 25.2112C33.6597 25.0943 33.1988 25.1555 32.8136 25.387C32.4284 25.6185 32.1489 25.9938 32.0389 26.4259L30.946 30.871L28.9532 38.9759L27.1404 46.3443L24.9416 55.2828C24.702 56.2632 24.4638 57.2381 24.2203 58.2116C24.1785 58.3677 24.16 58.5013 24.1477 58.5903L24.1444 58.6241C24.0865 59.0125 24.116 59.2686 24.1624 59.483C24.1631 59.5236 24.1638 59.5642 24.1684 59.6116C24.1691 59.6521 24.1751 59.6941 24.1743 59.7401C24.1746 59.8037 24.1803 59.8687 24.186 59.9337C24.1895 59.9635 24.1941 60.0109 24.1973 60.0637C24.209 60.1707 24.2208 60.2777 24.231 60.3901C24.2371 60.4321 24.2442 60.4917 24.2528 60.546C24.2603 60.5826 24.2649 60.63 24.2709 60.672C24.282 60.7385 24.293 60.8049 24.3041 60.8713C24.3141 60.9202 24.3187 60.9676 24.3302 61.011C24.3452 61.0843 24.3612 61.1752 24.388 61.2689C24.408 61.3666 24.4334 61.4658 24.4588 61.5649L24.4981 61.7197C24.5518 61.9072 24.6093 62.1015 24.6777 62.2987C24.6906 62.3368 24.7099 62.3939 24.7332 62.4579C24.8055 62.6619 24.8792 62.8606 24.9652 63.0567C24.9963 63.1343 25.0354 63.2256 25.0705 63.31C25.0873 63.3549 25.1095 63.4013 25.1317 63.4476C25.2087 63.6125 25.2961 63.8033 25.3889 63.9955C25.4437 64.1141 25.5172 64.2492 25.5921 64.3789C25.6182 64.4321 25.6577 64.5003 25.6971 64.5686C25.7193 64.6149 25.7587 64.6832 25.8021 64.7583C25.8652 64.8675 25.9361 64.9904 26.0085 65.1079C26.044 65.1694 26.0888 65.2391 26.1336 65.3088C26.1691 65.3703 26.21 65.4331 26.2469 65.4892C26.2878 65.5521 26.3326 65.6218 26.3774 65.6915C26.4512 65.8036 26.5329 65.9294 26.6161 66.0498C26.6609 66.1195 26.7111 66.1907 26.7627 66.2565L26.7878 66.292L26.8671 66.4056C26.8803 66.4207 26.8922 66.4412 26.9001 66.4548L27.0137 66.6122C27.1116 66.7423 27.2041 66.871 27.3034 66.9957L27.3246 67.0245L27.42 67.1424C27.4278 67.156 27.4372 67.1643 27.4451 67.1779C27.5218 67.2793 27.6053 67.3767 27.6821 67.4781C27.747 67.5589 27.8158 67.6466 27.8861 67.7289C27.9869 67.8483 28.0877 67.9676 28.1884 68.0869C28.2985 68.2146 28.4086 68.3422 28.5295 68.4726C28.6371 68.588 28.7433 68.7088 28.8562 68.8257C28.8695 68.8408 28.8695 68.8408 28.8828 68.8558C28.9904 68.9712 29.094 69.0798 29.2016 69.1952C29.631 69.6392 30.0887 70.085 30.5615 70.5175C30.6454 70.592 30.724 70.665 30.8079 70.7394C30.9331 70.8537 31.073 70.9778 31.2144 71.0964C31.3037 71.1723 31.4024 71.2565 31.4996 71.346C31.6502 71.4729 31.8156 71.6096 31.9756 71.7448C32.0944 71.8401 32.2171 71.9422 32.3452 72.0458C32.4359 72.1163 32.5307 72.1936 32.6308 72.2723C32.6975 72.3248 32.7588 72.3759 32.8256 72.4284L32.8776 72.4712C33.2554 72.7629 33.6415 73.0452 34.0275 73.3276C34.1198 73.3927 34.212 73.4578 34.3096 73.5243C34.367 73.5686 34.4459 73.6186 34.5234 73.674L34.748 73.8265C35.3871 74.2632 36.0373 74.6798 36.6718 75.0691C36.8003 75.1497 36.9395 75.2331 37.0802 75.3112C37.19 75.3753 37.2998 75.4393 37.4096 75.5034C37.5101 75.5592 37.6185 75.6286 37.7297 75.6872C37.8542 75.761 38.0057 75.842 38.1503 75.9269C38.2817 75.9967 38.3969 76.0622 38.5121 76.1277C38.5415 76.1471 38.5817 76.1694 38.6273 76.1932C38.7277 76.249 38.8243 76.2979 38.9248 76.3537C39.0561 76.4235 39.1929 76.4948 39.3296 76.5661C39.4556 76.6344 39.5977 76.7071 39.7413 76.7745C40.1167 76.9674 40.5057 77.1524 40.9002 77.3389C40.9981 77.3825 41.0947 77.4314 41.1981 77.4764C41.2799 77.5157 41.3818 77.5661 41.4906 77.6125L41.5577 77.6421C41.6248 77.6716 41.6919 77.7011 41.7591 77.7306C41.7845 77.7432 41.81 77.7558 41.8369 77.763C41.8423 77.7645 41.8531 77.7674 41.857 77.7742C44.1818 78.8126 46.6069 79.6702 49.0732 80.331C63.5264 84.2038 78.8266 81.1245 81.8094 73.7407C81.903 73.5637 81.9556 73.4105 82.0046 73.2274L83.8064 67.2353L91.2949 42.3035C91.4225 41.8703 91.375 41.4017 91.1517 41.0071C90.9417 40.6277 90.5678 40.3428 90.1317 40.226Z" fill="#AB8A00"/>
<path d="M82.2104 66.7731L80.4028 72.7867C80.3812 72.8675 80.308 73.1191 80.2286 73.4153C80.1597 73.6507 80.0905 73.9092 80.0231 74.1393C79.8964 74.3535 79.7199 74.5601 79.5056 74.7566C77.2249 76.8924 74.171 77.8861 71.2203 78.6883C69.4964 79.1555 67.7352 79.5896 65.9452 79.7217C61.1414 80.0734 55.9375 79.5273 51.3001 78.4175C50.259 78.1674 49.2262 77.9079 48.1894 77.6417C28.444 72.5182 25.8403 59.4248 25.8403 59.4248L26.133 58.1817L32.7192 47.8392C33.0473 47.3039 34.0587 47.5576 34.1035 48.1871L35.4534 67.3387C35.5092 68.1211 36.7254 68.4932 37.2307 67.8784L42.4326 61.5393L47.2231 55.7017C47.7366 55.0775 48.9704 55.4485 49.0288 56.2432L49.9934 68.5397L50.3571 73.2134C50.4265 74.0745 51.7738 74.4528 52.2899 73.7544L54.5041 70.7467L62.8199 59.4422C63.3569 58.7089 64.7774 59.0723 64.8988 59.9762L66.6715 72.7893L66.9813 75.0363C67.1067 75.9471 68.5672 76.2692 69.0292 75.4927L70.8272 72.4658L78.1613 60.1077C78.5844 59.3901 79.9021 59.5989 80.1669 60.4201L82.2104 66.7731Z" fill="#46CC68"/>
<g opacity="0.1">
<path d="M56.856 33.041L33.663 26.8264L32.5701 31.2714L30.5787 39.371C29.2433 44.8071 27.9079 50.2433 26.5725 55.6794C26.333 56.6597 26.0919 57.6454 25.8469 58.6243C25.8253 58.7051 25.8159 58.7833 25.805 58.867C25.7623 59.1556 25.8331 59.1284 25.8417 59.4193C25.8424 59.4598 25.843 59.5004 25.8437 59.541C25.8458 59.5762 25.8479 59.6114 25.8486 59.6519C25.8478 59.6979 25.8525 59.7453 25.8585 59.7873C25.8592 59.8279 25.8652 59.8699 25.8713 59.9119C25.878 59.9945 25.8901 60.0786 25.9022 60.1626C25.9083 60.2046 25.9144 60.2467 25.9204 60.2887C25.9279 60.3253 25.93 60.3605 25.9375 60.3971C25.9461 60.4514 25.9546 60.5056 25.9632 60.5598C25.9707 60.5965 25.9782 60.6331 25.9857 60.6697C26.0007 60.743 26.0157 60.8163 26.0307 60.8895C26.0496 60.9696 26.0686 61.0497 26.0875 61.1298C26.0975 61.1787 26.1143 61.2236 26.1243 61.2724C26.1676 61.434 26.2177 61.5917 26.2717 61.7563C26.2871 61.8065 26.3079 61.8583 26.3232 61.9086C26.3827 62.0745 26.4475 62.2419 26.5177 62.4108C26.5527 62.4952 26.5878 62.5796 26.6244 62.6587C26.6348 62.6845 26.6505 62.7118 26.6595 62.7431C26.7311 62.9066 26.8121 63.0783 26.8945 63.2447C26.9507 63.3578 27.0084 63.4656 27.07 63.5802C27.1016 63.6349 27.1317 63.6949 27.1632 63.7495C27.1947 63.8041 27.2248 63.8641 27.2564 63.9187C27.3141 64.0265 27.3786 64.1304 27.4417 64.2396C27.4825 64.3025 27.518 64.3639 27.5589 64.4268C27.5904 64.4814 27.6273 64.5375 27.6643 64.5935C27.7012 64.6496 27.7367 64.711 27.7736 64.7671C27.8474 64.8792 27.9252 64.9982 28.0044 65.1117C28.0414 65.1678 28.0837 65.2253 28.126 65.2828C28.1644 65.3335 28.1973 65.3827 28.2343 65.4388C28.2382 65.4456 28.2421 65.4524 28.2475 65.4539C28.2898 65.5114 28.3321 65.5689 28.3744 65.6264C28.4591 65.7414 28.5437 65.8564 28.6337 65.9728C28.676 66.0303 28.7237 66.0893 28.766 66.1468C28.8388 66.2413 28.917 66.3373 28.9912 66.4264C29.0561 66.5073 29.117 66.5813 29.182 66.6622C29.2734 66.7733 29.3702 66.8858 29.4617 66.9969C29.5624 67.1162 29.6686 67.237 29.7762 67.3524C29.873 67.4649 29.9767 67.5734 30.0789 67.6874C30.0882 67.6957 30.0922 67.7025 30.1015 67.7108C30.2051 67.8193 30.3088 67.9279 30.4125 68.0364C30.8138 68.4556 31.2396 68.8698 31.6898 69.279C31.7644 69.3451 31.843 69.4181 31.9176 69.4843C32.0482 69.6001 32.1734 69.7144 32.3093 69.8316C32.3972 69.9129 32.4919 69.9902 32.5866 70.0675C32.7373 70.1944 32.888 70.3214 33.0441 70.4498C33.1628 70.5451 33.2762 70.6389 33.3949 70.7342C33.4857 70.8047 33.5804 70.882 33.6766 70.9539C33.758 71.0162 33.8341 71.0769 33.9141 71.1446C34.2679 71.4182 34.6338 71.6894 35.012 71.9581C35.0988 72.0218 35.1871 72.0801 35.274 72.1437C35.3421 72.1908 35.4103 72.238 35.4785 72.2851C35.552 72.3336 35.6242 72.3876 35.7031 72.4376C36.298 72.8452 36.9134 73.2409 37.5547 73.6262C37.6832 73.7068 37.8131 73.782 37.943 73.8572C38.0474 73.9198 38.1572 73.9839 38.2671 74.0479C38.3675 74.1037 38.4612 74.1634 38.5617 74.2192C38.7024 74.2973 38.8416 74.3808 38.9823 74.4589C39.0975 74.5244 39.2087 74.583 39.3239 74.6485C39.3587 74.6694 39.395 74.6849 39.4298 74.7058C39.5303 74.7615 39.6268 74.8105 39.7273 74.8663C39.8533 74.9346 39.9793 75.003 40.1067 75.066C40.238 75.1358 40.3694 75.2057 40.5022 75.2701C40.8682 75.4547 41.2451 75.6423 41.6248 75.8191C41.7174 75.8612 41.8086 75.9087 41.9012 75.9508C41.9938 75.9929 42.0849 76.0404 42.179 76.0772C42.2716 76.1193 42.3696 76.1629 42.4676 76.2064C42.493 76.219 42.5185 76.2316 42.5454 76.2389C43.736 76.7714 44.9787 77.2602 46.2558 77.7063C48.901 62.6433 52.6377 47.7286 56.856 33.041Z" fill="#171300"/>
</g>
<g opacity="0.05">
<path d="M72.8231 42.5073C73.0093 40.8432 73.0892 39.1449 73.1832 37.4158L56.856 33.0409C52.6376 47.7285 48.9049 62.6501 46.2554 77.7292C47.3162 78.1 48.3978 78.436 49.5125 78.7346C54.8005 80.1516 60.0523 80.5835 64.6934 80.2574C68.6014 68.1066 71.2832 55.535 72.8231 42.5073Z" fill="#171300"/>
</g>
<path d="M49.1067 92.4643C36.8021 89.1673 28.866 85.9155 22.5856 81.5896C15.9187 77.0044 12.9791 70.7863 13.5955 62.5838C14.2835 53.4251 17.664 45.8709 25.26 36.5203C27.9553 33.2029 32.8922 29.3609 33.0978 29.1967C33.3088 29.0339 33.5814 28.9858 33.8237 29.0507C33.9153 29.0752 34.0079 29.1173 34.0907 29.1742C34.3914 29.3875 34.5188 29.7736 34.4021 30.1232C34.3992 30.134 33.9508 31.5489 34.3838 33.1423C34.4818 33.509 34.3197 33.8984 33.992 34.0876C29.4207 36.6945 18.7214 50.3034 18.2089 62.9428C17.9337 69.8287 20.6738 75.2834 26.3587 79.1612C29.7011 81.4418 39.8608 85.6357 52.1008 88.9154C67.8249 93.1286 80.296 94.0811 86.3119 91.5323C89.2347 90.2956 90.9798 88.8877 91.6432 87.2303C92.6707 84.6664 91.2339 81.3267 89.417 77.1004C87.6457 72.9844 85.4435 67.8699 84.8506 61.7036C83.3483 46.0718 84.902 43.1814 85.0811 42.9005C85.2351 42.6705 85.4931 42.5261 85.7718 42.52L88.6745 42.4783C88.7503 42.4756 88.8286 42.485 88.904 42.5052C89.0709 42.5499 89.2234 42.6485 89.3374 42.7829C89.4977 42.9817 89.561 43.241 89.5068 43.4862C89.4848 43.5899 87.3095 53.9486 89.696 63.8676C91.0727 69.586 92.9253 74.174 94.4185 77.8635C95.578 80.7306 96.4947 82.996 96.7411 84.7472C97.0243 86.7274 96.3217 89.9959 93.4126 92.6674C89.3992 96.3587 80.3274 99.7796 59.9387 95.1186C55.8782 94.2037 52.3431 93.3315 49.1067 92.4643Z" fill="#F5D01D"/>
<path d="M88.6739 43.3207C88.6739 43.3207 86.4025 53.8441 88.8677 64.0727C91.3329 74.3013 95.3556 81.0865 95.8938 84.8722C96.5007 89.1552 91.9618 101.593 60.1037 94.3087C56.166 93.4094 52.5864 92.5311 49.3177 91.6552C37.0939 88.3799 29.217 85.144 23.0528 80.9012C16.9073 76.6749 13.8063 70.8868 14.4207 62.6491C15.0131 54.7517 17.6455 47.2105 25.8975 37.0489C28.5598 33.7689 33.6005 29.8623 33.6005 29.8623C33.6005 29.8623 33.0621 31.4839 33.5687 33.3625C26.04 37.6585 6.0251 66.3031 25.8792 79.8522C29.6601 82.435 40.2676 86.6161 51.8722 89.7255C64.9791 93.2375 79.364 95.3837 86.6234 92.3083C100.31 86.5056 87.239 78.0345 85.6658 61.6335C84.1487 45.8419 85.7643 43.3663 85.7643 43.3663L88.6739 43.3207ZM89.1067 41.7054C88.9613 41.6665 88.8048 41.6476 88.6493 41.6463L85.7465 41.688C85.1906 41.6949 84.676 41.9783 84.3721 42.4451C83.9195 43.1432 82.5512 46.5911 84.0094 61.7841C84.6137 68.0804 86.8485 73.2671 88.6406 77.4348C90.3833 81.4855 91.7603 84.6822 90.86 86.9224C90.2841 88.3608 88.6889 89.6185 85.9813 90.7627C80.1343 93.2414 67.8636 92.2734 52.3172 88.1077C40.1687 84.8526 30.1218 80.712 26.8328 78.4688C21.4074 74.7644 18.7876 69.5497 19.0496 62.9718C19.5423 50.6215 29.9615 37.3473 34.4099 34.8113C35.0707 34.4343 35.3934 33.6609 35.1989 32.9221C34.8399 31.5909 35.2007 30.395 35.2036 30.3842C35.4372 29.685 35.1863 28.9195 34.5849 28.4929C34.4206 28.3739 34.2408 28.2911 34.0523 28.2406C33.5569 28.1078 33.017 28.2055 32.5936 28.5364C32.3826 28.6992 27.3718 32.6022 24.617 35.9903C17.0045 45.3595 13.4634 53.2977 12.7703 62.5185C12.1309 71.0438 15.1894 77.5073 22.1197 82.2727C28.4884 86.6569 36.497 89.9397 48.8986 93.2626C52.1457 94.1327 55.6916 95.0078 59.7438 95.932C71.197 98.5508 86.4271 100.214 93.9689 93.2839C97.1087 90.3972 97.8838 86.9231 97.5571 84.6311C97.2975 82.7784 96.3626 80.4734 95.1823 77.5545C93.7049 73.8924 91.8612 69.3357 90.4971 63.6783C88.1559 53.9561 90.2904 43.7712 90.3125 43.6674C90.4168 43.1703 90.2917 42.6462 89.9697 42.2541C89.7402 41.9906 89.4406 41.7949 89.1067 41.7054Z" fill="#AB8A00"/>
<path opacity="0.08" d="M23.8588 43.9241C27.4473 38.3935 31.7642 34.1082 34.4228 32.7374C33.9408 30.9174 34.4967 29.3812 34.4967 29.3812C34.4967 29.3812 29.4316 32.9696 26.7351 36.0328C25.3234 37.6397 24.0737 39.1804 22.9655 40.6666C23.318 41.7421 23.6148 42.8315 23.8588 43.9241Z" fill="black"/>
<path opacity="0.08" d="M87.1603 68.6762C87.1632 68.6655 87.1701 68.6615 87.1729 68.6507C87.7105 67.7214 88.4239 66.6314 89.2981 65.6307C89.1454 65.0589 89.0024 64.4723 88.8555 63.879C86.5145 53.9837 88.9007 43.9586 88.9007 43.9586L86.0063 43.9044C86.0063 43.9044 84.3675 46.2295 85.7025 61.4298C85.9279 64.0352 86.4717 66.443 87.1603 68.6762Z" fill="black"/>
<path d="M56.7293 52.8582C40.316 48.4603 29.0725 38.9843 31.1342 31.2902C34.8116 17.5656 49.6956 21.5538 64.0842 25.4092C65.7643 25.8594 67.4179 26.2794 69.0284 26.6878C70.5581 27.0746 72.0394 27.4484 73.4664 27.8308C84.3601 30.7498 93.1015 34.2058 89.6794 46.9773C87.6177 54.6714 73.1426 57.2562 56.7293 52.8582Z" fill="#E0512D"/>
<path d="M73.251 28.6332C84.3763 31.6142 92.0279 34.9802 88.8726 46.7556C86.961 53.8898 72.6654 56.2572 56.9467 52.0454C41.228 47.8336 30.0313 38.6355 31.9429 31.5013C35.2972 18.9829 48.1502 21.9998 63.8688 26.2116C67.1483 27.0903 70.3216 27.8483 73.251 28.6332ZM73.6838 27.0179C72.246 26.6327 70.7809 26.2632 69.2297 25.8706C67.6299 25.4651 65.971 25.0436 64.2963 24.5949C55.8419 22.3295 48.9185 20.6187 43.1785 20.91C36.2624 21.2613 32.0591 24.5844 30.3221 31.067C29.2184 35.186 31.5041 39.838 36.7636 44.1616C41.6697 48.1885 48.6774 51.5666 56.5071 53.6646C64.3368 55.7626 72.0932 56.3462 78.3569 55.3065C85.0736 54.192 89.3776 51.3114 90.4827 47.187C92.1173 41.0867 91.1585 36.5016 87.5443 33.1671C84.4683 30.3231 79.7796 28.6513 73.6838 27.0179Z" fill="#A13A20"/>
<g opacity="0.64">
<path d="M57.3404 50.5755C42.0202 46.4705 30.9987 37.631 32.2193 30.5772C32.1223 30.8744 32.0293 31.1784 31.9428 31.5014C30.0312 38.6356 41.2279 47.8336 56.9466 52.0454C72.6652 56.2573 86.9609 53.8899 88.8725 46.7557C88.9634 46.4165 89.0392 46.0906 89.115 45.7646C86.7025 52.528 72.7037 54.6921 57.3404 50.5755Z" fill="#BF4526"/>
</g>
<path d="M90.0548 42.3459C89.9741 42.6474 89.8703 42.9486 89.7425 43.2317C89.5624 43.6452 89.3339 44.0456 89.0599 44.4223C85.1381 49.9041 72.2052 51.4074 58.1235 47.6342C52.7763 46.2014 47.9472 44.1919 43.99 41.8793C38.4243 38.6336 34.5576 34.7987 33.3262 31.1447L33.3222 31.1379C33.1225 30.5477 32.9957 29.9655 32.9418 29.3913C32.8942 28.9226 32.8966 28.4616 32.9488 28.0081C32.9797 27.699 33.039 27.3917 33.1197 27.0902C35.0313 19.9561 49.327 17.5887 65.0457 21.8005C80.7697 26.0137 91.9664 35.2118 90.0548 42.3459Z" fill="#E0512D"/>
<path d="M90.1736 42.8282C90.054 45.6008 86.4587 47.6671 83.9655 48.5283C79.3437 50.1176 74.2016 50.1594 69.385 49.7402C65.5784 49.407 61.8025 48.7011 58.1084 47.7113C52.4327 46.1905 46.858 43.9696 41.9067 40.7789C38.4658 38.5643 34.8145 35.67 33.1416 31.8111C30.7746 26.364 37.3524 24.8198 41.3939 23.8022C48.6526 21.9788 56.8286 22.698 64.0068 24.6213C69.7902 26.171 75.2938 28.7652 80.238 32.1329C83.5338 34.3722 87.032 37.0408 89.3444 40.3438C89.9654 41.2142 90.2097 42.0472 90.1736 42.8282Z" fill="#FBCE92"/>
<g opacity="0.41">
<path d="M83.0415 34.0328C82.6861 33.851 82.3226 33.6786 81.9629 33.513C72.8084 29.2941 63.7615 25.5139 53.5031 25.2639C50.7334 25.197 47.9081 25.3806 45.3052 26.3278C42.7024 27.2751 40.314 29.0589 39.1023 31.5562C37.8669 34.099 38.1256 37.0538 39.7846 39.3276C38.2927 38.7779 36.6838 36.7482 35.6473 35.576C34.4782 34.2529 33.4417 32.7575 32.8601 31.0724L32.8562 31.0656C32.7926 30.8292 32.7397 30.5957 32.7058 30.3558C32.0001 25.8386 38.2076 24.5992 41.4003 23.7984C48.659 21.975 56.8351 22.6942 64.0132 24.6176C66.9911 25.4155 69.9287 26.5143 72.7661 27.7074C76.5127 29.2768 80.1814 31.0504 83.0415 34.0328Z" fill="#E3B77A"/>
</g>
<path d="M90.217 43.3996C90.0355 43.8184 89.8979 44.2028 89.6238 44.5795C89.1325 37.8402 80.8008 29.883 64.0913 25.4057C48.2433 21.1593 36.3283 23.7318 32.4632 29.3037C32.4156 28.8351 32.4126 28.3726 32.4663 27.9138C35.3036 21.4605 49.2598 19.4984 64.5746 23.602C79.8811 27.7149 90.9933 36.3883 90.217 43.3996Z" fill="#C74B2A"/>
<g opacity="0.53">
<path d="M52.5782 37.9773C52.5149 38.0411 52.4609 38.1132 52.4056 38.1907C50.7715 40.4767 55.3246 42.3315 56.7815 42.9469C59.5327 44.1169 62.5277 44.7001 65.5188 44.6302C66.7621 44.5998 68.0507 44.443 69.1044 43.7847C69.8124 43.3396 70.4076 42.6046 70.4053 41.773C70.4009 40.583 69.2775 39.7569 68.3607 39.1938C64.4646 36.7822 59.3605 35.9281 54.8914 36.8831C54.0419 37.0595 53.1567 37.3474 52.5782 37.9773Z" fill="#FBEBD5"/>
</g>
<g opacity="0.53">
<path d="M72.4874 37.772C71.9176 38.9293 74.8109 40.4951 75.6203 40.7697C76.7672 41.1636 81.836 42.1063 81.6636 39.7344C81.4324 36.5908 75.8874 36.542 73.7372 37.0277C73.4358 37.097 73.1301 37.1824 72.8703 37.3552C72.6841 37.49 72.5547 37.6284 72.4874 37.772Z" fill="#FBEBD5"/>
</g>
<path d="M65.0506 21.8022C80.7747 26.0155 91.966 35.2121 90.0544 42.3463C89.9736 42.6478 89.8698 42.9489 89.742 43.2321C89.562 43.6455 89.3335 44.0459 89.0648 44.424C85.143 49.9058 72.2101 51.4092 58.1285 47.636C52.7812 46.2032 47.9521 44.1937 43.9949 41.8811C38.4293 38.6354 34.5625 34.8005 33.3311 31.1465L33.3272 31.1397C33.1275 30.5495 33.0007 29.9673 32.9468 29.393C32.8992 28.9244 32.9015 28.4634 32.9538 28.0099C32.9846 27.7008 33.0439 27.3935 33.1247 27.092C35.0363 19.9578 49.3265 17.589 65.0506 21.8022ZM65.4834 20.187C57.6537 18.089 49.8973 17.5053 43.635 18.5396C36.9184 19.6542 32.6143 22.5348 31.5092 26.6591C31.4053 27.0468 31.3338 27.4431 31.2866 27.8344C31.2235 28.3715 31.2207 28.9421 31.2746 29.5163C31.2771 29.5285 31.2782 29.5461 31.2807 29.5583C31.3488 30.2518 31.506 30.9575 31.7429 31.6673C31.7454 31.6796 31.7493 31.6864 31.7518 31.6986C33.1032 35.7021 37.1502 39.8335 43.1511 43.3285C47.3588 45.7832 52.3915 47.83 57.6957 49.2513C64.6476 51.114 71.7141 51.7956 77.5802 51.163C83.7551 50.4977 88.1957 48.5078 90.4196 45.3988C90.7588 44.9299 91.0446 44.4236 91.2696 43.9068C91.4284 43.5512 91.5592 43.1707 91.6631 42.7831C92.7667 38.6641 90.481 34.012 85.2215 29.6885C80.3222 25.6577 73.3131 22.2849 65.4834 20.187Z" fill="#A13A20"/>
<path d="M50.6039 30.3557C48.7622 29.8622 47.3613 28.3269 47.0454 26.4475C47.0429 26.4353 47.0404 26.4231 47.0393 26.4055L21.8949 10.6078C21.159 10.1452 20.6423 9.42389 20.4483 8.57553C20.2543 7.72717 20.4029 6.84943 20.8656 6.11354L20.9782 5.9302C21.688 4.81041 23.003 4.29712 24.263 4.63476C24.5485 4.71123 24.8223 4.83078 25.0739 4.99052L50.4766 20.9439C50.6655 20.8849 50.8556 20.8435 51.0495 20.8089C51.7453 20.6895 52.4466 20.7216 53.1251 20.9034C54.9667 21.3969 56.3676 22.9322 56.6836 24.8116C56.904 26.0998 56.6091 27.3943 55.8502 28.4605C55.0966 29.5282 53.9717 30.2367 52.6848 30.4516C51.9837 30.5696 51.2824 30.5375 50.6039 30.3557Z" fill="#E8AD4F"/>
<path d="M24.0416 5.44074C24.2408 5.49413 24.4382 5.57588 24.6256 5.69532L50.3642 21.8599C50.6228 21.7561 50.8973 21.6796 51.1821 21.629C51.7748 21.5281 52.3543 21.5622 52.8982 21.7079C54.3845 22.1062 55.5781 23.3378 55.8499 24.9514C56.2226 27.1577 54.7378 29.2528 52.5367 29.6268C51.944 29.7277 51.3591 29.6921 50.8098 29.5449C49.3236 29.1467 48.1299 27.9151 47.8581 26.3014C47.836 26.1685 47.8193 26.0371 47.808 25.9071L22.3331 9.89973C21.2024 9.18702 20.8583 7.69251 21.5671 6.55513L21.684 6.35563C22.1992 5.55302 23.1638 5.20555 24.0416 5.44074ZM24.4744 3.82546C22.8589 3.39259 21.1696 4.05372 20.2723 5.46376C20.2641 5.47309 20.2597 5.48924 20.2515 5.49856L20.1374 5.68729C19.5607 6.61191 19.3842 7.70147 19.6246 8.76425C19.869 9.83386 20.5151 10.7399 21.4384 11.322L46.2763 26.9279C46.749 28.9762 48.3293 30.6173 50.3756 31.1656C51.1726 31.3792 51.9927 31.42 52.816 31.277C55.9297 30.7495 58.0282 27.7858 57.5003 24.6723C57.1262 22.4715 55.4904 20.6713 53.331 20.0927C52.5341 19.8791 51.7193 19.8397 50.9029 19.9787C50.8066 19.9933 50.7089 20.0133 50.6098 20.0387L25.5189 4.27845C25.1923 4.07554 24.8406 3.92358 24.4744 3.82546Z" fill="#A67C38"/>
<path opacity="0.1" d="M55.8348 26.4306C55.5173 28.0249 54.2417 29.3393 52.5424 29.6284C50.3345 30.0063 48.2419 28.5107 47.8678 26.3099C47.8442 26.1824 47.8289 26.0456 47.8176 25.9156L22.3388 9.90137C21.2267 9.2052 20.878 7.74982 21.5296 6.63176C21.629 7.31627 22.0186 7.95159 22.6448 8.3502L48.3256 24.4936C48.3369 24.6236 48.3522 24.7604 48.3743 24.8933C48.7481 27.1171 50.8568 28.617 53.0877 28.2395C54.2647 28.047 55.2337 27.3603 55.8348 26.4306Z" fill="black"/>
<g opacity="0.3">
<path d="M50.785 26.1912C51.7962 26.4621 52.8355 25.8622 53.1064 24.8511C53.3773 23.8401 52.7772 22.8008 51.7661 22.5299C50.7549 22.2589 49.7156 22.8589 49.4447 23.87C49.1738 24.881 49.7739 25.9203 50.785 26.1912Z" fill="white"/>
</g>
<path d="M67.6205 35.625C66.9474 35.4446 66.328 35.1286 65.7891 34.6841C63.7014 32.9763 63.3923 29.8869 65.104 27.8064C66.3203 26.326 68.304 25.6861 70.1564 26.1824C70.8296 26.3628 71.449 26.6788 71.9879 27.1233C71.9972 27.1315 72.0065 27.1398 72.0212 27.1495L101.354 22.5557C101.805 22.4862 102.261 22.5101 102.702 22.6285C103.952 22.9632 104.885 24.0039 105.081 25.2741L105.122 25.4871C105.372 27.118 104.261 28.638 102.647 28.8866L73.0136 33.5267C72.9053 33.6939 72.7931 33.8543 72.6661 34.005C71.4553 35.4868 69.473 36.1213 67.6205 35.625Z" fill="#E8AD4F"/>
<path d="M102.486 23.436C103.385 23.677 104.103 24.4233 104.255 25.4048L104.298 25.6354C104.478 26.7918 103.678 27.8817 102.52 28.0677L72.4894 32.7688C72.3595 33.0167 72.2041 33.2521 72.0217 33.4802C70.9835 34.7486 69.3271 35.2224 67.8355 34.8227C67.297 34.6784 66.778 34.4181 66.3138 34.0398C64.5809 32.6233 64.325 30.0675 65.7469 28.3364C66.792 27.064 68.4484 26.5903 69.9346 26.9886C70.4731 27.1328 70.9921 27.3931 71.451 27.77C71.555 27.8555 71.6522 27.9451 71.748 28.04L101.482 23.3921C101.828 23.329 102.168 23.3509 102.486 23.436ZM102.919 21.8208C102.364 21.6721 101.795 21.6409 101.223 21.73L72.2417 26.2621C71.6766 25.851 71.0474 25.5497 70.3689 25.3679C68.1988 24.7864 65.8752 25.5315 64.4518 27.268C63.4826 28.451 63.0316 29.9402 63.1832 31.464C63.3348 32.9877 64.0704 34.3563 65.2536 35.3254C65.8872 35.8472 66.6125 36.2205 67.3987 36.4311C69.5689 37.0126 71.8871 36.2661 73.309 34.535C73.3698 34.4589 73.432 34.3775 73.4928 34.3014L102.771 29.7162C104.838 29.3927 106.259 27.4479 105.948 25.3793C105.945 25.3671 105.943 25.3549 105.94 25.3426L105.9 25.1243C105.651 23.534 104.48 22.2392 102.919 21.8208Z" fill="#A67C38"/>
<path opacity="0.1" d="M102.516 28.061L72.4894 32.7688C72.3663 33.0128 72.2041 33.2521 72.0232 33.4749C70.6081 35.2021 68.0466 35.4564 66.3206 34.0359C65.8711 33.6673 65.5136 33.2138 65.2689 32.7269C67.0039 34.0921 69.5155 33.8302 70.9141 32.1216C71.095 31.8989 71.2572 31.6596 71.3871 31.4116L101.418 26.7106C102.581 26.526 103.375 25.4401 103.195 24.2783L103.153 24.0477C103.131 23.9148 103.101 23.7913 103.058 23.6702C103.68 24.0214 104.143 24.6417 104.262 25.401L104.304 25.6315C104.473 26.7905 103.68 27.8764 102.516 28.061Z" fill="black"/>
<g opacity="0.3">
<path d="M67.8867 31.316C68.8979 31.5869 69.9372 30.9869 70.2081 29.9759C70.479 28.9648 69.8789 27.9256 68.8677 27.6546C67.8566 27.3837 66.8173 27.9837 66.5463 28.9947C66.2754 30.0058 66.8755 31.045 67.8867 31.316Z" fill="white"/>
</g>
<g opacity="0.38">
<path d="M73.0178 58.8848C71.8003 60.1975 71.1199 62.3062 71.4326 64.2193C72.2512 69.2631 78.0825 68.8462 79.9281 64.7587C80.8412 62.7296 80.5672 59.9612 79.1643 58.5408C77.6618 57.0186 75.1875 57.077 73.5329 58.4053C73.3507 58.5469 73.1803 58.709 73.0178 58.8848Z" fill="#FBEBD5"/>
</g>
<g opacity="0.38">
<path d="M65.7326 64.5331C65.372 64.9097 65.0867 65.393 64.9288 65.9393C64.6277 66.9551 64.8023 68.1561 65.3929 68.903C66.4152 70.1926 68.4384 69.8575 69.3881 68.4673C70.005 67.565 70.1829 66.2334 69.7905 65.1992C69.275 63.8492 67.9285 63.4249 66.7925 63.8303C66.4048 63.963 66.0397 64.2057 65.7326 64.5331Z" fill="#FBEBD5"/>
</g>
<path d="M48.5889 83.9921C44.9326 83.0124 41.5763 81.7957 38.6142 80.3787C23.8161 73.2915 22.8369 63.3111 22.8047 62.8927C22.7955 62.7979 22.8024 62.7074 22.827 62.6159L23.8923 58.4463C23.9749 58.1164 24.2549 57.8682 24.5951 57.8266C24.7089 57.811 24.8156 57.8222 24.9179 57.8497C25.1333 57.9074 25.3148 58.0484 25.4291 58.2463C25.5893 58.5316 25.7599 58.8428 25.9369 59.173C28.1633 63.2494 31.8933 70.0716 43.1378 74.9774C45.5153 76.0126 48.1451 76.925 50.956 77.6782L51.3868 77.7937C70.9419 82.8949 80.3774 73.1197 80.4723 73.024C80.6898 72.7937 81.0063 72.7111 81.2971 72.7891C81.3617 72.8064 81.4249 72.8291 81.4891 72.8694C81.8254 73.0576 81.9919 73.4485 81.887 73.8185L80.7177 78.1392C80.699 78.2092 80.6694 78.2763 80.6345 78.342C80.6345 78.342 80.5356 78.5174 80.31 78.8206C79.9712 79.2665 71.6042 90.159 48.5889 83.9921Z" fill="#E0512D"/>
<path d="M81.0852 73.5807L79.916 77.9014C79.916 77.9014 79.8296 78.0514 79.64 78.3065C78.2024 80.2469 69.543 88.7412 48.8002 83.1832C44.9715 82.1573 41.7248 80.9411 38.968 79.6195C24.4354 72.6612 23.6324 62.8203 23.6324 62.8203L24.0303 61.2707L24.6977 58.6506C26.8368 62.4497 30.3696 70.3098 42.8021 75.7359C45.1218 76.7499 47.7541 77.6745 50.7427 78.4753C50.8881 78.5142 51.0335 78.5532 51.1789 78.5922C71.5069 83.889 81.0852 73.5807 81.0852 73.5807ZM81.518 71.9654C80.9311 71.8082 80.2913 71.9772 79.8616 72.4392C79.8066 72.4937 77.5221 74.8593 72.9616 76.5862C68.7154 78.1954 61.5589 79.573 51.6009 76.974C51.4609 76.9365 51.3209 76.899 51.1755 76.86C48.4023 76.1169 45.8141 75.2214 43.4729 74.2017C32.4915 69.4126 28.8468 62.7459 26.6702 58.7637C26.4878 58.432 26.3172 58.1209 26.1531 57.8287C25.9259 57.4274 25.556 57.1493 25.1252 57.0339C24.9152 56.9776 24.695 56.9591 24.4727 56.9918C23.7964 57.0818 23.2378 57.5727 23.0711 58.2379L22.4037 60.8579L22.0058 62.4075C21.9582 62.5852 21.9429 62.7715 21.9574 62.9543C21.9946 63.3971 23.0134 73.8326 38.2408 81.1271C41.2539 82.5692 44.6571 83.8043 48.362 84.797C57.4895 87.2427 65.435 87.3577 71.9917 85.1384C77.92 83.1317 80.5176 79.9208 80.9798 79.2945C81.2068 78.986 81.3237 78.7865 81.3543 78.7369C81.4281 78.6124 81.4817 78.4768 81.5207 78.3314L82.6899 74.0107C82.889 73.2677 82.5614 72.4874 81.8888 72.111C81.7776 72.0523 81.6473 72.0001 81.518 71.9654Z" fill="#A13A20"/>
<path opacity="0.09" d="M81.0857 73.5809L79.9164 77.9016C79.9164 77.9016 79.83 78.0516 79.6405 78.3066C78.2029 80.2471 69.5435 88.7414 48.8006 83.1833C24.7676 76.7437 23.6329 62.8204 23.6329 62.8204L24.0308 61.2708L24.6982 58.6508C24.7061 58.6645 24.71 58.6713 24.7179 58.6849L24.6295 59.0364L24.2316 60.586C24.2316 60.586 25.3717 74.5107 49.3994 80.9489C70.1368 86.5054 78.8016 78.0126 80.2392 76.0721C80.4288 75.8171 80.5151 75.6671 80.5151 75.6671L81.0788 73.5848C81.0857 73.5809 81.0857 73.5809 81.0857 73.5809Z" fill="black"/>
<path opacity="0.09" d="M42.8075 75.7374C41.7474 76.3766 40.7848 77.169 39.9857 78.1264C39.602 78.5891 39.2649 79.0932 38.9788 79.6225C24.4462 72.6641 23.6432 62.8232 23.6432 62.8232L24.0412 61.2736L24.7086 58.6536C26.8369 62.4498 30.3696 70.3098 42.8075 75.7374Z" fill="black"/>
</g>
<defs>
<clipPath id="clip0_229_16264">
<rect width="96" height="83" fill="white" transform="translate(21.4824) rotate(15)"/>
</clipPath>
</defs>
</svg>
