<svg width="172" height="136" viewBox="0 0 172 136" fill="none" xmlns="http://www.w3.org/2000/svg">
<g clip-path="url(#clip0_229_15875)">
<path d="M11.219 64.2562C11.2632 64.268 11.3153 64.2752 11.3611 64.2808C11.6079 64.2928 11.8397 64.159 11.9589 63.941C12.2462 63.4234 12.6604 62.9871 13.1673 62.6838C13.5783 62.4358 14.0544 62.2729 14.5545 62.0961C14.7551 62.0282 14.9573 61.954 15.1533 61.8782C16.7482 61.2718 17.6136 60.3618 17.7365 59.1719C17.8424 58.1463 17.2125 57.5721 16.8711 57.2577L16.6964 57.1028C16.5435 56.9672 16.4234 56.8607 16.337 56.7294L16.2384 56.5679C16.058 56.2831 15.8377 55.92 15.4571 55.6762C15.3131 55.5835 15.1496 55.5127 14.9794 55.4671C14.5886 55.3624 14.1497 55.3866 13.7371 55.5396C13.2114 55.7365 12.8032 56.1001 12.5393 56.3537C11.7956 57.0868 11.1929 57.9996 10.7978 58.995C10.5052 59.7341 10.3437 60.4881 10.3058 61.2346C10.2618 62.1552 10.4301 63.0652 10.7915 63.8849C10.8754 64.0763 11.0299 64.2055 11.219 64.2562Z" fill="#A8BDED"/>
<path d="M14.8088 56.1038C14.5378 56.0311 14.2334 56.0577 13.9642 56.1545C13.5962 56.2923 13.2785 56.545 12.9953 56.8205C12.316 57.4897 11.7605 58.3273 11.4079 59.2396C11.1515 59.8938 10.9943 60.5814 10.959 61.2678C10.9203 62.0682 11.0664 62.8843 11.3897 63.6195C11.7309 63.0016 12.2351 62.4813 12.8397 62.1163C13.4842 61.7282 14.2251 61.5349 14.9262 61.2633C15.9108 60.892 16.9743 60.2514 17.0934 59.1009C17.1576 58.483 16.8612 58.1266 16.4325 57.7347C16.2003 57.5171 15.9672 57.3533 15.7897 57.0828C15.5874 56.7786 15.4176 56.429 15.0996 56.229C15.0135 56.1721 14.916 56.1325 14.8088 56.1038ZM15.1466 54.843C15.3799 54.9055 15.603 55.0058 15.8067 55.128C16.3142 55.4531 16.5932 55.8995 16.7967 56.2243C16.8307 56.2739 16.8584 56.3219 16.8923 56.3715C16.931 56.4292 17.0229 56.5146 17.1401 56.6068C17.1993 56.6632 17.2665 56.715 17.3257 56.7714C17.6889 57.1052 18.5338 57.8856 18.3956 59.2336C18.2901 60.2323 17.6924 61.6059 15.3964 62.4838C15.1925 62.5643 14.9855 62.6305 14.7833 62.7046C14.3135 62.8693 13.874 63.0218 13.5189 63.2374C13.1159 63.4808 12.7695 63.8406 12.5441 64.2532C12.3056 64.6893 11.8438 64.9506 11.3439 64.9248C11.2443 64.9184 11.1527 64.9073 11.0581 64.882C10.6799 64.7806 10.3662 64.5142 10.206 64.1537C9.80019 63.2477 9.61477 62.2251 9.66517 61.2049C9.70273 60.3839 9.88911 59.5623 10.1986 58.7601C10.6237 57.6782 11.2752 56.6839 12.0896 55.8887C12.3939 55.5851 12.8791 55.1611 13.5226 54.9281C14.0466 54.7375 14.6297 54.7045 15.1466 54.843Z" fill="#6D83B0"/>
<path d="M34.4709 50.7782C32.1089 50.3142 29.6657 50.2541 27.2792 50.5876C24.6833 50.946 22.5129 51.8846 20.2296 53.1443C18.8507 53.9031 17.4779 54.765 16.5276 56.017C16.288 56.3312 16.0794 56.782 16.3115 57.1009C16.5436 57.4199 17.0241 57.3662 17.4055 57.2792C20.587 56.5507 23.6486 55.6144 26.9684 55.6053C28.7668 55.6008 30.5711 55.9018 32.2692 56.4987" fill="#A8BDED"/>
<path d="M34.4709 50.7782C32.1089 50.3142 29.6657 50.2541 27.2792 50.5876C24.6833 50.946 22.5129 51.8846 20.2296 53.1443C18.8507 53.9031 17.4779 54.765 16.5276 56.017C16.288 56.3312 16.0794 56.782 16.3115 57.1009C16.5436 57.4199 17.0241 57.3662 17.4055 57.2792C20.587 56.5507 23.6486 55.6144 26.9684 55.6053C28.7668 55.6008 30.5711 55.9018 32.2692 56.4987" stroke="#6D83B0" stroke-width="2" stroke-miterlimit="10" stroke-linecap="round" stroke-linejoin="round"/>
<path d="M94.2772 87.5452C92.678 96.6905 89.836 105.658 85.8912 114.026C85.7222 114.38 85.5435 114.744 85.2515 114.976C84.9948 115.178 84.6786 115.248 84.3754 115.296C82.5737 115.59 80.7757 115.29 79.0569 114.796C76.6354 114.1 74.3204 113.007 72.2139 111.564C71.6145 111.153 71.2661 110.411 71.3082 109.598C71.8008 100.549 74.0586 91.492 77.881 83.2532" fill="#A8B9DD"/>
<path d="M94.2772 87.5452C92.678 96.6905 89.836 105.658 85.8912 114.026C85.7222 114.38 85.5435 114.744 85.2515 114.976C84.9948 115.178 84.6786 115.248 84.3754 115.296C82.5737 115.59 80.7757 115.29 79.0569 114.796C76.6354 114.1 74.3204 113.007 72.2139 111.564C71.6145 111.153 71.2661 110.411 71.3082 109.598C71.8008 100.549 74.0586 91.492 77.881 83.2532" stroke="#6D83B0" stroke-width="2" stroke-miterlimit="10" stroke-linecap="round" stroke-linejoin="round"/>
<path d="M81.5827 115.257C82.9125 115.539 84.0634 115.631 85.0973 115.53C85.3954 115.501 85.6319 115.274 85.6781 114.976C85.7298 114.632 85.7306 114.301 85.7296 114.077C85.7198 113.433 85.5607 112.917 85.2291 112.491C84.9286 112.099 84.4808 111.804 83.9891 111.672C83.7748 111.615 83.5646 111.592 83.3586 111.604C82.8785 111.631 82.4352 111.823 82.0955 112.158C81.8026 112.444 81.6404 112.772 81.5232 113.058C81.3254 113.519 81.1748 114.006 81.0779 114.493C81.0136 114.834 81.2171 115.159 81.5512 115.248C81.5638 115.252 81.5701 115.253 81.5827 115.257Z" fill="white"/>
<path d="M83.8199 112.302C83.6812 112.265 83.5311 112.245 83.3869 112.254C83.0447 112.27 82.7541 112.422 82.5529 112.618C82.3517 112.814 82.2257 113.057 82.1249 113.308C81.9437 113.732 81.8065 114.168 81.7198 114.618C82.8129 114.85 83.9394 114.983 85.0351 114.878C85.0779 114.592 85.0795 114.309 85.0785 114.085C85.0727 113.678 84.9975 113.253 84.7171 112.887C84.511 112.623 84.1792 112.399 83.8199 112.302ZM84.1577 111.042C84.7818 111.209 85.361 111.594 85.7484 112.089C86.1636 112.633 86.3759 113.278 86.3817 114.063C86.3839 114.307 86.3793 114.677 86.3221 115.067C86.2377 115.659 85.7566 116.118 85.1605 116.175C84.0631 116.286 82.8458 116.19 81.4467 115.889C81.4215 115.882 81.4026 115.877 81.3774 115.871C80.7218 115.695 80.3039 115.036 80.4371 114.362C80.5395 113.829 80.7082 113.3 80.9195 112.789C81.0531 112.466 81.2596 112.049 81.6346 111.683C82.0837 111.243 82.6818 110.977 83.3187 110.945C83.6037 110.94 83.8803 110.967 84.1577 111.042Z" fill="#6D83B0"/>
<path d="M79.752 114.976C80.0815 115.057 80.4218 114.871 80.5286 114.549C80.7053 114.015 80.7296 113.42 80.7267 113.027C80.722 112.364 80.5617 111.828 80.2351 111.382C79.9317 110.977 79.4747 110.665 78.9704 110.53C78.7561 110.472 78.5396 110.448 78.3273 110.459C77.8455 110.492 77.3862 110.693 77.0414 111.047C76.7514 111.347 76.5858 111.688 76.4589 111.985C76.3072 112.35 76.1772 112.734 76.0788 113.127C76.0023 113.437 76.1646 113.764 76.4634 113.885C77.3924 114.276 78.3589 114.602 79.3297 114.862C79.473 114.908 79.6133 114.938 79.752 114.976Z" fill="white"/>
<path d="M78.8018 111.16C78.6568 111.122 78.513 111.103 78.3625 111.11C78.0123 111.131 77.712 111.294 77.5074 111.503C77.3012 111.718 77.1718 111.974 77.063 112.228C76.918 112.568 76.8028 112.922 76.7128 113.283C77.6183 113.661 78.547 113.977 79.4926 114.231C79.6312 114.268 79.7636 114.303 79.904 114.334C80.0491 113.893 80.064 113.384 80.067 113.02C80.0663 112.594 79.9898 112.148 79.7082 111.761C79.5021 111.497 79.1674 111.258 78.8018 111.16ZM79.1396 109.9C79.7826 110.072 80.371 110.473 80.758 110.995C81.1697 111.552 81.3707 112.214 81.3761 113.026C81.3781 113.472 81.3558 114.135 81.1474 114.762C80.9339 115.407 80.2533 115.779 79.5943 115.616C79.4493 115.577 79.3027 115.544 79.1577 115.506C78.1554 115.237 77.1654 114.897 76.2111 114.5C75.6153 114.252 75.289 113.604 75.4499 112.978C75.5568 112.554 75.6952 112.139 75.8634 111.738C75.9988 111.409 76.2103 110.973 76.5807 110.599C77.0348 110.14 77.6443 109.857 78.2829 109.819C78.573 109.795 78.8559 109.824 79.1396 109.9Z" fill="#6D83B0"/>
<path d="M74.9233 114.513C76.1147 114.832 77.2618 114.207 77.6504 113.034C77.8091 112.543 77.9207 112.026 77.9722 111.506C78.0505 110.709 77.8777 109.967 77.4501 109.319C77.2386 108.998 76.7815 108.41 76.0824 108.094C75.9442 108.03 75.7963 107.977 75.645 107.936C75.1722 107.81 74.6673 107.803 74.1922 107.912C73.4071 108.093 72.7116 108.596 72.234 109.32C71.9838 109.698 71.7895 110.146 71.6725 110.608C71.591 110.938 71.3642 111.809 71.9377 112.72C72.0703 112.931 72.2286 113.122 72.4188 113.295C72.6137 113.475 72.8296 113.628 73.1073 113.776C73.4728 113.976 73.8329 114.119 74.1396 114.235C74.3363 114.308 74.5329 114.381 74.7376 114.45C74.8052 114.474 74.8666 114.498 74.9233 114.513Z" fill="white"/>
<path d="M75.1445 109.829C74.9807 109.785 74.7986 109.784 74.6414 109.816C74.3251 109.887 74.06 110.12 73.8798 110.389C73.7416 110.602 73.6363 110.844 73.5767 111.091C73.5209 111.299 73.4783 111.484 73.6062 111.687C73.6432 111.751 73.6961 111.806 73.7506 111.854C73.8426 111.94 73.9459 112.008 74.059 112.065C74.3068 112.199 74.5694 112.303 74.8337 112.401C75.0115 112.469 75.1909 112.531 75.3704 112.592C75.3956 112.599 75.4208 112.606 75.4397 112.611C75.6162 112.658 75.726 112.627 75.7977 112.409C75.9146 112.049 75.9936 111.678 76.0332 111.304C76.0643 110.961 76.0074 110.668 75.8224 110.376C75.702 110.195 75.4954 109.957 75.2958 109.87C75.2374 109.861 75.1887 109.841 75.1445 109.829ZM76.158 106.047C76.4038 106.113 76.6509 106.199 76.8803 106.301C78.0383 106.821 78.7653 107.739 79.0892 108.244C79.7543 109.267 80.043 110.459 79.9208 111.697C79.8574 112.362 79.7166 113.014 79.5082 113.64C78.7943 115.8 76.6057 116.984 74.4182 116.398C74.3237 116.372 74.2228 116.345 74.1127 116.302C73.8955 116.231 73.6736 116.151 73.4581 116.073C73.0837 115.932 72.637 115.758 72.1602 115.495C71.7539 115.272 71.4019 115.022 71.0933 114.737C70.78 114.443 70.5021 114.119 70.2819 113.756C69.6114 112.677 69.4388 111.456 69.7826 110.122C69.957 109.446 70.2352 108.811 70.6042 108.241C71.3501 107.096 72.4764 106.297 73.7509 106.003C74.5423 105.823 75.37 105.836 76.158 106.047Z" fill="#7F94BF"/>
<path d="M57.1729 77.6032C55.5737 86.7485 52.7317 95.7161 48.7869 104.084C48.6179 104.438 48.4392 104.802 48.1472 105.034C47.8905 105.236 47.5743 105.306 47.2711 105.354C45.4694 105.648 43.6714 105.348 41.9526 104.854C39.5311 104.158 37.2161 103.065 35.1096 101.622C34.5102 101.211 34.1618 100.469 34.2039 99.6565C34.6965 90.6066 36.9543 81.55 40.7767 73.3112" fill="#A8B9DD"/>
<path d="M57.1729 77.6032C55.5737 86.7485 52.7317 95.7161 48.7869 104.084C48.6179 104.438 48.4392 104.802 48.1472 105.034C47.8905 105.236 47.5743 105.306 47.2711 105.354C45.4694 105.648 43.6714 105.348 41.9526 104.854C39.5311 104.158 37.2161 103.065 35.1096 101.622C34.5102 101.211 34.1618 100.469 34.2039 99.6565C34.6965 90.6066 36.9543 81.55 40.7767 73.3112" stroke="#6D83B0" stroke-width="2" stroke-miterlimit="10" stroke-linecap="round" stroke-linejoin="round"/>
<path d="M43.9931 105.184C45.3228 105.466 46.4737 105.559 47.5076 105.457C47.8057 105.429 48.0422 105.202 48.0884 104.904C48.1384 104.566 48.1421 104.249 48.1399 104.005C48.1302 103.361 47.971 102.845 47.6395 102.419C47.3389 102.027 46.8911 101.732 46.3995 101.6C46.1851 101.542 45.975 101.52 45.769 101.532C45.2888 101.559 44.8455 101.751 44.5059 102.086C44.2129 102.372 44.0507 102.7 43.9335 102.986C43.7341 103.453 43.5851 103.933 43.4883 104.421C43.424 104.762 43.6275 105.087 43.9616 105.176C43.9679 105.178 43.9805 105.181 43.9931 105.184Z" fill="white"/>
<path d="M46.2302 102.23C46.0915 102.193 45.9415 102.173 45.7973 102.182C45.4551 102.198 45.1644 102.35 44.9632 102.546C44.762 102.742 44.636 102.985 44.5353 103.235C44.354 103.66 44.2169 104.096 44.1301 104.546C45.2233 104.778 46.3498 104.911 47.4454 104.806C47.4882 104.52 47.4898 104.236 47.4888 104.013C47.483 103.606 47.4078 103.181 47.1275 102.815C46.9151 102.549 46.5895 102.326 46.2302 102.23ZM46.568 100.969C47.1921 101.136 47.7714 101.521 48.1588 102.017C48.5739 102.561 48.7863 103.205 48.792 103.991C48.7943 104.235 48.7896 104.605 48.7324 104.995C48.648 105.587 48.167 106.046 47.5708 106.103C46.4735 106.214 45.2562 106.117 43.857 105.817C43.8318 105.81 43.8129 105.805 43.7877 105.798C43.1321 105.623 42.7142 104.963 42.8474 104.29C42.9498 103.756 43.1186 103.227 43.3298 102.716C43.4635 102.394 43.6699 101.976 44.045 101.611C44.494 101.17 45.0921 100.905 45.7291 100.873C46.0078 100.866 46.2907 100.895 46.568 100.969Z" fill="#6D83B0"/>
<path d="M42.7795 104.542C43.109 104.623 43.4493 104.437 43.5561 104.115C43.7329 103.581 43.7554 102.992 43.7542 102.594C43.7496 101.93 43.5892 101.394 43.2627 100.948C42.9592 100.543 42.5022 100.231 41.9979 100.096C41.7836 100.039 41.5671 100.014 41.3548 100.025C40.8667 100.056 40.412 100.266 40.069 100.613C39.7807 100.907 39.6133 101.254 39.4865 101.551C39.3347 101.916 39.2047 102.3 39.1063 102.693C39.0299 103.003 39.1922 103.33 39.4909 103.451C40.4199 103.842 41.3801 104.167 42.3572 104.429C42.5005 104.474 42.6409 104.505 42.7795 104.542Z" fill="white"/>
<path d="M41.8293 100.727C41.6843 100.688 41.5405 100.67 41.39 100.676C41.0398 100.698 40.7395 100.86 40.5349 101.069C40.3287 101.284 40.1993 101.54 40.0906 101.794C39.9455 102.134 39.8303 102.488 39.7404 102.849C40.6458 103.227 41.5745 103.543 42.5201 103.797C42.6588 103.834 42.7911 103.869 42.9315 103.9C43.0767 103.459 43.0916 102.95 43.0945 102.586C43.0938 102.16 43.0174 101.714 42.7358 101.328C42.536 101.065 42.2012 100.826 41.8293 100.727ZM42.1671 99.4659C42.8101 99.6382 43.3986 100.039 43.7855 100.562C44.1973 101.118 44.3983 101.78 44.4036 102.592C44.4056 103.038 44.3834 103.701 44.1749 104.328C43.9614 104.973 43.2808 105.345 42.6218 105.182C42.4769 105.143 42.3302 105.111 42.1852 105.072C41.1829 104.803 40.1929 104.464 39.2387 104.066C38.6428 103.819 38.3166 103.17 38.4775 102.545C38.5843 102.121 38.7227 101.705 38.8909 101.304C39.0263 100.976 39.2378 100.539 39.6082 100.165C40.0624 99.7059 40.6719 99.4233 41.3105 99.385C41.6006 99.3614 41.8834 99.3899 42.1671 99.4659Z" fill="#6D83B0"/>
<path d="M38.1631 103.312C38.6989 103.455 39.1351 103.214 39.3102 102.687C39.4452 102.284 39.5298 101.867 39.5766 101.441C39.6247 100.933 39.5197 100.493 39.2621 100.093C39.1819 99.9634 38.8772 99.5372 38.4545 99.3496C38.376 99.315 38.2957 99.2868 38.2138 99.2648C37.9427 99.1922 37.661 99.1843 37.394 99.2479C36.9395 99.3558 36.5275 99.6575 36.2336 100.099C36.0613 100.364 35.9248 100.672 35.8449 100.995C35.779 101.241 35.6756 101.652 35.9546 102.098C36.0255 102.212 36.1078 102.308 36.2106 102.404C36.3244 102.508 36.4668 102.607 36.6441 102.702C36.9327 102.861 37.2252 102.979 37.5021 103.081C37.6861 103.15 37.8719 103.214 38.0639 103.278C38.0874 103.292 38.1253 103.302 38.1631 103.312Z" fill="white"/>
<path d="M38.0402 99.8873C37.8763 99.8433 37.6943 99.8419 37.5371 99.874C37.2208 99.9447 36.9557 100.178 36.7755 100.447C36.6373 100.66 36.5319 100.902 36.4724 101.149C36.4166 101.357 36.3739 101.542 36.5019 101.745C36.5388 101.809 36.5917 101.864 36.6463 101.912C36.7383 101.998 36.8416 102.066 36.9547 102.123C37.2025 102.257 37.4651 102.361 37.7294 102.459C37.9072 102.527 38.0866 102.589 38.266 102.65C38.2913 102.657 38.3165 102.664 38.3354 102.669C38.5119 102.716 38.6216 102.685 38.6934 102.468C38.8102 102.107 38.8893 101.736 38.9288 101.362C38.9599 101.019 38.9031 100.727 38.7181 100.434C38.5976 100.253 38.3911 100.015 38.1915 99.9278C38.1394 99.9206 38.0907 99.9008 38.0402 99.8873ZM38.3781 98.6265C38.4915 98.6569 38.6096 98.6953 38.718 98.7446C39.2852 98.9979 39.6659 99.5188 39.8065 99.7254C40.1459 100.249 40.2894 100.848 40.2247 101.493C40.1788 101.967 40.0807 102.434 39.9339 102.881C39.652 103.731 38.8595 104.167 37.9959 103.936C37.9517 103.924 37.9013 103.911 37.8463 103.889C37.6542 103.824 37.4559 103.757 37.2655 103.686C36.9651 103.572 36.6474 103.446 36.3164 103.27C36.092 103.149 35.9106 103.019 35.7531 102.876C35.6129 102.743 35.484 102.594 35.3837 102.439C34.9582 101.757 35.1259 101.106 35.2002 100.829C35.2987 100.436 35.4681 100.056 35.6762 99.7335C36.0548 99.1526 36.6093 98.7471 37.2292 98.6024C37.6089 98.5217 38.0061 98.5268 38.3781 98.6265Z" fill="#6D83B0"/>
<path d="M43.3799 91.4333C44.1379 91.731 44.8901 92.0001 45.6221 92.2435C51.664 94.2543 57.1022 96.2992 63.5817 96.576C66.9954 96.7205 70.3935 96.2933 73.776 96.2267C77.301 96.1578 81.0116 95.5981 84.3847 94.5831C86.2145 94.0329 87.9781 93.2758 89.6464 92.3445C94.0441 89.9015 97.7667 86.2709 100.342 81.9545C102.979 77.5331 103.335 73.7841 102.433 68.7792C100.788 59.6632 93.8796 52.0624 84.9219 49.6622C84.9156 49.6605 56.5928 42.0714 56.5928 42.0714C43.7647 38.6341 30.4566 46.3175 27.0193 59.1457L26.2355 62.0706C24.5431 68.387 25.6081 75.2801 28.9825 80.8664C31.9798 85.818 37.8674 89.2873 43.3799 91.4333Z" fill="#A8BDED" stroke="#6D83B0" stroke-width="2" stroke-miterlimit="10" stroke-linecap="round" stroke-linejoin="round"/>
<path opacity="0.2" d="M27.1908 58.5298L26.407 61.4547C24.7146 67.7711 25.7796 74.6642 29.1557 80.2442C32.145 85.2003 38.0389 88.6714 43.5451 90.8156C44.3048 91.107 45.0553 91.3824 45.7873 91.6259C51.8292 93.6367 57.2674 95.6816 63.7485 95.9521C67.1623 96.0966 70.5604 95.6694 73.9429 95.6028C77.4616 95.5322 81.1785 94.9742 84.5533 93.9529C86.3831 93.4027 88.1467 92.6456 89.8133 91.7206C94.211 89.2776 97.9336 85.6469 100.515 81.3322C102.037 78.7806 102.801 76.4585 102.998 73.9843C102.703 74.6284 102.354 75.2779 101.96 75.9425C99.3841 80.2589 95.6551 83.8878 91.2575 86.3309C89.5908 87.2558 87.8209 88.0113 85.9975 88.5631C82.629 89.5861 78.9121 90.1441 75.3871 90.2131C72.0046 90.2797 68.6065 90.7069 65.1927 90.5624C58.7132 90.2856 53.2733 88.2469 47.2314 86.2362C46.4994 85.9927 45.7473 85.7236 44.9892 85.4259C39.4831 83.2817 33.5892 79.8106 30.5999 74.8545C27.4394 69.6295 26.3086 63.2593 27.5647 57.2855C27.4217 57.6931 27.3039 58.1074 27.1908 58.5298Z" fill="#7F94BF"/>
<path d="M45.525 76.7455C43.9258 85.8908 41.0838 94.8584 37.139 103.227C36.97 103.58 36.7913 103.944 36.4993 104.177C36.2426 104.378 35.9264 104.449 35.6232 104.496C33.8215 104.79 32.0235 104.491 30.3047 103.996C27.8833 103.3 25.5682 102.207 23.4617 100.764C22.8623 100.354 22.5139 99.6118 22.5561 98.7988C23.0487 89.7489 25.3065 80.6923 29.1288 72.4535" fill="#A8BDED"/>
<path d="M45.525 76.7455C43.9258 85.8908 41.0838 94.8584 37.139 103.227C36.97 103.58 36.7913 103.944 36.4993 104.177C36.2426 104.378 35.9264 104.449 35.6232 104.496C33.8215 104.79 32.0235 104.491 30.3047 103.996C27.8833 103.3 25.5682 102.207 23.4617 100.764C22.8623 100.354 22.5139 99.6118 22.5561 98.7988C23.0487 89.7489 25.3065 80.6923 29.1288 72.4535" stroke="#6D83B0" stroke-width="2" stroke-miterlimit="10" stroke-linecap="round" stroke-linejoin="round"/>
<path opacity="0.2" d="M22.2933 98.8704C22.2511 99.6834 22.5933 100.424 23.1927 100.834C25.3009 102.271 27.6142 103.37 30.0356 104.066C31.2724 104.418 32.5488 104.672 33.8373 104.68C31.7242 103.816 29.6925 102.725 27.7864 101.417C26.9694 100.86 26.4973 99.8482 26.5633 98.7443C27.0348 90.1009 27.0976 81.1926 29.8438 72.9357L28.8661 72.5251C25.05 80.7656 22.7922 89.8222 22.2933 98.8704Z" fill="#7F94BF"/>
<path d="M32.1753 104.329C33.5051 104.611 34.656 104.703 35.6899 104.602C35.988 104.574 36.2245 104.346 36.2707 104.048C36.3224 103.704 36.3232 103.373 36.3222 103.15C36.3124 102.505 36.1533 101.99 35.8217 101.563C35.5212 101.172 35.0734 100.876 34.5817 100.744C34.3674 100.687 34.1572 100.664 33.9512 100.677C33.4711 100.703 33.0278 100.895 32.6881 101.23C32.3969 101.51 32.233 101.844 32.1158 102.131C31.9164 102.597 31.7674 103.078 31.6705 103.565C31.6062 103.906 31.8097 104.231 32.1438 104.32C32.1501 104.322 32.1627 104.326 32.1753 104.329Z" fill="white"/>
<path d="M34.4125 101.374C34.2738 101.337 34.1238 101.317 33.9795 101.326C33.6373 101.342 33.3467 101.494 33.1455 101.69C32.9443 101.886 32.8183 102.13 32.7175 102.38C32.5363 102.804 32.3991 103.24 32.3124 103.69C33.4056 103.922 34.532 104.055 35.6277 103.95C35.6705 103.664 35.6721 103.381 35.6711 103.158C35.6653 102.751 35.5901 102.325 35.3097 101.959C35.1036 101.695 34.7718 101.471 34.4125 101.374ZM34.7503 100.114C35.3744 100.281 35.9536 100.666 36.341 101.162C36.7562 101.705 36.9685 102.35 36.9743 103.135C36.9765 103.379 36.9719 103.749 36.9147 104.139C36.8303 104.732 36.3493 105.19 35.7531 105.247C34.6557 105.358 33.4384 105.262 32.0393 104.961C32.0141 104.955 31.9952 104.949 31.97 104.943C31.3144 104.767 30.8965 104.108 31.0297 103.434C31.1321 102.901 31.3009 102.372 31.5121 101.861C31.6457 101.538 31.8522 101.121 32.2272 100.755C32.6763 100.315 33.2744 100.049 33.9113 100.017C34.19 100.011 34.4729 100.039 34.7503 100.114Z" fill="#6D83B0"/>
<path d="M30.4772 103.556C30.8067 103.638 31.147 103.452 31.2538 103.129C31.4288 102.602 31.451 102.04 31.4519 101.608C31.4472 100.945 31.2885 100.402 30.9603 99.963C30.6569 99.5574 30.1999 99.2458 29.6956 99.1106C29.4812 99.0532 29.2648 99.029 29.0525 99.0397C28.5644 99.071 28.1114 99.274 27.7666 99.6275C27.4783 99.9219 27.311 100.269 27.1858 100.56C27.034 100.924 26.9041 101.308 26.8057 101.701C26.7292 102.012 26.8915 102.339 27.1903 102.459C28.1193 102.85 29.0795 103.175 30.0565 103.437C30.1919 103.487 30.3322 103.517 30.4772 103.556Z" fill="white"/>
<path d="M29.5262 99.7408C29.3812 99.7019 29.2374 99.6837 29.0869 99.6907C28.7367 99.7117 28.4364 99.8744 28.2318 100.083C28.0256 100.298 27.8962 100.554 27.7874 100.809C27.6424 101.148 27.5272 101.502 27.4373 101.863C28.3427 102.241 29.2714 102.557 30.217 102.811C30.3557 102.848 30.488 102.883 30.6284 102.914C30.7736 102.474 30.7885 101.964 30.7914 101.6C30.7907 101.174 30.7143 100.728 30.4327 100.342C30.2266 100.077 29.8918 99.8388 29.5262 99.7408ZM29.864 98.48C30.507 98.6523 31.0955 99.0532 31.4824 99.5758C31.8942 100.132 32.0952 100.794 32.1005 101.606C32.1025 102.053 32.0802 102.716 31.8718 103.342C31.6583 103.988 30.9777 104.359 30.3187 104.196C30.1738 104.157 30.0271 104.125 29.8821 104.086C28.8798 103.817 27.8898 103.478 26.9355 103.08C26.3397 102.833 26.0134 102.184 26.1744 101.559C26.2812 101.135 26.4196 100.719 26.5878 100.318C26.7232 99.9897 26.9347 99.5531 27.3051 99.1794C27.7593 98.7201 28.3687 98.4375 29.0073 98.3991C29.2911 98.3738 29.5803 98.404 29.864 98.48Z" fill="#6D83B0"/>
<path d="M25.0025 101.569C25.5383 101.712 25.9746 101.471 26.1497 100.944C26.2847 100.541 26.3692 100.124 26.416 99.6978C26.4641 99.1904 26.3654 98.7518 26.1015 98.35C26.0213 98.2205 25.7167 97.7943 25.294 97.6067C25.2154 97.5721 25.1351 97.5439 25.0532 97.5219C24.7821 97.4493 24.5005 97.4414 24.2335 97.5049C23.7789 97.6129 23.367 97.9146 23.073 98.3561C22.9008 98.6207 22.7642 98.9287 22.6843 99.2519C22.6185 99.4977 22.515 99.9092 22.794 100.356C22.8603 100.461 22.9472 100.565 23.0501 100.661C23.1702 100.767 23.3063 100.864 23.4819 100.965C23.7705 101.124 24.0629 101.243 24.3398 101.344C24.5239 101.414 24.7096 101.477 24.9017 101.542C24.9332 101.55 24.9647 101.559 25.0025 101.569Z" fill="white"/>
<path d="M24.8797 98.1443C24.7158 98.1004 24.5337 98.0989 24.3765 98.1311C24.0603 98.2018 23.7951 98.4348 23.6149 98.704C23.4768 98.917 23.3714 99.159 23.3118 99.4065C23.2561 99.6146 23.2134 99.7991 23.3414 100.002C23.3783 100.066 23.4312 100.121 23.4858 100.169C23.5777 100.255 23.6811 100.323 23.7941 100.38C24.0419 100.514 24.3046 100.618 24.5689 100.716C24.7466 100.784 24.926 100.846 25.1055 100.907C25.1307 100.914 25.1559 100.921 25.1748 100.926C25.3513 100.973 25.4611 100.942 25.5328 100.725C25.6497 100.364 25.7287 99.9934 25.7683 99.6188C25.7994 99.2759 25.7426 98.9836 25.5575 98.6908C25.4371 98.5099 25.2305 98.2721 25.031 98.1849C24.9788 98.1777 24.9301 98.1578 24.8797 98.1443ZM25.2175 96.8836C25.3309 96.914 25.449 96.9524 25.5574 97.0017C26.1247 97.255 26.5053 97.7759 26.6459 97.9825C26.9917 98.5075 27.1288 99.1051 27.0642 99.7499C27.0182 100.224 26.9201 100.691 26.7733 101.138C26.4914 101.988 25.6989 102.424 24.8353 102.193C24.7912 102.181 24.7407 102.168 24.6857 102.146C24.4937 102.081 24.2953 102.015 24.105 101.943C23.8045 101.829 23.4869 101.703 23.1558 101.527C22.9315 101.406 22.75 101.276 22.5926 101.133C22.446 100.999 22.3234 100.851 22.2231 100.696C21.7977 100.014 21.9654 99.3633 22.0397 99.086C22.1381 98.6934 22.3075 98.3132 22.5156 97.9906C22.8942 97.4096 23.4488 97.0042 24.0686 96.8595C24.4546 96.7805 24.8456 96.7839 25.2175 96.8836Z" fill="#6D83B0"/>
<path d="M86.4745 87.7176C84.8753 96.8628 82.0333 105.83 78.0884 114.199C77.9194 114.552 77.7408 114.916 77.4487 115.149C77.1921 115.35 76.8758 115.421 76.5727 115.468C74.771 115.762 72.9729 115.463 71.2541 114.969C68.8327 114.272 66.5177 113.179 64.4112 111.736C63.8118 111.326 63.4633 110.584 63.5055 109.771C63.9981 100.721 66.2559 91.6643 70.0782 83.4256" fill="#A8BDED"/>
<path d="M86.4745 87.7176C84.8753 96.8628 82.0333 105.83 78.0884 114.199C77.9194 114.552 77.7408 114.916 77.4487 115.149C77.1921 115.35 76.8758 115.421 76.5727 115.468C74.771 115.762 72.9729 115.463 71.2541 114.969C68.8327 114.272 66.5177 113.179 64.4112 111.736C63.8118 111.326 63.4633 110.584 63.5055 109.771C63.9981 100.721 66.2559 91.6643 70.0782 83.4256" stroke="#6D83B0" stroke-width="2" stroke-miterlimit="10" stroke-linecap="round" stroke-linejoin="round"/>
<path opacity="0.2" d="M64.0182 110.05C63.976 110.863 64.3181 111.603 64.9175 112.014C67.0257 113.45 69.3391 114.55 71.7605 115.246C72.9973 115.598 74.2737 115.852 75.5621 115.859C73.4491 114.996 71.4174 113.904 69.5112 112.596C68.6942 112.039 68.2221 111.028 68.2882 109.924C68.7597 101.281 68.8225 92.3722 71.5686 84.1153L70.5909 83.7047C66.7685 91.9435 64.5107 101 64.0182 110.05Z" fill="#7F94BF"/>
<path d="M73.2761 115.341C74.6058 115.623 75.7568 115.716 76.7906 115.614C77.0887 115.586 77.3252 115.359 77.3714 115.061C77.4231 114.716 77.4239 114.385 77.4229 114.162C77.4132 113.518 77.2541 113.002 76.9225 112.576C76.6219 112.184 76.1742 111.889 75.6825 111.757C75.4681 111.699 75.258 111.677 75.052 111.689C74.5719 111.716 74.1285 111.908 73.7889 112.243C73.4976 112.523 73.3337 112.857 73.2165 113.143C73.0171 113.61 72.8681 114.09 72.7713 114.578C72.707 114.919 72.9105 115.244 73.2446 115.333C73.2572 115.336 73.2698 115.34 73.2761 115.341Z" fill="white"/>
<path d="M75.5132 112.387C75.3745 112.35 75.2245 112.33 75.0803 112.339C74.7381 112.355 74.4474 112.507 74.2462 112.703C74.045 112.899 73.919 113.142 73.8183 113.392C73.637 113.817 73.4999 114.253 73.4131 114.703C74.5063 114.935 75.6328 115.068 76.7284 114.962C76.7712 114.677 76.7728 114.393 76.7718 114.17C76.766 113.763 76.6908 113.338 76.4105 112.972C76.2044 112.707 75.8788 112.485 75.5132 112.387ZM75.851 111.126C76.4751 111.293 77.0544 111.678 77.4418 112.174C77.8569 112.718 78.0693 113.362 78.075 114.148C78.0773 114.392 78.0726 114.762 78.0154 115.152C77.931 115.744 77.45 116.203 76.8538 116.26C75.7565 116.371 74.5392 116.274 73.1401 115.974C73.1148 115.967 73.0959 115.962 73.0707 115.955C72.4151 115.78 71.9972 115.12 72.1304 114.447C72.2328 113.913 72.4016 113.384 72.6128 112.873C72.7465 112.551 72.953 112.133 73.328 111.768C73.777 111.327 74.3751 111.062 75.0121 111.03C75.2971 111.025 75.5737 111.052 75.851 111.126Z" fill="#6D83B0"/>
<path d="M71.9376 115.192C72.2671 115.273 72.6074 115.088 72.7141 114.765C72.8909 114.231 72.9135 113.643 72.9123 113.244C72.9076 112.58 72.7472 112.044 72.4207 111.599C72.1172 111.193 71.6602 110.881 71.1559 110.746C70.9416 110.689 70.7251 110.665 70.5128 110.675C70.0247 110.707 69.5717 110.909 69.227 111.263C68.9387 111.557 68.7714 111.904 68.6462 112.195C68.4944 112.56 68.3645 112.944 68.266 113.337C68.1896 113.647 68.3519 113.974 68.6506 114.095C69.5796 114.486 70.5398 114.811 71.5169 115.072C71.6585 115.124 71.7989 115.155 71.9376 115.192Z" fill="white"/>
<path d="M70.9873 111.377C70.8423 111.338 70.6986 111.32 70.5481 111.327C70.1979 111.348 69.8975 111.51 69.693 111.719C69.4867 111.934 69.3573 112.19 69.2486 112.445C69.1036 112.784 68.9884 113.138 68.8984 113.499C69.8039 113.877 70.7325 114.193 71.6781 114.447C71.8168 114.484 71.9492 114.519 72.0895 114.55C72.2347 114.11 72.2496 113.6 72.2525 113.236C72.2518 112.81 72.1754 112.364 71.8938 111.978C71.6877 111.713 71.3529 111.475 70.9873 111.377ZM71.3251 110.116C71.9681 110.288 72.5566 110.689 72.9436 111.212C73.3553 111.768 73.5563 112.43 73.5616 113.242C73.5636 113.689 73.5414 114.352 73.333 114.978C73.1195 115.624 72.4388 115.995 71.7799 115.832C71.6349 115.793 71.4882 115.761 71.3432 115.722C70.3409 115.453 69.3509 115.114 68.3967 114.716C67.8009 114.469 67.4746 113.82 67.6355 113.195C67.7424 112.771 67.8808 112.355 68.049 111.954C68.1843 111.626 68.3959 111.189 68.7662 110.815C69.2204 110.356 69.8299 110.073 70.4685 110.035C70.7586 110.011 71.0415 110.04 71.3251 110.116Z" fill="#6D83B0"/>
<path d="M66.4697 113.207C67.0056 113.35 67.4418 113.109 67.6169 112.582C67.7519 112.179 67.8381 111.756 67.8832 111.336C67.9313 110.828 67.8326 110.39 67.5687 109.988C67.4869 109.865 67.1839 109.432 66.7612 109.245C66.6826 109.21 66.6024 109.182 66.5204 109.16C66.2493 109.087 65.9677 109.079 65.7007 109.143C65.2461 109.251 64.8342 109.553 64.5402 109.994C64.368 110.259 64.2314 110.567 64.1516 110.89C64.092 111.137 63.9805 111.553 64.2612 111.993C64.3275 112.099 64.4144 112.203 64.5173 112.299C64.6685 112.44 64.8378 112.54 64.9491 112.603C65.2377 112.762 65.5301 112.881 65.8071 112.982C65.9911 113.052 66.1768 113.115 66.3689 113.18C66.3958 113.18 66.4319 113.197 66.4697 113.207Z" fill="white"/>
<path d="M66.3469 109.782C66.183 109.738 66.001 109.737 65.8437 109.769C65.5275 109.84 65.2624 110.073 65.0821 110.342C64.944 110.555 64.8386 110.797 64.779 111.044C64.7233 111.253 64.6806 111.437 64.8086 111.64C64.8455 111.704 64.8984 111.759 64.953 111.807C65.0449 111.893 65.1483 111.961 65.2613 112.018C65.5092 112.152 65.7718 112.256 66.0361 112.354C66.2138 112.422 66.3932 112.484 66.5727 112.545C66.5979 112.552 66.6231 112.559 66.642 112.564C66.8185 112.611 66.9283 112.58 67 112.363C67.1169 112.002 67.1959 111.631 67.2355 111.257C67.2666 110.914 67.2098 110.622 67.0247 110.329C66.9043 110.148 66.6977 109.91 66.4982 109.823C66.446 109.816 66.3973 109.796 66.3469 109.782ZM66.6847 108.522C66.7982 108.552 66.9162 108.59 67.0246 108.64C67.5919 108.893 67.9725 109.414 68.1131 109.62C68.4589 110.145 68.5961 110.743 68.5314 111.388C68.4854 111.862 68.3873 112.329 68.2405 112.776C67.9587 113.626 67.1661 114.062 66.3025 113.831C66.2584 113.819 66.208 113.806 66.1529 113.784C65.9609 113.719 65.7625 113.652 65.5722 113.581C65.2717 113.467 64.9541 113.341 64.623 113.165C64.3987 113.044 64.2172 112.914 64.0598 112.771C63.9195 112.638 63.7906 112.489 63.6903 112.334C63.2649 111.652 63.4326 111.001 63.5069 110.724C63.6053 110.331 63.7748 109.951 63.9828 109.629C64.3614 109.048 64.916 108.642 65.5358 108.497C65.9155 108.417 66.3128 108.422 66.6847 108.522Z" fill="#6D83B0"/>
<path d="M103.778 30.6013C96.3108 23.1953 82.3084 18.4164 73.5682 20.1215C61.8708 22.3991 59.9076 36.433 63.8979 47.6637C68.2418 59.8946 79.9047 66.4451 91.6022 64.1676C94.8803 63.5325 97.8363 62.1829 100.344 60.3143" fill="#A8BDED"/>
<path d="M103.778 30.6013C96.3108 23.1953 82.3084 18.4164 73.5682 20.1215C61.8708 22.3991 59.9076 36.433 63.8979 47.6637C68.2418 59.8946 79.9047 66.4451 91.6022 64.1676C94.8803 63.5326 97.8363 62.1829 100.344 60.3143" stroke="#6D83B0" stroke-width="2" stroke-miterlimit="10" stroke-linecap="round" stroke-linejoin="round"/>
<path d="M95.1095 75.9918C80.4839 72.0728 71.8044 57.0395 75.7233 42.4138C79.6422 27.7881 94.6756 19.1086 109.301 23.0276C123.927 26.9465 132.606 41.9799 128.688 56.6055C124.769 71.2312 109.735 79.9107 95.1095 75.9918Z" fill="#A8BDED" stroke="#6D83B0" stroke-width="2" stroke-miterlimit="10" stroke-linecap="round" stroke-linejoin="round"/>
<path opacity="0.2" d="M75.5858 41.715C74.5521 45.5729 74.3682 49.6382 75.0634 53.5743C76.7144 62.8945 83.664 71.5535 92.4614 75.1066C94.5715 75.9558 96.7955 76.5315 99.0598 76.7801C100.983 76.9913 103.567 77.3593 105.401 76.6414C105.635 76.5488 105.87 76.4292 106.019 76.226C107.007 74.8827 104.565 75.2216 100.419 73.4485C94.7809 71.0392 92.3699 68.9676 89.3999 66.5368C86.7297 64.3484 86.2497 62.4834 84.3913 59.5599C80.6405 53.6633 79.0456 46.2769 80.0422 39.3552C80.1893 38.3271 80.3949 37.3079 80.6634 36.3056C81.535 33.0529 82.954 30.1022 84.7958 27.5148C80.4545 31.0337 77.1432 35.9029 75.5858 41.715Z" fill="#7F94BF"/>
<path opacity="0.37" d="M123.69 39.0987C124.681 41.1749 125.354 43.5038 124.982 45.7755C124.871 46.4417 124.644 47.1376 124.11 47.5418C123.439 48.0513 122.463 47.9652 121.727 47.5587C120.991 47.1521 120.439 46.4906 119.888 45.8497C116.98 42.4558 113.736 39.3571 110.217 36.6035C109.256 35.8528 108.254 35.1046 107.613 34.068C106.972 33.0314 106.777 31.6145 107.489 30.6228C108.097 29.7655 109.208 29.428 110.247 29.2809C113.638 28.8044 115.757 29.7234 118.267 31.9297C120.522 33.9258 122.387 36.3713 123.69 39.0987Z" fill="#D9E6FF"/>
<path opacity="0.37" d="M45.262 52.4605C45.7783 51.0381 46.1229 49.3738 45.3598 48.0613C44.6491 46.8304 43.1057 46.2615 41.6947 46.3834C40.2775 46.5036 38.9819 47.2036 37.8219 48.0279C34.8417 50.1481 32.5268 53.1898 31.2817 56.6262C30.7638 58.0549 30.4273 59.6133 30.7744 61.0914C31.9226 65.9595 36.0881 63.5759 38.6519 61.5468C41.6201 59.1937 43.9608 56.0306 45.262 52.4605Z" fill="#D9E6FF"/>
<path d="M90.6557 31.9969C83.188 24.5909 69.1856 19.812 60.4454 21.5171C49.2959 23.6915 47.7454 36.7144 49.7871 45.9637C51.4922 53.6701 55.8029 62.041 62.6054 66.4581C66.4497 68.9543 71.2848 69.8715 75.7785 68.9609C80.2723 68.0502 84.363 65.3155 86.9281 61.5166" fill="#A8BDED"/>
<path d="M90.6557 31.9969C83.188 24.5909 69.1856 19.812 60.4454 21.5171C49.2959 23.6915 47.7454 36.7144 49.7871 45.9637C51.4922 53.6701 55.8029 62.041 62.6054 66.4581C66.4497 68.9543 71.2848 69.8715 75.7785 68.9609C80.2723 68.0502 84.363 65.3155 86.9281 61.5166" stroke="#6D83B0" stroke-width="2" stroke-miterlimit="10" stroke-linecap="round" stroke-linejoin="round"/>
<path opacity="0.2" d="M50.8069 49.0676C52.2889 53.8496 54.6679 58.3854 58.043 62.0531C60.5243 64.7449 64.5531 68.0405 68.3504 68.4431C58.6715 61.6743 52.3288 50.347 51.6312 38.5526C51.4965 36.3072 51.7854 34.0942 51.6964 31.8543C51.6296 30.0865 51.7835 27.2427 52.9867 25.8287C48.9735 30.5436 48.4856 37.4327 49.4412 43.2966C49.7681 45.2286 50.2215 47.1676 50.8069 49.0676Z" fill="#7F94BF"/>
<path d="M60.7348 47.0391C62.1992 54.5594 69.4841 59.4707 77.0107 58.0079C84.5374 56.5452 89.4424 49.2586 87.9796 41.732C86.5151 34.2116 75.4187 28.9006 67.8983 30.3651C60.378 31.8295 59.2703 39.5187 60.7348 47.0391Z" fill="#FEC4F9"/>
<path d="M82.5672 33.9172C78.943 31.8854 74.7155 30.8945 71.1641 31.5914C63.6438 33.0559 61.9803 41.5083 63.451 49.0303C64.0614 52.1734 65.6927 54.8604 67.9314 56.8183C64.2364 54.9499 61.4092 51.456 60.5552 47.0788C59.0908 39.5584 60.748 31.1044 68.2683 29.6399C72.8251 28.7462 78.4829 30.627 82.5672 33.9172Z" fill="#F2B6EF"/>
<path opacity="0.37" d="M64.033 22.5258C62.8153 22.4562 61.5663 22.4526 60.4165 22.8607C59.4992 23.1824 58.5907 23.9254 58.6093 24.8898C58.6243 25.6911 59.2827 26.3607 60.0315 26.6424C60.7803 26.9241 61.6022 26.9079 62.4017 26.8992C67.343 26.8652 72.2877 27.4739 77.0748 28.6958C77.8267 28.8905 78.6735 29.0836 79.3449 28.696C82.0192 27.1627 74.7511 24.7355 73.9153 24.4508C70.7309 23.3745 67.3938 22.7168 64.033 22.5258Z" fill="#D9E6FF"/>
<path d="M115.405 59.3771C116.21 56.3971 114.477 53.3855 111.494 52.566C108.448 51.7295 105.391 53.4574 104.593 56.4597C103.782 59.4855 105.541 62.477 108.608 63.2853C111.609 64.0893 114.596 62.3697 115.405 59.3771Z" fill="white" stroke="#6D83B0" stroke-width="2" stroke-miterlimit="10" stroke-linecap="round" stroke-linejoin="round"/>
<path d="M103.684 48.9061C104.214 47.8117 105.099 46.9274 106.452 46.6684C107.969 46.3789 109.363 46.6983 110.463 47.8376C110.745 48.1226 110.998 48.5147 110.83 48.963C110.668 49.3925 110.251 49.4361 109.869 49.4756C108.175 49.6434 106.518 49.9765 104.882 50.4365C104.516 50.5412 104.044 50.739 103.728 50.3031C103.442 49.9089 103.486 49.468 103.684 48.9061Z" fill="#7F94BF"/>
<path d="M109.21 60.9132C110.94 61.3903 112.712 60.399 113.168 58.697C113.616 57.0265 112.604 55.2824 110.913 54.8091C109.191 54.3274 107.415 55.3312 106.959 57.0332C106.515 58.718 107.518 60.4462 109.21 60.9132Z" fill="#2E3537"/>
<path d="M109.779 55.6876C109.278 55.5667 108.722 55.8771 108.587 56.3545C108.446 56.8572 108.794 57.4234 109.327 57.5527C109.826 57.6798 110.391 57.3648 110.511 56.8903C110.649 56.3734 110.312 55.8168 109.779 55.6876Z" fill="#959899"/>
<path d="M129.196 54.3773C127.708 60.6132 127.782 67.9771 130.179 73.984C132.293 79.28 138.155 82.3167 143.53 83.034C146.498 83.4306 149.71 83.4467 152.246 81.8493C153.188 81.2573 154.334 80.4359 155.278 81.0202C155.62 81.2333 155.84 81.5963 156.027 81.9573C157.229 84.2317 157.748 86.8572 157.509 89.4146C157.435 90.1922 157.221 91.0672 156.534 91.4371C155.737 91.8654 154.78 91.3791 153.903 91.1443C151.648 90.5333 149.477 91.6002 147.381 92.2615C145.095 92.9797 142.653 93.3186 140.267 93.4225C131.422 93.8024 121.007 89.8564 114.2 84.2487C110.613 81.2946 107.747 77.2903 106.826 72.7331" fill="#A8BDED"/>
<path d="M129.196 54.3773C127.708 60.6132 127.782 67.9771 130.179 73.984C132.293 79.28 138.155 82.3167 143.53 83.034C146.498 83.4306 149.71 83.4467 152.246 81.8493C153.188 81.2573 154.334 80.4359 155.278 81.0202C155.62 81.2333 155.84 81.5963 156.027 81.9573C157.229 84.2317 157.748 86.8572 157.509 89.4146C157.435 90.1922 157.221 91.0672 156.534 91.4371C155.737 91.8654 154.78 91.3791 153.903 91.1443C151.648 90.5333 149.477 91.6002 147.381 92.2615C145.095 92.9797 142.653 93.3186 140.267 93.4225C131.422 93.8024 121.007 89.8564 114.2 84.2487C110.613 81.2946 107.747 77.2903 106.826 72.7331" stroke="#6D83B0" stroke-width="2" stroke-miterlimit="10" stroke-linecap="round" stroke-linejoin="round"/>
<path opacity="0.2" d="M106.862 72.5739C107.783 77.1311 110.649 81.1353 114.235 84.0895C121.043 89.6972 131.456 93.6495 140.302 93.2632C142.688 93.1593 145.13 92.8205 147.417 92.1022C149.519 91.4426 151.69 90.3758 153.937 90.9914C154.814 91.2262 155.765 91.7108 156.568 91.2842C157.255 90.9142 157.469 90.0392 157.543 89.2616C157.594 88.7148 157.613 88.1658 157.592 87.6129C155.402 87.3909 153.285 88.3842 151.219 89.0333C148.66 89.8341 145.921 90.2217 143.249 90.3367C133.344 90.7637 121.679 86.3407 114.051 80.0607C111.372 77.8564 109.056 75.1278 107.504 72.0433L106.862 72.5739Z" fill="#7F94BF"/>
<path d="M141.08 82.5195C140.755 83.8849 140.054 85.1633 139.075 86.1711" stroke="#7F94BF" stroke-width="2" stroke-miterlimit="10" stroke-linecap="round" stroke-linejoin="round"/>
<path d="M136.824 80.9535C135.956 82.5789 134.616 83.9764 132.964 84.9728" stroke="#7F94BF" stroke-width="2" stroke-miterlimit="10" stroke-linecap="round" stroke-linejoin="round"/>
<path d="M132.45 77.8358C131.106 79.5229 129.295 80.8887 127.217 81.7845" stroke="#7F94BF" stroke-width="2" stroke-miterlimit="10" stroke-linecap="round" stroke-linejoin="round"/>
<path d="M129.976 73.4296C127.771 74.7507 125.468 76.1067 122.706 76.4544" stroke="#7F94BF" stroke-width="2" stroke-miterlimit="10" stroke-linecap="round" stroke-linejoin="round"/>
<path d="M108.614 77.9141C109.011 78.0205 109.424 77.942 109.757 77.7069C110.102 77.4547 110.311 77.0514 110.338 76.5991L110.537 72.9836C110.581 72.2118 110.068 71.4797 109.356 71.2889C109.072 71.2128 108.777 71.2285 108.505 71.3379L105.435 72.5558C104.981 72.7381 104.662 73.146 104.579 73.6575C104.484 74.24 104.708 74.8406 105.161 75.2186L108.032 77.6162C108.21 77.7585 108.406 77.8583 108.614 77.9141Z" fill="white"/>
<path d="M109.188 71.9131C109.043 71.8742 108.893 71.8812 108.749 71.9373L107.501 72.434L105.68 73.1553C105.106 73.3799 105.052 74.2639 105.587 74.7115L108.458 77.109C108.562 77.1978 108.675 77.2551 108.783 77.2838C109.218 77.4004 109.656 77.0991 109.686 76.5598L109.885 72.9443C109.915 72.4524 109.585 72.0195 109.188 71.9131ZM109.526 70.6523C110.534 70.9226 111.249 71.9382 111.189 73.0169L110.991 76.6324C110.958 77.2856 110.645 77.8708 110.142 78.236C109.655 78.5919 109.037 78.7034 108.451 78.5463C108.149 78.4652 107.871 78.3165 107.621 78.1144L104.75 75.7169C104.121 75.1902 103.809 74.3633 103.938 73.5534C104.055 72.8145 104.527 72.2114 105.198 71.952L107.02 71.2307L108.268 70.734C108.671 70.5651 109.103 70.5391 109.526 70.6523Z" fill="#6D83B0"/>
<path d="M109.715 69.744C110.067 70.0207 110.321 70.4603 110.394 70.919C110.577 72.0761 109.899 72.2863 109.044 72.2735C108.03 72.2517 107.042 72.6087 106.287 73.2846C105.737 73.7725 104.856 74.6647 104.058 73.836C103.725 73.4901 103.67 72.9414 103.637 72.4596" fill="#B4C5ED"/>
<path d="M109.715 69.744C110.067 70.0207 110.321 70.4603 110.394 70.919C110.577 72.0761 109.899 72.2863 109.044 72.2735C108.03 72.2517 107.042 72.6087 106.287 73.2846C105.737 73.7725 104.856 74.6647 104.058 73.836C103.725 73.4901 103.67 72.9414 103.637 72.4596" stroke="#6D83B0" stroke-width="2" stroke-miterlimit="10" stroke-linecap="round" stroke-linejoin="round"/>
</g>
<defs>
<clipPath id="clip0_229_15875">
<rect width="151.015" height="100" fill="white" transform="matrix(-0.965926 -0.258819 -0.258819 0.965926 171.751 39.0854)"/>
</clipPath>
</defs>
</svg>
