<svg width="51" height="53" viewBox="0 0 51 53" fill="none" xmlns="http://www.w3.org/2000/svg">
<g clip-path="url(#clip0_229_16168)">
<path d="M26.2122 51.9318C22.3963 51.9318 17.8623 49.6462 17.6318 43.2061C17.4282 37.4763 21.9461 30.1017 25.8156 29.8293C25.8853 29.824 25.9496 29.824 26.0193 29.824C29.7172 29.824 34.6854 36.9476 34.8837 42.528C35.0445 47.0296 32.5524 51.6755 26.6356 51.9264C26.4962 51.9264 26.3515 51.9318 26.2122 51.9318Z" fill="#FA9BCE"/>
<path d="M26.025 30.8868C28.8654 30.8868 33.6246 37.1827 33.8175 42.5601C34.0105 48.023 30.5483 50.6877 26.593 50.8532C26.4644 50.8585 26.3358 50.8585 26.2125 50.8585C22.402 50.8585 18.8916 48.4502 18.704 43.1635C18.5111 37.7007 22.9058 31.1004 25.8963 30.8868C25.9392 30.8868 25.9821 30.8868 26.025 30.8868ZM26.025 28.7507C25.9285 28.7507 25.8374 28.7561 25.7409 28.7614C21.314 29.0765 16.3352 36.9264 16.5603 43.2436C16.7961 49.9828 21.5767 52.9999 26.2125 52.9999C26.368 52.9999 26.5287 52.9946 26.6842 52.9892C31.4808 52.7863 36.2078 49.4648 35.9613 42.4853C35.7362 36.1948 30.35 28.7507 26.025 28.7507Z" fill="#D863A5"/>
<path d="M10.5956 44.1892C7.64261 44.1892 5.02722 42.6032 3.42477 39.8371C2.20818 37.7491 1.85982 35.4315 2.43328 33.3169C3.03889 31.0901 4.64135 29.1837 7.06379 27.8113C9.17004 26.6205 11.9462 25.9636 14.8939 25.9636C17.9005 25.9636 21.5717 26.7006 22.8633 28.7778C23.4475 29.723 23.5279 31.1168 23.0937 32.8149C22.2416 36.1364 19.4279 40.606 15.6817 42.726C13.956 43.6979 12.2517 44.1892 10.5956 44.1892Z" fill="#FA9BCE"/>
<path d="M14.8832 27.0315C18.1256 27.0315 21.0518 27.9073 21.9415 29.3384C23.4314 31.7361 19.9531 39.068 15.1404 41.7968C13.5165 42.7153 11.9837 43.1211 10.5903 43.1211C7.85699 43.1211 5.65964 41.5618 4.34658 39.303C2.36361 35.8907 2.77092 31.4691 7.58366 28.7403C9.68454 27.5549 12.3803 27.0315 14.8832 27.0315ZM14.8832 24.8955C11.7586 24.8955 8.78952 25.6004 6.52786 26.8873C3.85352 28.4039 2.0742 30.5346 1.39356 33.0444C0.74507 35.4368 1.13631 38.0427 2.49223 40.3817C4.29299 43.4842 7.24602 45.2625 10.5956 45.2625C12.4393 45.2625 14.3258 44.7231 16.2016 43.6604C20.205 41.3909 23.2117 36.6223 24.1227 33.0818C24.6372 31.0686 24.5193 29.4292 23.7637 28.217C21.8504 25.1358 16.4856 24.8955 14.8832 24.8955Z" fill="#D863A5"/>
<path d="M13.3929 28.1423C10.8043 28.1423 8.33896 27.6243 6.45245 26.6844C2.37395 24.6552 -0.568354 20.239 2.03631 14.9363C3.53158 11.8925 6.31311 10.0715 9.46979 10.0715C10.9651 10.0715 12.5193 10.4667 14.0896 11.2463C19.2828 13.8256 23.6883 21.3337 22.0804 24.8528C21.0461 27.1277 16.9676 28.1423 13.3929 28.1423Z" fill="#FA9BCE"/>
<path d="M9.46443 11.1394C10.7292 11.1394 12.1227 11.4652 13.6072 12.2021C18.5593 14.6639 22.3431 21.6967 21.0997 24.4148C20.3762 26.0008 17.0212 27.0688 13.3929 27.0688C11.158 27.0688 8.8213 26.663 6.92944 25.7231C1.97736 23.2614 1.2592 18.9413 2.99564 15.4008C4.21758 12.9284 6.50068 11.1394 9.46443 11.1394ZM9.46443 9.00342C5.88971 9.00342 2.74911 11.0433 1.07162 14.4663C-1.03998 18.7597 -0.343261 24.5002 5.97011 27.6402C8.58013 28.9378 11.4474 29.2102 13.3929 29.2102C17.0265 29.2102 21.7374 28.1849 23.0559 25.3013C24.8888 21.2749 20.2904 13.142 14.5666 10.2957C12.8462 9.4413 11.1312 9.00342 9.46443 9.00342Z" fill="#D863A5"/>
<path d="M24.9856 23.3679C21.2501 23.3679 16.4642 16.0254 16.4481 10.2688C16.4374 5.73507 19.0742 1.12661 25.0017 1.06787H25.1035C29.3803 1.06787 33.7 3.87674 33.7161 10.146C33.7321 15.9292 28.9784 23.2184 25.0982 23.3679H24.9856Z" fill="#FA9BCE"/>
<path d="M25.1031 2.13602C29.0262 2.13602 32.6331 4.67254 32.6438 10.1461C32.6599 15.6624 28.0508 22.1826 25.0549 22.3001C25.0335 22.3001 25.0067 22.3001 24.9852 22.3001C22.1501 22.3001 17.5357 15.7425 17.5196 10.2689C17.5035 4.75264 21.0568 2.1734 25.012 2.13602C25.0388 2.13602 25.071 2.13602 25.1031 2.13602ZM25.1031 0H24.9906C20.1939 0.0480605 15.3598 3.24141 15.3758 10.2743C15.3812 13.1953 16.4852 16.5542 18.3985 19.4965C19.3632 20.9811 21.9357 24.4361 24.9906 24.4361C25.0442 24.4361 25.0924 24.4361 25.146 24.4307C29.5782 24.2598 34.809 16.5114 34.7929 10.1354C34.7715 3.13461 29.9105 0 25.1031 0Z" fill="#D863A5"/>
<path d="M35.7523 27.2611C32.4026 27.2611 29.7765 26.3747 28.7261 24.8848C28.0883 23.977 27.9275 22.5886 28.2598 20.8691C28.9137 17.5049 31.4647 12.8804 35.077 10.5415C36.8938 9.36664 38.7321 8.76855 40.5382 8.76855C43.2929 8.76855 45.8226 10.205 47.4786 12.7095C48.8131 14.7227 49.3008 17.0189 48.8506 19.1603C48.379 21.4191 46.8891 23.4163 44.5524 24.9275C42.2586 26.4121 39.0483 27.2611 35.7523 27.2611Z" fill="#FA9BCE"/>
<path d="M40.5328 9.83646C43.0785 9.83646 45.2062 11.2249 46.5782 13.2968C48.7595 16.5863 48.6094 21.0239 43.9628 24.0303C41.6583 25.5202 38.5284 26.193 35.7469 26.193C32.9279 26.193 30.4679 25.4988 29.5997 24.2706C27.9758 21.9637 31.0092 14.4396 35.6558 11.4385C37.3815 10.3224 39.0322 9.83646 40.5328 9.83646ZM40.5328 7.70044C38.5177 7.70044 36.4811 8.35727 34.4874 9.64422C30.6287 12.1434 27.9007 17.0776 27.204 20.6661C26.8074 22.706 27.0218 24.3347 27.8471 25.4988C29.6479 28.0567 33.9729 28.3291 35.7469 28.3291C39.2466 28.3291 42.6659 27.4159 45.1312 25.8192C47.7144 24.1478 49.3598 21.921 49.8957 19.3738C50.4048 16.9494 49.8635 14.3702 48.3683 12.1167C46.5086 9.31313 43.652 7.70044 40.5328 7.70044Z" fill="#D863A5"/>
<path d="M41.4929 43.3556C39.8207 43.3556 38.1057 42.8483 36.3961 41.8444C31.3958 38.9127 27.5209 31.1216 29.3699 27.7146C30.4579 25.7068 33.9843 24.9912 36.9213 24.9912C39.9654 24.9912 42.9453 25.7121 45.089 26.9724C49.0174 29.2739 51.6489 33.8877 48.6798 38.9982C47.0613 41.7643 44.4459 43.3556 41.4929 43.3556Z" fill="#FA9BCE"/>
<path d="M36.9155 26.0594C39.5148 26.0594 42.3714 26.6201 44.5366 27.891C49.3065 30.6892 49.7245 35.0467 47.7415 38.459C46.4338 40.7125 44.2204 42.2878 41.4925 42.2878C40.0937 42.2878 38.5555 41.8712 36.937 40.9207C32.1671 38.1225 28.8818 30.8494 30.3074 28.2221C31.0416 26.871 33.791 26.0594 36.9155 26.0594ZM36.9155 23.9233C35.3399 23.9233 30.077 24.1583 28.4209 27.2075C26.3093 31.095 30.3342 39.5323 35.849 42.763C37.7248 43.8631 39.6274 44.4238 41.4925 44.4238C44.7885 44.4238 47.8166 42.5975 49.6012 39.5323C52.0076 35.3938 51.7075 29.6212 45.6299 26.054C42.4732 24.201 38.8128 23.9233 36.9155 23.9233Z" fill="#D863A5"/>
<path d="M26.2612 37.6954C20.3819 37.6954 15.6013 32.932 15.6013 27.074C15.6013 21.216 20.3819 16.4526 26.2612 16.4526C32.1404 16.4526 36.921 21.216 36.921 27.074C36.921 32.932 32.1404 37.6954 26.2612 37.6954Z" fill="#FFDBEF"/>
<path d="M26.2608 17.5208C31.5558 17.5208 35.8487 21.7982 35.8487 27.0741C35.8487 32.3501 31.5558 36.6275 26.2608 36.6275C20.9657 36.6275 16.6728 32.3501 16.6728 27.0741C16.6728 21.7982 20.9657 17.5208 26.2608 17.5208ZM26.2608 15.3848C19.792 15.3848 14.5291 20.6287 14.5291 27.0741C14.5291 33.5196 19.792 38.7635 26.2608 38.7635C32.7296 38.7635 37.9925 33.5196 37.9925 27.0741C37.9925 20.6287 32.7296 15.3848 26.2608 15.3848Z" fill="#D863A5"/>
</g>
<defs>
<clipPath id="clip0_229_16168">
<rect width="51" height="53" fill="white"/>
</clipPath>
</defs>
</svg>
