<svg width="159" height="120" viewBox="0 0 159 120" fill="none" xmlns="http://www.w3.org/2000/svg">
<path d="M135.38 1.34928C138.272 -2.28304 143.926 2.1743 141.03 5.81413C137.853 9.8023 135.343 14.6317 133.944 19.5182C132.884 23.2159 127.199 22.6927 127.785 18.6397C128.712 12.1484 131.279 6.49817 135.38 1.34928Z" fill="#7FCC4E"/>
<path fill-rule="evenodd" clip-rule="evenodd" d="M54.9178 42.0484C58.8981 39.9903 63.7382 39.5541 68.1238 40.1802C70.0879 40.4622 72.0371 41.3623 73.9695 42.2547C76.3596 43.3584 78.7241 44.4504 81.0599 44.3466C84.219 44.201 87.1303 41.3487 90.0125 38.525C91.6914 36.8802 93.3603 35.2451 95.0627 34.1601C98.9542 31.6746 103.323 30.1843 107.938 30.0834C117.06 29.8685 123.939 35.2145 126.363 43.8199C129.454 54.7594 125.59 66.2198 120.485 75.9564C115.27 85.9159 109.273 95.5497 103.296 105.152C100.701 109.322 98.109 113.487 95.5865 117.669C92.7622 122.348 84.8702 119.312 87.3052 114.468C87.1271 114.401 86.9476 114.329 86.7699 114.236C68.3118 104.806 48.426 82.9724 45.7749 61.7493C44.7864 53.8349 47.4182 45.9208 54.9178 42.0484ZM58.2784 67.8055C64.8459 84.1669 77.9072 95.8372 91.4708 106.511C91.5828 106.6 91.6901 106.696 91.7897 106.788C93.0029 104.764 94.2349 102.737 95.4711 100.702C102.379 89.3314 109.415 77.7514 113.991 65.6252C117.077 57.4688 119.334 34.7044 103.071 41.4483C99.5693 42.8995 97.0558 45.7064 94.5658 48.4871C91.971 51.3848 89.4017 54.254 85.7658 55.531C81.815 56.9195 78.5973 55.3419 75.2859 53.7186C74.4674 53.3173 73.643 52.9131 72.8005 52.5503C67.5613 50.3008 58.2715 46.7884 55.8462 56.1974C54.9738 59.5994 56.7411 63.9873 58.0467 67.229C58.1259 67.4255 58.2033 67.6179 58.2784 67.8055Z" fill="#7FCC4E"/>
<path d="M4.45934 39.9468C2.42458 38.1037 4.31614 34.875 6.96812 35.8224C11.6352 37.4917 15.9634 40.2604 20.2148 42.9799C21.6742 43.9134 23.1245 44.8412 24.5764 45.7167C27.8791 47.7077 24.0719 52.3193 20.8068 50.377C19.4153 49.5487 17.9805 48.7439 16.5369 47.9342C12.2949 45.5548 7.97684 43.1327 4.45934 39.9468Z" fill="#7FCC4E"/>
<path d="M19.4453 62.0638C13.7491 61.0268 8.22156 60.0205 2.36621 60.0971C0.529657 60.1224 0.0379446 63.1538 1.82234 63.6725C7.46646 65.3116 13.0854 65.816 18.8855 66.3366L18.8867 66.3367C19.4894 66.3908 20.094 66.4451 20.7008 66.5009C23.3735 66.745 23.9782 62.8797 21.3148 62.4027C20.6899 62.2904 20.0675 62.1771 19.4472 62.0642L19.4453 62.0638Z" fill="#7FCC4E"/>
<path d="M157.275 18.2355C161.28 14.4547 156.031 9.13886 152.117 12.8918C151.253 13.722 150.341 14.5458 149.421 15.3777C146.882 17.6728 144.275 20.0293 142.409 22.752C140.28 25.8575 143.713 29.432 146.938 27.444C149.771 25.7023 152.26 23.2091 154.682 20.7827C155.55 19.9125 156.41 19.0508 157.275 18.2355Z" fill="#7FCC4E"/>
</svg>
