<svg width="97" height="139" viewBox="0 0 97 139" fill="none" xmlns="http://www.w3.org/2000/svg">
<rect x="0.333313" y="43" width="96" height="96" rx="48" fill="#F5F6F6"/>
<g clip-path="url(#clip0_229_16340)">
<path d="M30.3623 81.7721C30.3623 81.7721 9.56467 90.483 13.2788 99.2754C16.9929 108.068 29.2456 115.217 29.2456 115.217C29.2456 115.217 27.6646 118.372 28.6559 121.137C29.6471 123.909 32.8342 123.063 34.6285 121.921C36.4228 120.78 38.0038 118.196 38.4054 113.963C38.8069 109.736 34.9987 102.298 34.9987 102.298L48.7383 96.654L63.5947 103.709C63.5947 103.709 56.6496 109.868 56.9695 113.304C57.2832 116.741 59.523 119.814 61.4992 120.673C63.4755 121.532 65.8909 121.175 66.7567 119.701C67.6225 118.227 66.7567 114.471 66.7567 114.471C66.7567 114.471 78.9279 109.749 78.0182 100.774C77.1085 91.8062 60.439 78.1284 60.439 78.1284L30.3623 81.7721Z" fill="#579CA3"/>
<path d="M35.1241 102.148C34.6411 100.712 33.8255 99.3882 32.7652 98.3096" stroke="black" stroke-width="0.5" stroke-miterlimit="10" stroke-linecap="round" stroke-linejoin="round"/>
<path d="M63.8648 103.314C64.9753 102.123 66.3555 101.188 67.8738 100.599" stroke="black" stroke-width="0.5" stroke-miterlimit="10" stroke-linecap="round" stroke-linejoin="round"/>
<path d="M29.4342 114.96C30.7266 115.43 32.2699 115.129 33.28 114.195" stroke="black" stroke-width="0.5" stroke-miterlimit="10" stroke-linecap="round" stroke-linejoin="round"/>
<path d="M66.2673 114.22C64.9561 114.728 63.3626 114.396 62.3588 113.417" stroke="black" stroke-width="0.5" stroke-miterlimit="10" stroke-linecap="round" stroke-linejoin="round"/>
<path d="M56.11 46.6462C56.11 46.6462 52.6155 55.5014 56.0096 59.2642C59.4038 63.027 65.1318 70.3331 70.3955 71.8257C73.3881 72.6786 83.8089 70.8725 86.676 69.1416C89.5431 67.4107 89.6184 61.8731 85.9796 60.0356C82.3408 58.1981 73.0995 58.3611 73.0995 58.3611C73.0995 58.3611 70.7531 53.2625 67.0014 49.9324C64.2095 47.4552 56.11 46.6462 56.11 46.6462Z" fill="#BFCC73"/>
<path d="M73.112 58.7688C72.3278 60.368 70.7907 61.5784 69.0529 61.9609" stroke="black" stroke-width="0.5" stroke-miterlimit="10" stroke-linecap="round" stroke-linejoin="round"/>
<path d="M94.581 66.0371C94.901 65.7675 95.1394 65.3661 95.1017 64.9459C95.5033 64.7202 95.9173 64.4881 96.231 64.1495C96.551 63.8108 96.7643 63.3467 96.689 62.8889C96.6702 62.7949 96.6451 62.6945 96.6702 62.5942C96.689 62.5126 96.7455 62.4437 96.7831 62.3684C96.9149 62.0925 96.8082 61.7538 96.5949 61.5343C96.3816 61.3148 96.0867 61.1957 95.7981 61.1016C96.0616 60.2299 94.374 60.0856 93.8783 60.1985C93.2635 60.3428 92.7114 60.6751 92.1342 60.9134C91.7703 61.064 91.2935 61.2521 90.892 61.2709C90.3838 61.2897 88.6209 61.1267 89.4302 60.1107C89.6749 59.8034 90.0952 59.7093 90.4717 59.5965C90.8481 59.4836 91.2622 59.2766 91.3563 58.8941C91.4441 58.5303 91.1931 58.1478 90.8606 57.9785C90.5281 57.8091 90.1329 57.8029 89.7627 57.8154C88.0186 57.8718 86.2808 58.292 84.6998 59.0258C83.0748 59.7783 82.1024 60.7755 81.4436 62.4625C81.1237 63.2652 81.1111 63.7356 81.4248 64.5696C81.7322 65.3975 82.2216 66.1563 82.8678 66.7646C84.43 68.2384 86.4376 68.4892 88.4766 68.1694C89.5745 67.9938 90.6222 67.7806 91.6637 67.3604C92.8996 66.8587 92.2597 67.1284 93.4956 66.6266C93.8658 66.4636 94.261 66.3068 94.581 66.0371Z" fill="#F2B27E"/>
<path d="M95.0394 64.8896C94.4183 64.6576 93.7344 64.9273 93.1196 65.1844C91.8084 65.7363 92.3416 65.4729 90.9426 65.73" stroke="#333333" stroke-width="0.5" stroke-miterlimit="10" stroke-linecap="round" stroke-linejoin="round"/>
<path d="M96.5384 62.4562C95.5158 62.2743 94.4994 62.7447 93.5458 63.1649C92.084 63.8046 92.4542 63.5788 90.9171 64.0052" stroke="#333333" stroke-width="0.5" stroke-miterlimit="10" stroke-linecap="round" stroke-linejoin="round"/>
<path d="M95.5534 61.0828C94.7567 61.089 94.0163 61.4653 93.2886 61.7852C91.9334 62.3809 92.3726 62.0611 90.9171 62.3245" stroke="#333333" stroke-width="0.5" stroke-miterlimit="10" stroke-linecap="round" stroke-linejoin="round"/>
<path d="M53.099 87.4917C43.8953 89.3292 38.3555 88.1314 34.4219 86.6074C32.4393 85.8423 28.0477 83.6599 27.9975 81.0635C27.9724 79.8782 28.4743 78.7682 28.9009 77.6707C30.2247 74.2215 30.8458 71.0356 30.7015 67.3167C30.5823 64.1748 29.9235 61.0705 29.8671 57.9223C29.8169 55.3949 30.1996 52.7233 31.4857 50.5534C32.5774 48.7159 34.2776 48.5278 36.1472 47.9947C40.4573 46.7655 45.0246 45.6241 49.5166 45.8248C52.1454 45.944 54.7615 46.3391 57.3338 46.8909C59.0528 47.261 61.28 47.3488 62.3278 48.948C64.9502 52.9303 64.2475 59.4148 63.7519 63.9114C63.1747 69.1041 62.8171 75.7454 64.5236 80.6496C64.9377 81.8537 62.3027 85.6542 53.099 87.4917Z" fill="#BFCC73"/>
<path d="M21.5414 91.3986C22.0182 92.6842 22.106 92.4522 22.5765 93.7378C22.7271 94.1392 22.8777 94.5531 23.1475 94.8918C23.4172 95.2304 23.8188 95.4875 24.2516 95.4624C24.4712 95.8826 24.6971 96.3153 25.0359 96.654C25.3747 96.9927 25.8452 97.2247 26.3157 97.162C26.4161 97.1494 26.5165 97.1244 26.6169 97.1494C26.6984 97.1745 26.7674 97.231 26.849 97.2686C27.125 97.4128 27.4827 97.3125 27.7148 97.0993C27.9469 96.886 28.0787 96.5913 28.1853 96.2965C28.43 96.3781 28.706 96.215 28.8566 96.0081C29.0637 95.7196 29.1138 95.3433 29.0699 94.9921C29.026 94.6409 28.9005 94.3023 28.7688 93.9761C28.5241 93.3302 28.0347 92.5463 27.9281 92.0195C27.7085 90.9283 27.4199 89.8057 28.0159 88.7709C28.2292 88.4009 28.6245 88.0497 29.026 88.1689C29.4714 88.3006 29.5844 88.865 29.6597 89.3228C29.7726 89.9687 29.9734 90.5959 30.2682 91.1791C30.469 91.5805 30.8015 92.0132 31.2469 91.9818C31.7677 91.9442 32.0123 91.3296 32.1127 90.8154C32.3072 89.8308 32.577 88.5702 32.3511 87.5919C32.0876 86.4631 31.5732 85.3342 31.0901 84.2932C30.5819 83.202 29.9796 82.1296 29.0887 81.3268C28.1979 80.5241 26.9619 80.0224 25.7825 80.2419C24.5151 80.4802 23.5302 81.4899 22.8275 82.5748C21.2653 85.0081 20.5125 88.6079 21.5414 91.3986Z" fill="#F2B27E"/>
<path d="M28.0975 96.146C26.9494 94.3712 26.4349 93.951 25.8076 91.9316" stroke="#333333" stroke-width="0.5" stroke-miterlimit="10" stroke-linecap="round" stroke-linejoin="round"/>
<path d="M26.4977 96.9362C25.3621 94.8918 24.8665 94.2207 24.2642 91.9568" stroke="#333333" stroke-width="0.5" stroke-miterlimit="10" stroke-linecap="round" stroke-linejoin="round"/>
<path d="M24.2579 95.1678C23.4737 93.5309 23.2102 93.3428 22.7146 91.5994" stroke="#333333" stroke-width="0.5" stroke-miterlimit="10" stroke-linecap="round" stroke-linejoin="round"/>
<path d="M36.1405 48.001C36.1405 48.001 29.2017 48.5529 25.933 52.4285C22.6644 56.3042 15.9514 65.197 16.0392 68.3076C16.1271 71.4182 18.8185 81.4649 20.9265 84.0612C23.0345 86.6638 30.6823 85.4284 32.0124 81.5715C33.3361 77.7146 31.6861 68.9536 31.6861 68.9536C31.6861 68.9536 37.6149 64.7768 39.0704 61.3401C40.5259 57.9034 36.1405 48.001 36.1405 48.001Z" fill="#BFCC73"/>
<path d="M30.6831 83.4528C31.2979 82.9197 31.7685 82.2926 32.0132 81.5714C33.3369 77.7145 31.6869 68.9534 31.6869 68.9534C31.6869 68.9534 34.5415 66.9403 36.775 64.5635" stroke="black" stroke-width="0.5" stroke-miterlimit="10" stroke-linecap="round" stroke-linejoin="round"/>
<path d="M30.9524 69.2735C29.0326 69.5807 27.0125 69.2546 25.2935 68.3516" stroke="black" stroke-width="0.5" stroke-miterlimit="10" stroke-linecap="round" stroke-linejoin="round"/>
<path d="M34.1332 49.1799C35.3315 50.2774 36.2224 51.701 36.6867 53.2626" stroke="black" stroke-width="0.5" stroke-miterlimit="10" stroke-linecap="round" stroke-linejoin="round"/>
<path d="M76.243 27.6065C75.7285 24.2639 75.2015 20.8899 73.9656 17.7793C72.7234 14.6687 70.6781 11.809 67.8298 10.3478C69.6241 10.8369 71.5941 10.5547 73.2127 9.5764C70.9165 9.0935 69.0093 7.48177 67.0958 6.04563C63.0868 3.03538 58.5508 0.595824 53.6636 0.0878448C49.9557 -0.300979 46.0158 0.583281 42.9479 2.80961C40.2125 2.03823 37.1634 2.52113 34.7668 4.17676C33.8697 4.79763 33.0604 5.57528 32.1256 6.12716C31.1908 6.68531 30.0615 7.01142 29.0514 6.64768C29.9046 7.81415 31.3664 8.42247 32.7341 8.1967C29.089 9.50114 26.2721 13.1636 25.789 17.24C25.5569 19.1528 25.8078 21.0906 25.7388 23.0159C25.6761 24.9412 25.2369 26.9857 23.9194 28.3152C24.7727 28.6977 25.7451 28.7855 26.6485 28.5598C26.1466 31.2753 27.3763 34.1036 29.2835 35.96C31.1908 37.81 33.6815 38.826 36.1722 39.5221C41.323 40.9582 46.9318 41.1715 51.8881 39.0329C53.9961 38.1236 55.9974 36.7941 58.2497 36.4554C60.5585 36.1105 62.8986 36.8505 65.2199 36.5871C69.5112 36.0979 73.1061 31.7017 72.9931 27.086C74.0785 27.2491 75.1639 27.4309 76.243 27.6065Z" fill="#9A5B2F"/>
<path d="M55.2135 51.3623C54.5548 50.7164 54.0466 49.9952 53.7768 49.1799C52.704 45.9251 55.1257 43.8806 55.1257 43.8806L43.2556 37.741C43.2556 37.741 43.2995 45.3481 41.11 48.0573C41.11 48.0573 43.1678 52.1525 48.5695 53.2876C53.965 54.4228 56.0793 52.2152 55.2135 51.3623Z" fill="#EEB07E"/>
<mask id="mask0_229_16340" style="mask-type:luminance" maskUnits="userSpaceOnUse" x="42" y="40" width="19" height="14">
<path d="M60.0282 46.0086C59.1081 45.9382 58.2548 45.7133 57.5232 45.2631C54.606 43.4628 55.1422 40.3399 55.1422 40.3399L42.1052 43.2804C42.1052 43.2804 47.0383 49.0733 47.1079 52.5554C47.1079 52.5554 51.3201 54.3649 56.1845 51.7574C61.044 49.1539 61.24 46.1041 60.0282 46.0086Z" fill="white"/>
</mask>
<g mask="url(#mask0_229_16340)">
<path opacity="0.7" d="M56.2745 49.2147C59.7689 46.2759 59.9162 40.7029 56.6034 36.767C53.2907 32.8312 47.7724 32.0229 44.2781 34.9617C40.7837 37.9006 40.6364 43.4736 43.9492 47.4094C47.2619 51.3453 52.7802 52.1535 56.2745 49.2147Z" fill="#EEB07E"/>
</g>
<path d="M44.3528 7.62612C40.4254 9.59533 37.5144 12.9254 35.7953 17.1084C35.7075 17.3279 35.6197 17.5474 35.5318 17.7732C33.4301 23.3296 33.3486 29.6072 35.2056 35.2451C35.9271 37.4339 36.5733 39.4407 38.0665 41.2406C41.3351 45.1915 45.1245 48.2582 52.308 49.5438C59.4978 50.8295 62.986 47.5872 64.5482 45.7246C66.788 43.053 67.3024 40.1368 67.4467 36.8632C67.6537 32.1847 69.4606 27.7509 69.768 23.0725C70.0566 18.6261 68.3627 14.0919 65.2258 10.9249C64.291 9.98415 63.2182 9.18142 62.0763 8.51665C57.6847 5.9454 51.9567 5.01097 47.0506 6.53491C46.1095 6.83593 45.2061 7.1934 44.3528 7.62612Z" fill="#EEB07E"/>
<mask id="mask1_229_16340" style="mask-type:luminance" maskUnits="userSpaceOnUse" x="33" y="5" width="37" height="45">
<path d="M44.3528 7.62612C40.4254 9.59533 37.5144 12.9254 35.7953 17.1084C35.7075 17.3279 35.6197 17.5474 35.5318 17.7732C33.4301 23.3296 33.3486 29.6072 35.2056 35.2451C35.9271 37.4339 36.5733 39.4407 38.0665 41.2406C41.3351 45.1915 45.1245 48.2582 52.308 49.5438C59.4978 50.8295 62.986 47.5872 64.5482 45.7246C66.788 43.053 67.3024 40.1368 67.4467 36.8632C67.6537 32.1847 69.4606 27.7509 69.768 23.0725C70.0566 18.6261 68.3627 14.0919 65.2258 10.9249C64.291 9.98415 63.2182 9.18142 62.0763 8.51665C57.6847 5.9454 51.9567 5.01097 47.0506 6.53491C46.1095 6.83593 45.2061 7.1934 44.3528 7.62612Z" fill="white"/>
</mask>
<g mask="url(#mask1_229_16340)">
<path d="M50.2439 39.516C49.2464 41.8928 46.511 43.0154 44.1332 42.0182C41.7555 41.0211 40.6324 38.2868 41.63 35.9099C42.6275 33.5331 45.3629 32.4105 47.7407 33.4077C50.1247 34.3985 51.2414 37.1391 50.2439 39.516Z" fill="url(#paint0_radial_229_16340)"/>
</g>
<mask id="mask2_229_16340" style="mask-type:luminance" maskUnits="userSpaceOnUse" x="33" y="5" width="37" height="45">
<path d="M44.3528 7.62612C40.4254 9.59533 37.5144 12.9254 35.7953 17.1084C35.7075 17.3279 35.6197 17.5474 35.5318 17.7732C33.4301 23.3296 33.3486 29.6072 35.2056 35.2451C35.9271 37.4339 36.5733 39.4407 38.0665 41.2406C41.3351 45.1915 45.1245 48.2582 52.308 49.5438C59.4978 50.8295 62.986 47.5872 64.5482 45.7246C66.788 43.053 67.3024 40.1368 67.4467 36.8632C67.6537 32.1847 69.4606 27.7509 69.768 23.0725C70.0566 18.6261 68.3627 14.0919 65.2258 10.9249C64.291 9.98415 63.2182 9.18142 62.0763 8.51665C57.6847 5.9454 51.9567 5.01097 47.0506 6.53491C46.1095 6.83593 45.2061 7.1934 44.3528 7.62612Z" fill="white"/>
</mask>
<g mask="url(#mask2_229_16340)">
<path d="M69.8554 41.8238C68.8578 44.2007 66.1224 45.3232 63.7447 44.3261C61.3669 43.3289 60.2439 40.5946 61.2414 38.2178C62.239 35.841 64.9743 34.7184 67.3521 35.7155C69.7299 36.7127 70.8466 39.447 69.8554 41.8238Z" fill="url(#paint1_radial_229_16340)"/>
</g>
<path d="M52.917 31.4509C52.7664 32.7491 51.7124 33.6898 50.5643 33.5518C49.4162 33.4138 48.6131 32.2536 48.7637 30.9617C48.9143 29.6636 49.9683 28.7229 51.1164 28.8608C52.2645 28.9925 53.0738 30.1527 52.917 31.4509Z" fill="black"/>
<path d="M65.3772 32.9184C65.2266 34.2165 64.2667 35.1698 63.2441 35.0443C62.2215 34.9252 61.5125 33.7775 61.6631 32.4794C61.8137 31.1812 62.7736 30.2279 63.7962 30.3534C64.8251 30.4725 65.5278 31.6202 65.3772 32.9184Z" fill="black"/>
<path d="M58.4379 33.6082C58.532 34.5426 58.8896 35.4457 59.4982 36.1606C59.8119 36.5306 60.2009 36.8693 60.3326 37.3396C60.4832 37.8413 60.295 38.3995 59.9687 38.8071C59.6425 39.2147 59.1845 39.497 58.7202 39.7478" stroke="black" stroke-width="0.5" stroke-miterlimit="10" stroke-linecap="round" stroke-linejoin="round"/>
<path d="M51.9943 22.9657C50.4886 23.0158 48.23 23.7998 46.5361 25.0666C46.4169 25.1544 46.511 25.3425 46.6553 25.3112C47.5901 25.0729 49.4283 24.6652 51.3355 24.6276C53.3369 24.59 54.6167 24.8032 55.1249 24.9098C55.2316 24.9349 55.3257 24.822 55.2818 24.7217C54.6418 23.2479 53.5753 22.9155 51.9943 22.9657Z" fill="#9A5B2F"/>
<path d="M64.4792 24.4959C65.5708 24.8095 67.0326 25.9697 67.9737 27.4999C68.0427 27.6065 67.9298 27.7758 67.8357 27.7131C67.2083 27.3118 65.9598 26.5906 64.5796 26.2205C63.1241 25.8255 62.1453 25.8129 61.7501 25.8255C61.6685 25.8317 61.6246 25.7063 61.6811 25.6185C62.4841 24.3015 63.3374 24.1698 64.4792 24.4959Z" fill="#9A5B2F"/>
<path d="M49.1908 28.9047C49.9437 28.5661 50.8534 28.6351 51.5748 29.0364C52.2963 29.4315 52.8296 30.1402 53.068 30.9304" stroke="black" stroke-width="0.5" stroke-miterlimit="10" stroke-linecap="round" stroke-linejoin="round"/>
<path d="M62.4155 30.391C63.0617 30.1903 63.7644 30.1966 64.3541 30.5164C64.9439 30.8363 65.3956 31.4822 65.4521 32.2222" stroke="black" stroke-width="0.5" stroke-miterlimit="10" stroke-linecap="round" stroke-linejoin="round"/>
<path d="M52.6908 45.4109C53.2429 45.9816 54.0397 46.314 54.8364 46.3014" stroke="black" stroke-width="0.5" stroke-miterlimit="10" stroke-linecap="round" stroke-linejoin="round"/>
<path d="M57.3149 43.7051C56.6436 44.9217 55.1756 45.3983 54.0274 44.7649C52.8793 44.1378 52.4966 42.639 53.1679 41.4223C53.8392 40.2057 55.8908 39.9924 57.0389 40.6196C58.1807 41.253 57.9862 42.4884 57.3149 43.7051Z" fill="black"/>
<mask id="mask3_229_16340" style="mask-type:luminance" maskUnits="userSpaceOnUse" x="52" y="40" width="6" height="6">
<path d="M57.3149 43.7051C56.6436 44.9217 55.1756 45.3983 54.0274 44.7649C52.8793 44.1378 52.4966 42.639 53.1679 41.4223C53.8392 40.2057 55.8908 39.9924 57.0389 40.6196C58.1807 41.253 57.9862 42.4884 57.3149 43.7051Z" fill="white"/>
</mask>
<g mask="url(#mask3_229_16340)">
<path d="M57.2835 46.7656C56.6248 48.5153 52.8605 48.7097 48.8766 47.2108C44.8928 45.7057 42.2013 43.0717 42.8601 41.322C43.5188 39.5723 47.2831 39.3779 51.267 40.8768C55.2508 42.3819 57.9486 45.0158 57.2835 46.7656Z" fill="#D6714C"/>
</g>
<mask id="mask4_229_16340" style="mask-type:luminance" maskUnits="userSpaceOnUse" x="52" y="40" width="6" height="6">
<path d="M57.3149 43.7051C56.6436 44.9217 55.1756 45.3983 54.0274 44.7649C52.8793 44.1378 52.4966 42.639 53.1679 41.4223C53.8392 40.2057 55.8908 39.9924 57.0389 40.6196C58.1807 41.253 57.9862 42.4884 57.3149 43.7051Z" fill="white"/>
</mask>
<g mask="url(#mask4_229_16340)">
<path d="M48.2426 39.5848C48.2426 39.5848 55.2943 41.1276 57.6533 41.2656C60.0122 41.4035 61.5618 38.7131 61.5618 38.7131L49.2401 36.5056L48.2426 39.5848Z" fill="white"/>
</g>
<path d="M35.4943 31.9275C37.8784 31.4696 39.4217 29.143 40.3314 26.8916C41.2411 24.6401 41.8685 22.1567 43.575 20.4258C43.0229 22.0501 42.4708 23.6806 41.925 25.3049C46.0594 22.8089 49.0269 18.4566 49.8488 13.6966C51.3357 16.387 53.9142 18.4566 56.8629 19.3346C55.7462 18.3939 54.9808 17.0455 54.7424 15.6031C57.026 18.074 60.3261 19.2656 63.3877 20.6578C66.4493 22.0563 69.5925 23.9691 70.8221 27.0922C70.8221 27.0922 77.8802 4.97319 51.6807 4.11401C26.8302 4.61572 32.6335 32.7239 32.6335 32.7239L35.4943 31.9275Z" fill="#9A5B2F"/>
<path d="M36.6615 29.9457C38.0167 32.7239 38.1359 35.3453 36.1659 36.3111C34.1959 37.2706 30.8834 36.2108 29.5219 33.4326C28.1668 30.6544 28.6624 27.6253 30.6324 26.6595C32.6087 25.6937 35.3064 27.1675 36.6615 29.9457Z" fill="#EEB07E"/>
<path d="M29.2777 28.0078C29.2777 28.0078 32.9353 28.2022 36.1413 34.2353" stroke="black" stroke-width="0.5" stroke-miterlimit="10" stroke-linecap="round" stroke-linejoin="round"/>
<path d="M40.9403 13.0884C43.3557 12.0724 45.5453 10.4607 48.105 9.90253C51.2481 9.21895 54.5105 10.2224 57.4529 11.5205C60.3954 12.8187 63.2499 14.4304 66.4057 15.0639C68.4384 15.4715 70.5589 15.4401 72.5854 14.9949C71.3871 13.0319 69.8061 11.3575 67.8361 10.3541C69.6304 10.8432 71.6004 10.561 73.219 9.58269C71.4561 9.21268 69.919 8.17164 68.4321 7.05534C65.8912 7.96469 63.0743 8.23435 60.3577 8.19672C56.1731 8.13401 52.001 7.44416 47.8289 7.73892C45.8589 7.87689 43.9141 8.23435 41.9441 8.30334C39.9741 8.37232 37.9289 8.12774 36.2224 7.14941C35.2688 6.6038 34.4469 5.78853 33.9073 4.84155C33.3302 5.29936 32.7655 5.76344 32.1444 6.13345C31.2096 6.6916 30.0803 7.01771 29.0702 6.65397C29.9235 7.82044 31.3853 8.42876 32.753 8.203C30.6387 8.96183 28.8005 10.5171 27.5394 12.4863C28.4993 13.1009 29.5847 13.5148 30.6889 13.8096C34.0516 14.6938 37.7155 14.4367 40.9403 13.0884Z" fill="#5E4028"/>
<path d="M43.2173 3.34912C43.5687 4.69119 44.4031 5.90783 45.5387 6.71056" stroke="black" stroke-width="0.5" stroke-miterlimit="10" stroke-linecap="round" stroke-linejoin="round"/>
<path d="M44.5163 4.05134C45.4511 3.59981 46.4549 3.29251 47.4838 3.15454" stroke="black" stroke-width="0.5" stroke-miterlimit="10" stroke-linecap="round" stroke-linejoin="round"/>
<path d="M39.4283 5.36822C40.5262 4.92922 41.737 4.79125 42.904 4.96685C42.2578 5.02956 41.4547 6.20231 41.1097 6.75419" stroke="black" stroke-width="0.5" stroke-miterlimit="10" stroke-linecap="round" stroke-linejoin="round"/>
<path d="M63.4312 66.9906C63.9958 63.9113 64.5604 60.8258 65.1314 57.7466" stroke="black" stroke-width="0.5" stroke-miterlimit="10" stroke-linecap="round" stroke-linejoin="round"/>
<path d="M94.1055 61.83C96.3261 59.0194 95.8469 54.9415 93.0351 52.7218C90.2234 50.5021 86.1439 50.9811 83.9233 53.7918C81.7028 56.6024 82.182 60.6803 84.9937 62.9C87.8054 65.1197 91.8849 64.6407 94.1055 61.83Z" fill="#DBA13A"/>
<path d="M88.6651 58.5556C86.0866 57.3452 84.4303 55.1941 84.3738 53.25C83.9786 53.5573 83.6649 53.9398 83.4516 54.3914C82.4164 56.5989 84.2107 59.6154 87.4543 61.1331C90.6978 62.6508 94.1673 62.0989 95.1962 59.8914C95.4095 59.4398 95.4973 58.9507 95.4785 58.4552C93.9602 59.653 91.2437 59.7597 88.6651 58.5556Z" fill="#DBA13A"/>
<path d="M63.9032 36.3551C61.9105 36.3457 60.2883 34.752 60.2867 32.803C60.2867 31.8506 60.6667 30.955 61.3597 30.2822C62.0494 29.6125 62.9675 29.2429 63.9431 29.2429C65.9437 29.2508 67.5676 30.846 67.5772 32.7982C67.5819 33.7317 67.2131 34.6146 66.5409 35.2843C65.8463 35.9745 64.9171 36.3551 63.9239 36.3551H63.9032Z" fill="#FEFEFE"/>
<path d="M63.9428 29.6379C63.9476 29.6379 63.9524 29.6379 63.9572 29.6379C65.7279 29.6458 67.1697 31.0609 67.1777 32.7999C67.1873 34.542 65.7231 35.9604 63.922 35.9604C63.9156 35.9604 63.9109 35.9604 63.9045 35.9604C62.1258 35.9509 60.6871 34.5404 60.6856 32.8031C60.6856 31.053 62.1433 29.6379 63.9428 29.6379ZM63.9428 28.8481C62.8618 28.8481 61.8447 29.2572 61.0799 30.0011C60.3103 30.7482 59.8872 31.7433 59.8872 32.8031C59.8888 34.9685 61.6883 36.739 63.8997 36.7501H63.9204C65.0206 36.7501 66.052 36.3284 66.8216 35.5623C67.5705 34.8184 67.9808 33.836 67.9744 32.7967C67.9633 30.6282 66.1622 28.8576 63.9588 28.8481H63.9428Z" fill="#7C5F33"/>
<path d="M50.1005 34.4738C48.1078 34.4643 46.4856 32.8707 46.484 30.9216C46.484 29.9692 46.864 29.0737 47.557 28.4008C48.2467 27.7312 49.1648 27.3616 50.1404 27.3616C52.141 27.3695 53.7649 28.9647 53.7745 30.9169C53.7792 31.8503 53.4104 32.7332 52.7382 33.4029C52.0436 34.0931 51.1144 34.4738 50.1212 34.4738H50.1005Z" fill="#FEFEFE"/>
<path d="M50.1401 27.7565C50.1449 27.7565 50.1497 27.7565 50.1545 27.7565C51.9252 27.7644 53.367 29.1796 53.375 30.9186C53.3846 32.6607 51.9204 34.079 50.1193 34.079C50.1129 34.079 50.1082 34.079 50.1018 34.079C48.3231 34.0695 46.8844 32.6591 46.8828 30.9217C46.8828 29.1717 48.3406 27.7565 50.1401 27.7565ZM50.1401 26.9668C49.0591 26.9668 48.042 27.3759 47.2772 28.1198C46.5076 28.8669 46.0845 29.8619 46.0845 30.9217C46.0861 33.0871 47.8856 34.8577 50.097 34.8687H50.1177C51.2179 34.8687 52.2493 34.447 53.0189 33.681C53.7678 32.9371 54.1781 31.9547 54.1717 30.9154C54.1605 28.7468 52.3595 26.9763 50.1561 26.9668H50.1401Z" fill="#7C5F33"/>
<path d="M63.5959 34.8404C65.0122 34.8499 66.1602 33.7427 66.1602 32.3686C66.1602 31.0182 65.0361 29.9094 63.6486 29.8952C62.2403 29.8794 61.0907 30.9929 61.0923 32.3702C61.0923 33.7316 62.2084 34.8325 63.5959 34.8404Z" fill="#473321"/>
<path d="M49.7941 32.9591C51.2104 32.9685 52.3584 31.8614 52.3584 30.4872C52.3584 29.1368 51.2343 28.0281 49.8468 28.0138C48.4385 27.998 47.2889 29.1115 47.2905 30.4888C47.2905 31.8503 48.4066 32.9512 49.7941 32.9591Z" fill="#473321"/>
<path d="M63.609 33.8391C64.452 33.8454 65.1338 33.1868 65.1338 32.3686C65.1338 31.5647 64.4648 30.9061 63.6393 30.8966C62.801 30.8871 62.1176 31.5489 62.1176 32.3686C62.1192 33.1789 62.7835 33.8343 63.609 33.8391Z" fill="#252728"/>
<path d="M49.8062 31.9577C50.6493 31.964 51.3311 31.3054 51.3311 30.4873C51.3311 29.6833 50.6621 29.0247 49.8366 29.0152C48.9983 29.0058 48.3149 29.6675 48.3149 30.4873C48.3165 31.2975 48.9808 31.953 49.8062 31.9577Z" fill="#252728"/>
<path opacity="0.9" d="M64.4635 30.8982C64.0835 30.9077 63.7498 31.2299 63.7466 31.5916C63.7434 31.9722 64.0947 32.3023 64.497 32.2944C64.8755 32.2881 65.2156 31.9628 65.2124 31.609C65.2092 31.2157 64.8643 30.8872 64.4635 30.8982Z" fill="white"/>
<path opacity="0.9" d="M50.6607 29.0169C50.2807 29.0263 49.947 29.3486 49.9438 29.7102C49.9406 30.0909 50.2919 30.421 50.6942 30.4131C51.0726 30.4068 51.4127 30.0814 51.4095 29.7276C51.4063 29.3343 51.0615 29.0058 50.6607 29.0169Z" fill="white"/>
</g>
<defs>
<radialGradient id="paint0_radial_229_16340" cx="0" cy="0" r="1" gradientUnits="userSpaceOnUse" gradientTransform="translate(45.9375 37.7118) rotate(-157.289) scale(4.67126 4.66998)">
<stop stop-color="#E69375"/>
<stop offset="1" stop-color="#EEB07E"/>
</radialGradient>
<radialGradient id="paint1_radial_229_16340" cx="0" cy="0" r="1" gradientUnits="userSpaceOnUse" gradientTransform="translate(65.5442 40.0214) rotate(-157.289) scale(4.67133 4.67004)">
<stop stop-color="#E69375"/>
<stop offset="1" stop-color="#EEB07E"/>
</radialGradient>
<clipPath id="clip0_229_16340">
<rect width="84" height="123" fill="white" transform="translate(12.8333)"/>
</clipPath>
</defs>
</svg>
