<svg width="97" height="159" viewBox="0 0 97 159" fill="none" xmlns="http://www.w3.org/2000/svg">
<rect x="0.666626" y="63" width="96" height="96" rx="48" fill="#F7ECE1"/>
<g clip-path="url(#clip0_229_16550)">
<path d="M72.6345 16.7158C72.8966 21.1615 70.9844 25.4864 68.5965 29.3769C67.5385 31.1002 66.3689 32.7944 65.6846 34.6673C65.0003 36.5401 64.8498 38.6688 65.8156 40.4403C64.3062 41.1692 62.4037 41.1837 60.875 40.4837C61.137 41.3767 61.7777 42.1684 62.6367 42.6704C61.0351 43.5151 59.021 43.2592 57.2398 42.7959C49.4066 40.7685 42.8207 35.1355 40.1271 28.1557C39.9378 27.6585 39.7291 27.1179 39.2341 26.8428C38.8264 26.6159 38.3168 26.6256 37.8363 26.6159C34.1236 26.5435 30.4836 24.6224 28.717 21.6586C26.9455 18.6949 27.1979 14.7947 29.4547 12.1158C28.1055 12.4681 26.5767 12.193 25.475 11.4014C29.6343 9.01202 33.4393 6.1255 37.6568 3.82305C41.8743 1.51576 46.6742 -0.221938 51.5906 0.0242365C54.2211 0.154564 56.8516 0.941357 59.0161 2.31704C60.5401 3.28726 61.7777 4.89946 62.8066 6.28479C68.7567 6.49718 72.3433 11.7392 72.6345 16.7158Z" fill="#9A5B2F"/>
<path d="M18.7872 86.8273C18.4329 87.5321 18.1077 88.2561 17.802 88.985C17.4477 89.8345 17.0788 90.6744 16.7876 91.5432C16.5061 92.3831 16.2004 93.252 16.1664 94.1401C16.147 94.6566 16.2149 95.4772 16.7343 95.7523C16.8168 95.7958 16.9963 95.791 17.0449 95.8779C17.1031 95.9792 16.9963 96.3364 17.0303 96.486C17.1177 96.8963 17.4331 97.2728 17.8505 97.3839C17.7971 97.6493 17.7826 97.9583 17.9621 98.1658C18.1466 98.3782 18.4814 98.4072 18.7484 98.3058C19.025 98.1996 19.2191 97.9003 19.5103 97.8617C19.8889 97.8086 20.1461 98.0452 20.5295 97.7893C20.8353 97.5818 21.0246 97.2439 21.1993 96.9156C22.3932 94.6808 23.7327 92.4797 25.3683 90.5296C26.5136 89.1684 27.8968 87.8603 28.3579 86.1129C28.7607 84.5876 28.6831 81.5611 28.6831 81.5611L24.3539 79.2683C24.3539 79.2683 22.4175 82.2803 21.5827 82.9995C20.3597 84.0373 19.5006 85.413 18.7872 86.8273Z" fill="#F2B27E"/>
<path d="M22.2379 92.8176C21.7914 92.5522 21.3643 92.2625 20.9469 91.9536" stroke="#333333" stroke-width="0.5" stroke-miterlimit="10" stroke-linecap="round" stroke-linejoin="round"/>
<path d="M21.7332 92.5957C20.6169 94.1789 19.7384 95.9263 19.1366 97.7605" stroke="#333333" stroke-width="0.5" stroke-miterlimit="10" stroke-linecap="round" stroke-linejoin="round"/>
<path d="M20.0641 92.75C19.1856 94.145 18.4674 95.6413 17.9383 97.2005" stroke="#333333" stroke-width="0.5" stroke-miterlimit="10" stroke-linecap="round" stroke-linejoin="round"/>
<path d="M18.8112 92.2627C18.1754 93.3729 17.6269 94.5314 17.1756 95.7285" stroke="#333333" stroke-width="0.5" stroke-miterlimit="10" stroke-linecap="round" stroke-linejoin="round"/>
<path d="M19.8892 86.4894C19.7047 87.2376 19.6028 88.0148 19.5252 88.7581C19.4087 89.8394 18.87 90.8385 18.802 91.9246C18.7778 92.3252 18.8942 92.8128 19.2777 92.9334C19.5058 93.0058 19.7533 92.919 19.962 92.8079C21.0151 92.2432 21.4908 91.1523 21.8693 90.0855C22.1362 89.3422 22.4226 88.816 22.9953 88.2561C23.9368 87.3293 24.7036 86.4846 24.8492 85.1138" stroke="#333333" stroke-width="0.5" stroke-miterlimit="10" stroke-linecap="round" stroke-linejoin="round"/>
<path d="M33.3228 52.4932C32.9394 52.8021 32.5899 53.14 32.2793 53.5165C29.4256 57.016 29.2848 62.4029 28.5714 66.6458C28.5229 66.9306 28.4695 67.2347 28.2851 67.4567C28.1152 67.6643 27.8483 67.7801 27.6881 67.9974C27.3824 68.4173 27.5813 69.0062 27.4843 69.513C27.4212 69.8461 27.2271 70.1405 27.0378 70.4253C25.8196 72.2644 24.5141 74.0407 23.3056 75.8846C22.7038 76.8065 22.1214 77.7381 21.5924 78.7035C21.5002 78.8677 20.3596 81.0156 20.4082 81.0591C22.5436 83.1733 25.179 84.7855 28.0376 85.7268C28.2123 85.7847 28.4015 85.8426 28.5811 85.7992C28.7801 85.7509 28.9257 85.5916 29.0567 85.442C29.7508 84.631 30.3186 83.7187 30.8816 82.8064C32.3764 80.3737 33.8518 77.9312 35.3078 75.4743C35.9921 74.3207 36.6716 73.1525 37.1666 71.9072C37.6908 70.5846 37.9917 69.1896 38.2489 67.7898C38.6274 65.7528 38.8992 63.7014 39.1225 61.6403C39.2972 60.0184 39.8505 58.4207 40.0689 56.7699C40.4183 54.115 40.4863 51.4988 40.3067 48.8247C38.9089 49.6018 37.4093 50.1666 35.9775 50.8713C35.0748 51.3202 34.1333 51.8367 33.3228 52.4932Z" fill="#8C9940"/>
<path d="M28.9645 67.4712C30.0662 69.011 32.5997 69.2475 33.9731 67.9394" stroke="#333333" stroke-width="0.5" stroke-miterlimit="10" stroke-linecap="round" stroke-linejoin="round"/>
<path d="M30.7408 82.7387C29.9546 82.8546 29.1829 82.4877 28.4841 82.1064C26.2515 80.8852 24.1646 79.3985 22.2815 77.6946" stroke="#333333" stroke-width="0.5" stroke-miterlimit="10" stroke-linecap="round" stroke-linejoin="round"/>
<path d="M66.282 135.71C66.2237 135.493 65.5734 133.876 65.0492 132.587L70.5189 131.23C71.111 132.872 72.0331 134.315 72.7805 135.874C73.5328 137.443 74.1055 139.142 74.6733 140.807C74.7801 141.126 74.8869 141.439 74.9985 141.753C75.1538 142.197 75.3042 142.661 75.2266 143.124C75.2266 143.129 75.2217 143.134 75.2217 143.139C74.0861 141.353 71.6449 140.518 69.524 140.952C68.1553 141.232 66.9274 141.941 65.8888 142.878C65.8937 142.468 65.9277 142.048 65.9762 141.633C66.214 139.567 66.8207 137.694 66.282 135.71Z" fill="#EADCCE"/>
<path d="M75.2115 143.134C74.998 144.302 73.2071 145.673 72.2607 146.266C70.8727 147.14 69.3342 147.227 67.8394 146.546C66.2524 145.822 65.8592 144.408 65.8787 142.868C66.9173 141.932 68.1451 141.222 69.5138 140.942C71.6395 140.513 74.0807 141.348 75.2115 143.134Z" fill="#579CA3"/>
<path d="M27.2178 142.646C27.6885 142.149 29.2707 141.435 30.8432 140.711C32.3283 141.85 33.2456 143.858 33.197 145.779C33.1145 145.789 33.032 145.803 32.9446 145.813C31.1878 146.016 28.7902 145.982 27.208 145.089C26.2131 144.524 26.5286 143.37 27.2178 142.646Z" fill="#579CA3"/>
<path d="M43.933 140.479C44.0543 141.831 44.1611 142.921 44.1514 143.119C44.0397 144.828 41.0016 144.693 39.5068 144.746C40.1474 143.674 40.5114 142.371 41.4044 141.473C42.0596 140.812 42.9963 140.479 43.933 140.479Z" fill="#579CA3"/>
<path d="M30.8429 140.706C32.1241 140.117 33.3957 139.523 34.0703 139.04C35.24 138.205 36.3417 137.525 36.9144 136.135C37.2832 135.242 37.424 134.281 37.5065 133.316L43.7332 134.551C43.7235 134.604 43.7187 134.658 43.709 134.715C43.5488 135.835 43.7478 138.452 43.9274 140.474C42.9907 140.474 42.054 140.807 41.3939 141.468C40.5058 142.361 40.1418 143.665 39.4963 144.741C39.3459 144.746 39.2003 144.751 39.0886 144.765C37.0988 144.958 35.172 145.523 33.1967 145.774C33.2501 143.853 32.328 141.845 30.8429 140.706Z" fill="#EADCCE"/>
<path d="M33.5558 76.8886C33.8664 75.5274 34.2207 73.978 34.5992 72.2161L35.0457 70.1164L58.5794 69.3538L59.2103 71.3328C59.7053 72.8967 60.2489 74.1855 60.8265 75.5467C61.569 77.3086 62.3407 79.1332 62.9473 81.4694C63.2822 82.763 63.5686 83.7236 63.8161 84.5731C64.6217 87.3052 64.9809 88.6905 65.0391 92.8996C65.0779 95.5931 65.1993 105.194 65.2332 107.8C65.9273 109.123 67.5046 112.164 68.0482 113.525C70.4797 119.602 71.8629 125.786 73.2655 132.152C73.314 132.384 73.3674 132.616 73.348 132.852C73.3237 133.2 73.149 133.518 72.9548 133.808C71.1882 136.434 67.4997 137.182 64.413 136.429C64.1121 136.357 63.8015 136.265 63.5831 136.043C63.4327 135.893 63.3405 135.695 63.2531 135.502C61.6321 131.979 59.9237 128.45 58.4726 124.844C57.8756 123.478 57.2544 122.064 56.6138 120.693C55.7596 118.864 54.9394 117.314 54.1532 115.813C52.2167 112.125 50.5423 108.944 49.3775 103.804C49.2174 103.099 48.8582 101.627 48.4311 99.9035C48.2904 101.086 48.1448 102.332 47.9943 103.693C47.5721 107.39 47.6303 111.126 48.1642 114.795C49.13 121.432 47.3586 128.938 45.8929 135.425C45.8006 135.826 45.7036 136.236 45.4415 136.555C45.2085 136.839 44.864 137.008 44.5291 137.153C41.7578 138.341 38.4382 138.191 35.7883 136.752C35.4971 136.598 35.2059 136.41 35.0554 136.12C34.9293 135.884 34.9196 135.604 34.9147 135.333C34.7885 130.675 34.4488 126.008 34.4488 121.335C34.4245 120.351 34.3954 120.013 34.3808 119.902C34.2158 119.356 34.1236 118.806 34.0265 117.223C33.7887 113.371 33.3374 110.05 32.9054 106.84C32.391 103.041 31.8571 99.1119 31.6921 94.3815C31.3961 86.3157 32.2114 82.7679 33.5558 76.8886Z" fill="#CC9864"/>
<path d="M48.0336 99.5849C45.6749 99.0346 43.321 98.4844 40.9623 97.9341" stroke="#333333" stroke-width="0.5" stroke-miterlimit="10" stroke-linecap="round" stroke-linejoin="round"/>
<path d="M46.7562 99.0733C46.0234 95.7427 45.8147 92.3011 46.1447 88.9077" stroke="#333333" stroke-width="0.5" stroke-miterlimit="10" stroke-linecap="round" stroke-linejoin="round"/>
<path d="M44.0776 98.5616C43.0779 95.2744 42.8061 91.7749 43.2817 88.3767" stroke="#333333" stroke-width="0.5" stroke-miterlimit="10" stroke-linecap="round" stroke-linejoin="round"/>
<path d="M47.0237 100.357C45.1988 100.83 43.374 101.303 41.5492 101.776" stroke="#333333" stroke-width="0.5" stroke-miterlimit="10" stroke-linecap="round" stroke-linejoin="round"/>
<path d="M64.5004 108.742C63.6413 110.325 62.5688 111.792 61.3215 113.096" stroke="#333333" stroke-width="0.5" stroke-miterlimit="10" stroke-linecap="round" stroke-linejoin="round"/>
<path d="M46.1841 110.957C45.427 112.323 44.665 113.685 43.9079 115.051" stroke="#333333" stroke-width="0.5" stroke-miterlimit="10" stroke-linecap="round" stroke-linejoin="round"/>
<path d="M44.0149 52.6622C39.2344 52.9759 40.6224 48.7041 40.6224 48.7041C42.3405 47.7821 43.9809 46.5464 44.7089 44.5915C45.961 41.2223 44.3934 38.6881 44.3934 38.6881L54.2262 33.6584C54.2262 33.6584 52.6926 43.2303 54.2019 46.0927C54.2019 46.0878 48.7954 52.3484 44.0149 52.6622Z" fill="#F2B27E"/>
<path d="M32.8229 65.7481C33.3665 57.1223 34.7011 51.5617 37.1083 50.3742C38.113 49.877 39.3894 49.3702 40.627 48.7041C40.627 48.7041 39.2341 52.9759 44.0194 52.6622C48.7999 52.3484 54.2065 46.0879 54.2065 46.0879C54.6385 46.9036 55.5849 47.4636 56.7399 47.8787C58.0212 48.3372 59.5548 48.6172 60.9235 48.8634C62.661 49.1723 64.1364 49.4233 64.5004 49.9157C68.6062 55.457 61.404 63.1415 63.2676 68.9628C63.5782 69.9282 64.0878 70.8308 64.2431 71.83C64.3984 72.8292 64.0587 74.0166 63.1269 74.4221C63.9374 74.7745 64.3305 75.8557 63.9374 76.6425C63.7627 76.9949 63.4569 77.2845 63.3404 77.6562C63.1706 78.1968 63.4278 78.7664 63.6171 79.2973C64.7818 82.5362 63.6947 86.1033 62.5299 89.3422C61.3894 92.5135 60.1809 95.6559 58.8948 98.7692C54.0269 97.5287 49.3678 95.4869 45.1551 92.7597C44.8008 92.528 44.4029 92.2867 43.9855 92.3494C43.6554 92.3977 43.3885 92.6342 43.141 92.8611C40.1659 95.5738 37.186 98.2817 34.2109 100.994C31.4106 89.3615 32.0803 77.5548 32.8229 65.7481Z" fill="#8C9940"/>
<path opacity="0.7" d="M46.0678 44.9728C45.5048 45.0018 45.0389 44.9101 44.6506 44.7363C44.6701 44.688 44.6943 44.6398 44.7137 44.5915C45.9659 41.2223 44.3983 38.6881 44.3983 38.6881L54.2262 33.6584C54.2262 33.6584 53.8573 35.9706 53.6584 38.664C52.4499 40.5851 49.4214 44.8087 46.0678 44.9728Z" fill="#F2B27E"/>
<path d="M56.3181 8.50032C59.3951 10.7545 61.3995 14.0224 62.2585 17.8453C62.3022 18.048 62.3459 18.2459 62.3847 18.4487C63.3651 23.4977 62.506 28.8652 60.0842 33.4026C59.1427 35.1644 58.2885 36.7814 56.75 38.0992C53.3673 40.9905 51.3726 42.4772 47.0289 43.4909C44.2916 44.1281 40.3993 43.9832 37.7833 42.5062C35.9439 41.4684 34.4394 39.8562 33.3765 38.0413C31.8477 35.4347 32.3331 32.8957 32.6874 30.0816C33.197 26.0559 31.8138 21.982 32.2409 17.9515C32.6485 14.1189 34.7694 10.4939 37.9289 8.25415C38.8705 7.58803 39.9091 7.06189 40.9865 6.66125C45.1361 5.1118 50.1786 5.15524 54.1632 7.17291C54.93 7.56872 55.6483 8.0128 56.3181 8.50032Z" fill="#EEB07E"/>
<mask id="mask0_229_16550" style="mask-type:luminance" maskUnits="userSpaceOnUse" x="32" y="5" width="31" height="39">
<path d="M56.3181 8.50032C59.3951 10.7545 61.3995 14.0224 62.2585 17.8453C62.3022 18.048 62.3459 18.2459 62.3847 18.4487C63.3651 23.4977 62.506 28.8652 60.0842 33.4026C59.1427 35.1644 58.2885 36.7814 56.75 38.0992C53.3673 40.9905 51.3726 42.4772 47.0289 43.4909C44.2916 44.1281 40.3993 43.9832 37.7833 42.5062C35.9439 41.4684 34.4394 39.8562 33.3765 38.0413C31.8477 35.4347 32.3331 32.8957 32.6874 30.0816C33.197 26.0559 31.8138 21.982 32.2409 17.9515C32.6485 14.1189 34.7694 10.4939 37.9289 8.25415C38.8705 7.58803 39.9091 7.06189 40.9865 6.66125C45.1361 5.1118 50.1786 5.15524 54.1632 7.17291C54.93 7.56872 55.6483 8.0128 56.3181 8.50032Z" fill="white"/>
</mask>
<g mask="url(#mask0_229_16550)">
<path d="M46.558 34.8506C47.0628 37.0275 49.2419 38.3839 51.4308 37.8819C53.6196 37.3799 54.9834 35.2126 54.4786 33.0356C53.9739 30.8587 51.7948 29.5023 49.6059 30.0043C47.4219 30.5063 46.0533 32.6736 46.558 34.8506Z" fill="url(#paint0_radial_229_16550)"/>
</g>
<mask id="mask1_229_16550" style="mask-type:luminance" maskUnits="userSpaceOnUse" x="32" y="5" width="31" height="39">
<path d="M56.3181 8.50032C59.3951 10.7545 61.3995 14.0224 62.2585 17.8453C62.3022 18.048 62.3459 18.2459 62.3847 18.4487C63.3651 23.4977 62.506 28.8652 60.0842 33.4026C59.1427 35.1644 58.2885 36.7814 56.75 38.0992C53.3673 40.9905 51.3726 42.4772 47.0289 43.4909C44.2916 44.1281 40.3993 43.9832 37.7833 42.5062C35.9439 41.4684 34.4394 39.8562 33.3765 38.0413C31.8477 35.4347 32.3331 32.8957 32.6874 30.0816C33.197 26.0559 31.8138 21.982 32.2409 17.9515C32.6485 14.1189 34.7694 10.4939 37.9289 8.25415C38.8705 7.58803 39.9091 7.06189 40.9865 6.66125C45.1361 5.1118 50.1786 5.15524 54.1632 7.17291C54.93 7.56872 55.6483 8.0128 56.3181 8.50032Z" fill="white"/>
</mask>
<g mask="url(#mask1_229_16550)">
<path d="M29.4017 33.9431C29.9064 36.1201 32.0856 37.4764 34.2744 36.9744C36.4632 36.4724 37.827 34.3051 37.3223 32.1282C36.8175 29.9512 34.6384 28.5948 32.4495 29.0968C30.2656 29.5989 28.9018 31.771 29.4017 33.9431Z" fill="url(#paint1_radial_229_16550)"/>
</g>
<path d="M40.3209 26.7075C40.8596 28.2377 40.35 30.0767 39.093 31.1194C38.7678 31.3897 38.3893 31.6214 38.2 32.0027C38.001 32.4082 38.0738 32.9102 38.2971 33.3108C38.5203 33.7066 38.8698 34.0155 39.2289 34.2955" stroke="black" stroke-width="0.5" stroke-miterlimit="10" stroke-linecap="round" stroke-linejoin="round"/>
<path d="M47.5042 20.4759C48.7903 20.7414 50.6103 21.7406 51.8722 23.068C51.9595 23.1597 51.8527 23.3093 51.7363 23.2563C50.9694 22.9135 49.4504 22.2957 47.8245 21.9868C46.1113 21.6585 44.9853 21.6537 44.5291 21.673C44.432 21.6778 44.3738 21.5716 44.4223 21.4896C45.1892 20.3215 46.155 20.196 47.5042 20.4759Z" fill="#9A5B2F"/>
<path d="M36.5693 19.9497C35.5889 20.0559 34.1572 20.8331 33.1283 22.0012C33.0555 22.0832 33.1234 22.2425 33.2157 22.2039C33.8126 21.9577 34.992 21.5233 36.2296 21.4075C37.5351 21.2868 38.3796 21.4171 38.7144 21.4895C38.7872 21.504 38.8406 21.4075 38.8067 21.3206C38.3116 20.0752 37.5982 19.8339 36.5693 19.9497Z" fill="#9A5B2F"/>
<path d="M43.7186 38.1282C42.7965 38.606 41.6802 38.6881 40.695 38.3502" stroke="black" stroke-width="0.5" stroke-miterlimit="10" stroke-linecap="round" stroke-linejoin="round"/>
<path d="M45.3057 36.0139C43.2382 37.3848 41.059 37.2882 39.2099 36.7428" stroke="black" stroke-width="0.5" stroke-miterlimit="10" stroke-linecap="round" stroke-linejoin="round"/>
<path d="M56.454 26.3313C54.9301 24.024 53.7944 21.4657 53.1198 18.7916C52.8917 20.2541 53.2217 21.7939 54.0322 23.0345C50.4262 21.094 48.0093 17.1311 47.9559 13.0572C46.068 15.3113 43.3162 16.8318 40.3945 17.2325C41.336 16.436 42.0543 15.3837 42.4523 14.2205C39.681 16.7884 35.7111 18.0144 31.9643 17.4642C31.6634 17.4207 31.3431 17.3531 31.1489 17.1166C30.9111 16.8222 30.9742 16.3974 31.0616 16.0306C32.6244 9.59141 38.361 4.36382 44.942 3.37429C51.5328 2.38477 58.5604 5.70088 61.9625 11.3919C64.1659 15.0797 64.758 19.6266 63.8165 23.7875C63.4816 25.2597 62.7779 28.46 61.2637 29.1937C59.3709 30.1108 57.3519 27.6876 56.454 26.3313Z" fill="#9A5B2F"/>
<path d="M59.618 28.6771C58.0455 30.8492 57.5553 33.0696 59.1036 34.1798C60.6518 35.29 63.6511 34.8653 65.2236 32.698C66.796 30.5258 66.8154 27.8662 65.2672 26.756C63.7239 25.6458 61.1905 26.505 59.618 28.6771Z" fill="#EEB07E"/>
<path d="M66.2379 28.1076C66.2379 28.1076 63.0736 27.7359 59.4336 32.4132" stroke="black" stroke-width="0.5" stroke-miterlimit="10" stroke-linecap="round" stroke-linejoin="round"/>
<path d="M60.1858 16.8799C54.1483 14.6547 49.4697 9.61054 43.3983 7.48185C39.8893 6.25098 36.0309 6.13031 32.4201 7.00881C34.1285 5.89861 35.8562 4.80772 37.6568 3.82302C39.6127 2.75144 41.6899 1.81018 43.8496 1.12476C47.8536 3.22931 51.2606 6.35234 55.0947 8.77548C59.2734 11.4158 64.5247 13.2211 69.1499 11.4737C69.6643 11.2807 70.1593 11.0393 70.6301 10.7642C71.8192 12.5405 72.5083 14.6499 72.6297 16.7158C72.6345 16.7882 72.6345 16.8558 72.6345 16.9234C71.3727 17.6088 69.8439 17.9563 68.4024 18.0529C65.6215 18.246 62.8017 17.8405 60.1858 16.8799Z" fill="#5E4028"/>
<path d="M61.7438 6.35718C60.7488 7.2212 59.817 8.1528 58.958 9.14716" stroke="black" stroke-width="0.5" stroke-miterlimit="10" stroke-linecap="round" stroke-linejoin="round"/>
<path d="M59.681 5.47377C59.1229 4.52286 58.1765 3.80364 57.1039 3.52368" stroke="black" stroke-width="0.5" stroke-miterlimit="10" stroke-linecap="round" stroke-linejoin="round"/>
<path d="M58.9146 6.77232C57.9633 5.85037 56.6723 5.28079 55.3474 5.19873" stroke="black" stroke-width="0.5" stroke-miterlimit="10" stroke-linecap="round" stroke-linejoin="round"/>
<path d="M62.8648 8.40847C63.5928 8.29262 64.3694 8.47604 64.9663 8.9153" stroke="black" stroke-width="0.5" stroke-miterlimit="10" stroke-linecap="round" stroke-linejoin="round"/>
<path d="M32.1722 81.1798C32.1868 76.0439 32.4974 70.8984 32.8226 65.748C32.9002 64.551 32.9876 63.4118 33.0944 62.3306" stroke="#333333" stroke-width="0.5" stroke-miterlimit="10" stroke-linecap="round" stroke-linejoin="round"/>
<path d="M43.408 52.7202C43.1653 54.4145 43.1362 56.1425 43.3303 57.8464" stroke="#333333" stroke-width="0.5" stroke-miterlimit="10" stroke-linecap="round" stroke-linejoin="round"/>
<path d="M80.9337 88.7485C81.2783 89.8974 81.618 91.051 81.9626 92.1998C82.0694 92.5618 82.181 92.9287 82.1664 93.3052C82.1567 93.6817 82.0014 94.0727 81.686 94.2851C81.7539 94.6953 81.8219 95.1153 81.7588 95.5304C81.7005 95.9455 81.487 96.3558 81.123 96.5585C81.0453 96.602 80.958 96.6358 80.9046 96.7082C80.856 96.7661 80.8415 96.8433 80.8075 96.9157C80.691 97.1619 80.3804 97.2778 80.1086 97.2536C79.832 97.2247 79.5845 97.0847 79.3515 96.9399C79.2205 97.1281 78.9438 97.1571 78.7255 97.0847C78.4294 96.9882 78.1964 96.7516 78.0411 96.4813C77.8858 96.211 77.7985 95.9069 77.716 95.6076C77.551 95.0284 77.3859 94.4443 77.2161 93.8651C77.085 93.4114 76.954 92.9576 76.7502 92.528C76.357 91.7026 75.7261 91.0269 75.0466 90.4235C74.7312 90.1435 74.3866 89.8877 74.0954 89.5836C73.9207 89.4002 73.6829 89.1444 73.3917 89.2312C73.0519 89.3326 72.9791 89.7767 73.0131 90.1291C73.149 91.553 73.9595 92.8466 74.0614 94.2754C74.076 94.4974 74.0614 94.7484 73.8916 94.8884C73.6004 95.1346 73.1733 94.8546 72.9015 94.5843C71.9357 93.6334 70.9553 92.6584 70.3729 91.4372C69.3731 89.3471 69.0383 86.8467 68.7713 84.5684C68.6209 83.3134 68.5626 82.0873 68.3248 80.8806L73.7023 78.665C74.7312 80.4703 76.3085 81.8122 77.6674 83.3665C78.41 84.2112 79.1574 85.0656 79.7155 86.0406C80.2106 86.9191 80.6425 87.7783 80.9337 88.7485Z" fill="#F2B27E"/>
<path d="M79.3328 96.7854C79.2066 94.9367 78.8232 93.1073 78.2019 91.3647" stroke="#333333" stroke-width="0.5" stroke-miterlimit="10" stroke-linecap="round" stroke-linejoin="round"/>
<path d="M80.8806 96.5007C80.604 94.4685 80.075 92.4702 79.3081 90.5684" stroke="#333333" stroke-width="0.5" stroke-miterlimit="10" stroke-linecap="round" stroke-linejoin="round"/>
<path d="M81.5261 94.0871C81.2155 92.528 80.7787 90.993 80.2109 89.5063" stroke="#333333" stroke-width="0.5" stroke-miterlimit="10" stroke-linecap="round" stroke-linejoin="round"/>
<path d="M56.0171 48.0042C57.0654 48.1779 58.1186 48.342 59.1621 48.5448C60.2055 48.7427 61.2732 48.7909 62.3167 48.9695C63.5106 49.1771 64.7288 49.5922 65.5538 50.4804C65.9227 50.8762 66.1508 51.383 66.5148 51.7788C66.8642 52.1602 67.2428 52.5222 67.5777 52.9228C68.2668 53.7531 68.8881 54.6412 69.4607 55.5583C71.8486 59.3668 73.6831 63.5083 74.9207 67.8236C76.2311 72.3706 76.6242 76.9224 77.0562 81.6142C77.0756 81.8218 77.095 82.0342 77.0222 82.2272C76.9542 82.4203 76.8038 82.5796 76.6533 82.7244C74.4791 84.8145 71.2468 85.7557 68.2814 85.1669C68.1018 85.1282 67.9077 85.0848 67.7767 84.9545C67.335 84.5249 67.4321 83.2699 67.3593 82.7051C67.2185 81.6239 67.0778 80.5426 66.9322 79.4662C66.6507 77.3038 66.3643 75.1461 66.0829 72.9836C66.0537 72.7519 66.0149 72.5058 65.8742 72.3223C65.7043 72.1003 65.418 72.0038 65.2238 71.8058C64.7967 71.3666 64.9617 70.6619 64.9278 70.0537C64.8064 67.9539 62.1614 66.4672 60.7005 65.3088C55.6871 61.3121 53.6924 53.9606 56.0171 48.0042Z" fill="#8C9940"/>
<path d="M65.5244 69.0834C65.8787 69.3006 66.3446 69.1607 66.7134 68.9724C67.5725 68.5283 68.3005 67.8284 68.7712 66.9885" stroke="#333333" stroke-width="0.5" stroke-miterlimit="10" stroke-linecap="round" stroke-linejoin="round"/>
<path d="M76.7498 78.9304C75.7694 80.3013 74.226 81.2184 72.5856 81.6335C70.9452 82.0486 69.2126 81.9907 67.5479 81.677" stroke="#333333" stroke-width="0.5" stroke-miterlimit="10" stroke-linecap="round" stroke-linejoin="round"/>
<path d="M62.7675 67.1236C62.0686 66.1582 61.1707 65.3376 60.1418 64.7246" stroke="#333333" stroke-width="0.5" stroke-miterlimit="10" stroke-linecap="round" stroke-linejoin="round"/>
<path d="M62.4907 49.8818C60.8018 50.7893 59.3701 52.1602 58.3897 53.8013" stroke="#333333" stroke-width="0.5" stroke-miterlimit="10" stroke-linecap="round" stroke-linejoin="round"/>
<path d="M35.4856 29.4567C37.2184 29.4485 38.6291 28.0778 38.6305 26.4015C38.6305 25.5824 38.3 24.8122 37.6974 24.2335C37.0976 23.6575 36.2992 23.3396 35.4508 23.3396C33.7111 23.3464 32.299 24.7184 32.2906 26.3975C32.2865 27.2003 32.6072 27.9597 33.1918 28.5356C33.7958 29.1293 34.6039 29.4567 35.4675 29.4567H35.4856Z" fill="#FEFEFE"/>
<path d="M35.4514 23.6792C35.4472 23.6792 35.443 23.6792 35.4389 23.6792C33.899 23.686 32.6452 24.9032 32.6383 26.3988C32.63 27.8972 33.9032 29.1171 35.4694 29.1171C35.475 29.1171 35.4791 29.1171 35.4847 29.1171C37.0315 29.1089 38.2825 27.8958 38.2839 26.4015C38.2839 24.8964 37.0162 23.6792 35.4514 23.6792ZM35.4514 23C36.3914 23 37.2759 23.3518 37.9409 23.9917C38.6102 24.6342 38.9781 25.49 38.9781 26.4015C38.9768 28.264 37.4119 29.7868 35.4889 29.7963H35.4708C34.5141 29.7963 33.6172 29.4336 32.9479 28.7747C32.2967 28.1349 31.9399 27.29 31.9454 26.3961C31.9552 24.531 33.5214 23.0082 35.4375 23H35.4514Z" fill="#9A5B2F"/>
<path d="M35.2942 28.2471C34.0626 28.2552 33.0642 27.303 33.0642 26.1211C33.0642 24.9596 34.0417 24.006 35.2483 23.9938C36.473 23.9802 37.4727 24.9379 37.4713 26.1225C37.4713 27.2935 36.5008 28.2403 35.2942 28.2471Z" fill="#473321"/>
<path d="M35.2838 27.3858C34.5507 27.3913 33.9578 26.8248 33.9578 26.1211C33.9578 25.4297 34.5396 24.8632 35.2575 24.8551C35.9864 24.8469 36.5807 25.4161 36.5807 26.1211C36.5793 26.818 36.0017 27.3818 35.2838 27.3858Z" fill="#252728"/>
<path opacity="0.9" d="M34.5402 24.8564C34.8707 24.8646 35.1609 25.1417 35.1637 25.4528C35.1665 25.7802 34.861 26.0641 34.5111 26.0573C34.182 26.0519 33.8863 25.772 33.889 25.4677C33.8918 25.1295 34.1917 24.8469 34.5402 24.8564Z" fill="white"/>
<path d="M47.674 29.4567C49.4069 29.4485 50.8176 28.0778 50.819 26.4015C50.819 25.5824 50.4885 24.8122 49.8859 24.2335C49.2861 23.6575 48.4877 23.3396 47.6393 23.3396C45.8995 23.3464 44.4874 24.7184 44.4791 26.3975C44.4749 27.2003 44.7957 27.9597 45.3802 28.5356C45.9842 29.1293 46.7923 29.4567 47.656 29.4567H47.674Z" fill="#FEFEFE"/>
<path d="M47.6399 23.6792C47.6357 23.6792 47.6315 23.6792 47.6274 23.6792C46.0875 23.686 44.8337 24.9032 44.8268 26.3988C44.8184 27.8972 46.0917 29.1171 47.6579 29.1171C47.6635 29.1171 47.6676 29.1171 47.6732 29.1171C49.22 29.1089 50.471 27.8958 50.4724 26.4015C50.4724 24.8964 49.2047 23.6792 47.6399 23.6792ZM47.6399 23C48.5799 23 49.4643 23.3518 50.1294 23.9917C50.7987 24.6342 51.1666 25.49 51.1666 26.4015C51.1652 28.264 49.6004 29.7868 47.6773 29.7963H47.6593C46.7026 29.7963 45.8057 29.4336 45.1364 28.7747C44.4852 28.1349 44.1284 27.29 44.1339 26.3961C44.1436 24.531 45.7099 23.0082 47.626 23H47.6399Z" fill="#9A5B2F"/>
<path d="M47.4826 28.2471C46.251 28.2552 45.2527 27.303 45.2527 26.1211C45.2527 24.9596 46.2302 24.006 47.4368 23.9938C48.6615 23.9802 49.6612 24.9379 49.6598 26.1225C49.6598 27.2935 48.6892 28.2403 47.4826 28.2471Z" fill="#473321"/>
<path d="M47.4723 27.3858C46.7392 27.3913 46.1463 26.8248 46.1463 26.1211C46.1463 25.4297 46.7281 24.8632 47.4459 24.8551C48.1749 24.8469 48.7692 25.4161 48.7692 26.1211C48.7678 26.818 48.1902 27.3818 47.4723 27.3858Z" fill="#252728"/>
<path opacity="0.9" d="M46.7287 24.8564C47.0592 24.8646 47.3494 25.1417 47.3522 25.4528C47.3549 25.7802 47.0495 26.0641 46.6996 26.0573C46.3705 26.0519 46.0747 25.772 46.0775 25.4677C46.0803 25.1295 46.3802 24.8469 46.7287 24.8564Z" fill="white"/>
</g>
<defs>
<radialGradient id="paint0_radial_229_16550" cx="0" cy="0" r="1" gradientUnits="userSpaceOnUse" gradientTransform="translate(50.5197 33.9434) rotate(-12.8927) scale(4.06394 4.04409)">
<stop stop-color="#E69375"/>
<stop offset="1" stop-color="#EEB07E"/>
</radialGradient>
<radialGradient id="paint1_radial_229_16550" cx="0" cy="0" r="1" gradientUnits="userSpaceOnUse" gradientTransform="translate(33.3645 33.0379) rotate(-12.8927) scale(4.06394 4.04408)">
<stop stop-color="#E69375"/>
<stop offset="1" stop-color="#EEB07E"/>
</radialGradient>
<clipPath id="clip0_229_16550">
<rect width="66" height="147" fill="white" transform="matrix(-1 0 0 1 82.1666 0)"/>
</clipPath>
</defs>
</svg>
