<svg width="96" height="154" viewBox="0 0 96 154" fill="none" xmlns="http://www.w3.org/2000/svg">
<rect x="-6.10352e-05" y="58" width="96" height="96" rx="48" fill="#E6F2D9"/>
<g clip-path="url(#clip0_229_16443)">
<path d="M65.3018 53.2992C67.6949 55.6192 69.4967 58.4619 71.282 61.2775C71.6051 60.8255 72.4868 61.1413 72.4484 61.6968C73.938 60.0576 75.4276 58.4238 76.9172 56.7846C77.3169 56.3435 77.7332 55.886 77.9467 55.3305C78.1877 54.7151 78.1932 53.9854 78.6422 53.5061C79.2665 52.8417 80.3563 53.0215 81.2161 53.3373C83.3464 54.1215 85.9203 55.3469 86.7418 57.6342C86.939 58.1896 86.9116 58.8649 86.5118 59.3006C86.2708 59.562 85.9149 59.7308 85.7834 60.0576C85.7232 60.2155 85.7177 60.3844 85.7013 60.5532C85.6465 61.1032 85.4165 61.6151 85.192 62.1216C84.9894 62.5736 84.7867 63.0256 84.5841 63.4776C83.0398 66.9467 80.8876 70.6227 77.8317 72.9808C74.8252 75.3008 70.8767 75.4587 67.5033 73.8086C64.7705 72.4689 62.35 70.5846 60.0718 68.5696C58.4453 67.1319 56.8626 65.5961 55.729 63.7499C54.3216 61.4463 54.1847 59.0174 54.1464 56.4088C54.119 54.4483 54.2395 52.4769 54.5407 50.5381C54.8528 48.5394 54.798 48.1691 56.6326 48.5558C59.7816 49.2202 63.0126 51.0773 65.3018 53.2992Z" fill="#BFCC73"/>
<path d="M72.8482 61.3047C71.5941 62.5082 70.6522 64.0385 70.1484 65.6996" stroke="#333333" stroke-width="0.5" stroke-miterlimit="10" stroke-linecap="round" stroke-linejoin="round"/>
<path d="M70.4985 61.5227C69.2773 62.1054 68.3244 63.2164 67.9355 64.5071" stroke="#333333" stroke-width="0.5" stroke-miterlimit="10" stroke-linecap="round" stroke-linejoin="round"/>
<path d="M93.3682 48.9262C93.4504 48.5069 93.3847 48.0331 93.0889 47.7226C93.2696 47.287 93.4504 46.8404 93.4887 46.3666C93.527 45.8928 93.4011 45.3863 93.0506 45.0705C92.9739 45.0051 92.8918 44.9398 92.848 44.8526C92.8096 44.7764 92.8096 44.6838 92.7932 44.6021C92.7275 44.2972 92.4153 44.0956 92.1086 44.0521C91.7965 44.014 91.4898 44.1065 91.1941 44.21C90.8491 43.3441 89.3978 44.3026 89.0747 44.7056C88.675 45.2121 88.4449 45.8275 88.1328 46.3884C87.9356 46.7424 87.6728 47.1944 87.3606 47.4612C86.9608 47.7989 85.4439 48.79 85.4439 47.4667C85.4439 47.0637 85.7232 46.726 85.9532 46.3938C86.1832 46.0616 86.3858 45.6368 86.2161 45.272C86.0572 44.9234 85.6082 44.7818 85.2303 44.8581C84.8524 44.9343 84.5348 45.1739 84.2391 45.4245C82.2128 47.1345 81.0573 49.0569 80.4275 51.5729C80.2687 52.1992 80.1044 52.8473 79.7211 53.3646C79.5842 53.5443 79.4199 53.7295 79.4199 53.9582C79.4199 54.0781 79.4691 54.187 79.5239 54.2904C80.4166 56.1312 82.2183 57.509 84.2336 57.9065C84.4034 57.9392 84.5731 57.9664 84.7429 57.9338C84.9565 57.8902 85.1427 57.7541 85.3179 57.6288C86.8404 56.5287 88.5107 55.9351 89.814 54.5246C90.5862 53.6859 91.2872 52.8527 91.8567 51.8507C92.5303 50.6689 92.1853 51.2843 92.8589 50.1025C93.0725 49.7213 93.2861 49.3455 93.3682 48.9262Z" fill="#F2B27E"/>
<path d="M93.0065 47.7173C92.3603 47.9297 91.9824 48.5777 91.6538 49.1713C90.9529 50.4457 91.2157 49.9011 90.2519 50.9903" stroke="#333333" stroke-width="0.5" stroke-miterlimit="10" stroke-linecap="round" stroke-linejoin="round"/>
<path d="M92.656 44.8254C91.7196 45.3319 91.2048 46.3503 90.7064 47.2924C89.9452 48.7302 90.0931 48.3163 89.1347 49.6342" stroke="#333333" stroke-width="0.5" stroke-miterlimit="10" stroke-linecap="round" stroke-linejoin="round"/>
<path d="M90.9915 44.3462C90.3562 44.8581 90.0002 45.6314 89.6224 46.3503C88.9159 47.69 89.0638 47.1508 88.0616 48.289" stroke="#333333" stroke-width="0.5" stroke-miterlimit="10" stroke-linecap="round" stroke-linejoin="round"/>
<path d="M25.1215 134.259C25.6253 132.004 29.9517 131.04 31.507 129.885C32.7884 128.938 34.0042 128.159 34.6175 126.602C35.1378 125.284 35.22 123.846 35.2747 122.43C35.2911 121.94 35.2911 121.134 35.2747 120.099H42.7883C42.5802 121.575 42.3612 123.16 42.1421 124.902C41.8792 126.988 42.8047 133.681 42.7828 134.231C42.6843 136.328 38.5825 136.001 37.1915 136.159C33.829 136.54 30.1872 138.098 26.863 136.731C25.943 136.355 25.0229 135.587 25.0722 134.602C25.0832 134.476 25.0996 134.367 25.1215 134.259Z" fill="#BFCC73"/>
<path d="M73.0946 134.978C72.5907 132.723 68.2644 131.759 66.7091 130.604C65.4276 129.657 64.2119 128.878 63.5985 127.321C63.0782 126.003 62.9961 124.565 62.9413 123.149C62.9249 122.659 62.9249 121.853 62.9413 120.818H55.4277C55.6358 122.294 55.8549 123.879 56.0739 125.621C56.3368 127.707 55.4113 134.4 55.4332 134.95C55.5318 137.047 59.6336 136.72 61.0246 136.878C64.3871 137.259 68.0289 138.817 71.3531 137.45C72.2731 137.074 73.1931 136.306 73.1438 135.321C73.1329 135.201 73.1165 135.086 73.0946 134.978Z" fill="#BFCC73"/>
<path d="M32.1531 126.868C34.5298 129.128 38.1223 130.065 41.337 130.141C42.5473 130.169 44.8145 130.278 45.8605 129.542C48.3029 127.821 45.6031 127.745 45.8331 125.779C45.8824 125.365 46.2274 125.055 46.4629 124.706C47.5582 123.083 46.4465 120.241 46.4848 118.394C46.5505 115.323 47.1474 111.162 47.706 108.14C47.8101 107.579 47.6896 105.493 48.2153 105.253C49.6775 108.766 50.9316 115.53 52.224 119.2C52.4102 119.734 52.6019 120.317 52.4048 120.845C52.2459 121.281 51.8462 121.618 51.7695 122.076C51.6216 122.958 52.6786 123.514 53.5384 123.775C52.3555 125.632 53.5712 128.268 55.5208 129.308C57.4704 130.348 59.8307 130.179 62.0049 129.782C63.3137 129.542 64.6883 129.183 65.6028 128.219C66.5174 127.255 66.7091 125.507 65.6576 124.69C66.6926 124.445 66.6269 122.975 66.386 121.945C65.0443 116.162 65.3345 108.695 65.0059 102.781C64.6554 96.3766 64.2995 89.9776 63.949 83.5732C63.8449 81.6671 46.1069 80.7848 43.9821 80.7576C39.9241 80.7086 30.3459 79.5268 29.0425 84.5589C28.4729 86.7481 29.382 90.0157 29.5737 92.2431C29.8968 95.9354 30.2528 99.6278 30.6416 103.315C30.9592 106.337 31.1947 109.365 31.5562 112.393C31.704 113.629 31.9066 116.025 31.7095 117.267C31.5616 118.209 30.6142 119.255 30.6964 120.197C30.7676 121.014 31.7643 121.444 31.8135 121.967C31.9559 123.497 30.0994 124.358 31.6438 126.318C31.8081 126.514 31.9778 126.694 32.1531 126.868Z" fill="#356E77"/>
<path d="M48.0674 105.15C51.2054 103.799 54.4748 102.754 57.8099 102.029" stroke="#333333" stroke-width="0.5" stroke-miterlimit="10" stroke-linecap="round" stroke-linejoin="round"/>
<path d="M49.4092 105.215C52.9524 105.656 56.5011 106.092 60.0443 106.533" stroke="#333333" stroke-width="0.5" stroke-miterlimit="10" stroke-linecap="round" stroke-linejoin="round"/>
<path d="M33.1221 123.715C36.1012 125.741 40.0442 126.307 43.4779 125.196" stroke="#333333" stroke-width="0.5" stroke-miterlimit="10" stroke-linecap="round" stroke-linejoin="round"/>
<path d="M35.0936 121.319C38.133 121.836 41.2983 121.586 44.2118 120.6" stroke="#333333" stroke-width="0.5" stroke-miterlimit="10" stroke-linecap="round" stroke-linejoin="round"/>
<path d="M54.8524 124.32C57.3113 125.262 60.1042 125.294 62.585 124.412" stroke="#333333" stroke-width="0.5" stroke-miterlimit="10" stroke-linecap="round" stroke-linejoin="round"/>
<path d="M31.3923 60.3791C31.2772 61.3321 31.1896 62.2797 31.102 63.2C30.7187 67.1974 30.2641 71.1892 29.7329 75.1757C29.3112 78.3561 29.3769 81.9232 28.1009 84.9021C27.6574 85.9314 27.0604 86.9443 27.0331 88.0607C26.9947 89.651 28.4076 90.3535 29.6508 90.8545C29.8315 89.395 30.1272 87.9845 30.7734 86.6448C30.6803 88.2459 30.6529 90.0267 31.7154 91.2303C32.0166 91.5679 32.3835 91.8402 32.7504 92.1071C37.1972 95.3311 41.8686 100.189 47.3504 101.507C50.3898 102.237 53.7031 101.746 56.3974 100.167C60.3295 97.8634 65.1377 92.8423 64.9351 88.1424C64.6613 81.9014 64.3875 75.6603 64.1137 69.4193C63.8837 64.2402 64.5408 57.8521 62.4434 53.0053C61.2112 50.157 58.0349 48.9589 55.1872 48.3762C52.3887 47.7989 49.5191 47.5539 46.6604 47.6519C43.4567 47.7608 37.3889 48.0821 35.1983 50.4075C32.6244 53.1468 31.8249 56.7902 31.3923 60.3791Z" fill="#BFCC73"/>
<path d="M64.2013 71.6032C64.2287 68.5154 64.2561 65.4221 64.2834 62.3342" stroke="#333333" stroke-width="0.5" stroke-miterlimit="10" stroke-linecap="round" stroke-linejoin="round"/>
<path d="M34.6339 82.6694C37.2406 87.1133 39.9569 91.6879 44.119 94.7431C48.281 97.8037 54.2996 98.9691 58.6204 96.1372" stroke="#333333" stroke-width="0.5" stroke-miterlimit="10" stroke-linecap="round" stroke-linejoin="round"/>
<path d="M41.6769 89.7109C44.6779 92.9731 49.875 93.986 53.8892 92.1017" stroke="#333333" stroke-width="0.5" stroke-miterlimit="10" stroke-linecap="round" stroke-linejoin="round"/>
<path d="M57.2466 61.9476C57.7231 62.2253 58.9826 67.2574 58.9826 67.2574L61.6004 67.8019C61.6004 67.8019 60.4175 74.0484 52.4165 74.4896C44.4155 74.9252 42.0606 67.8128 42.0606 67.8128L45.111 67.4153C45.111 67.4153 45.0398 62.3016 45.8722 62.2308C46.7046 62.16 48.3365 64.4636 48.3365 64.4636L54.9465 64.4745C54.952 64.4745 56.7702 61.6698 57.2466 61.9476Z" fill="#F2FFA6"/>
<path d="M22.0934 63.4779C21.8962 63.7012 21.6936 63.919 21.4746 64.126C20.8886 64.676 20.2205 65.1389 19.6235 65.6835C17.7506 67.4099 16.8908 69.6263 14.5031 70.7264C14.0705 70.9279 13.5831 71.0695 13.2874 71.4398C13.1176 71.6522 13.03 71.9191 12.8657 72.1369C12.3454 72.8449 11.1023 72.5236 10.5218 73.2969C10.3082 73.5801 10.2261 73.9395 10.1987 74.2935C10.0946 75.508 10.5765 76.7169 11.2994 77.7027C12.0223 78.6884 12.9697 79.4835 13.9281 80.2459C14.8865 81.0138 15.9325 81.7871 17.1592 81.9178C17.5316 81.9559 17.9259 81.9287 18.2435 81.7381C18.5009 81.5856 18.6871 81.3406 18.8788 81.1118C20.7407 78.9117 23.9718 77.5937 26.2883 75.8674C28.9115 73.9123 30.8008 72.1696 32.7231 69.5229C34.7548 66.7237 36.6496 63.614 37.953 60.4118C38.7197 58.533 39.1688 56.518 39.3221 54.4975C39.3604 53.9638 40.516 48.2402 39.9738 48.311C35.8172 48.861 32.9202 49.3457 29.9191 52.3518C27.5314 54.7426 25.6969 57.7488 24.0485 60.5589C23.4625 61.5718 22.8601 62.5956 22.0934 63.4779Z" fill="#BFCC73"/>
<path d="M4.2513 77.6047C3.24912 78.4542 3.49008 78.4542 2.4879 79.3038C2.17575 79.5707 1.85264 79.843 1.63906 80.1915C1.42549 80.54 1.32691 80.9921 1.4912 81.3678C1.18452 81.7055 0.866894 82.0486 0.675221 82.4625C0.483547 82.8763 0.428783 83.3774 0.642362 83.7804C0.686173 83.8675 0.746414 83.9492 0.75189 84.0472C0.757367 84.1289 0.729985 84.2106 0.719032 84.2923C0.675221 84.5864 0.8888 84.875 1.15714 85.0112C1.42549 85.1473 1.73764 85.1691 2.03884 85.1691C2.04432 85.4196 2.2798 85.6102 2.52076 85.6701C2.84935 85.7572 3.20531 85.681 3.50651 85.5231C3.80771 85.3706 4.07058 85.1419 4.32797 84.9186C4.82632 84.4883 5.37396 83.7913 5.81755 83.5244C6.72663 82.9635 7.64666 82.3426 8.7748 82.5387C9.17457 82.6095 9.62364 82.8437 9.65102 83.2521C9.6784 83.6932 9.20743 83.9819 8.81861 84.1997C8.27644 84.5101 7.77809 84.9022 7.34546 85.3542C7.04973 85.6647 6.77044 86.1058 6.94568 86.4979C7.15379 86.9554 7.78905 86.9717 8.28192 86.8954C9.23481 86.743 10.4615 86.5741 11.2666 86.0513C12.1975 85.4468 13.0464 84.6136 13.824 83.8348C15.111 82.5496 15.927 80.8886 16.8689 79.3528C16.3541 77.3542 14.8207 75.6441 12.8876 74.898C12.7835 74.8599 12.6795 74.8218 12.5699 74.8327C12.4549 74.849 12.3564 74.9144 12.2578 74.9797C9.85912 76.6299 6.57877 75.6333 4.2513 77.6047Z" fill="#F2B27E"/>
<path d="M2.13788 85.0438C3.35911 83.4318 3.56722 82.8328 5.17727 81.6074" stroke="#333333" stroke-width="0.5" stroke-miterlimit="10" stroke-linecap="round" stroke-linejoin="round"/>
<path d="M0.894714 83.8677C2.36239 82.174 2.80597 81.5096 4.64604 80.2244" stroke="#333333" stroke-width="0.5" stroke-miterlimit="10" stroke-linecap="round" stroke-linejoin="round"/>
<path d="M1.75409 81.2808C2.96985 80.0391 3.05199 79.745 4.45942 78.7212" stroke="#333333" stroke-width="0.5" stroke-miterlimit="10" stroke-linecap="round" stroke-linejoin="round"/>
<path d="M29.8753 72.7033C32.4054 69.8878 34.9355 67.0668 37.4656 64.2512" stroke="#333333" stroke-width="0.5" stroke-miterlimit="10" stroke-linecap="round" stroke-linejoin="round"/>
<path d="M58.9932 2.72841C60.1488 2.30908 61.025 1.21444 61.1783 0C58.3306 1.68824 54.7874 1.56298 51.4961 1.21444C48.1993 0.865904 44.782 0.353986 41.6386 1.40505C39.9628 1.96598 38.4185 3.1532 37.4656 4.61815C35.5105 4.33496 33.654 5.88161 32.4054 7.47727C31.0801 9.1764 29.826 11.1805 27.7614 11.8122C28.9334 12.689 30.5599 12.9286 31.9344 12.4276C25.7242 17.4869 24.4592 27.5401 29.2127 33.9717C30.7625 36.063 32.8545 37.822 33.8293 40.2291C34.3112 41.4109 33.8457 43.3769 32.6025 43.0556C34.1524 43.8398 36.1622 43.6056 37.4875 42.4837C37.0768 45.5825 40.3188 47.9841 43.3855 48.6867C44.9463 49.0461 46.644 49.155 48.0952 48.4743C49.541 47.7935 50.6144 46.138 50.1872 44.6022C53.1226 45.5335 56.5234 44.8473 58.8509 42.8432C61.1838 40.8391 62.3612 37.5933 61.8574 34.5708C67.7062 32.7137 71.6382 26.2058 70.5539 20.199C71.1234 21.457 72.4761 22.3229 73.8671 22.312C74.3162 13.4406 67.6952 4.72163 58.9932 2.72841Z" fill="#9A5B2F"/>
<path d="M56.9561 50.8106C56.392 50.2715 55.9429 49.6506 55.6801 48.9372C54.6286 46.089 56.4358 44.1284 56.4358 44.1284L46.6057 39.2761C46.6057 39.2761 47.0986 46.0672 45.5214 48.5996C45.5214 48.5996 47.4052 52.1503 51.7754 52.8746C56.1456 53.6044 57.6954 51.524 56.9561 50.8106Z" fill="#EEB07E"/>
<mask id="mask0_229_16443" style="mask-type:luminance" maskUnits="userSpaceOnUse" x="45" y="41" width="16" height="12">
<path d="M59.8218 48.3456C59.0874 48.0764 58.4249 47.6865 57.8949 47.1375C55.7773 44.9463 56.6328 42.4286 56.6328 42.4286L45.6783 41.9016C45.6783 41.9016 48.8865 47.9293 48.4734 50.8793C48.4734 50.8793 51.6371 53.3824 55.9252 52.3034C60.2156 51.2295 60.7872 48.7047 59.8218 48.3456Z" fill="white"/>
</mask>
<g mask="url(#mask0_229_16443)">
<path opacity="0.7" d="M55.7517 50.2068C59.1803 48.7098 60.4877 44.1717 58.6718 40.0707C56.8559 35.9698 52.6043 33.8588 49.1757 35.3558C45.747 36.8528 44.4396 41.3909 46.2555 45.4919C48.0715 49.5929 52.323 51.7038 55.7517 50.2068Z" fill="#EEB07E"/>
</g>
<path d="M42.8379 9.02386C39.3549 11.3003 36.9782 14.7475 35.8227 18.8647C35.7624 19.0825 35.7022 19.3003 35.6474 19.5182C34.2838 24.9641 34.9081 30.8621 37.2849 35.9486C38.2104 37.92 39.0428 39.7335 40.6474 41.2584C44.1687 44.6022 48.7305 47.5865 53.6428 48.0984C60.5705 48.8282 64.8585 44.4551 66.1235 42.5381C67.9417 39.788 67.5638 36.9887 67.3393 33.9009C67.0162 29.4897 68.7631 25.1275 68.5331 20.7108C68.3141 16.5066 66.2111 12.4385 62.8979 9.81897C61.9122 9.0402 60.8114 8.40847 59.6559 7.90744C55.2255 5.98503 49.7217 5.73996 45.264 7.70594C44.4042 8.08716 43.5937 8.52828 42.8379 9.02386Z" fill="#EEB07E"/>
<mask id="mask1_229_16443" style="mask-type:luminance" maskUnits="userSpaceOnUse" x="34" y="6" width="35" height="43">
<path d="M42.8379 9.02386C39.3549 11.3003 36.9782 14.7475 35.8227 18.8647C35.7624 19.0825 35.7022 19.3003 35.6474 19.5182C34.2838 24.9641 34.9081 30.8621 37.2849 35.9486C38.2104 37.92 39.0428 39.7335 40.6474 41.2584C44.1687 44.6022 48.7305 47.5865 53.6428 48.0984C60.5705 48.8282 64.8585 44.4551 66.1235 42.5381C67.9417 39.788 67.5638 36.9887 67.3393 33.9009C67.0162 29.4897 68.7631 25.1275 68.5331 20.7108C68.3141 16.5066 66.2111 12.4385 62.8979 9.81897C61.9122 9.0402 60.8114 8.40847 59.6559 7.90744C55.2255 5.98503 49.7217 5.73996 45.264 7.70594C44.4042 8.08716 43.5937 8.52828 42.8379 9.02386Z" fill="white"/>
</mask>
<g mask="url(#mask1_229_16443)">
<path d="M51.94 38.2905C51.2664 40.6322 48.8076 41.9883 46.4527 41.313C44.0979 40.6431 42.7342 38.1979 43.4133 35.8562C44.0869 33.5144 46.5458 32.1584 48.9006 32.8337C51.2555 33.509 52.6136 35.9487 51.94 38.2905Z" fill="url(#paint0_radial_229_16443)"/>
</g>
<mask id="mask2_229_16443" style="mask-type:luminance" maskUnits="userSpaceOnUse" x="34" y="6" width="35" height="43">
<path d="M42.8379 9.02386C39.3549 11.3003 36.9782 14.7475 35.8227 18.8647C35.7624 19.0825 35.7022 19.3003 35.6474 19.5182C34.2838 24.9641 34.9081 30.8621 37.2849 35.9486C38.2104 37.92 39.0428 39.7335 40.6474 41.2584C44.1687 44.6022 48.7305 47.5865 53.6428 48.0984C60.5705 48.8282 64.8585 44.4551 66.1235 42.5381C67.9417 39.788 67.5638 36.9887 67.3393 33.9009C67.0162 29.4897 68.7631 25.1275 68.5331 20.7108C68.3141 16.5066 66.2111 12.4385 62.8979 9.81897C61.9122 9.0402 60.8114 8.40847 59.6559 7.90744C55.2255 5.98503 49.7217 5.73996 45.264 7.70594C44.4042 8.08716 43.5937 8.52828 42.8379 9.02386Z" fill="white"/>
</mask>
<g mask="url(#mask2_229_16443)">
<path d="M70.6853 38.2902C70.0118 40.632 67.5529 41.988 65.198 41.3127C62.8432 40.6429 61.4795 38.1977 62.1586 35.8559C62.8322 33.5142 65.2911 32.1581 67.646 32.8334C70.0008 33.5087 71.3644 35.9485 70.6853 38.2902Z" fill="url(#paint1_radial_229_16443)"/>
</g>
<path d="M52.5916 30.4318C52.5916 31.6626 51.7045 32.6646 50.6037 32.6646C49.5084 32.6646 48.6158 31.6626 48.6158 30.4318C48.6158 29.201 49.503 28.199 50.6037 28.199C51.7045 28.199 52.5916 29.1956 52.5916 30.4318Z" fill="black"/>
<path d="M64.7873 30.4318C64.7873 31.6626 63.9932 32.6646 63.0129 32.6646C62.0327 32.6646 61.2386 31.6626 61.2386 30.4318C61.2386 29.201 62.0327 28.199 63.0129 28.199C63.9932 28.199 64.7873 29.1956 64.7873 30.4318Z" fill="black"/>
<path d="M59.2068 29.7783C58.5332 31.4175 58.9823 33.4489 60.2857 34.6579C60.6252 34.9683 61.025 35.246 61.2057 35.6708C61.4029 36.1283 61.2879 36.6674 61.025 37.0868C60.7621 37.5061 60.3624 37.822 59.9571 38.1106" stroke="black" stroke-width="0.5" stroke-miterlimit="10" stroke-linecap="round" stroke-linejoin="round"/>
<path d="M51.748 22.5734C50.3296 22.7858 48.2869 23.7715 46.8357 25.1493C46.7316 25.2473 46.8412 25.4162 46.9726 25.3617C47.8269 25.0349 49.5191 24.4468 51.3099 24.2017C53.1938 23.9403 54.426 24.0057 54.9188 24.0492C55.0229 24.0601 55.0941 23.9458 55.0448 23.8586C54.2726 22.5407 53.2321 22.3501 51.748 22.5734Z" fill="#9A5B2F"/>
<path d="M63.6925 22.6277C64.7549 22.802 66.2664 23.7278 67.3233 25.062C67.4 25.1546 67.3124 25.3289 67.2138 25.2799C66.5785 24.9749 65.319 24.4358 63.9773 24.2397C62.5644 24.0328 61.6334 24.1253 61.261 24.1852C61.1843 24.1961 61.1295 24.0872 61.1734 24.0001C61.7867 22.6658 62.5753 22.448 63.6925 22.6277Z" fill="#9A5B2F"/>
<path d="M53.7964 42.2549C54.6781 42.9683 55.8556 43.3005 56.9782 43.1535" stroke="black" stroke-width="0.5" stroke-miterlimit="10" stroke-linecap="round" stroke-linejoin="round"/>
<path d="M49.7652 28.4549C50.4388 28.0574 51.2986 28.0192 52.0269 28.3133C52.7498 28.6074 53.3303 29.2119 53.6425 29.9253" stroke="black" stroke-width="0.5" stroke-miterlimit="10" stroke-linecap="round" stroke-linejoin="round"/>
<path d="M62.4051 28.3842C62.9911 28.1228 63.6592 28.052 64.2506 28.2862C64.8421 28.5204 65.3404 29.0759 65.4773 29.7675" stroke="black" stroke-width="0.5" stroke-miterlimit="10" stroke-linecap="round" stroke-linejoin="round"/>
<path d="M51.8736 38.2141C51.8736 38.2141 52.1474 40.9861 55.0116 41.9555C57.8757 42.9248 60.1156 40.594 60.1156 40.594C60.1156 40.594 56.3423 40.1583 51.8736 38.2141Z" fill="black"/>
<mask id="mask3_229_16443" style="mask-type:luminance" maskUnits="userSpaceOnUse" x="51" y="38" width="10" height="5">
<path d="M51.8736 38.2141C51.8736 38.2141 52.1474 40.9861 55.0116 41.9555C57.8757 42.9248 60.1156 40.594 60.1156 40.594C60.1156 40.594 56.3423 40.1583 51.8736 38.2141Z" fill="white"/>
</mask>
<g mask="url(#mask3_229_16443)">
<path d="M55.5697 39.5758C57.0209 41.2096 57.3331 43.2899 56.2652 44.2266C55.2028 45.1633 53.1601 44.5969 51.7143 42.9632C50.2631 41.3294 49.9509 39.249 51.0188 38.3123C52.0812 37.3756 54.1184 37.942 55.5697 39.5758Z" fill="#D4644D"/>
</g>
<mask id="mask4_229_16443" style="mask-type:luminance" maskUnits="userSpaceOnUse" x="51" y="38" width="10" height="5">
<path d="M51.8736 38.2141C51.8736 38.2141 52.1474 40.9861 55.0116 41.9555C57.8757 42.9248 60.1156 40.594 60.1156 40.594C60.1156 40.594 56.3423 40.1583 51.8736 38.2141Z" fill="white"/>
</mask>
<g mask="url(#mask4_229_16443)">
<path d="M51.1949 37.762C51.1949 37.762 52.7009 39.5483 56.4303 40.4196C60.1543 41.291 59.0918 38.1051 59.0918 38.1051L52.0656 36.4277L51.1949 37.762Z" fill="white"/>
</g>
<path d="M40.593 27.5999C41.4089 25.4325 41.7868 23.0526 43.134 21.1628C43.1011 22.8565 42.6959 24.5448 41.9511 26.0642C46.4144 23.1833 51.1405 20.0029 53.1229 15.0906C53.4625 16.7571 52.6684 18.5978 51.2171 19.5018C55.0178 20.2479 59.1908 18.5052 61.3211 15.2867C61.3156 17.1601 60.2149 18.9899 58.5555 19.8776C60.7954 20.3895 63.3254 20.7272 65.2312 19.4528C67.1808 18.1512 67.8106 15.4283 67.148 13.19C66.4853 10.9517 64.7657 9.15455 62.8435 7.8094C55.8173 2.89172 45.341 3.64326 39.0979 9.51398C35.2261 13.1464 33.2436 18.5161 33.3641 23.766C33.4079 25.6122 33.627 30.1486 35.2425 31.4175C37.6029 33.2692 39.8591 29.5496 40.593 27.5999Z" fill="#9A5B2F"/>
<path d="M38.0625 30.8131C39.6507 33.2692 40.0559 35.7199 38.3035 36.8363C36.5511 37.9582 33.309 37.321 31.7209 34.8649C30.1327 32.4088 30.2642 29.5115 32.0166 28.3897C33.769 27.2732 36.4799 28.357 38.0625 30.8131Z" fill="#EEB07E"/>
<path d="M30.8885 29.8165C30.8885 29.8165 34.3605 29.5932 38.0571 34.8976" stroke="black" stroke-width="0.5" stroke-miterlimit="10" stroke-linecap="round" stroke-linejoin="round"/>
<path d="M61.1017 3.36011C59.99 3.71409 58.9002 4.14432 57.8378 4.61267C55.1543 5.80533 52.5804 7.24306 50.1708 8.91496C48.4731 10.0913 46.8412 11.382 44.9956 12.3132C40.631 14.5243 35.5324 14.5079 30.6585 13.6094C27.9312 16.4685 26.4416 20.4059 26.3376 24.3651C28.7089 24.9423 31.4087 24.4903 33.6705 23.4502C36.9234 21.958 39.585 19.4692 42.4929 17.3943C47.4052 13.8871 53.2595 11.4854 59.3054 11.3438C64.1466 11.2349 69.1027 12.6944 72.8978 15.6244C71.0139 10.1022 66.6055 5.38055 61.1017 3.36011Z" fill="#5E4028"/>
<path d="M38.988 5.93604C40.724 7.10147 42.1205 8.75703 42.9803 10.6577" stroke="black" stroke-width="0.5" stroke-miterlimit="10" stroke-linecap="round" stroke-linejoin="round"/>
<path d="M41.7047 6.5679C42.1263 5.57674 42.8876 4.73807 43.835 4.2207" stroke="black" stroke-width="0.5" stroke-miterlimit="10" stroke-linecap="round" stroke-linejoin="round"/>
<path d="M43.238 7.40646C43.9554 6.50788 45.2369 6.09398 46.3486 6.39896" stroke="black" stroke-width="0.5" stroke-miterlimit="10" stroke-linecap="round" stroke-linejoin="round"/>
<path d="M39.5031 8.6156C38.3312 8.40866 37.0771 8.76809 36.2009 9.56864" stroke="black" stroke-width="0.5" stroke-miterlimit="10" stroke-linecap="round" stroke-linejoin="round"/>
<path d="M50.8562 33.218C48.9671 33.2091 47.4292 31.7066 47.4277 29.8692C47.4277 28.9713 47.7879 28.127 48.4449 27.4927C49.0988 26.8614 49.9692 26.5129 50.894 26.5129C52.7907 26.5204 54.3301 28.0243 54.3392 29.8647C54.3438 30.7447 53.9941 31.5771 53.3568 32.2084C52.6984 32.8591 51.8174 33.218 50.8759 33.218H50.8562Z" fill="#FEFEFE"/>
<path d="M50.8936 26.8851C50.8981 26.8851 50.9026 26.8851 50.9072 26.8851C52.5859 26.8926 53.9527 28.2267 53.9603 29.8661C53.9694 31.5085 52.5813 32.8457 50.8739 32.8457C50.8678 32.8457 50.8633 32.8457 50.8572 32.8457C49.171 32.8367 47.8071 31.507 47.8056 29.8691C47.8056 28.2193 49.1876 26.8851 50.8936 26.8851ZM50.8936 26.1406C49.8688 26.1406 48.9046 26.5263 48.1795 27.2276C47.4499 27.9319 47.0488 28.87 47.0488 29.8691C47.0503 31.9106 48.7562 33.5798 50.8527 33.5902H50.8724C51.9153 33.5902 52.8931 33.1926 53.6227 32.4704C54.3327 31.7691 54.7217 30.8429 54.7156 29.8632C54.705 27.8187 52.9976 26.1496 50.9087 26.1406H50.8936Z" fill="#9A5B2F"/>
<path d="M51.0648 31.8923C52.4075 31.9012 53.4958 30.8574 53.4958 29.5619C53.4958 28.2888 52.4302 27.2435 51.1148 27.2301C49.7797 27.2152 48.6898 28.265 48.6913 29.5634C48.6913 30.847 49.7494 31.8848 51.0648 31.8923Z" fill="#473321"/>
<path d="M51.0767 30.948C51.8759 30.9539 52.5223 30.333 52.5223 29.5617C52.5223 28.8038 51.888 28.1829 51.1055 28.1739C50.3108 28.165 49.6629 28.7889 49.6629 29.5617C49.6644 30.3256 50.2941 30.9435 51.0767 30.948Z" fill="#252728"/>
<path opacity="0.9" d="M51.8865 28.1755C51.5263 28.1845 51.2099 28.4882 51.2069 28.8292C51.2038 29.1881 51.5369 29.4993 51.9183 29.4918C52.2771 29.4859 52.5995 29.1791 52.5964 28.8456C52.5934 28.4748 52.2665 28.1651 51.8865 28.1755Z" fill="white"/>
<path d="M64 33.2177C62.1109 33.2088 60.573 31.7064 60.5715 29.8689C60.5715 28.9711 60.9317 28.1268 61.5887 27.4925C62.2426 26.8611 63.113 26.5127 64.0378 26.5127C65.9345 26.5201 67.4739 28.024 67.483 29.8645C67.4876 30.7445 67.1379 31.5768 66.5006 32.2082C65.8422 32.8589 64.9612 33.2177 64.0197 33.2177H64Z" fill="#FEFEFE"/>
<path d="M64.0374 26.8849C64.0419 26.8849 64.0464 26.8849 64.051 26.8849C65.7297 26.8923 67.0965 28.2265 67.1041 29.8659C67.1132 31.5083 65.7251 32.8454 64.0177 32.8454C64.0116 32.8454 64.0071 32.8454 64.001 32.8454C62.3148 32.8365 60.9509 31.5068 60.9494 29.8689C60.9494 28.219 62.3314 26.8849 64.0374 26.8849ZM64.0374 26.1404C63.0126 26.1404 62.0484 26.526 61.3233 27.2274C60.5937 27.9317 60.1926 28.8698 60.1926 29.8689C60.1941 31.9103 61.9 33.5795 63.9965 33.5899H64.0162C65.0591 33.5899 66.0369 33.1924 66.7665 32.4702C67.4765 31.7689 67.8655 30.8427 67.8594 29.8629C67.8488 27.8185 66.1414 26.1493 64.0525 26.1404H64.0374Z" fill="#9A5B2F"/>
<path d="M64.2086 31.8918C65.5513 31.9007 66.6396 30.8569 66.6396 29.5615C66.6396 28.2883 65.574 27.243 64.2586 27.2296C62.9235 27.2148 61.8336 28.2645 61.8351 29.5629C61.8351 30.8465 62.8932 31.8843 64.2086 31.8918Z" fill="#473321"/>
<path d="M64.2205 30.9477C65.0197 30.9537 65.6661 30.3328 65.6661 29.5614C65.6661 28.8035 65.0318 28.1826 64.2493 28.1737C63.4546 28.1647 62.8067 28.7886 62.8067 29.5614C62.8082 30.3253 63.4379 30.9433 64.2205 30.9477Z" fill="#252728"/>
<path opacity="0.9" d="M65.0303 28.1753C64.6701 28.1842 64.3537 28.488 64.3507 28.829C64.3476 29.1878 64.6807 29.499 65.0621 29.4916C65.4209 29.4856 65.7433 29.1789 65.7402 28.8454C65.7372 28.4746 65.4103 28.1649 65.0303 28.1753Z" fill="white"/>
</g>
<defs>
<radialGradient id="paint0_radial_229_16443" cx="0" cy="0" r="1" gradientUnits="userSpaceOnUse" gradientTransform="translate(47.6753 37.0765) rotate(-164.087) scale(4.43434 4.4134)">
<stop stop-color="#E69375"/>
<stop offset="1" stop-color="#EEB07E"/>
</radialGradient>
<radialGradient id="paint1_radial_229_16443" cx="0" cy="0" r="1" gradientUnits="userSpaceOnUse" gradientTransform="translate(66.4229 37.0763) rotate(-164.087) scale(4.43434 4.4134)">
<stop stop-color="#E69375"/>
<stop offset="1" stop-color="#EEB07E"/>
</radialGradient>
<clipPath id="clip0_229_16443">
<rect width="93" height="138" fill="white" transform="translate(0.499939)"/>
</clipPath>
</defs>
</svg>
