<svg width="56" height="52" viewBox="0 0 56 52" fill="none" xmlns="http://www.w3.org/2000/svg">
<g clip-path="url(#clip0_166_15103)">
<path d="M21.8702 51.1641C20.7461 51.1641 19.7504 50.8294 18.9914 50.1972C17.3721 48.8483 17.1641 46.5832 17.1793 44.3366C17.1861 43.4543 17.181 42.5364 17.176 41.6489C17.1692 40.3287 17.1624 38.9629 17.1895 37.6072C17.2605 34.0067 17.5749 31.346 18.2071 28.9778C18.5688 27.6238 19.2298 25.7018 20.7968 24.6605C21.647 24.096 22.7323 23.8086 24.022 23.8086C24.2333 23.8086 24.4531 23.817 24.6745 23.8323C25.8324 23.9117 26.8399 24.2025 27.6124 24.6758C28.3849 24.2025 29.3907 23.9117 30.5503 23.8323C30.7717 23.817 30.9915 23.8086 31.2011 23.8086C32.4909 23.8086 33.5761 24.0943 34.4264 24.6605C35.4423 25.3367 36.1979 26.4456 36.7388 28.0515C36.8318 28.3253 36.9197 28.6194 37.0143 28.9761C37.8274 32.0239 37.9863 35.2271 38.0336 37.6782C38.059 39.0035 38.0522 40.3406 38.0438 41.632C38.0387 42.5245 38.0336 43.4492 38.0404 44.3366C38.0455 45.099 38.0336 45.9966 37.895 46.8773C37.6617 48.3716 37.1158 49.4568 36.2283 50.1972C35.471 50.8294 34.4754 51.1624 33.353 51.1624C33.2211 51.1624 33.0859 51.1573 32.9506 51.1489C32.2762 51.1032 31.5814 50.9359 30.9425 50.6671C30.4962 50.4795 29.9468 50.1921 29.6679 49.6275C29.5006 49.2912 29.4752 48.9429 29.4532 48.637C29.4532 48.637 29.3451 47.1292 29.3265 46.8739C28.7399 46.8739 28.1635 46.8671 27.609 46.8519C27.0563 46.8655 26.4782 46.8722 25.8933 46.8739C25.8679 47.2187 25.7665 48.637 25.7665 48.637C25.7462 48.9277 25.7209 49.2895 25.5518 49.6292C25.2729 50.1921 24.7235 50.4812 24.2773 50.6688C23.5048 50.9917 22.6714 51.1641 21.8702 51.1641Z" fill="#90A9D5"/>
<path d="M31.1994 24.317C32.239 24.317 33.2853 24.513 34.144 25.0844C35.214 25.7961 35.8395 26.9759 36.257 28.215C36.3567 28.5108 36.4446 28.8117 36.5241 29.1092C37.2543 31.8443 37.469 34.7669 37.5265 37.6896C37.5687 39.9344 37.518 42.181 37.5332 44.3413C37.54 45.1442 37.5214 45.9911 37.3946 46.7991C37.2121 47.9722 36.7996 49.0625 35.9037 49.808C35.1921 50.4013 34.2843 50.6566 33.3529 50.6566C33.2312 50.6566 33.1095 50.6515 32.9878 50.643C32.3539 50.5991 31.72 50.4436 31.1402 50.2001C30.7328 50.0294 30.3187 49.7978 30.1226 49.4023C30.0009 49.1555 29.9789 48.8732 29.9586 48.5994C29.9417 48.3559 29.9248 48.1125 29.9062 47.8691C29.869 47.3671 29.8335 46.8667 29.798 46.3647C29.6544 46.3647 29.5124 46.3664 29.3687 46.3664C28.7821 46.3664 28.1956 46.3596 27.609 46.3444C27.0224 46.3596 26.4359 46.3664 25.8493 46.3664C25.7056 46.3664 25.5636 46.3664 25.4199 46.3647C25.3675 47.1101 25.3135 47.8539 25.2594 48.5994C25.2408 48.8732 25.2188 49.1555 25.0971 49.4023C24.901 49.7961 24.4869 50.0294 24.0795 50.2001C23.3898 50.4892 22.6224 50.6566 21.8684 50.6566C20.9354 50.6566 20.0259 50.4013 19.3143 49.808C17.8014 48.5486 17.6712 46.3106 17.6847 44.3413C17.7 42.1573 17.6476 39.8871 17.6932 37.6186C17.7507 34.7196 17.9687 31.8223 18.6922 29.1092C19.103 27.5676 19.7453 25.9668 21.0723 25.0844C21.931 24.513 22.979 24.317 24.0169 24.317C24.2232 24.317 24.4294 24.3254 24.6339 24.3389C25.682 24.4116 26.779 24.6753 27.6073 25.2889C28.4339 24.6753 29.5327 24.4116 30.5807 24.3389C30.7869 24.3237 30.9931 24.317 31.1994 24.317ZM31.1994 23.3027C30.9762 23.3027 30.7464 23.3112 30.5131 23.3264C29.3822 23.4042 28.4085 23.6611 27.609 24.0905C26.8094 23.6611 25.8358 23.4042 24.7049 23.3264C24.4716 23.3112 24.2417 23.3027 24.0186 23.3027C22.6257 23.3027 21.4475 23.6171 20.5128 24.2392C18.8021 25.3751 18.0972 27.4137 17.7135 28.8472C17.0711 31.256 16.7517 33.9555 16.679 37.5966C16.6519 38.9574 16.6587 40.3266 16.6654 41.6502C16.6705 42.5359 16.6756 43.4538 16.6688 44.3328C16.6519 46.7027 16.8818 49.1014 18.6635 50.5856C19.5154 51.2938 20.6226 51.6691 21.8668 51.6691C22.7356 51.6691 23.6349 51.4831 24.47 51.1332C24.9568 50.9287 25.6465 50.572 26.0031 49.8502C26.2161 49.4209 26.2465 48.9865 26.2685 48.6687L26.3226 47.9232C26.3361 47.7406 26.3497 47.5598 26.3615 47.3772C26.7841 47.3738 27.1999 47.3671 27.6056 47.3586C28.0113 47.3688 28.4271 47.3755 28.8497 47.3772C28.8599 47.5276 28.8717 47.6781 28.8819 47.8285L28.8903 47.9418L28.941 48.6687C28.9647 48.9898 28.9968 49.426 29.2081 49.8519C29.5648 50.5737 30.2544 50.9287 30.7413 51.1332C31.431 51.424 32.1815 51.6032 32.9134 51.6539C33.0571 51.664 33.2042 51.6691 33.3479 51.6691C34.592 51.6691 35.6992 51.2938 36.5494 50.5856C37.5366 49.764 38.1401 48.5757 38.392 46.9546C38.5356 46.0384 38.5492 45.1155 38.5424 44.3328C38.5356 43.4487 38.5407 42.5275 38.5458 41.635C38.5526 40.3401 38.5593 38.9997 38.5356 37.6676C38.4883 35.1878 38.326 31.944 37.4994 28.8455C37.3997 28.4753 37.3101 28.1727 37.2138 27.8871C36.6357 26.1713 35.8141 24.9762 34.7019 24.2358C33.7721 23.6171 32.5923 23.3027 31.1994 23.3027Z" fill="#4C5A70"/>
<path opacity="0.1" d="M37.5333 44.3416C37.5384 45.1446 37.5198 45.9914 37.3947 46.7994C37.2121 47.9726 36.7997 49.0612 35.9055 49.8083C35.1008 50.4794 34.0443 50.7178 32.9879 50.6434C33.6877 49.9588 34.3165 49.2065 34.8456 48.3833C35.8328 46.8417 36.4396 45.0837 36.7388 43.2834C37.0499 41.4206 36.8419 39.5832 37.0498 37.7238C37.0921 37.3451 37.1141 36.8431 37.3575 36.5371C37.6787 36.8228 37.5282 37.7085 37.5333 38.1075C37.5434 38.7972 37.5451 39.4868 37.5434 40.1765C37.5418 41.5643 37.5248 42.9521 37.5333 44.3416Z" fill="#455263"/>
<path opacity="0.1" d="M17.6797 44.3416C17.6746 45.1446 17.6932 45.9914 17.8183 46.7994C18.0009 47.9726 18.4133 49.0612 19.3075 49.8083C20.1122 50.4794 21.1687 50.7178 22.2251 50.6434C21.5253 49.9588 20.8965 49.2065 20.3674 48.3833C19.3802 46.8417 18.7734 45.0837 18.4742 43.2834C18.1631 41.4206 18.3711 39.5832 18.1631 37.7238C18.1209 37.3451 18.0989 36.8431 17.8555 36.5371C17.5343 36.8228 17.6848 37.7085 17.6797 38.1075C17.6696 38.7972 17.6679 39.4868 17.6696 40.1765C17.6729 41.5643 17.6898 42.9521 17.6797 44.3416Z" fill="#455263"/>
<path d="M23.3205 45.6533C23.3205 45.6533 27.1509 48.2075 32.2593 45.6533H23.3205Z" fill="#ABB7CE"/>
<path d="M23.3205 45.6533C23.3205 45.6533 27.1509 48.2075 32.2593 45.6533" stroke="#65738C" stroke-width="1.01423" stroke-miterlimit="10" stroke-linecap="round" stroke-linejoin="round"/>
<path opacity="0.1" d="M37.3947 46.7988C37.2121 47.972 36.7997 49.0606 35.9054 49.8077C34.6174 50.8811 32.6853 50.849 31.1403 50.1999C30.7346 50.0292 30.3187 49.7976 30.1243 49.402C30.0026 49.1552 29.9806 48.8729 29.9604 48.5991C29.9435 48.3557 29.9249 48.1123 29.908 47.8688C30.5774 47.9584 31.2518 47.9889 31.9263 47.9703C33.549 47.9246 35.1583 47.5899 36.6881 47.0541C36.7625 47.0287 37.0448 46.929 37.3947 46.7988Z" fill="#455263"/>
<path opacity="0.1" d="M17.8268 46.7988C18.0093 47.972 18.4218 49.0606 19.316 49.8077C20.6041 50.8811 22.5362 50.849 24.0812 50.1999C24.4869 50.0292 24.9027 49.7976 25.0971 49.402C25.2188 49.1552 25.2408 48.8729 25.2611 48.5991C25.278 48.3557 25.2966 48.1123 25.3135 47.8688C24.6441 47.9584 23.9696 47.9889 23.2952 47.9703C21.6724 47.9246 20.0632 47.5899 18.5334 47.0541C18.4607 47.0287 18.1767 46.929 17.8268 46.7988Z" fill="#455263"/>
<path opacity="0.34" d="M27.6361 46.1757C29.9271 46.1757 31.7843 44.7029 31.7843 42.8862C31.7843 41.0694 29.9271 39.5967 27.6361 39.5967C25.3451 39.5967 23.4879 41.0694 23.4879 42.8862C23.4879 44.7029 25.3451 46.1757 27.6361 46.1757Z" fill="white"/>
<path d="M41.3722 22.3059C38.7538 22.3059 36.3788 21.0567 34.6817 18.7899C33.02 16.5704 32.447 14.28 32.9811 11.9861C33.5964 9.33896 35.7128 6.64787 39.2694 3.98382C40.0909 3.37021 40.9986 2.90197 41.9706 2.59263C42.8767 2.30527 43.8097 2.1582 44.7445 2.1582C49.6821 2.1582 54.2276 6.29627 54.8733 11.3826C55.0322 12.6301 54.9477 13.8709 54.6231 15.0727C54.4727 15.6289 54.1938 16.4166 53.5041 16.846C53.2573 16.9981 52.9666 17.0792 52.6589 17.0792C52.549 17.0792 52.4425 17.0691 52.3411 17.0488C52.1095 18.6834 50.5087 19.8346 49.9087 20.2673C48.7626 21.0905 47.5117 21.2629 46.3014 21.4303C45.6269 21.5233 44.9288 21.6196 44.2729 21.8309C43.2925 22.1453 42.3171 22.3059 41.3722 22.3059Z" fill="#90A9D5"/>
<path d="M44.7445 2.66658C49.5418 2.66658 53.7677 6.70998 54.3712 11.4481C54.5166 12.5874 54.4506 13.769 54.1345 14.9422C53.9807 15.5118 53.739 16.1051 53.237 16.4162C53.0679 16.521 52.8617 16.5734 52.6588 16.5734C52.2633 16.5734 51.8745 16.3773 51.7714 16.002C52.2396 17.6992 50.8129 18.9923 49.6111 19.8561C47.9444 21.0546 45.9852 20.7452 44.1156 21.3487C43.1792 21.6513 42.2596 21.8 41.3738 21.8C38.9211 21.8 36.7168 20.6624 35.0907 18.4886C33.6674 16.5886 32.9304 14.4553 33.478 12.1023C34.0257 9.74929 35.8598 7.17483 39.5769 4.39246C40.3697 3.79913 41.2335 3.36301 42.1277 3.07903C43.005 2.79673 43.8841 2.66658 44.7445 2.66658ZM44.7445 1.65234C43.7573 1.65234 42.7718 1.80617 41.8167 2.11044C40.7923 2.43668 39.8339 2.93028 38.9667 3.57769C35.3104 6.31443 33.1298 9.10356 32.4875 11.8707C31.9195 14.3184 32.5213 16.7492 34.2759 19.0937C36.0694 21.4924 38.5898 22.8126 41.3721 22.8126C42.3712 22.8126 43.3972 22.6452 44.425 22.3139C45.0403 22.1161 45.6843 22.0266 46.3672 21.9336C47.5792 21.7662 48.9535 21.5786 50.201 20.681C50.7977 20.2517 52.2988 19.1732 52.7467 17.5859C53.1152 17.5707 53.4668 17.4659 53.7677 17.2783C54.6095 16.7559 54.9375 15.8465 55.1099 15.2075C55.4514 13.9414 55.5409 12.6331 55.3736 11.3213C55.049 8.77056 53.7863 6.36007 51.817 4.53783C49.8105 2.67672 47.2986 1.65234 44.7445 1.65234Z" fill="#4C5A70"/>
<path d="M44.665 6.4753C45.4088 6.34683 46.1762 6.4584 46.9082 6.64096C47.9325 6.89621 48.9586 7.31204 49.6719 8.08962C50.223 8.68801 50.5509 9.60589 50.1621 10.3209C49.7683 9.97947 49.3727 9.63632 48.9789 9.29486C49.9965 10.3987 50.4563 11.9775 50.2551 13.465C50.054 14.9526 49.2088 16.3302 48.0137 17.238C47.3206 17.7637 46.4737 18.1457 45.6066 18.0882C45.0251 18.0494 44.4706 17.8161 43.9753 17.5068C40.7112 15.4631 39.8863 7.30359 44.665 6.4753Z" fill="#455263"/>
<path opacity="0.22" d="M50.3802 5.54066C50.6068 5.73337 50.8181 6.12216 50.5662 6.28105C50.431 6.36557 50.2569 6.30303 50.1098 6.24048C47.9038 5.29556 45.3801 4.63462 43.1285 5.4646C42.8293 5.57447 42.4659 5.70294 42.2174 5.50179C42.0348 5.35472 42.0044 5.07581 42.0923 4.85775C42.1785 4.63969 42.3594 4.47403 42.5453 4.33373C44.9879 2.48445 48.2909 3.76745 50.3802 5.54066Z" fill="white"/>
<path d="M14.0859 22.3059C13.1409 22.3059 12.1656 22.1453 11.1886 21.8309C10.531 21.6196 9.83286 21.5233 9.1584 21.4303C7.94808 21.2646 6.6972 21.0922 5.55112 20.2673C3.77283 18.9894 3.22515 17.867 3.10513 17.0522C3.00709 17.0708 2.90566 17.0792 2.80086 17.0792C2.49321 17.0792 2.20077 16.9981 1.95567 16.846C1.26599 16.4183 0.987077 15.6289 0.836633 15.0727C0.512079 13.8709 0.42756 12.6285 0.586456 11.3826C1.23387 6.29627 5.77763 2.1582 10.7152 2.1582C11.65 2.1582 12.5831 2.30358 13.4892 2.59263C14.4594 2.90028 15.3689 3.36852 16.1887 3.98382C19.747 6.64618 21.8633 9.33896 22.4786 11.9861C23.0111 14.2816 22.4398 16.5704 20.7781 18.7916C19.0793 21.0567 16.7043 22.3059 14.0859 22.3059Z" fill="#90A9D5"/>
<path d="M10.7136 2.66658C11.574 2.66658 12.453 2.79673 13.3337 3.07565C14.2279 3.35963 15.0917 3.79575 15.8845 4.38908C19.6016 7.17145 21.4357 9.74591 21.9834 12.0989C22.5311 14.4519 21.7924 16.5852 20.3708 18.4852C18.7429 20.6607 16.5404 21.7967 14.0876 21.7967C13.2018 21.7967 12.2823 21.6479 11.3458 21.3453C9.47454 20.7419 7.51538 21.0512 5.85035 19.8527C4.65018 18.9889 3.22181 17.6958 3.69004 15.9986C3.58693 16.3739 3.19814 16.57 2.80259 16.57C2.59974 16.57 2.39352 16.5176 2.22448 16.4128C1.72412 16.1018 1.48071 15.5084 1.32688 14.9388C1.00909 13.7656 0.944856 12.5841 1.09023 11.4447C1.69032 6.70829 5.91628 2.66658 10.7136 2.66658ZM10.7136 1.65234C8.15942 1.65234 5.64751 2.67672 3.63764 4.53614C1.67003 6.35838 0.405623 8.76887 0.0810689 11.3197C-0.0862793 12.6331 0.00331116 13.9398 0.344769 15.2059C0.518879 15.8448 0.845123 16.7542 1.68694 17.2766C1.98782 17.4642 2.33942 17.569 2.70793 17.5842C3.15588 19.1698 4.65694 20.2483 5.25365 20.6793C6.50115 21.5769 7.87544 21.7662 9.08744 21.9319C9.77036 22.0266 10.4161 22.1145 11.0297 22.3122C12.0575 22.6436 13.0852 22.8109 14.0825 22.8109C16.8632 22.8109 19.3836 21.4907 21.1788 19.0921C22.9351 16.7475 23.5369 14.3167 22.9672 11.869C22.3249 9.10187 20.1443 6.31274 16.488 3.576C15.6208 2.92689 14.6623 2.4333 13.638 2.10875C12.6863 1.80617 11.7008 1.65234 10.7136 1.65234Z" fill="#4C5A70"/>
<path d="M10.793 6.4753C10.0492 6.34683 9.28179 6.4584 8.54986 6.64096C7.52548 6.89621 6.49942 7.31204 5.78608 8.08962C5.23501 8.68801 4.90708 9.60589 5.29586 10.3209C5.68972 9.97947 6.08527 9.63632 6.47913 9.29486C5.46152 10.3987 5.00174 11.9775 5.20289 13.465C5.40405 14.9526 6.24924 16.3302 7.44434 17.238C8.1374 17.7637 8.98429 18.1457 9.85145 18.0882C10.4329 18.0494 10.9874 17.8161 11.4827 17.5068C14.7468 15.4631 15.5717 7.30359 10.793 6.4753Z" fill="#455263"/>
<path opacity="0.22" d="M5.07949 5.54066C4.85298 5.73337 4.64168 6.12216 4.89355 6.28105C5.02878 6.36557 5.20289 6.30303 5.34995 6.24048C7.55591 5.29556 10.0797 4.63462 12.3312 5.4646C12.6304 5.57447 12.9939 5.70294 13.2424 5.50179C13.4249 5.35472 13.4554 5.07581 13.3675 4.85775C13.2812 4.63969 13.1004 4.47403 12.9144 4.33373C10.4701 2.48445 7.16712 3.76745 5.07949 5.54066Z" fill="white"/>
<path d="M18.9863 32.4453C17.536 33.2499 16.089 34.0664 14.7215 35.0079C14.4392 35.2023 14.1113 35.4086 13.7766 35.6317C12.6728 36.3653 11.4827 37.2798 11.4996 38.573C11.5081 39.2745 11.8614 39.9709 12.4395 40.3665C13.354 40.9936 14.3767 40.6048 15.3233 40.2972C15.6056 40.2042 15.8845 40.1011 16.16 39.9844C16.9156 39.6666 17.6442 39.2643 18.3237 38.813" fill="#90A9D5"/>
<path d="M18.9863 32.4453C17.536 33.2499 16.089 34.0664 14.7215 35.0079C14.4392 35.2023 14.1113 35.4086 13.7766 35.6317C12.6728 36.3653 11.4827 37.2798 11.4996 38.573C11.5081 39.2745 11.8614 39.9709 12.4395 40.3665C13.354 40.9936 14.3767 40.6048 15.3233 40.2972C15.6056 40.2042 15.8845 40.1011 16.16 39.9844C16.9156 39.6666 17.6442 39.2643 18.3237 38.813" stroke="#4C5A70" stroke-width="1.01423" stroke-miterlimit="10" stroke-linecap="round" stroke-linejoin="round"/>
<path opacity="0.1" d="M13.4841 40.6998C13.1275 40.6896 12.7759 40.5967 12.4395 40.3651C11.8614 39.9695 11.5098 39.2731 11.5013 38.5716C11.4962 38.1845 11.5994 37.8312 11.7752 37.5066C12.2772 37.4542 12.9331 37.9597 13.3404 38.7558C13.7292 39.5148 13.7715 40.3009 13.4841 40.6998Z" fill="#455263"/>
<path d="M36.5224 32.4453C37.9728 33.2499 39.4197 34.0664 40.7872 35.0079C41.0695 35.2023 41.3975 35.4086 41.7322 35.6317C42.836 36.3653 44.026 37.2798 44.0091 38.573C44.0007 39.2745 43.6474 39.9709 43.0693 40.3665C42.1548 40.9936 41.1321 40.6048 40.1855 40.2972C39.9032 40.2042 39.6243 40.1011 39.3487 39.9844C38.5931 39.6666 37.8646 39.2643 37.185 38.813" fill="#90A9D5"/>
<path d="M36.5224 32.4453C37.9728 33.2499 39.4197 34.0664 40.7872 35.0079C41.0695 35.2023 41.3975 35.4086 41.7322 35.6317C42.836 36.3653 44.026 37.2798 44.0091 38.573C44.0007 39.2745 43.6474 39.9709 43.0693 40.3665C42.1548 40.9936 41.1321 40.6048 40.1855 40.2972C39.9032 40.2042 39.6243 40.1011 39.3487 39.9844C38.5931 39.6666 37.8646 39.2643 37.185 38.813" stroke="#4C5A70" stroke-width="1.01423" stroke-miterlimit="10" stroke-linecap="round" stroke-linejoin="round"/>
<path opacity="0.1" d="M42.0263 40.6998C42.383 40.6896 42.7346 40.5967 43.071 40.3651C43.6491 39.9695 44.0007 39.2731 44.0091 38.5716C44.0142 38.1845 43.9111 37.8312 43.7353 37.5066C43.2332 37.4542 42.5774 37.9597 42.17 38.7558C41.7812 39.5148 41.7389 40.3009 42.0263 40.6998Z" fill="#455263"/>
<path d="M27.9724 36.0533C22.8201 36.0533 18.1546 34.9055 14.833 32.8229C11.1091 30.4868 9.1398 27.0807 9.1398 22.9747C9.1398 18.7843 11.3001 13.9413 14.9209 10.0162C18.7378 5.87818 23.4946 3.50488 27.9724 3.50488C31.8755 3.50488 36.4175 5.94073 40.1212 10.0196C43.7724 14.0411 45.953 18.8857 45.953 22.9764C45.953 27.1111 44.1358 30.5139 40.6993 32.8162C37.5349 34.9342 33.1348 36.0533 27.9724 36.0533Z" fill="#90A9D5"/>
<path d="M27.9724 4.01033C36.0694 4.01033 45.4443 14.6192 45.4443 22.9748C45.4443 31.3303 37.8561 35.5462 27.9724 35.5462C18.0871 35.5462 9.64697 31.3303 9.64697 22.9748C9.64697 14.6192 18.5976 4.01033 27.9724 4.01033ZM27.9724 2.99609C23.3543 2.99609 18.4606 5.42856 14.5491 9.67143C10.8455 13.6878 8.63443 18.6609 8.63443 22.9748C8.63443 27.265 10.6849 30.8198 14.566 33.2523C17.967 35.3856 22.7289 36.5604 27.9741 36.5604C33.238 36.5604 37.7361 35.4109 40.9816 33.2354C44.5653 30.8334 46.4602 27.2852 46.4602 22.9731C46.4602 18.7606 44.2306 13.7892 40.4965 9.6765C38.7115 7.71058 36.6779 6.06245 34.6123 4.9113C32.3319 3.64182 30.0973 2.99609 27.9724 2.99609Z" fill="#4C5A70"/>
<path opacity="0.1" d="M45.5457 22.9742C45.5457 31.3298 37.9575 35.5456 28.0722 35.5456C27.423 35.5456 26.7807 35.527 26.1451 35.4898C35.0771 34.9742 41.7 30.7787 41.7 22.9742C41.7 15.2305 33.6487 5.5514 26.0234 4.17542C26.7013 4.06555 27.3859 4.00977 28.0722 4.00977C36.1708 4.00977 45.5457 14.6186 45.5457 22.9742Z" fill="#455263"/>
<g opacity="0.36">
<path d="M36.2215 32.6651C37.4221 32.6651 38.3953 31.6918 38.3953 30.4912C38.3953 29.2906 37.4221 28.3174 36.2215 28.3174C35.0209 28.3174 34.0477 29.2906 34.0477 30.4912C34.0477 31.6918 35.0209 32.6651 36.2215 32.6651Z" fill="url(#paint0_radial_166_15103)"/>
</g>
<g opacity="0.36">
<path d="M18.9458 32.669C20.1464 32.669 21.1196 31.6957 21.1196 30.4951C21.1196 29.2945 20.1464 28.3213 18.9458 28.3213C17.7452 28.3213 16.7719 29.2945 16.7719 30.4951C16.7719 31.6957 17.7452 32.669 18.9458 32.669Z" fill="url(#paint1_radial_166_15103)"/>
</g>
<g opacity="0.34">
<path fill-rule="evenodd" clip-rule="evenodd" d="M14.5609 14.9232C13.6515 14.6865 12.147 16.7116 11.4506 18.7638C10.7558 20.8159 10.886 24.2338 11.7937 24.2677C12.7387 24.3015 12.9702 21.2317 13.665 19.1796C14.3614 17.1275 15.4703 15.1615 14.5609 14.9232Z" fill="white"/>
</g>
<path d="M29.198 4.60172C29.3788 3.90359 29.394 3.06178 29.0475 2.41098C28.6384 1.64354 27.9589 1.50831 27.3859 2.25715C27.1002 2.63242 26.9954 3.12263 27.0275 3.59425C26.9295 2.91133 26.8246 2.21151 26.4849 1.61143C25.9118 0.600577 24.7032 0.100223 23.7718 0.909917C23.596 1.06205 23.4439 1.24461 23.3458 1.45591C22.9385 2.33322 23.3982 4.0946 24.2925 4.59834C22.8522 3.78526 20.9438 4.0777 20.5635 5.90501C19.9718 8.73809 23.6028 9.50553 25.5974 10.0076" fill="#90A9D5"/>
<path d="M29.198 4.60172C29.3788 3.90359 29.394 3.06178 29.0475 2.41098C28.6384 1.64354 27.9589 1.50831 27.3859 2.25715C27.1002 2.63242 26.9954 3.12263 27.0275 3.59425C26.9295 2.91133 26.8246 2.21151 26.4849 1.61143C25.9118 0.600577 24.7032 0.100223 23.7718 0.909917C23.596 1.06205 23.4439 1.24461 23.3458 1.45591C22.9385 2.33322 23.3982 4.0946 24.2925 4.59834C22.8522 3.78526 20.9438 4.0777 20.5635 5.90501C19.9718 8.73809 23.6028 9.50553 25.5974 10.0076" stroke="#4C5A70" stroke-width="1.01423" stroke-miterlimit="10" stroke-linecap="round" stroke-linejoin="round"/>
<path d="M31.4242 23.4682C31.4242 26.1695 29.4228 30.2416 27.6918 30.2416C25.9609 30.2416 24.0761 26.1695 24.0761 23.4682C24.0761 20.767 26.0065 19.5381 27.7375 19.5381C29.4684 19.5381 31.4242 20.7653 31.4242 23.4682Z" fill="#455263"/>
<path d="M27.7121 20.8468C28.6841 20.8535 29.5377 21.2508 29.5462 21.5195C29.5546 21.8035 28.6537 21.8931 27.6242 21.888C26.6539 21.883 25.7868 21.7968 25.7935 21.5331C25.802 21.2406 26.6877 20.84 27.7121 20.8468Z" fill="#959899"/>
<path d="M37.1732 24.3645C37.229 24.5132 37.0903 24.667 36.9348 24.6265C36.377 24.4845 35.7516 24.4067 35.094 24.4118C34.4635 24.4152 33.8668 24.4946 33.3309 24.6316C33.1737 24.6721 33.0317 24.5217 33.0892 24.3712C33.3969 23.5632 34.1863 22.98 35.1126 22.9699C36.0541 22.9581 36.8621 23.5413 37.1732 24.3645Z" fill="#283442"/>
<path d="M22.0087 24.3645C22.0645 24.5132 21.9259 24.667 21.7704 24.6265C21.2126 24.4845 20.5871 24.4067 19.9296 24.4118C19.2991 24.4152 18.7024 24.4946 18.1665 24.6316C18.0093 24.6721 17.8673 24.5217 17.9248 24.3712C18.2324 23.5632 19.0218 22.98 19.9482 22.9699C20.888 22.9581 21.696 23.5413 22.0087 24.3645Z" fill="#283442"/>
<path d="M35.1566 26.4011C33.9378 26.4095 32.9506 25.4477 32.9506 24.2509C32.9506 23.0761 33.9175 22.1126 35.1109 22.1007C36.3229 22.0872 37.3118 23.0541 37.3101 24.2526C37.3101 25.4375 36.35 26.3943 35.1566 26.4011Z" fill="#283442"/>
<path d="M35.7026 22.8761C36.0542 22.8846 36.3618 23.1872 36.3652 23.5236C36.3686 23.8785 36.0423 24.1879 35.6721 24.1811C35.3222 24.1744 35.0078 23.8718 35.0112 23.5405C35.0129 23.1737 35.3324 22.8677 35.7026 22.8761Z" fill="#DDDDDD"/>
<path d="M19.9719 26.4011C18.7531 26.4095 17.7659 25.4477 17.7659 24.2509C17.7659 23.0761 18.7328 22.1126 19.9262 22.1007C21.1382 22.0872 22.1271 23.0541 22.1254 24.2526C22.1254 25.4375 21.167 26.3943 19.9719 26.4011Z" fill="#283442"/>
<path d="M20.5178 22.8761C20.8694 22.8846 21.1771 23.1872 21.1804 23.5236C21.1838 23.8785 20.8576 24.1879 20.4874 24.1811C20.1375 24.1744 19.8231 23.8718 19.8264 23.5405C19.8281 23.1737 20.1476 22.8677 20.5178 22.8761Z" fill="#DDDDDD"/>
<path d="M16.0603 19.3232C16.2175 18.5016 16.6469 17.7579 17.5005 17.3437C18.4556 16.8806 19.436 16.8468 20.3742 17.4046C20.6108 17.5449 20.8492 17.7579 20.8187 18.0875C20.79 18.4036 20.5178 18.5067 20.271 18.5997C19.1757 19.0121 18.1361 19.5294 17.1303 20.1261C16.9055 20.2596 16.6283 20.4777 16.3392 20.241C16.0806 20.0331 16.0299 19.7305 16.0603 19.3232Z" fill="#455263"/>
<path d="M39.0783 19.3232C38.9211 18.5016 38.4917 17.7579 37.6381 17.3437C36.683 16.8806 35.7026 16.8468 34.7644 17.4046C34.5278 17.5449 34.2894 17.7579 34.3198 18.0875C34.3486 18.4036 34.6207 18.5067 34.8675 18.5997C35.9629 19.0121 37.0025 19.5294 38.0083 20.1261C38.2331 20.2596 38.5103 20.4777 38.7994 20.241C39.058 20.0331 39.107 19.7305 39.0783 19.3232Z" fill="#455263"/>
<path d="M27.5752 33.4016C26.3919 33.4016 25.371 32.7576 24.9078 31.7214C24.8655 31.6267 24.8081 31.4982 24.7878 31.3427C24.7776 31.2616 24.7455 31.0131 24.9145 30.8221C25.0109 30.7122 25.1495 30.6514 25.3016 30.6514C25.4352 30.6514 25.5552 30.6987 25.6516 30.7359C25.6769 30.746 25.7006 30.7562 25.7259 30.7646C25.8916 30.8187 26.0792 30.866 26.299 30.9049C26.6979 30.9776 27.1357 31.0131 27.6006 31.0131C27.6716 31.0131 27.7409 31.0131 27.8119 31.0114C28.5759 30.9945 29.3112 30.8779 29.8319 30.6902C29.8775 30.6733 29.9265 30.6649 29.9756 30.6649C30.0499 30.6649 30.1226 30.6835 30.1885 30.7224C30.2967 30.7849 30.3711 30.8914 30.3931 31.0148C30.432 31.2396 30.3593 31.9783 29.5631 32.6917C29.0763 33.1278 28.3798 33.3864 27.6496 33.4016H27.5752Z" fill="#995165"/>
<path d="M25.3016 31.0727C25.3794 31.0727 25.4909 31.1302 25.5924 31.164C25.7986 31.2316 26.0099 31.2806 26.2229 31.3195C26.6759 31.4024 27.1391 31.4362 27.6005 31.4362C27.6749 31.4362 27.7476 31.4345 27.822 31.4345C28.6672 31.4159 29.4295 31.284 29.9755 31.0879C29.9806 31.1218 29.9975 31.7337 29.2808 32.376C28.8785 32.7361 28.2818 32.9643 27.6394 32.9795C27.6175 32.9795 27.5972 32.9795 27.5752 32.9795C26.5796 32.9795 25.6989 32.4572 25.2932 31.5494C25.256 31.4666 25.2188 31.3804 25.207 31.2891C25.185 31.1218 25.2289 31.0727 25.3016 31.0727ZM25.3016 30.2275C25.0295 30.2275 24.7725 30.3425 24.5967 30.5419C24.4006 30.7634 24.3246 31.0508 24.3668 31.3956C24.3939 31.6137 24.4733 31.7895 24.519 31.8943C25.0514 33.086 26.2212 33.8264 27.5735 33.8264C27.6005 33.8264 27.6293 33.8264 27.6563 33.8247C28.4846 33.8061 29.2808 33.5086 29.842 33.0065C30.7464 32.1968 30.8681 31.3043 30.8072 30.946C30.7649 30.6992 30.6162 30.4845 30.3998 30.3594C30.2697 30.2833 30.1226 30.2444 29.9739 30.2444C29.8775 30.2444 29.7811 30.2613 29.6882 30.2952C29.2098 30.4676 28.5218 30.5758 27.8017 30.591C27.7341 30.5927 27.6665 30.5927 27.5989 30.5927C27.1594 30.5927 26.7469 30.5589 26.3733 30.4912C26.1739 30.4557 26.0048 30.4135 25.8578 30.3645C25.8409 30.3594 25.824 30.3509 25.8054 30.3442C25.6921 30.2968 25.5163 30.2275 25.3016 30.2275Z" fill="#4C5A70"/>
<path d="M29.2791 32.3612C29.2791 32.3663 29.2791 32.3697 29.2791 32.3747C28.8582 32.7128 28.2801 32.963 27.6378 32.9782C26.9954 32.9934 26.4071 32.7686 25.971 32.4491C25.971 32.444 25.9693 32.439 25.9693 32.4356C25.9592 31.9521 26.703 32.1246 27.6175 32.1043C28.532 32.084 29.269 31.8795 29.2791 32.3612Z" fill="#C76A87"/>
</g>
<defs>
<radialGradient id="paint0_radial_166_15103" cx="0" cy="0" r="1" gradientUnits="userSpaceOnUse" gradientTransform="translate(36.2223 30.4907) scale(2.17463)">
<stop stop-color="#FF6554"/>
<stop offset="0.168" stop-color="#FF675B" stop-opacity="0.832"/>
<stop offset="0.4115" stop-color="#FF6E6E" stop-opacity="0.5885"/>
<stop offset="0.7011" stop-color="#FF7A8E" stop-opacity="0.2989"/>
<stop offset="1" stop-color="#FF88B6" stop-opacity="0"/>
</radialGradient>
<radialGradient id="paint1_radial_166_15103" cx="0" cy="0" r="1" gradientUnits="userSpaceOnUse" gradientTransform="translate(18.9459 30.495) scale(2.17463)">
<stop stop-color="#FF6554"/>
<stop offset="0.168" stop-color="#FF675B" stop-opacity="0.832"/>
<stop offset="0.4115" stop-color="#FF6E6E" stop-opacity="0.5885"/>
<stop offset="0.7011" stop-color="#FF7A8E" stop-opacity="0.2989"/>
<stop offset="1" stop-color="#FF88B6" stop-opacity="0"/>
</radialGradient>
<clipPath id="clip0_166_15103">
<rect width="55.4582" height="51.67" fill="white"/>
</clipPath>
</defs>
</svg>
