<svg width="47" height="40" viewBox="0 0 47 40" fill="none" xmlns="http://www.w3.org/2000/svg">
<path d="M6.19872 11.0809C8.64978 11.0809 11.0085 9.22249 11.6763 7.48653C12.3441 5.75057 12.1132 3.54563 11.1186 2.12466C10.4756 1.20418 9.55916 0.700195 8.53966 0.700195C5.60194 0.700195 3.15798 3.33563 2.35161 5.81357C2.02125 6.83204 2.18466 8.06051 2.7921 9.10699C3.36401 10.0905 4.23432 10.7554 5.24671 10.9794C5.55221 11.0459 5.87191 11.0809 6.19872 11.0809Z" fill="#272628"/>
<path d="M8.53966 1.39997C6.12767 1.39997 3.82225 3.59441 3.0301 6.02685C2.51146 7.61931 3.54873 9.88726 5.40301 10.2932C5.66232 10.3492 5.92874 10.3772 6.19871 10.3772C8.25192 10.3772 10.4117 8.79528 11.012 7.23432C11.9321 4.84388 10.8913 1.39997 8.53966 1.39997ZM8.53966 0C9.79716 0 10.9232 0.612485 11.7012 1.72546C12.8201 3.32142 13.083 5.79236 12.337 7.73131C11.4809 9.96426 8.72437 11.7772 6.19516 11.7772C5.81862 11.7772 5.44563 11.7387 5.09041 11.6582C3.88264 11.3922 2.84893 10.6082 2.174 9.45327C1.47065 8.2423 1.28238 6.80033 1.67313 5.59986C2.5612 2.88393 5.26802 0 8.53966 0Z" fill="black"/>
<g opacity="0.1">
<path d="M3.92882 4.26299C4.9945 3.10102 6.40475 2.30654 7.85052 2.30654C10.195 2.30654 11.2287 5.73646 10.3122 8.1199C10.2483 8.29139 10.163 8.45939 10.06 8.62738C10.4934 8.1899 10.8273 7.71041 11.012 7.22742C11.9285 4.84398 10.8948 1.41406 8.55031 1.41406C6.75642 1.41406 5.01936 2.63553 3.92882 4.26299Z" fill="#EAE6E4"/>
</g>
<path d="M35.3659 11.0809C35.6927 11.0809 36.0124 11.0459 36.3179 10.9794C37.3267 10.7589 38.197 10.094 38.7725 9.10699C39.3799 8.06401 39.5434 6.83204 39.213 5.81357C38.4066 3.33563 35.9627 0.700195 33.0249 0.700195C32.0054 0.700195 31.089 1.20418 30.446 2.12466C29.4514 3.54213 29.2205 5.74707 29.8883 7.48653C30.5561 9.21899 32.9148 11.0809 35.3659 11.0809Z" fill="#272628"/>
<path d="M33.0254 1.39997C30.6738 1.39997 29.6366 4.84388 30.553 7.23782C31.1534 8.79878 33.3131 10.3807 35.3664 10.3807C35.6328 10.3807 35.9027 10.3527 36.1621 10.2967C38.0163 9.88726 39.0536 7.62281 38.535 6.03035C37.7428 3.59441 35.4374 1.39997 33.0254 1.39997ZM33.0254 0C36.3006 0 39.0039 2.88393 39.8884 5.59986C40.2791 6.80033 40.0909 8.2423 39.3875 9.45327C38.7161 10.6117 37.6789 11.3957 36.4711 11.6582C36.1159 11.7352 35.7429 11.7772 35.3664 11.7772C32.8371 11.7772 30.0806 9.96076 29.2245 7.73131C28.4785 5.79236 28.7414 3.32142 29.8603 1.72546C30.6418 0.612485 31.7679 0 33.0254 0Z" fill="black"/>
<g opacity="0.1">
<path d="M31.732 1.80939C31.8706 1.78139 32.0162 1.76739 32.1654 1.76739C34.581 1.76739 36.8864 3.96184 37.6785 6.39428C38.1048 7.70325 37.476 9.4707 36.2079 10.2827C38.0373 9.85219 39.0533 7.60525 38.5417 6.02679C37.7425 3.59435 35.437 1.3999 33.0251 1.3999C32.5348 1.3999 32.1015 1.5504 31.732 1.80939Z" fill="#EAE6E4"/>
</g>
<path d="M34.695 39.5559C34.7802 39.5559 34.8619 39.5524 34.9507 39.5489C34.9507 39.5489 34.9543 39.5489 34.9578 39.5489C35.0751 39.5489 35.2136 39.5279 35.3344 39.5104L35.3877 39.5034C37.8352 39.1464 39.9949 38.4044 41.803 37.2985C42.89 36.6335 45.501 34.831 46.318 32.4476C46.5347 31.8141 46.4636 31.2576 46.1226 30.8761C46.0693 30.8166 46.0089 30.7641 45.9521 30.7221C46.3961 30.2041 46.5773 29.4377 46.4103 28.7202C46.2825 28.1672 45.8739 27.6597 45.3731 27.4287C45.1884 27.3447 44.9894 27.3027 44.7798 27.3027C44.5703 27.3027 44.3749 27.3447 44.2186 27.3902C44.215 27.1732 44.1653 26.9632 44.0729 26.7707C43.8953 26.4032 43.5685 26.1267 43.1565 25.9868C42.954 25.9203 42.7337 25.8853 42.5099 25.8853C41.6325 25.8853 40.7907 26.3997 40.1086 26.8092C39.9807 26.8862 39.8564 26.9632 39.7392 27.0297C38.6238 27.6667 37.4906 28.3177 36.3255 28.7237C35.9169 28.8672 35.5084 28.9827 35.0715 29.1052C34.2829 29.3292 33.4694 29.5567 32.7021 29.9487C32.6027 29.9977 32.5103 30.0502 32.4215 30.1061C31.9242 30.4211 31.5157 31.0336 31.164 31.9856C30.553 33.6481 30.6347 36.371 31.8318 38.0545C32.5281 39.0379 33.5192 39.5559 34.695 39.5559Z" fill="#272628"/>
<path d="M42.5064 26.4103C41.629 26.4103 40.6983 27.0858 40.0056 27.4848C38.8902 28.1218 37.7179 28.7973 36.5031 29.2208C35.3237 29.6337 34.0662 29.8472 32.9437 30.4177C32.862 30.4597 32.7803 30.5052 32.7057 30.5542C32.1977 30.8727 31.8567 31.6392 31.6613 32.1712C30.7981 34.5161 31.4588 39.0345 34.695 39.0345C34.766 39.0345 34.8406 39.031 34.9152 39.0275C35.0466 39.0275 35.1781 39.003 35.306 38.9855C37.487 38.6705 39.6397 38.0055 41.5189 36.8541C43.1849 35.8356 45.1599 34.1731 45.81 32.2832C45.9237 31.9472 45.977 31.5167 45.7212 31.2297C45.3944 30.8692 44.7408 31.0792 45.3731 30.5542C45.8597 30.1517 46.0267 29.4343 45.8881 28.8393C45.7993 28.4578 45.5081 28.0728 45.1457 27.9083C45.0249 27.8523 44.9006 27.8313 44.7763 27.8313C44.5987 27.8313 44.4211 27.8768 44.2506 27.9363C44.1546 27.9678 43.8456 28.1533 43.6715 28.1533C43.5969 28.1533 43.5508 28.1218 43.5543 28.0273C43.5579 27.9643 43.5827 27.9013 43.6076 27.8418C43.8278 27.2678 43.5863 26.6868 42.9859 26.4873C42.8261 26.4348 42.6662 26.4103 42.5064 26.4103ZM42.5064 25.3604C42.7906 25.3604 43.0641 25.4024 43.3234 25.4898C43.874 25.6718 44.3109 26.0463 44.5525 26.5433C44.588 26.6203 44.6235 26.7008 44.6484 26.7813C44.691 26.7778 44.7337 26.7778 44.7763 26.7778C45.064 26.7778 45.3411 26.8373 45.5933 26.9528C46.2398 27.2503 46.762 27.8978 46.9254 28.6013C47.0888 29.3118 46.9716 30.0642 46.627 30.6662C47 31.1807 47.071 31.8772 46.8188 32.6157C45.9485 35.1601 43.2168 37.0501 42.0801 37.743C40.2081 38.8875 37.9808 39.654 35.4587 40.0215L35.4054 40.0285C35.2811 40.046 35.1283 40.0705 34.9507 40.074C34.8619 40.0775 34.7767 40.081 34.6914 40.081C33.3344 40.081 32.1906 39.486 31.3914 38.359C30.045 36.4691 30.0095 33.5746 30.6596 31.8107C31.0503 30.7467 31.5299 30.0467 32.1302 29.6687C32.2297 29.6057 32.3398 29.5427 32.4535 29.4868C33.267 29.0703 34.1088 28.8323 34.9223 28.6048C35.3486 28.4823 35.7535 28.3703 36.1443 28.2338C37.2632 27.8418 38.3787 27.2048 39.455 26.5853C39.5829 26.5118 39.7001 26.4383 39.828 26.3648C40.5633 25.9168 41.4798 25.3604 42.5064 25.3604Z" fill="black"/>
<g opacity="0.2">
<path d="M38.4501 31.8809C38.4537 31.3419 38.681 30.768 39.2814 30.3585C39.8817 29.949 40.9154 29.7705 41.5832 30.061C42.1409 30.306 42.3114 30.7855 42.3505 31.23C42.4144 32.0209 42.1445 32.8854 41.2706 33.5014C41.1285 33.6029 40.9651 33.6939 40.7733 33.7464C39.1996 34.1594 38.443 32.5319 38.4501 31.8809Z" fill="#EAE6E4"/>
</g>
<g opacity="0.1">
<path d="M18.6072 20.9225C21.346 19.645 24.305 19.7325 26.9941 21.3705C27.8608 21.899 28.5819 22.7914 29.4842 23.2394C30.7488 23.8729 33.2638 25.1924 32.6599 27.3378C32.4574 28.0623 31.9956 28.6328 31.5054 29.1053C29.7648 30.7887 27.5589 31.5342 25.4026 32.1432C24.5217 32.3917 23.6336 32.6262 22.7349 32.7242C20.227 32.9937 17.6481 32.1607 15.5735 30.4037C14.7956 29.7458 14.0603 28.9163 13.7264 27.8278C13.2432 26.2528 13.6944 24.6849 14.7778 23.8379C16.0531 22.8369 17.1614 21.598 18.6072 20.9225Z" fill="black"/>
</g>
<g opacity="0.2">
<path d="M40.9614 28.0273C40.9543 27.8173 41.0147 27.6108 41.1426 27.4253C41.3664 27.1068 41.7536 26.9143 42.1195 26.9004C42.4818 26.8864 43.0466 27.2013 42.9401 27.7263C42.8548 28.1393 42.5955 28.5138 42.3113 28.7483C42.1621 28.8708 41.9845 28.9688 41.7927 28.9863C41.5689 29.0108 41.4161 28.9233 41.2492 28.7238C41.0645 28.5138 40.9685 28.2688 40.9614 28.0273Z" fill="#EAE6E4"/>
</g>
<g opacity="0.2">
<path d="M43.0641 29.5392C43.0748 29.4832 43.0961 29.4237 43.1245 29.3642C43.3909 28.8147 44.1831 28.3072 44.8012 28.5837C45.1599 28.7447 45.2061 29.0912 45.1635 29.4377C45.1173 29.8191 44.9042 30.1481 44.5916 30.3756C44.5134 30.4316 44.4246 30.4876 44.318 30.5191C43.9095 30.6381 43.5152 30.4946 43.2595 30.1656C43.1067 29.9661 43.0215 29.7632 43.0641 29.5392Z" fill="#EAE6E4"/>
</g>
<g opacity="0.2">
<path d="M43.4367 32.4164C43.451 32.1084 43.6534 31.8214 43.8701 31.5904C44.1472 31.2964 44.5237 31.1704 44.9287 31.2509C45.767 31.4189 45.3976 32.5878 44.9926 32.9973C44.9216 33.0673 44.8399 33.1408 44.7333 33.1898C44.2644 33.4103 43.7032 33.2458 43.5007 32.7593C43.451 32.6438 43.4332 32.5283 43.4367 32.4164Z" fill="#EAE6E4"/>
</g>
<path d="M11.6585 39.3809C11.6585 39.3809 12.3974 45.2957 19.6049 49.5621C20.8234 50.2831 22.0809 50.9341 23.3668 51.5256C26.2157 52.8415 29.189 53.895 32.2155 54.735C33.0716 54.973 33.9312 55.1935 34.798 55.3895C35.3628 55.5155 35.7997 55.7815 36.4072 55.7675C37.2633 55.75 38.1016 55.4175 38.7765 54.9065C39.5935 54.287 40.1903 53.4365 40.6557 52.537C41.1601 51.5676 41.5615 50.6821 41.7888 49.6041C42.0339 48.4386 42.1299 47.2487 41.9309 46.0692C41.6787 44.5887 40.883 42.4433 39.0465 42.4678C38.9968 42.4678 38.7765 42.1248 38.4391 41.9988C37.8671 41.7818 37.1283 41.7538 36.805 42.3383C36.3716 42.0933 36.1407 42.0968 36.0271 42.0898C35.6328 42.0618 35.2953 42.2928 35.0289 42.5623C34.7376 42.8563 34.4854 43.4618 34.1444 43.6683C33.7145 43.9272 30.6631 42.6778 28.3968 42.0968" stroke="black" stroke-width="5" stroke-miterlimit="10" stroke-linecap="round" stroke-linejoin="round"/>
<path d="M8.45795 53.4682C8.73858 53.5942 9.01565 53.7167 9.28207 53.8287C10.7456 54.4481 12.5253 55.1516 14.138 55.1411C15.9426 55.1306 17.7151 55.4526 19.5446 55.3161C21.4521 55.1761 23.3348 54.8156 25.1962 54.3956C29.5619 53.4087 33.4588 49.9998 35.139 45.0754C35.2953 44.6134 35.4338 44.1409 35.5475 43.6649C35.9986 41.796 36.123 39.836 36.0093 37.8865C35.8601 35.3491 35.2953 32.8222 34.496 30.5157C33.7501 28.3633 32.5281 26.4768 31.0397 24.8879C29.601 23.3479 27.9101 22.0879 26.1624 21.1395C25.4058 20.7265 24.635 20.373 23.8677 20.079C22.1164 19.407 20.2834 19.0255 18.4398 19.001C16.5074 18.9765 14.5785 19.3965 12.7739 20.205C12.2766 20.4255 11.7935 20.6775 11.3175 20.9575C10.4366 21.4755 9.63375 22.0949 8.89843 22.8054C8.47571 23.2114 8.08141 23.6454 7.70842 24.1074C5.54154 26.7883 4.25207 29.9242 3.00522 33.0882C1.56656 36.7351 -0.142078 40.7005 0.817032 44.6589C1.3179 46.7273 2.23083 48.7853 3.70147 50.3637C4.90213 51.6622 6.75641 52.6947 8.45795 53.4682Z" fill="#E2DFEA" stroke="black" stroke-width="3" stroke-miterlimit="10"/>
<path d="M1.6163 36.5669C4.44746 38.0439 8.6711 39.5979 11.7154 40.2734C15.2357 41.0503 19.0615 41.1413 22.635 41.0328C25.1643 40.9558 27.697 40.6163 30.1445 39.8324C32.1196 39.1989 34.1053 38.6914 36.0058 37.7919C35.8566 35.2545 35.2918 32.7275 34.4925 30.4211C33.7465 28.2687 32.5246 26.3822 31.0362 24.7932C29.5975 23.2533 27.9066 21.9933 26.1589 21.0448C23.9956 20.9713 21.8322 20.8278 19.6725 20.6353C17.367 20.4323 15.0581 20.4428 12.7704 20.1104C12.2731 20.3308 11.79 20.5828 11.314 20.8628C10.433 21.3808 9.63021 22.0003 8.89489 22.7108C8.47218 23.1168 8.07787 23.5508 7.70488 24.0128C6.80261 25.1292 6.02822 26.4032 5.3746 27.7997C4.3551 29.9941 3.46348 31.4221 2.60028 33.7565C0.781525 38.6809 1.37475 35.657 1.6163 36.5669Z" fill="#272628"/>
<g opacity="0.1">
<path d="M0.824145 46.9967C1.34988 48.2672 2.12428 49.4571 3.22903 50.2971C3.40309 50.0206 3.4244 49.6776 3.44572 49.3521C3.46703 49.0196 3.49545 48.6906 3.52742 48.3582C3.97501 43.6333 5.38881 38.9994 7.64449 34.8065C8.16668 33.837 8.76701 32.9375 9.15776 31.9261C9.57693 30.8376 10.195 29.8016 10.8238 28.8216C12.0457 26.9282 13.5093 25.1992 14.9053 23.4283C16.4435 21.4788 13.1256 21.3633 11.9037 21.4473C10.5716 21.5418 9.39931 22.7808 8.48638 23.7013C7.35676 24.8387 6.39055 26.1337 5.56997 27.5057C4.08157 29.9836 3.03721 32.6925 2.03902 35.398C1.62341 36.5179 1.2149 37.6414 0.90585 38.7964C0.490236 40.3468 0.252231 41.9463 0.202498 43.5528C0.177633 44.3088 0.198947 45.0717 0.40853 45.7997C0.522203 46.1987 0.660741 46.6012 0.824145 46.9967Z" fill="black"/>
</g>
<path d="M20.5894 32.0136C21.9996 32.0136 23.3637 31.8281 24.98 31.5481C26.2019 31.3381 27.6442 31.0651 29.1113 30.6696C29.7507 30.4946 30.3332 30.3161 30.8945 30.1166C31.1609 30.0221 31.4238 29.9206 31.6831 29.8191C31.7968 29.7736 31.914 29.7246 32.0312 29.6721C32.5143 29.4656 32.9797 29.2381 33.413 28.9966C33.7256 28.8216 34.0276 28.6397 34.3082 28.4507C38.88 25.3882 40.411 20.9013 38.7414 15.48C38.0772 13.324 36.1945 9.28163 34.3793 7.29367C33.9494 6.82119 33.4876 6.3837 33.0081 5.99871L32.8695 5.87971H32.8553C32.0916 5.28472 31.2568 4.77724 30.3652 4.37475C27.7152 3.17428 24.8272 2.92578 21.3034 2.92578C21.1009 2.92578 20.6107 2.92928 20.6107 2.92928C20.4118 2.92928 20.2128 2.92578 20.0104 2.92578C19.1507 2.92578 18.4331 2.93978 17.7511 2.97128C15.1722 3.08678 13.158 3.46827 11.4174 4.17525C10.2985 4.63024 9.30383 5.20773 8.37669 5.94271C7.86872 6.3487 7.38206 6.80369 6.93447 7.29367C5.0944 9.31312 3.35734 13.177 2.71083 15.2805C1.89736 17.9264 1.805 20.3624 2.43731 22.5253C2.5865 23.0293 2.77477 23.5228 2.99856 23.9918C3.15131 24.3173 3.33603 24.6497 3.54561 24.9752C3.77651 25.3462 4.04648 25.7172 4.34842 26.0742C5.07309 26.9422 5.97181 27.7402 7.02328 28.4437L7.0588 28.4647C7.63782 28.8496 8.29144 29.2066 9.00189 29.5216C9.36777 29.6861 9.7301 29.8331 10.128 29.9766L10.27 30.0291C11.595 30.5051 12.9662 30.8411 14.007 31.0791C16.1597 31.5691 17.8222 31.8421 19.4065 31.9681C19.7937 31.9961 20.1915 32.0136 20.5894 32.0136Z" fill="#E2DFEA"/>
<path d="M20.0139 3.44744C19.2644 3.44744 18.5184 3.45793 17.7795 3.49293C15.6304 3.58743 13.5488 3.87792 11.6235 4.65841C10.6075 5.0714 9.63418 5.62088 8.7177 6.34886C8.23814 6.73035 7.77635 7.16084 7.33587 7.64383C5.6521 9.49179 3.91859 13.1842 3.2259 15.4311C2.519 17.7306 2.29876 20.128 2.95593 22.3785C3.09447 22.8475 3.26853 23.313 3.48877 23.7679C3.63796 24.0829 3.81202 24.3909 4.00385 24.6954C4.22764 25.0524 4.47985 25.4024 4.76403 25.7419C5.43541 26.5504 6.28085 27.3099 7.32521 28.0133C7.32876 28.0133 7.33231 28.0168 7.33587 28.0203C7.92554 28.4158 8.5614 28.7553 9.22212 29.0493C9.22923 29.0528 9.23633 29.0563 9.24343 29.0598C9.59511 29.2173 9.95389 29.3608 10.3162 29.4938C10.3624 29.5113 10.4086 29.5253 10.4548 29.5428C11.6767 29.9803 12.9413 30.3023 14.1349 30.5753C15.9004 30.9778 17.6694 31.3103 19.4562 31.4502C19.8398 31.4817 20.2164 31.4957 20.5929 31.4957C22.0351 31.4957 23.4418 31.2893 24.8912 31.0373C26.1877 30.8133 27.5873 30.5438 28.9727 30.1693C29.5588 30.0118 30.1414 29.8298 30.7133 29.6268C30.9726 29.5358 31.2284 29.4378 31.4806 29.3363C31.5943 29.2908 31.7044 29.2453 31.8181 29.1963C32.2763 29.0003 32.7239 28.7833 33.1537 28.5453C33.4486 28.3808 33.7363 28.2058 34.0098 28.0238C39.0434 24.6394 39.5904 20.03 38.2335 15.6306C37.5479 13.3977 35.6723 9.48829 33.985 7.64033C33.5658 7.18184 33.1253 6.76885 32.6706 6.39786C32.6671 6.39786 32.6671 6.39786 32.6671 6.39786C31.8642 5.75038 31.0224 5.24289 30.145 4.8474C27.4346 3.61893 24.4116 3.44744 21.3069 3.44744C21.108 3.44744 20.9055 3.44744 20.703 3.45094H20.6107C20.4117 3.44744 20.2128 3.44744 20.0139 3.44744ZM20.0139 2.39746C20.2164 2.39746 20.4189 2.39746 20.6213 2.40096H20.7066C20.902 2.40096 21.108 2.39746 21.3105 2.39746C24.9018 2.39746 27.8573 2.65295 30.5961 3.89542C31.4664 4.28741 32.2905 4.7774 33.0436 5.35139H33.0507H33.0543H33.0614L33.3562 5.58938C33.8571 5.99187 34.3366 6.44686 34.7842 6.94035C36.6491 8.9843 38.5816 13.1247 39.2601 15.3261C41.0042 20.989 39.3986 25.6754 34.6173 28.8813C34.3189 29.0808 34.0063 29.2698 33.683 29.4518C33.2354 29.7003 32.7523 29.9383 32.2479 30.1518C32.1271 30.2043 32.0063 30.2568 31.882 30.3058C31.6334 30.4073 31.3598 30.5123 31.0828 30.6103C30.5179 30.8133 29.9034 31.0023 29.2604 31.1773C27.7649 31.5832 26.241 31.8667 25.0794 32.0662C23.4383 32.3497 22.0458 32.5387 20.5965 32.5387C20.1809 32.5387 19.7688 32.5212 19.3709 32.4897C17.7653 32.3637 16.078 32.0837 13.8969 31.5902C12.8348 31.3488 11.4458 31.0058 10.0924 30.5193L9.95033 30.4703C9.53827 30.3198 9.16529 30.1693 8.80651 30.0083C8.79585 30.0048 8.78519 29.9978 8.77098 29.9908C8.04987 29.6688 7.3856 29.3083 6.79593 28.9163L6.78882 28.9128L6.72843 28.8743C5.63789 28.1428 4.70009 27.3099 3.94346 26.4034C3.6273 26.0289 3.34312 25.6369 3.09802 25.2414C2.88488 24.9019 2.68951 24.5519 2.5261 24.2054C2.29166 23.7154 2.09273 23.194 1.93643 22.6655C1.27216 20.4045 1.36451 17.8671 2.20995 15.1231C2.87067 12.9777 4.65036 9.0158 6.54371 6.94035C7.01261 6.42586 7.51703 5.95337 8.04632 5.52988C9.00188 4.7704 10.0676 4.15092 11.2185 3.68543C13.0195 2.95395 15.0905 2.55846 17.7333 2.44296C18.4189 2.41146 19.1436 2.39746 20.0139 2.39746Z" fill="black"/>
<path d="M26.0385 12.4424C26.4364 12.2954 26.8698 12.2709 27.296 12.2779C28.9017 12.3059 30.4966 12.7854 31.8465 13.6429C31.9566 13.7129 31.914 13.8809 31.7861 13.8914C31.6049 13.9089 31.3953 13.8669 31.2355 13.9019C31.1218 13.9264 31.0899 14.0734 31.1822 14.1399C31.9673 14.7349 32.66 15.4523 33.2248 16.2573C33.2994 16.3658 33.1928 16.5058 33.0685 16.4638C33.0649 16.4638 33.0614 16.4638 33.0614 16.4603C32.937 16.4218 32.834 16.5583 32.9086 16.6668C33.9246 18.1613 34.5178 19.9322 34.5995 21.7277C34.5995 21.7487 34.5995 21.7732 34.5995 21.7942C34.5995 21.9237 34.429 21.9762 34.3508 21.8747C33.2141 20.4012 32.3225 18.7563 31.1858 17.2793C29.9993 15.7428 28.4647 14.3499 26.5607 13.8914C26.1238 13.7864 25.6762 13.7479 25.2322 13.6849C25.1469 13.6744 25.0936 13.5869 25.122 13.5064C25.2819 13.0129 25.4346 12.6664 26.0385 12.4424Z" fill="#ECEAF4"/>
<path d="M14.5399 12.4424C14.142 12.2954 13.7086 12.2709 13.2824 12.2779C11.6767 12.3059 10.0818 12.7854 8.73192 13.6429C8.6218 13.7129 8.66443 13.8809 8.79231 13.8914C8.97347 13.9089 9.18305 13.8669 9.34291 13.9019C9.45658 13.9264 9.48855 14.0734 9.39619 14.1399C8.61114 14.7349 7.91845 15.4523 7.35364 16.2573C7.27904 16.3658 7.38561 16.5058 7.50994 16.4638C7.51349 16.4638 7.51704 16.4638 7.51704 16.4603C7.64137 16.4218 7.74439 16.5583 7.66979 16.6668C6.65384 18.1613 6.06061 19.9322 5.97891 21.7277C5.97891 21.7487 5.97891 21.7732 5.97891 21.7942C5.97891 21.9237 6.14942 21.9762 6.22757 21.8747C7.3643 20.4012 8.25591 18.7563 9.39264 17.2793C10.5791 15.7428 12.1137 14.3499 14.0177 13.8914C14.4546 13.7864 14.9022 13.7479 15.3462 13.6849C15.4315 13.6744 15.4848 13.5869 15.4564 13.5064C15.2965 13.0129 15.1438 12.6664 14.5399 12.4424Z" fill="#ECEAF4"/>
<g opacity="0.6">
<path d="M10.4543 29.5322C11.6762 29.9696 12.9409 30.2916 14.1344 30.5646C15.8999 30.9671 17.6689 31.2996 19.4557 31.4396C21.3064 31.5901 23.0613 31.3451 24.8907 31.0266C26.1872 30.8026 27.5868 30.5331 28.9722 30.1586C29.5583 30.0011 30.1409 29.8191 30.7128 29.6162C28.9225 29.2977 27.0256 29.1717 25.9102 26.9037C25.2956 25.6472 25.1855 24.1738 24.9724 22.7913C24.7841 21.5698 24.3045 20.4884 23.3596 19.7534C22.7309 19.2634 21.9565 19.0464 21.1999 18.9589C20.9619 18.9309 20.7203 18.9134 20.4823 18.9029C20.4326 18.9029 20.3793 18.8994 20.3296 18.8994C20.2798 18.8994 20.2301 18.8994 20.1768 18.9029C19.9388 18.9099 19.6973 18.9309 19.4593 18.9589C18.7026 19.0429 17.9282 19.2634 17.2995 19.7534C16.3546 20.4884 15.875 21.5698 15.6868 22.7913C15.4736 24.1738 15.3635 25.6472 14.749 26.9037C13.7401 28.9617 12.0848 29.2592 10.4543 29.5322Z" fill="white"/>
</g>
<g opacity="0.6">
<path d="M20.6497 18.9067C20.6995 18.9067 20.7492 18.9067 20.8025 18.9102V18.9067C20.7492 18.9067 20.6995 18.9067 20.6497 18.9067Z" fill="white"/>
</g>
<g opacity="0.8">
<path d="M33.0901 23.1694C32.7633 23.5754 32.2944 23.8764 31.655 23.9989C29.8789 24.3419 27.9358 22.9874 26.6285 22.0424C23.8791 20.0545 23.2219 17.3666 24.1491 14.1921C24.2627 13.8071 24.4084 13.4187 24.6961 13.1387C25.3391 12.5122 26.4048 12.6557 27.2573 12.9567C30.2163 14.0031 32.6035 16.5021 33.488 19.477C33.8503 20.695 33.8539 22.2209 33.0901 23.1694Z" fill="black"/>
</g>
<g opacity="0.8">
<path d="M7.2293 23.1694C7.55611 23.5754 8.02501 23.8764 8.66442 23.9989C10.4406 24.3419 12.3836 22.9874 13.6909 22.0424C16.4403 20.0545 17.0975 17.3666 16.1704 14.1921C16.0567 13.8071 15.911 13.4187 15.6233 13.1387C14.9803 12.5122 13.9147 12.6557 13.0621 12.9567C10.1031 14.0031 7.71596 16.5021 6.83145 19.477C6.47267 20.695 6.46557 22.2209 7.2293 23.1694Z" fill="black"/>
</g>
<path d="M21.7119 22.9421H21.6515C20.7599 23.0191 20.0743 23.5056 20.0743 24.0936C20.0743 24.7341 21.0796 25.5006 22.0884 25.5006C23.0937 25.5006 23.7189 24.7376 23.7189 24.0936C23.7189 23.4531 22.9019 22.9316 21.8966 22.9316C21.8362 22.9316 21.7723 22.9351 21.7119 22.9386V22.9421Z" fill="#E2DFEA"/>
<path d="M16.3906 24.0936C16.3906 24.7341 17.0158 25.5006 18.0211 25.5006C19.0264 25.5006 20.0352 24.7376 20.0352 24.0936C20.0352 23.4531 19.2182 22.9316 18.2129 22.9316C17.2076 22.9316 16.3906 23.4531 16.3906 24.0936Z" fill="#E2DFEA"/>
<path d="M20.3581 23.4673C20.1769 23.6493 20.0704 23.8628 20.0704 24.0938C20.0704 24.7343 21.0757 25.5007 22.0845 25.5007C23.0898 25.5007 23.715 24.7378 23.715 24.0938" stroke="#4C4A45" stroke-width="3" stroke-miterlimit="10" stroke-linecap="round" stroke-linejoin="round"/>
<path d="M16.3906 24.0938C16.3906 24.7343 17.0158 25.5007 18.0211 25.5007C19.0264 25.5007 20.0352 24.7378 20.0352 24.0938C20.0352 23.8628 19.9287 23.6493 19.7475 23.4673" stroke="#4C4A45" stroke-width="3" stroke-miterlimit="10" stroke-linecap="round" stroke-linejoin="round"/>
<g opacity="0.6">
<path d="M27.1966 9.83453C27.1539 9.74354 27.1539 9.63504 27.1504 9.53354C27.1468 9.40054 27.1326 9.26055 27.0722 9.14155C27.0118 9.02255 26.8911 8.92456 26.7561 8.91756C26.5962 8.91406 26.4612 9.03305 26.376 9.16255C26.2694 9.32355 26.2268 9.55104 26.1025 9.69454C26.0314 9.77854 25.9035 9.82403 25.8076 9.77154C25.7579 9.74704 25.7259 9.69804 25.694 9.65604C25.6087 9.54754 25.5092 9.44604 25.4027 9.35855C25.3458 9.31305 25.2748 9.26755 25.2037 9.28855C25.1505 9.30255 25.1149 9.34805 25.0865 9.39354C25.0084 9.51604 24.9586 9.65254 24.9373 9.79603C24.9196 9.92553 24.9267 10.0585 24.8698 10.1775C24.6389 10.678 24.0066 9.47404 23.6692 10.384C23.5697 10.65 23.655 10.9615 23.8361 11.182C24.2269 11.6545 24.6105 11.5775 25.1398 11.4305C25.8929 11.224 26.5714 10.839 27.3209 10.6255C27.5127 10.573 27.7116 10.531 27.8822 10.426C28.0527 10.321 28.1876 10.1355 28.1592 9.93953C28.1308 9.74354 27.8822 9.59654 27.7187 9.70854C27.6122 9.78203 27.566 9.93603 27.4417 9.96753C27.3422 10.0025 27.2392 9.92553 27.1966 9.83453Z" fill="white"/>
</g>
<g opacity="0.6">
<path d="M13.3172 9.83453C13.3598 9.74354 13.3598 9.63504 13.3633 9.53354C13.3669 9.40054 13.3811 9.26055 13.4415 9.14155C13.5019 9.02255 13.6227 8.92456 13.7576 8.91756C13.9175 8.91406 14.0525 9.03305 14.1377 9.16255C14.2443 9.32355 14.2869 9.55104 14.4113 9.69454C14.4823 9.77854 14.6102 9.82403 14.7061 9.77154C14.7558 9.74704 14.7878 9.69804 14.8198 9.65604C14.905 9.54754 15.0045 9.44604 15.1111 9.35855C15.1679 9.31305 15.2389 9.26755 15.31 9.28855C15.3633 9.30255 15.3988 9.34805 15.4272 9.39354C15.5054 9.51604 15.5551 9.65254 15.5764 9.79603C15.5942 9.92553 15.5871 10.0585 15.6439 10.1775C15.8748 10.678 16.5071 9.47404 16.8446 10.384C16.944 10.65 16.8588 10.9615 16.6776 11.182C16.2869 11.6545 15.9032 11.5775 15.3739 11.4305C14.6208 11.224 13.9424 10.839 13.1928 10.6255C13.001 10.573 12.8021 10.531 12.6316 10.426C12.4611 10.321 12.3261 10.1355 12.3545 9.93953C12.3829 9.74354 12.6316 9.59654 12.795 9.70854C12.9015 9.78203 12.9477 9.93603 13.0721 9.96753C13.1715 10.0025 13.271 9.92553 13.3172 9.83453Z" fill="white"/>
</g>
<path d="M22.8592 23.061C23.1896 22.7425 23.4311 22.3785 23.5341 21.997C24.1629 19.6416 14.7529 19.7956 17.5024 22.8055C18.2199 23.593 19.243 24.405 20.568 24.188C21.4063 24.048 22.2695 23.6245 22.8592 23.061Z" fill="black"/>
<path opacity="0.3" d="M20.269 22.1159C19.0703 22.1159 18.0985 21.8339 18.0985 21.4859C18.0985 21.138 19.0703 20.856 20.269 20.856C21.4677 20.856 22.4394 21.138 22.4394 21.4859C22.4394 21.8339 21.4677 22.1159 20.269 22.1159Z" fill="#B0B0B0"/>
<path d="M26.1913 45.2297C26.4897 45.2297 26.7916 45.1422 27.058 44.9777C27.3173 44.8167 27.4914 44.6172 27.6193 44.4632C27.7365 44.3162 27.8466 44.1622 27.9532 44.0082C28.0491 43.8682 28.1415 43.7352 28.2338 43.6302C28.2764 43.5812 28.4043 43.5182 28.55 43.4482C28.6601 43.3957 28.7702 43.3433 28.8839 43.2803C29.0153 43.2068 29.2107 43.0878 29.3848 42.8953C29.438 42.8358 29.4842 42.7763 29.5268 42.7098C29.7897 42.3038 30.0739 41.4918 29.0047 40.6238C28.9727 40.5993 28.9443 40.5748 28.9194 40.5538C28.8768 40.5153 28.8342 40.4733 28.7951 40.4313C28.7702 40.4033 28.7311 40.3578 28.6921 40.3158C28.6707 40.2913 28.6494 40.2598 28.6281 40.2283C28.5144 40.0708 28.3581 39.8538 28.1201 39.6753C27.8608 39.4828 27.5624 39.3813 27.2534 39.3813C27.0118 39.3813 26.7774 39.4408 26.5572 39.5598C26.4897 39.5983 26.4257 39.6368 26.3653 39.6788C26.1522 39.8398 26.0172 40.0218 25.932 40.1443C25.8609 40.2493 25.797 40.3543 25.7366 40.4593C25.6549 40.5958 25.5838 40.7148 25.5305 40.7533C25.4133 40.8338 25.2748 40.9143 25.1256 41.0018C24.9622 41.0963 24.7988 41.1908 24.6425 41.2958C24.4755 41.4078 24.2624 41.5653 24.0812 41.8033C23.8219 42.1463 23.7118 42.5558 23.7686 42.9548C23.8326 43.3923 24.0954 43.7877 24.4933 44.0362C24.5714 44.0852 24.6496 44.1237 24.7277 44.1622C24.7562 44.2322 24.7881 44.3162 24.8379 44.4002C25.0616 44.8097 25.4417 45.1002 25.8787 45.1947C25.9746 45.2192 26.0811 45.2297 26.1913 45.2297Z" fill="#AFE017"/>
<path d="M27.2459 40.4276C27.1855 40.4276 27.1215 40.4451 27.0541 40.4801C27.0327 40.4906 27.015 40.5046 26.9972 40.5186C26.9226 40.5746 26.8658 40.6481 26.8125 40.7251C26.5958 41.0436 26.475 41.3726 26.1447 41.6071C25.8534 41.8135 25.5266 41.964 25.2317 42.1635C25.1181 42.237 25.0079 42.321 24.9262 42.4295C24.8445 42.538 24.7948 42.6745 24.8126 42.8075C24.8339 42.951 24.9334 43.077 25.0577 43.154C25.0932 43.1785 25.1323 43.196 25.1714 43.2135C25.2637 43.2555 25.3632 43.2905 25.4484 43.343C25.4804 43.364 25.5124 43.385 25.5408 43.4095C25.5621 43.441 25.5834 43.4725 25.6012 43.5075C25.6687 43.637 25.6935 43.7805 25.761 43.9065C25.8321 44.036 25.9493 44.141 26.0914 44.1725C26.1198 44.1795 26.1518 44.183 26.1837 44.183C26.2868 44.183 26.3933 44.148 26.4821 44.092C26.5958 44.022 26.6882 43.9205 26.7734 43.8155C26.9972 43.539 27.1748 43.231 27.4057 42.9615C27.665 42.657 28.0096 42.559 28.3471 42.3735C28.4288 42.328 28.5105 42.279 28.5709 42.209C28.5851 42.1915 28.5993 42.174 28.6135 42.1565C28.8551 41.7821 28.4004 41.5371 28.173 41.3236C28.1162 41.2711 28.0629 41.2151 28.0096 41.1626C27.9563 41.1066 27.9066 41.0471 27.8569 40.9876C27.7432 40.8511 27.6224 40.6376 27.4661 40.5186C27.4057 40.4626 27.3311 40.4276 27.2459 40.4276ZM27.2459 38.3276C27.7894 38.3276 28.3116 38.5026 28.7556 38.8316C29.1286 39.1081 29.3559 39.4266 29.4945 39.6156L29.5264 39.6611C29.5442 39.6821 29.562 39.6996 29.5797 39.7206C29.5975 39.7381 29.6152 39.7591 29.6365 39.7766L29.6792 39.8116C29.8746 39.9691 30.1978 40.2351 30.4571 40.6586C30.9615 41.4846 30.9473 42.461 30.4145 43.2765C30.3434 43.385 30.2653 43.49 30.1765 43.5845C29.9634 43.8225 29.7111 44.0185 29.3985 44.19C29.2494 44.2705 29.1144 44.337 29.0078 44.3895C28.99 44.3965 28.9723 44.407 28.9545 44.414C28.9154 44.47 28.8693 44.533 28.8231 44.5995C28.7165 44.7535 28.5957 44.9285 28.4465 45.1105C28.2831 45.3135 28.0203 45.611 27.6224 45.8595C27.1855 46.1324 26.6882 46.2759 26.1873 46.2759C26.0026 46.2759 25.8179 46.2549 25.6367 46.2164C24.9014 46.0554 24.2655 45.5795 23.8961 44.9075C23.2425 44.491 22.8091 43.8295 22.7025 43.0945C22.6066 42.4225 22.7878 41.7401 23.2141 41.1731C23.4947 40.8021 23.8179 40.5641 24.0346 40.4206C24.23 40.2876 24.4183 40.1826 24.5817 40.0881C24.6527 40.0496 24.7202 40.0076 24.7806 39.9726C24.7913 39.9551 24.8019 39.9376 24.809 39.9236C24.8694 39.8221 24.944 39.6961 25.0399 39.5561C25.2388 39.2621 25.4591 39.0276 25.7113 38.8386C25.8179 38.7581 25.9315 38.6881 26.0452 38.6286C26.4253 38.4326 26.8303 38.3276 27.2459 38.3276Z" fill="#577708"/>
<path d="M29.1708 41.6347C29.3022 41.6347 29.4407 41.5927 29.5651 41.5157C29.7072 41.4282 29.8173 41.3057 29.9025 41.1972C30.0091 41.0677 30.1015 40.9312 30.1974 40.7947C30.3075 40.6372 30.4105 40.4867 30.5313 40.3467C30.6982 40.1542 30.9007 40.0562 31.1387 39.9407C31.2346 39.8952 31.3305 39.8497 31.4265 39.7972C31.5082 39.7517 31.6112 39.6887 31.6964 39.5977C31.7177 39.5732 31.7355 39.5487 31.7533 39.5242C32.0374 39.0868 31.6502 38.7683 31.4158 38.5793C31.3696 38.5408 31.3234 38.5023 31.2844 38.4673C31.2311 38.4183 31.1778 38.3658 31.1281 38.3098C31.0819 38.2573 31.0322 38.2013 30.986 38.1453C30.9505 38.1033 30.9185 38.0578 30.883 38.0088C30.7942 37.8863 30.6947 37.7463 30.5668 37.6483C30.4602 37.5713 30.3501 37.5293 30.2329 37.5293C30.1405 37.5293 30.0482 37.5538 29.9558 37.6028C29.9274 37.6168 29.899 37.6343 29.8741 37.6553C29.7747 37.7288 29.7036 37.8268 29.6503 37.9038C29.5899 37.9948 29.5367 38.0858 29.4834 38.1733C29.3519 38.3973 29.2347 38.5898 29.0251 38.7403C28.8759 38.8453 28.7161 38.9363 28.5491 39.0343C28.4035 39.1183 28.2578 39.2023 28.1157 39.2968C28.0021 39.3737 27.8706 39.4682 27.7676 39.6047C27.6504 39.7622 27.5971 39.9407 27.622 40.1087C27.6468 40.2942 27.7676 40.4657 27.9488 40.5777C27.9914 40.6057 28.0376 40.6267 28.0838 40.6512L28.1726 40.6897C28.2294 40.7142 28.2863 40.7387 28.3395 40.7702C28.3573 40.7807 28.3751 40.7947 28.3928 40.8087C28.4035 40.8262 28.4177 40.8437 28.4248 40.8647C28.4532 40.9207 28.471 40.9767 28.4923 41.0362C28.5207 41.1167 28.5491 41.1937 28.5882 41.2707C28.6877 41.4562 28.8546 41.5857 29.0393 41.6242C29.082 41.6312 29.1246 41.6347 29.1708 41.6347Z" fill="#AFE017"/>
<path d="M30.2258 37.7079C30.1654 37.7079 30.1015 37.7254 30.034 37.7604C30.0127 37.7709 29.9949 37.7849 29.9771 37.7989C29.9025 37.8549 29.8457 37.9284 29.7924 38.0054C29.5757 38.3239 29.455 38.6529 29.1246 38.8874C28.8333 39.0939 28.5065 39.2444 28.2117 39.4439C28.098 39.5174 27.9879 39.6014 27.9062 39.7099C27.8245 39.8184 27.7747 39.9548 27.7925 40.0878C27.8138 40.2313 27.9133 40.3573 28.0376 40.4343C28.0731 40.4588 28.1122 40.4763 28.1513 40.4938C28.2436 40.5358 28.3431 40.5708 28.4284 40.6233C28.4603 40.6443 28.4923 40.6653 28.5207 40.6898C28.542 40.7213 28.5633 40.7528 28.5811 40.7878C28.6486 40.9173 28.6735 41.0608 28.741 41.1868C28.812 41.3163 28.9292 41.4213 29.0713 41.4528C29.0997 41.4598 29.1317 41.4633 29.1637 41.4633C29.2667 41.4633 29.3733 41.4283 29.4621 41.3723C29.5757 41.3023 29.6681 41.2008 29.7534 41.0958C29.9771 40.8193 30.1548 40.5113 30.3857 40.2418C30.645 39.9373 30.9895 39.8394 31.327 39.6539C31.4087 39.6084 31.4904 39.5594 31.5508 39.4894C31.565 39.4719 31.5792 39.4544 31.5934 39.4369C31.835 39.0624 31.3803 38.8174 31.1529 38.6039C31.0961 38.5514 31.0428 38.4954 30.9895 38.4429C30.9363 38.3869 30.8865 38.3274 30.8368 38.2679C30.7231 38.1314 30.6023 37.9179 30.446 37.7989C30.3857 37.7394 30.3111 37.7079 30.2258 37.7079ZM30.2258 37.3579C30.3821 37.3579 30.5277 37.4104 30.6663 37.5119C30.819 37.6239 30.9256 37.7779 31.0215 37.9109C31.0535 37.9564 31.0855 38.0019 31.1174 38.0369C31.1636 38.0929 31.2098 38.1454 31.256 38.1979C31.2986 38.2434 31.3519 38.2924 31.4016 38.3414C31.4371 38.3764 31.4798 38.4079 31.5224 38.4464C31.7462 38.6284 32.2648 39.0519 31.8954 39.6189C31.8741 39.6539 31.8492 39.6854 31.8208 39.7169C31.7213 39.8289 31.6005 39.9023 31.5046 39.9548C31.4052 40.0108 31.3057 40.0563 31.2098 40.1053C30.9824 40.2138 30.8013 40.3013 30.6592 40.4658C30.5455 40.5988 30.4425 40.7458 30.3359 40.8998C30.24 41.0363 30.1405 41.1763 30.0304 41.3128C29.9345 41.4318 29.8137 41.5648 29.6503 41.6698C29.4976 41.7643 29.3271 41.8168 29.1637 41.8168C29.1068 41.8168 29.05 41.8098 28.9967 41.7993C28.7623 41.7468 28.5527 41.5858 28.4284 41.3548C28.3786 41.2638 28.3467 41.1728 28.3218 41.0958C28.304 41.0398 28.2863 40.9873 28.265 40.9488C28.2614 40.9453 28.2614 40.9383 28.2578 40.9348C28.2543 40.9313 28.2507 40.9278 28.2436 40.9278C28.2046 40.9033 28.1548 40.8823 28.098 40.8613C28.066 40.8473 28.0305 40.8333 27.9985 40.8193C27.9417 40.7948 27.8884 40.7668 27.8422 40.7353C27.6184 40.5953 27.4692 40.3783 27.4373 40.1438C27.4053 39.9303 27.4692 39.7029 27.6149 39.5104C27.7321 39.3564 27.8778 39.2479 28.0056 39.1639C28.1513 39.0659 28.304 38.9784 28.4497 38.8979C28.6131 38.8034 28.7694 38.7159 28.9115 38.6144C29.0891 38.4884 29.1885 38.3169 29.3164 38.1034C29.3697 38.0124 29.4265 37.9179 29.4905 37.8234C29.5509 37.7359 29.6361 37.6204 29.7569 37.5329C29.7889 37.5084 29.8244 37.4874 29.8599 37.4664C29.9842 37.3894 30.105 37.3579 30.2258 37.3579Z" fill="#577708"/>
<g opacity="0.17">
<path d="M29.7605 41.0924C29.6752 41.1974 29.5828 41.2989 29.4692 41.3689C29.3555 41.4389 29.2134 41.4809 29.0784 41.4494C28.9363 41.4179 28.8155 41.3094 28.7481 41.1834C28.6806 41.0574 28.6521 40.9104 28.5882 40.7844C28.5704 40.7494 28.5491 40.7179 28.5278 40.6864C28.4994 40.6619 28.4674 40.6409 28.4355 40.6199C28.3467 40.5674 28.2507 40.5324 28.1584 40.4904C28.2294 40.4554 28.3076 40.4379 28.3857 40.4274C28.5385 40.4099 28.7125 40.4449 28.8084 40.5604C28.8973 40.6689 28.9186 40.8404 29.0464 40.9034C29.185 40.9699 29.3448 40.8614 29.4514 40.7494C29.7498 40.4379 29.97 40.0634 30.2613 39.7484C30.4318 39.5664 30.6201 39.402 30.8297 39.2655C30.9789 39.1675 31.1494 39.059 31.1707 38.884C31.192 38.688 31.0073 38.5375 30.8652 38.401C30.7018 38.2435 30.5704 38.051 30.4816 37.8445C30.4745 37.827 30.4674 37.8095 30.4602 37.792C30.6165 37.9075 30.7373 38.121 30.851 38.261C30.9007 38.3205 30.9505 38.3765 31.0037 38.436C31.057 38.492 31.1103 38.5445 31.1671 38.597C31.3945 38.8105 31.8527 39.0555 31.6076 39.43C31.5934 39.451 31.5828 39.4684 31.565 39.4824C31.5046 39.5489 31.4229 39.6014 31.3412 39.6469C31.0002 39.8359 30.6592 39.9304 30.3999 40.2349C30.1619 40.5079 29.9842 40.8159 29.7605 41.0924Z" fill="#7D9067"/>
</g>
<g opacity="0.3">
<path d="M30.3999 38.044C30.375 38.0055 30.3466 37.967 30.3075 37.9425C30.0269 37.7745 29.8599 38.2435 29.764 38.401C29.5935 38.6705 29.3662 38.905 29.0997 39.0835C29.0713 39.1045 29.0394 39.1255 29.018 39.1535C29.0003 39.185 28.9932 39.227 29.018 39.2515C29.0394 39.2725 29.0713 39.276 29.0997 39.276C29.2028 39.2725 29.2987 39.234 29.391 39.1885C29.7356 39.0205 30.0518 38.7895 30.3182 38.513C30.3715 38.457 30.4247 38.3975 30.4532 38.324C30.4922 38.233 30.4567 38.1315 30.3999 38.044Z" fill="#DFEFCB"/>
</g>
<g opacity="0.3">
<path d="M28.8262 39.4401C28.7445 39.5066 28.6486 39.5486 28.5598 39.6046C28.4532 39.6711 28.3573 39.7551 28.2756 39.8496C28.2507 39.8811 28.2081 39.9161 28.1726 39.8951C28.1619 39.8881 28.1548 39.8776 28.1513 39.8636C28.13 39.8041 28.1619 39.7376 28.201 39.6816C28.3005 39.5416 28.4355 39.4296 28.5918 39.3561C28.6557 39.3246 28.7481 39.2791 28.8227 39.2896C28.9221 39.3001 28.8831 39.3911 28.8262 39.4401Z" fill="#DFEFCB"/>
</g>
<path d="M32.1473 38.9156C32.2788 38.9156 32.4137 38.8736 32.5416 38.7966C32.6837 38.7091 32.7938 38.5866 32.8791 38.4781C32.9857 38.3486 33.0816 38.2121 33.1775 38.0721C33.2876 37.9146 33.3906 37.7641 33.5114 37.6242C33.6748 37.4317 33.8808 37.3337 34.1188 37.2182C34.2147 37.1727 34.3107 37.1272 34.4066 37.0747C34.4883 37.0292 34.5948 36.9662 34.6765 36.8717C34.6979 36.8472 34.7156 36.8227 34.7334 36.7947C35.0176 36.3572 34.6268 36.0422 34.3959 35.8532C34.3497 35.8147 34.3036 35.7762 34.2645 35.7412C34.2112 35.6922 34.1579 35.6397 34.1082 35.5837C34.0584 35.5312 34.0123 35.4752 33.9625 35.4192C33.9306 35.3807 33.895 35.3317 33.8595 35.2827C33.7707 35.1602 33.6712 35.0202 33.5398 34.9222C33.4332 34.8452 33.3231 34.8032 33.2059 34.8032C33.1135 34.8032 33.0212 34.8277 32.9288 34.8767C32.9004 34.8907 32.8755 34.9082 32.8471 34.9292C32.7477 35.0027 32.6731 35.1007 32.6233 35.1777C32.5629 35.2687 32.5097 35.3597 32.4564 35.4472C32.3249 35.6712 32.2077 35.8637 32.0017 36.0142C31.8525 36.1192 31.6926 36.2102 31.5257 36.3082C31.38 36.3922 31.2344 36.4762 31.0923 36.5707C30.9786 36.6477 30.8472 36.7422 30.7442 36.8787C30.627 37.0362 30.5737 37.2147 30.5985 37.3827C30.6234 37.5682 30.7442 37.7397 30.9253 37.8516C30.968 37.8796 31.0142 37.9006 31.0603 37.9216L31.1527 37.9636C31.2095 37.9881 31.2664 38.0126 31.3197 38.0441C31.3374 38.0546 31.3552 38.0686 31.3729 38.0826C31.3871 38.1001 31.3978 38.1211 31.4085 38.1386C31.4369 38.1911 31.4546 38.2506 31.4759 38.3066C31.5044 38.3871 31.5328 38.4676 31.5719 38.5411C31.6713 38.7266 31.8383 38.8561 32.023 38.8946C32.0621 38.9121 32.1047 38.9156 32.1473 38.9156Z" fill="#AFE017"/>
<path d="M33.2063 34.9887C33.1459 34.9887 33.0819 35.0062 33.0144 35.0412C32.9931 35.0517 32.9754 35.0657 32.9576 35.0797C32.883 35.1357 32.8262 35.2092 32.7729 35.2862C32.5562 35.6046 32.4354 35.9336 32.1051 36.1681C31.8138 36.3746 31.487 36.5251 31.1921 36.7246C31.0785 36.7981 30.9683 36.8821 30.8866 36.9906C30.8049 37.0991 30.7552 37.2356 30.773 37.3686C30.7943 37.5121 30.8937 37.6381 31.0181 37.7151C31.0536 37.7396 31.0927 37.7571 31.1318 37.7746C31.2241 37.8166 31.3236 37.8516 31.4088 37.9041C31.4408 37.9251 31.4728 37.9461 31.5012 37.9706C31.5225 38.0021 31.5438 38.0336 31.5616 38.0686C31.6291 38.1981 31.6539 38.3416 31.7214 38.4676C31.7925 38.5971 31.9097 38.7021 32.0518 38.7336C32.0802 38.7406 32.1122 38.7441 32.1441 38.7441C32.2472 38.7441 32.3537 38.7091 32.4425 38.6531C32.5562 38.5831 32.6486 38.4816 32.7338 38.3766C32.9576 38.1001 33.1352 37.7921 33.3661 37.5226C33.6254 37.2181 33.97 37.1201 34.3075 36.9346C34.3892 36.8891 34.4709 36.8401 34.5313 36.7701C34.5455 36.7526 34.5597 36.7351 34.5739 36.7176C34.8154 36.3431 34.3608 36.0981 34.1334 35.8846C34.0766 35.8321 34.0233 35.7761 33.97 35.7236C33.9167 35.6676 33.867 35.6081 33.8173 35.5486C33.7036 35.4122 33.5828 35.1987 33.4265 35.0797C33.3661 35.0202 33.2915 34.9887 33.2063 34.9887ZM33.2063 34.6387C33.3626 34.6387 33.5082 34.6912 33.6468 34.7927C33.7995 34.9047 33.9061 35.0587 34.002 35.1917C34.0339 35.2372 34.0659 35.2827 34.0979 35.3177C34.1441 35.3737 34.1902 35.4262 34.2364 35.4787C34.2791 35.5242 34.3323 35.5731 34.3821 35.6221C34.4176 35.6571 34.4602 35.6886 34.5028 35.7271C34.7266 35.9091 35.2453 36.3326 34.8758 36.8996C34.8545 36.9346 34.8297 36.9661 34.8012 36.9976C34.7018 37.1096 34.581 37.1831 34.4851 37.2356C34.3856 37.2916 34.2862 37.3371 34.1902 37.3861C33.9629 37.4946 33.7817 37.5821 33.6396 37.7466C33.526 37.8796 33.423 38.0266 33.3164 38.1806C33.2205 38.3171 33.121 38.4571 33.0109 38.5936C32.915 38.7126 32.7942 38.8456 32.6308 38.9506C32.4781 39.0451 32.3075 39.0976 32.1441 39.0976C32.0873 39.0976 32.0305 39.0906 31.9772 39.0801C31.7427 39.0276 31.5332 38.8666 31.4088 38.6356C31.3591 38.5446 31.3271 38.4536 31.3023 38.3766C31.2845 38.3206 31.2667 38.2681 31.2454 38.2296C31.2419 38.2261 31.2419 38.2191 31.2383 38.2156C31.2348 38.2121 31.2312 38.2086 31.2241 38.2086C31.185 38.1841 31.1317 38.1631 31.0785 38.1421C31.0465 38.1281 31.011 38.1141 30.979 38.1001C30.9222 38.0756 30.8689 38.0476 30.8227 38.0161C30.5989 37.8761 30.4497 37.6591 30.4177 37.4246C30.3858 37.2111 30.4497 36.9836 30.5954 36.7911C30.7126 36.6371 30.8582 36.5286 30.9861 36.4446C31.1317 36.3466 31.2845 36.2591 31.4301 36.1786C31.5935 36.0841 31.7498 35.9966 31.8919 35.8951C32.0695 35.7691 32.1726 35.5976 32.2969 35.3842C32.3502 35.2932 32.407 35.1987 32.471 35.1042C32.5313 35.0167 32.6166 34.9012 32.7374 34.8137C32.7693 34.7892 32.8049 34.7682 32.8404 34.7472C32.9647 34.6702 33.0855 34.6387 33.2063 34.6387Z" fill="#577708"/>
<g opacity="0.17">
<path d="M32.7409 38.3732C32.6557 38.4782 32.5633 38.5797 32.4496 38.6497C32.336 38.7197 32.1939 38.7617 32.0589 38.7302C31.9168 38.6987 31.796 38.5902 31.7285 38.4642C31.661 38.3382 31.6326 38.1912 31.5687 38.0652C31.5509 38.0302 31.5296 37.9987 31.5083 37.9672C31.4799 37.9427 31.4479 37.9217 31.4159 37.9007C31.3271 37.8482 31.2312 37.8132 31.1388 37.7712C31.2099 37.7362 31.288 37.7187 31.3662 37.7082C31.5189 37.6907 31.693 37.7257 31.7889 37.8412C31.8777 37.9497 31.899 38.1212 32.0269 38.1842C32.1655 38.2507 32.3253 38.1422 32.4319 38.0302C32.7303 37.7187 32.9505 37.3442 33.2418 37.0292C33.4123 36.8472 33.6006 36.6827 33.8101 36.5462C33.9593 36.4482 34.1299 36.3397 34.1512 36.1647C34.1725 35.9687 33.9878 35.8182 33.8457 35.6817C33.6823 35.5242 33.5508 35.3317 33.462 35.1253C33.4549 35.1078 33.4478 35.0903 33.4407 35.0728C33.597 35.1883 33.7178 35.4017 33.8315 35.5417C33.8812 35.6012 33.9309 35.6572 33.9842 35.7167C34.0375 35.7727 34.0908 35.8252 34.1476 35.8777C34.375 36.0912 34.8332 36.3362 34.5881 36.7107C34.5739 36.7317 34.5632 36.7492 34.5455 36.7632C34.4851 36.8297 34.4034 36.8822 34.3217 36.9277C33.9807 37.1167 33.6396 37.2112 33.3803 37.5157C33.1423 37.7887 32.9612 38.0967 32.7409 38.3732Z" fill="#7D9067"/>
</g>
<g opacity="0.3">
<path d="M33.3768 35.3248C33.3519 35.2863 33.3235 35.2478 33.2844 35.2233C33.0038 35.0553 32.8368 35.5243 32.7409 35.6818C32.5704 35.9513 32.3431 36.1858 32.0767 36.3643C32.0482 36.3853 32.0163 36.4063 31.995 36.4343C31.9736 36.4623 31.9701 36.5078 31.995 36.5323C32.0163 36.5533 32.0482 36.5568 32.0767 36.5568C32.1797 36.5533 32.2756 36.5148 32.3679 36.4693C32.7125 36.3013 33.0287 36.0703 33.2951 35.7938C33.3484 35.7378 33.4016 35.6783 33.4301 35.6048C33.4691 35.5138 33.4372 35.4123 33.3768 35.3248Z" fill="#DFEFCB"/>
</g>
<g opacity="0.3">
<path d="M31.8036 36.7209C31.7218 36.7874 31.6259 36.8294 31.5371 36.8854C31.4306 36.9519 31.3347 37.0359 31.2529 37.1304C31.2281 37.1619 31.1855 37.1969 31.1499 37.1759C31.1393 37.1689 31.1322 37.1584 31.1286 37.1444C31.1073 37.0849 31.1393 37.0184 31.1784 36.9624C31.2778 36.8224 31.4128 36.7104 31.5691 36.6369C31.633 36.6054 31.7254 36.5599 31.8 36.5704C31.8995 36.5809 31.8639 36.6719 31.8036 36.7209Z" fill="#DFEFCB"/>
</g>
<path d="M35.1283 36.1957C35.2598 36.1957 35.3983 36.1537 35.5226 36.0767C35.6647 35.9892 35.7748 35.8667 35.8601 35.7582C35.9667 35.6287 36.0626 35.4922 36.1585 35.3523C36.2686 35.1948 36.3716 35.0443 36.4924 34.9078C36.6594 34.7153 36.8618 34.6173 37.0998 34.5018C37.1958 34.4563 37.2917 34.4108 37.3876 34.3583C37.4693 34.3128 37.5723 34.2498 37.6575 34.1588C37.6789 34.1343 37.6966 34.1098 37.7144 34.0853C37.9986 33.6478 37.6114 33.3293 37.3769 33.1403C37.3307 33.1018 37.2846 33.0633 37.2455 33.0283C37.1922 32.9793 37.1389 32.9268 37.0892 32.8708C37.043 32.8183 36.9933 32.7623 36.9471 32.7063C36.9116 32.6643 36.8796 32.6188 36.8441 32.5698C36.7553 32.4473 36.6558 32.3073 36.5279 32.2093C36.4214 32.1323 36.3112 32.0903 36.194 32.0903C36.1017 32.0903 36.0093 32.1148 35.9169 32.1638C35.8885 32.1778 35.8601 32.1953 35.8352 32.2163C35.7358 32.2898 35.6647 32.3878 35.6114 32.4648C35.5511 32.5558 35.4978 32.6468 35.4445 32.7343C35.3131 32.9583 35.1958 33.1543 34.9862 33.3013C34.8371 33.4063 34.6772 33.4973 34.5102 33.5953C34.3646 33.6793 34.219 33.7633 34.0769 33.8578C33.9632 33.9348 33.8318 34.0293 33.7287 34.1658C33.6115 34.3233 33.5582 34.5018 33.5831 34.6698C33.608 34.8553 33.7287 35.0268 33.9099 35.1388C33.9525 35.1668 33.9987 35.1878 34.0449 35.2088L34.1373 35.2473C34.1941 35.2718 34.2509 35.2963 34.3042 35.3278C34.322 35.3383 34.3397 35.3523 34.3575 35.3663C34.3682 35.3838 34.3824 35.4012 34.3895 35.4222C34.4179 35.4782 34.4356 35.5342 34.457 35.5937C34.4854 35.6742 34.5138 35.7512 34.5529 35.8282C34.6523 36.0137 34.8193 36.1432 35.004 36.1817C35.0395 36.1922 35.0857 36.1957 35.1283 36.1957Z" fill="#AFE017"/>
<path d="M36.1869 32.2689C36.1265 32.2689 36.0626 32.2864 35.9951 32.3214C35.9738 32.3319 35.956 32.3459 35.9383 32.3599C35.8637 32.4159 35.8068 32.4894 35.7535 32.5664C35.5369 32.8849 35.4161 33.2139 35.0857 33.4484C34.7944 33.6549 34.4676 33.8054 34.1728 34.0049C34.0591 34.0784 33.949 34.1624 33.8673 34.2709C33.7856 34.3794 33.7359 34.5159 33.7536 34.6489C33.7749 34.7924 33.8744 34.9184 33.9987 34.9954C34.0343 35.0199 34.0733 35.0374 34.1124 35.0549C34.2048 35.0969 34.3042 35.1319 34.3895 35.1844C34.4214 35.2054 34.4534 35.2264 34.4818 35.2509C34.5031 35.2824 34.5245 35.3139 34.5422 35.3489C34.6097 35.4784 34.6346 35.6219 34.7021 35.7479C34.7731 35.8773 34.8903 35.9823 35.0324 36.0138C35.0609 36.0208 35.0928 36.0243 35.1248 36.0243C35.2278 36.0243 35.3344 35.9893 35.4232 35.9333C35.5369 35.8633 35.6292 35.7619 35.7145 35.6569C35.9383 35.3804 36.1159 35.0724 36.3468 34.8029C36.6061 34.4984 36.9507 34.4004 37.2881 34.2149C37.3698 34.1694 37.4515 34.1204 37.5119 34.0504C37.5261 34.0329 37.5403 34.0154 37.5545 33.9979C37.7961 33.6234 37.3414 33.3784 37.1141 33.1649C37.0572 33.1124 37.0039 33.0564 36.9507 33.0039C36.8974 32.9479 36.8476 32.8884 36.7979 32.8289C36.6842 32.6924 36.5635 32.4789 36.4072 32.3599C36.3432 32.3004 36.2686 32.2689 36.1869 32.2689ZM36.1869 31.9189C36.3432 31.9189 36.4889 31.9714 36.6274 32.0729C36.7802 32.1849 36.8867 32.3389 36.9826 32.4719C37.0146 32.5174 37.0466 32.5629 37.0785 32.5979C37.1247 32.6539 37.1709 32.7064 37.2171 32.7589C37.2597 32.8044 37.313 32.8534 37.3627 32.9024C37.3982 32.9374 37.4409 32.9689 37.4835 33.0074C37.7073 33.1894 38.2259 33.6129 37.8565 34.1799C37.8352 34.2149 37.8103 34.2464 37.7819 34.2779C37.6824 34.3899 37.5616 34.4634 37.4657 34.5159C37.3663 34.5719 37.2668 34.6174 37.1709 34.6664C36.9436 34.7749 36.7624 34.8624 36.6203 35.0269C36.5066 35.1599 36.4036 35.3069 36.297 35.4609C36.2011 35.5974 36.1017 35.7374 35.9915 35.8738C35.8956 35.9928 35.7749 36.1258 35.6115 36.2308C35.4587 36.3253 35.2882 36.3778 35.1248 36.3778C35.068 36.3778 35.0111 36.3708 34.9578 36.3603C34.7234 36.3078 34.5138 36.1468 34.3895 35.9158C34.3397 35.8249 34.3078 35.7339 34.2829 35.6569C34.2651 35.6009 34.2474 35.5484 34.2261 35.5099C34.2225 35.5064 34.2225 35.4994 34.219 35.4959C34.2154 35.4924 34.2119 35.4889 34.2048 35.4889C34.1657 35.4644 34.116 35.4434 34.0591 35.4224C34.0271 35.4084 33.9916 35.3944 33.9597 35.3804C33.9028 35.3559 33.8495 35.3279 33.8034 35.2964C33.5796 35.1564 33.4304 34.9394 33.3984 34.7049C33.3664 34.4914 33.4304 34.2639 33.576 34.0714C33.6932 33.9174 33.8389 33.8089 33.9668 33.7249C34.1124 33.6269 34.2651 33.5394 34.4108 33.4589C34.5742 33.3644 34.7305 33.2769 34.8726 33.1754C35.0502 33.0494 35.1497 32.8779 35.2775 32.6644C35.3308 32.5734 35.3877 32.4789 35.4516 32.3844C35.512 32.2969 35.5972 32.1814 35.718 32.0939C35.75 32.0694 35.7855 32.0484 35.821 32.0274C35.9418 31.9504 36.0661 31.9189 36.1869 31.9189Z" fill="#577708"/>
<g opacity="0.17">
<path d="M35.7176 35.65C35.6324 35.755 35.54 35.8565 35.4263 35.9265C35.3127 35.9965 35.1706 36.0385 35.0356 36.007C34.8935 35.9755 34.7727 35.867 34.7052 35.741C34.6377 35.615 34.6093 35.468 34.5454 35.342C34.5276 35.307 34.5063 35.2755 34.485 35.244C34.4566 35.2195 34.4246 35.1985 34.3926 35.1775C34.3038 35.125 34.2079 35.09 34.1156 35.048C34.1866 35.013 34.2648 34.9955 34.3429 34.985C34.4957 34.9675 34.6697 35.0025 34.7656 35.118C34.8544 35.2265 34.8757 35.398 35.0036 35.461C35.1422 35.5275 35.302 35.419 35.4086 35.307C35.707 34.9955 35.9272 34.6211 36.2185 34.3061C36.389 34.1241 36.5773 33.9596 36.7869 33.8231C36.9361 33.7251 37.1066 33.6166 37.1279 33.4416C37.1492 33.2456 36.9645 33.0951 36.8224 32.9586C36.659 32.8011 36.5275 32.6086 36.4387 32.4021C36.4316 32.3846 36.4245 32.3671 36.4174 32.3496C36.5737 32.4651 36.6945 32.6786 36.8082 32.8186C36.8579 32.8781 36.9076 32.9341 36.9609 32.9936C37.0142 33.0496 37.0675 33.1021 37.1243 33.1546C37.3517 33.3681 37.8099 33.6131 37.5648 33.9876C37.5506 34.0086 37.5399 34.0261 37.5222 34.0401C37.4618 34.1066 37.3801 34.1591 37.2984 34.2046C36.9574 34.3936 36.6164 34.4881 36.357 34.7926C36.1226 35.0655 35.9414 35.377 35.7176 35.65Z" fill="#7D9067"/>
</g>
<g opacity="0.3">
<path d="M36.3572 32.6051C36.3323 32.5666 36.3039 32.5281 36.2648 32.5036C35.9842 32.3356 35.8172 32.8046 35.7213 32.9621C35.5508 33.2316 35.3235 33.4661 35.0571 33.6446C35.0286 33.6656 34.9967 33.6866 34.9754 33.7146C34.9576 33.7461 34.9505 33.788 34.9754 33.8125C34.9967 33.8335 35.0286 33.837 35.0571 33.837C35.1601 33.8335 35.256 33.795 35.3483 33.7495C35.6929 33.5816 36.0091 33.3506 36.2755 33.0741C36.3288 33.0181 36.382 32.9586 36.4105 32.8851C36.4495 32.7941 36.414 32.6926 36.3572 32.6051Z" fill="#DFEFCB"/>
</g>
<g opacity="0.3">
<path d="M34.7842 33.9977C34.7025 34.0642 34.6066 34.1062 34.5178 34.1622C34.4112 34.2287 34.3153 34.3127 34.2336 34.4072C34.2087 34.4387 34.1661 34.4737 34.1306 34.4527C34.1199 34.4457 34.1128 34.4352 34.1093 34.4212C34.088 34.3617 34.1199 34.2952 34.159 34.2392C34.2585 34.0992 34.3935 33.9872 34.5498 33.9137C34.6137 33.8822 34.7061 33.8367 34.7806 33.8472C34.8801 33.8612 34.8446 33.9522 34.7842 33.9977Z" fill="#DFEFCB"/>
</g>
<path d="M33.0747 32.8223C33.6431 32.8223 33.9201 31.9718 33.9912 31.4713L34.7229 26.3789C34.73 26.3404 34.7443 26.2739 34.762 26.1864C34.8792 25.623 34.9752 25.098 34.8366 24.8495C34.7798 24.748 34.6803 24.6885 34.5666 24.6885C34.3286 24.692 34.183 24.9615 34.0835 25.14L34.0516 25.1995C33.302 26.4244 32.8509 27.9539 32.453 29.3049L32.3145 29.7704C32.2754 29.8998 32.2364 30.0293 32.2079 30.1623C32.0445 30.9113 31.9238 31.8528 32.4566 32.4723C32.6591 32.7033 32.8651 32.8223 33.0747 32.8223Z" fill="#AFE017"/>
<path d="M34.5666 24.8598C34.5631 24.8598 34.5631 24.8598 34.5666 24.8598C34.4103 24.8633 34.2647 25.1853 34.2043 25.2833C33.4015 26.6028 32.9503 28.2548 32.5134 29.7212C32.4672 29.8787 32.4175 30.0327 32.382 30.1937C32.2328 30.8657 32.0978 31.7792 32.5916 32.3532C32.7727 32.5632 32.9326 32.6471 33.0782 32.6471C33.501 32.6471 33.7532 31.9017 33.8171 31.4467C34.0622 29.7492 34.3038 28.0518 34.5489 26.3543C34.5773 26.1548 34.833 25.2028 34.6803 24.9333C34.6554 24.8843 34.6164 24.8598 34.5666 24.8598ZM34.5666 24.5098C34.7442 24.5098 34.9041 24.6043 34.9929 24.7618C35.1456 25.0383 35.0924 25.4863 34.9361 26.2178C34.9183 26.2983 34.9041 26.3613 34.9005 26.3998L34.5347 28.9477L34.1688 31.4957C34.1475 31.6497 33.9272 32.9971 33.0747 32.9971C32.8118 32.9971 32.5596 32.8571 32.318 32.5806C31.7319 31.9017 31.8563 30.9112 32.0303 30.1202C32.0623 29.9802 32.1014 29.8437 32.1404 29.7142L32.1689 29.6232L32.279 29.2487C32.6804 27.8908 33.1351 26.3473 33.8953 25.1013C33.9024 25.0873 33.913 25.0698 33.9237 25.0488C34.0338 24.8493 34.2185 24.5133 34.5524 24.5063C34.5595 24.5098 34.5631 24.5098 34.5666 24.5098Z" fill="#577708"/>
<path opacity="0.25" d="M34.1191 26.6903C34.2221 26.2948 34.3215 25.8993 34.4139 25.5003C34.4778 25.2273 34.5347 24.9508 34.588 24.6743C34.421 24.7548 34.3002 24.9018 34.1972 25.0523C33.9983 25.3428 33.8455 25.6648 33.7034 25.9868C33.1138 27.3098 32.6555 28.6887 32.3358 30.0957C32.2399 30.5122 32.1831 30.9147 32.2399 31.3382C32.2967 31.7511 32.2932 32.1291 32.588 32.4721C32.6804 32.5806 32.8509 32.6611 32.9965 32.6681C33.0996 32.6751 33.2132 32.6226 33.2452 32.5281C33.263 32.4791 33.2523 32.4231 33.2416 32.3706C33.1919 32.1361 33.0711 31.9191 33.0107 31.6881C32.8793 31.2052 33.0498 30.6802 33.167 30.2112C33.2985 29.6862 33.4406 29.1647 33.5862 28.6397C33.7638 27.9922 33.9485 27.3413 34.1191 26.6903Z" fill="#689B1F"/>
<path d="M33.2918 29.6969C33.3415 29.6934 33.3699 29.8054 33.3486 29.9314C33.1852 30.8448 33.1533 31.7758 33.2456 32.6998C33.2918 33.1653 33.3735 33.6273 33.4836 34.0822C33.5405 34.3132 33.6044 34.5442 33.679 34.7717C33.7074 34.8592 33.8992 35.2477 33.6506 35.1322C33.5014 35.0657 33.409 34.7787 33.3486 34.6422C33.1888 34.2712 33.0964 33.8758 33.0218 33.4838C32.901 32.8538 32.8193 32.2133 32.8407 31.5728C32.8549 31.1808 32.9259 30.7923 33.0254 30.4143C33.0787 30.2218 33.1355 30.0258 33.203 29.8369C33.2314 29.7389 33.2634 29.7004 33.2918 29.6969Z" fill="#577708"/>
<path d="M9.22492 39.1572C9.63698 39.6297 10.0739 40.0847 10.5286 40.5187C12.6955 42.5872 15.3171 44.1971 18.1589 45.2016C21.1037 46.2376 24.18 46.3391 27.2811 45.9681C28.7268 45.7931 30.3289 45.4641 31.4799 44.5191C33.1459 43.1471 33.2986 40.9212 31.3733 39.6962C30.5527 39.1747 29.5936 38.9192 28.6629 38.6358C25.8175 37.7748 23.267 36.4973 20.9794 34.6074C20.3577 34.0929 19.7432 33.5609 19.1286 33.0254" fill="#272628"/>
<path d="M9.22492 39.1572C9.63698 39.6297 10.0739 40.0847 10.5286 40.5187C12.6955 42.5872 15.3171 44.1971 18.1589 45.2016C21.1037 46.2376 24.18 46.3391 27.2811 45.9681C28.7268 45.7931 30.3289 45.4641 31.4799 44.5191C33.1459 43.1471 33.2986 40.9212 31.3733 39.6962C30.5527 39.1747 29.5936 38.9192 28.6629 38.6358C25.8175 37.7748 23.267 36.4973 20.9794 34.6074C20.3577 34.0929 19.7432 33.5609 19.1286 33.0254" stroke="black" stroke-width="3" stroke-miterlimit="10" stroke-linecap="round" stroke-linejoin="round"/>
<g opacity="0.1">
<path d="M18.6882 33.0778C18.2654 33.6168 20.0806 35.0098 20.3755 35.2933C22.5139 37.3442 24.9579 38.8072 27.7287 39.8782C28.638 40.2282 29.5723 40.5572 30.3538 41.1346C31.6646 42.1146 31.8671 43.5321 31.2205 44.7116C31.3093 44.6486 31.3946 44.5856 31.4799 44.5156C33.1459 43.1436 33.2986 40.9177 31.3733 39.6927C30.5527 39.1712 29.5936 38.9157 28.6629 38.6322C25.8175 37.7712 23.267 36.4938 20.9794 34.6038C20.411 34.1348 19.8782 33.5818 19.292 33.1443C19.1002 33.0008 19.0718 32.8153 18.7876 32.9868C18.7485 33.0148 18.713 33.0463 18.6882 33.0778Z" fill="#70706F"/>
</g>
<path d="M27.6224 20.2048C27.7503 20.2048 27.8781 20.1978 28.006 20.1838C28.8479 20.0823 29.5974 19.6658 30.1196 19.0113C30.6418 18.3533 30.8727 17.5379 30.7732 16.7084C30.5814 15.1404 29.2316 13.9609 27.6295 13.9609C27.5016 13.9609 27.3737 13.9679 27.2458 13.9819C26.404 14.0834 25.6544 14.4999 25.1322 15.1544C24.6101 15.8089 24.3792 16.6279 24.4786 17.4574C24.6705 19.0218 26.0239 20.2048 27.6224 20.2048Z" fill="white"/>
<path d="M27.6299 14.486C27.5234 14.486 27.4168 14.493 27.3102 14.5035C25.8645 14.675 24.8343 15.97 25.0084 17.3944C25.1682 18.7139 26.3085 19.6799 27.6228 19.6799C27.7294 19.6799 27.836 19.6729 27.9425 19.6624C29.3883 19.4909 30.4185 18.1959 30.2444 16.7715C30.081 15.452 28.9443 14.486 27.6299 14.486ZM27.6299 13.436C29.4984 13.436 31.0792 14.815 31.303 16.6455C31.5481 18.6439 30.0988 20.4639 28.0704 20.7019C27.9212 20.7194 27.772 20.7299 27.6228 20.7299C25.7544 20.7299 24.1736 19.3509 23.9498 17.5204C23.7047 15.522 25.154 13.702 27.1824 13.464C27.3316 13.443 27.4808 13.436 27.6299 13.436Z" fill="black"/>
<path d="M12.8343 20.2048C12.9622 20.2048 13.0901 20.1978 13.2179 20.1838C14.0598 20.0823 14.8094 19.6658 15.3315 19.0113C15.8537 18.3533 16.0846 17.5379 15.9852 16.7084C15.7933 15.1404 14.4435 13.9609 12.8414 13.9609C12.7135 13.9609 12.5856 13.9679 12.4578 13.9819C11.6159 14.0834 10.8663 14.4999 10.3442 15.1544C9.82198 15.8124 9.59108 16.6279 9.69055 17.4574C9.88237 19.0218 11.2358 20.2048 12.8343 20.2048Z" fill="white"/>
<path d="M12.8419 14.486C12.7353 14.486 12.6287 14.493 12.5222 14.5035C11.0764 14.675 10.0462 15.97 10.2203 17.3944C10.3801 18.7139 11.5204 19.6799 12.8348 19.6799C12.9413 19.6799 13.0479 19.6729 13.1545 19.6624C14.6002 19.4909 15.6304 18.1959 15.4563 16.7715C15.2929 15.452 14.1562 14.486 12.8419 14.486ZM12.8419 13.436C14.7104 13.436 16.2911 14.815 16.5149 16.6455C16.76 18.6439 15.3107 20.4639 13.2823 20.7019C13.1331 20.7194 12.984 20.7299 12.8348 20.7299C10.9663 20.7299 9.38551 19.3509 9.16172 17.5204C8.91661 15.522 10.3659 13.702 12.3943 13.464C12.5435 13.443 12.6927 13.436 12.8419 13.436Z" fill="black"/>
<path d="M27.6579 18.8823C26.6476 18.8823 25.8285 18.0753 25.8285 17.0798C25.8285 16.0843 26.6476 15.2773 27.6579 15.2773C28.6683 15.2773 29.4874 16.0843 29.4874 17.0798C29.4874 18.0753 28.6683 18.8823 27.6579 18.8823Z" fill="black"/>
<path d="M26.8125 17.1774C26.5359 17.1774 26.3116 16.9565 26.3116 16.6839C26.3116 16.4114 26.5359 16.1904 26.8125 16.1904C27.0891 16.1904 27.3134 16.4114 27.3134 16.6839C27.3134 16.9565 27.0891 17.1774 26.8125 17.1774Z" fill="#B0B0B0"/>
<path d="M12.8699 18.8823C11.8595 18.8823 11.0404 18.0753 11.0404 17.0798C11.0404 16.0843 11.8595 15.2773 12.8699 15.2773C13.8802 15.2773 14.6993 16.0843 14.6993 17.0798C14.6993 18.0753 13.8802 18.8823 12.8699 18.8823Z" fill="black"/>
<path d="M12.0284 17.1774C11.7517 17.1774 11.5275 16.9565 11.5275 16.6839C11.5275 16.4114 11.7517 16.1904 12.0284 16.1904C12.305 16.1904 12.5292 16.4114 12.5292 16.6839C12.5292 16.9565 12.305 17.1774 12.0284 17.1774Z" fill="#B0B0B0"/>
</svg>
