<svg width="127" height="147" viewBox="0 0 127 147" fill="none" xmlns="http://www.w3.org/2000/svg">
<g clip-path="url(#clip0_229_15686)">
<path d="M87.3745 25.3877C82.481 26.6989 76.78 24.2589 74.5201 21.1583C72.2603 18.0578 71.5445 13.5423 72.7719 10.1798C73.5642 8.00235 75.125 6.50819 77.1604 5.9628C83.0256 4.39124 89.3115 8.33329 92.2439 12.8377C93.4471 14.6896 93.7765 17.224 93.1223 19.6334C92.5054 21.8983 91.1227 23.6884 89.221 24.6762C88.6466 24.9721 88.027 25.2128 87.3745 25.3877Z" fill="#272628"/>
<path d="M77.5339 7.35718C82.3495 6.06687 88.1234 9.20463 91.0032 13.626C92.8886 16.5205 92.0282 21.5929 88.5428 23.3935C88.0549 23.6438 87.538 23.8421 86.999 23.9865C82.8998 25.0849 77.7435 23.0892 75.7118 20.3011C72.5991 16.0318 72.839 8.61519 77.5339 7.35718ZM76.7867 4.56862C74.2762 5.24133 72.3549 7.06373 71.3957 9.6968C70.0135 13.4744 70.8075 18.5368 73.3317 21.9999C76.2327 25.9897 82.7037 28.1262 87.7533 26.7732C88.505 26.5717 89.2292 26.2955 89.8954 25.9451C92.1647 24.7692 93.8101 22.6546 94.5412 19.993C95.2991 17.2046 94.9053 14.2317 93.4845 12.0496C90.2619 7.11483 83.3185 2.81843 76.7867 4.56862Z" fill="black"/>
<g opacity="0.1">
<path d="M88.267 10.5932C85.5192 8.84882 82.2796 8.02073 79.3932 8.79416C74.7124 10.0484 74.4792 17.4333 77.5811 21.6906C77.8003 21.998 78.0601 22.287 78.3555 22.5665C77.2567 21.9269 76.3342 21.1505 75.7076 20.2872C72.6058 16.03 72.8389 8.64502 77.5197 7.39082C81.1012 6.43116 85.2211 7.93492 88.267 10.5932Z" fill="#EAE6E4"/>
</g>
<path d="M29.1409 40.9918C28.4884 41.1667 27.8314 41.268 27.186 41.2989C25.0542 41.3994 22.9617 40.5404 21.286 38.8824C19.5166 37.1298 18.5329 34.7633 18.6489 32.5579C18.9362 27.1908 22.409 20.6339 28.2741 19.0624C30.3096 18.517 32.4083 19.0306 34.1832 20.5201C36.9255 22.8114 38.5634 27.0799 38.1584 30.9019C37.7498 34.71 34.0344 39.6806 29.1409 40.9918Z" fill="#272628"/>
<path d="M28.6478 20.4563C33.3427 19.1983 37.2517 25.5032 36.6997 30.762C36.3342 34.1924 32.8666 38.4988 28.7674 39.5972C28.2355 39.7397 27.6815 39.8284 27.1339 39.8556C23.2133 40.0319 19.9338 36.0763 20.1193 32.6268C20.4007 27.351 23.8323 21.7466 28.6478 20.4563ZM27.9006 17.6677C21.3617 19.4198 17.5039 26.6104 17.1875 32.4934C17.0481 35.0936 18.1936 37.8651 20.2441 39.9009C22.2028 41.8493 24.6921 42.856 27.2435 42.7328C27.9938 42.6961 28.7609 42.5802 29.5127 42.3788C34.5622 41.0258 39.0962 35.933 39.6155 31.0342C40.07 26.773 38.2263 21.9918 35.1405 19.4115C32.9863 17.6126 30.4112 16.995 27.9006 17.6677Z" fill="black"/>
<g opacity="0.1">
<path d="M31.4478 20.5801C31.1563 20.5985 30.858 20.6485 30.5601 20.7283C25.7375 22.0205 22.306 27.6249 22.0227 32.8938C21.8703 35.7291 24.0689 38.9133 27.0342 39.8523C23.152 39.9735 19.9244 36.0413 20.1032 32.6236C20.4007 27.3509 23.8322 21.7465 28.6477 20.4562C29.6264 20.194 30.572 20.2619 31.4478 20.5801Z" fill="#EAE6E4"/>
</g>
<path d="M45.6803 97.3512C45.5101 97.3968 45.3451 97.4335 45.1659 97.474C45.1659 97.474 45.1588 97.4759 45.1517 97.4778C44.9177 97.5406 44.6299 97.5728 44.3794 97.6026L44.2693 97.6172C39.1923 98.2154 34.4843 97.8928 30.2842 96.6571C27.7591 95.9141 21.5844 93.7205 18.6812 89.4101C17.9104 88.2642 17.7553 87.1177 18.2325 86.1754C18.3071 86.0284 18.3997 85.8915 18.4907 85.7774C17.3278 84.9832 16.557 83.5534 16.5074 82.0349C16.4675 80.8651 17.0123 79.6357 17.889 78.9076C18.2129 78.6415 18.5877 78.4514 19.0061 78.3393C19.4245 78.2272 19.837 78.2063 20.1733 78.2133C20.0646 77.7792 20.0518 77.3343 20.1335 76.9015C20.2919 76.0745 20.7968 75.3489 21.5448 74.8496C21.9136 74.6088 22.3346 74.4213 22.7814 74.3016C24.5331 73.8322 26.4885 74.4066 28.0688 74.8574C28.3652 74.9424 28.6545 75.0292 28.924 75.099C31.4909 75.7711 34.1007 76.4615 36.6436 76.6469C37.5358 76.7142 38.413 76.7257 39.3507 76.736C41.0447 76.7603 42.7902 76.7783 44.5313 77.1486C44.756 77.193 44.9685 77.2481 45.1757 77.3122C46.3367 77.6736 47.4791 78.675 48.6894 80.3831C50.7965 83.3677 52.0867 88.8351 50.5951 92.8288C49.73 95.1602 48.0278 96.7222 45.6803 97.3512Z" fill="#272628"/>
<path d="M23.069 75.3457C24.8208 74.8764 27.0394 75.724 28.6353 76.1481C31.2022 76.8202 33.9031 77.5386 36.5546 77.7322C39.1296 77.924 41.7541 77.6765 44.2997 78.2124C44.4853 78.2523 44.6727 78.2992 44.8477 78.3569C46.0319 78.7196 47.1218 80.0639 47.7958 81.019C50.7707 85.2281 51.8632 94.5816 45.4023 96.3128C45.2605 96.3508 45.1097 96.3837 44.9589 96.4167C44.6964 96.487 44.421 96.5085 44.1563 96.542C39.6337 97.0814 34.981 96.9084 30.6147 95.6201C26.7449 94.4827 21.9144 92.2278 19.6079 88.811C19.2016 88.2026 18.8655 87.3736 19.2229 86.6651C19.683 85.7723 21.1 85.8409 19.5574 85.1334C18.371 84.5921 17.6547 83.2522 17.6138 81.993C17.5875 81.1856 17.9635 80.2629 18.5991 79.7414C18.8104 79.5653 19.0474 79.4569 19.2956 79.3904C19.6502 79.2954 20.0291 79.291 20.4013 79.3183C20.6096 79.3298 21.3256 79.5339 21.6731 79.4408C21.822 79.4009 21.8974 79.3135 21.8399 79.1271C21.7992 79.0035 21.7159 78.8914 21.6345 78.7861C20.8884 77.7607 21.0606 76.4742 22.1527 75.7557C22.4438 75.5656 22.7499 75.4313 23.069 75.3457ZM22.5086 73.2543C21.9413 73.4064 21.4176 73.6363 20.9466 73.9493C19.9444 74.6064 19.272 75.5861 19.055 76.7052C19.0252 76.8776 18.9972 77.057 18.9905 77.2306C18.9035 77.2464 18.8184 77.2692 18.7333 77.292C18.1589 77.446 17.6375 77.7127 17.1956 78.0777C16.0636 79.0161 15.3666 80.5852 15.4159 82.0738C15.4688 83.5764 16.1045 85.0126 17.1137 86.0273C16.6436 87.2517 16.8735 88.677 17.7712 90.013C20.8668 94.6157 27.3293 96.9189 29.9686 97.6911C34.317 98.9693 39.1728 99.3045 44.4043 98.6873L44.5144 98.6727C44.772 98.6411 45.09 98.6082 45.4465 98.5201C45.6256 98.4796 45.7977 98.4409 45.9679 98.3953C48.6771 97.6694 50.6432 95.8724 51.6374 93.2C53.3166 88.7152 51.8427 82.9309 49.6034 79.7651C48.2554 77.8548 46.9244 76.7171 45.5241 76.2853C45.2919 76.213 45.0384 76.1464 44.7815 76.0957C42.9352 75.7013 41.1273 75.6776 39.3818 75.6596C38.4654 75.6437 37.5971 75.6372 36.7441 75.5744C34.3009 75.3922 31.734 74.7201 29.2545 74.0619C28.96 73.984 28.6867 73.9003 28.3922 73.8223C26.685 73.3233 24.5582 72.7051 22.5086 73.2543Z" fill="black"/>
<g opacity="0.2">
<path d="M34.0869 84.0716C33.7921 82.9999 33.0319 81.9782 31.6148 81.4837C30.1977 80.9892 28.0386 81.1866 26.8604 82.1225C25.8777 82.9089 25.7932 83.9552 25.9524 84.8615C26.2469 86.4712 27.2473 88.0487 29.3207 88.8082C29.6585 88.9344 30.0333 89.0282 30.4443 89.0301C33.8065 89.0109 34.4485 85.3645 34.0869 84.0716Z" fill="#EAE6E4"/>
</g>
<g opacity="0.1">
<path d="M67.8554 51.6293C61.7056 50.5499 55.8446 52.3071 51.3501 57.0083C49.9017 58.5246 48.9384 60.6881 47.3761 62.0631C45.1894 64.0014 40.8725 67.9751 43.2232 71.9255C44.0141 73.2603 45.2406 74.1496 46.4714 74.8285C50.8451 77.2505 55.6471 77.5554 60.277 77.6149C62.1685 77.6386 64.0667 77.6306 65.9133 77.345C71.0641 76.5402 75.7684 73.5014 78.9724 68.8919C80.1744 67.1651 81.1997 65.1196 81.2854 62.7728C81.4094 59.3773 79.6718 56.4954 77.0567 55.3879C73.9764 54.0763 71.1024 52.2013 67.8554 51.6293Z" fill="black"/>
</g>
<g opacity="0.2">
<path d="M27.0166 77.7402C26.9187 77.3181 26.688 76.9391 26.3337 76.6381C25.7169 76.1234 24.8411 75.9471 24.1031 76.1149C23.3723 76.2809 22.4128 77.2105 22.9057 78.1992C23.2963 78.9762 24.0139 79.5834 24.7065 79.8985C25.0697 80.0626 25.4766 80.1628 25.8689 80.0951C26.3288 80.0241 26.5871 79.7681 26.8139 79.2815C27.0706 78.7644 27.1313 78.2251 27.0166 77.7402Z" fill="#EAE6E4"/>
</g>
<g opacity="0.2">
<path d="M23.6255 81.8763C23.5743 81.7705 23.5 81.6634 23.4115 81.5601C22.5863 80.6081 20.7339 80.021 19.6475 80.9024C19.0171 81.415 19.1099 82.1299 19.3799 82.7972C19.6757 83.5324 20.2768 84.0737 21.0223 84.3596C21.2083 84.4294 21.4154 84.4934 21.645 84.4991C22.5241 84.5176 23.2347 84.0209 23.5698 83.2287C23.7683 82.7496 23.8301 82.2997 23.6255 81.8763Z" fill="#EAE6E4"/>
</g>
<g opacity="0.2">
<path d="M24.4164 87.8065C24.2237 87.2006 23.6663 86.7373 23.1104 86.3931C22.4003 85.9557 21.5813 85.9062 20.8157 86.2832C19.2317 87.0663 20.5931 89.1971 21.6202 89.7961C21.7994 89.8975 22.0017 90.0002 22.2407 90.0408C23.2945 90.2292 24.3272 89.6013 24.4718 88.5239C24.5095 88.2673 24.4833 88.0277 24.4164 87.8065Z" fill="#EAE6E4"/>
</g>
<path d="M84.3952 106.098C84.3303 106.168 84.2564 106.233 84.1825 106.297C83.5421 106.858 82.8975 107.374 82.2862 107.986C79.3315 110.945 76.22 113.743 73.0163 116.425C71.8616 117.392 70.687 118.342 69.5106 119.285C66.233 121.889 62.6764 124.105 59.1198 126.32C57.4589 127.356 55.798 128.391 54.0643 129.296C52.4649 130.136 50.732 131.101 48.8696 130.987C45.946 130.799 43.2624 129.209 41.1973 127.148C40.9161 126.864 40.6402 126.572 40.3695 126.271C38.2539 123.879 36.569 121.08 35.6867 118.014C34.6093 114.305 34.0812 109.867 36.3344 106.446C36.5997 106.046 36.9042 105.651 37.3193 105.412C37.7343 105.174 38.2957 105.113 38.6922 105.373C38.7674 104.434 39.8032 103.902 40.7012 103.595C41.578 103.292 42.7292 103.305 42.9758 104.225C42.8301 103.682 43.4086 103.146 43.799 103.071C44.6367 102.906 45.5916 103.151 46.3673 103.436C47.4309 103.831 48.3446 104.745 49.5059 104.852C50.5586 104.951 51.4513 104.226 52.2101 103.597C53.0181 102.924 53.9759 102.414 54.878 101.866C61.6799 97.7193 68.9365 93.7949 76.8327 92.1722C78.49 91.8328 80.172 91.6137 81.8559 91.5436C83.458 91.4804 85.0994 91.5636 86.5714 92.1779C87.8038 92.6921 88.9171 93.6415 89.4187 94.8894C89.9498 96.2191 89.1987 97.7279 88.6611 98.9554C87.8989 100.706 86.9738 102.389 85.9107 103.981C85.464 104.669 84.9871 105.499 84.3952 106.098Z" fill="#272628"/>
<g opacity="0.15">
<path d="M84.3403 105.837C84.4116 105.706 84.4758 105.576 84.5399 105.447C84.6578 105.206 84.7608 104.91 84.6103 104.688C84.4834 104.498 84.2123 104.451 83.9943 104.517C83.7764 104.583 83.5898 104.738 83.4155 104.882C78.8178 108.744 73.9113 112.248 68.7613 115.353C67.0399 116.39 65.2435 117.402 63.2532 117.719C62.6851 117.811 62.1002 117.841 61.5503 117.689C60.5024 117.41 59.9426 116.342 59.3134 115.554C58.5252 114.569 57.7388 113.592 57.0017 112.572C56.0492 111.258 55.1168 109.849 53.772 108.887C53.0555 108.369 51.8799 107.556 50.9362 107.637C50.5275 107.671 50.1091 107.926 50.0181 108.324C49.9778 108.514 50.0159 108.713 50.0663 108.901C50.2752 109.652 50.6841 110.327 51.0646 111.009C54.0525 116.373 55.5657 122.73 54.1941 128.731C55.6924 128.337 57.2297 127.38 58.4128 126.405C60.2756 124.875 62.4875 123.797 64.4951 122.467C66.5856 121.077 68.6144 119.6 70.6433 118.122C73.2063 116.255 75.7692 114.387 78.1858 112.343C80.3666 110.495 82.9799 108.39 84.3403 105.837Z" fill="black"/>
</g>
<path d="M91.5782 84.6794C91.5782 84.6794 93.26 96.8563 81.1472 109.21C79.0994 111.298 76.9363 113.267 74.6846 115.134C69.6992 119.279 64.3254 122.968 58.7312 126.26C57.1491 127.192 55.5505 128.091 53.9246 128.945C52.8642 129.498 52.1339 130.262 50.9137 130.559C49.1951 130.982 47.3439 130.768 45.7237 130.112C43.7619 129.315 42.1165 127.94 40.7074 126.397C39.1829 124.736 37.9089 123.187 36.8797 121.161C35.7683 118.971 34.9417 116.652 34.7093 114.196C34.4227 111.112 34.8662 106.413 38.5459 105.48C38.6452 105.453 38.9019 104.652 39.5084 104.22C40.5344 103.482 41.9946 103.031 42.9519 104.023C43.6864 103.303 44.1492 103.186 44.3724 103.111C45.1447 102.845 45.9417 103.124 46.6175 103.519C47.3559 103.948 48.1826 105.019 48.9737 105.248C49.9701 105.534 55.3953 101.413 59.6099 99.0435" stroke="black" stroke-width="8.93683" stroke-miterlimit="10" stroke-linecap="round" stroke-linejoin="round"/>
<path d="M49.9335 125.823C49.5761 126.674 48.9995 127.217 48.3164 127.504C47.1821 127.98 45.74 127.761 44.5092 127.082C43.3948 126.469 42.4953 125.552 41.6895 124.587C41.312 124.143 40.9502 123.672 40.6149 123.187C39.2284 121.19 38.2634 118.893 38.4928 116.515C38.5937 115.502 38.938 114.461 39.6833 113.753C42.3044 111.28 45.747 113.66 47.6158 115.954C47.8996 116.303 48.1531 116.654 48.3548 116.981C48.6345 117.429 48.9004 117.911 49.1345 118.416C50.1601 120.569 50.9125 123.491 49.9335 125.823Z" fill="#66636B"/>
<g opacity="0.15">
<path d="M49.9333 125.823C49.5759 126.673 48.9993 127.216 48.3163 127.504C47.1819 127.98 45.7399 127.761 44.509 127.082C43.3946 126.469 42.4951 125.552 41.6894 124.587C41.3119 124.143 40.9501 123.672 40.6147 123.186C42.4217 124.54 44.3925 125.058 45.962 124.391C48.4251 123.343 49.0622 119.735 47.6228 115.951C47.9065 116.301 48.1601 116.652 48.3617 116.979C48.6414 117.427 48.9073 117.908 49.1415 118.414C50.1599 120.569 50.9123 123.491 49.9333 125.823Z" fill="black"/>
</g>
<path d="M37.8401 109.51C38.6638 110.627 38.9866 115.292 36.6916 113.479C34.9178 112.079 36.3122 107.439 37.8401 109.51Z" fill="#66636B"/>
<path d="M44.2525 107.373C43.8743 108.968 45.0483 112.3 46.7155 111.345C47.1306 111.107 47.3754 110.631 47.4245 110.162C47.4737 109.693 47.3467 109.219 47.1685 108.781C46.9336 108.216 46.6031 107.692 46.1969 107.225C45.9243 106.917 45.586 106.619 45.1709 106.574C44.6685 106.514 44.3774 106.846 44.2525 107.373Z" fill="#66636B"/>
<path d="M40.9313 106.977C41.1791 107.023 41.3718 107.203 41.5342 107.384C41.933 107.822 42.2702 108.315 42.5279 108.851C43.2882 110.44 41.896 112.876 40.2017 111.29C39.3896 110.529 39.3727 106.693 40.9313 106.977Z" fill="#66636B"/>
<g opacity="0.15">
<path d="M36.6818 113.473C36.3331 113.193 36.1019 112.784 35.9805 112.331C36.0582 112.422 36.1411 112.505 36.2381 112.583C38.1665 114.107 38.2469 111.059 37.7362 109.38C37.7687 109.416 37.803 109.459 37.8393 109.509C38.654 110.621 38.9787 115.294 36.6818 113.473Z" fill="black"/>
</g>
<g opacity="0.15">
<path d="M47.4237 110.154C47.3764 110.63 47.1297 111.1 46.7147 111.338C45.1217 112.258 43.975 109.255 44.2117 107.585C44.4013 109.201 45.4074 111.083 46.7178 110.329C47.0534 110.134 47.2803 109.789 47.3769 109.412C47.4299 109.667 47.4509 109.915 47.4237 110.154Z" fill="black"/>
</g>
<g opacity="0.15">
<path d="M40.2019 111.29C39.9588 111.064 39.7852 110.557 39.7048 109.974C39.7742 110.119 39.8523 110.24 39.9441 110.328C41.3431 111.634 42.5399 110.2 42.4807 108.759C42.4971 108.792 42.5116 108.818 42.5281 108.851C43.2955 110.439 41.8962 112.876 40.2019 111.29Z" fill="black"/>
</g>
<path d="M38.4509 108.756C38.2412 107.661 38.2906 106.512 38.6096 105.433" stroke="black" stroke-width="3.57473" stroke-miterlimit="10" stroke-linecap="round" stroke-linejoin="round"/>
<path d="M42.8132 106.967C42.6185 105.928 42.6828 104.835 43.0148 103.804" stroke="black" stroke-width="3.57473" stroke-miterlimit="10" stroke-linecap="round" stroke-linejoin="round"/>
<path d="M105.486 111.027C104.993 111.428 104.506 111.821 104.033 112.186C101.442 114.203 98.2645 116.556 95.0391 117.398C91.4307 118.343 88.0636 119.932 84.3384 120.639C80.4552 121.381 76.504 121.67 72.5636 121.829C63.3207 122.198 53.7213 117.493 47.7385 108.583C47.1798 107.746 46.6511 106.879 46.1701 105.992C44.2719 102.511 42.9776 98.6733 42.1641 94.7294C41.1077 89.5953 40.8866 84.2598 41.2513 79.2381C41.5919 74.5516 43.0247 70.1403 45.1482 66.1791C47.1986 62.342 49.9019 58.9278 52.885 56.1036C54.1752 54.8762 55.5255 53.7597 56.9005 52.7636C60.0382 50.4883 63.4941 48.7478 67.1618 47.7128C71.0068 46.6302 75.082 46.4349 79.1163 47.0799C80.2268 47.2531 81.3258 47.4966 82.4256 47.7996C84.4609 48.3601 86.3944 49.1646 88.2416 50.1864C89.3023 50.769 90.3211 51.4225 91.3123 52.1432C97.0694 56.3241 101.318 61.8806 105.495 67.5158C110.314 74.0103 115.842 80.9949 116.04 89.3926C116.144 93.7807 115.419 98.3682 113.326 102.299C111.622 105.528 108.471 108.576 105.486 111.027Z" fill="#E2DFEA" stroke="black" stroke-width="5.3621" stroke-miterlimit="10"/>
<path d="M110.125 73.7019C105.261 78.1584 97.658 83.5132 91.9406 86.4872C85.3271 89.9181 77.7375 92.146 70.5449 93.8416C65.4543 95.0412 60.2164 95.7199 54.9116 95.4677C50.6303 95.2624 46.395 95.3138 42.1206 94.5388C41.0642 89.4048 40.8432 84.0693 41.2079 79.0475C41.5484 74.3611 42.9812 69.9498 45.1048 65.9885C47.1551 62.1515 49.8585 58.7372 52.8416 55.913C57.1214 54.6093 61.3639 53.1662 65.5731 51.6274C70.0675 49.9898 74.683 48.7755 79.0728 46.8894C80.1834 47.0625 81.2824 47.306 82.3822 47.6091C84.4175 48.1696 86.3509 48.9741 88.1982 49.9959C89.2588 50.5784 90.2777 51.232 91.2689 51.9526C93.6662 53.6938 95.8922 55.8172 97.9425 58.2491C101.149 62.0748 103.691 64.4421 106.661 68.6303C112.92 77.4661 110.122 71.7601 110.125 73.7019Z" fill="#272628"/>
<g opacity="0.1">
<path d="M117.273 94.053C116.902 96.8648 115.991 99.6494 114.233 101.914C113.738 101.456 113.513 100.784 113.296 100.147C113.076 99.4963 112.844 98.8562 112.603 98.211C109.187 89.039 103.892 80.5652 97.1502 73.4202C95.5903 71.7685 93.9116 70.298 92.5917 68.4923C91.1739 66.5484 89.3869 64.8155 87.6086 63.1999C84.1583 60.0821 80.3136 57.4211 76.5812 54.6404C72.4699 51.5802 79.0323 49.5752 81.5168 49.0888C84.2267 48.5644 87.2284 50.4052 89.5423 51.7503C92.4047 53.4117 95.0249 55.4742 97.3954 57.7681C101.689 61.9076 105.22 66.7448 108.657 71.5997C110.085 73.6082 111.5 75.6275 112.733 77.7627C114.391 80.6287 115.72 83.6873 116.676 86.8606C117.129 88.3531 117.494 89.8842 117.464 91.4464C117.45 92.302 117.388 93.1778 117.273 94.053Z" fill="black"/>
</g>
<path d="M69.8163 74.782C67.0007 75.5365 64.1784 75.8967 60.802 76.2036C58.2503 76.439 55.2252 76.6668 52.0851 76.6639C50.7151 76.6573 49.4568 76.6135 48.2297 76.5163C47.6474 76.4706 47.0684 76.4091 46.4965 76.3456C46.2453 76.3158 45.9851 76.2809 45.723 76.2391C44.6483 76.0862 43.5978 75.882 42.6037 75.6328C41.8862 75.4515 41.1862 75.2505 40.5251 75.0242C29.7631 71.3699 24.3117 63.2516 24.7515 51.5597C24.927 46.91 26.5283 37.8509 29.0913 32.9201C29.6973 31.749 30.3857 30.6305 31.1377 29.6071L31.3508 29.296L31.3791 29.2884C32.5864 27.6947 33.9822 26.2372 35.5475 24.9586C40.1974 21.1497 45.8306 19.1098 52.866 17.2247C53.2702 17.1164 54.2508 16.8611 54.2508 16.8611C54.648 16.7547 55.0432 16.6413 55.4475 16.533C57.1638 16.0731 58.6038 15.7171 59.9823 15.415C65.1928 14.2654 69.4176 13.9478 73.2701 14.4249C75.7469 14.7326 78.0409 15.3508 80.2842 16.3188C81.5151 16.8557 82.7295 17.5017 83.8846 18.2382C88.6361 21.2764 94.1664 28.0435 96.5798 31.8875C99.6161 36.7227 101.101 41.5254 100.993 46.172C100.964 47.2557 100.851 48.3393 100.655 49.3932C100.524 50.1233 100.332 50.8844 100.088 51.6448C99.8245 52.5073 99.4835 53.3907 99.0712 54.2633C98.0877 56.3799 96.7193 58.4502 94.9955 60.4139L94.9358 60.4747C93.9853 61.5513 92.8709 62.6121 91.6206 63.6196C90.9779 64.143 90.333 64.6296 89.6152 65.1282L89.3596 65.3088C86.9683 66.9658 84.4101 68.3685 82.4591 69.3994C78.4228 71.527 75.2495 72.9601 72.1536 74.0586C71.3956 74.3215 70.6106 74.5692 69.8163 74.782Z" fill="#E2DFEA"/>
<path d="M55.7184 17.5735C57.2149 17.1726 58.7098 16.7944 60.2036 16.4689C64.5448 15.5074 68.8558 14.9724 73.1162 15.4971C75.365 15.7762 77.6015 16.3501 79.8198 17.3098C80.9808 17.8132 82.1325 18.4236 83.2697 19.15C87.6177 21.9302 93.0493 28.3576 95.6315 32.4627C98.2701 36.6648 99.9894 41.3224 99.8785 46.1565C99.8522 47.1648 99.7531 48.1851 99.5562 49.2092C99.4265 49.9165 99.2434 50.623 99.0229 51.3322C98.7666 52.163 98.4499 52.995 98.0637 53.8233C97.1548 55.7929 95.8723 57.7579 94.1627 59.7179C94.1556 59.7198 94.1504 59.7286 94.1451 59.7375C93.1789 60.8407 92.0906 61.8571 90.9284 62.7962C90.9161 62.8069 90.9038 62.8177 90.8915 62.8285C90.2734 63.3303 89.6337 63.8081 88.9813 64.2668C88.8984 64.3264 88.8137 64.379 88.7309 64.4385C86.5247 65.9637 84.1718 67.2816 81.9345 68.4638C78.6246 70.21 75.2702 71.8186 71.7776 73.0533C71.0285 73.3213 70.2842 73.5506 69.5324 73.7521C66.653 74.5236 63.7344 74.8648 60.7063 75.1382C57.9982 75.3856 55.0601 75.5976 52.0943 75.5928C50.84 75.5926 49.5798 75.5417 48.3296 75.4433C47.7633 75.4008 47.2004 75.3424 46.6427 75.2752C46.3915 75.2454 46.1473 75.2136 45.8942 75.1769C44.8747 75.0316 43.8653 74.8388 42.8802 74.5947C42.2037 74.4248 41.5359 74.2301 40.8926 74.0139C29.0368 69.9653 25.4845 61.0767 25.8457 51.5877C26.0227 46.7732 27.6807 37.9828 30.0632 33.3992C30.6553 32.2617 31.3143 31.2035 32.0241 30.2212C32.0312 30.2193 32.0312 30.2193 32.0312 30.2193C33.2884 28.5002 34.6984 27.0389 36.2391 25.7818C40.9946 21.8849 46.9385 19.9261 53.1369 18.2652C53.5341 18.1588 53.9383 18.0505 54.3444 17.9492L54.5288 17.8998C54.9241 17.7864 55.3213 17.68 55.7184 17.5735ZM55.158 15.4821C54.7538 15.5904 54.3496 15.6988 53.9472 15.814L53.777 15.8596C53.3869 15.9642 52.9737 16.0674 52.5694 16.1757C45.3994 18.0969 39.6351 20.1869 34.8303 24.1269C33.3019 25.3733 31.9181 26.7902 30.7209 28.3363L30.7067 28.3401L30.6996 28.342L30.6855 28.3458L30.2238 28.9776C29.4387 30.0473 28.7241 31.2101 28.0939 32.4325C25.4614 37.5015 23.8132 46.7824 23.6335 51.5304C23.1737 63.7431 28.8806 72.2189 40.1376 76.0469C40.8398 76.2846 41.5647 76.4939 42.3073 76.6834C43.3335 76.939 44.425 77.1546 45.546 77.31C45.8152 77.35 46.0843 77.3899 46.3587 77.421C46.9093 77.4901 47.5115 77.553 48.117 77.5999C49.3529 77.7021 50.6807 77.7498 52.0578 77.7544C55.2602 77.7631 58.454 77.5125 60.8796 77.2885C64.3075 76.9752 67.1884 76.6068 70.082 75.8315C70.9118 75.6091 71.7251 75.3538 72.5026 75.0782C75.641 73.9683 78.8603 72.508 82.9514 70.3582C84.9431 69.309 87.533 67.8828 89.9754 66.1897L90.233 66.0161C90.9753 65.4959 91.6396 64.9966 92.27 64.484C92.2894 64.4713 92.307 64.4517 92.3316 64.4301C93.5994 63.403 94.7333 62.3296 95.7013 61.2333L95.7136 61.2226L95.8137 61.1136C97.6005 59.0732 99.0282 56.9123 100.055 54.7019C100.486 53.7869 100.845 52.854 101.123 51.9351C101.367 51.1449 101.57 50.3432 101.712 49.5657C101.918 48.4642 102.037 47.3191 102.067 46.1828C102.187 41.3239 100.648 36.319 97.4955 31.3057C95.0313 27.3857 89.3636 20.4462 84.4758 17.325C83.2651 16.551 82.0058 15.8798 80.7231 15.3194C78.41 14.3177 75.9517 13.6539 73.4054 13.3424C69.4193 12.8488 65.0736 13.169 59.7354 14.3527C58.3499 14.6568 56.8956 15.0165 55.158 15.4821Z" fill="black"/>
<path d="M48.4908 38.7129C47.618 38.6329 46.7397 38.816 45.8924 39.058C42.7017 39.9727 39.7733 41.781 37.536 44.2111C37.3535 44.4094 37.5283 44.7213 37.7892 44.6738C38.1602 44.6117 38.5562 44.4159 38.894 44.4001C39.1341 44.3881 39.2764 44.6638 39.1275 44.8457C37.8777 46.4508 36.8776 48.2505 36.1796 50.1561C36.0886 50.4121 36.3761 50.6339 36.6019 50.4838C36.609 50.4819 36.6161 50.48 36.6142 50.473C36.8419 50.3298 37.1204 50.5466 37.0294 50.8026C35.7987 54.3229 35.5595 58.1678 36.3547 61.7878C36.3659 61.8296 36.3789 61.8784 36.3902 61.9202C36.4593 62.1782 36.8277 62.1915 36.9296 61.9476C38.4126 58.4045 39.3148 54.651 40.7959 51.1009C42.3446 47.4058 44.665 43.8102 48.2216 41.8784C49.0379 41.4355 49.9109 41.1194 50.7638 40.7564C50.9284 40.6899 50.9881 40.4871 50.8884 40.3419C50.3059 39.4445 49.816 38.836 48.4908 38.7129Z" fill="#ECEAF4"/>
<path d="M71.4481 32.5615C72.164 32.0558 73.0161 31.7752 73.8709 31.5611C77.0915 30.7579 80.5317 30.8598 83.6844 31.8456C83.9416 31.9261 83.9462 32.2836 83.6964 32.3729C83.3441 32.5047 82.9032 32.5331 82.6028 32.6884C82.3889 32.798 82.4035 33.1079 82.6234 33.1909C84.5083 33.9561 86.2742 35.0147 87.8315 36.3159C88.0383 36.4921 87.9003 36.828 87.6296 36.8109C87.6226 36.8128 87.6155 36.8147 87.6136 36.8077C87.3448 36.7975 87.212 37.1245 87.4188 37.3007C90.2448 39.734 92.3744 42.9442 93.4958 46.4768C93.507 46.5186 93.5201 46.5674 93.5313 46.6093C93.6004 46.8672 93.288 47.063 93.0778 46.9026C90.0219 44.5758 87.3638 41.7762 84.3061 39.4424C81.1173 37.0166 77.3101 35.0629 73.264 35.1683C72.3356 35.1929 71.4215 35.3556 70.5014 35.4677C70.3256 35.4924 70.1725 35.3466 70.1862 35.171C70.242 34.1026 70.362 33.3307 71.4481 32.5615Z" fill="#ECEAF4"/>
<g opacity="0.6">
<path d="M88.7254 64.4173C86.5192 65.9424 84.1663 67.2603 81.929 68.4426C78.6191 70.1888 75.2647 71.7974 71.7721 73.0321C68.1575 74.3219 64.5232 74.7727 60.7008 75.117C57.9927 75.3644 55.0546 75.5763 52.0888 75.5715C50.8345 75.5714 49.5743 75.5205 48.3241 75.4221C51.7285 73.83 55.4485 72.5642 56.4649 67.45C57.0212 64.6186 56.4547 61.6247 56.1423 58.757C55.8663 56.2232 56.2465 53.8125 57.7407 51.8431C58.7345 50.5307 60.1648 49.6842 61.6287 49.1052C62.0889 48.9221 62.5618 48.758 63.0314 48.6097C63.1307 48.5831 63.2352 48.5477 63.3345 48.5211C63.4338 48.4945 63.5331 48.4679 63.6413 48.4463C64.1202 48.3329 64.6137 48.2456 65.1038 48.174C66.6592 47.9365 68.323 47.9615 69.8398 48.6011C72.1186 49.5596 73.6532 51.4572 74.681 53.7896C75.8444 56.4292 76.8507 59.3053 78.7482 61.4793C81.8607 65.0388 85.3244 64.7458 88.7254 64.4173Z" fill="white"/>
</g>
<g opacity="0.6">
<path d="M62.6995 48.7059C62.6002 48.7325 62.5009 48.7591 62.3964 48.7946L62.3945 48.7876C62.5009 48.7591 62.6002 48.7325 62.6995 48.7059Z" fill="white"/>
</g>
<g opacity="0.8">
<path d="M40.1385 63.8524C41.0076 64.4862 42.1044 64.8349 43.4464 64.7369C47.1755 64.4699 50.3319 60.7325 52.4375 58.1509C56.8657 52.7203 56.7431 47.0147 53.1979 41.1876C52.7654 40.4816 52.2673 39.7857 51.5434 39.3819C49.9254 38.478 47.8744 39.3339 46.3329 40.3895C40.9837 44.0569 37.5516 50.3115 37.3735 56.7104C37.3001 59.3303 38.1075 62.3717 40.1385 63.8524Z" fill="black"/>
</g>
<g opacity="0.8">
<path d="M91.7692 50.0179C91.3334 51.0014 90.5579 51.8518 89.3467 52.4379C85.9837 54.0712 81.3814 52.4128 78.2672 51.2298C71.7169 48.7409 68.9703 43.7384 69.1271 36.9194C69.1485 36.0917 69.232 35.24 69.657 34.5283C70.6063 32.9365 72.8105 32.6522 74.6732 32.7957C81.1394 33.2972 87.2391 36.9977 90.5928 42.4503C91.9591 44.6844 92.7877 47.7201 91.7692 50.0179Z" fill="black"/>
</g>
<path d="M62.7332 57.3127L62.8538 57.2804C64.675 56.9568 66.3034 57.5591 66.6172 58.7303C66.9591 60.006 65.3611 62.0706 63.3469 62.6102C61.3399 63.148 59.6845 61.9627 59.3408 60.68C58.9989 59.4042 60.3518 57.9284 62.3588 57.3906C62.4794 57.3583 62.6089 57.3311 62.7313 57.3057L62.7332 57.3127Z" fill="#E2DFEA"/>
<path d="M73.9717 56.76C74.3135 58.0358 73.4744 59.897 71.4674 60.4348C69.4603 60.9726 67.039 59.9925 66.6952 58.7098C66.3534 57.434 67.7062 55.9582 69.7133 55.4204C71.7204 54.8826 73.6299 55.4843 73.9717 56.76Z" fill="#E2DFEA"/>
<path d="M65.7156 57.6344C66.1744 57.9 66.5011 58.2682 66.6244 58.7283C66.9662 60.0041 65.3683 62.0686 63.3541 62.6083C61.347 63.1461 59.6916 61.9608 59.3479 60.6781" stroke="#4C4A45" stroke-width="2" stroke-miterlimit="10" stroke-linecap="round" stroke-linejoin="round"/>
<path d="M73.972 56.7598C74.3139 58.0356 73.4748 59.8968 71.4677 60.4346C69.4606 60.9724 67.0393 59.9923 66.6956 58.7095C66.5723 58.2494 66.6711 57.7672 66.9357 57.3077" stroke="#4C4A45" stroke-width="2" stroke-miterlimit="10" stroke-linecap="round" stroke-linejoin="round"/>
<g opacity="0.6">
<path d="M44.7871 34.1387C44.8237 33.9347 44.7658 33.7186 44.7187 33.5145C44.6548 33.2477 44.6085 32.9612 44.6655 32.6919C44.7226 32.4226 44.9114 32.1628 45.1771 32.0766C45.4944 31.9841 45.8274 32.1489 46.0668 32.3613C46.3654 32.6249 46.572 33.0553 46.8968 33.2746C47.0835 33.4039 47.3631 33.4261 47.5265 33.2702C47.6127 33.1948 47.6504 33.0801 47.6918 32.9794C47.8041 32.7176 47.9485 32.4623 48.1146 32.231C48.2038 32.1099 48.3213 31.9813 48.4744 31.9851C48.5882 31.9845 48.6834 32.0561 48.7645 32.1316C48.9859 32.3338 49.158 32.579 49.2772 32.8535C49.3817 33.1019 49.4385 33.3706 49.6155 33.5772C50.3436 34.4506 50.9634 31.7142 52.1228 33.3462C52.4634 33.8229 52.4594 34.4889 52.2154 35.025C51.6875 36.1752 50.8804 36.2271 49.7453 36.2174C48.1315 36.209 46.5715 35.8051 44.9611 35.7808C44.5501 35.7788 44.1305 35.8016 43.7341 35.6837C43.3376 35.5657 42.9691 35.2685 42.9212 34.8629C42.8734 34.4573 43.2913 34.0314 43.6774 34.1671C43.9294 34.2565 44.1037 34.5385 44.3688 34.5348C44.586 34.5513 44.7506 34.3428 44.7871 34.1387Z" fill="white"/>
</g>
<g opacity="0.6">
<path d="M72.4968 26.714C72.3631 26.5555 72.3052 26.3394 72.2439 26.1392C72.1659 25.8762 72.0628 25.6049 71.8787 25.4002C71.6946 25.1955 71.4012 25.0649 71.128 25.1231C70.8069 25.2017 70.601 25.5109 70.4999 25.8145C70.373 26.1922 70.4093 26.6681 70.2377 27.0204C70.1407 27.2258 69.9097 27.3848 69.6902 27.3315C69.5778 27.3093 69.4878 27.2288 69.4016 27.1623C69.1734 26.9918 68.9207 26.8428 68.6612 26.7255C68.5235 26.6653 68.3574 26.6127 68.2267 26.6925C68.1278 26.7489 68.0812 26.8586 68.0487 26.9644C67.9581 27.2502 67.9316 27.5487 67.9657 27.8459C67.9993 28.1134 68.0845 28.3745 68.0345 28.6419C67.8407 29.7623 65.9357 27.7024 65.7476 29.6955C65.691 30.2786 66.0275 30.8534 66.5069 31.1957C67.5392 31.9278 68.264 31.5692 69.2423 30.9932C70.6356 30.1791 71.7847 29.0492 73.1672 28.223C73.5221 28.0158 73.8969 27.8258 74.1812 27.5254C74.4656 27.2251 74.6361 26.7834 74.4748 26.4082C74.3134 26.033 73.7385 25.8732 73.4721 26.1837C73.2985 26.3871 73.2885 26.7185 73.0571 26.8478C72.8772 26.9707 72.6375 26.8706 72.4968 26.714Z" fill="white"/>
</g>
<path d="M60.5066 58.1634C59.677 57.7057 59.0005 57.1099 58.5912 56.4051C56.0788 52.0497 74.9479 47.3225 71.0651 54.7888C70.0528 56.7412 68.4436 58.9059 65.6825 59.1825C63.934 59.3521 61.9846 58.9703 60.5066 58.1634Z" fill="black"/>
<path opacity="0.3" d="M65.1717 54.896C67.5649 54.2547 69.3545 53.1731 69.1688 52.48C68.9831 51.787 66.8925 51.745 64.4993 52.3863C62.1061 53.0275 60.3166 54.1092 60.5023 54.8022C60.688 55.4953 62.7786 55.5372 65.1717 54.896Z" fill="#B0B0B0"/>
<path d="M65.6868 104.103C65.091 104.262 64.4415 104.25 63.8218 104.064C63.2181 103.882 62.7642 103.578 62.4267 103.34C62.1142 103.11 61.8121 102.862 61.5172 102.612C61.251 102.385 60.9956 102.169 60.7552 102.009C60.6439 101.935 60.355 101.878 60.0268 101.816C59.7789 101.77 59.5311 101.725 59.2705 101.66C58.9689 101.584 58.5153 101.451 58.065 101.161C57.9269 101.071 57.803 100.977 57.6824 100.868C56.9409 100.2 55.9401 98.7343 57.6116 96.4334C57.6623 96.3675 57.706 96.3035 57.7444 96.2484C57.809 96.1489 57.8717 96.0424 57.9273 95.9379C57.962 95.8688 58.0157 95.7573 58.0713 95.6527C58.1008 95.5925 58.1265 95.5184 58.1523 95.4442C58.2951 95.0697 58.4914 94.5539 58.8713 94.071C59.2863 93.5488 59.8278 93.187 60.4448 93.0217C60.9271 92.8925 61.4269 92.8856 61.9301 93.0048C62.0854 93.0454 62.2336 93.0879 62.3766 93.1392C62.8881 93.3459 63.2547 93.6362 63.4903 93.8346C63.6882 94.0057 63.8719 94.1806 64.0485 94.3575C64.2845 94.5856 64.4898 94.7847 64.6167 94.8329C64.8937 94.9305 65.2133 95.0167 65.5579 95.1112C65.9345 95.212 66.3112 95.3128 66.6793 95.4383C67.0724 95.5721 67.582 95.7718 68.0707 96.1489C68.7715 96.6934 69.2099 97.4502 69.3094 98.2753C69.4152 99.1809 69.1015 100.109 68.4398 100.817C68.3099 100.957 68.1744 101.075 68.039 101.194C68.0196 101.348 68.0006 101.533 67.9461 101.726C67.7179 102.662 67.1141 103.444 66.2922 103.866C66.1138 103.966 65.9066 104.044 65.6868 104.103Z" fill="#AFE017"/>
<path d="M61.0174 95.1026C61.1379 95.0703 61.2749 95.0709 61.4284 95.1045C61.4765 95.1141 61.5194 95.1324 61.5624 95.1508C61.7412 95.2225 61.8939 95.3385 62.0414 95.4633C62.644 95.9818 63.0607 96.5725 63.8454 96.8629C64.5372 97.1183 65.27 97.2433 65.9651 97.4829C66.2313 97.5685 66.4959 97.6769 66.717 97.8493C66.938 98.0217 67.1101 98.267 67.1457 98.5414C67.1797 98.8387 67.0484 99.1428 66.8412 99.3627C66.7834 99.4305 66.7147 99.4863 66.646 99.542C66.4841 99.6751 66.3042 99.798 66.162 99.9482C66.1094 100.007 66.0567 100.066 66.0131 100.13C65.9873 100.204 65.9616 100.278 65.9448 100.358C65.8792 100.652 65.9061 100.951 65.8386 101.238C65.7659 101.534 65.5879 101.806 65.321 101.944C65.268 101.974 65.2061 101.998 65.1422 102.015C64.9366 102.07 64.7051 102.057 64.4979 101.993C64.2336 101.914 63.9951 101.762 63.7688 101.598C63.1744 101.167 62.6555 100.649 62.0506 100.235C61.3704 99.7676 60.6302 99.7567 59.8574 99.5678C59.67 99.5209 59.4807 99.467 59.3228 99.3598C59.2851 99.3326 59.2474 99.3053 59.2097 99.2781C58.5276 98.6614 59.3046 97.9301 59.6445 97.3832C59.73 97.2483 59.8065 97.1082 59.8848 96.9751C59.9613 96.8351 60.0289 96.69 60.0964 96.5449C60.2505 96.2122 60.3777 95.7223 60.6262 95.4017C60.7169 95.2578 60.8472 95.1482 61.0174 95.1026ZM59.8966 90.9197C58.8115 91.2105 57.8624 91.8384 57.1514 92.7313C56.5543 93.4815 56.2704 94.2376 56.0947 94.6881L56.0552 94.7959C56.0309 94.8472 56.0048 94.8915 55.9805 94.9429C55.9544 94.9872 55.9302 95.0386 55.897 95.0848L55.8305 95.1773C55.5245 95.5956 55.0211 96.2983 54.7294 97.2806C54.1632 99.1957 54.7127 101.133 56.2118 102.472C56.4115 102.65 56.6236 102.818 56.8513 102.959C57.4039 103.319 58.012 103.574 58.7276 103.748C59.0685 103.829 59.3735 103.889 59.6143 103.937C59.6534 103.941 59.6945 103.953 59.7337 103.957C59.8416 104.048 59.9674 104.148 60.0951 104.256C60.3901 104.506 60.7246 104.79 61.1196 105.073C61.5542 105.39 62.2378 105.841 63.1647 106.124C64.1827 106.434 65.2522 106.453 66.2522 106.186C66.621 106.087 66.9786 105.946 67.3197 105.772C68.7018 105.058 69.7173 103.77 70.0962 102.234C71.1788 101.055 71.691 99.5053 71.5115 97.9843C71.3444 96.5945 70.6184 95.332 69.4647 94.4306C68.7065 93.8418 67.9341 93.5407 67.4249 93.3708C66.9638 93.2104 66.5319 93.1019 66.1552 93.0011C65.9928 92.9624 65.8357 92.9149 65.6964 92.8775C65.6658 92.8483 65.6352 92.8192 65.6135 92.7951C65.4388 92.6252 65.2226 92.4142 64.9564 92.1866C64.4023 91.7074 63.8375 91.3582 63.2331 91.1166C62.9773 91.0133 62.713 90.9347 62.4543 90.877C61.5909 90.6899 60.7263 90.6974 59.8966 90.9197Z" fill="#577708"/>
<g opacity="0.17">
<path d="M63.7523 101.595C63.9785 101.758 64.2171 101.911 64.4814 101.99C64.7457 102.068 65.0518 102.076 65.3045 101.941C65.5713 101.802 65.7546 101.521 65.8221 101.234C65.8896 100.947 65.8678 100.639 65.9283 100.354C65.945 100.275 65.9708 100.201 65.9965 100.127C66.0402 100.063 66.0928 100.004 66.1454 99.9448C66.2947 99.7927 66.4675 99.6717 66.6295 99.5386C66.469 99.5069 66.3036 99.5139 66.142 99.5347C65.8277 99.5816 65.4988 99.7444 65.369 100.026C65.2496 100.289 65.2986 100.642 65.0769 100.836C64.8358 101.043 64.4587 100.912 64.1862 100.746C63.4242 100.285 62.7846 99.6573 62.035 99.1857C61.5974 98.9144 61.1337 98.6874 60.6425 98.5277C60.2923 98.4123 59.894 98.2874 59.758 97.9502C59.6108 97.5712 59.8993 97.1726 60.1101 96.8247C60.3523 96.4236 60.512 95.9699 60.5791 95.511C60.5839 95.4724 60.5888 95.4337 60.5936 95.3951C60.3432 95.7087 60.216 96.1986 60.0638 96.5383C59.9963 96.6834 59.9269 96.8215 59.8522 96.9685C59.7757 97.1086 59.6974 97.2417 59.6119 97.3767C59.272 97.9235 58.4879 98.6567 59.1771 99.2715C59.2167 99.3057 59.2473 99.3349 59.2902 99.3532C59.4463 99.4534 59.6374 99.5143 59.8248 99.5612C60.6065 99.7552 61.3378 99.761 62.018 100.229C62.6318 100.647 63.1579 101.164 63.7523 101.595Z" fill="#7D9067"/>
</g>
<g opacity="0.3">
<path d="M60.8489 95.8651C60.878 95.7751 60.9142 95.6832 60.9791 95.6135C61.4497 95.1288 62.0334 95.9736 62.3089 96.236C62.7932 96.6816 63.3722 97.0271 63.9994 97.2401C64.0673 97.2667 64.1424 97.2914 64.1999 97.3358C64.2521 97.389 64.2887 97.4689 64.2522 97.531C64.2208 97.5842 64.1589 97.6083 64.1021 97.6235C63.8946 97.6716 63.6826 97.6463 63.4739 97.605C62.6963 97.4547 61.9418 97.1638 61.2623 96.7555C61.1261 96.6725 60.9879 96.5825 60.892 96.4513C60.7654 96.2909 60.7821 96.0698 60.8489 95.8651Z" fill="#DFEFCB"/>
</g>
<g opacity="0.3">
<path d="M64.7362 97.8046C64.9348 97.8934 65.1487 97.9257 65.3559 97.9897C65.6041 98.0652 65.8404 98.1812 66.054 98.3257C66.1204 98.3752 66.2242 98.4221 66.2839 98.3612C66.3015 98.3416 66.3101 98.3169 66.3097 98.2871C66.3205 98.1572 66.2212 98.0418 66.1133 97.9512C65.84 97.7255 65.5107 97.5747 65.1594 97.5119C65.0149 97.4833 64.8063 97.4421 64.6629 97.5029C64.4718 97.584 64.5895 97.7393 64.7362 97.8046Z" fill="#DFEFCB"/>
</g>
<path d="M57.8172 98.5378C57.5548 98.6081 57.2558 98.5985 56.9665 98.5117C56.6361 98.4134 56.3509 98.2283 56.1228 98.0578C55.8409 97.8569 55.5837 97.6344 55.3193 97.4138C55.0154 97.159 54.7294 96.9144 54.4136 96.7001C53.9775 96.406 53.521 96.3191 52.9841 96.2164C52.7684 96.1771 52.5526 96.1377 52.3331 96.0845C52.1457 96.0376 51.9064 95.9672 51.6876 95.8315C51.632 95.7941 51.5835 95.7548 51.5349 95.7155C50.7341 94.9961 51.3371 94.1546 51.7043 93.6527C51.776 93.5513 51.8476 93.45 51.9069 93.3593C51.9872 93.2332 52.0655 93.1002 52.1349 92.962C52.1991 92.8327 52.2685 92.6946 52.3308 92.5583C52.3793 92.4557 52.4189 92.3479 52.4636 92.2313C52.5756 91.9398 52.6994 91.6078 52.9024 91.3442C53.0741 91.1338 53.2715 90.9912 53.5056 90.9285C53.69 90.8791 53.8874 90.8785 54.098 90.9267C54.1622 90.9394 54.2283 90.959 54.2891 90.9875C54.5269 91.0807 54.7211 91.2379 54.8686 91.3628C55.0377 91.5117 55.1926 91.6645 55.3457 91.8103C55.7277 92.1861 56.0644 92.5069 56.5632 92.6945C56.9171 92.8238 57.2848 92.9196 57.6704 93.0255C58.0061 93.1149 58.3417 93.2043 58.6758 93.3165C58.9438 93.409 59.2567 93.527 59.5352 93.7437C59.8533 93.9947 60.0549 94.3218 60.0949 94.6697C60.1443 95.0525 59.9947 95.4587 59.6928 95.7787C59.6226 95.8573 59.5416 95.9238 59.4625 95.9973L59.3058 96.1215C59.2054 96.2007 59.105 96.2799 59.0154 96.3712C58.9855 96.4016 58.9576 96.439 58.9296 96.4763C58.9176 96.5169 58.8986 96.5594 58.8956 96.605C58.8688 96.7317 58.8632 96.8528 58.8524 96.9827C58.8386 97.1582 58.823 97.3268 58.7861 97.5011C58.6865 97.9238 58.4223 98.271 58.0741 98.4465C57.9927 98.4833 57.9094 98.5131 57.8172 98.5378Z" fill="#AFE017"/>
<path d="M53.6154 91.2804C53.7359 91.2481 53.8729 91.2487 54.0263 91.2823C54.0745 91.2918 54.1174 91.3102 54.1604 91.3286C54.3392 91.4002 54.4919 91.5162 54.6394 91.6411C55.242 92.1596 55.6587 92.7503 56.4434 93.0406C57.1352 93.2961 57.868 93.4211 58.5631 93.6607C58.8293 93.7463 59.0939 93.8547 59.315 94.0271C59.536 94.1995 59.7081 94.4448 59.7437 94.7192C59.7777 95.0164 59.6464 95.3206 59.4392 95.5405C59.3814 95.6083 59.3127 95.6641 59.244 95.7198C59.0821 95.8529 58.9022 95.9758 58.76 96.126C58.7074 96.1849 58.6547 96.2438 58.6111 96.3079C58.5853 96.382 58.5596 96.4561 58.5428 96.5354C58.4772 96.8294 58.5041 97.1285 58.4366 97.4156C58.3639 97.7116 58.1859 97.9834 57.919 98.1222C57.866 98.1513 57.8041 98.1754 57.7402 98.1925C57.5346 98.2476 57.3031 98.2349 57.0959 98.1709C56.8316 98.0922 56.5931 97.9395 56.3668 97.7759C55.7724 97.3449 55.2535 96.8265 54.6486 96.4132C53.9684 95.9454 53.2282 95.9345 52.4554 95.7456C52.268 95.6986 52.0787 95.6448 51.9208 95.5376C51.8831 95.5104 51.8454 95.4831 51.8077 95.4559C51.1256 94.8391 51.9026 94.1079 52.2425 93.561C52.328 93.4261 52.4045 93.286 52.4828 93.1529C52.5593 93.0129 52.6269 92.8678 52.6944 92.7226C52.8485 92.3899 52.9757 91.9001 53.2242 91.5794C53.313 91.4286 53.4452 91.326 53.6154 91.2804ZM53.4286 90.5832C53.1165 90.6668 52.8538 90.8493 52.6313 91.1256C52.3862 91.4304 52.2556 91.7942 52.1351 92.1104C52.0955 92.2181 52.056 92.3258 52.0108 92.4127C51.9485 92.5489 51.8844 92.6782 51.8202 92.8075C51.7594 92.9209 51.6791 93.047 51.606 93.1712C51.5537 93.2599 51.4855 93.3455 51.4209 93.4449C51.0712 93.9272 50.2618 95.0482 51.302 95.9799C51.3632 96.0382 51.4297 96.0877 51.5032 96.1352C51.7616 96.3051 52.042 96.3869 52.2615 96.4401C52.4899 96.4985 52.7128 96.5359 52.9304 96.5822C53.4422 96.6767 53.8506 96.754 54.2221 97.0057C54.52 97.2098 54.8042 97.4475 55.0991 97.6972C55.3634 97.9178 55.6367 98.1434 55.9294 98.3564C56.1844 98.5421 56.4966 98.7424 56.8788 98.8641C57.2342 98.9707 57.6027 98.984 57.9289 98.8966C58.0424 98.8662 58.1521 98.8218 58.2529 98.7724C58.6929 98.5424 59.0254 98.1096 59.1504 97.583C59.2011 97.3751 59.2164 97.1768 59.2249 97.0101C59.2305 96.8891 59.2379 96.775 59.2599 96.6869C59.2652 96.678 59.2614 96.6641 59.2666 96.6552C59.2719 96.6464 59.2771 96.6375 59.2913 96.6337C59.3562 96.564 59.4443 96.4955 59.5466 96.4233C59.6029 96.3783 59.6664 96.3314 59.7227 96.2864C59.8231 96.2072 59.9146 96.123 59.9899 96.0355C60.362 95.6369 60.5441 95.1249 60.4827 94.6407C60.4326 94.1984 60.1836 93.7794 59.79 93.4739C59.4738 93.2299 59.1251 93.0917 58.825 92.9928C58.4819 92.8755 58.1302 92.7829 57.7965 92.7005C57.4198 92.5997 57.0611 92.509 56.7232 92.3828C56.3014 92.2269 56.0113 91.9385 55.642 91.5817C55.4871 91.4289 55.3232 91.2711 55.1451 91.1171C54.9778 90.9751 54.7459 90.7906 54.4581 90.681C54.3812 90.6493 54.2991 90.6264 54.217 90.6036C53.9276 90.5168 53.6697 90.5186 53.4286 90.5832Z" fill="#577708"/>
<g opacity="0.17">
<path d="M56.3509 97.7734C56.5771 97.937 56.8157 98.0897 57.08 98.1684C57.3443 98.247 57.6504 98.2546 57.9031 98.1197C58.17 97.9809 58.3532 97.7002 58.4207 97.4131C58.4882 97.126 58.4665 96.818 58.5269 96.5329C58.5437 96.4536 58.5694 96.3795 58.5951 96.3053C58.6388 96.2413 58.6914 96.1824 58.744 96.1235C58.8933 95.9714 59.0661 95.8504 59.2281 95.7173C59.0676 95.6856 58.9022 95.6926 58.7406 95.7135C58.4263 95.7603 58.0975 95.9231 57.9676 96.2045C57.8482 96.4681 57.8972 96.8211 57.6755 97.015C57.4344 97.2216 57.0574 97.091 56.7848 96.9249C56.0228 96.4641 55.3833 95.836 54.6336 95.3644C54.196 95.0931 53.7324 94.8661 53.2411 94.7064C52.8909 94.591 52.4926 94.4661 52.3566 94.1289C52.2095 93.7499 52.4979 93.3513 52.7088 93.0034C52.9509 92.6023 53.1106 92.1486 53.1777 91.6897C53.1826 91.6511 53.1874 91.6124 53.1922 91.5738C52.9418 91.8874 52.8146 92.3773 52.6624 92.717C52.5949 92.8621 52.5255 93.0002 52.4509 93.1473C52.3744 93.2873 52.296 93.4204 52.2106 93.5554C51.8706 94.1022 51.0865 94.8354 51.7757 95.4502C51.8153 95.4844 51.8459 95.5136 51.8888 95.532C52.0449 95.6321 52.236 95.693 52.4234 95.7399C53.2051 95.9339 53.9364 95.9397 54.6167 96.4075C55.2375 96.824 55.7565 97.3424 56.3509 97.7734Z" fill="#7D9067"/>
</g>
<g opacity="0.3">
<path d="M53.4477 92.0433C53.4768 91.9533 53.5129 91.8614 53.5779 91.7917C54.0485 91.307 54.6321 92.1518 54.9077 92.4142C55.3919 92.8598 55.971 93.2053 56.5981 93.4183C56.6661 93.4449 56.7411 93.4696 56.7986 93.514C56.8509 93.5673 56.8875 93.6471 56.8509 93.7092C56.8196 93.7624 56.7576 93.7865 56.7009 93.8017C56.4933 93.8499 56.2813 93.8245 56.0726 93.7833C55.295 93.633 54.5406 93.342 53.8611 92.9338C53.7248 92.8507 53.5867 92.7607 53.4907 92.6295C53.3641 92.4692 53.3809 92.248 53.4477 92.0433Z" fill="#DFEFCB"/>
</g>
<g opacity="0.3">
<path d="M57.3345 93.9825C57.5331 94.0712 57.747 94.1036 57.9542 94.1676C58.2025 94.2431 58.4388 94.3591 58.6523 94.5036C58.7188 94.553 58.8226 94.5999 58.8823 94.5391C58.8998 94.5195 58.9084 94.4948 58.908 94.465C58.9188 94.3351 58.8195 94.2197 58.7116 94.1291C58.4383 93.9034 58.109 93.7525 57.7578 93.6898C57.6133 93.6612 57.4046 93.62 57.2613 93.6808C57.0683 93.7549 57.1949 93.9153 57.3345 93.9825Z" fill="#DFEFCB"/>
</g>
<path d="M50.4238 94.7127C50.1614 94.783 49.8694 94.7715 49.573 94.6866C49.2426 94.5883 48.9574 94.4032 48.7293 94.2327C48.4474 94.0318 48.1831 93.8112 47.9169 93.5837C47.613 93.3289 47.327 93.0842 47.0111 92.8699C46.5821 92.5739 46.1185 92.489 45.5817 92.3862C45.3659 92.3469 45.1502 92.3076 44.9306 92.2543C44.7432 92.2074 44.4969 92.1389 44.2833 91.9944C44.2277 91.957 44.1791 91.9177 44.1287 91.8714C43.3279 91.152 43.9399 90.3156 44.3 89.8156C44.3716 89.7142 44.4433 89.6128 44.5026 89.5222C44.5829 89.3961 44.6612 89.263 44.7306 89.1249C44.8019 88.9937 44.8642 88.8574 44.9336 88.7193C44.9769 88.6255 45.0217 88.5089 45.0664 88.3923C45.1783 88.1008 45.3022 87.7687 45.5123 87.5032C45.684 87.2928 45.8814 87.1503 46.1154 87.0876C46.2998 87.0382 46.4973 87.0376 46.7079 87.0857C46.7721 87.0984 46.8311 87.12 46.899 87.1466C47.1368 87.2398 47.338 87.3951 47.4784 87.5219C47.6476 87.6708 47.8025 87.8236 47.9556 87.9693C48.3375 88.3452 48.6743 88.6659 49.166 88.8555C49.5199 88.9848 49.8876 89.0805 50.2732 89.1864C50.6088 89.2758 50.9444 89.3652 51.2786 89.4774C51.5466 89.57 51.8594 89.6879 52.138 89.9047C52.4561 90.1557 52.6577 90.4827 52.6977 90.8307C52.7471 91.2134 52.5975 91.6197 52.2956 91.9397C52.2254 92.0182 52.1444 92.0848 52.0634 92.1513L51.9015 92.2844C51.8011 92.3636 51.7007 92.4428 51.6111 92.534C51.5812 92.5644 51.5532 92.6018 51.5253 92.6392C51.5062 92.6817 51.4962 92.7292 51.4842 92.7698C51.4555 92.8895 51.4518 93.0175 51.4391 93.1405C51.4254 93.316 51.4116 93.4916 51.3728 93.6589C51.2732 94.0816 51.009 94.4288 50.6608 94.6043C50.5921 94.6601 50.5089 94.6899 50.4238 94.7127Z" fill="#AFE017"/>
<path d="M46.214 87.4571C46.3346 87.4248 46.4716 87.4255 46.625 87.4591C46.6731 87.4686 46.7161 87.487 46.759 87.5054C46.9378 87.577 47.0905 87.693 47.238 87.8179C47.8406 88.3363 48.2573 88.927 49.042 89.2174C49.7338 89.4729 50.4666 89.5978 51.1617 89.8375C51.4279 89.9231 51.6926 90.0315 51.9136 90.2039C52.1346 90.3763 52.3068 90.6215 52.3423 90.896C52.3763 91.1932 52.245 91.4974 52.0379 91.7173C51.98 91.7851 51.9113 91.8408 51.8427 91.8966C51.6807 92.0296 51.5008 92.1526 51.3586 92.3027C51.306 92.3617 51.2534 92.4206 51.2097 92.4846C51.184 92.5587 51.1582 92.6329 51.1414 92.7121C51.0758 93.0062 51.1028 93.3053 51.0352 93.5924C50.9625 93.8883 50.7845 94.1602 50.5177 94.2989C50.4647 94.3281 50.4027 94.3521 50.3389 94.3692C50.1332 94.4243 49.9018 94.4116 49.6946 94.3476C49.4303 94.269 49.1917 94.1162 48.9654 93.9527C48.3711 93.5217 47.8521 93.0032 47.2473 92.5899C46.567 92.1221 45.8268 92.1113 45.054 91.9223C44.8666 91.8754 44.6774 91.8215 44.5195 91.7144C44.4817 91.6871 44.444 91.6599 44.4063 91.6326C43.7242 91.0159 44.5012 90.2847 44.8412 89.7378C44.9266 89.6028 45.0031 89.4628 45.0815 89.3297C45.158 89.1896 45.2255 89.0445 45.293 88.8994C45.4471 88.5667 45.5743 88.0768 45.8229 87.7562C45.9117 87.6054 46.0438 87.5027 46.214 87.4571ZM46.0272 86.76C45.7151 86.8436 45.4524 87.0261 45.23 87.3024C44.9848 87.6072 44.8542 87.9709 44.7337 88.2871C44.6942 88.3949 44.6546 88.5026 44.6095 88.5894C44.5472 88.7257 44.483 88.8549 44.4188 88.9842C44.358 89.0976 44.2778 89.2237 44.2046 89.348C44.1524 89.4367 44.0841 89.5222 44.0195 89.6217C43.6699 90.1039 42.8604 91.2249 43.9006 92.1567C43.9619 92.215 44.0283 92.2644 44.1019 92.3119C44.3602 92.4818 44.6406 92.5636 44.8601 92.6169C45.0886 92.6752 45.3114 92.7126 45.5291 92.7589C46.0409 92.8534 46.4493 92.9308 46.8207 93.1824C47.1187 93.3865 47.4028 93.6242 47.6977 93.8739C47.9621 94.0945 48.2354 94.3202 48.5281 94.5331C48.7831 94.7189 49.0952 94.9192 49.4775 95.0409C49.8329 95.1474 50.2013 95.1608 50.5275 95.0734C50.641 95.0429 50.7507 94.9986 50.8515 94.9492C51.2916 94.7192 51.6241 94.2864 51.749 93.7598C51.7997 93.5519 51.815 93.3535 51.8235 93.1869C51.8291 93.0658 51.8366 92.9518 51.8586 92.8637C51.8638 92.8548 51.8601 92.8409 51.8653 92.832C51.8705 92.8231 51.8757 92.8142 51.8899 92.8104C51.9548 92.7407 52.05 92.6704 52.1452 92.6001C52.2015 92.5551 52.265 92.5082 52.3214 92.4632C52.4218 92.384 52.5132 92.2997 52.5886 92.2123C52.9607 91.8137 53.1427 91.3017 53.0814 90.8175C53.0313 90.3751 52.7822 89.9562 52.3887 89.6507C52.0724 89.4066 51.7238 89.2684 51.4236 89.1695C51.0805 89.0522 50.7289 88.9597 50.3951 88.8772C50.0185 88.7764 49.6597 88.6858 49.3219 88.5596C48.9 88.4036 48.6028 88.1172 48.2406 87.7584C48.0857 87.6057 47.9218 87.4478 47.7437 87.2938C47.5764 87.1518 47.3446 86.9674 47.0567 86.8577C46.9798 86.826 46.8977 86.8032 46.8156 86.7804C46.5263 86.6935 46.2683 86.6954 46.0272 86.76Z" fill="#577708"/>
<g opacity="0.17">
<path d="M48.9494 93.95C49.1756 94.1135 49.4142 94.2663 49.6785 94.3449C49.9428 94.4235 50.2489 94.4311 50.5016 94.2962C50.7685 94.1574 50.9517 93.8767 51.0192 93.5896C51.0867 93.3025 51.065 92.9945 51.1254 92.7094C51.1422 92.6302 51.1679 92.556 51.1937 92.4819C51.2373 92.4179 51.2899 92.3589 51.3426 92.3C51.4918 92.1479 51.6647 92.0269 51.8266 91.8938C51.6661 91.8621 51.5007 91.8691 51.3391 91.89C51.0248 91.9368 50.696 92.0997 50.5661 92.381C50.4467 92.6446 50.4957 92.9976 50.274 93.1915C50.0329 93.3981 49.6559 93.2675 49.3833 93.1014C48.6214 92.6406 47.9818 92.0125 47.2321 91.5409C46.7946 91.2696 46.3309 91.0426 45.8396 90.8829C45.4894 90.7675 45.0911 90.6426 44.9551 90.3054C44.808 89.9264 45.0965 89.5278 45.3073 89.1799C45.5495 88.7788 45.7091 88.3251 45.7762 87.8663C45.7811 87.8276 45.7859 87.7889 45.7908 87.7503C45.5403 88.064 45.4132 88.5538 45.2609 88.8935C45.1934 89.0386 45.124 89.1768 45.0494 89.3238C44.9729 89.4638 44.8945 89.5969 44.8091 89.7319C44.4691 90.2788 43.685 91.0119 44.3742 91.6267C44.4138 91.6609 44.4444 91.6901 44.4874 91.7085C44.6434 91.8086 44.8345 91.8695 45.022 91.9164C45.8037 92.1104 46.5349 92.1162 47.2152 92.584C47.836 93.0005 48.3621 93.517 48.9494 93.95Z" fill="#7D9067"/>
</g>
<g opacity="0.3">
<path d="M46.0535 88.2178C46.0826 88.1278 46.1188 88.0359 46.1837 87.9662C46.6543 87.4814 47.2379 88.3263 47.5135 88.5887C47.9977 89.0343 48.5768 89.3797 49.204 89.5927C49.2719 89.6194 49.3469 89.6441 49.4044 89.6885C49.4619 89.7328 49.4933 89.8216 49.4567 89.8837C49.4254 89.9369 49.3634 89.961 49.3067 89.9762C49.0992 90.0243 48.8871 89.9989 48.6785 89.9577C47.9009 89.8074 47.1464 89.5164 46.4669 89.1082C46.3306 89.0252 46.1925 88.9352 46.0965 88.804C45.97 88.6436 45.9796 88.4243 46.0535 88.2178Z" fill="#DFEFCB"/>
</g>
<g opacity="0.3">
<path d="M49.9403 90.1574C50.1389 90.2461 50.3528 90.2785 50.56 90.3425C50.8082 90.418 51.0445 90.534 51.2581 90.6785C51.3246 90.7279 51.4283 90.7749 51.488 90.714C51.5056 90.6944 51.5142 90.6697 51.5138 90.6399C51.5246 90.51 51.4253 90.3946 51.3174 90.304C51.0441 90.0783 50.7148 89.9274 50.3635 89.8647C50.219 89.8361 50.0104 89.7949 49.867 89.8557C49.6741 89.9298 49.7936 90.0921 49.9403 90.1574Z" fill="#DFEFCB"/>
</g>
<path d="M43.0216 90.8899C42.7592 90.9602 42.4602 90.9506 42.1709 90.8638C41.8405 90.7655 41.5553 90.5804 41.3271 90.4099C41.0453 90.209 40.7809 89.9884 40.5147 89.7609C40.2108 89.5061 39.9248 89.2614 39.6108 89.0541C39.1748 88.76 38.7182 88.6731 38.1814 88.5704C37.9656 88.5311 37.7499 88.4917 37.5304 88.4385C37.343 88.3916 37.1037 88.3212 36.8849 88.1855C36.8293 88.1481 36.7807 88.1088 36.7322 88.0695C35.9313 87.3501 36.5344 86.5086 36.9016 86.0067C36.9732 85.9053 37.0449 85.804 37.1042 85.7133C37.1844 85.5872 37.2628 85.4542 37.3322 85.316C37.3964 85.1867 37.4658 85.0486 37.5281 84.9123C37.5766 84.8097 37.6161 84.702 37.6609 84.5854C37.7728 84.2938 37.8967 83.9618 38.0997 83.6982C38.2714 83.4878 38.4688 83.3452 38.7028 83.2825C38.8872 83.2331 39.0847 83.2325 39.2953 83.2807C39.3595 83.2934 39.4255 83.313 39.4864 83.3416C39.7242 83.4347 39.9183 83.5919 40.0658 83.7168C40.2349 83.8658 40.3899 84.0185 40.543 84.1643C40.9249 84.5401 41.2636 84.8678 41.7605 85.0485C42.1144 85.1778 42.4821 85.2736 42.8677 85.3795C43.2033 85.4689 43.5389 85.5583 43.873 85.6705C44.1411 85.763 44.4539 85.881 44.7325 86.0977C45.0505 86.3487 45.2522 86.6758 45.2922 87.0237C45.3416 87.4065 45.192 87.8127 44.8901 88.1327C44.8199 88.2113 44.7389 88.2778 44.6579 88.3443L44.4941 88.4704C44.3937 88.5496 44.2933 88.6288 44.2037 88.7201C44.1739 88.7505 44.1459 88.7879 44.1179 88.8253C44.1059 88.8658 44.0869 88.9083 44.0839 88.9539C44.0571 89.0807 44.0515 89.2017 44.0407 89.3316C44.0269 89.5072 44.0113 89.6757 43.9744 89.85C43.8748 90.2727 43.6106 90.62 43.2624 90.7955C43.197 90.8354 43.1067 90.8671 43.0216 90.8899Z" fill="#AFE017"/>
<path d="M38.8126 83.6344C38.9332 83.6021 39.0702 83.6027 39.2236 83.6363C39.2718 83.6458 39.3147 83.6642 39.3576 83.6826C39.5365 83.7542 39.6892 83.8702 39.8366 83.9951C40.4392 84.5136 40.856 85.1043 41.6407 85.3946C42.3324 85.6501 43.0652 85.7751 43.7603 86.0147C44.0265 86.1003 44.2912 86.2087 44.5122 86.3811C44.7333 86.5535 44.9054 86.7988 44.9409 87.0732C44.975 87.3704 44.8436 87.6746 44.6365 87.8945C44.5786 87.9623 44.51 88.0181 44.4413 88.0738C44.2793 88.2069 44.0994 88.3298 43.9572 88.48C43.9046 88.5389 43.852 88.5979 43.8083 88.6619C43.7826 88.736 43.7569 88.8101 43.7401 88.8894C43.6744 89.1834 43.7014 89.4825 43.6339 89.7696C43.5612 90.0656 43.3832 90.3374 43.1163 90.4762C43.0633 90.5053 43.0013 90.5294 42.9375 90.5465C42.7318 90.6016 42.5004 90.5889 42.2932 90.5249C42.0289 90.4462 41.7903 90.2935 41.5641 90.1299C40.9697 89.6989 40.4507 89.1805 39.8459 88.7672C39.1657 88.2994 38.4254 88.2885 37.6527 88.0996C37.4653 88.0526 37.276 87.9988 37.1181 87.8916C37.0804 87.8644 37.0427 87.8371 37.005 87.8099C36.3228 87.1931 37.0999 86.4619 37.4398 85.915C37.5253 85.7801 37.6017 85.64 37.6801 85.5069C37.7566 85.3669 37.8241 85.2218 37.8917 85.0767C38.0458 84.744 38.1729 84.2541 38.4215 83.9334C38.5174 83.7807 38.6495 83.6781 38.8126 83.6344ZM38.6258 82.9372C38.3138 83.0208 38.051 83.2033 37.8286 83.4796C37.5834 83.7844 37.4528 84.1482 37.3323 84.4644C37.2928 84.5721 37.2533 84.6798 37.2081 84.7667C37.1458 84.9029 37.0816 85.0322 37.0174 85.1615C36.9566 85.2749 36.8764 85.401 36.8033 85.5252C36.751 85.6139 36.6827 85.6995 36.6182 85.799C36.2685 86.2812 35.4591 87.4022 36.4993 88.3339C36.5605 88.3922 36.627 88.4417 36.7005 88.4892C36.9589 88.6591 37.2392 88.7409 37.4587 88.7941C37.6872 88.8525 37.9101 88.8899 38.1277 88.9362C38.6395 89.0307 39.0479 89.108 39.4194 89.3597C39.7173 89.5638 40.0014 89.8015 40.2964 90.0512C40.5607 90.2718 40.834 90.4974 41.1267 90.7104C41.3817 90.8961 41.6938 91.0964 42.0761 91.2181C42.4315 91.3247 42.7999 91.338 43.1262 91.2506C43.2396 91.2202 43.3494 91.1758 43.4502 91.1264C43.8902 90.8964 44.2227 90.4636 44.3476 89.937C44.3984 89.7292 44.4136 89.5308 44.4222 89.3641C44.4278 89.2431 44.4352 89.129 44.4572 89.0409C44.4624 89.032 44.4587 89.0181 44.4639 89.0092C44.4691 89.0004 44.4744 88.9915 44.4885 88.9877C44.5535 88.918 44.6416 88.8495 44.7438 88.7773C44.8002 88.7323 44.8636 88.6854 44.92 88.6404C45.0204 88.5612 45.1118 88.477 45.1872 88.3895C45.5593 87.9909 45.7413 87.4789 45.68 86.9947C45.6299 86.5524 45.3808 86.1334 44.9873 85.8279C44.6711 85.5839 44.3224 85.4457 44.0222 85.3468C43.6792 85.2295 43.3275 85.1369 42.9938 85.0545C42.6171 84.9537 42.2584 84.863 41.9205 84.7369C41.4986 84.5809 41.2085 84.2925 40.8393 83.9357C40.6843 83.7829 40.5204 83.6251 40.3423 83.4711C40.1751 83.3291 39.9432 83.1446 39.6554 83.035C39.5785 83.0033 39.4963 82.9804 39.4142 82.9576C39.132 82.8689 38.867 82.8726 38.6258 82.9372Z" fill="#577708"/>
<g opacity="0.17">
<path d="M41.553 90.1187C41.7793 90.2822 42.0179 90.435 42.2822 90.5136C42.5465 90.5922 42.8526 90.5998 43.1052 90.4649C43.3721 90.3261 43.5553 90.0454 43.6228 89.7583C43.6903 89.4713 43.6686 89.1632 43.729 88.8781C43.7458 88.7989 43.7716 88.7247 43.7973 88.6506C43.841 88.5866 43.8936 88.5276 43.9462 88.4687C44.0955 88.3166 44.2683 88.1956 44.4303 88.0625C44.2697 88.0308 44.1044 88.0378 43.9427 88.0587C43.6285 88.1055 43.2996 88.2684 43.1698 88.5497C43.0504 88.8133 43.0994 89.1663 42.8777 89.3602C42.6366 89.5668 42.2595 89.4362 41.987 89.2701C41.225 88.8093 40.5854 88.1812 39.8357 87.7096C39.3982 87.4383 38.9345 87.2113 38.4432 87.0516C38.0931 86.9362 37.6947 86.8113 37.5588 86.4741C37.4116 86.0951 37.7001 85.6965 37.9109 85.3486C38.1531 84.9475 38.3128 84.4938 38.3799 84.035C38.3847 83.9963 38.3895 83.9576 38.3944 83.919C38.144 84.2327 38.0168 84.7225 37.8646 85.0622C37.797 85.2073 37.7276 85.3455 37.653 85.4925C37.5765 85.6325 37.4982 85.7656 37.4127 85.9006C37.0728 86.4475 36.2886 87.1806 36.9779 87.7954C37.0174 87.8296 37.0481 87.8588 37.091 87.8772C37.2471 87.9773 37.4382 88.0382 37.6256 88.0851C38.4073 88.2791 39.1386 88.2849 39.8188 88.7527C40.4326 89.1711 40.9605 89.6946 41.553 90.1187Z" fill="#7D9067"/>
</g>
<g opacity="0.3">
<path d="M38.6516 84.3951C38.6807 84.3051 38.7169 84.2132 38.7819 84.1435C39.2525 83.6588 39.8361 84.5036 40.1117 84.766C40.5959 85.2116 41.175 85.5571 41.8021 85.7701C41.8701 85.7967 41.9451 85.8215 42.0026 85.8658C42.0549 85.9191 42.0915 85.9989 42.0549 86.061C42.0236 86.1143 41.9616 86.1383 41.9049 86.1535C41.6973 86.2017 41.4853 86.1763 41.2766 86.1351C40.499 85.9848 39.7445 85.6938 39.0651 85.2856C38.9288 85.2025 38.7907 85.1125 38.6947 84.9813C38.5681 84.821 38.5849 84.5998 38.6516 84.3951Z" fill="#DFEFCB"/>
</g>
<g opacity="0.3">
<path d="M42.5368 86.328C42.7354 86.4168 42.9493 86.4491 43.1565 86.5132C43.4048 86.5886 43.6411 86.7046 43.8546 86.8492C43.9211 86.8986 44.0249 86.9455 44.0846 86.8847C44.1021 86.865 44.1107 86.8403 44.1103 86.8105C44.1211 86.6806 44.0218 86.5653 43.9139 86.4746C43.6406 86.249 43.3114 86.0981 42.9601 86.0353C42.8156 86.0068 42.6069 85.9656 42.4636 86.0264C42.2725 86.1075 42.392 86.2697 42.5368 86.328Z" fill="#DFEFCB"/>
</g>
<path d="M45.3195 83.072C44.1847 83.376 43.1776 81.8302 42.7687 80.8713L38.5898 71.1194C38.5551 71.0465 38.4912 70.9216 38.4091 70.7568C37.8743 69.6972 37.4026 68.7028 37.5466 68.1337C37.6059 67.9011 37.7727 67.7294 37.9996 67.6686C38.4767 67.5482 38.9113 68.0071 39.2051 68.3094L39.3007 68.4108C41.4509 70.4499 43.1679 73.255 44.6833 75.7332L45.2083 76.5862C45.3554 76.8233 45.5026 77.0603 45.6303 77.31C46.3563 78.7145 47.0999 80.5252 46.3667 82.0442C46.0857 82.6126 45.7379 82.9598 45.3195 83.072Z" fill="#AFE017"/>
<path d="M38.0914 68.0104C38.0985 68.0085 38.0985 68.0085 38.0914 68.0104C38.4054 67.9337 38.868 68.4972 39.0409 68.6601C41.3479 70.8588 43.1303 73.908 44.7853 76.5952C44.9615 76.8843 45.143 77.1644 45.2999 77.4661C45.9564 78.7248 46.7134 80.4721 46.034 81.8795C45.7844 82.3947 45.51 82.6476 45.2193 82.7255C44.3753 82.9516 43.4739 81.6016 43.1034 80.7296C41.7081 77.4796 40.3198 74.2277 38.9245 70.9776C38.7613 70.5955 37.7426 68.8361 37.9037 68.2176C37.9272 68.1067 37.9921 68.037 38.0914 68.0104ZM37.9046 67.3132C37.55 67.4082 37.2813 67.682 37.1881 68.0432C37.0307 68.6757 37.3762 69.5395 38.0786 70.9129C38.1571 71.0637 38.2191 71.1816 38.2467 71.2564L40.3371 76.1358L42.4274 81.0153C42.5522 81.3106 43.7111 83.8768 45.4132 83.4207C45.938 83.2801 46.3668 82.8663 46.7015 82.1864C47.5093 80.5204 46.7324 78.614 45.9627 77.1315C45.8242 76.8698 45.6733 76.6188 45.5262 76.3818L45.4209 76.2157L45.0012 75.5287C43.475 73.0385 41.7434 70.2074 39.5607 68.1322C39.5391 68.1081 39.5085 68.079 39.476 68.0429C39.1496 67.7044 38.6015 67.134 37.9311 67.2986C37.9188 67.3094 37.9117 67.3113 37.9046 67.3132Z" fill="#577708"/>
<path opacity="0.25" d="M39.9618 71.4173C39.5451 70.6846 39.1354 69.9501 38.7381 69.2047C38.4647 68.6952 38.2037 68.1748 37.9497 67.6526C38.326 67.7236 38.6456 67.9518 38.9316 68.1965C39.4838 68.6687 39.9606 69.2283 40.4161 69.7937C42.2995 72.1134 43.9504 74.615 45.3396 77.2465C45.7534 78.0248 46.0816 78.7961 46.1942 79.67C46.3011 80.5231 46.51 81.2741 46.1044 82.115C45.9779 82.3805 45.6805 82.6321 45.3934 82.7239C45.1915 82.793 44.9365 82.7492 44.8223 82.5781C44.7606 82.49 44.752 82.3727 44.7453 82.2625C44.7194 81.7688 44.8447 81.2719 44.842 80.7795C44.8466 79.7472 44.226 78.7927 43.7417 77.9212C43.1991 76.9458 42.6371 75.9831 42.0661 75.0153C41.3659 73.8206 40.6497 72.6227 39.9618 71.4173Z" fill="#689B1F"/>
<path d="M43.2193 76.9624C43.1182 76.982 43.1212 77.2203 43.231 77.4599C44.0448 79.192 44.6055 81.0293 44.9142 82.9191C45.0705 83.871 45.1539 84.835 45.1769 85.8001C45.1867 86.2907 45.1824 86.785 45.1549 87.278C45.1448 87.4675 44.9692 88.344 45.404 87.9809C45.6664 87.7686 45.6976 87.1476 45.7453 86.8434C45.8664 86.0189 45.8398 85.1817 45.7795 84.361C45.6844 83.0415 45.5056 81.7221 45.1213 80.4577C44.8837 79.6845 44.5345 78.9487 44.1342 78.249C43.925 77.8941 43.707 77.5341 43.4713 77.1937C43.3623 77.0137 43.2779 76.9541 43.2193 76.9624Z" fill="#577708"/>
<path d="M52.357 103.886C51.7258 104.056 51.0811 104.146 50.6549 104.201C50.376 104.238 50.0826 104.249 49.8053 104.264L48.7937 104.318C45.8514 104.486 42.5217 104.684 39.5823 104.096L39.4397 104.075C39.019 104.008 38.3934 103.914 38.2294 103.473C38.1465 103.248 38.1987 103.018 38.3618 102.832C38.5372 102.636 38.8466 102.485 39.343 102.352C39.9104 102.2 40.5995 102.105 41.0612 102.041C41.2441 102.015 41.3845 102 41.4715 101.984L52.053 99.8583C52.9473 99.6785 54.6185 99.5893 55.2108 100.409C55.5259 100.848 55.4816 101.42 55.067 102.114C54.5637 102.959 53.6761 103.533 52.357 103.886Z" fill="#AFE017"/>
<path d="M39.4333 102.717C40.2063 102.51 41.2511 102.409 41.5333 102.356C45.0611 101.65 48.587 100.936 52.1148 100.23C53.3836 99.9725 55.8996 100.001 54.7413 101.947C54.2275 102.81 53.2637 103.27 52.2638 103.538C51.7035 103.688 51.1264 103.775 50.6131 103.846C50.2757 103.891 49.9289 103.902 49.5911 103.918C46.3928 104.095 42.8134 104.381 39.6582 103.755C39.4174 103.707 38.6802 103.651 38.5715 103.359C38.5364 103.256 38.5584 103.168 38.6356 103.087C38.7689 102.932 39.0716 102.814 39.4333 102.717ZM39.2465 102.02C38.672 102.173 38.3167 102.351 38.0887 102.606C37.8308 102.892 37.7502 103.272 37.881 103.618C38.1204 104.256 38.9118 104.373 39.3806 104.449C39.4288 104.459 39.4751 104.461 39.5072 104.468C42.4858 105.059 45.8476 104.868 48.8111 104.695L49.6271 104.648L49.8227 104.64C50.1071 104.624 50.4005 104.612 50.7007 104.569C51.1411 104.511 51.8 104.417 52.4524 104.242C53.8779 103.86 54.8342 103.23 55.3793 102.314C55.9924 101.283 55.7881 100.606 55.5092 100.217C54.6507 99.0277 52.2528 99.4685 51.9866 99.5249L41.4051 101.65C41.3323 101.662 41.1938 101.685 41.0251 101.707C40.5455 101.761 39.8351 101.862 39.2465 102.02Z" fill="#577708"/>
<path opacity="0.25" d="M42.4943 102.935C41.6395 103.007 40.7885 103.093 39.943 103.2C39.3532 103.269 38.7742 103.349 38.1901 103.438C38.4585 103.703 38.8356 103.833 39.2033 103.929C39.9137 104.112 40.6528 104.176 41.383 104.234C44.3977 104.45 47.4389 104.367 50.4426 104.003C51.3255 103.894 52.1702 103.727 52.9674 103.327C53.7434 102.932 54.4963 102.678 54.9735 101.878C55.1198 101.629 55.1682 101.243 55.0917 100.957C55.0375 100.755 54.859 100.571 54.6403 100.577C54.5264 100.578 54.4275 100.634 54.3286 100.691C53.8979 100.956 53.5486 101.326 53.1305 101.61C52.2609 102.194 51.1086 102.233 50.1011 102.332C48.9693 102.448 47.8442 102.533 46.7102 102.613C45.3096 102.719 43.8983 102.813 42.4943 102.935Z" fill="#689B1F"/>
<path d="M49.0062 102.445C48.9677 102.359 49.167 102.223 49.428 102.176C51.3417 101.857 53.2148 101.273 54.9728 100.458C55.866 100.047 56.7263 99.5699 57.5504 99.0427C57.9722 98.7728 58.3831 98.4908 58.7813 98.1898C58.9329 98.0745 59.574 97.432 59.5137 98.0011C59.4805 98.3313 58.9819 98.7114 58.7498 98.9231C58.1254 99.4864 57.4035 99.9413 56.6776 100.353C55.5119 101.024 54.3026 101.617 53.0126 102.022C52.2276 102.27 51.4109 102.399 50.5934 102.468C50.1776 102.505 49.7491 102.523 49.3328 102.53C49.1283 102.532 49.0264 102.492 49.0062 102.445Z" fill="#577708"/>
<path d="M96.3163 82.9314C95.7458 84.093 95.1163 85.233 94.4402 86.3407C91.218 91.62 86.8433 96.2292 81.7058 99.7503C76.3794 103.389 70.2918 105.237 63.9024 106.157C60.9226 106.582 57.5484 106.784 54.7463 105.517C50.6878 103.675 49.1948 99.3234 52.3849 95.8534C53.7449 94.3757 55.5234 93.3537 57.2302 92.2912C62.4514 89.054 66.8617 85.1451 70.4203 80.1567C71.3868 78.7993 72.3298 77.4109 73.2709 76.0156" fill="#272628"/>
<path d="M96.3163 82.9314C95.7458 84.093 95.1163 85.233 94.4402 86.3407C91.218 91.62 86.8433 96.2292 81.7058 99.7503C76.3794 103.389 70.2918 105.237 63.9024 106.157C60.9226 106.582 57.5484 106.784 54.7463 105.517C50.6878 103.675 49.1948 99.3234 52.3849 95.8534C53.7449 94.3757 55.5234 93.3537 57.2302 92.2912C62.4514 89.054 66.8617 85.1451 70.4203 80.1567C71.3868 78.7993 72.3298 77.4109 73.2709 76.0156" stroke="black" stroke-width="5.3621" stroke-miterlimit="10" stroke-linecap="round" stroke-linejoin="round"/>
<path d="M58.9033 102.393C57.1399 102.649 55.4689 103.448 54.1462 104.639" stroke="black" stroke-width="3.57473" stroke-miterlimit="10" stroke-linecap="round" stroke-linejoin="round"/>
<path d="M56.4346 98.4001C54.3779 98.8092 52.4684 99.8813 51.0558 101.418" stroke="black" stroke-width="3.57473" stroke-miterlimit="10" stroke-linecap="round" stroke-linejoin="round"/>
<g opacity="0.1">
<path d="M74.1781 75.885C75.3097 76.7325 72.4291 80.4781 71.9918 81.2005C68.817 86.4298 64.7184 90.6512 59.7582 94.2667C58.1295 95.4503 56.4398 96.6054 55.1878 98.1738C53.0939 100.827 53.4461 103.759 55.3664 105.762C55.1555 105.684 54.9516 105.604 54.7441 105.511C50.6856 103.669 49.1927 99.3169 52.3828 95.847C53.7427 94.3693 55.5212 93.3473 57.228 92.2847C62.4492 89.0476 66.8595 85.1386 70.4181 80.1502C71.3025 78.912 72.0712 77.5255 73.0079 76.3405C73.3143 75.9521 73.272 75.5674 73.9309 75.757C74.0239 75.7918 74.1116 75.8356 74.1781 75.885Z" fill="#70706F"/>
</g>
<path d="M49.4721 55.0228C49.2168 55.0912 48.9577 55.1456 48.6949 55.1862C46.9599 55.4344 45.2412 55.0057 43.8494 53.9814C42.4557 52.9502 41.5594 51.4493 41.3153 49.7439C40.8614 46.5181 42.9269 43.4466 46.1254 42.5896C46.3807 42.5212 46.6398 42.4667 46.9026 42.4262C48.6376 42.178 50.3563 42.6066 51.7481 43.6309C53.14 44.6552 54.0381 46.163 54.2822 47.8684C54.7342 51.0873 52.6635 54.1676 49.4721 55.0228Z" fill="white"/>
<path d="M46.4056 43.6355C46.6183 43.5785 46.8348 43.5354 47.0532 43.4993C50.0312 43.0675 52.7791 45.0958 53.1918 48.0263C53.5769 50.74 51.8159 53.2741 49.1918 53.9772C48.9791 54.0342 48.7626 54.0773 48.5442 54.1134C45.5662 54.5452 42.8184 52.5169 42.4056 49.5864C42.0276 46.8708 43.7815 44.3386 46.4056 43.6355ZM45.8452 41.5441C42.1147 42.5436 39.6948 46.136 40.2249 49.9018C40.8022 54.0135 44.6671 56.8633 48.8437 56.2523C49.1509 56.2074 49.4544 56.1485 49.7522 56.0686C53.4827 55.0691 55.9026 51.4767 55.3725 47.711C54.7952 43.5992 50.9303 40.7494 46.7537 41.3604C46.4446 41.3984 46.143 41.4642 45.8452 41.5441Z" fill="black"/>
<path d="M78.9954 47.1121C78.7401 47.1805 78.481 47.235 78.2182 47.2755C76.4833 47.5237 74.7645 47.0951 73.3727 46.0708C71.979 45.0395 71.0828 43.5387 70.8386 41.8333C70.3847 38.6075 72.4502 35.536 75.6487 34.6789C75.9041 34.6105 76.1631 34.5561 76.4259 34.5155C78.1609 34.2673 79.8796 34.696 81.2714 35.7203C82.6652 36.7515 83.5614 38.2524 83.8055 39.9578C84.2575 43.1766 82.1868 46.257 78.9954 47.1121Z" fill="white"/>
<path d="M75.929 35.7243C76.1418 35.6673 76.3583 35.6243 76.5766 35.5882C79.5546 35.1563 82.3025 37.1847 82.7152 40.1151C83.1003 42.8289 81.3393 45.363 78.7153 46.0661C78.5025 46.1231 78.286 46.1662 78.0676 46.2023C75.0896 46.6341 72.3418 44.6058 71.929 41.6753C71.551 38.9597 73.3049 36.4275 75.929 35.7243ZM75.3686 33.6329C71.6382 34.6325 69.2182 38.2249 69.7483 41.9906C70.3256 46.1024 74.1905 48.9522 78.3671 48.3412C78.6743 48.2962 78.9778 48.2373 79.2757 48.1575C83.0061 47.1579 85.4261 43.5656 84.8959 39.7998C84.3187 35.688 80.4537 32.8382 76.2772 33.4493C75.9681 33.4872 75.6665 33.5531 75.3686 33.6329Z" fill="black"/>
<path d="M48.6946 52.4065C50.7118 51.866 51.9163 49.8204 51.385 47.8375C50.8537 45.8547 48.7878 44.6854 46.7706 45.2259C44.7534 45.7664 43.5489 47.812 44.0802 49.7949C44.6115 51.7777 46.6774 52.947 48.6946 52.4065Z" fill="black"/>
<path d="M49.473 48.5598C50.0253 48.4118 50.3551 47.8518 50.2096 47.3089C50.0642 46.766 49.4985 46.4459 48.9463 46.5939C48.394 46.7419 48.0642 47.3019 48.2097 47.8448C48.3551 48.3877 48.9208 48.7078 49.473 48.5598Z" fill="#B0B0B0"/>
<path d="M78.218 44.4963C80.2352 43.9558 81.4397 41.9102 80.9084 39.9274C80.3771 37.9445 78.3112 36.7753 76.294 37.3158C74.2768 37.8563 73.0723 39.9019 73.6036 41.8847C74.1349 43.8676 76.2009 45.0368 78.218 44.4963Z" fill="black"/>
<path d="M78.9896 40.6506C79.5419 40.5026 79.8717 39.9426 79.7262 39.3997C79.5808 38.8568 79.0151 38.5367 78.4629 38.6847C77.9106 38.8327 77.5808 39.3927 77.7263 39.9356C77.8717 40.4785 78.4374 40.7986 78.9896 40.6506Z" fill="#B0B0B0"/>
<path d="M108.822 109.603C108.757 109.673 108.683 109.737 108.609 109.802C107.969 110.362 107.324 110.878 106.713 111.49C103.758 114.449 100.647 117.248 97.4429 119.929C96.2882 120.896 95.1137 121.846 93.9373 122.789C90.6596 125.393 87.1049 127.616 83.5465 129.825C81.8856 130.86 80.2246 131.895 78.4909 132.801C76.8916 133.64 75.1586 134.605 73.2962 134.492C70.3726 134.304 67.689 132.714 65.6239 130.652C65.3428 130.369 65.0669 130.077 64.7962 129.775C62.6806 127.383 60.9957 124.585 60.1133 121.519C59.0359 117.81 58.5079 113.371 60.761 109.95C61.0263 109.55 61.3309 109.155 61.7459 108.917C62.1609 108.679 62.7224 108.618 63.1188 108.878C63.194 107.938 64.2298 107.407 65.1279 107.099C66.0047 106.797 67.1559 106.81 67.4025 107.73C67.2568 107.186 67.8352 106.65 68.2257 106.575C69.0633 106.411 70.0182 106.655 70.794 106.941C71.8576 107.336 72.7712 108.249 73.9325 108.356C74.9852 108.455 75.878 107.73 76.6367 107.101C77.4448 106.429 78.4025 105.918 79.3046 105.37C86.1065 101.224 93.3631 97.2993 101.259 95.6766C102.917 95.3372 104.599 95.1181 106.283 95.048C107.885 94.9848 109.526 95.068 110.998 95.6823C112.23 96.1965 113.344 97.1459 113.845 98.3938C114.376 99.7235 113.625 101.232 113.088 102.46C112.325 104.211 111.4 105.893 110.337 107.486C109.889 108.166 109.412 108.996 108.822 109.603Z" fill="#272628"/>
<g opacity="0.15">
<path d="M108.765 109.334C108.836 109.203 108.9 109.074 108.964 108.945C109.082 108.704 109.185 108.407 109.035 108.186C108.908 107.996 108.637 107.949 108.419 108.015C108.201 108.081 108.014 108.235 107.84 108.379C103.242 112.241 98.3358 115.745 93.1859 118.851C91.4645 119.888 89.6681 120.899 87.6778 121.216C87.1097 121.309 86.5247 121.338 85.9748 121.187C84.9269 120.907 84.3672 119.839 83.738 119.051C82.9498 118.067 82.1634 117.09 81.4263 116.069C80.4738 114.755 79.5413 113.347 78.1965 112.384C77.4801 111.866 76.3044 111.053 75.3608 111.134C74.952 111.169 74.5336 111.423 74.4426 111.821C74.4023 112.011 74.4405 112.21 74.4909 112.398C74.6997 113.149 75.1086 113.824 75.4892 114.507C78.477 119.871 79.9903 126.227 78.6186 132.229C80.1169 131.835 81.6543 130.877 82.8374 129.903C84.7001 128.373 86.912 127.294 88.9196 125.964C91.0101 124.575 93.039 123.097 95.0679 121.619C97.6308 119.752 100.194 117.885 102.61 115.84C104.798 113.991 107.404 111.888 108.765 109.334Z" fill="black"/>
</g>
<path d="M116.003 88.1769C116.003 88.1769 117.685 100.354 105.572 112.708C103.524 114.796 101.361 116.765 99.1095 118.631C94.124 122.776 88.7502 126.465 83.156 129.758C81.5739 130.69 79.9753 131.589 78.3494 132.443C77.289 132.996 76.5587 133.759 75.3385 134.057C73.6199 134.48 71.7687 134.266 70.1485 133.609C68.1867 132.812 66.5413 131.437 65.1322 129.895C63.6077 128.233 62.3337 126.684 61.3045 124.659C60.1931 122.469 59.3665 120.15 59.1341 117.694C58.8475 114.61 59.2911 109.911 62.9707 108.977C63.07 108.951 63.3267 108.15 63.9332 107.718C64.9592 106.98 66.4194 106.529 67.3767 107.52C68.1112 106.8 68.574 106.684 68.7972 106.609C69.5695 106.342 70.3666 106.622 71.0423 107.016C71.7808 107.446 72.6074 108.517 73.3985 108.746C74.3949 109.032 79.8201 104.911 84.0347 102.541" stroke="black" stroke-width="5.3621" stroke-miterlimit="10" stroke-linecap="round" stroke-linejoin="round"/>
<path d="M74.3583 129.321C74.0009 130.171 73.4243 130.714 72.7412 131.002C71.6069 131.478 70.1648 131.259 68.934 130.58C67.8196 129.967 66.9201 129.05 66.1143 128.085C65.7368 127.641 65.375 127.17 65.0397 126.684C63.6532 124.687 62.6882 122.39 62.9176 120.013C63.0185 118.999 63.3628 117.958 64.1081 117.25C66.7292 114.777 70.1718 117.157 72.0406 119.451C72.3244 119.801 72.578 120.151 72.7796 120.478C73.0593 120.927 73.3252 121.408 73.5593 121.913C74.5849 124.067 75.3444 126.987 74.3583 129.321Z" fill="#66636B"/>
<g opacity="0.15">
<path d="M74.3582 129.321C74.0007 130.171 73.4241 130.714 72.7411 131.002C71.6067 131.478 70.1647 131.259 68.9338 130.58C67.8194 129.967 66.9199 129.05 66.1142 128.085C65.7367 127.641 65.3749 127.17 65.0395 126.685C66.8466 128.038 68.8173 128.556 70.3868 127.889C72.8499 126.841 73.487 123.233 72.0476 119.449C72.3313 119.799 72.5849 120.15 72.7865 120.477C73.0662 120.925 73.3321 121.407 73.5663 121.912C74.5847 124.067 75.3442 126.987 74.3582 129.321Z" fill="black"/>
</g>
<path d="M62.2644 113.007C63.0881 114.124 63.4109 118.79 61.1159 116.976C59.3492 115.574 60.7435 110.934 62.2644 113.007Z" fill="#66636B"/>
<path d="M68.6769 110.87C68.2987 112.466 69.4727 115.798 71.14 114.843C71.555 114.605 71.7998 114.128 71.849 113.659C71.8982 113.19 71.7711 112.716 71.593 112.278C71.3581 111.713 71.0276 111.189 70.6213 110.723C70.3488 110.415 70.0105 110.117 69.5954 110.071C69.0929 110.012 68.8037 110.351 68.6769 110.87Z" fill="#66636B"/>
<path d="M65.3628 110.473C65.6107 110.519 65.8034 110.699 65.9658 110.88C66.3646 111.318 66.7018 111.811 66.9594 112.347C67.7198 113.936 66.3276 116.372 64.6333 114.786C63.8141 114.026 63.8043 110.188 65.3628 110.473Z" fill="#66636B"/>
<g opacity="0.15">
<path d="M61.1156 116.976C60.7669 116.695 60.5358 116.287 60.4144 115.834C60.492 115.925 60.5749 116.007 60.672 116.086C62.6004 117.609 62.6807 114.561 62.17 112.882C62.2025 112.919 62.2369 112.962 62.2731 113.012C63.0879 114.123 63.4036 118.791 61.1156 116.976Z" fill="black"/>
</g>
<g opacity="0.15">
<path d="M71.8495 113.659C71.8022 114.135 71.5555 114.605 71.1405 114.843C69.5475 115.763 68.4008 112.76 68.6375 111.09C68.8271 112.706 69.8332 114.588 71.1436 113.833C71.4792 113.639 71.706 113.294 71.8026 112.917C71.8538 113.165 71.8748 113.413 71.8495 113.659Z" fill="black"/>
</g>
<g opacity="0.15">
<path d="M64.6337 114.786C64.3906 114.56 64.2169 114.054 64.1365 113.47C64.206 113.616 64.284 113.737 64.3759 113.824C65.7749 115.131 66.9717 113.697 66.9124 112.255C66.9288 112.288 66.9434 112.314 66.9598 112.347C67.7202 113.937 66.328 116.372 64.6337 114.786Z" fill="black"/>
</g>
<path d="M62.8757 112.253C62.6661 111.159 62.7154 110.01 63.0344 108.931" stroke="black" stroke-width="3.57473" stroke-miterlimit="10" stroke-linecap="round" stroke-linejoin="round"/>
<path d="M67.2449 110.462C67.0501 109.423 67.1145 108.33 67.4465 107.3" stroke="black" stroke-width="3.57473" stroke-miterlimit="10" stroke-linecap="round" stroke-linejoin="round"/>
</g>
<defs>
<clipPath id="clip0_229_15686">
<rect width="97.1453" height="125.791" fill="white" transform="translate(0 25.1431) rotate(-15)"/>
</clipPath>
</defs>
</svg>
