<svg width="47" height="61" viewBox="0 0 47 61" fill="none" xmlns="http://www.w3.org/2000/svg">
<g clip-path="url(#clip0_169_15986)">
<path d="M6.19869 11.0807C8.64975 11.0807 11.0085 9.22224 11.6763 7.48628C12.3441 5.75033 12.1132 3.54538 11.1186 2.12442C10.4756 1.20394 9.55913 0.699951 8.53963 0.699951C5.60191 0.699951 3.15795 3.33539 2.35158 5.81333C2.02122 6.8318 2.18463 8.06027 2.79207 9.10674C3.36398 10.0902 4.23428 10.7552 5.24668 10.9792C5.55217 11.0457 5.87188 11.0807 6.19869 11.0807Z" fill="#272628"/>
<path d="M8.53963 1.39997C6.12764 1.39997 3.82222 3.59441 3.03006 6.02685C2.51143 7.61931 3.5487 9.88726 5.40298 10.2932C5.66229 10.3492 5.92871 10.3772 6.19868 10.3772C8.25189 10.3772 10.4117 8.79528 11.012 7.23432C11.932 4.84388 10.8912 1.39997 8.53963 1.39997ZM8.53963 0C9.79713 0 10.9232 0.612485 11.7011 1.72546C12.8201 3.32142 13.083 5.79236 12.337 7.73131C11.4809 9.96426 8.72434 11.7772 6.19513 11.7772C5.81859 11.7772 5.4456 11.7387 5.09038 11.6582C3.88261 11.3922 2.8489 10.6082 2.17397 9.45327C1.47062 8.2423 1.28235 6.80033 1.6731 5.59986C2.56117 2.88393 5.26799 0 8.53963 0Z" fill="black"/>
<g opacity="0.1">
<path d="M3.92879 4.26299C4.99447 3.10102 6.40472 2.30654 7.85049 2.30654C10.195 2.30654 11.2287 5.73646 10.3122 8.1199C10.2483 8.29139 10.163 8.45939 10.06 8.62738C10.4934 8.1899 10.8273 7.71041 11.012 7.22742C11.9285 4.84398 10.8948 1.41406 8.55028 1.41406C6.75639 1.41406 5.01933 2.63553 3.92879 4.26299Z" fill="#EAE6E4"/>
</g>
<path d="M35.3659 11.0807C35.6927 11.0807 36.0124 11.0457 36.3179 10.9792C37.3267 10.7587 38.197 10.0937 38.7725 9.10674C39.3799 8.06377 39.5433 6.8318 39.213 5.81333C38.4066 3.33539 35.9627 0.699951 33.0249 0.699951C32.0054 0.699951 31.0889 1.20394 30.446 2.12442C29.4514 3.54188 29.2205 5.74683 29.8883 7.48628C30.5561 9.21874 32.9148 11.0807 35.3659 11.0807Z" fill="#272628"/>
<path d="M33.0254 1.39997C30.6738 1.39997 29.6365 4.84388 30.553 7.23782C31.1534 8.79878 33.3131 10.3807 35.3663 10.3807C35.6328 10.3807 35.9027 10.3527 36.162 10.2967C38.0163 9.88726 39.0536 7.62281 38.535 6.03035C37.7428 3.59441 35.4374 1.39997 33.0254 1.39997ZM33.0254 0C36.3006 0 39.0039 2.88393 39.8884 5.59986C40.2791 6.80033 40.0908 8.2423 39.3875 9.45327C38.7161 10.6117 37.6789 11.3957 36.4711 11.6582C36.1159 11.7352 35.7429 11.7772 35.3663 11.7772C32.8371 11.7772 30.0806 9.96076 29.2245 7.73131C28.4785 5.79236 28.7414 3.32142 29.8603 1.72546C30.6418 0.612485 31.7679 0 33.0254 0Z" fill="black"/>
<g opacity="0.1">
<path d="M31.732 1.80939C31.8706 1.78139 32.0162 1.76739 32.1654 1.76739C34.5809 1.76739 36.8864 3.96184 37.6785 6.39428C38.1048 7.70325 37.476 9.4707 36.2079 10.2827C38.0373 9.85219 39.0532 7.60525 38.5417 6.02679C37.7425 3.59435 35.437 1.3999 33.025 1.3999C32.5348 1.3999 32.1015 1.5504 31.732 1.80939Z" fill="#EAE6E4"/>
</g>
<path d="M34.695 39.5559C34.7802 39.5559 34.8619 39.5524 34.9507 39.5489C34.9507 39.5489 34.9543 39.5489 34.9578 39.5489C35.0751 39.5489 35.2136 39.5279 35.3344 39.5104L35.3877 39.5034C37.8352 39.1464 39.9949 38.4044 41.803 37.2985C42.89 36.6335 45.501 34.831 46.318 32.4476C46.5347 31.8141 46.4636 31.2576 46.1226 30.8761C46.0693 30.8166 46.0089 30.7641 45.9521 30.7221C46.3961 30.2041 46.5773 29.4377 46.4103 28.7202C46.2825 28.1672 45.8739 27.6597 45.3731 27.4287C45.1884 27.3447 44.9894 27.3027 44.7798 27.3027C44.5703 27.3027 44.3749 27.3447 44.2186 27.3902C44.215 27.1732 44.1653 26.9632 44.0729 26.7707C43.8953 26.4032 43.5685 26.1267 43.1565 25.9868C42.954 25.9203 42.7337 25.8853 42.5099 25.8853C41.6325 25.8853 40.7907 26.3997 40.1086 26.8092C39.9807 26.8862 39.8564 26.9632 39.7392 27.0297C38.6238 27.6667 37.4906 28.3177 36.3255 28.7237C35.9169 28.8672 35.5084 28.9827 35.0715 29.1052C34.2829 29.3292 33.4694 29.5567 32.7021 29.9487C32.6027 29.9977 32.5103 30.0502 32.4215 30.1061C31.9242 30.4211 31.5157 31.0336 31.164 31.9856C30.553 33.6481 30.6347 36.371 31.8318 38.0545C32.5281 39.0379 33.5192 39.5559 34.695 39.5559Z" fill="#272628"/>
<path d="M42.5064 26.4103C41.629 26.4103 40.6983 27.0858 40.0056 27.4848C38.8902 28.1218 37.7179 28.7973 36.5031 29.2208C35.3237 29.6337 34.0662 29.8472 32.9437 30.4177C32.862 30.4597 32.7803 30.5052 32.7057 30.5542C32.1977 30.8727 31.8567 31.6392 31.6613 32.1712C30.7981 34.5161 31.4588 39.0345 34.695 39.0345C34.766 39.0345 34.8406 39.031 34.9152 39.0275C35.0466 39.0275 35.1781 39.003 35.306 38.9855C37.487 38.6705 39.6397 38.0055 41.5189 36.8541C43.1849 35.8356 45.1599 34.1731 45.81 32.2832C45.9237 31.9472 45.977 31.5167 45.7212 31.2297C45.3944 30.8692 44.7408 31.0792 45.3731 30.5542C45.8597 30.1517 46.0267 29.4343 45.8881 28.8393C45.7993 28.4578 45.5081 28.0728 45.1457 27.9083C45.0249 27.8523 44.9006 27.8313 44.7763 27.8313C44.5987 27.8313 44.4211 27.8768 44.2506 27.9363C44.1546 27.9678 43.8456 28.1533 43.6715 28.1533C43.5969 28.1533 43.5508 28.1218 43.5543 28.0273C43.5579 27.9643 43.5827 27.9013 43.6076 27.8418C43.8278 27.2678 43.5863 26.6868 42.9859 26.4873C42.8261 26.4348 42.6662 26.4103 42.5064 26.4103ZM42.5064 25.3604C42.7906 25.3604 43.0641 25.4024 43.3234 25.4898C43.874 25.6718 44.3109 26.0463 44.5525 26.5433C44.588 26.6203 44.6235 26.7008 44.6484 26.7813C44.691 26.7778 44.7337 26.7778 44.7763 26.7778C45.064 26.7778 45.3411 26.8373 45.5933 26.9528C46.2398 27.2503 46.762 27.8978 46.9254 28.6013C47.0888 29.3118 46.9716 30.0642 46.627 30.6662C47 31.1807 47.071 31.8772 46.8188 32.6157C45.9485 35.1601 43.2168 37.0501 42.0801 37.743C40.2081 38.8875 37.9808 39.654 35.4587 40.0215L35.4054 40.0285C35.2811 40.046 35.1283 40.0705 34.9507 40.074C34.8619 40.0775 34.7767 40.081 34.6914 40.081C33.3344 40.081 32.1906 39.486 31.3914 38.359C30.045 36.4691 30.0095 33.5746 30.6596 31.8107C31.0503 30.7467 31.5299 30.0467 32.1302 29.6687C32.2297 29.6057 32.3398 29.5427 32.4535 29.4868C33.267 29.0703 34.1088 28.8323 34.9223 28.6048C35.3486 28.4823 35.7535 28.3703 36.1443 28.2338C37.2632 27.8418 38.3787 27.2048 39.455 26.5853C39.5829 26.5118 39.7001 26.4383 39.828 26.3648C40.5633 25.9168 41.4798 25.3604 42.5064 25.3604Z" fill="black"/>
<g opacity="0.2">
<path d="M38.4501 31.8807C38.4537 31.3417 38.681 30.7677 39.2814 30.3582C39.8817 29.9487 40.9154 29.7702 41.5832 30.0607C42.1409 30.3057 42.3114 30.7852 42.3505 31.2297C42.4144 32.0207 42.1445 32.8852 41.2706 33.5012C41.1285 33.6027 40.9651 33.6936 40.7733 33.7461C39.1996 34.1591 38.443 32.5317 38.4501 31.8807Z" fill="#EAE6E4"/>
</g>
<g opacity="0.1">
<path d="M18.6072 20.9225C21.346 19.645 24.305 19.7325 26.9941 21.3705C27.8608 21.899 28.5819 22.7914 29.4842 23.2394C30.7488 23.8729 33.2638 25.1924 32.6599 27.3378C32.4574 28.0623 31.9956 28.6328 31.5054 29.1053C29.7648 30.7887 27.5589 31.5342 25.4026 32.1432C24.5217 32.3917 23.6336 32.6262 22.7349 32.7242C20.227 32.9937 17.6481 32.1607 15.5735 30.4037C14.7956 29.7458 14.0603 28.9163 13.7264 27.8278C13.2432 26.2528 13.6944 24.6849 14.7778 23.8379C16.0531 22.8369 17.1614 21.598 18.6072 20.9225Z" fill="black"/>
</g>
<g opacity="0.2">
<path d="M40.9614 28.0273C40.9543 27.8173 41.0147 27.6108 41.1426 27.4253C41.3664 27.1068 41.7536 26.9143 42.1195 26.9004C42.4818 26.8864 43.0466 27.2013 42.9401 27.7263C42.8548 28.1393 42.5955 28.5138 42.3113 28.7483C42.1621 28.8708 41.9845 28.9688 41.7927 28.9863C41.5689 29.0108 41.4161 28.9233 41.2492 28.7238C41.0645 28.5138 40.9685 28.2688 40.9614 28.0273Z" fill="#EAE6E4"/>
</g>
<g opacity="0.2">
<path d="M43.0641 29.5392C43.0748 29.4832 43.0961 29.4237 43.1245 29.3642C43.3909 28.8147 44.1831 28.3072 44.8012 28.5837C45.1599 28.7447 45.2061 29.0912 45.1635 29.4377C45.1173 29.8191 44.9042 30.1481 44.5916 30.3756C44.5134 30.4316 44.4246 30.4876 44.318 30.5191C43.9095 30.6381 43.5152 30.4946 43.2595 30.1656C43.1067 29.9661 43.0215 29.7632 43.0641 29.5392Z" fill="#EAE6E4"/>
</g>
<g opacity="0.2">
<path d="M43.4367 32.4161C43.451 32.1081 43.6534 31.8211 43.8701 31.5901C44.1472 31.2961 44.5237 31.1701 44.9287 31.2506C45.767 31.4186 45.3976 32.5876 44.9926 32.9971C44.9216 33.0671 44.8399 33.1406 44.7333 33.1896C44.2644 33.4101 43.7032 33.2456 43.5007 32.7591C43.451 32.6436 43.4332 32.5281 43.4367 32.4161Z" fill="#EAE6E4"/>
</g>
<path d="M17.697 48.5123C17.7361 48.5368 17.7787 48.5578 17.8213 48.5788C18.1908 48.7608 18.5566 48.9218 18.919 49.1318C20.6702 50.1468 22.4748 51.0673 24.3078 51.9212C24.9685 52.2292 25.6363 52.5267 26.3041 52.8207C28.162 53.6292 30.1015 54.2207 32.041 54.8122C32.9469 55.0886 33.8527 55.3651 34.7763 55.5716C35.6288 55.7641 36.5595 55.9986 37.4156 55.7116C38.7584 55.2566 39.8134 54.1752 40.5203 52.9502C40.6162 52.7822 40.7086 52.6107 40.7974 52.4357C41.4865 51.0498 41.9234 49.5273 41.9518 47.9803C41.9909 46.1079 41.6819 43.9624 40.2006 42.643C40.0265 42.489 39.8347 42.342 39.6109 42.2825C39.3871 42.223 39.1171 42.265 38.9644 42.4365C38.8116 42.006 38.261 41.887 37.8028 41.8555C37.3552 41.824 36.8188 41.9745 36.8188 42.4365C36.8188 42.1635 36.4814 41.985 36.2895 41.999C35.8775 42.027 35.4619 42.2615 35.1351 42.4925C34.6875 42.811 34.3749 43.3534 33.8456 43.5494C33.366 43.7279 32.8581 43.5004 32.4247 43.3009C31.9629 43.0874 31.4514 42.9684 30.9611 42.825C27.2632 41.7365 23.3806 40.809 19.4873 41.04C18.6703 41.089 17.8568 41.1975 17.0611 41.376C16.3045 41.5475 15.5479 41.7925 14.9369 42.265C14.4254 42.6605 14.0239 43.2449 13.9458 43.8924C13.8641 44.5819 14.404 45.1944 14.809 45.7019C15.3845 46.4264 16.0274 47.0984 16.7237 47.7108C17.0185 47.9768 17.3453 48.3058 17.697 48.5123Z" fill="#272628"/>
<g opacity="0.15">
<path d="M17.6903 48.3829C17.6405 48.3304 17.5943 48.2778 17.5482 48.2253C17.4629 48.1274 17.3777 48.0014 17.4203 47.8789C17.4558 47.7739 17.5766 47.7179 17.6867 47.7214C17.7968 47.7249 17.9034 47.7739 18.0029 47.8194C20.6351 49.0513 23.3668 50.0768 26.1624 50.8853C27.0967 51.1548 28.0629 51.4033 29.0326 51.3018C29.3097 51.2738 29.5868 51.2143 29.8248 51.0743C30.2795 50.8118 30.4074 50.2413 30.6027 49.7933C30.8478 49.2333 31.093 48.6768 31.3096 48.1064C31.5903 47.3714 31.8496 46.5944 32.3576 45.9749C32.6275 45.6424 33.0751 45.1139 33.5263 45.0334C33.7216 44.9984 33.949 45.0649 34.0413 45.2399C34.084 45.3239 34.0911 45.4219 34.0911 45.5164C34.0875 45.8944 33.9809 46.2619 33.8886 46.6294C33.1639 49.5168 33.2527 52.6842 34.6452 55.3232C33.8957 55.3267 33.0574 55.0712 32.3824 54.7632C31.3203 54.2802 30.1516 54.0527 29.0468 53.6817C27.8959 53.2932 26.7627 52.8557 25.6296 52.4183C24.198 51.8653 22.7664 51.3123 21.3811 50.6578C20.1307 50.0663 18.6458 49.4083 17.6903 48.3829Z" fill="black"/>
</g>
<path d="M11.6585 39.3811C11.6585 39.3811 12.3974 45.296 19.6049 49.5624C20.8234 50.2833 22.0809 50.9343 23.3668 51.5258C26.2157 52.8418 29.1889 53.8952 32.2155 54.7352C33.0716 54.9732 33.9312 55.1937 34.798 55.3897C35.3628 55.5157 35.7997 55.7817 36.4071 55.7677C37.2632 55.7502 38.1016 55.4177 38.7765 54.9067C39.5935 54.2872 40.1903 53.4368 40.6556 52.5373C41.1601 51.5678 41.5615 50.6823 41.7888 49.6044C42.0339 48.4389 42.1298 47.2489 41.9309 46.0694C41.6787 44.589 40.883 42.4435 39.0465 42.468C38.9967 42.468 38.7765 42.125 38.439 41.999C37.8671 41.782 37.1283 41.754 36.805 42.3385C36.3716 42.0935 36.1407 42.097 36.0271 42.09C35.6327 42.062 35.2953 42.293 35.0289 42.5625C34.7376 42.8565 34.4854 43.462 34.1444 43.6685C33.7145 43.9275 30.6631 42.678 28.3968 42.097" stroke="black" stroke-width="5" stroke-miterlimit="10" stroke-linecap="round" stroke-linejoin="round"/>
<path d="M36.2719 53.4263C36.5454 53.7798 36.8829 53.9618 37.2381 54.0108C37.8278 54.0913 38.4743 53.8078 38.9645 53.3353C39.4085 52.9083 39.714 52.3658 39.9698 51.8128C40.0906 51.5574 40.2007 51.2914 40.2966 51.0219C40.6944 49.9124 40.8579 48.7154 40.4529 47.6305C40.2788 47.1685 39.9875 46.724 39.5506 46.486C38.016 45.6565 36.7053 47.2035 36.1191 48.5124C36.0303 48.7119 35.9557 48.9079 35.9024 49.0864C35.8278 49.3314 35.7639 49.5904 35.7177 49.8564C35.5081 50.9939 35.5224 52.4568 36.2719 53.4263Z" fill="#66636B"/>
<g opacity="0.15">
<path d="M36.2722 53.4263C36.5457 53.7798 36.8832 53.9618 37.2384 54.0108C37.8281 54.0913 38.4746 53.8078 38.9648 53.3353C39.4088 52.9083 39.7143 52.3659 39.9701 51.8129C40.0908 51.5574 40.201 51.2914 40.2969 51.0219C39.6219 51.8829 38.7658 52.3729 37.9488 52.2574C36.6665 52.0754 35.9169 50.4654 36.1159 48.5125C36.0271 48.7119 35.9525 48.9079 35.8992 49.0864C35.8246 49.3314 35.7606 49.5904 35.7145 49.8564C35.5084 50.9939 35.5226 52.4569 36.2722 53.4263Z" fill="black"/>
</g>
<path d="M39.8816 44.2671C39.6365 44.8936 40.0699 47.1195 40.9153 45.982C41.5689 45.1036 40.3363 43.1051 39.8816 44.2671Z" fill="#66636B"/>
<path d="M36.6167 44.0709C36.9933 44.7709 36.8618 46.4788 35.9631 46.2408C35.7393 46.1813 35.5653 45.9888 35.4836 45.7754C35.4018 45.5619 35.4018 45.3239 35.4303 45.0964C35.4693 44.8024 35.5581 44.5154 35.6896 44.2459C35.7784 44.0674 35.8992 43.8854 36.0874 43.8119C36.3148 43.7209 36.4924 43.8399 36.6167 44.0709Z" fill="#66636B"/>
<path d="M38.1189 43.4691C38.0088 43.5216 37.9413 43.6301 37.888 43.7351C37.7566 43.9906 37.6607 44.2636 37.6074 44.5471C37.4511 45.3871 38.4067 46.3531 38.9999 45.3976C39.2841 44.9391 38.8116 43.1401 38.1189 43.4691Z" fill="#66636B"/>
<g opacity="0.15">
<path d="M40.9185 45.9786C41.0464 45.8036 41.1032 45.5831 41.1032 45.3556C41.0784 45.4081 41.05 45.4571 41.0144 45.5061C40.304 46.4616 39.8848 45.0441 39.9132 44.1936C39.9026 44.2146 39.8919 44.2391 39.8813 44.2671C39.6397 44.8901 40.0731 47.1195 40.9185 45.9786Z" fill="black"/>
</g>
<g opacity="0.15">
<path d="M35.4836 45.772C35.5653 45.989 35.7393 46.178 35.9631 46.2375C36.8228 46.4685 36.9826 44.918 36.6629 44.1655C36.7766 44.946 36.5421 45.954 35.8352 45.765C35.6541 45.716 35.5049 45.583 35.4125 45.4185C35.4196 45.5445 35.4409 45.6635 35.4836 45.772Z" fill="black"/>
</g>
<g opacity="0.15">
<path d="M39.0003 45.3975C39.0855 45.261 39.1033 45.002 39.0678 44.7185C39.0536 44.7955 39.0323 44.862 39.0003 44.9145C38.5101 45.702 37.7712 45.1805 37.6185 44.498C37.6149 44.5155 37.6114 44.5295 37.6078 44.547C37.448 45.387 38.4071 46.353 39.0003 45.3975Z" fill="black"/>
</g>
<path d="M39.5009 43.9906C39.4618 43.4516 39.2949 42.9196 39.0107 42.4541" stroke="black" stroke-width="2" stroke-miterlimit="10" stroke-linecap="round" stroke-linejoin="round"/>
<path d="M37.2384 43.7001C37.1993 43.1891 37.0323 42.6851 36.7482 42.2441" stroke="black" stroke-width="2" stroke-miterlimit="10" stroke-linecap="round" stroke-linejoin="round"/>
<path d="M8.45793 53.4682C8.73856 53.5942 9.01564 53.7167 9.28206 53.8287C10.7456 54.4481 12.5253 55.1516 14.138 55.1411C15.9426 55.1306 17.7151 55.4526 19.5445 55.3161C21.4521 55.1761 23.3348 54.8156 25.1962 54.3956C29.5619 53.4087 33.4588 49.9998 35.139 45.0754C35.2953 44.6134 35.4338 44.1409 35.5475 43.6649C35.9986 41.796 36.123 39.836 36.0093 37.8865C35.8601 35.3491 35.2953 32.8222 34.496 30.5157C33.7501 28.3633 32.5281 26.4768 31.0397 24.8879C29.601 23.3479 27.9101 22.0879 26.1624 21.1395C25.4058 20.7265 24.6349 20.373 23.8677 20.079C22.1164 19.407 20.2834 19.0255 18.4398 19.001C16.5074 18.9765 14.5785 19.3965 12.7739 20.205C12.2766 20.4255 11.7935 20.6775 11.3175 20.9575C10.4365 21.4755 9.63373 22.0949 8.89841 22.8054C8.47569 23.2114 8.08139 23.6454 7.7084 24.1074C5.54152 26.7883 4.25205 29.9242 3.00521 33.0882C1.56654 36.7351 -0.142094 40.7005 0.817017 44.6589C1.31789 46.7273 2.23082 48.7853 3.70145 50.3637C4.90212 51.6622 6.7564 52.6947 8.45793 53.4682Z" fill="#E2DFEA" stroke="black" stroke-width="3" stroke-miterlimit="10"/>
<path d="M1.61627 36.5672C4.44743 38.0442 8.67107 39.5981 11.7154 40.2736C15.2356 41.0506 19.0614 41.1416 22.635 41.0331C25.1642 40.9561 27.697 40.6166 30.1445 39.8326C32.1196 39.1991 34.1053 38.6916 36.0057 37.7922C35.8565 35.2547 35.2917 32.7278 34.4925 30.4213C33.7465 28.2689 32.5245 26.3824 31.0361 24.7935C29.5975 23.2535 27.9066 21.9936 26.1589 21.0451C23.9955 20.9716 21.8322 20.8281 19.6724 20.6356C17.367 20.4326 15.058 20.4431 12.7704 20.1106C12.2731 20.3311 11.79 20.5831 11.314 20.8631C10.433 21.3811 9.63018 22.0005 8.89486 22.711C8.47215 23.117 8.07784 23.551 7.70485 24.013C6.80258 25.1295 6.02818 26.4034 5.37457 27.7999C4.35507 29.9944 3.46345 31.4223 2.60025 33.7568C0.781494 38.6811 1.37472 35.6572 1.61627 36.5672Z" fill="#272628"/>
<g opacity="0.1">
<path d="M0.824115 46.9969C1.34985 48.2674 2.12424 49.4574 3.229 50.2974C3.40306 50.0209 3.42437 49.6779 3.44569 49.3524C3.467 49.0199 3.49542 48.6909 3.52739 48.3584C3.97498 43.6335 5.38878 38.9996 7.64446 34.8067C8.16665 33.8373 8.76698 32.9378 9.15773 31.9263C9.5769 30.8378 10.195 29.8019 10.8237 28.8219C12.0457 26.9284 13.5093 25.1995 14.9053 23.4285C16.4434 21.4791 13.1256 21.3636 11.9036 21.4476C10.5715 21.5421 9.39928 22.781 8.48635 23.7015C7.35673 24.839 6.39052 26.1339 5.56994 27.5059C4.08154 29.9838 3.03718 32.6928 2.03899 35.3982C1.62338 36.5182 1.21487 37.6417 0.90582 38.7966C0.490206 40.3471 0.2522 41.9466 0.202468 43.553C0.177603 44.309 0.198916 45.072 0.4085 45.8C0.522173 46.1989 0.66071 46.6014 0.824115 46.9969Z" fill="black"/>
</g>
<path d="M20.5893 32.0138C21.9996 32.0138 23.3637 31.8283 24.9799 31.5483C26.2019 31.3383 27.6441 31.0653 29.1112 30.6698C29.7506 30.4948 30.3332 30.3164 30.8945 30.1169C31.1609 30.0224 31.4237 29.9209 31.6831 29.8194C31.7967 29.7739 31.914 29.7249 32.0312 29.6724C32.5143 29.4659 32.9796 29.2384 33.413 28.9969C33.7256 28.8219 34.0276 28.6399 34.3082 28.4509C38.8799 25.3885 40.411 20.9016 38.7414 15.4802C38.0771 13.3243 36.1944 9.28187 34.3792 7.29392C33.9494 6.82143 33.4876 6.38394 33.0081 5.99895L32.8695 5.87995H32.8553C32.0916 5.28497 31.2568 4.77748 30.3652 4.37499C27.7152 3.17452 24.8272 2.92603 21.3033 2.92603C21.1009 2.92603 20.6107 2.92953 20.6107 2.92953C20.4117 2.92953 20.2128 2.92603 20.0103 2.92603C19.1507 2.92603 18.4331 2.94003 17.7511 2.97152C15.1721 3.08702 13.158 3.46851 11.4174 4.17549C10.2984 4.63048 9.3038 5.20797 8.37666 5.94295C7.86868 6.34894 7.38203 6.80393 6.93444 7.29392C5.09437 9.31337 3.35731 13.1773 2.7108 15.2807C1.89733 17.9267 1.80497 20.3626 2.43727 22.5255C2.58647 23.0295 2.77474 23.523 2.99853 23.992C3.15128 24.3175 3.33599 24.65 3.54558 24.9755C3.77648 25.3465 4.04645 25.7175 4.34839 26.0745C5.07306 26.9424 5.97178 27.7404 7.02325 28.4439L7.05877 28.4649C7.63779 28.8499 8.2914 29.2069 9.00186 29.5219C9.36774 29.6864 9.73007 29.8334 10.1279 29.9769L10.27 30.0294C11.595 30.5054 12.9662 30.8413 14.007 31.0793C16.1597 31.5693 17.8221 31.8423 19.4064 31.9683C19.7936 31.9963 20.1915 32.0138 20.5893 32.0138Z" fill="#E2DFEA"/>
<path d="M20.0139 3.44744C19.2644 3.44744 18.5184 3.45793 17.7795 3.49293C15.6304 3.58743 13.5488 3.87792 11.6234 4.65841C10.6075 5.0714 9.63417 5.62088 8.71769 6.34886C8.23813 6.73035 7.77633 7.16084 7.33585 7.64383C5.65208 9.49179 3.91858 13.1842 3.22588 15.4311C2.51898 17.7306 2.29874 20.128 2.95591 22.3785C3.09445 22.8475 3.26851 23.313 3.48875 23.7679C3.63795 24.0829 3.81201 24.3909 4.00383 24.6954C4.22762 25.0524 4.47983 25.4024 4.76402 25.7419C5.43539 26.5504 6.28083 27.3099 7.3252 28.0133C7.32875 28.0133 7.3323 28.0168 7.33585 28.0203C7.92553 28.4158 8.56138 28.7553 9.22211 29.0493C9.22921 29.0528 9.23631 29.0563 9.24342 29.0598C9.59509 29.2173 9.95387 29.3608 10.3162 29.4938C10.3624 29.5113 10.4086 29.5253 10.4547 29.5428C11.6767 29.9803 12.9413 30.3023 14.1349 30.5753C15.9004 30.9778 17.6694 31.3103 19.4562 31.4502C19.8398 31.4817 20.2164 31.4957 20.5929 31.4957C22.0351 31.4957 23.4418 31.2893 24.8911 31.0373C26.1877 30.8133 27.5873 30.5438 28.9727 30.1693C29.5588 30.0118 30.1414 29.8298 30.7133 29.6268C30.9726 29.5358 31.2284 29.4378 31.4806 29.3363C31.5943 29.2908 31.7044 29.2453 31.8181 29.1963C32.2763 29.0003 32.7239 28.7833 33.1537 28.5453C33.4485 28.3808 33.7363 28.2058 34.0098 28.0238C39.0434 24.6394 39.5904 20.03 38.2334 15.6306C37.5479 13.3977 35.6723 9.48829 33.9849 7.64033C33.5658 7.18184 33.1253 6.76885 32.6706 6.39786C32.667 6.39786 32.667 6.39786 32.667 6.39786C31.8642 5.75038 31.0223 5.24289 30.1449 4.8474C27.4346 3.61893 24.4116 3.44744 21.3069 3.44744C21.108 3.44744 20.9055 3.44744 20.703 3.45094H20.6107C20.4117 3.44744 20.2128 3.44744 20.0139 3.44744ZM20.0139 2.39746C20.2164 2.39746 20.4188 2.39746 20.6213 2.40096H20.7066C20.9019 2.40096 21.108 2.39746 21.3105 2.39746C24.9018 2.39746 27.8573 2.65295 30.5961 3.89542C31.4664 4.28741 32.2905 4.7774 33.0436 5.35139H33.0507H33.0542H33.0613L33.3562 5.58938C33.8571 5.99187 34.3366 6.44686 34.7842 6.94035C36.6491 8.9843 38.5816 13.1247 39.26 15.3261C41.0042 20.989 39.3986 25.6754 34.6172 28.8813C34.3188 29.0808 34.0062 29.2698 33.683 29.4518C33.2354 29.7003 32.7523 29.9383 32.2479 30.1518C32.1271 30.2043 32.0063 30.2568 31.882 30.3058C31.6333 30.4073 31.3598 30.5123 31.0827 30.6103C30.5179 30.8133 29.9034 31.0023 29.2604 31.1773C27.7649 31.5832 26.241 31.8667 25.0794 32.0662C23.4383 32.3497 22.0458 32.5387 20.5965 32.5387C20.1808 32.5387 19.7688 32.5212 19.3709 32.4897C17.7653 32.3637 16.078 32.0837 13.8969 31.5902C12.8348 31.3488 11.4458 31.0058 10.0924 30.5193L9.95032 30.4703C9.53826 30.3198 9.16527 30.1693 8.80649 30.0083C8.79584 30.0048 8.78518 29.9978 8.77097 29.9908C8.04986 29.6688 7.38559 29.3083 6.79591 28.9163L6.78881 28.9128L6.72842 28.8743C5.63787 28.1428 4.70007 27.3099 3.94344 26.4034C3.62729 26.0289 3.34311 25.6369 3.098 25.2414C2.88487 24.9019 2.6895 24.5519 2.52609 24.2054C2.29164 23.7154 2.09271 23.194 1.93641 22.6655C1.27214 20.4045 1.3645 17.8671 2.20994 15.1231C2.87066 12.9777 4.65034 9.0158 6.5437 6.94035C7.0126 6.42586 7.51702 5.95337 8.0463 5.52988C9.00186 4.7704 10.0675 4.15092 11.2185 3.68543C13.0195 2.95395 15.0904 2.55846 17.7333 2.44296C18.4189 2.41146 19.1436 2.39746 20.0139 2.39746Z" fill="black"/>
<path d="M26.0385 12.4422C26.4364 12.2952 26.8697 12.2707 27.296 12.2777C28.9016 12.3057 30.4966 12.7852 31.8465 13.6426C31.9566 13.7126 31.914 13.8806 31.7861 13.8911C31.6049 13.9086 31.3953 13.8666 31.2355 13.9016C31.1218 13.9261 31.0898 14.0731 31.1822 14.1396C31.9672 14.7346 32.6599 15.4521 33.2247 16.2571C33.2993 16.3656 33.1928 16.5056 33.0684 16.4636C33.0649 16.4636 33.0613 16.4636 33.0613 16.4601C32.937 16.4216 32.834 16.5581 32.9086 16.6666C33.9245 18.161 34.5178 19.932 34.5995 21.7274C34.5995 21.7484 34.5995 21.7729 34.5995 21.7939C34.5995 21.9234 34.429 21.9759 34.3508 21.8744C33.2141 20.401 32.3225 18.756 31.1857 17.2791C29.9993 15.7426 28.4647 14.3496 26.5607 13.8911C26.1238 13.7861 25.6762 13.7476 25.2322 13.6846C25.1469 13.6741 25.0936 13.5866 25.122 13.5061C25.2819 13.0127 25.4346 12.6662 26.0385 12.4422Z" fill="#ECEAF4"/>
<path d="M14.5398 12.4422C14.142 12.2952 13.7086 12.2707 13.2823 12.2777C11.6767 12.3057 10.0817 12.7852 8.73189 13.6426C8.62177 13.7126 8.6644 13.8806 8.79228 13.8911C8.97344 13.9086 9.18302 13.8666 9.34288 13.9016C9.45655 13.9261 9.48852 14.0731 9.39616 14.1396C8.61111 14.7346 7.91842 15.4521 7.35361 16.2571C7.27901 16.3656 7.38558 16.5056 7.50991 16.4636C7.51346 16.4636 7.51701 16.4636 7.51701 16.4601C7.64134 16.4216 7.74436 16.5581 7.66976 16.6666C6.65381 18.161 6.06058 19.932 5.97888 21.7274C5.97888 21.7484 5.97888 21.7729 5.97888 21.7939C5.97888 21.9234 6.14939 21.9759 6.22754 21.8744C7.36427 20.401 8.25588 18.756 9.39261 17.2791C10.5791 15.7426 12.1136 14.3496 14.0177 13.8911C14.4546 13.7861 14.9022 13.7476 15.3462 13.6846C15.4315 13.6741 15.4847 13.5866 15.4563 13.5061C15.2965 13.0127 15.1437 12.6662 14.5398 12.4422Z" fill="#ECEAF4"/>
<g opacity="0.6">
<path d="M10.4543 29.5324C11.6762 29.9699 12.9408 30.2919 14.1344 30.5649C15.8999 30.9674 17.6689 31.2999 19.4557 31.4399C21.3064 31.5903 23.0612 31.3454 24.8907 31.0269C26.1872 30.8029 27.5868 30.5334 28.9722 30.1589C29.5583 30.0014 30.1409 29.8194 30.7128 29.6164C28.9225 29.2979 27.0256 29.1719 25.9102 26.904C25.2956 25.6475 25.1855 24.174 24.9724 22.7916C24.7841 21.5701 24.3045 20.4886 23.3596 19.7536C22.7309 19.2636 21.9565 19.0467 21.1999 18.9592C20.9619 18.9312 20.7203 18.9137 20.4823 18.9032C20.4326 18.9032 20.3793 18.8997 20.3295 18.8997C20.2798 18.8997 20.2301 18.8997 20.1768 18.9032C19.9388 18.9102 19.6972 18.9312 19.4592 18.9592C18.7026 19.0432 17.9282 19.2636 17.2995 19.7536C16.3546 20.4886 15.875 21.5701 15.6867 22.7916C15.4736 24.174 15.3635 25.6475 14.7489 26.904C13.7401 28.9619 12.0847 29.2594 10.4543 29.5324Z" fill="white"/>
</g>
<g opacity="0.6">
<path d="M20.6497 18.9065C20.6995 18.9065 20.7492 18.9065 20.8025 18.91V18.9065C20.7492 18.9065 20.6995 18.9065 20.6497 18.9065Z" fill="white"/>
</g>
<g opacity="0.8">
<path d="M33.0901 23.1694C32.7633 23.5754 32.2944 23.8764 31.655 23.9989C29.8789 24.3419 27.9358 22.9874 26.6285 22.0424C23.8791 20.0545 23.2219 17.3666 24.1491 14.1921C24.2627 13.8071 24.4084 13.4187 24.6961 13.1387C25.3391 12.5122 26.4047 12.6557 27.2573 12.9567C30.2163 14.0031 32.6034 16.5021 33.488 19.477C33.8503 20.695 33.8538 22.2209 33.0901 23.1694Z" fill="black"/>
</g>
<g opacity="0.8">
<path d="M7.22929 23.1694C7.5561 23.5754 8.025 23.8764 8.6644 23.9989C10.4405 24.3419 12.3836 22.9874 13.6909 22.0424C16.4403 20.0545 17.0975 17.3666 16.1703 14.1921C16.0567 13.8071 15.911 13.4187 15.6233 13.1387C14.9803 12.5122 13.9146 12.6557 13.0621 12.9567C10.1031 14.0031 7.71595 16.5021 6.83143 19.477C6.47266 20.695 6.46555 22.2209 7.22929 23.1694Z" fill="black"/>
</g>
<path d="M21.7119 22.9419H21.6515C20.7599 23.0189 20.0743 23.5054 20.0743 24.0934C20.0743 24.7339 21.0796 25.5003 22.0884 25.5003C23.0937 25.5003 23.7189 24.7374 23.7189 24.0934C23.7189 23.4529 22.9019 22.9314 21.8966 22.9314C21.8362 22.9314 21.7722 22.9349 21.7119 22.9384V22.9419Z" fill="#E2DFEA"/>
<path d="M16.3906 24.0934C16.3906 24.7339 17.0158 25.5003 18.0211 25.5003C19.0263 25.5003 20.0352 24.7374 20.0352 24.0934C20.0352 23.4529 19.2182 22.9314 18.2129 22.9314C17.2076 22.9314 16.3906 23.4529 16.3906 24.0934Z" fill="#E2DFEA"/>
<path d="M20.3581 23.4668C20.1769 23.6488 20.0704 23.8623 20.0704 24.0933C20.0704 24.7338 21.0757 25.5002 22.0845 25.5002C23.0898 25.5002 23.715 24.7373 23.715 24.0933" stroke="#4C4A45" stroke-width="3" stroke-miterlimit="10" stroke-linecap="round" stroke-linejoin="round"/>
<path d="M16.3906 24.0933C16.3906 24.7338 17.0158 25.5002 18.0211 25.5002C19.0263 25.5002 20.0352 24.7373 20.0352 24.0933C20.0352 23.8623 19.9286 23.6488 19.7475 23.4668" stroke="#4C4A45" stroke-width="3" stroke-miterlimit="10" stroke-linecap="round" stroke-linejoin="round"/>
<g opacity="0.6">
<path d="M27.1966 9.83478C27.1539 9.74378 27.1539 9.63528 27.1504 9.53378C27.1468 9.40079 27.1326 9.26079 27.0722 9.14179C27.0118 9.0228 26.8911 8.9248 26.7561 8.9178C26.5962 8.9143 26.4612 9.0333 26.376 9.16279C26.2694 9.32379 26.2268 9.55128 26.1025 9.69478C26.0314 9.77878 25.9035 9.82428 25.8076 9.77178C25.7579 9.74728 25.7259 9.69828 25.6939 9.65628C25.6087 9.54778 25.5092 9.44629 25.4027 9.35879C25.3458 9.31329 25.2748 9.26779 25.2037 9.28879C25.1504 9.30279 25.1149 9.34829 25.0865 9.39379C25.0084 9.51629 24.9586 9.65278 24.9373 9.79628C24.9195 9.92578 24.9267 10.0588 24.8698 10.1778C24.6389 10.6783 24.0066 9.47429 23.6692 10.3843C23.5697 10.6503 23.6549 10.9618 23.8361 11.1822C24.2269 11.6547 24.6105 11.5777 25.1398 11.4307C25.8929 11.2242 26.5714 10.8393 27.3209 10.6258C27.5127 10.5733 27.7116 10.5313 27.8821 10.4263C28.0526 10.3213 28.1876 10.1358 28.1592 9.93977C28.1308 9.74378 27.8821 9.59678 27.7187 9.70878C27.6122 9.78228 27.566 9.93628 27.4417 9.96777C27.3422 10.0028 27.2392 9.92578 27.1966 9.83478Z" fill="white"/>
</g>
<g opacity="0.6">
<path d="M13.3171 9.83478C13.3598 9.74378 13.3598 9.63528 13.3633 9.53378C13.3669 9.40079 13.3811 9.26079 13.4415 9.14179C13.5019 9.0228 13.6226 8.9248 13.7576 8.9178C13.9175 8.9143 14.0525 9.0333 14.1377 9.16279C14.2443 9.32379 14.2869 9.55128 14.4112 9.69478C14.4823 9.77878 14.6102 9.82428 14.7061 9.77178C14.7558 9.74728 14.7878 9.69828 14.8198 9.65628C14.905 9.54778 15.0045 9.44629 15.111 9.35879C15.1679 9.31329 15.2389 9.26779 15.31 9.28879C15.3633 9.30279 15.3988 9.34829 15.4272 9.39379C15.5053 9.51629 15.5551 9.65278 15.5764 9.79628C15.5942 9.92578 15.587 10.0588 15.6439 10.1778C15.8748 10.6783 16.5071 9.47429 16.8445 10.3843C16.944 10.6503 16.8588 10.9618 16.6776 11.1822C16.2868 11.6547 15.9032 11.5777 15.3739 11.4307C14.6208 11.2242 13.9423 10.8393 13.1928 10.6258C13.001 10.5733 12.8021 10.5313 12.6316 10.4263C12.4611 10.3213 12.3261 10.1358 12.3545 9.93977C12.3829 9.74378 12.6316 9.59678 12.795 9.70878C12.9015 9.78228 12.9477 9.93628 13.072 9.96777C13.1715 10.0028 13.271 9.92578 13.3171 9.83478Z" fill="white"/>
</g>
<path d="M22.8592 23.061C23.1896 22.7425 23.4311 22.3785 23.5341 21.997C24.1629 19.6416 14.7529 19.7956 17.5024 22.8055C18.2199 23.593 19.243 24.405 20.568 24.188C21.4063 24.048 22.2695 23.6245 22.8592 23.061Z" fill="black"/>
<path opacity="0.3" d="M20.2689 22.1159C19.0702 22.1159 18.0985 21.8339 18.0985 21.4859C18.0985 21.138 19.0702 20.856 20.2689 20.856C21.4676 20.856 22.4394 21.138 22.4394 21.4859C22.4394 21.8339 21.4676 22.1159 20.2689 22.1159Z" fill="#B0B0B0"/>
<path d="M26.1913 45.2292C26.4896 45.2292 26.7916 45.1417 27.058 44.9772C27.3173 44.8162 27.4914 44.6167 27.6193 44.4627C27.7365 44.3157 27.8466 44.1617 27.9532 44.0077C28.0491 43.8677 28.1414 43.7348 28.2338 43.6298C28.2764 43.5808 28.4043 43.5178 28.55 43.4478C28.6601 43.3953 28.7702 43.3428 28.8839 43.2798C29.0153 43.2063 29.2107 43.0873 29.3847 42.8948C29.438 42.8353 29.4842 42.7758 29.5268 42.7093C29.7897 42.3033 30.0739 41.4913 29.0046 40.6233C28.9727 40.5988 28.9443 40.5743 28.9194 40.5533C28.8768 40.5148 28.8341 40.4728 28.7951 40.4308C28.7702 40.4028 28.7311 40.3573 28.692 40.3153C28.6707 40.2908 28.6494 40.2593 28.6281 40.2278C28.5144 40.0703 28.3581 39.8533 28.1201 39.6749C27.8608 39.4824 27.5624 39.3809 27.2534 39.3809C27.0118 39.3809 26.7774 39.4404 26.5571 39.5594C26.4896 39.5979 26.4257 39.6364 26.3653 39.6784C26.1522 39.8394 26.0172 40.0213 25.9319 40.1438C25.8609 40.2488 25.797 40.3538 25.7366 40.4588C25.6549 40.5953 25.5838 40.7143 25.5305 40.7528C25.4133 40.8333 25.2748 40.9138 25.1256 41.0013C24.9622 41.0958 24.7988 41.1903 24.6425 41.2953C24.4755 41.4073 24.2624 41.5648 24.0812 41.8028C23.8219 42.1458 23.7118 42.5553 23.7686 42.9543C23.8326 43.3918 24.0954 43.7873 24.4933 44.0357C24.5714 44.0847 24.6496 44.1232 24.7277 44.1617C24.7561 44.2317 24.7881 44.3157 24.8378 44.3997C25.0616 44.8092 25.4417 45.0997 25.8787 45.1942C25.9746 45.2187 26.0811 45.2292 26.1913 45.2292Z" fill="#AFE017"/>
<path d="M27.2459 40.4273C27.1855 40.4273 27.1215 40.4448 27.054 40.4798C27.0327 40.4903 27.015 40.5043 26.9972 40.5183C26.9226 40.5743 26.8658 40.6478 26.8125 40.7248C26.5958 41.0433 26.475 41.3723 26.1447 41.6068C25.8534 41.8133 25.5266 41.9638 25.2317 42.1633C25.1181 42.2368 25.0079 42.3208 24.9262 42.4293C24.8445 42.5378 24.7948 42.6743 24.8126 42.8073C24.8339 42.9508 24.9333 43.0768 25.0577 43.1538C25.0932 43.1783 25.1323 43.1958 25.1713 43.2133C25.2637 43.2553 25.3632 43.2903 25.4484 43.3428C25.4804 43.3638 25.5124 43.3848 25.5408 43.4093C25.5621 43.4408 25.5834 43.4723 25.6012 43.5073C25.6687 43.6368 25.6935 43.7803 25.761 43.9063C25.8321 44.0358 25.9493 44.1407 26.0914 44.1722C26.1198 44.1792 26.1518 44.1827 26.1837 44.1827C26.2867 44.1827 26.3933 44.1478 26.4821 44.0918C26.5958 44.0218 26.6882 43.9203 26.7734 43.8153C26.9972 43.5388 27.1748 43.2308 27.4057 42.9613C27.665 42.6568 28.0096 42.5588 28.3471 42.3733C28.4288 42.3278 28.5105 42.2788 28.5709 42.2088C28.5851 42.1913 28.5993 42.1738 28.6135 42.1563C28.855 41.7818 28.4003 41.5368 28.173 41.3233C28.1162 41.2708 28.0629 41.2148 28.0096 41.1623C27.9563 41.1063 27.9066 41.0468 27.8568 40.9873C27.7432 40.8508 27.6224 40.6373 27.4661 40.5183C27.4057 40.4623 27.3311 40.4273 27.2459 40.4273ZM27.2459 38.3274C27.7894 38.3274 28.3115 38.5024 28.7556 38.8314C29.1286 39.1079 29.3559 39.4264 29.4944 39.6154L29.5264 39.6609C29.5442 39.6819 29.5619 39.6994 29.5797 39.7204C29.5975 39.7379 29.6152 39.7589 29.6365 39.7764L29.6792 39.8114C29.8745 39.9689 30.1978 40.2348 30.4571 40.6583C30.9615 41.4843 30.9473 42.4608 30.4145 43.2763C30.3434 43.3848 30.2653 43.4898 30.1765 43.5843C29.9633 43.8223 29.7111 44.0183 29.3985 44.1897C29.2493 44.2702 29.1144 44.3367 29.0078 44.3892C28.99 44.3962 28.9723 44.4067 28.9545 44.4137C28.9154 44.4697 28.8692 44.5327 28.8231 44.5992C28.7165 44.7532 28.5957 44.9282 28.4465 45.1102C28.2831 45.3132 28.0203 45.6107 27.6224 45.8592C27.1855 46.1322 26.6882 46.2757 26.1873 46.2757C26.0026 46.2757 25.8179 46.2547 25.6367 46.2162C24.9014 46.0552 24.2655 45.5792 23.8961 44.9072C23.2425 44.4907 22.8091 43.8293 22.7025 43.0943C22.6066 42.4223 22.7878 41.7398 23.214 41.1728C23.4947 40.8018 23.8179 40.5638 24.0346 40.4203C24.23 40.2873 24.4183 40.1823 24.5817 40.0878C24.6527 40.0493 24.7202 40.0074 24.7806 39.9724C24.7912 39.9549 24.8019 39.9374 24.809 39.9234C24.8694 39.8219 24.944 39.6959 25.0399 39.5559C25.2388 39.2619 25.4591 39.0274 25.7113 38.8384C25.8178 38.7579 25.9315 38.6879 26.0452 38.6284C26.4253 38.4324 26.8302 38.3274 27.2459 38.3274Z" fill="#577708"/>
<g opacity="0.17">
<path d="M26.7808 43.8116C26.6955 43.9166 26.6032 44.0181 26.4895 44.0881C26.3758 44.1581 26.2337 44.2001 26.0988 44.1686C25.9567 44.1371 25.8359 44.0286 25.7684 43.9026C25.7009 43.7767 25.6725 43.6297 25.6085 43.5037C25.5908 43.4687 25.5695 43.4372 25.5482 43.4057C25.5197 43.3812 25.4878 43.3602 25.4558 43.3392C25.367 43.2867 25.2711 43.2517 25.1787 43.2097C25.2498 43.1747 25.3279 43.1572 25.4061 43.1467C25.5588 43.1292 25.7329 43.1642 25.8288 43.2797C25.9176 43.3882 25.9389 43.5597 26.0668 43.6227C26.2053 43.6892 26.3652 43.5807 26.4717 43.4687C26.7701 43.1572 26.9904 42.7827 27.2817 42.4677C27.4522 42.2857 27.6404 42.1212 27.85 41.9847C27.9992 41.8867 28.1697 41.7782 28.191 41.6032C28.2124 41.4072 28.0276 41.2567 27.8855 41.1202C27.7221 40.9627 27.5907 40.7702 27.5019 40.5637C27.4948 40.5462 27.4877 40.5287 27.4806 40.5112C27.6369 40.6267 27.7577 40.8402 27.8713 40.9802C27.9211 41.0397 27.9708 41.0957 28.0241 41.1552C28.0774 41.2112 28.1307 41.2637 28.1875 41.3162C28.4148 41.5297 28.8731 41.7747 28.628 42.1492C28.6138 42.1702 28.6031 42.1877 28.5853 42.2017C28.525 42.2682 28.4432 42.3207 28.3615 42.3662C28.0205 42.5552 27.6795 42.6497 27.4202 42.9542C27.1857 43.2272 27.0046 43.5352 26.7808 43.8116Z" fill="#7D9067"/>
</g>
<g opacity="0.3">
<path d="M27.4203 40.7633C27.3955 40.7248 27.3671 40.6863 27.328 40.6618C27.0474 40.4938 26.8804 40.9628 26.7845 41.1203C26.614 41.3898 26.3866 41.6243 26.1202 41.8028C26.0918 41.8238 26.0598 41.8448 26.0385 41.8728C26.0207 41.9043 26.0136 41.9463 26.0385 41.9708C26.0598 41.9918 26.0918 41.9953 26.1202 41.9953C26.2232 41.9918 26.3191 41.9533 26.4115 41.9078C26.7561 41.7398 27.0722 41.5088 27.3386 41.2323C27.3919 41.1763 27.4452 41.1168 27.4736 41.0433C27.5127 40.9523 27.4772 40.8508 27.4203 40.7633Z" fill="#DFEFCB"/>
</g>
<g opacity="0.3">
<path d="M25.8463 42.1598C25.7646 42.2263 25.6686 42.2683 25.5798 42.3243C25.4733 42.3908 25.3774 42.4748 25.2957 42.5693C25.2708 42.6008 25.2282 42.6358 25.1926 42.6148C25.182 42.6078 25.1749 42.5973 25.1713 42.5833C25.15 42.5238 25.182 42.4573 25.2211 42.4013C25.3205 42.2613 25.4555 42.1493 25.6118 42.0759C25.6758 42.0444 25.7681 41.9989 25.8427 42.0094C25.9422 42.0234 25.9066 42.1109 25.8463 42.1598Z" fill="#DFEFCB"/>
</g>
<path d="M29.1708 41.6349C29.3022 41.6349 29.4408 41.5929 29.5651 41.5159C29.7072 41.4284 29.8173 41.3059 29.9025 41.1974C30.0091 41.068 30.1015 40.9315 30.1974 40.795C30.3075 40.6375 30.4105 40.487 30.5313 40.347C30.6983 40.1545 30.9007 40.0565 31.1387 39.941C31.2346 39.8955 31.3306 39.85 31.4265 39.7975C31.5082 39.752 31.6112 39.689 31.6964 39.598C31.7178 39.5735 31.7355 39.549 31.7533 39.5245C32.0375 39.087 31.6503 38.7685 31.4158 38.5795C31.3696 38.541 31.3235 38.5025 31.2844 38.4675C31.2311 38.4185 31.1778 38.366 31.1281 38.31C31.0819 38.2575 31.0322 38.2015 30.986 38.1455C30.9505 38.1035 30.9185 38.058 30.883 38.009C30.7942 37.8865 30.6947 37.7465 30.5668 37.6485C30.4603 37.5715 30.3501 37.5295 30.2329 37.5295C30.1406 37.5295 30.0482 37.554 29.9558 37.603C29.9274 37.617 29.899 37.6345 29.8741 37.6555C29.7747 37.729 29.7036 37.827 29.6503 37.904C29.59 37.995 29.5367 38.086 29.4834 38.1735C29.3519 38.3975 29.2347 38.59 29.0251 38.7405C28.8759 38.8455 28.7161 38.9365 28.5491 39.0345C28.4035 39.1185 28.2579 39.2025 28.1158 39.297C28.0021 39.374 27.8707 39.4685 27.7676 39.605C27.6504 39.7625 27.5971 39.941 27.622 40.109C27.6469 40.2945 27.7676 40.466 27.9488 40.578C27.9914 40.606 28.0376 40.627 28.0838 40.6515L28.1726 40.69C28.2294 40.7145 28.2863 40.739 28.3396 40.7705C28.3573 40.781 28.3751 40.795 28.3928 40.809C28.4035 40.8265 28.4177 40.844 28.4248 40.865C28.4532 40.921 28.471 40.977 28.4923 41.0365C28.5207 41.117 28.5491 41.1939 28.5882 41.2709C28.6877 41.4564 28.8546 41.5859 29.0393 41.6244C29.082 41.6314 29.1246 41.6349 29.1708 41.6349Z" fill="#AFE017"/>
<path d="M30.2258 37.7081C30.1654 37.7081 30.1015 37.7256 30.034 37.7606C30.0127 37.7711 29.9949 37.7851 29.9771 37.7991C29.9025 37.8551 29.8457 37.9286 29.7924 38.0056C29.5757 38.3241 29.455 38.6531 29.1246 38.8876C28.8333 39.0941 28.5065 39.2446 28.2117 39.4441C28.098 39.5176 27.9879 39.6016 27.9062 39.7101C27.8245 39.8186 27.7747 39.9551 27.7925 40.0881C27.8138 40.2316 27.9133 40.3576 28.0376 40.4346C28.0731 40.4591 28.1122 40.4766 28.1513 40.4941C28.2436 40.5361 28.3431 40.5711 28.4284 40.6236C28.4603 40.6446 28.4923 40.6656 28.5207 40.6901C28.542 40.7216 28.5633 40.7531 28.5811 40.7881C28.6486 40.9176 28.6735 41.0611 28.741 41.1871C28.812 41.3166 28.9292 41.4216 29.0713 41.4531C29.0997 41.4601 29.1317 41.4636 29.1637 41.4636C29.2667 41.4636 29.3733 41.4286 29.4621 41.3726C29.5757 41.3026 29.6681 41.2011 29.7534 41.0961C29.9771 40.8196 30.1548 40.5116 30.3857 40.2421C30.645 39.9376 30.9895 39.8396 31.327 39.6541C31.4087 39.6086 31.4904 39.5596 31.5508 39.4896C31.565 39.4721 31.5792 39.4546 31.5934 39.4371C31.835 39.0626 31.3803 38.8176 31.1529 38.6041C31.0961 38.5516 31.0428 38.4956 30.9895 38.4431C30.9363 38.3871 30.8865 38.3276 30.8368 38.2681C30.7231 38.1316 30.6023 37.9181 30.446 37.7991C30.3857 37.7396 30.3111 37.7081 30.2258 37.7081ZM30.2258 37.3582C30.3821 37.3582 30.5277 37.4107 30.6663 37.5122C30.819 37.6241 30.9256 37.7781 31.0215 37.9111C31.0535 37.9566 31.0855 38.0021 31.1174 38.0371C31.1636 38.0931 31.2098 38.1456 31.256 38.1981C31.2986 38.2436 31.3519 38.2926 31.4016 38.3416C31.4371 38.3766 31.4798 38.4081 31.5224 38.4466C31.7462 38.6286 32.2648 39.0521 31.8954 39.6191C31.8741 39.6541 31.8492 39.6856 31.8208 39.7171C31.7213 39.8291 31.6005 39.9026 31.5046 39.9551C31.4052 40.0111 31.3057 40.0566 31.2098 40.1056C30.9824 40.2141 30.8013 40.3016 30.6592 40.4661C30.5455 40.5991 30.4425 40.7461 30.3359 40.9001C30.24 41.0366 30.1405 41.1766 30.0304 41.3131C29.9345 41.4321 29.8137 41.5651 29.6503 41.67C29.4976 41.7645 29.3271 41.817 29.1637 41.817C29.1068 41.817 29.05 41.81 28.9967 41.7995C28.7623 41.747 28.5527 41.5861 28.4284 41.3551C28.3786 41.2641 28.3467 41.1731 28.3218 41.0961C28.304 41.0401 28.2863 40.9876 28.265 40.9491C28.2614 40.9456 28.2614 40.9386 28.2578 40.9351C28.2543 40.9316 28.2507 40.9281 28.2436 40.9281C28.2046 40.9036 28.1548 40.8826 28.098 40.8616C28.066 40.8476 28.0305 40.8336 27.9985 40.8196C27.9417 40.7951 27.8884 40.7671 27.8422 40.7356C27.6184 40.5956 27.4692 40.3786 27.4373 40.1441C27.4053 39.9306 27.4692 39.7031 27.6149 39.5106C27.7321 39.3566 27.8778 39.2481 28.0056 39.1641C28.1513 39.0661 28.304 38.9786 28.4497 38.8981C28.6131 38.8036 28.7694 38.7161 28.9115 38.6146C29.0891 38.4886 29.1885 38.3171 29.3164 38.1036C29.3697 38.0126 29.4265 37.9181 29.4905 37.8236C29.5509 37.7361 29.6361 37.6206 29.7569 37.5332C29.7889 37.5087 29.8244 37.4877 29.8599 37.4667C29.9842 37.3897 30.105 37.3582 30.2258 37.3582Z" fill="#577708"/>
<g opacity="0.17">
<path d="M29.7605 41.0927C29.6752 41.1977 29.5828 41.2991 29.4692 41.3691C29.3555 41.4391 29.2134 41.4811 29.0784 41.4496C28.9363 41.4181 28.8155 41.3096 28.7481 41.1837C28.6806 41.0577 28.6521 40.9107 28.5882 40.7847C28.5704 40.7497 28.5491 40.7182 28.5278 40.6867C28.4994 40.6622 28.4674 40.6412 28.4355 40.6202C28.3467 40.5677 28.2507 40.5327 28.1584 40.4907C28.2294 40.4557 28.3076 40.4382 28.3857 40.4277C28.5385 40.4102 28.7125 40.4452 28.8084 40.5607C28.8973 40.6692 28.9186 40.8407 29.0464 40.9037C29.185 40.9702 29.3448 40.8617 29.4514 40.7497C29.7498 40.4382 29.97 40.0637 30.2613 39.7487C30.4318 39.5667 30.6201 39.4022 30.8297 39.2657C30.9789 39.1677 31.1494 39.0592 31.1707 38.8842C31.192 38.6882 31.0073 38.5377 30.8652 38.4012C30.7018 38.2437 30.5704 38.0512 30.4816 37.8447C30.4745 37.8272 30.4674 37.8097 30.4602 37.7922C30.6165 37.9077 30.7373 38.1212 30.851 38.2612C30.9007 38.3207 30.9505 38.3767 31.0037 38.4362C31.057 38.4922 31.1103 38.5447 31.1671 38.5972C31.3945 38.8107 31.8527 39.0557 31.6076 39.4302C31.5934 39.4512 31.5828 39.4687 31.565 39.4827C31.5046 39.5492 31.4229 39.6017 31.3412 39.6472C31.0002 39.8362 30.6592 39.9307 30.3999 40.2352C30.1619 40.5082 29.9842 40.8162 29.7605 41.0927Z" fill="#7D9067"/>
</g>
<g opacity="0.3">
<path d="M30.3999 38.044C30.375 38.0055 30.3466 37.967 30.3075 37.9425C30.0269 37.7745 29.8599 38.2435 29.764 38.401C29.5935 38.6705 29.3662 38.905 29.0997 39.0835C29.0713 39.1045 29.0393 39.1255 29.018 39.1535C29.0003 39.185 28.9932 39.227 29.018 39.2515C29.0393 39.2725 29.0713 39.276 29.0997 39.276C29.2027 39.2725 29.2987 39.234 29.391 39.1885C29.7356 39.0205 30.0517 38.7895 30.3182 38.513C30.3714 38.457 30.4247 38.3975 30.4531 38.324C30.4922 38.233 30.4567 38.1315 30.3999 38.044Z" fill="#DFEFCB"/>
</g>
<g opacity="0.3">
<path d="M28.8262 39.4406C28.7445 39.5071 28.6486 39.5491 28.5598 39.6051C28.4532 39.6716 28.3573 39.7556 28.2756 39.8501C28.2507 39.8816 28.2081 39.9166 28.1726 39.8956C28.1619 39.8886 28.1548 39.8781 28.1513 39.8641C28.13 39.8046 28.1619 39.7381 28.201 39.6821C28.3005 39.5421 28.4355 39.4301 28.5918 39.3566C28.6557 39.3251 28.7481 39.2796 28.8227 39.2901C28.9221 39.3006 28.8831 39.3916 28.8262 39.4406Z" fill="#DFEFCB"/>
</g>
<path d="M32.1473 38.9156C32.2788 38.9156 32.4137 38.8736 32.5416 38.7966C32.6837 38.7091 32.7938 38.5866 32.8791 38.4781C32.9857 38.3486 33.0816 38.2121 33.1775 38.0721C33.2876 37.9146 33.3906 37.7641 33.5114 37.6242C33.6748 37.4317 33.8808 37.3337 34.1188 37.2182C34.2147 37.1727 34.3107 37.1272 34.4066 37.0747C34.4883 37.0292 34.5948 36.9662 34.6765 36.8717C34.6979 36.8472 34.7156 36.8227 34.7334 36.7947C35.0176 36.3572 34.6268 36.0422 34.3959 35.8532C34.3497 35.8147 34.3036 35.7762 34.2645 35.7412C34.2112 35.6922 34.1579 35.6397 34.1082 35.5837C34.0584 35.5312 34.0123 35.4752 33.9625 35.4192C33.9306 35.3807 33.895 35.3317 33.8595 35.2827C33.7707 35.1602 33.6712 35.0202 33.5398 34.9222C33.4332 34.8452 33.3231 34.8032 33.2059 34.8032C33.1135 34.8032 33.0212 34.8277 32.9288 34.8767C32.9004 34.8907 32.8755 34.9082 32.8471 34.9292C32.7477 35.0027 32.6731 35.1007 32.6233 35.1777C32.5629 35.2687 32.5097 35.3597 32.4564 35.4472C32.3249 35.6712 32.2077 35.8637 32.0017 36.0142C31.8525 36.1192 31.6926 36.2102 31.5257 36.3082C31.38 36.3922 31.2344 36.4762 31.0923 36.5707C30.9786 36.6477 30.8472 36.7422 30.7442 36.8787C30.627 37.0362 30.5737 37.2147 30.5985 37.3827C30.6234 37.5682 30.7442 37.7397 30.9253 37.8516C30.968 37.8796 31.0142 37.9006 31.0603 37.9216L31.1527 37.9636C31.2095 37.9881 31.2664 38.0126 31.3197 38.0441C31.3374 38.0546 31.3552 38.0686 31.3729 38.0826C31.3871 38.1001 31.3978 38.1211 31.4085 38.1386C31.4369 38.1911 31.4546 38.2506 31.4759 38.3066C31.5044 38.3871 31.5328 38.4676 31.5719 38.5411C31.6713 38.7266 31.8383 38.8561 32.023 38.8946C32.0621 38.9121 32.1047 38.9156 32.1473 38.9156Z" fill="#AFE017"/>
<path d="M33.2063 34.9887C33.1459 34.9887 33.0819 35.0062 33.0144 35.0412C32.9931 35.0517 32.9754 35.0657 32.9576 35.0797C32.883 35.1357 32.8262 35.2092 32.7729 35.2862C32.5562 35.6046 32.4354 35.9336 32.1051 36.1681C31.8138 36.3746 31.487 36.5251 31.1921 36.7246C31.0785 36.7981 30.9683 36.8821 30.8866 36.9906C30.8049 37.0991 30.7552 37.2356 30.773 37.3686C30.7943 37.5121 30.8937 37.6381 31.0181 37.7151C31.0536 37.7396 31.0927 37.7571 31.1318 37.7746C31.2241 37.8166 31.3236 37.8516 31.4088 37.9041C31.4408 37.9251 31.4728 37.9461 31.5012 37.9706C31.5225 38.0021 31.5438 38.0336 31.5616 38.0686C31.6291 38.1981 31.6539 38.3416 31.7214 38.4676C31.7925 38.5971 31.9097 38.7021 32.0518 38.7336C32.0802 38.7406 32.1122 38.7441 32.1441 38.7441C32.2472 38.7441 32.3537 38.7091 32.4425 38.6531C32.5562 38.5831 32.6486 38.4816 32.7338 38.3766C32.9576 38.1001 33.1352 37.7921 33.3661 37.5226C33.6254 37.2181 33.97 37.1201 34.3075 36.9346C34.3892 36.8891 34.4709 36.8401 34.5313 36.7701C34.5455 36.7526 34.5597 36.7351 34.5739 36.7176C34.8154 36.3431 34.3608 36.0981 34.1334 35.8846C34.0766 35.8321 34.0233 35.7761 33.97 35.7236C33.9167 35.6676 33.867 35.6081 33.8173 35.5486C33.7036 35.4122 33.5828 35.1987 33.4265 35.0797C33.3661 35.0202 33.2915 34.9887 33.2063 34.9887ZM33.2063 34.6387C33.3626 34.6387 33.5082 34.6912 33.6468 34.7927C33.7995 34.9047 33.9061 35.0587 34.002 35.1917C34.0339 35.2372 34.0659 35.2827 34.0979 35.3177C34.1441 35.3737 34.1902 35.4262 34.2364 35.4787C34.2791 35.5242 34.3323 35.5731 34.3821 35.6221C34.4176 35.6571 34.4602 35.6886 34.5028 35.7271C34.7266 35.9091 35.2453 36.3326 34.8758 36.8996C34.8545 36.9346 34.8297 36.9661 34.8012 36.9976C34.7018 37.1096 34.581 37.1831 34.4851 37.2356C34.3856 37.2916 34.2862 37.3371 34.1902 37.3861C33.9629 37.4946 33.7817 37.5821 33.6396 37.7466C33.526 37.8796 33.423 38.0266 33.3164 38.1806C33.2205 38.3171 33.121 38.4571 33.0109 38.5936C32.915 38.7126 32.7942 38.8456 32.6308 38.9506C32.4781 39.0451 32.3075 39.0976 32.1441 39.0976C32.0873 39.0976 32.0305 39.0906 31.9772 39.0801C31.7427 39.0276 31.5332 38.8666 31.4088 38.6356C31.3591 38.5446 31.3271 38.4536 31.3023 38.3766C31.2845 38.3206 31.2667 38.2681 31.2454 38.2296C31.2419 38.2261 31.2419 38.2191 31.2383 38.2156C31.2348 38.2121 31.2312 38.2086 31.2241 38.2086C31.185 38.1841 31.1317 38.1631 31.0785 38.1421C31.0465 38.1281 31.011 38.1141 30.979 38.1001C30.9222 38.0756 30.8689 38.0476 30.8227 38.0161C30.5989 37.8761 30.4497 37.6591 30.4177 37.4246C30.3858 37.2111 30.4497 36.9836 30.5954 36.7911C30.7126 36.6371 30.8582 36.5286 30.9861 36.4446C31.1317 36.3466 31.2845 36.2591 31.4301 36.1786C31.5935 36.0841 31.7498 35.9966 31.8919 35.8951C32.0695 35.7691 32.1726 35.5976 32.2969 35.3842C32.3502 35.2932 32.407 35.1987 32.471 35.1042C32.5313 35.0167 32.6166 34.9012 32.7374 34.8137C32.7693 34.7892 32.8049 34.7682 32.8404 34.7472C32.9647 34.6702 33.0855 34.6387 33.2063 34.6387Z" fill="#577708"/>
<g opacity="0.17">
<path d="M32.7409 38.3732C32.6557 38.4782 32.5633 38.5797 32.4496 38.6497C32.336 38.7197 32.1939 38.7617 32.0589 38.7302C31.9168 38.6987 31.796 38.5902 31.7285 38.4642C31.661 38.3382 31.6326 38.1912 31.5687 38.0652C31.5509 38.0302 31.5296 37.9987 31.5083 37.9672C31.4799 37.9427 31.4479 37.9217 31.4159 37.9007C31.3271 37.8482 31.2312 37.8132 31.1388 37.7712C31.2099 37.7362 31.288 37.7187 31.3662 37.7082C31.5189 37.6907 31.693 37.7257 31.7889 37.8412C31.8777 37.9497 31.899 38.1212 32.0269 38.1842C32.1655 38.2507 32.3253 38.1422 32.4319 38.0302C32.7303 37.7187 32.9505 37.3442 33.2418 37.0292C33.4123 36.8472 33.6006 36.6827 33.8101 36.5462C33.9593 36.4482 34.1299 36.3397 34.1512 36.1647C34.1725 35.9687 33.9878 35.8182 33.8457 35.6817C33.6823 35.5242 33.5508 35.3317 33.462 35.1253C33.4549 35.1078 33.4478 35.0903 33.4407 35.0728C33.597 35.1883 33.7178 35.4017 33.8315 35.5417C33.8812 35.6012 33.9309 35.6572 33.9842 35.7167C34.0375 35.7727 34.0908 35.8252 34.1476 35.8777C34.375 36.0912 34.8332 36.3362 34.5881 36.7107C34.5739 36.7317 34.5632 36.7492 34.5455 36.7632C34.4851 36.8297 34.4034 36.8822 34.3217 36.9277C33.9807 37.1167 33.6396 37.2112 33.3803 37.5157C33.1423 37.7887 32.9612 38.0967 32.7409 38.3732Z" fill="#7D9067"/>
</g>
<g opacity="0.3">
<path d="M33.3768 35.3246C33.3519 35.2861 33.3235 35.2476 33.2844 35.2231C33.0038 35.0551 32.8368 35.5241 32.7409 35.6816C32.5704 35.951 32.3431 36.1855 32.0767 36.364C32.0482 36.385 32.0163 36.406 31.995 36.434C31.9736 36.462 31.9701 36.5075 31.995 36.532C32.0163 36.553 32.0482 36.5565 32.0767 36.5565C32.1797 36.553 32.2756 36.5145 32.3679 36.469C32.7125 36.301 33.0287 36.07 33.2951 35.7935C33.3484 35.7375 33.4016 35.6781 33.4301 35.6046C33.4691 35.5136 33.4372 35.4121 33.3768 35.3246Z" fill="#DFEFCB"/>
</g>
<g opacity="0.3">
<path d="M31.8036 36.7211C31.7218 36.7876 31.6259 36.8296 31.5371 36.8856C31.4306 36.9521 31.3347 37.0361 31.2529 37.1306C31.2281 37.1621 31.1855 37.1971 31.1499 37.1761C31.1393 37.1691 31.1322 37.1586 31.1286 37.1446C31.1073 37.0851 31.1393 37.0186 31.1784 36.9626C31.2778 36.8226 31.4128 36.7106 31.5691 36.6371C31.633 36.6056 31.7254 36.5601 31.8 36.5706C31.8995 36.5811 31.8639 36.6721 31.8036 36.7211Z" fill="#DFEFCB"/>
</g>
<path d="M35.1283 36.196C35.2598 36.196 35.3983 36.154 35.5226 36.077C35.6647 35.9895 35.7748 35.867 35.8601 35.7585C35.9667 35.629 36.0626 35.4925 36.1585 35.3525C36.2686 35.195 36.3716 35.0445 36.4924 34.908C36.6594 34.7155 36.8618 34.6175 37.0998 34.502C37.1958 34.4565 37.2917 34.411 37.3876 34.3585C37.4693 34.313 37.5723 34.25 37.6575 34.159C37.6789 34.1345 37.6966 34.11 37.7144 34.0855C37.9986 33.648 37.6114 33.3295 37.3769 33.1406C37.3307 33.1021 37.2846 33.0636 37.2455 33.0286C37.1922 32.9796 37.1389 32.9271 37.0892 32.8711C37.043 32.8186 36.9933 32.7626 36.9471 32.7066C36.9116 32.6646 36.8796 32.6191 36.8441 32.5701C36.7553 32.4476 36.6558 32.3076 36.5279 32.2096C36.4214 32.1326 36.3112 32.0906 36.194 32.0906C36.1017 32.0906 36.0093 32.1151 35.9169 32.1641C35.8885 32.1781 35.8601 32.1956 35.8352 32.2166C35.7358 32.2901 35.6647 32.3881 35.6114 32.4651C35.5511 32.5561 35.4978 32.6471 35.4445 32.7346C35.3131 32.9586 35.1958 33.1545 34.9862 33.3015C34.8371 33.4065 34.6772 33.4975 34.5102 33.5955C34.3646 33.6795 34.219 33.7635 34.0769 33.858C33.9632 33.935 33.8318 34.0295 33.7287 34.166C33.6115 34.3235 33.5582 34.502 33.5831 34.67C33.608 34.8555 33.7287 35.027 33.9099 35.139C33.9525 35.167 33.9987 35.188 34.0449 35.209L34.1373 35.2475C34.1941 35.272 34.2509 35.2965 34.3042 35.328C34.322 35.3385 34.3397 35.3525 34.3575 35.3665C34.3682 35.384 34.3824 35.4015 34.3895 35.4225C34.4179 35.4785 34.4356 35.5345 34.457 35.594C34.4854 35.6745 34.5138 35.7515 34.5529 35.8285C34.6523 36.014 34.8193 36.1435 35.004 36.182C35.0395 36.1925 35.0857 36.196 35.1283 36.196Z" fill="#AFE017"/>
<path d="M36.1869 32.2692C36.1265 32.2692 36.0626 32.2867 35.9951 32.3217C35.9738 32.3322 35.956 32.3462 35.9382 32.3602C35.8637 32.4162 35.8068 32.4897 35.7535 32.5667C35.5368 32.8852 35.4161 33.2142 35.0857 33.4487C34.7944 33.6551 34.4676 33.8056 34.1728 34.0051C34.0591 34.0786 33.949 34.1626 33.8673 34.2711C33.7856 34.3796 33.7358 34.5161 33.7536 34.6491C33.7749 34.7926 33.8744 34.9186 33.9987 34.9956C34.0342 35.0201 34.0733 35.0376 34.1124 35.0551C34.2047 35.0971 34.3042 35.1321 34.3895 35.1846C34.4214 35.2056 34.4534 35.2266 34.4818 35.2511C34.5031 35.2826 34.5244 35.3141 34.5422 35.3491C34.6097 35.4786 34.6346 35.6221 34.7021 35.7481C34.7731 35.8776 34.8903 35.9826 35.0324 36.0141C35.0608 36.0211 35.0928 36.0246 35.1248 36.0246C35.2278 36.0246 35.3344 35.9896 35.4232 35.9336C35.5368 35.8636 35.6292 35.7621 35.7145 35.6571C35.9382 35.3806 36.1159 35.0726 36.3468 34.8031C36.6061 34.4986 36.9506 34.4006 37.2881 34.2151C37.3698 34.1696 37.4515 34.1206 37.5119 34.0506C37.5261 34.0331 37.5403 34.0156 37.5545 33.9981C37.7961 33.6236 37.3414 33.3787 37.114 33.1652C37.0572 33.1127 37.0039 33.0567 36.9506 33.0042C36.8974 32.9482 36.8476 32.8887 36.7979 32.8292C36.6842 32.6927 36.5634 32.4792 36.4071 32.3602C36.3432 32.3007 36.2686 32.2692 36.1869 32.2692ZM36.1869 31.9192C36.3432 31.9192 36.4889 31.9717 36.6274 32.0732C36.7801 32.1852 36.8867 32.3392 36.9826 32.4722C37.0146 32.5177 37.0466 32.5632 37.0785 32.5982C37.1247 32.6542 37.1709 32.7067 37.2171 32.7592C37.2597 32.8047 37.313 32.8537 37.3627 32.9027C37.3982 32.9377 37.4409 32.9692 37.4835 33.0077C37.7073 33.1897 38.2259 33.6132 37.8565 34.1801C37.8352 34.2151 37.8103 34.2466 37.7819 34.2781C37.6824 34.3901 37.5616 34.4636 37.4657 34.5161C37.3663 34.5721 37.2668 34.6176 37.1709 34.6666C36.9435 34.7751 36.7624 34.8626 36.6203 35.0271C36.5066 35.1601 36.4036 35.3071 36.297 35.4611C36.2011 35.5976 36.1017 35.7376 35.9915 35.8741C35.8956 35.9931 35.7748 36.1261 35.6114 36.2311C35.4587 36.3256 35.2882 36.3781 35.1248 36.3781C35.0679 36.3781 35.0111 36.3711 34.9578 36.3606C34.7234 36.3081 34.5138 36.1471 34.3895 35.9161C34.3397 35.8251 34.3078 35.7341 34.2829 35.6571C34.2651 35.6011 34.2474 35.5486 34.2261 35.5101C34.2225 35.5066 34.2225 35.4996 34.219 35.4961C34.2154 35.4926 34.2118 35.4891 34.2047 35.4891C34.1657 35.4646 34.1159 35.4436 34.0591 35.4226C34.0271 35.4086 33.9916 35.3946 33.9596 35.3806C33.9028 35.3561 33.8495 35.3281 33.8033 35.2966C33.5795 35.1566 33.4304 34.9396 33.3984 34.7051C33.3664 34.4916 33.4304 34.2641 33.576 34.0716C33.6932 33.9176 33.8389 33.8091 33.9667 33.7251C34.1124 33.6271 34.2651 33.5397 34.4108 33.4592C34.5742 33.3647 34.7305 33.2772 34.8726 33.1757C35.0502 33.0497 35.1496 32.8782 35.2775 32.6647C35.3308 32.5737 35.3876 32.4792 35.4516 32.3847C35.512 32.2972 35.5972 32.1817 35.718 32.0942C35.75 32.0697 35.7855 32.0487 35.821 32.0277C35.9418 31.9507 36.0661 31.9192 36.1869 31.9192Z" fill="#577708"/>
<g opacity="0.17">
<path d="M35.7176 35.65C35.6324 35.755 35.54 35.8565 35.4263 35.9265C35.3127 35.9965 35.1706 36.0385 35.0356 36.007C34.8935 35.9755 34.7727 35.867 34.7052 35.741C34.6377 35.615 34.6093 35.468 34.5454 35.342C34.5276 35.307 34.5063 35.2755 34.485 35.244C34.4566 35.2195 34.4246 35.1985 34.3926 35.1775C34.3038 35.125 34.2079 35.09 34.1155 35.048C34.1866 35.013 34.2647 34.9955 34.3429 34.985C34.4956 34.9675 34.6697 35.0025 34.7656 35.118C34.8544 35.2265 34.8757 35.398 35.0036 35.461C35.1422 35.5275 35.302 35.419 35.4086 35.307C35.707 34.9955 35.9272 34.6211 36.2185 34.3061C36.389 34.1241 36.5773 33.9596 36.7868 33.8231C36.936 33.7251 37.1066 33.6166 37.1279 33.4416C37.1492 33.2456 36.9645 33.0951 36.8224 32.9586C36.659 32.8011 36.5275 32.6086 36.4387 32.4021C36.4316 32.3846 36.4245 32.3671 36.4174 32.3496C36.5737 32.4651 36.6945 32.6786 36.8082 32.8186C36.8579 32.8781 36.9076 32.9341 36.9609 32.9936C37.0142 33.0496 37.0675 33.1021 37.1243 33.1546C37.3517 33.3681 37.8099 33.6131 37.5648 33.9876C37.5506 34.0086 37.5399 34.0261 37.5222 34.0401C37.4618 34.1066 37.3801 34.1591 37.2984 34.2046C36.9574 34.3936 36.6163 34.4881 36.357 34.7926C36.1226 35.0655 35.9414 35.377 35.7176 35.65Z" fill="#7D9067"/>
</g>
<g opacity="0.3">
<path d="M36.3572 32.6051C36.3323 32.5666 36.3039 32.5281 36.2648 32.5036C35.9842 32.3356 35.8172 32.8046 35.7213 32.9621C35.5508 33.2316 35.3235 33.4661 35.057 33.6446C35.0286 33.6656 34.9967 33.6866 34.9753 33.7146C34.9576 33.7461 34.9505 33.788 34.9753 33.8125C34.9967 33.8335 35.0286 33.837 35.057 33.837C35.1601 33.8335 35.256 33.795 35.3483 33.7495C35.6929 33.5816 36.009 33.3506 36.2755 33.0741C36.3287 33.0181 36.382 32.9586 36.4105 32.8851C36.4495 32.7941 36.414 32.6926 36.3572 32.6051Z" fill="#DFEFCB"/>
</g>
<g opacity="0.3">
<path d="M34.7842 33.9982C34.7025 34.0647 34.6066 34.1067 34.5178 34.1627C34.4112 34.2292 34.3153 34.3132 34.2336 34.4077C34.2087 34.4392 34.1661 34.4742 34.1306 34.4532C34.1199 34.4462 34.1128 34.4357 34.1093 34.4217C34.0879 34.3622 34.1199 34.2957 34.159 34.2397C34.2585 34.0997 34.3934 33.9877 34.5497 33.9142C34.6137 33.8827 34.706 33.8372 34.7806 33.8477C34.8801 33.8617 34.8446 33.9527 34.7842 33.9982Z" fill="#DFEFCB"/>
</g>
<path d="M33.0747 32.822C33.643 32.822 33.9201 31.9716 33.9912 31.4711L34.7229 26.3787C34.73 26.3402 34.7442 26.2737 34.762 26.1862C34.8792 25.6227 34.9751 25.0977 34.8366 24.8492C34.7798 24.7477 34.6803 24.6882 34.5666 24.6882C34.3286 24.6917 34.183 24.9612 34.0835 25.1397L34.0515 25.1992C33.302 26.4242 32.8509 27.9537 32.453 29.3046L32.3145 29.7701C32.2754 29.8996 32.2363 30.0291 32.2079 30.1621C32.0445 30.9111 31.9237 31.8526 32.4566 32.472C32.6591 32.703 32.8651 32.822 33.0747 32.822Z" fill="#AFE017"/>
<path d="M34.5666 24.8598C34.5631 24.8598 34.5631 24.8598 34.5666 24.8598C34.4103 24.8633 34.2647 25.1853 34.2043 25.2833C33.4015 26.6028 32.9503 28.2548 32.5134 29.7212C32.4672 29.8787 32.4175 30.0327 32.382 30.1937C32.2328 30.8657 32.0978 31.7792 32.5916 32.3532C32.7727 32.5632 32.9326 32.6471 33.0782 32.6471C33.501 32.6471 33.7532 31.9017 33.8171 31.4467C34.0622 29.7492 34.3038 28.0518 34.5489 26.3543C34.5773 26.1548 34.833 25.2028 34.6803 24.9333C34.6554 24.8843 34.6164 24.8598 34.5666 24.8598ZM34.5666 24.5098C34.7442 24.5098 34.9041 24.6043 34.9929 24.7618C35.1456 25.0383 35.0924 25.4863 34.9361 26.2178C34.9183 26.2983 34.9041 26.3613 34.9005 26.3998L34.5347 28.9477L34.1688 31.4957C34.1475 31.6497 33.9272 32.9971 33.0747 32.9971C32.8118 32.9971 32.5596 32.8571 32.318 32.5806C31.7319 31.9017 31.8563 30.9112 32.0303 30.1202C32.0623 29.9802 32.1014 29.8437 32.1404 29.7142L32.1689 29.6232L32.279 29.2487C32.6804 27.8908 33.1351 26.3473 33.8953 25.1013C33.9024 25.0873 33.913 25.0698 33.9237 25.0488C34.0338 24.8493 34.2185 24.5133 34.5524 24.5063C34.5595 24.5098 34.5631 24.5098 34.5666 24.5098Z" fill="#577708"/>
<path opacity="0.25" d="M34.119 26.6903C34.2221 26.2948 34.3215 25.8993 34.4139 25.5003C34.4778 25.2273 34.5347 24.9508 34.5879 24.6743C34.421 24.7548 34.3002 24.9018 34.1972 25.0523C33.9983 25.3428 33.8455 25.6648 33.7034 25.9868C33.1137 27.3098 32.6555 28.6887 32.3358 30.0957C32.2399 30.5122 32.1831 30.9147 32.2399 31.3382C32.2967 31.7511 32.2932 32.1291 32.588 32.4721C32.6804 32.5806 32.8509 32.6611 32.9965 32.6681C33.0995 32.6751 33.2132 32.6226 33.2452 32.5281C33.2629 32.4791 33.2523 32.4231 33.2416 32.3706C33.1919 32.1361 33.0711 31.9191 33.0107 31.6881C32.8793 31.2052 33.0498 30.6802 33.167 30.2112C33.2985 29.6862 33.4406 29.1647 33.5862 28.6397C33.7638 27.9922 33.9485 27.3413 34.119 26.6903Z" fill="#689B1F"/>
<path d="M33.2918 29.6966C33.3415 29.6931 33.3699 29.8051 33.3486 29.9311C33.1852 30.8446 33.1533 31.7756 33.2456 32.6995C33.2918 33.165 33.3735 33.627 33.4836 34.082C33.5405 34.313 33.6044 34.544 33.679 34.7715C33.7074 34.859 33.8992 35.2475 33.6506 35.132C33.5014 35.0655 33.409 34.7785 33.3486 34.642C33.1888 34.271 33.0964 33.8755 33.0218 33.4835C32.901 32.8535 32.8193 32.2131 32.8407 31.5726C32.8549 31.1806 32.9259 30.7921 33.0254 30.4141C33.0787 30.2216 33.1355 30.0256 33.203 29.8366C33.2314 29.7386 33.2634 29.7001 33.2918 29.6966Z" fill="#577708"/>
<path d="M32.3926 43.455C32.7088 43.455 33.0214 43.4165 33.2274 43.3885C33.3624 43.371 33.5009 43.3395 33.6324 43.3115L34.1119 43.21C35.508 42.9195 37.0887 42.594 38.3888 41.95L38.4528 41.922C38.6411 41.838 38.9217 41.7155 38.943 41.488C38.9537 41.3725 38.9004 41.271 38.8009 41.2045C38.6943 41.1345 38.5309 41.103 38.2823 41.103C37.9981 41.103 37.6642 41.145 37.4404 41.173C37.3516 41.1835 37.2841 41.194 37.2415 41.1975L32.0303 41.53C31.5898 41.558 30.7977 41.726 30.6236 42.1845C30.5312 42.4295 30.6236 42.692 30.9042 42.965C31.2452 43.2975 31.7319 43.455 32.3926 43.455Z" fill="#AFE017"/>
<path d="M38.2863 41.2851C37.8991 41.2851 37.3982 41.369 37.2597 41.3795C35.5226 41.4915 33.7856 41.6 32.0485 41.712C31.4233 41.7505 30.2511 42.0795 31.0361 42.846C31.3843 43.1855 31.8922 43.28 32.3931 43.28C32.6737 43.28 32.9544 43.2485 33.203 43.217C33.3664 43.196 33.5298 43.1575 33.6897 43.1225C35.2065 42.804 36.9151 42.489 38.3112 41.7995C38.4177 41.747 38.7552 41.628 38.7694 41.4775C38.773 41.425 38.7516 41.3865 38.7055 41.3585C38.6238 41.3025 38.4675 41.2851 38.2863 41.2851ZM38.2863 40.9351C38.574 40.9351 38.7623 40.9736 38.9008 41.0646C39.0571 41.1661 39.1424 41.334 39.1246 41.5125C39.0927 41.8415 38.7374 41.9955 38.5279 42.09C38.5065 42.1005 38.4852 42.1075 38.471 42.1145C37.1531 42.7655 35.5582 43.098 34.1515 43.3885L33.7643 43.469L33.6719 43.49C33.5369 43.518 33.3984 43.5495 33.2527 43.567C33.0396 43.595 32.7199 43.6335 32.3931 43.6335C31.6791 43.6335 31.1534 43.4585 30.7839 43.098C30.3683 42.692 30.379 42.349 30.4607 42.132C30.7129 41.467 31.8887 41.3725 32.0201 41.3655L37.2313 41.0331C37.2668 41.0296 37.3343 41.0226 37.416 41.0121C37.6469 40.9771 37.9915 40.9351 38.2863 40.9351Z" fill="#577708"/>
<path opacity="0.25" d="M36.8835 41.7715C37.292 41.698 37.7005 41.6315 38.109 41.5755C38.3932 41.5335 38.6738 41.4985 38.958 41.467C38.8656 41.6245 38.7058 41.733 38.5459 41.824C38.2369 41.999 37.8994 42.1215 37.5655 42.2405C36.1837 42.72 34.7521 43.063 33.3028 43.2695C32.8765 43.329 32.4609 43.357 32.0382 43.2695C31.6261 43.182 31.2425 43.1575 30.9192 42.8425C30.8198 42.7445 30.7487 42.5695 30.7487 42.426C30.7487 42.3245 30.8091 42.216 30.9121 42.1915C30.9654 42.1775 31.0187 42.1915 31.072 42.2055C31.3064 42.2755 31.516 42.405 31.7469 42.4855C32.2265 42.65 32.77 42.524 33.2531 42.4435C33.7966 42.356 34.333 42.2545 34.8729 42.1495C35.5407 42.0235 36.2121 41.8905 36.8835 41.7715Z" fill="#689B1F"/>
<path d="M33.778 42.3595C33.7851 42.314 33.675 42.2755 33.5471 42.286C32.6129 42.377 31.6644 42.3385 30.7408 42.1775C30.2719 42.097 29.8101 41.9815 29.359 41.838C29.1281 41.7645 28.9007 41.684 28.6769 41.593C28.5917 41.558 28.2116 41.3375 28.3111 41.5965C28.3679 41.747 28.6485 41.8625 28.7835 41.9325C29.1458 42.118 29.5401 42.2405 29.9309 42.342C30.5596 42.51 31.1991 42.636 31.8527 42.664C32.2505 42.6815 32.6484 42.6395 33.0391 42.5695C33.2381 42.5345 33.4405 42.489 33.6359 42.44C33.7318 42.4155 33.7744 42.384 33.778 42.3595Z" fill="#577708"/>
<path d="M9.22491 39.157C9.63697 39.6295 10.0739 40.0845 10.5286 40.5185C12.6955 42.5869 15.317 44.1969 18.1588 45.2013C21.1037 46.2373 24.1799 46.3388 27.2811 45.9678C28.7268 45.7928 30.3289 45.4638 31.4798 44.5189C33.1458 43.1469 33.2986 40.921 31.3733 39.696C30.5527 39.1745 29.5936 38.919 28.6629 38.6355C25.8175 37.7745 23.267 36.4971 20.9793 34.6071C20.3577 34.0926 19.7432 33.5606 19.1286 33.0251" fill="#272628"/>
<path d="M9.2249 39.157C9.63697 39.6295 10.0739 40.0845 10.5286 40.5185C12.6955 42.5869 15.317 44.1969 18.1588 45.2013C21.1037 46.2373 24.1799 46.3388 27.2811 45.9678C28.7268 45.7928 30.3289 45.4638 31.4798 44.5189C33.1458 43.1469 33.2986 40.921 31.3733 39.696C30.5527 39.1745 29.5936 38.919 28.6629 38.6355C25.8175 37.7745 23.267 36.4971 20.9793 34.6071C20.3577 34.0926 19.7432 33.5606 19.1286 33.0251" stroke="black" stroke-width="3" stroke-miterlimit="10" stroke-linecap="round" stroke-linejoin="round"/>
<path d="M29.146 43.5774C30.0021 43.4759 30.883 43.6404 31.6503 44.0324" stroke="black" stroke-width="2" stroke-miterlimit="10" stroke-linecap="round" stroke-linejoin="round"/>
<path d="M29.7999 41.3971C30.8123 41.3306 31.8389 41.5931 32.6915 42.1356" stroke="black" stroke-width="2" stroke-miterlimit="10" stroke-linecap="round" stroke-linejoin="round"/>
<g opacity="0.1">
<path d="M18.6881 33.0776C18.2654 33.6166 20.0806 35.0095 20.3755 35.293C22.5139 37.344 24.9579 38.807 27.7286 39.8779C28.638 40.2279 29.5723 40.5569 30.3538 41.1344C31.6646 42.1144 31.867 43.5318 31.2205 44.7113C31.3093 44.6483 31.3946 44.5853 31.4798 44.5153C33.1458 43.1434 33.2986 40.9174 31.3733 39.6924C30.5527 39.171 29.5936 38.9155 28.6629 38.632C25.8175 37.771 23.267 36.4935 20.9793 34.6036C20.411 34.1346 19.8781 33.5816 19.292 33.1441C19.1002 33.0006 19.0718 32.8151 18.7876 32.9866C18.7485 33.0146 18.713 33.0461 18.6881 33.0776Z" fill="#70706F"/>
</g>
<path d="M27.6224 20.205C27.7503 20.205 27.8781 20.198 28.006 20.184C28.8479 20.0825 29.5974 19.666 30.1196 19.0116C30.6418 18.3536 30.8727 17.5381 30.7732 16.7086C30.5814 15.1407 29.2315 13.9612 27.6295 13.9612C27.5016 13.9612 27.3737 13.9682 27.2458 13.9822C26.4039 14.0837 25.6544 14.5002 25.1322 15.1547C24.61 15.8091 24.3792 16.6281 24.4786 17.4576C24.6704 19.0221 26.0239 20.205 27.6224 20.205Z" fill="white"/>
<path d="M27.6299 14.4863C27.5234 14.4863 27.4168 14.4933 27.3102 14.5038C25.8645 14.6752 24.8343 15.9702 25.0084 17.3947C25.1682 18.7142 26.3085 19.6801 27.6228 19.6801C27.7294 19.6801 27.836 19.6731 27.9425 19.6626C29.3883 19.4911 30.4185 18.1962 30.2444 16.7717C30.081 15.4522 28.9443 14.4863 27.6299 14.4863ZM27.6299 13.4363C29.4984 13.4363 31.0792 14.8152 31.303 16.6457C31.5481 18.6442 30.0988 20.4641 28.0704 20.7021C27.9212 20.7196 27.772 20.7301 27.6228 20.7301C25.7543 20.7301 24.1736 19.3511 23.9498 17.5207C23.7047 15.5222 25.154 13.7023 27.1823 13.4643C27.3315 13.4433 27.4807 13.4363 27.6299 13.4363Z" fill="black"/>
<path d="M12.8343 20.205C12.9622 20.205 13.09 20.198 13.2179 20.184C14.0598 20.0825 14.8093 19.666 15.3315 19.0116C15.8537 18.3536 16.0846 17.5381 15.9851 16.7086C15.7933 15.1407 14.4435 13.9612 12.8414 13.9612C12.7135 13.9612 12.5856 13.9682 12.4577 13.9822C11.6159 14.0837 10.8663 14.5002 10.3441 15.1547C9.82196 15.8126 9.59107 16.6281 9.69053 17.4576C9.88235 19.0221 11.2358 20.205 12.8343 20.205Z" fill="white"/>
<path d="M12.8418 14.4863C12.7353 14.4863 12.6287 14.4933 12.5221 14.5038C11.0764 14.6752 10.0462 15.9702 10.2203 17.3947C10.3801 18.7142 11.5204 19.6801 12.8347 19.6801C12.9413 19.6801 13.0479 19.6731 13.1544 19.6626C14.6002 19.4911 15.6304 18.1962 15.4563 16.7717C15.2929 15.4522 14.1562 14.4863 12.8418 14.4863ZM12.8418 13.4363C14.7103 13.4363 16.2911 14.8152 16.5149 16.6457C16.76 18.6442 15.3107 20.4641 13.2823 20.7021C13.1331 20.7196 12.9839 20.7301 12.8347 20.7301C10.9663 20.7301 9.38549 19.3511 9.1617 17.5207C8.91659 15.5222 10.3659 13.7023 12.3943 13.4643C12.5435 13.4433 12.6926 13.4363 12.8418 13.4363Z" fill="black"/>
<path d="M27.6579 18.882C26.6476 18.882 25.8285 18.075 25.8285 17.0796C25.8285 16.0841 26.6476 15.2771 27.6579 15.2771C28.6683 15.2771 29.4873 16.0841 29.4873 17.0796C29.4873 18.075 28.6683 18.882 27.6579 18.882Z" fill="black"/>
<path d="M26.8125 17.1777C26.5359 17.1777 26.3116 16.9567 26.3116 16.6842C26.3116 16.4116 26.5359 16.1907 26.8125 16.1907C27.0891 16.1907 27.3134 16.4116 27.3134 16.6842C27.3134 16.9567 27.0891 17.1777 26.8125 17.1777Z" fill="#B0B0B0"/>
<path d="M12.8698 18.882C11.8595 18.882 11.0404 18.075 11.0404 17.0796C11.0404 16.0841 11.8595 15.2771 12.8698 15.2771C13.8802 15.2771 14.6993 16.0841 14.6993 17.0796C14.6993 18.075 13.8802 18.882 12.8698 18.882Z" fill="black"/>
<path d="M12.0284 17.1777C11.7517 17.1777 11.5275 16.9567 11.5275 16.6842C11.5275 16.4116 11.7517 16.1907 12.0284 16.1907C12.305 16.1907 12.5292 16.4116 12.5292 16.6842C12.5292 16.9567 12.305 17.1777 12.0284 17.1777Z" fill="#B0B0B0"/>
<path d="M6.7205 53.2198C6.75958 53.2443 6.8022 53.2653 6.84483 53.2863C7.21427 53.4683 7.58015 53.6293 7.94248 53.8393C9.69375 54.8543 11.4983 55.7748 13.3313 56.6287C13.992 56.9367 14.6598 57.2342 15.3276 57.5282C17.1855 58.3367 19.125 58.9317 21.0645 59.5197C21.9704 59.7962 22.8762 60.0727 23.7998 60.2792C24.6523 60.4717 25.583 60.7062 26.4391 60.4192C27.7819 59.9642 28.8369 58.8827 29.5438 57.6577C29.6397 57.4897 29.7321 57.3182 29.8209 57.1432C30.51 55.7573 30.9469 54.2348 30.9754 52.6878C31.0144 50.8154 30.7054 48.6699 29.2241 47.3505C29.05 47.1965 28.8582 47.0495 28.6344 46.99C28.4106 46.9305 28.1407 46.9725 27.9879 47.144C27.8352 46.7135 27.2846 46.5945 26.8263 46.563C26.3787 46.5315 25.8423 46.682 25.8423 47.144C25.8423 46.871 25.5049 46.6925 25.3131 46.7065C24.901 46.7345 24.4854 46.969 24.1586 47.2C23.711 47.5185 23.3984 48.061 22.8691 48.257C22.3895 48.4355 21.8816 48.208 21.4482 48.0085C20.9864 47.795 20.4749 47.676 19.9847 47.5325C16.2867 46.444 12.4041 45.5165 8.51085 45.7475C7.69382 45.7965 6.88035 45.905 6.08465 46.0835C5.32801 46.255 4.57138 46.5 3.96039 46.9725C3.44887 47.368 3.04746 47.9525 2.96931 48.5999C2.88761 49.2894 3.42756 49.9019 3.83251 50.4094C4.40798 51.1339 5.05094 51.8059 5.74718 52.4184C6.04202 52.6808 6.36883 53.0098 6.7205 53.2198Z" fill="#272628"/>
<g opacity="0.15">
<path d="M6.71377 53.0867C6.66404 53.0342 6.61787 52.9817 6.57169 52.9292C6.48643 52.8312 6.40118 52.7052 6.4438 52.5827C6.47933 52.4777 6.6001 52.4217 6.71022 52.4252C6.82034 52.4287 6.92691 52.4777 7.02637 52.5232C9.6586 53.7552 12.3903 54.7807 15.1859 55.5891C16.1202 55.8586 17.0864 56.1071 18.0562 56.0056C18.3332 55.9776 18.6103 55.9181 18.8483 55.7781C19.303 55.5156 19.4309 54.9452 19.6263 54.4972C19.8714 53.9372 20.1165 53.3807 20.3332 52.8102C20.6138 52.0752 20.8731 51.2983 21.3811 50.6788C21.651 50.3463 22.0986 49.8178 22.5498 49.7373C22.7451 49.7023 22.9725 49.7688 23.0648 49.9438C23.1075 50.0278 23.1146 50.1258 23.1146 50.2203C23.111 50.5983 23.0045 50.9658 22.9121 51.3332C22.1874 54.2207 22.2762 57.3881 23.6687 60.027C22.9192 60.0305 22.0809 59.775 21.4059 59.4671C20.3438 58.9841 19.1751 58.7566 18.0704 58.3856C16.9194 57.9971 15.7863 57.5596 14.6531 57.1221C13.2215 56.5691 11.79 56.0161 10.4046 55.3616C9.15063 54.7702 7.66933 54.1122 6.71377 53.0867Z" fill="black"/>
</g>
<path d="M0.682034 44.085C0.682034 44.085 1.42091 49.9998 8.62845 54.2662C9.84688 54.9872 11.1044 55.6382 12.3903 56.2297C15.2392 57.5456 18.2125 58.5991 21.239 59.4391C22.0951 59.6771 22.9547 59.8976 23.8215 60.0936C24.3863 60.2196 24.8232 60.4856 25.4307 60.4716C26.2868 60.4541 27.1251 60.1216 27.8 59.6106C28.617 58.9911 29.2138 58.1406 29.6792 57.2411C30.1836 56.2717 30.585 55.3862 30.8123 54.3082C31.0574 53.1427 31.1534 51.9528 30.9544 50.7733C30.7022 49.2928 29.9065 47.1474 28.07 47.1719C28.0203 47.1719 27.8 46.8289 27.4626 46.7029C26.8906 46.4859 26.1518 46.4579 25.8285 47.0424C25.3951 46.7974 25.1642 46.8009 25.0506 46.7939C24.6563 46.7659 24.3188 46.9969 24.0524 47.2664C23.7611 47.5604 23.5089 48.1659 23.1679 48.3724C22.738 48.6314 19.6866 47.3819 17.4203 46.8009" stroke="black" stroke-width="3" stroke-miterlimit="10" stroke-linecap="round" stroke-linejoin="round"/>
<path d="M25.2954 58.1302C25.5689 58.4837 25.9064 58.6657 26.2616 58.7147C26.8513 58.7952 27.4978 58.5117 27.988 58.0392C28.432 57.6122 28.7375 57.0697 28.9933 56.5167C29.1141 56.2612 29.2242 55.9952 29.3201 55.7257C29.718 54.6163 29.8814 53.4193 29.4764 52.3343C29.3023 51.8723 29.0111 51.4278 28.5741 51.1898C27.0396 50.3604 25.7288 51.9073 25.1426 53.2163C25.0538 53.4158 24.9792 53.6118 24.926 53.7903C24.8514 54.0353 24.7874 54.2943 24.7412 54.5603C24.5317 55.6977 24.5423 57.1607 25.2954 58.1302Z" fill="#66636B"/>
<g opacity="0.15">
<path d="M25.2957 58.1302C25.5692 58.4837 25.9067 58.6657 26.2619 58.7147C26.8516 58.7952 27.4981 58.5117 27.9883 58.0392C28.4323 57.6122 28.7378 57.0697 28.9936 56.5167C29.1144 56.2612 29.2245 55.9952 29.3204 55.7257C28.6455 56.5867 27.7894 57.0767 26.9723 56.9612C25.69 56.7792 24.9404 55.1693 25.1394 53.2163C25.0506 53.4158 24.976 53.6118 24.9227 53.7903C24.8481 54.0353 24.7841 54.2943 24.738 54.5603C24.5319 55.6977 24.5426 57.1607 25.2957 58.1302Z" fill="black"/>
</g>
<path d="M28.9048 48.9709C28.6597 49.5974 29.093 51.8234 29.9385 50.6859C30.5885 49.8074 29.3559 47.809 28.9048 48.9709Z" fill="#66636B"/>
<path d="M25.6402 48.7748C26.0168 49.4748 25.8853 51.1828 24.9866 50.9448C24.7628 50.8853 24.5888 50.6928 24.5071 50.4793C24.4254 50.2658 24.4254 50.0278 24.4538 49.8003C24.4929 49.5063 24.5817 49.2193 24.7131 48.9498C24.8019 48.7713 24.9227 48.5893 25.111 48.5158C25.3383 48.4248 25.5159 48.5473 25.6402 48.7748Z" fill="#66636B"/>
<path d="M27.1393 48.173C27.0292 48.2255 26.9617 48.334 26.9084 48.439C26.777 48.6945 26.681 48.9675 26.6278 49.251C26.4715 50.0909 27.427 51.0569 28.0202 50.1014C28.308 49.6429 27.832 47.844 27.1393 48.173Z" fill="#66636B"/>
<g opacity="0.15">
<path d="M29.9385 50.6858C30.0664 50.5108 30.1232 50.2903 30.1232 50.0628C30.0983 50.1153 30.0699 50.1643 30.0344 50.2133C29.3239 51.1688 28.9048 49.7514 28.9332 48.9009C28.9225 48.9219 28.9119 48.9464 28.9012 48.9744C28.6597 49.5974 29.0966 51.8233 29.9385 50.6858Z" fill="black"/>
</g>
<g opacity="0.15">
<path d="M24.5071 50.4793C24.5888 50.6963 24.7628 50.8853 24.9866 50.9448C25.8463 51.1757 26.0061 49.6253 25.6864 48.8728C25.8001 49.6533 25.5656 50.6613 24.8587 50.4723C24.6776 50.4233 24.5284 50.2903 24.436 50.1258C24.4431 50.2483 24.4644 50.3673 24.5071 50.4793Z" fill="black"/>
</g>
<g opacity="0.15">
<path d="M28.0207 50.1014C28.106 49.9649 28.1237 49.7059 28.0882 49.4224C28.074 49.4994 28.0527 49.5659 28.0207 49.6184C27.5305 50.4059 26.7916 49.8844 26.6389 49.2019C26.6353 49.2194 26.6318 49.2334 26.6282 49.2509C26.4719 50.0909 27.4275 51.0569 28.0207 50.1014Z" fill="black"/>
</g>
<path d="M28.5244 48.6944C28.4853 48.1554 28.3184 47.6234 28.0342 47.158" stroke="black" stroke-width="2" stroke-miterlimit="10" stroke-linecap="round" stroke-linejoin="round"/>
<path d="M26.2588 48.404C26.2197 47.893 26.0528 47.389 25.7686 46.948" stroke="black" stroke-width="2" stroke-miterlimit="10" stroke-linecap="round" stroke-linejoin="round"/>
</g>
<defs>
<clipPath id="clip0_169_15986">
<rect width="47" height="61" fill="white" transform="matrix(-1 0 0 1 47 0)"/>
</clipPath>
</defs>
</svg>
