<svg width="50" height="81" viewBox="0 0 50 81" fill="none" xmlns="http://www.w3.org/2000/svg">
<g clip-path="url(#clip0_229_16221)">
<path d="M34.5383 75.3094C34.4605 75.3303 34.3761 75.3473 34.2969 75.363C33.3804 75.5533 32.4374 75.292 31.7293 74.6416L17.933 61.895C17.5658 61.5622 17.2882 61.1281 17.14 60.6372L17.0702 60.4182L3.11379 15.4911C2.71685 14.072 3.1091 12.5685 4.13339 11.5147L6.55614 8.25117C6.68484 8.06745 6.83601 7.90535 6.99928 7.76764C7.07123 7.70414 7.17673 7.6206 7.29399 7.53944C7.70353 7.24178 8.16631 7.01829 8.65396 6.88762L20.2655 3.69893C20.6702 3.59051 21.0876 3.55051 21.5061 3.57657C21.6662 3.57236 21.8266 3.59016 22.0068 3.61927L22.0773 3.63353L27.6689 5.03704C29.2644 5.30594 30.5585 6.46258 30.9741 7.9928L42.0193 53.1362L42.1668 53.7489C42.2863 54.2364 42.2775 54.7639 42.1263 55.2576L36.6134 73.3218C36.3185 74.2963 35.5395 75.0411 34.5383 75.3094Z" fill="#4D74C2"/>
<path d="M20.5363 4.73163C20.8475 4.64823 21.1623 4.61917 21.4804 4.64447C21.5949 4.63591 21.6993 4.65214 21.8089 4.66699L27.4437 6.08655C28.6447 6.27325 29.6242 7.12729 29.9375 8.2759L40.9745 53.3884L41.1192 53.9907C41.1983 54.3067 41.1864 54.636 41.0923 54.9486L35.5794 73.0128C35.3825 73.6681 34.8529 74.1195 34.2563 74.2793C34.2044 74.2932 34.1525 74.3071 34.0993 74.3159C33.5359 74.4337 32.9256 74.2932 32.4526 73.8562L18.6628 61.1133C18.4277 60.9 18.2528 60.6207 18.1623 60.3244L18.0883 60.09L4.13984 15.1718C3.8462 14.1174 4.16088 12.9884 4.95235 12.2071L7.41973 8.88182C7.49757 8.77806 7.58198 8.67806 7.6861 8.58936C7.75805 8.52587 7.83657 8.46614 7.91509 8.40641C8.22294 8.18574 8.56535 8.01108 8.93887 7.911L20.4792 4.74692C20.5 4.74136 20.5207 4.7358 20.5363 4.73163ZM19.9836 2.66886L19.9109 2.68832L8.37197 5.85756C7.7612 6.02674 7.17944 6.30422 6.65403 6.6882C6.52777 6.7773 6.40291 6.87156 6.28599 6.97474C6.06357 7.16146 5.8612 7.3815 5.67369 7.63625L3.30837 10.8236C2.06164 12.147 1.58386 14.0161 2.07027 15.7484L2.07856 15.7794L2.08685 15.8103L16.0354 60.7285L16.0395 60.744L16.0436 60.7594L16.1134 60.9784C16.3242 61.6405 16.7006 62.236 17.213 62.6957L30.9935 75.4245C31.9525 76.3061 33.233 76.6649 34.5105 76.411C34.6105 76.3898 34.7156 76.3671 34.8142 76.3407C36.1786 75.9751 37.236 74.9622 37.64 73.6269L43.149 55.5693C43.3547 54.8841 43.3735 54.166 43.2067 53.4811L43.0661 52.8942L32.025 7.76629L32.0181 7.7405L32.0112 7.71472C31.4868 5.79912 29.8809 4.35019 27.896 3.9977L22.3435 2.59477L22.2716 2.57535L22.1958 2.56248C21.9672 2.51871 21.7456 2.50073 21.5294 2.50337C21.0055 2.47794 20.4868 2.53403 19.9836 2.66886Z" fill="#38548C"/>
<path d="M28.3637 53.407C26.7516 54.0103 25.6895 55.649 25.5046 57.3457C25.4204 58.2139 24.5446 58.7636 23.6932 58.533C22.3591 58.1608 20.861 58.297 19.6207 58.9388C19.0458 59.2421 18.5336 59.6336 18.0835 60.0914L18.1575 60.3258C18.248 60.6221 18.4229 60.9014 18.658 61.1147L25.7814 67.6957L32.4543 73.8613C33.4742 74.804 35.1744 74.3429 35.5812 73.018L37.9215 65.3382L41.0888 54.9552C41.183 54.6425 41.1896 54.3146 41.1157 53.9973L40.971 53.3949C40.3123 53.2398 39.6213 53.1928 38.949 53.2569C37.6694 53.3786 36.4181 53.9792 35.5363 54.9009C34.9814 55.4862 34.0214 55.4726 33.4939 54.8733C32.2749 53.4368 30.1594 52.7213 28.3637 53.407Z" fill="#E8C268"/>
<path d="M32.5076 64.8485C29.9546 65.1567 27.6587 66.1754 25.7846 67.689L32.4576 73.8546C33.4775 74.7973 35.1777 74.3362 35.5844 73.0112L37.9247 65.3315C36.2172 64.8107 34.3834 64.6278 32.5076 64.8485Z" fill="#4D74C2"/>
<path opacity="0.19" d="M7.91695 8.41155C7.83325 8.47267 7.75853 8.52586 7.68797 8.59451C7.58246 8.67805 7.49806 8.77805 7.4216 8.88697L4.95284 12.207C4.16137 12.9884 3.84668 14.1174 4.14033 15.1718L18.0888 60.09L18.1628 60.3244C18.2533 60.6207 18.4282 60.9 18.6633 61.1133L32.4583 73.8548C32.9312 74.2918 33.5402 74.4271 34.1049 74.3145L24.6921 58.4422L7.91695 8.41155Z" fill="#331C2D"/>
<g opacity="0.32">
<path d="M21.4856 4.64307L34.5645 55.3215L34.1097 74.3131C34.7668 74.1923 35.3704 73.7266 35.5899 73.01L41.1027 54.9458C41.1968 54.6332 41.2035 54.3053 41.1296 53.9879L40.9849 53.3856L29.9479 8.2731C29.6346 7.1245 28.6551 6.27046 27.4541 6.08376L21.8194 4.66419C21.7045 4.65074 21.5949 4.63589 21.4856 4.64307Z" fill="#E8E8E8"/>
</g>
</g>
<defs>
<clipPath id="clip0_229_16221">
<rect width="31" height="75" fill="white" transform="translate(0 8.02344) rotate(-15)"/>
</clipPath>
</defs>
</svg>
