<svg width="113" height="120" viewBox="0 0 113 120" fill="none" xmlns="http://www.w3.org/2000/svg">
<g clip-path="url(#clip0_229_16106)">
<path d="M35.9738 100.712C35.363 100.382 34.7488 100.041 34.1354 99.6814C19.7289 91.3582 10.1368 79.2154 10.2588 69.4582C10.2841 67.262 10.817 65.2518 11.8291 63.4805C17.1778 54.1955 35.0136 54.2918 52.4339 63.6852C53.0448 64.0146 53.6589 64.3555 54.2723 64.7154C59.023 67.4621 63.2862 70.6371 66.9376 74.1539C69.272 76.3959 71.3019 78.7269 72.9734 81.0885C73.1938 81.402 73.4142 81.7156 73.6232 82.0327C78.4115 89.2195 79.4588 95.9273 76.5827 100.909C75.2272 103.264 73.0856 105.069 70.2206 106.259C65.7799 108.1 59.8721 108.38 53.1349 107.045C47.554 105.943 41.6187 103.755 35.9738 100.712Z" fill="#825CE2"/>
<path d="M51.8312 64.8205C52.4347 65.1459 53.0342 65.4789 53.6402 65.8348C58.4056 68.5894 62.6051 71.7593 66.0723 75.0892C68.3706 77.2923 70.3425 79.5725 71.9574 81.8451C72.1745 82.1472 72.3802 82.4528 72.5858 82.7584C76.8809 89.2216 78.2084 95.6035 75.5064 100.28C74.2722 102.428 72.2934 104.018 69.7687 105.071C65.5573 106.821 59.8095 107.051 53.4041 105.788C48.0806 104.738 42.3137 102.66 36.5879 99.5727C35.9844 99.2473 35.3776 98.9104 34.779 98.5584C20.5564 90.3343 11.4092 78.4412 11.5231 69.439C11.549 67.5059 11.9983 65.7037 12.9168 64.1059C17.9376 55.3937 35.0986 55.8076 51.8312 64.8205ZM53.0513 62.5578C34.7258 52.6762 16.5385 52.809 10.7488 62.859C9.61626 64.8184 9.02908 67.0525 8.99853 69.4699C8.87014 79.6617 18.7148 92.2522 33.5 100.789C34.1175 101.142 34.7423 101.498 35.3678 101.835C41.1231 104.939 47.177 107.171 52.8698 108.294C59.8497 109.672 66.0065 109.371 70.6806 107.432C73.8132 106.133 76.1652 104.149 77.6704 101.534C80.8019 96.0965 79.7364 88.9117 74.6759 81.2958C74.467 80.9787 74.2433 80.6536 74.0122 80.3246C72.2981 77.9011 70.2182 75.5042 67.8257 73.2114C64.0982 69.6243 59.7508 66.3942 54.9232 63.5964C54.3017 63.2515 53.6769 62.8951 53.0513 62.5578Z" fill="#6447AD"/>
<path opacity="0.04" d="M75.5247 100.299C74.9867 101.138 74.3718 101.926 73.6986 102.576C71.0604 105.125 67.3921 106.097 64.0572 106.45C53.7211 107.526 43.314 103.501 34.7826 98.5697C26.3174 93.6741 17.2099 86.4461 12.9011 77.0841C11.0766 73.1212 10.7347 68.1179 12.6841 64.0093C14.5067 60.1536 19.7127 56.1364 23.8444 58.1988C16.6156 59.8013 20.9359 69.5297 22.9515 73.1381C26.9303 80.2583 33.5211 85.9345 40.5265 89.6438C45.0878 92.0547 49.9386 93.911 54.9245 95.2171C60.0478 96.568 69.6465 98.463 74.0362 93.8985C75.375 92.5079 76.0255 90.4735 75.7338 88.5833C75.8655 89.4137 76.8122 90.1773 76.9776 91.1037C77.1001 91.7928 76.9939 92.5533 77.1042 93.265C77.3653 94.9829 77.5756 96.2841 76.7961 97.9763C76.4491 98.7433 76.018 99.5427 75.5247 100.299Z" fill="white"/>
<path d="M44.2921 84.0329L43.4137 83.5301L42.591 83.0475L42.1984 82.8066C41.747 82.534 41.3069 82.2578 40.871 81.974L40.5487 81.7613C40.3287 81.6232 40.1127 81.4775 39.8968 81.3319L39.3185 80.9422L38.6567 80.4782C38.2256 80.1679 37.8092 79.8655 37.4075 79.571C37.2103 79.4257 37.0098 79.269 36.8127 79.1237C36.0322 78.5276 35.2679 77.9013 34.5265 77.2679L34.272 77.0528C33.8105 76.6579 33.3645 76.2519 32.9299 75.8423L32.6761 75.6081C32.3283 75.2843 31.9992 74.9608 31.6742 74.6298L30.8728 73.8082C30.8728 73.8082 29.7994 72.6453 29.8035 72.6378L29.06 71.7793L28.1574 70.6696C27.7643 70.1655 27.3973 69.6658 27.0417 69.1625L26.6975 68.6557L26.2017 67.9015C26.0919 67.7352 25.7434 67.1482 25.7434 67.1482L25.322 66.4147C25.1678 66.1369 25.0423 65.894 24.9168 65.6511C24.8298 65.4776 24.7355 65.3002 24.6559 65.1307L24.4729 64.7302C24.0477 63.8098 23.6937 62.8984 23.4287 62.0157L23.297 61.5553L23.1611 61.0146C23.1248 60.888 23.0497 60.5165 23.0497 60.5165C23.0497 60.5165 22.9745 60.145 22.9596 60.0493C22.9348 59.9191 22.9108 59.7699 22.8941 59.6246L22.8651 59.4142C22.8568 59.3416 22.8484 59.2689 22.8401 59.1963C22.8293 59.0931 22.8093 58.9363 22.7934 58.772L22.7647 58.3671L22.7434 57.9662C22.7442 57.9471 22.7363 57.68 22.7434 57.5962C22.7438 57.4017 22.749 57.1807 22.7616 56.9635C22.7672 56.9179 22.7703 56.8417 22.7734 56.7655C22.7773 56.6702 22.7942 56.5332 22.811 56.3963C22.7897 56.3653 22.8387 55.9926 22.8387 55.9926C22.8458 55.9088 22.8596 55.8481 22.8693 55.7949C22.8693 55.7949 22.9096 55.5441 22.9274 55.4758C22.9322 55.4492 22.9427 55.3769 22.9605 55.3087C22.9969 55.1531 23.0341 54.9784 23.0827 54.8002C23.0924 54.747 23.2229 54.3111 23.2229 54.3111C23.3348 53.9626 23.4696 53.6069 23.6265 53.2632L23.7216 53.0516C23.8281 52.8364 23.942 52.6252 24.0518 52.4216C25.7107 49.5388 28.8011 47.6129 32.987 46.8618C40.0973 45.5848 49.8306 47.7763 59.0302 52.7369C59.5674 53.0266 60.1006 53.3238 60.6371 53.6326C65.2921 56.3276 69.5441 59.5939 72.9292 63.0937C74.4305 64.6432 75.772 66.2427 76.91 67.8494C77.1697 68.2133 77.418 68.5809 77.6549 68.952C78.7695 70.6726 79.6514 72.3845 80.2684 74.0412C80.2717 74.0527 80.3597 74.2948 80.3597 74.2948C81.7815 78.2644 81.6532 81.8849 80.0024 84.7526C79.8649 84.99 79.7241 85.2159 79.5645 85.4414C79.2372 85.9074 78.8771 86.3461 78.4811 86.7458L78.2423 86.9773C78.1641 87.0519 77.957 87.2421 77.957 87.2421C77.3293 87.7895 76.6908 88.2338 76.0023 88.6121C74.463 89.4761 72.6299 90.0745 70.5487 90.3931L70.0041 90.4694C69.8114 90.492 69.626 90.5186 69.4448 90.5377C68.8103 90.6045 68.1431 90.6438 67.4766 90.6642C66.6297 90.6845 65.728 90.6656 64.8016 90.6042C63.5641 90.5209 62.2692 90.3679 60.9545 90.1457C55.8086 89.2596 50.3082 87.2867 45.0313 84.4413L44.2921 84.0329Z" fill="#8DB811"/>
<path d="M58.4242 53.8606C58.9541 54.1463 59.4799 54.4396 60.0017 54.7404C64.7229 57.4712 68.7975 60.6613 72.0278 63.99C73.5006 65.5046 74.7912 67.0572 75.8867 68.602C76.1431 68.9544 76.3807 69.3065 76.607 69.6621C77.6757 71.3093 78.5157 72.9402 79.0983 74.52C79.1254 74.593 79.1452 74.662 79.1723 74.7351C80.4175 78.2395 80.4239 81.5043 78.9188 84.1195C78.7975 84.3268 78.673 84.5225 78.5411 84.7142C78.2578 85.1163 77.9491 85.495 77.6003 85.8424C77.5611 85.8797 77.5334 85.9135 77.4943 85.9508C77.4552 85.9881 77.4275 86.0219 77.3884 86.0592C77.3338 86.1076 77.2906 86.1525 77.236 86.2009C77.1854 86.2418 77.1382 86.2942 77.0876 86.3351C76.5847 86.7745 76.0236 87.1632 75.4118 87.5051C73.9916 88.3066 72.2964 88.8431 70.3891 89.1387C70.3058 89.1522 70.2152 89.1617 70.1319 89.1752C70.0486 89.1887 69.958 89.1983 69.8747 89.2118C69.7008 89.2348 69.5195 89.2539 69.3497 89.2694C68.7454 89.333 68.1158 89.3731 67.4722 89.3863C66.644 89.4071 65.7872 89.3929 64.9058 89.3362C63.7132 89.2578 62.4632 89.1095 61.1861 88.8881C56.3278 88.05 50.9624 86.1791 45.634 83.3059C45.5825 83.2781 45.5384 83.2543 45.4868 83.2265C45.3838 83.1709 45.2808 83.1154 45.1777 83.0598C45.0894 83.0122 45.0011 82.9646 44.9128 82.917C44.7435 82.8257 44.5783 82.7269 44.409 82.6356C44.2913 82.5721 44.1702 82.4971 44.0525 82.4336C43.9241 82.3546 43.7842 82.2792 43.6558 82.2002C43.5201 82.1173 43.3802 82.0419 43.2445 81.959C43.116 81.88 42.9876 81.801 42.8592 81.722C42.4151 81.4534 41.9825 81.1811 41.5539 80.9013C41.4475 80.8342 41.3412 80.7672 41.2389 80.6926C41.0263 80.5584 40.8177 80.4167 40.6091 80.2751C40.4226 80.1453 40.232 80.0231 40.0455 79.8933C39.9212 79.8068 39.8042 79.7242 39.6798 79.6377C39.5776 79.5631 39.4713 79.496 39.3764 79.4254C38.9706 79.1384 38.5689 78.8439 38.1746 78.5534C37.9774 78.4082 37.7843 78.2554 37.5872 78.1101C36.814 77.518 36.0678 76.9112 35.3558 76.2936C35.2724 76.2194 35.1922 76.1567 35.1087 76.0825C34.6545 75.6915 34.2191 75.301 33.7919 74.8954C33.7084 74.8212 33.629 74.7394 33.5382 74.6612C33.205 74.3453 32.8793 74.0333 32.5649 73.7178C32.4855 73.6361 32.4061 73.5543 32.33 73.484C32.2506 73.4023 32.1712 73.3205 32.0991 73.2427C32.0345 73.1689 31.9583 73.0987 31.8937 73.0248C31.8576 72.9859 31.8216 72.947 31.7856 72.9082C31.6669 72.776 31.5441 72.6514 31.4253 72.5192C31.3533 72.4414 31.2739 72.3596 31.2018 72.2819C31.1298 72.2041 31.0577 72.1263 30.9824 72.037C30.9177 71.9631 30.8563 71.9008 30.7916 71.827C30.7736 71.8076 30.7556 71.7881 30.745 71.7726C30.6442 71.6599 30.5509 71.5512 30.4502 71.4384C30.4035 71.3841 30.3568 71.3297 30.3101 71.2753C30.2528 71.2055 30.1914 71.1432 30.1341 71.0733C30.0874 71.0189 30.0334 70.9606 29.9867 70.9062C29.9367 70.8403 29.8827 70.782 29.8254 70.7121C29.7214 70.5879 29.6174 70.4637 29.5248 70.3359C29.4601 70.262 29.3995 70.1807 29.3388 70.0993C29.2782 70.018 29.2102 69.9326 29.1456 69.8588C28.7704 69.3742 28.4067 68.886 28.0691 68.4022C28.0158 68.3248 27.9552 68.2434 27.8987 68.1545C27.8454 68.0771 27.7848 67.9957 27.7356 67.9108C27.6823 67.8334 27.6258 67.7445 27.5725 67.6671C27.5192 67.5897 27.47 67.5048 27.4168 67.4274C27.3635 67.35 27.3143 67.265 27.2611 67.1876C27.1586 67.0253 27.0561 66.8629 26.9611 66.7046C26.9119 66.6196 26.866 66.5462 26.8168 66.4613C26.7676 66.3763 26.7217 66.3029 26.6725 66.218C26.6306 66.137 26.5774 66.0596 26.5355 65.9786C26.4863 65.8937 26.4445 65.8127 26.3953 65.7278C26.2657 65.4924 26.1395 65.2686 26.0287 65.0336C25.9376 64.8677 25.858 64.6982 25.7784 64.5287C25.7161 64.3977 25.657 64.2783 25.602 64.1512C25.2047 63.2848 24.8745 62.435 24.6227 61.5983C24.6063 61.5407 24.5824 61.4792 24.57 61.4141C24.547 61.3335 24.5239 61.2529 24.5042 61.1839C24.4811 61.1033 24.4655 61.0267 24.4383 60.9536C24.412 60.8616 24.3897 60.7619 24.3634 60.6698C24.3378 60.5587 24.3122 60.4476 24.2867 60.3364C24.2842 60.3059 24.2743 60.2713 24.2644 60.2368C24.2446 60.1677 24.2363 60.0951 24.2239 60.03C24.2082 59.9534 24.1925 59.8768 24.1842 59.8041C24.1594 59.6739 24.142 59.5477 24.1172 59.4175C24.1048 59.3524 24.0998 59.2913 24.0874 59.2262C24.0783 59.1726 24.0692 59.119 24.0715 59.0619C24.0548 58.9166 24.0341 58.7789 24.0248 58.6376C24.0198 58.5764 24.0147 58.5153 24.0097 58.4542C24.0046 58.393 24.0037 58.3244 23.9986 58.2632C23.9994 58.2442 24.0002 58.2251 23.9969 58.2136C23.9919 58.1525 23.9909 58.0838 23.9859 58.0227C23.9849 57.954 23.9799 57.8929 23.9789 57.8242C23.9756 57.8127 23.9764 57.7937 23.9804 57.7861C23.9754 57.725 23.9818 57.6603 23.9767 57.5992C23.9771 57.4047 23.9849 57.2141 23.9926 57.0236C23.9909 56.974 23.9965 56.9283 24.0062 56.8752C24.0108 56.7608 24.0269 56.6429 24.0315 56.5286C24.042 56.4564 24.0484 56.3917 24.0588 56.3194C24.0685 56.2662 24.0749 56.2015 24.0846 56.1483C24.0902 56.1027 24.0958 56.0571 24.1055 56.0039C24.1152 55.9507 24.1249 55.8975 24.1305 55.8518C24.1361 55.8062 24.1458 55.753 24.1628 55.7038C24.1684 55.6581 24.1781 55.6049 24.1911 55.5632C24.2275 55.4076 24.2639 55.252 24.2963 55.104C24.3059 55.0508 24.323 55.0016 24.34 54.9523C24.353 54.9107 24.366 54.869 24.3749 54.8348C24.3919 54.7856 24.4049 54.7439 24.4219 54.6947C24.525 54.3803 24.6427 54.0739 24.7752 53.7754C24.8004 53.7111 24.8329 53.6507 24.8654 53.5904C24.9557 53.4054 25.0533 53.2244 25.1509 53.0434C26.6642 50.4131 29.5135 48.7757 33.1956 48.1132C39.821 46.9252 49.1878 48.8801 58.4242 53.8606ZM59.6443 51.5979C50.2092 46.5103 40.1736 44.2629 32.7939 45.599C28.2292 46.4185 24.833 48.5592 22.9755 51.7925C22.8421 52.0223 22.716 52.2561 22.6047 52.4979L22.4892 52.7472C22.3113 53.1477 22.1521 53.5486 22.0304 53.9504C22.0175 53.992 21.9997 54.0603 21.9704 54.1322C21.9493 54.1889 21.9396 54.2421 21.9185 54.2989C21.9007 54.3672 21.8829 54.4354 21.8651 54.5037C21.8165 54.6819 21.7671 54.8792 21.7291 55.0729C21.7113 55.1412 21.7049 55.2059 21.6871 55.2742C21.6733 55.3349 21.6629 55.4072 21.6491 55.4679C21.6354 55.5286 21.629 55.5933 21.6152 55.6541C21.6056 55.7073 21.5959 55.7604 21.5862 55.8136L21.5581 56.0419C21.5469 56.1332 21.5316 56.232 21.5237 56.3348C21.5116 56.4452 21.5022 56.5861 21.4886 56.7345C21.4781 56.8068 21.4791 56.8755 21.476 56.9517C21.4594 57.1763 21.4615 57.4014 21.4596 57.634C21.4565 57.7102 21.4607 57.7904 21.4609 57.8781C21.4602 57.8972 21.4634 57.9087 21.4667 57.9202C21.47 57.9317 21.4652 57.9583 21.4685 57.9698L21.4702 58.0194L21.4762 58.1492C21.4764 58.237 21.484 58.3287 21.4842 58.4164C21.4826 58.4545 21.4852 58.485 21.495 58.5196L21.4977 58.6379L21.4995 58.6875L21.4964 58.7637C21.5014 58.8248 21.5032 58.8744 21.5082 58.9356C21.5167 59.0959 21.5367 59.2527 21.5566 59.4095C21.565 59.4821 21.5766 59.5663 21.5849 59.6389C21.5932 59.7116 21.6049 59.7957 21.6206 59.8723C21.6413 60.0101 21.6686 60.1708 21.6959 60.3316C21.7083 60.3967 21.7232 60.4923 21.7488 60.6035C21.7579 60.6571 21.7769 60.7452 21.7959 60.8333L21.8156 60.9024L24.29 60.3479L21.8247 60.9559C21.8495 61.0861 21.8817 61.2203 21.9138 61.3545L21.9262 61.4196C21.9452 61.5077 21.9682 61.5883 21.9946 61.6803C22.0103 61.7569 22.0366 61.849 22.063 61.9411C22.0721 61.9947 22.0992 62.0677 22.1222 62.1483L22.1387 62.2059L22.2045 62.4361C22.4867 63.3573 22.8573 64.3262 23.3029 65.2967L23.4621 65.6357L23.4933 65.7011C23.5942 65.9016 23.6845 66.0865 23.7747 66.2715C23.9035 66.5259 24.0364 66.7728 24.1799 67.0352C24.2324 67.1316 24.2849 67.2281 24.3414 67.317L24.4325 67.4829L24.471 67.5523C24.5341 67.6643 24.5833 67.7492 24.6399 67.8381L24.7948 68.0969C24.8932 68.2668 25.0063 68.4446 25.1194 68.6224C25.176 68.7113 25.2326 68.8002 25.2891 68.8891C25.3277 68.9586 25.3916 69.0515 25.4481 69.1404L25.6145 69.3956C25.6784 69.4885 25.7423 69.5813 25.8062 69.6742L25.8915 69.7981L25.9693 69.9179C26.3462 70.4522 26.7345 70.9828 27.1351 71.4908L27.2637 71.6576L27.3512 71.7242L27.5625 71.9842C27.6665 72.1084 27.7665 72.2402 27.8852 72.3724C27.9351 72.4382 27.9998 72.5121 28.0645 72.5859L28.1038 72.6363L28.2332 72.7839L28.2979 72.8578L28.3839 72.9625L28.4666 73.0558L28.5313 73.1296L28.8433 73.5023C28.854 73.5178 28.9006 73.5722 28.9154 73.5801L29.0054 73.6774L29.1061 73.7901L29.1708 73.8639L29.3362 74.0504L29.4443 74.1671L29.545 74.2798L29.938 74.6962L30.0354 74.7974C30.0428 74.8014 30.0608 74.8208 30.0641 74.8323L30.2663 75.0387C30.353 75.1244 30.4357 75.2177 30.5225 75.3034C30.6093 75.3892 30.696 75.4749 30.7828 75.5606C31.1045 75.8801 31.4442 76.2191 31.7994 76.5469L31.9263 76.664L32.0531 76.781C32.5205 77.218 32.9886 77.6359 33.4428 78.0269C33.5189 78.0971 33.6097 78.1753 33.7005 78.2535C34.4419 78.8869 35.2283 79.5251 36.0268 80.1407C36.2272 80.2974 36.4318 80.4466 36.6396 80.6074C37.0372 80.9094 37.461 81.2158 37.8888 81.5146L38.2144 81.7389C38.324 81.8174 38.4557 81.9079 38.5947 82.0024L39.1731 82.3921C39.3964 82.5417 39.6197 82.6913 39.8471 82.8334L40.1767 83.0501C40.6127 83.3339 41.0674 83.618 41.5262 83.8946L41.9262 84.1395L42.3523 84.3887C42.4807 84.4677 42.6279 84.5471 42.7636 84.63L43.1423 84.8439C43.3148 84.9467 43.4915 85.0419 43.6681 85.1372L43.9404 85.284L44.1023 85.3713L44.2421 85.4467L44.4114 85.538C49.7987 88.4429 55.4364 90.4607 60.709 91.3762C62.0645 91.6106 63.4043 91.7684 64.6868 91.8564C65.6507 91.9186 66.5901 91.9383 67.4786 91.9112C68.1826 91.8917 68.8686 91.8527 69.5407 91.7867C69.7334 91.7641 69.9334 91.7454 70.1302 91.7152L70.4062 91.6791C70.5083 91.666 70.6103 91.6529 70.7165 91.6322C72.9414 91.2937 74.9157 90.6449 76.5896 89.7075C77.3515 89.2811 78.0634 88.7888 78.6951 88.2338L78.7653 88.1743L78.8704 88.085C78.9446 88.0179 79.0188 87.9508 79.0929 87.8837C79.1476 87.8353 79.1948 87.7828 79.2494 87.7344C79.2967 87.682 79.3472 87.6411 79.3904 87.5963C79.8101 87.1703 80.2329 86.6681 80.5927 86.1417C80.7645 85.8936 80.9371 85.6265 81.0908 85.3589C82.9402 82.1407 83.0987 78.1471 81.5527 73.8087C81.5289 73.7472 81.5018 73.6742 81.4787 73.5936C81.4754 73.5821 81.4721 73.5706 81.4648 73.5666C80.814 71.8138 79.8944 70.0134 78.7191 68.2115C78.4749 67.8364 78.216 67.4534 77.9382 67.0699C76.7682 65.4168 75.3875 63.7669 73.8427 62.1746C70.3856 58.597 66.0428 55.2525 61.2847 52.5019C60.7401 52.2083 60.1963 51.8955 59.6443 51.5979Z" fill="#6A8F00"/>
<path opacity="0.07" d="M78.9147 84.127C78.7934 84.3342 78.6689 84.5299 78.537 84.7217C78.2537 85.1238 77.945 85.5025 77.5962 85.8499C77.5571 85.8872 77.5294 85.9209 77.4903 85.9583C77.4511 85.9956 77.4234 86.0293 77.3843 86.0666C77.3297 86.1151 77.2865 86.1599 77.2319 86.2084C77.1814 86.2493 77.1341 86.3017 77.0835 86.3425C76.5806 86.782 76.0195 87.1707 75.4077 87.5125C73.9875 88.3141 72.2923 88.8506 70.385 89.1461C70.3017 89.1596 70.2111 89.1692 70.1278 89.1827C70.0445 89.1962 69.9539 89.2057 69.8706 89.2192C69.6967 89.2423 69.5154 89.2614 69.3456 89.2769C68.7413 89.3404 68.1117 89.3806 67.4681 89.3938C66.6113 89.3796 65.7578 89.3769 64.9017 89.3437C63.8578 89.3065 62.8155 89.2312 61.7689 89.0757C56.0121 88.2302 50.5594 86.0103 45.4901 83.2379C45.3871 83.1824 45.284 83.1268 45.181 83.0713C45.0927 83.0236 45.0044 82.976 44.9161 82.9284C44.7468 82.8371 44.5816 82.7383 44.4123 82.647C44.2946 82.5835 44.1735 82.5085 44.0558 82.445C43.9273 82.3661 43.7875 82.2907 43.6591 82.2117C43.5233 82.1287 43.3835 82.0533 43.2477 81.9704C43.1193 81.8914 42.9909 81.8124 42.8625 81.7335C42.4184 81.4648 41.9858 81.1925 41.5571 80.9128C41.4508 80.8457 41.3445 80.7786 41.2422 80.704C41.0296 80.5699 40.821 80.4282 40.6124 80.2865C40.4259 80.1567 40.2353 80.0345 40.0488 79.9047C39.9245 79.8182 39.8075 79.7356 39.6831 79.6491C39.5809 79.5745 39.4745 79.5075 39.3796 79.4368C38.9739 79.1499 38.5722 78.8554 38.1779 78.5649C37.9807 78.4196 37.7876 78.2668 37.5905 78.1216C36.8173 77.5294 36.0711 76.9226 35.3591 76.305C35.2756 76.2308 35.1955 76.1681 35.112 76.0939C34.6578 75.703 34.2224 75.3124 33.7952 74.9068C33.7117 74.8326 33.6323 74.7508 33.5415 74.6727C33.2083 74.3567 32.8826 74.0448 32.5682 73.7293C32.4888 73.6475 32.4094 73.5657 32.3333 73.4955C32.2539 73.4137 32.1745 73.332 32.1024 73.2542C32.0377 73.1804 31.9616 73.1101 31.8969 73.0363C31.8609 72.9974 31.8249 72.9585 31.7889 72.9196C31.6701 72.7874 31.5474 72.6628 31.4286 72.5306C31.3566 72.4528 31.2772 72.3711 31.2051 72.2933C31.1331 72.2155 31.061 72.1377 30.9857 72.0484C30.921 71.9746 30.8596 71.9123 30.7949 71.8385C30.7769 71.819 30.7589 71.7996 30.7482 71.7841C30.6475 71.6714 30.5542 71.5626 30.4535 71.4499C30.4068 71.3955 30.3601 71.3411 30.3134 71.2868C30.2561 71.2169 30.1947 71.1546 30.1374 71.0848C30.0907 71.0304 30.0367 70.972 29.99 70.9177C29.94 70.8518 29.886 70.7934 29.8287 70.7236C29.7247 70.5993 29.6206 70.4751 29.5281 70.3473C29.4634 70.2735 29.4028 70.1921 29.3421 70.1108C29.2815 70.0294 29.2135 69.9441 29.1488 69.8702C28.7737 69.3856 28.41 68.8974 28.0724 68.4136C28.0191 68.3362 27.9585 68.2548 27.9019 68.1659C27.8487 68.0885 27.7881 68.0072 27.7389 67.9222C27.6856 67.8448 27.629 67.7559 27.5758 67.6785C27.5225 67.6011 27.4733 67.5162 27.4201 67.4388C27.3668 67.3614 27.3176 67.2765 27.2643 67.1991C27.1619 67.0367 27.0594 66.8744 26.9643 66.716C26.9151 66.6311 26.8692 66.5577 26.82 66.4727C26.7709 66.3878 26.7249 66.3144 26.6758 66.2294C26.6339 66.1484 26.5807 66.071 26.5388 65.9901C26.4896 65.9051 26.4478 65.8242 26.3986 65.7392C26.269 65.5039 26.1427 65.28 26.032 65.045C25.9409 64.8791 25.8613 64.7096 25.7817 64.5402C25.7194 64.4092 25.6603 64.2897 25.6053 64.1627C25.208 63.2962 24.8778 62.4464 24.626 61.6097C24.6096 61.5521 24.5857 61.4906 24.5733 61.4255C24.5503 61.3449 24.5272 61.2644 24.5075 61.1953C24.4844 61.1147 24.4687 61.0381 24.4416 60.9651C24.4153 60.873 24.393 60.7734 24.3667 60.6813C24.3411 60.5701 24.3155 60.459 24.29 60.3479C24.2874 60.3173 24.2776 60.2828 24.2677 60.2482C24.2479 60.1792 24.2396 60.1065 24.2272 60.0414C24.2115 59.9648 24.1958 59.8882 24.1875 59.8156C24.1627 59.6854 24.1453 59.5592 24.1205 59.429C24.1081 59.3639 24.103 59.3028 24.0907 59.2377C24.0815 59.1841 24.0724 59.1305 24.0748 59.0733C24.0581 58.928 24.0374 58.7903 24.0281 58.649C24.023 58.5879 24.018 58.5267 24.013 58.4656C24.0079 58.4045 24.007 58.3358 24.0019 58.2747C24.0027 58.2556 24.0035 58.2366 24.0002 58.2251C23.9952 58.1639 23.9942 58.0953 23.9891 58.0341C23.9882 57.9655 23.9831 57.9043 23.9822 57.8357C23.9789 57.8242 23.9797 57.8051 23.9837 57.7976C23.9787 57.7364 23.9851 57.6717 23.98 57.6106C23.9804 57.4161 23.9882 57.2256 23.9959 57.035C23.9942 56.9854 23.9998 56.9398 24.0095 56.8866C24.0141 56.7723 24.0302 56.6544 24.0348 56.5401C24.0453 56.4678 24.0517 56.4031 24.0621 56.3309C24.0718 56.2777 24.0782 56.213 24.0879 56.1598C24.0935 56.1141 24.0991 56.0685 24.1088 56.0153C24.1185 55.9621 24.1282 55.9089 24.1338 55.8633C24.1394 55.8176 24.1491 55.7644 24.1661 55.7152C24.1717 55.6696 24.1814 55.6164 24.1944 55.5747C24.2308 55.4191 24.2672 55.2635 24.2995 55.1154C24.3092 55.0622 24.3263 55.013 24.3433 54.9638C24.3563 54.9221 24.3693 54.8804 24.3782 54.8463C24.3952 54.7971 24.4082 54.7554 24.4252 54.7062C24.5283 54.3918 24.646 54.0853 24.7785 53.7868C24.8036 53.7225 24.8362 53.6622 24.8687 53.6018C24.959 53.4168 25.0566 53.2358 25.1542 53.0548C26.6675 50.4245 29.5168 48.7872 33.1989 48.1246C32.8433 48.7312 32.3545 49.2854 31.9393 49.8793C31.1683 50.992 31.1075 51.9327 31.3188 53.3025C31.7124 55.8318 32.9657 58.2113 34.2047 60.3883C37.6584 66.4563 43.2103 71.4166 49.2329 74.6057C53.1498 76.6788 57.4689 78.1997 61.7472 79.3384C65.151 80.249 68.7231 81.1822 72.2885 80.8947C74.0466 80.7524 75.6121 80.2628 77.0718 79.2294C78.8104 77.9959 78.7939 76.4586 79.1903 74.7545C80.4248 78.2434 80.4239 81.5043 78.9147 84.127Z" fill="white"/>
<g opacity="0.08">
<path d="M73.5135 65.093C72.4284 64.1281 71.1493 63.3995 69.6243 62.9861C70.1926 62.8836 70.7285 62.9292 71.2076 63.1681C72.0956 63.6177 72.842 64.3123 73.5135 65.093Z" fill="black"/>
</g>
<g opacity="0.08">
<path d="M76.9809 69.9904C76.8893 69.9312 76.7911 69.8491 76.6897 69.7554C76.0488 69.147 75.6182 67.99 75.1143 67.2509C74.6316 66.5428 74.1097 65.7844 73.5209 65.0969C74.9653 66.382 76.0693 68.0872 76.9809 69.9904Z" fill="black"/>
</g>
<path d="M53.7594 68.5378C53.465 68.3791 53.1706 68.2203 52.8803 68.054L52.4575 67.8163C39.6015 60.3876 32.6821 49.1019 36.6997 42.1268C38.0389 39.8017 40.484 38.2093 43.7569 37.5306C49.643 36.3041 57.7663 38.0461 65.4866 42.209C65.9208 42.4432 66.3583 42.6888 66.7918 42.942C70.0728 44.8378 73.0262 47.0242 75.579 49.4424C79.0805 52.7616 81.5877 56.304 82.8188 59.6937C84.0613 63.0798 83.9693 66.1747 82.5496 68.6316C82.4405 68.8162 82.3315 69.0007 82.2077 69.1774C82.1955 69.2 82.18 69.2111 82.1678 69.2338C81.856 69.6887 81.4813 70.1194 81.0664 70.5188L80.7852 70.776C79.3155 72.0571 77.3547 72.9275 74.9536 73.3461C74.658 73.4009 74.3706 73.4407 74.0759 73.4764L73.6831 73.5178C73.483 73.5364 73.3507 73.5527 73.2225 73.5615C69.1141 73.8871 64.2754 73.0303 59.2513 71.0903C57.4046 70.3573 55.5625 69.5101 53.7594 68.5378Z" fill="#F77928"/>
<path d="M64.8692 43.3364C65.296 43.5666 65.7188 43.8043 66.1375 44.0495C69.4039 45.9374 72.2943 48.0995 74.6876 50.3733C78.0516 53.5599 80.4588 56.9705 81.6232 60.1491C82.6964 63.074 82.7131 65.8089 81.4512 67.9906C81.3584 68.145 81.2616 68.307 81.1615 68.4575C81.1574 68.465 81.1534 68.4725 81.1493 68.4801C80.8774 68.8786 80.558 69.2419 80.2059 69.5777C80.1668 69.615 80.1236 69.6599 80.0771 69.6933L80.0731 69.7008C80.038 69.7306 80.003 69.7603 79.9679 69.7901C78.6539 70.941 76.8668 71.7006 74.7498 72.068C74.4771 72.1157 74.2085 72.1558 73.9366 72.1844C73.8647 72.1943 73.7929 72.2043 73.7137 72.2102C73.6418 72.2202 73.57 72.2301 73.4948 72.2285C73.374 72.2412 73.2572 72.2464 73.1363 72.2591C69.2884 72.5597 64.5903 71.7592 59.6994 69.8716C57.9296 69.1898 56.1391 68.3704 54.358 67.41C54.071 67.2552 53.784 67.1005 53.501 66.9381C53.3612 66.8627 53.2254 66.7798 53.0856 66.7044C41.0269 59.7348 34.1709 49.0187 37.7719 42.7633C38.9614 40.6983 41.1474 39.375 43.9729 38.786C49.4083 37.6378 57.2004 39.2012 64.8692 43.3364ZM66.0966 41.0777C66.0893 41.0737 66.0893 41.0737 66.0966 41.0777C58.1261 36.7798 49.6891 34.9854 43.5221 36.2747C39.8811 37.0372 37.1416 38.8408 35.6121 41.5013C31.2381 49.102 38.356 61.1471 51.8107 68.9278L52.2408 69.1695C52.5459 69.3437 52.8476 69.5064 53.1494 69.6691C54.9966 70.6652 56.8828 71.5363 58.7712 72.2624C63.9768 74.2711 68.9953 75.1469 73.2882 74.8138C73.405 74.8086 73.5487 74.7888 73.6957 74.7804L73.7863 74.7709L73.9186 74.7546C74.0093 74.745 74.0925 74.7315 74.1832 74.722C74.5008 74.6791 74.8184 74.6362 75.1328 74.5818C77.7723 74.1261 79.9476 73.1574 81.6049 71.7048C81.6049 71.7048 81.6359 71.6825 81.6399 71.675C81.675 71.6452 81.71 71.6154 81.7377 71.5817L81.7418 71.5741C81.8119 71.5146 81.8747 71.4511 81.9333 71.3951C82.3947 70.9624 82.8289 70.4566 83.1968 69.9152C83.205 69.9001 83.2131 69.885 83.2245 69.8814C83.3686 69.6671 83.5013 69.4563 83.6266 69.2415C85.2408 66.4417 85.367 62.9661 83.9889 59.2148C82.6823 55.6481 80.0727 51.9434 76.4337 48.4916C73.8121 46.0071 70.7859 43.762 67.4239 41.8225C66.9831 41.5654 66.5382 41.3158 66.0966 41.0777Z" fill="#E87226"/>
<path opacity="0.07" d="M81.4733 68.0024C81.3732 68.1529 81.269 68.3109 81.1615 68.4574C81.1574 68.4649 81.1533 68.4725 81.1493 68.48C80.8586 68.8782 80.5425 69.2529 80.2059 69.5776C80.1668 69.615 80.1236 69.6598 80.0771 69.6932L80.0731 69.7007C80.038 69.7305 80.003 69.7603 79.9679 69.79C78.4933 71.0977 76.6015 71.7521 74.7498 72.0679C74.4771 72.1156 74.2085 72.1557 73.9366 72.1843C73.8647 72.1942 73.7929 72.2042 73.7137 72.2101C73.6418 72.2201 73.5699 72.23 73.4948 72.2284C73.374 72.2411 73.2572 72.2463 73.1363 72.259C66.2197 72.8422 59.2722 70.2058 53.4977 66.9265C53.3579 66.8511 53.2221 66.7682 53.0823 66.6928C41.0237 59.7232 34.1676 49.0071 37.7686 42.7517C38.9581 40.6867 41.1441 39.3634 43.9696 38.7744C43.7974 39.217 43.5689 39.6585 43.3787 40.0816C41.4527 44.4462 44.2862 47.8238 46.6425 51.0998C49.4117 54.949 53.1464 58.0824 57.3062 60.2865C60.483 61.9703 64.0019 63.196 67.4727 64.1233C71.0441 65.0755 77.3629 66.7109 80.413 63.5561C81.2768 62.6589 81.724 61.3715 81.6159 60.145C81.6083 60.0533 81.6008 59.9616 81.5818 59.8735C81.6713 60.4475 82.334 60.9801 82.4547 61.6195C82.5407 62.0943 82.4741 62.623 82.5479 63.1204C82.7327 64.3104 82.8801 65.2173 82.3477 66.3808C82.1153 66.9175 81.8143 67.4757 81.4733 68.0024Z" fill="white"/>
<path d="M61.069 55.3159C60.701 55.1175 60.3371 54.9115 59.9772 54.698C53.5908 50.9331 48.8995 45.5218 47.7279 40.5772C47.1663 38.2008 47.4547 36.0101 48.546 34.2329C49.0213 33.4572 49.4992 32.7998 50.015 32.2309C54.174 27.5128 60.9892 27.9458 71.4546 33.589C71.7417 33.7438 72.0287 33.8986 72.319 34.0649C81.8657 39.3684 85.9753 44.7484 84.8831 50.5264C84.6475 51.7914 84.1594 53.0665 83.3979 54.4082C83.1067 54.9132 82.7997 55.3415 82.4501 55.7079C79.658 58.8071 74.1484 59.6525 67.738 57.9579C65.4644 57.3648 63.218 56.4747 61.069 55.3159Z" fill="#DD5B70"/>
<path d="M70.8487 34.7129C71.1283 34.8637 71.4154 35.0185 71.6983 35.1808C82.3702 41.1105 84.4235 46.1994 83.6436 50.3059C83.4047 51.5594 82.9025 52.7197 82.3062 53.7904C82.0914 54.1711 81.8366 54.5204 81.5416 54.8384C79.0134 57.6419 73.7442 58.2177 68.0815 56.7219C65.9567 56.17 63.7839 55.3196 61.679 54.1846C61.3258 53.9941 60.9766 53.7961 60.6314 53.5905C51.641 48.2949 46.529 39.9114 49.6174 34.8885C50.0121 34.2446 50.4469 33.6321 50.9471 33.0744C53.8963 29.7191 59.0364 28.3435 70.8487 34.7129ZM72.0688 32.4502C60.9998 26.4816 53.6956 26.1451 49.0714 31.3912C48.5239 32.0013 47.9946 32.7187 47.4787 33.5698C46.2059 35.6483 45.866 38.1812 46.5042 40.891C47.7419 46.1535 52.6577 51.8708 59.3271 55.7981C59.7017 56.0195 60.0729 56.2295 60.4556 56.4358C62.693 57.6422 65.0244 58.5684 67.4059 59.1905C74.2666 61.0013 80.2332 60.013 83.3749 56.5474C83.784 56.1059 84.1463 55.6101 84.4783 55.0297C85.3211 53.5371 85.8595 52.1335 86.1234 50.7279C87.3344 44.3422 83.0171 38.5193 72.9446 32.9224C72.6502 32.7637 72.3558 32.605 72.0688 32.4502Z" fill="#C44558"/>
<path opacity="0.04" d="M82.3103 53.7828C82.0955 54.1635 81.8406 54.5128 81.5457 54.8308C79.0175 57.6343 73.7483 58.2101 68.0856 56.7143C65.6037 56.0672 63.0588 55.026 60.6355 53.583C51.6451 48.2873 46.5331 39.9038 49.6215 34.881C50.0162 34.2371 50.451 33.6245 50.9512 33.0668C51.2846 34.5803 51.8211 35.9989 52.0771 36.5458C53.2993 39.2298 55.3011 41.419 57.4126 43.3169C62.5382 47.9403 69.0523 51.8033 76.1677 52.0672C78.4769 52.1538 81.4538 51.7244 83.6591 50.2947C83.4087 51.5519 82.9139 52.7161 82.3103 53.7828Z" fill="white"/>
<path opacity="0.14" d="M41.9078 50.1044C41.131 51.175 39.6464 50.5984 38.9076 49.6256C37.7337 48.0678 37.1373 45.069 38.258 43.3076C38.6357 42.713 39.2938 42.2501 39.98 42.2988C40.5085 42.3404 40.9724 42.6782 41.2821 43.108C41.5917 43.5379 41.7587 44.0562 41.8881 44.5738C42.197 45.7626 42.35 46.9939 42.3487 48.2296C42.3507 48.7369 42.3183 49.2549 42.1111 49.7273C42.0567 49.8634 41.9875 49.9916 41.9078 50.1044Z" fill="white"/>
<path opacity="0.14" d="M31.3851 63.823C31.0965 64.0763 30.709 64.2665 30.1931 64.3777C29.1685 64.6041 28.0838 64.1847 27.3267 63.4746C25.7544 62.0038 25.1131 59.3701 25.23 57.233C25.2935 56.0406 25.7269 54.814 26.631 54.0359C27.5351 53.2578 28.968 53.0667 29.882 53.8029C30.4392 54.2494 30.734 54.9535 30.9658 55.6335C31.5422 57.3656 33.0383 62.378 31.3851 63.823Z" fill="white"/>
<path opacity="0.14" d="M19.0374 74.7767C18.9909 74.81 18.937 74.8394 18.8832 74.8688C18.1424 75.2384 17.2348 75.1774 16.5014 74.8111C14.3673 73.748 12.8879 70.3607 13.6922 68.0588C14.1386 66.7905 15.3287 65.7285 16.6453 65.7181C17.9995 65.7084 19.1633 66.774 19.6953 68.0247C20.421 69.6913 20.9133 73.588 19.0374 74.7767Z" fill="white"/>
<path d="M67.9845 40.6941C63.682 38.2086 61.6351 33.0549 62.9956 28.1712C63.2549 27.2499 63.6295 26.3615 64.107 25.5287C67.1573 20.2419 73.6397 18.3148 78.8724 21.1364C78.9681 21.188 79.0564 21.2356 79.148 21.2947C80.1253 21.8606 80.9992 22.5655 81.7402 23.3934C84.9612 26.9508 85.4736 32.2018 83.0181 36.4561C79.9793 41.7393 73.4855 43.67 68.2527 40.8484C68.1644 40.8008 68.0687 40.7492 67.9845 40.6941Z" fill="#56CDE8"/>
<path d="M78.2628 22.2677C78.3438 22.3114 78.4321 22.359 78.5131 22.4026C79.3873 22.913 80.1589 23.5432 80.7992 24.2584C83.5593 27.3141 84.148 31.9833 81.9309 35.8307C79.2484 40.4883 73.4483 42.1895 68.8632 39.7171C68.7823 39.6734 68.694 39.6258 68.613 39.5821C64.7219 37.3379 63.0177 32.7293 64.1974 28.4978C64.4219 27.6939 64.7509 26.9076 65.1838 26.1577C67.8777 21.4965 73.6778 19.7953 78.2628 22.2677ZM79.4829 20.005C73.6467 16.858 66.4183 19.0059 63.0198 24.9032C62.482 25.8302 62.0693 26.8245 61.7759 27.8443C60.2493 33.3004 62.5319 39.0387 67.334 41.8131C67.4371 41.8687 67.5361 41.9318 67.6464 41.9913C73.4827 45.1383 80.7111 42.9904 84.1096 37.0931C86.8408 32.3449 86.2667 26.4862 82.6788 22.5168C81.8551 21.5957 80.883 20.8086 79.7953 20.1832C79.6964 20.1201 79.5933 20.0645 79.4829 20.005Z" fill="#4AB5CC"/>
<g opacity="0.41">
<path d="M81.9384 35.835C79.2071 40.5831 73.2428 42.2541 68.6205 39.5865C64.7294 37.3422 63.0251 32.7336 64.2049 28.5021C64.4764 29.4079 64.9268 30.264 65.5645 30.9486C66.3464 31.7889 67.3409 32.3933 68.3841 32.8195C70.5137 33.7147 72.9345 34.0173 75.189 33.4125C77.4435 32.8077 79.5081 31.2339 80.494 29.0884C81.1906 27.5851 81.3083 25.7988 80.7993 24.2588C83.5668 27.3184 84.1514 31.9951 81.9384 35.835Z" fill="#4AB5CC"/>
</g>
<path d="M58.8143 33.9189C58.8143 33.9189 63.9174 43.0765 78.6143 45.3647" stroke="#C44558" stroke-width="3" stroke-miterlimit="10" stroke-linecap="round" stroke-linejoin="round"/>
<path d="M71.202 23.4351C70.2536 23.7318 69.3883 24.2971 68.8797 25.1522C67.9228 26.7682 68.7686 28.8112 70.5076 29.2329C73.1325 29.8792 78.6076 27.1071 75.3821 24.1217C74.4867 23.2982 73.1761 23.0685 71.9653 23.2528C71.7114 23.3009 71.4534 23.3565 71.202 23.4351Z" fill="#72DBF2"/>
</g>
<defs>
<clipPath id="clip0_229_16106">
<rect width="77.2764" height="92.9732" fill="white" transform="translate(44.1268 0.94043) rotate(28.3345)"/>
</clipPath>
</defs>
</svg>
