<svg width="75" height="80" viewBox="0 0 75 80" fill="none" xmlns="http://www.w3.org/2000/svg">
<g clip-path="url(#clip0_191_6486)">
<path d="M71.336 63.1027C71.0681 63.1027 70.8151 62.9837 70.6464 62.7754C70.0312 62.0116 66.7222 58.1827 62.0339 57.7661C58.318 57.4388 57.0778 57.3594 56.666 57.3396C56.3981 57.3296 56.155 57.2156 55.9714 57.0172C55.7928 56.8188 55.6986 56.5658 55.7134 56.298C55.7134 56.2534 55.7234 56.2038 55.7333 56.1592C56.1004 54.6316 56.403 53.0693 56.6313 51.5119C57.3903 46.3687 57.3953 41.161 56.6461 36.0376C56.6114 35.7897 56.7007 35.5417 56.8892 35.373C57.0281 35.249 57.2018 35.1846 57.3853 35.1846C57.4498 35.1846 57.5143 35.1945 57.5788 35.2094C58.7397 35.5169 59.8262 36.0376 60.7341 36.5038C64.1077 38.2348 67.005 40.7791 69.1234 43.8541C70.572 45.957 71.6684 48.3327 72.3927 50.9217C72.7549 52.2112 73.1816 53.9124 73.2709 55.6433C73.375 57.6768 72.9236 59.6557 72.5267 61.4016C72.5217 61.4313 72.4671 61.595 72.3977 61.7983C72.3282 62.0066 72.2389 62.2745 72.1744 62.4729C72.0653 62.8498 71.7279 63.1027 71.336 63.1027Z" fill="#FEAE2E"/>
<path d="M57.3853 35.9283C58.4271 36.2061 59.4392 36.6773 60.3918 37.1683C63.6264 38.8298 66.4443 41.2848 68.5081 44.2805C69.9419 46.3636 70.9937 48.6946 71.6733 51.1249C72.0851 52.5929 72.4473 54.1602 72.5267 55.6878C72.6259 57.5675 72.2141 59.4225 71.8023 61.2427C71.7874 61.3071 71.5791 61.9023 71.4699 62.2644C71.4501 62.3288 71.3955 62.3636 71.336 62.3636C71.2963 62.3636 71.2566 62.3487 71.2268 62.314C70.4331 61.3319 67.0297 57.4683 62.0984 57.0319C58.452 56.7095 57.1571 56.6252 56.6957 56.6053C56.5568 56.6004 56.4477 56.4813 56.4526 56.3425C56.8247 54.7901 57.1323 53.2129 57.3655 51.6308C58.1344 46.433 58.1444 41.1211 57.3853 35.9283ZM57.3853 34.4404C57.0231 34.4404 56.6709 34.5694 56.3931 34.8174C56.021 35.1497 55.8374 35.6506 55.9119 36.1416C56.6511 41.1955 56.6461 46.3338 55.897 51.4026C55.6688 52.9352 55.3711 54.4776 55.0089 55.9804C54.9891 56.0747 54.9742 56.1639 54.9692 56.2582C54.9494 56.7244 55.1082 57.1707 55.4257 57.513C55.7382 57.8552 56.1698 58.0585 56.6362 58.0784C57.038 58.0933 58.2634 58.1726 61.9694 58.4999C66.36 58.8868 69.4855 62.5123 70.0659 63.2315C70.3735 63.6184 70.8399 63.8366 71.331 63.8366C72.0504 63.8366 72.6804 63.3753 72.8888 62.6859C72.9483 62.4975 73.0377 62.2346 73.1021 62.0313C73.1964 61.7486 73.2262 61.6642 73.251 61.5601C73.6379 59.8539 74.1241 57.7362 74.01 55.5985C73.9158 53.7981 73.4792 52.0424 73.1071 50.7132C72.3629 48.0499 71.2268 45.5998 69.7335 43.4274C67.5457 40.2482 64.5541 37.6246 61.0714 35.8341C60.1238 35.3481 58.9927 34.8074 57.7673 34.4801C57.6433 34.4603 57.5143 34.4404 57.3853 34.4404Z" fill="#DB7D1F"/>
<path d="M69.1779 50.6143C69.4738 50.6143 69.7137 50.3744 69.7137 50.0786C69.7137 49.7828 69.4738 49.543 69.1779 49.543C68.882 49.543 68.6421 49.7828 68.6421 50.0786C68.6421 50.3744 68.882 50.6143 69.1779 50.6143Z" fill="#DB7D1F"/>
<path d="M68.5329 47.0879C68.8288 47.0879 69.0687 46.8481 69.0687 46.5523C69.0687 46.2564 68.8288 46.0166 68.5329 46.0166C68.237 46.0166 67.9971 46.2564 67.9971 46.5523C67.9971 46.8481 68.237 47.0879 68.5329 47.0879Z" fill="#DB7D1F"/>
<path d="M65.0205 49.6025C65.3164 49.6025 65.5563 49.3627 65.5563 49.0669C65.5563 48.7711 65.3164 48.5312 65.0205 48.5312C64.7246 48.5312 64.4847 48.7711 64.4847 49.0669C64.4847 49.3627 64.7246 49.6025 65.0205 49.6025Z" fill="#DB7D1F"/>
<path d="M64.5392 45.8877C64.8351 45.8877 65.075 45.6479 65.075 45.3521C65.075 45.0562 64.8351 44.8164 64.5392 44.8164C64.2433 44.8164 64.0034 45.0562 64.0034 45.3521C64.0034 45.6479 64.2433 45.8877 64.5392 45.8877Z" fill="#DB7D1F"/>
<path d="M60.4165 48.6152C60.7125 48.6152 60.9523 48.3754 60.9523 48.0796C60.9523 47.7838 60.7125 47.5439 60.4165 47.5439C60.1206 47.5439 59.8807 47.7838 59.8807 48.0796C59.8807 48.3754 60.1206 48.6152 60.4165 48.6152Z" fill="#DB7D1F"/>
<path d="M59.851 44.9053C60.1469 44.9053 60.3868 44.6655 60.3868 44.3696C60.3868 44.0738 60.1469 43.834 59.851 43.834C59.5551 43.834 59.3152 44.0738 59.3152 44.3696C59.3152 44.6655 59.5551 44.9053 59.851 44.9053Z" fill="#DB7D1F"/>
<path d="M71.4054 49.7812C67.0297 47.5989 62.2224 46.3094 57.3555 46.0068" stroke="#DB7D1F" stroke-width="2" stroke-miterlimit="10" stroke-linecap="round" stroke-linejoin="round"/>
<g opacity="0.23">
<path d="M56.4477 56.595C56.4477 56.595 56.4477 56.5256 62.1034 57.0265C62.5896 57.0711 66.0574 57.5671 66.1318 58.1573C65.4372 52.6074 63.5669 46.8293 61.1062 41.8151C60.5704 40.7289 59.9899 39.6626 59.3648 38.626C59.0275 38.0656 58.0898 36.042 57.435 36.042C57.4647 38.6111 57.9608 41.1902 57.9559 43.7841C57.9509 46.4078 57.7624 49.0265 57.3754 51.6254C57.1423 53.2075 56.8396 54.7847 56.4626 56.3371L56.4477 56.595Z" fill="#DB7D1F"/>
</g>
<g opacity="0.5">
<path d="M56.4477 56.8831C56.4477 56.8831 56.4477 56.8137 62.1034 57.3146C66.7172 57.7213 69.9965 61.1336 71.0483 62.3735C71.1971 62.5521 71.4849 62.4925 71.5593 62.2743C71.6684 61.942 71.7974 61.58 71.8073 61.5304C71.9214 61.0294 72.0355 60.5285 72.1348 60.0276C70.4629 58.2619 66.9355 55.1968 62.2324 54.7802C59.5236 54.5421 57.9112 54.4132 56.9587 54.3438C56.8099 55.1075 56.6461 55.8713 56.4626 56.6252L56.4477 56.8831Z" fill="#DB7D1F"/>
</g>
<g opacity="0.5">
<path d="M56.4477 56.7389C56.4477 56.7389 56.4477 56.6694 62.1034 57.1704C66.7172 57.582 69.9965 60.9893 71.0483 62.2293C71.1971 62.4078 71.4849 62.3532 71.5593 62.1301C71.599 62.016 71.6386 61.897 71.6734 61.7878C70.2297 60.1759 66.6676 56.8083 61.8057 56.3768C59.0622 56.1338 57.4895 56.0098 56.5916 55.9453C56.5519 56.1239 56.5072 56.3024 56.4675 56.481L56.4477 56.7389Z" fill="#DB7D1F"/>
</g>
<g opacity="0.21">
<path d="M60.5803 39.3401C60.3669 39.0872 59.6972 38.5168 60.5604 38.3829C60.9226 38.3284 61.2748 38.4722 61.5725 38.616C64.7178 40.1535 67.0992 42.5987 68.3196 45.1876C68.5131 45.5943 68.8802 47.8411 67.4316 46.8491C67.1736 46.6706 67.0347 46.4226 66.8958 46.1845C65.6604 44.0469 63.8844 42.0829 61.6767 40.4065C61.4832 40.2676 60.9771 39.8113 60.5803 39.3401Z" fill="white"/>
</g>
<g opacity="0.21">
<path d="M69.4507 50.6187C68.9596 50.8023 68.9149 51.4768 68.9596 52.0025C69.0588 53.1978 69.158 54.398 69.2573 55.5933C69.3019 56.1339 69.3515 56.6944 69.6045 57.1755C69.6938 57.3491 69.8278 57.5226 70.0213 57.5623C70.3537 57.6268 70.6067 57.2697 70.7406 56.9572C71.3012 55.6181 71.46 54.1104 71.202 52.6869C71.073 52.0025 70.5174 50.217 69.4507 50.6187Z" fill="white"/>
</g>
<path d="M2.69887 63.1026C2.30695 63.1026 1.96959 62.8496 1.85548 62.4777C1.79595 62.2793 1.70169 62.0114 1.63223 61.8031C1.56278 61.5998 1.51317 61.4411 1.50821 61.4113C1.11132 59.6655 0.659854 57.6816 0.764037 55.6531C0.853338 53.9222 1.27999 52.221 1.64216 50.9315C2.36648 48.3475 3.46785 45.9718 4.91153 43.8639C7.02993 40.7889 9.92723 38.2446 13.3008 36.5136C14.2136 36.0474 15.3001 35.5266 16.4561 35.2191C16.5206 35.2043 16.5851 35.1943 16.6495 35.1943C16.8281 35.1943 17.0067 35.2588 17.1457 35.3828C17.3342 35.5514 17.4235 35.7994 17.3888 36.0474C16.6396 41.1757 16.6446 46.3834 17.4036 51.5266C17.6319 53.084 17.9345 54.6463 18.3016 56.1739C18.3115 56.2185 18.3214 56.2681 18.3214 56.3127C18.3314 56.5806 18.2421 56.8335 18.0585 57.0319C17.8799 57.2303 17.6318 57.3444 17.3639 57.3543C16.9571 57.3741 15.7169 57.4485 11.996 57.7808C7.3028 58.1974 3.99869 62.0263 3.38351 62.7901C3.21483 62.9835 2.96678 63.1026 2.69887 63.1026Z" fill="#FEAE2E"/>
<path d="M16.6446 35.9283C15.8855 41.1211 15.8954 46.428 16.6595 51.6208C16.8926 53.203 17.1953 54.7802 17.5723 56.3326C17.5773 56.4714 17.4731 56.5905 17.3292 56.5954C16.8678 56.6153 15.573 56.6996 11.9265 57.022C7.00015 57.4584 3.59186 61.322 2.79808 62.304C2.76832 62.3388 2.72863 62.3536 2.68894 62.3536C2.62941 62.3536 2.57483 62.3189 2.55499 62.2544C2.44584 61.8924 2.23252 61.2972 2.22259 61.2327C1.80586 59.4125 1.39905 57.5576 1.49827 55.6779C1.57765 54.1503 1.93981 52.588 2.35158 51.1149C3.03126 48.6797 4.08798 46.3536 5.51678 44.2706C7.57564 41.2749 10.3985 38.8198 13.6332 37.1583C14.5907 36.6773 15.6027 36.2061 16.6446 35.9283ZM16.6446 34.4404C16.5156 34.4404 16.3866 34.4553 16.2626 34.49C15.0372 34.8174 13.9011 35.358 12.9585 35.844C9.48071 37.6345 6.4842 40.2582 4.29634 43.4373C2.80305 45.6097 1.66695 48.0598 0.92278 50.7231C0.550696 52.0523 0.114117 53.8031 0.0198562 55.6084C-0.0892885 57.7411 0.372096 59.7746 0.778908 61.57C0.803713 61.6692 0.828519 61.7535 0.927741 62.0362C0.997197 62.2396 1.0865 62.5024 1.14107 62.6909C1.34944 63.3803 1.9795 63.8415 2.69886 63.8415C3.19497 63.8415 3.65636 63.6184 3.96395 63.2365C4.5444 62.5123 7.6699 58.8918 12.0655 58.5049C15.7714 58.1776 16.9968 58.0982 17.3987 58.0833C17.865 58.0635 18.2917 57.8651 18.6092 57.5179C18.9217 57.1757 19.0854 56.7293 19.0656 56.2631C19.0606 56.1689 19.0458 56.0746 19.0259 55.9854C18.6637 54.4776 18.3661 52.9401 18.1379 51.4026C17.3887 46.3338 17.3838 41.1955 18.123 36.1416C18.1974 35.6456 18.0138 35.1497 17.6418 34.8174C17.359 34.5743 17.0067 34.4404 16.6446 34.4404Z" fill="#DB7D1F"/>
<path d="M4.85196 50.6143C5.14788 50.6143 5.38776 50.3744 5.38776 50.0786C5.38776 49.7828 5.14788 49.543 4.85196 49.543C4.55605 49.543 4.31616 49.7828 4.31616 50.0786C4.31616 50.3744 4.55605 50.6143 4.85196 50.6143Z" fill="#DB7D1F"/>
<path d="M5.50187 47.0879C5.79778 47.0879 6.03767 46.8481 6.03767 46.5523C6.03767 46.2564 5.79778 46.0166 5.50187 46.0166C5.20595 46.0166 4.96606 46.2564 4.96606 46.5523C4.96606 46.8481 5.20595 47.0879 5.50187 47.0879Z" fill="#DB7D1F"/>
<path d="M9.01438 49.6025C9.31029 49.6025 9.55018 49.3627 9.55018 49.0669C9.55018 48.7711 9.31029 48.5312 9.01438 48.5312C8.71846 48.5312 8.47858 48.7711 8.47858 49.0669C8.47858 49.3627 8.71846 49.6025 9.01438 49.6025Z" fill="#DB7D1F"/>
<path d="M9.49064 45.8877C9.78655 45.8877 10.0264 45.6479 10.0264 45.3521C10.0264 45.0562 9.78655 44.8164 9.49064 44.8164C9.19472 44.8164 8.95483 45.0562 8.95483 45.3521C8.95483 45.6479 9.19472 45.8877 9.49064 45.8877Z" fill="#DB7D1F"/>
<path d="M13.6133 48.6152C13.9092 48.6152 14.1491 48.3754 14.1491 48.0796C14.1491 47.7838 13.9092 47.5439 13.6133 47.5439C13.3174 47.5439 13.0775 47.7838 13.0775 48.0796C13.0775 48.3754 13.3174 48.6152 13.6133 48.6152Z" fill="#DB7D1F"/>
<path d="M14.1839 44.9053C14.4798 44.9053 14.7197 44.6655 14.7197 44.3696C14.7197 44.0738 14.4798 43.834 14.1839 43.834C13.888 43.834 13.6481 44.0738 13.6481 44.3696C13.6481 44.6655 13.888 44.9053 14.1839 44.9053Z" fill="#DB7D1F"/>
<path d="M2.62939 49.7812C7.0051 47.5989 11.8124 46.3094 16.6793 46.0068" stroke="#DB7D1F" stroke-width="2" stroke-miterlimit="10" stroke-linecap="round" stroke-linejoin="round"/>
<g opacity="0.23">
<path d="M17.5822 56.595C17.5822 56.595 17.5822 56.5256 11.9266 57.0265C11.4404 57.0711 7.97255 57.5671 7.89813 58.1573C8.59269 52.6074 10.463 46.8293 12.9237 41.8151C13.4595 40.7289 14.04 39.6626 14.6651 38.626C15.0025 38.0656 15.9401 36.042 16.595 36.042C16.5652 38.6111 16.0691 41.1902 16.0741 43.7841C16.079 46.4078 16.2675 49.0265 16.6545 51.6254C16.8877 53.2075 17.1903 54.7847 17.5674 56.3371L17.5822 56.595Z" fill="#DB7D1F"/>
</g>
<g opacity="0.5">
<path d="M17.5822 56.8831C17.5822 56.8831 17.5822 56.8137 11.9265 57.3146C7.31269 57.7213 4.03339 61.1336 2.98163 62.3735C2.83279 62.5521 2.54505 62.4925 2.47063 62.2743C2.36149 61.942 2.2325 61.58 2.22258 61.5304C2.10847 61.0294 1.99436 60.5285 1.89514 60.0276C3.56704 58.2619 7.0944 55.1968 11.7975 54.7802C14.5063 54.5421 16.1187 54.4132 17.0712 54.3438C17.22 55.1075 17.3838 55.8713 17.5673 56.6252L17.5822 56.8831Z" fill="#DB7D1F"/>
</g>
<g opacity="0.5">
<path d="M17.5822 56.7389C17.5822 56.7389 17.5822 56.6694 11.9266 57.1704C7.31273 57.582 4.03343 60.9893 2.98167 62.2293C2.83284 62.4078 2.54509 62.3532 2.47067 62.1301C2.43098 62.016 2.3913 61.897 2.35657 61.7878C3.80025 60.1759 7.36234 56.8083 12.2242 56.3768C14.9677 56.1338 16.5404 56.0098 17.4384 55.9453C17.4781 56.1239 17.5227 56.3024 17.5624 56.481L17.5822 56.7389Z" fill="#DB7D1F"/>
</g>
<g opacity="0.21">
<path d="M13.4496 39.3401C13.663 39.0872 14.3327 38.5168 13.4695 38.3829C13.1073 38.3284 12.7551 38.4722 12.4574 38.616C9.31207 40.1535 6.93073 42.5987 5.71029 45.1876C5.51681 45.5943 5.14969 47.8411 6.59833 46.8491C6.85631 46.6706 6.99522 46.4226 7.13413 46.1845C8.36945 44.0469 10.1455 42.0829 12.3532 40.4065C12.5467 40.2676 13.0528 39.8113 13.4496 39.3401Z" fill="white"/>
</g>
<g opacity="0.21">
<path d="M4.58408 50.6187C5.07523 50.8023 5.11988 51.4768 5.07523 52.0025C4.97601 53.1978 4.87679 54.398 4.77757 55.5933C4.73292 56.1339 4.6833 56.6944 4.43029 57.1755C4.34099 57.3491 4.20704 57.5226 4.01355 57.5623C3.68116 57.6268 3.42814 57.2697 3.29419 56.9572C2.73358 55.6181 2.57483 54.1104 2.83281 52.6869C2.95683 52.0025 3.51744 50.217 4.58408 50.6187Z" fill="white"/>
</g>
<path d="M36.9107 65.9345C33.8993 65.9345 30.8582 65.746 27.8765 65.374C26.542 65.2104 24.7957 64.9525 23.094 64.4267C22.2308 64.1589 21.4668 63.8564 20.7524 63.4943L20.5043 63.3703C19.8544 63.0529 18.9713 62.6164 18.5149 61.9717C18.3859 61.7882 18.2718 61.5699 18.1726 61.3021C18.0436 60.9599 17.9543 60.5879 17.87 60.2606C17.8253 60.0672 17.7807 59.8836 17.7261 59.72C17.4582 58.857 17.2101 57.9692 16.9869 57.0864L16.838 56.4862C16.5453 55.2711 16.2874 54.0163 16.079 52.7714C16.0195 52.4242 15.9649 52.0721 15.9153 51.7249C15.7863 50.8322 15.6722 49.9246 15.5878 49.0268C15.4341 47.4447 15.3497 45.8378 15.3348 44.2457C15.3051 41.4236 15.4985 38.5867 15.9054 35.8142C16.1881 33.8551 16.585 31.896 17.0861 29.9915C17.2498 29.3567 17.4334 28.7169 17.6219 28.0969C17.8402 27.3678 18.0833 26.6239 18.3413 25.8948C18.8622 24.4019 19.4625 22.919 20.1173 21.4906C20.6532 20.3151 21.2435 19.1347 21.8736 17.9791C22.4441 16.9326 23.0643 15.8861 23.7092 14.8743C27.2068 9.3889 31.5726 4.68214 36.6776 0.892932C36.8115 0.793738 36.9653 0.744141 37.1191 0.744141C37.2828 0.744141 37.4465 0.798697 37.5805 0.902851C42.5416 4.82102 46.7883 9.50794 50.2016 14.8247C50.8515 15.8365 51.4716 16.8731 52.0422 17.9097C52.702 19.1 53.3271 20.325 53.8927 21.5551C54.5575 22.9934 55.1627 24.4763 55.6936 25.9593C55.897 26.5247 56.0904 27.095 56.274 27.6654C57.9806 33.002 58.8141 38.5619 58.7546 44.1862C58.7397 45.7832 58.6454 47.3901 58.4817 48.9673C58.3527 50.2073 58.1741 51.4621 57.9558 52.6921C57.7227 53.9766 57.4399 55.2612 57.1124 56.5011C56.7602 57.8452 56.3435 59.1843 55.8771 60.4838C55.763 60.8012 55.6291 61.1632 55.4554 61.5154C55.2669 61.8923 55.0833 62.175 54.875 62.418C54.2796 63.1174 53.4561 63.5241 52.8062 63.7968C50.7324 64.6698 48.5545 65.0368 46.5105 65.3096C43.3453 65.7212 40.1156 65.9345 36.9107 65.9345Z" fill="url(#paint0_radial_191_6486)"/>
<path d="M37.1191 1.48791C41.9711 5.32176 46.2128 9.98884 49.5765 15.2263C50.2165 16.2182 50.8217 17.235 51.3972 18.2666C52.0471 19.442 52.6573 20.6423 53.2229 21.8624C53.8778 23.2808 54.4731 24.734 54.999 26.2071C55.1974 26.7626 55.3909 27.323 55.5695 27.8884C57.2464 33.1308 58.0749 38.6609 58.0154 44.1711C58.0005 45.7433 57.9112 47.3156 57.7475 48.8828C57.6185 50.1128 57.4498 51.3379 57.2315 52.553C57.0033 53.8128 56.7255 55.0676 56.403 56.3075C56.0557 57.6317 55.6489 58.9411 55.1875 60.2257C55.0734 60.548 54.9494 60.8704 54.8005 61.1779C54.7956 61.1928 54.7857 61.2027 54.7807 61.2176C54.6517 61.4706 54.5029 61.7136 54.3243 61.9268C53.853 62.4774 53.1931 62.8246 52.5333 63.1023C50.5935 63.9157 48.5049 64.2877 46.4262 64.5654C43.2759 64.982 40.1007 65.1903 36.9207 65.1903C33.9341 65.1903 30.9425 65.0068 27.9758 64.6348C26.408 64.4414 24.8354 64.1835 23.3222 63.7173C22.5582 63.4842 21.814 63.1965 21.0996 62.8345C20.5093 62.5369 19.5319 62.1104 19.135 61.5499C19.0358 61.4061 18.9515 61.2374 18.882 61.049C18.6935 60.553 18.5893 59.9529 18.4554 59.5115C18.1875 58.6534 17.9493 57.7855 17.7261 56.9126C17.6864 56.7489 17.6467 56.5852 17.607 56.4216C17.6021 56.3918 17.5921 56.3621 17.5872 56.3323C17.2945 55.1172 17.0464 53.8872 16.838 52.6522C16.7785 52.31 16.7239 51.9628 16.6743 51.6206C16.5453 50.7378 16.4362 49.85 16.3518 48.9572C16.1981 47.39 16.1137 45.8177 16.0988 44.2405C16.074 41.4581 16.2576 38.6758 16.6594 35.9231C16.9422 33.9888 17.3292 32.0694 17.8253 30.1798C17.989 29.5549 18.1627 28.9299 18.3512 28.31C18.5695 27.5809 18.8076 26.8568 19.0606 26.1376C19.5766 24.6646 20.162 23.2164 20.8069 21.7929C21.3427 20.6175 21.9182 19.4619 22.5384 18.3311C23.1039 17.2895 23.7092 16.2678 24.3442 15.2709C27.7327 9.9442 32.0786 5.22753 37.1191 1.48791ZM37.1191 0C36.8066 0 36.494 0.099194 36.2311 0.292622C31.0517 4.13639 26.6263 8.91259 23.0791 14.4823C22.4243 15.509 21.7992 16.5654 21.2187 17.6268C20.5787 18.7923 19.9834 19.9926 19.4377 21.1829C18.7778 22.6311 18.1726 24.1339 17.6417 25.6466C17.3838 26.3807 17.1357 27.1345 16.9125 27.8785C16.7239 28.5084 16.5404 29.1531 16.3717 29.8029C15.8657 31.7371 15.4638 33.721 15.1761 35.7049C14.7643 38.517 14.5708 41.3937 14.6006 44.2505C14.6155 45.8624 14.7048 47.4941 14.8586 49.0961C14.9479 50.0037 15.057 50.9262 15.1909 51.8289C15.2455 52.186 15.3001 52.5381 15.3596 52.8952C15.568 54.155 15.8309 55.4247 16.1286 56.6745L16.1435 56.7291L16.1484 56.7539C16.1931 56.9324 16.2328 57.1011 16.2774 57.2697C16.5056 58.1674 16.7587 59.0651 17.0266 59.943C17.0663 60.0769 17.1109 60.2554 17.1556 60.4439C17.2399 60.7911 17.3391 61.1878 17.483 61.5747C17.6021 61.8971 17.7459 62.1699 17.9146 62.4079C18.4752 63.2015 19.4625 63.6875 20.1818 64.0397C20.2662 64.0794 20.3456 64.119 20.42 64.1587C21.1741 64.5406 21.9778 64.858 22.8807 65.1358C24.6369 65.6764 26.4279 65.9392 27.7922 66.1079C30.8036 66.4848 33.8745 66.6733 36.9207 66.6733C40.1553 66.6733 43.4197 66.46 46.6197 66.0335C48.7132 65.7557 50.9507 65.3738 53.1088 64.4712C53.8381 64.1637 54.7609 63.7074 55.4604 62.889C55.7035 62.6014 55.9218 62.274 56.1152 61.8872C56.1202 61.8822 56.1301 61.8574 56.1301 61.8524C56.3286 61.4557 56.4724 61.0639 56.5915 60.7316C57.0628 59.4123 57.4895 58.0533 57.8467 56.6844C58.1791 55.4296 58.4668 54.1252 58.7049 52.8159C58.9282 51.566 59.1118 50.2914 59.2407 49.0366C59.4045 47.4445 59.4987 45.8128 59.5186 44.1909C59.5781 38.4873 58.7298 32.8531 57.0033 27.4371C56.8148 26.8469 56.6163 26.2616 56.4179 25.7061C55.8821 24.2033 55.2669 22.7006 54.5922 21.2424C54.0216 20.0025 53.3866 18.7576 52.7169 17.5474C52.1364 16.496 51.5064 15.4445 50.8465 14.4228C47.3737 9.03658 43.0725 4.29014 38.0419 0.322381C37.774 0.109113 37.4465 0 37.1191 0Z" fill="#7C7C8C"/>
<path d="M58.0154 44.1806C58.0005 45.7528 57.9112 47.3251 57.7475 48.8923C52.5879 46.9779 45.2603 45.7826 37.139 45.7826C28.9134 45.7826 21.5065 47.0076 16.337 48.9618C16.1832 47.3945 16.0989 45.8223 16.084 44.2451C21.2634 42.2314 28.7745 40.9717 37.134 40.9717C45.4042 40.9717 52.8409 42.2066 58.0154 44.1806Z" fill="#BCBABF"/>
<path d="M54.999 26.2119C50.1272 27.5957 43.9109 28.4289 37.139 28.4289C30.2579 28.4289 23.9523 27.5709 19.0507 26.1474C19.5667 24.6744 20.1521 23.2262 20.797 21.8027C25.4109 22.9435 31.0517 23.613 37.139 23.613C43.1122 23.613 48.6587 22.9683 53.2229 21.8623C53.8778 23.2857 54.4682 24.7339 54.999 26.2119Z" fill="#BCBABF"/>
<path d="M36.8711 17.9194C35.7399 17.9194 34.6138 17.8798 33.5124 17.7954C30.1537 17.5475 26.9885 16.9424 24.1061 15.9901C23.8878 15.9157 23.7142 15.752 23.6398 15.5338C23.5653 15.3156 23.5901 15.0775 23.7142 14.8841C27.2068 9.39371 31.5627 4.69191 36.6627 0.907657C36.7967 0.808463 36.9653 0.753906 37.129 0.753906C37.2928 0.753906 37.4515 0.803503 37.5855 0.907657C42.5466 4.82582 46.7884 9.50778 50.2016 14.8246C50.3256 15.018 50.3554 15.2561 50.276 15.4743C50.1966 15.6925 50.028 15.8612 49.8097 15.9306C45.945 17.23 41.47 17.9194 36.8711 17.9194Z" fill="#FEAE2E"/>
<path d="M37.1191 1.49279C41.9711 5.32664 46.2079 9.98876 49.5715 15.2262C45.9053 16.4612 41.5444 17.1754 36.8711 17.1754C35.7498 17.1754 34.6485 17.1357 33.5669 17.0563C30.2132 16.8084 27.0877 16.1933 24.3393 15.2857C27.7327 9.94908 32.0687 5.24233 37.1042 1.50271C37.1092 1.49775 37.1141 1.49775 37.1191 1.49279ZM37.1191 0.00488281C36.8066 0.00488281 36.499 0.104077 36.236 0.297505C36.2311 0.297505 36.2162 0.307425 36.2162 0.312384C31.0467 4.14623 26.6263 8.91747 23.0841 14.4823C22.836 14.8691 22.7815 15.3502 22.9353 15.7817C23.0891 16.2132 23.4363 16.5504 23.868 16.6943C26.8049 17.6664 30.0297 18.2863 33.4528 18.5343C34.5691 18.6186 35.7201 18.6583 36.8661 18.6583C41.5444 18.6583 46.0987 17.959 50.0428 16.6348C50.4794 16.4909 50.8217 16.1487 50.9706 15.7172C51.1194 15.2857 51.0648 14.8046 50.8168 14.4227C47.3688 9.0365 43.0675 4.29502 38.0419 0.322304C37.774 0.109037 37.4465 0.00488281 37.1191 0.00488281Z" fill="#DB7D1F"/>
<g opacity="0.18">
<path d="M49.5715 15.2266C45.9053 16.4615 41.5444 17.1757 36.8711 17.1757C35.7498 17.1757 34.6485 17.1361 33.567 17.0567C35.1247 15.5291 36.2807 13.5948 37.1092 11.5614C37.7789 9.90978 38.2552 8.159 38.2949 6.37351C38.3098 5.72875 38.2651 5.07903 38.161 4.44419C37.9923 3.44233 37.6698 2.37599 37.1092 1.50804C37.1142 1.50308 37.1191 1.49812 37.1241 1.49316C41.9711 5.32205 46.2079 9.98913 49.5715 15.2266Z" fill="#DB7D1F"/>
</g>
<path d="M37.3324 45.6098C31.8752 45.6098 27.435 41.1113 27.435 35.5813C27.435 30.0512 31.8752 25.5527 37.3324 25.5527C42.7897 25.5527 47.2299 30.0512 47.2299 35.5813C47.2299 41.1113 42.7946 45.6098 37.3324 45.6098Z" fill="#FEAE2E"/>
<path d="M37.3325 26.0437C42.5267 26.0437 46.7338 30.314 46.7338 35.5762C46.7338 40.8385 42.5267 45.1088 37.3325 45.1088C32.1382 45.1088 27.9311 40.8435 27.9311 35.5762C27.9311 30.309 32.1431 26.0437 37.3325 26.0437ZM37.3325 25.0518C31.6024 25.0518 26.9389 29.7734 26.9389 35.5762C26.9389 41.3791 31.6024 46.1007 37.3325 46.1007C43.0625 46.1007 47.726 41.3791 47.726 35.5762C47.726 29.7734 43.0675 25.0518 37.3325 25.0518Z" fill="#DB7D1F"/>
<path d="M37.3324 43.2539C33.0262 43.2539 29.5187 39.7524 29.5187 35.4424C29.5187 31.1324 33.0212 27.6309 37.3324 27.6309C41.6437 27.6309 45.1462 31.1374 45.1462 35.4424C45.1462 39.7474 41.6437 43.2539 37.3324 43.2539Z" fill="url(#paint1_radial_191_6486)"/>
<path d="M37.3325 27.8788C41.5097 27.8788 44.8982 31.2663 44.8982 35.4423C44.8982 39.6184 41.5097 43.0059 37.3325 43.0059C33.1552 43.0059 29.7667 39.6184 29.7667 35.4423C29.7717 31.2663 33.1552 27.8788 37.3325 27.8788ZM37.3325 27.3828C32.8873 27.3828 29.2706 30.9984 29.2706 35.4423C29.2706 39.8862 32.8873 43.5018 37.3325 43.5018C41.7776 43.5018 45.3943 39.8862 45.3943 35.4423C45.3943 30.9984 41.7776 27.3828 37.3325 27.3828Z" fill="#3E7FA3"/>
<path d="M36.9108 65.9344C33.8994 65.9344 30.8582 65.746 27.8765 65.374C26.542 65.2103 24.7957 64.9524 23.094 64.4267C22.2308 64.1589 21.4668 63.8563 20.7524 63.4943L20.5043 63.3703C19.8544 63.0528 18.9713 62.6164 18.5149 61.9716C18.3859 61.7881 18.2718 61.5699 18.1726 61.307C18.0635 61.0094 18.1478 60.6771 18.3909 60.4738C20.8169 58.4304 28.1841 57.0615 36.7272 57.0615C45.6423 57.0615 53.1039 58.5197 55.2967 60.6871C55.5249 60.9152 55.5844 61.2624 55.4356 61.5501C55.2669 61.8824 55.0833 62.1651 54.8799 62.4081C54.2846 63.1074 53.4611 63.5141 52.8111 63.7869C50.7374 64.6598 48.5595 65.0268 46.5155 65.2996C43.3453 65.7212 40.1156 65.9344 36.9108 65.9344Z" fill="#9393A5"/>
<path d="M36.7272 57.8102C45.4687 57.8102 52.7963 59.2634 54.7708 61.2225C54.6418 61.4754 54.493 61.7184 54.3144 61.9317C53.8431 62.4822 53.1832 62.8294 52.5234 63.1071C50.5836 63.9205 48.495 64.2925 46.4163 64.5703C43.2659 64.9869 40.0908 65.1952 36.9108 65.1952C33.9242 65.1952 30.9326 65.0117 27.9659 64.6397C26.3981 64.4463 24.8255 64.1884 23.3123 63.7221C22.5483 63.489 21.8041 63.2014 21.0897 62.8393C20.4994 62.5417 19.522 62.1152 19.1251 61.5548C19.0259 61.4109 18.9416 61.2423 18.8721 61.0538C21.0947 59.1791 28.2486 57.8102 36.7272 57.8102ZM36.7272 56.3223C27.8914 56.3223 20.5043 57.7308 17.9146 59.9081C17.4334 60.3148 17.2598 60.9794 17.478 61.5696C17.6021 61.897 17.741 62.1698 17.9097 62.4078C18.4703 63.2014 19.4575 63.6874 20.1769 64.0396C20.2612 64.0792 20.3406 64.1189 20.415 64.1586C21.1691 64.5405 21.9728 64.8579 22.8757 65.1357C24.632 65.6763 26.4229 65.9391 27.7873 66.1078C30.7987 66.4847 33.8696 66.6732 36.9157 66.6732C40.1504 66.6732 43.4148 66.4599 46.6147 66.0334C48.7083 65.7556 50.9458 65.3737 53.1038 64.4711C53.8331 64.1636 54.7559 63.7073 55.4554 62.8889C55.6985 62.6013 55.9168 62.2739 56.1103 61.8871C56.398 61.3117 56.2839 60.6124 55.8275 60.1611C54.0316 58.3954 47.9542 56.3223 36.7272 56.3223Z" fill="#7C7C8C"/>
<path d="M36.8711 21.6393C31.5379 21.6393 26.4775 20.7366 22.2457 19.0305C22.0472 18.9511 21.8934 18.7924 21.824 18.5891C21.7545 18.3907 21.7694 18.1675 21.8736 17.984C22.4441 16.9375 23.0643 15.891 23.7092 14.8792C23.8481 14.661 24.0863 14.537 24.3343 14.537C24.4137 14.537 24.4931 14.5469 24.5675 14.5767C28.2437 15.7918 32.4954 16.4316 36.8711 16.4316C41.3162 16.4316 45.6275 15.7719 49.3433 14.5221C49.4227 14.4973 49.5021 14.4824 49.5815 14.4824C49.8295 14.4824 50.0677 14.6064 50.2066 14.8246C50.8565 15.8364 51.4766 16.873 52.0521 17.9096C52.1563 18.0931 52.1712 18.3163 52.1017 18.5147C52.0323 18.713 51.8785 18.8767 51.685 18.9561C47.4085 20.7118 42.2886 21.6393 36.8711 21.6393Z" fill="url(#paint2_radial_191_6486)"/>
<path d="M49.5765 15.2262C50.2165 16.2181 50.8217 17.2349 51.3972 18.2665C47.3936 19.9131 42.3481 20.8951 36.8711 20.8951C31.4734 20.8951 26.5023 19.9429 22.5235 18.3409C23.0891 17.2993 23.6943 16.2776 24.3294 15.2807C27.9609 16.481 32.2622 17.1754 36.8661 17.1754C41.5494 17.1754 45.9102 16.4612 49.5765 15.2262ZM49.5765 13.7383C49.4177 13.7383 49.259 13.7631 49.1002 13.8176C45.4588 15.0427 41.2319 15.6874 36.8661 15.6874C32.5698 15.6874 28.3975 15.0576 24.7957 13.8672C24.6419 13.8176 24.4831 13.7928 24.3294 13.7928C23.8332 13.7928 23.352 14.0458 23.0742 14.4822C22.4193 15.5089 21.7942 16.5653 21.2138 17.6316C21.0104 18.0036 20.9756 18.445 21.1195 18.8468C21.2634 19.2485 21.571 19.5659 21.9629 19.7246C26.284 21.4655 31.4337 22.388 36.8661 22.388C42.3829 22.388 47.602 21.4407 51.9578 19.6502C52.3498 19.4866 52.6574 19.1692 52.7963 18.7674C52.9352 18.3657 52.9004 17.9243 52.6921 17.5523C52.1067 16.5008 51.4816 15.4494 50.8217 14.4277C50.5489 13.9863 50.0726 13.7383 49.5765 13.7383Z" fill="#7C7C8C"/>
<path d="M57.2265 52.5581C56.9983 53.8179 56.7205 55.0727 56.398 56.3126C51.933 54.3089 44.9577 53.0194 37.1241 53.0194C29.1367 53.0194 22.0472 54.3585 17.5971 56.4267C17.5921 56.3969 17.5822 56.3672 17.5773 56.3374C17.2845 55.1223 17.0365 53.8923 16.8281 52.6573C21.2038 50.3758 28.6604 48.8731 37.1241 48.8731C45.4637 48.8681 52.826 50.3312 57.2265 52.5581Z" fill="#BCBABF"/>
<g opacity="0.33">
<path d="M34.3657 41.5025C34.9759 41.8348 35.6606 42.0629 36.4097 42.182C38.4041 42.4944 40.5522 41.929 42.0703 40.575C42.5863 40.1187 43.0378 39.5583 43.2263 38.8987C43.4148 38.239 43.2908 37.4554 42.7947 36.9842C42.4176 36.6271 41.8818 36.4833 41.3659 36.4882C40.8499 36.4982 40.3439 36.642 39.8527 36.8057C38.2949 37.3165 36.7173 37.996 35.09 37.8174C33.949 37.6934 33.185 37.0784 32.2622 36.4634C32.1034 36.3593 31.9248 36.2502 31.7363 36.2849C31.5081 36.3295 31.3841 36.5726 31.3394 36.8007C31.2352 37.3165 31.389 37.8472 31.5924 38.3333C32.1779 39.7418 33.1254 40.8329 34.3657 41.5025Z" fill="#10F4FF"/>
</g>
<g opacity="0.72">
<path d="M32.8625 32.0994C32.9369 32.5855 33.2296 33.0368 33.6513 33.2947C34.3409 33.7213 35.085 33.2451 35.73 32.9872C36.9355 32.5111 38.2998 32.4565 39.5401 32.8335C39.9618 32.9624 40.3736 33.1459 40.8151 33.2104C41.2517 33.2798 41.7429 33.2104 42.0653 32.9079C43.003 32.03 42.2489 30.8149 41.4452 30.2644C39.9072 29.2179 37.9327 28.95 36.1318 29.3518C34.9015 29.6295 32.7831 30.3586 32.8476 31.9159C32.8476 31.9804 32.8525 32.0399 32.8625 32.0994Z" fill="#5CB1F7"/>
</g>
<g opacity="0.33">
<path d="M42.3432 37.5007C42.105 37.2725 41.7528 37.1584 41.3063 37.2576C40.9441 37.342 40.6117 37.5304 40.2744 37.6792C39.7733 37.9024 39.2326 38.0462 38.6868 38.1008C38.285 38.1405 37.8236 38.1653 37.5855 38.4926C37.3076 38.8745 37.5458 39.43 37.8881 39.7524C38.3495 40.1839 38.9845 40.412 39.6195 40.4219C40.6862 40.4418 41.9612 40.0648 42.497 39.0779C42.7996 38.5174 42.7153 37.8627 42.3432 37.5007Z" fill="#5CB1F7"/>
</g>
<g opacity="0.3">
<path d="M37.5259 35.6946C40.3125 35.6946 42.5714 34.238 42.5714 32.4411C42.5714 30.6442 40.3125 29.1875 37.5259 29.1875C34.7394 29.1875 32.4805 30.6442 32.4805 32.4411C32.4805 34.238 34.7394 35.6946 37.5259 35.6946Z" fill="#5CB1F7"/>
</g>
<g opacity="0.54">
<path d="M19.0408 34.8669C18.7382 36.8111 18.6588 38.8 18.6737 40.7938C18.6886 42.8421 18.6687 44.8111 19.1351 46.8397C19.3583 47.8217 19.8048 49.3096 20.673 49.7659C21.6256 50.2668 22.1167 49.0864 22.1415 48.1193C22.1713 47.1174 21.9828 46.1106 21.8339 45.1186C21.3229 41.7064 21.5164 38.2247 22.0969 34.8967C22.6724 31.5687 23.6249 28.3796 24.632 25.2352C24.9446 24.2581 25.267 23.2761 25.4109 22.2346C25.4754 21.7783 25.4357 21.0988 24.9446 20.9798C24.4981 20.8756 24.1706 21.5353 23.9424 21.8775C23.352 22.7702 22.8063 23.7126 22.3052 24.6847C21.2981 26.6537 20.4795 28.7715 19.8693 30.9885C19.527 32.2532 19.2492 33.5477 19.0408 34.8669Z" fill="white"/>
</g>
<g opacity="0.11">
<path d="M57.2265 52.489C56.9983 53.7488 56.7205 55.0036 56.398 56.2435C56.0508 57.5677 55.6439 58.8771 55.1826 60.1617C55.0685 60.484 54.9444 60.8064 54.7956 61.1139C54.7906 61.1288 54.7807 61.1387 54.7757 61.1536C54.6468 61.4066 54.4979 61.6496 54.3193 61.8628C53.848 62.4134 53.1882 62.7605 52.5284 63.0383C50.5886 63.8517 48.4999 64.2237 46.4212 64.5014C40.3091 65.3098 34.0928 65.3346 27.9758 64.5708C26.4081 64.3774 24.8354 64.1195 23.3222 63.6533C22.5582 63.4202 21.8141 63.1325 21.0997 62.7705C20.5093 62.4729 19.5319 62.0464 19.1351 61.4859C19.0358 61.3421 18.9515 61.1734 18.882 60.985C18.6935 60.489 18.5893 59.8889 18.4554 59.4475C18.4207 59.3334 18.3859 59.2243 18.3512 59.1102C19.5865 59.4227 20.8466 59.6211 22.1068 59.7798C28.2238 60.5386 34.4401 60.5188 40.5522 59.7103C42.6309 59.4326 44.7196 59.0656 46.6594 58.2472C47.3192 57.9695 47.984 57.6273 48.4503 57.0718C48.6339 56.8585 48.7827 56.6155 48.9067 56.3625C48.9117 56.3477 48.9216 56.3377 48.9266 56.3229C49.0754 56.0154 49.1994 55.693 49.3136 55.3706C49.7749 54.0811 50.1817 52.7717 50.529 51.4524C50.8565 50.2125 51.1343 48.9627 51.3575 47.6979C52.826 39.5243 52.2257 30.949 49.6956 23.0333C48.624 19.6905 47.22 16.4667 45.5233 13.4065C44.9527 12.3749 44.3425 11.3582 43.7025 10.3662C41.6933 7.24164 39.3764 4.31541 36.8016 1.65205C36.9058 1.5727 37.01 1.49334 37.1142 1.41895C41.9661 5.2528 46.2079 9.91988 49.5715 15.1573C50.2115 16.1493 50.8168 17.166 51.3923 18.1976C53.089 21.2528 54.493 24.4766 55.5646 27.8244C58.0947 35.7351 58.7 44.3105 57.2265 52.489Z" fill="#4E4C51"/>
</g>
<path d="M40.066 79.504C38.4338 79.4197 36.8512 78.6113 35.8243 77.3465C35.1148 76.4736 34.6733 75.3825 34.5542 74.2666C34.1325 75.0998 34.0482 76.1116 34.3855 76.9894C34.46 77.1878 34.4004 77.411 34.2367 77.5499C34.1474 77.6243 34.0333 77.664 33.9192 77.664C33.8299 77.664 33.7406 77.6392 33.6612 77.5896C32.6988 76.9994 31.8703 76.0818 31.1211 74.7873C30.2182 73.2201 29.732 71.6379 29.6725 70.0955C29.6278 68.9646 29.8312 67.8537 30.2728 66.7923C30.8433 65.4234 32.0141 64.8481 33.051 64.3422C34.2615 63.747 35.5812 63.4346 36.8611 63.4346C37.4118 63.4346 37.9575 63.4941 38.4785 63.6082C41.2865 64.2232 43.5785 66.6237 43.9208 69.3118C44.0052 69.9715 43.9903 70.6956 43.8712 71.5189C43.509 74.0483 42.3184 76.0967 40.5969 77.1382C40.5175 77.1878 40.4282 77.2077 40.3389 77.2077C40.2248 77.2077 40.1107 77.168 40.0214 77.0936C39.8577 76.9547 39.8031 76.7315 39.8775 76.5331C40.2595 75.5561 40.4431 74.4798 40.4034 73.4284C40.3935 73.1754 40.3736 72.9126 40.2694 72.7043C40.195 72.5505 40.0611 72.4364 39.947 72.4216C39.7088 72.4216 39.4459 72.7638 39.307 73.2151C38.7414 75.075 39.1929 77.2225 40.4679 78.6906C40.5969 78.8394 40.6266 79.0527 40.5373 79.2312C40.453 79.3999 40.2794 79.509 40.0908 79.509C40.0809 79.504 40.071 79.504 40.066 79.504Z" fill="#FA712D"/>
<path d="M36.8562 63.9207C37.3622 63.9207 37.8682 63.9752 38.3693 64.0843C40.9044 64.6398 43.0973 66.7874 43.4296 69.3664C43.5189 70.0558 43.4793 70.7502 43.385 71.4396C43.0923 73.5127 42.1348 75.6206 40.3438 76.7068C40.7556 75.6603 40.9441 74.5295 40.9044 73.4036C40.8945 73.0862 40.8598 72.7638 40.7209 72.4811C40.582 72.1984 40.319 71.9554 40.0015 71.9256C39.9767 71.9207 39.9519 71.9206 39.9271 71.9206C39.3814 71.9206 38.9994 72.5257 38.8356 73.0663C38.2205 75.0899 38.7116 77.416 40.0958 79.013C38.6025 78.9337 37.1538 78.1996 36.2112 77.0391C35.2686 75.8785 34.8469 74.3063 35.0801 72.8332C33.8448 73.845 33.3536 75.6751 33.9241 77.173C32.9071 76.5481 32.1481 75.576 31.5577 74.5443C30.7738 73.1804 30.2331 71.6479 30.1735 70.0756C30.1338 69.0143 30.3273 67.9628 30.7341 66.9808C31.2154 65.8252 32.1828 65.3193 33.2693 64.7836C34.3756 64.2282 35.6159 63.9207 36.8562 63.9207ZM36.8562 62.9287C35.5018 62.9287 34.1077 63.261 32.8277 63.8859C31.771 64.4017 30.4563 65.0465 29.8114 66.589C29.3401 67.7198 29.1267 68.9002 29.1714 70.1054C29.2359 71.7322 29.7469 73.3887 30.6895 75.0254C31.4783 76.3943 32.3614 77.3714 33.3983 78.0062C33.557 78.1054 33.7406 78.155 33.9192 78.155C34.1474 78.155 34.3706 78.0756 34.5542 77.9268C34.8816 77.6541 35.0007 77.2077 34.8469 76.8109C34.837 76.7861 34.8271 76.7613 34.8221 76.7365C35.0007 77.0589 35.2041 77.3714 35.4373 77.659C36.5535 79.0329 38.275 79.9107 40.0412 80C40.0561 80 40.0759 80 40.0908 80C40.4679 80 40.8151 79.7867 40.9838 79.4445C41.1575 79.0874 41.1029 78.6609 40.8449 78.3583C40.6663 78.15 40.5026 77.9268 40.3587 77.6937C40.5324 77.6888 40.701 77.6441 40.8548 77.5499C42.7053 76.429 43.9853 74.2517 44.3673 71.5735C44.4913 70.7055 44.5062 69.9417 44.4169 69.2375C44.0399 66.3013 41.6436 63.7867 38.5876 63.1122C38.022 62.9882 37.4416 62.9287 36.8562 62.9287ZM39.6245 75.7049C39.5004 74.9213 39.5451 74.1079 39.7783 73.349C39.808 73.2499 39.8428 73.1705 39.8775 73.1011C39.8924 73.2102 39.9023 73.3292 39.9073 73.4334C39.9321 74.1972 39.8378 74.9709 39.6245 75.7049Z" fill="#ED6F10"/>
<g opacity="0.26">
<path d="M32.4854 74.7921C32.8079 72.9025 34.1176 71.2112 35.8639 70.4176C35.6159 72.7983 36.3551 75.2682 37.8732 77.1182C37.2382 75.6501 37.4862 73.9539 37.9476 72.4263C38.1758 71.6824 38.4586 70.9434 38.9398 70.3333C39.2325 69.9713 39.6393 69.6439 40.1057 69.6687C40.6861 69.7034 41.093 70.2639 41.2914 70.8095C41.5593 71.5286 41.6288 72.3222 41.4898 73.076C42.3779 71.5584 42.7847 69.7382 42.4672 68.0122C42.1546 66.2862 41.083 64.6793 39.5352 63.851C37.2927 62.6507 35.0106 63.3997 33.3338 65.1058C31.8802 66.5887 31.3195 68.8504 31.3989 70.8838C31.4535 72.2478 31.8157 73.6018 32.4854 74.7921Z" fill="#F4DAC8"/>
</g>
<path d="M43.7571 68.6667C43.5587 68.6667 43.3652 68.6171 43.1866 68.5179C43.1767 68.513 43.1618 68.503 43.1519 68.4981C42.5069 68.136 41.7975 67.8632 40.9442 67.645C40.4729 67.521 39.9718 67.4218 39.4558 67.3524C38.7067 67.2482 37.8931 67.1937 37.0447 67.1937C36.6379 67.1937 36.2063 67.2036 35.7697 67.2284C34.4005 67.3028 32.6145 67.4913 30.9574 68.2699C30.7987 68.3443 30.635 68.4237 30.4762 68.513C30.3026 68.6121 30.1041 68.6617 29.9057 68.6617C29.5733 68.6617 29.2558 68.5179 29.0375 68.2699C28.8192 68.0219 28.72 67.6896 28.7597 67.3623L28.8093 66.9804C28.8638 66.5886 28.9283 66.172 29.0524 65.7405C29.3699 64.6345 29.8164 63.34 30.764 62.105C31.5677 61.0536 32.4855 60.3096 33.4777 59.888C34.1871 59.5855 34.9859 59.4268 35.9831 59.3871C36.3154 59.3722 36.6578 59.3623 37.0001 59.3623C37.2283 59.3623 37.4515 59.3673 37.6798 59.3772C38.7266 59.4317 39.5997 59.6202 40.3389 59.9624C41.3063 60.4088 42.1993 61.1726 42.9882 62.2389C44.1937 63.8608 44.6601 65.7107 44.8436 66.9754C44.8635 67.0994 44.8783 67.2284 44.8932 67.3573C44.9379 67.6896 44.8337 68.0219 44.6154 68.2699C44.407 68.5229 44.0895 68.6667 43.7571 68.6667Z" fill="url(#paint3_radial_191_6486)"/>
<path d="M37.01 60.1012C37.2233 60.1012 37.4366 60.1062 37.65 60.1161C38.4735 60.1557 39.2921 60.2946 40.0363 60.6368C40.9987 61.0832 41.7727 61.8371 42.4027 62.6802C43.3404 63.94 43.896 65.5271 44.1193 67.0795C44.1342 67.1985 44.154 67.3275 44.1689 67.4515C44.2036 67.7143 43.9903 67.9177 43.7571 67.9177C43.6877 67.9177 43.6232 67.9028 43.5537 67.8631C43.5537 67.8631 43.5537 67.8631 43.5487 67.8631C42.7996 67.4316 41.9661 67.134 41.1277 66.9158C40.6118 66.7819 40.0859 66.6827 39.56 66.6083C38.7265 66.4893 37.8831 66.4397 37.0447 66.4397C36.6081 66.4397 36.1666 66.4546 35.73 66.4794C33.9639 66.5786 32.2523 66.8315 30.6399 67.5903C30.4663 67.6747 30.2877 67.759 30.114 67.8582C30.0446 67.8978 29.9751 67.9127 29.9057 67.9127C29.6725 67.9127 29.4641 67.7094 29.4989 67.4515C29.5137 67.3275 29.5336 67.1985 29.5485 67.0795C29.603 66.6926 29.6626 66.3157 29.7717 65.9388C30.124 64.6988 30.5705 63.5829 31.3593 62.5513C31.9993 61.7181 32.793 60.9791 33.7753 60.5674C34.4897 60.2649 35.2538 60.1557 36.0227 60.121C36.3502 60.1111 36.6776 60.1012 37.01 60.1012ZM37.01 58.6133C36.6974 58.6133 36.365 58.6232 35.9582 58.6381C34.8717 58.6827 33.9936 58.8613 33.1998 59.1985C32.0836 59.6697 31.0666 60.493 30.1835 61.6486C29.1516 62.9927 28.6604 64.431 28.3429 65.5321C28.209 66.0082 28.1345 66.4744 28.08 66.8712C28.0601 66.9952 28.0452 67.1291 28.0254 67.263C27.9559 67.8086 28.1197 68.3541 28.4818 68.7608C28.844 69.1725 29.3649 69.4056 29.9106 69.4056C30.2381 69.4056 30.5605 69.3213 30.8483 69.1576C30.9673 69.0882 31.1112 69.0187 31.2799 68.9394C32.4854 68.374 33.8795 68.0714 35.8193 67.9673C36.241 67.9425 36.6577 67.9326 37.0497 67.9326C37.8633 67.9326 38.6422 67.9822 39.3566 68.0863C39.8428 68.1557 40.3141 68.25 40.7606 68.3641C41.5742 68.5724 42.239 68.8352 42.8046 69.1576C42.8095 69.1626 42.8145 69.1626 42.8244 69.1675C43.1122 69.3312 43.4346 69.4155 43.7621 69.4155C44.3078 69.4155 44.8287 69.1774 45.1909 68.7658C45.553 68.3541 45.7168 67.8086 45.6473 67.268C45.6275 67.1341 45.6126 67.0001 45.5927 66.8761C45.3992 65.5271 44.8982 63.5482 43.5984 61.8024C42.7351 60.6368 41.7429 59.7887 40.6614 59.2928C39.8329 58.9109 38.8754 58.6976 37.7294 58.6381C37.4962 58.6182 37.263 58.6133 37.01 58.6133Z" fill="#7C7C8C"/>
<g opacity="0.15">
<path d="M43.5537 67.8682C42.7996 67.4367 41.9661 67.1342 41.1327 66.9209C40.6167 66.787 40.0908 66.6878 39.5649 66.6134C39.6245 66.1918 39.6592 65.7802 39.6642 65.681C39.7138 64.9718 39.6741 64.2576 39.5451 63.5582C39.3268 62.4076 38.5777 61.1429 37.7988 60.2749C37.7492 60.2204 37.7045 60.1708 37.6549 60.1162C38.4785 60.1559 39.297 60.2948 40.0412 60.637C41.0037 61.0834 41.7776 61.8372 42.4077 62.6804C43.3453 63.9401 43.901 65.5272 44.1242 67.0796C44.1391 67.1987 44.1589 67.3276 44.1738 67.4516C44.2085 67.7938 43.8513 68.0369 43.5537 67.8682Z" fill="#4E4C51"/>
</g>
<g opacity="0.54">
<path d="M31.6569 64.0297C31.523 64.4017 31.4138 64.7885 31.4337 65.1803C31.4535 65.5722 31.6123 65.9739 31.9298 66.207C32.1679 66.3806 32.4656 66.45 32.7633 66.455C33.5223 66.4699 34.2615 66.0979 34.7775 65.5374C35.2934 64.977 35.5961 64.2529 35.7399 63.504C35.8342 63.0179 35.859 62.517 35.8193 62.026C35.7846 61.5697 35.6308 60.8902 35.1793 60.6571C34.7229 60.424 34.0928 60.9001 33.7158 61.1679C32.7484 61.8673 32.0588 62.9187 31.6569 64.0297Z" fill="white"/>
</g>
<g opacity="0.54">
<path d="M25.4158 18.1376C25.3762 18.2914 25.3365 18.4501 25.3613 18.6088C25.3811 18.7675 25.4754 18.9262 25.6193 18.9858C25.8772 19.0899 26.1402 18.8667 26.3188 18.6535C26.7305 18.1476 27.0629 17.5474 27.0877 16.8977C27.1125 16.3422 26.676 15.9455 26.2146 16.3422C25.783 16.7192 25.5597 17.6169 25.4158 18.1376Z" fill="white"/>
</g>
<g opacity="0.21">
<path d="M35.5018 4.73165C35.5663 4.77133 35.6159 4.83084 35.6506 4.92012C35.7399 5.13338 35.6953 5.37641 35.6357 5.5996C35.2835 6.9288 34.4699 8.08937 33.6314 9.1805C32.7236 10.356 31.7661 11.4917 30.7639 12.5829C30.3224 13.059 29.861 13.5401 29.2706 13.8129C28.8142 14.0261 28.1147 14.0063 28.0403 13.3962C27.951 12.6672 28.3429 11.8091 28.6604 11.1793C29.5484 9.39873 30.9078 7.9009 32.3415 6.5221C32.9418 5.94182 33.5669 5.37641 34.2962 4.97963C34.5641 4.82092 35.1793 4.52334 35.5018 4.73165Z" fill="white"/>
</g>
<path d="M19.7651 54.2342C20.1789 54.2342 20.5142 53.8989 20.5142 53.4852C20.5142 53.0716 20.1789 52.7363 19.7651 52.7363C19.3514 52.7363 19.016 53.0716 19.016 53.4852C19.016 53.8989 19.3514 54.2342 19.7651 54.2342Z" fill="#918A9B"/>
<path d="M25.0636 52.657C25.4773 52.657 25.8127 52.3217 25.8127 51.9081C25.8127 51.4945 25.4773 51.1592 25.0636 51.1592C24.6499 51.1592 24.3145 51.4945 24.3145 51.9081C24.3145 52.3217 24.6499 52.657 25.0636 52.657Z" fill="#918A9B"/>
<path d="M31.1459 51.7996C31.5597 51.7996 31.895 51.4643 31.895 51.0507C31.895 50.6371 31.5597 50.3018 31.1459 50.3018C30.7322 50.3018 30.3968 50.6371 30.3968 51.0507C30.3968 51.4643 30.7322 51.7996 31.1459 51.7996Z" fill="#918A9B"/>
<path d="M36.8711 51.3728C37.2848 51.3728 37.6202 51.0375 37.6202 50.6239C37.6202 50.2103 37.2848 49.875 36.8711 49.875C36.4573 49.875 36.1219 50.2103 36.1219 50.6239C36.1219 51.0375 36.4573 51.3728 36.8711 51.3728Z" fill="#918A9B"/>
<path d="M43.0229 51.7303C43.4366 51.7303 43.772 51.395 43.772 50.9813C43.772 50.5677 43.4366 50.2324 43.0229 50.2324C42.6091 50.2324 42.2737 50.5677 42.2737 50.9813C42.2737 51.395 42.6091 51.7303 43.0229 51.7303Z" fill="#918A9B"/>
<path d="M49.1052 52.8758C49.5189 52.8758 49.8543 52.5405 49.8543 52.1268C49.8543 51.7132 49.5189 51.3779 49.1052 51.3779C48.6915 51.3779 48.3561 51.7132 48.3561 52.1268C48.3561 52.5405 48.6915 52.8758 49.1052 52.8758Z" fill="#918A9B"/>
<path d="M54.4037 54.3738C54.8174 54.3738 55.1528 54.0385 55.1528 53.6249C55.1528 53.2113 54.8174 52.876 54.4037 52.876C53.9899 52.876 53.6545 53.2113 53.6545 53.6249C53.6545 54.0385 53.9899 54.3738 54.4037 54.3738Z" fill="#918A9B"/>
</g>
<defs>
<radialGradient id="paint0_radial_191_6486" cx="0" cy="0" r="1" gradientUnits="userSpaceOnUse" gradientTransform="translate(37.0494 33.34) scale(39.9824 39.9709)">
<stop offset="0.00396825" stop-color="#F3EEEE"/>
<stop offset="0.1732" stop-color="#EFEBEB"/>
<stop offset="0.3423" stop-color="#E3E0E3"/>
<stop offset="0.5115" stop-color="#CFCFD5"/>
<stop offset="0.6808" stop-color="#B3B7C1"/>
<stop offset="0.8484" stop-color="#8F99A8"/>
<stop offset="0.996" stop-color="#69788D"/>
</radialGradient>
<radialGradient id="paint1_radial_191_6486" cx="0" cy="0" r="1" gradientUnits="userSpaceOnUse" gradientTransform="translate(37.3344 35.4417) scale(7.81302 7.81079)">
<stop offset="0.0317" stop-color="#00BCE5"/>
<stop offset="0.4394" stop-color="#00BAE4"/>
<stop offset="0.6145" stop-color="#00B3DF"/>
<stop offset="0.7451" stop-color="#00A6D6"/>
<stop offset="0.8535" stop-color="#0094C9"/>
<stop offset="0.9472" stop-color="#007EBA"/>
<stop offset="1" stop-color="#006DAE"/>
</radialGradient>
<radialGradient id="paint2_radial_191_6486" cx="0" cy="0" r="1" gradientUnits="userSpaceOnUse" gradientTransform="translate(36.9606 18.0625) scale(17.316 17.3111)">
<stop offset="0.00396825" stop-color="#F3EEEE"/>
<stop offset="0.1732" stop-color="#EFEBEB"/>
<stop offset="0.3423" stop-color="#E3E0E3"/>
<stop offset="0.5115" stop-color="#CFCFD5"/>
<stop offset="0.6808" stop-color="#B3B7C1"/>
<stop offset="0.8484" stop-color="#8F99A8"/>
<stop offset="0.996" stop-color="#69788D"/>
</radialGradient>
<radialGradient id="paint3_radial_191_6486" cx="0" cy="0" r="1" gradientUnits="userSpaceOnUse" gradientTransform="translate(36.8345 64.0121) scale(15.0669 15.0626)">
<stop offset="0.00396825" stop-color="#F3EEEE"/>
<stop offset="0.1732" stop-color="#EFEBEB"/>
<stop offset="0.3423" stop-color="#E3E0E3"/>
<stop offset="0.5115" stop-color="#CFCFD5"/>
<stop offset="0.6808" stop-color="#B3B7C1"/>
<stop offset="0.8484" stop-color="#8F99A8"/>
<stop offset="0.996" stop-color="#69788D"/>
</radialGradient>
<clipPath id="clip0_191_6486">
<rect width="74.0299" height="80" fill="white"/>
</clipPath>
</defs>
</svg>
