<svg width="125" height="125" viewBox="0 0 125 125" fill="none" xmlns="http://www.w3.org/2000/svg">
<g clip-path="url(#clip0_229_15958)">
<path d="M26.085 86.4326C21.6709 82.0185 21.2855 75.0536 25.1815 70.2371L31.8623 61.9878C33.6003 59.835 34.1722 56.9685 33.3853 54.3072L30.361 44.0957C29.0472 39.6537 30.3349 34.9436 33.735 31.8028C37.135 28.6621 41.9363 27.7499 46.2558 29.4195L56.1836 33.246C58.774 34.2464 61.6796 33.9075 63.9622 32.338L72.7238 26.3376C77.6058 22.9983 83.9497 23.6028 88.1563 27.8095C90.587 30.2402 91.8278 33.4846 91.6451 36.9601L91.1037 47.5742C90.9841 49.9494 91.8806 52.2808 93.5724 53.9725C93.8316 54.2318 94.1103 54.4717 94.3954 54.6922L102.838 61.1832C103.272 61.5139 103.694 61.8834 104.076 62.2659C107.135 65.3252 108.287 69.6829 107.167 73.9143C106.047 78.1198 102.854 81.2997 98.6422 82.4263L88.3743 85.1624C85.7022 85.8771 83.5497 87.861 82.6278 90.4681L79.0823 100.482C77.6963 104.409 74.4448 107.298 70.4008 108.205C66.3115 109.118 62.1286 107.934 59.2053 105.011C58.596 104.401 58.0449 103.721 57.5714 102.989L51.7722 94.0615C51.4479 93.5692 51.0783 93.1091 50.6634 92.6942C49.1337 91.1646 47.0937 90.2879 44.9318 90.22L34.3035 89.92C31.1578 89.8379 28.2499 88.5975 26.085 86.4326Z" fill="#FFE033"/>
<path d="M86.8642 29.1023C88.7828 31.0209 89.9776 33.7281 89.8138 36.8605L89.2723 47.4746C89.1212 50.4 90.2255 53.2235 92.2673 55.2653C92.5784 55.5764 92.9154 55.8746 93.2653 56.147L101.708 62.638C102.091 62.9298 102.44 63.241 102.765 63.5651C108.196 68.9968 105.88 78.5986 98.1418 80.6587L87.8739 83.3949C84.6195 84.264 81.9951 86.6809 80.8799 89.8573L77.3344 99.8717C74.7622 107.15 65.5996 108.845 60.4791 103.725C59.9735 103.219 59.5002 102.642 59.085 101.994L53.2858 93.067C52.8902 92.4645 52.4428 91.9008 51.9372 91.3952C50.0964 89.5544 47.6094 88.4635 44.962 88.3885L34.3338 88.0885C31.5117 88.0068 29.1282 86.8642 27.391 85.1271C23.9103 81.6464 23.0605 75.7811 26.6206 71.3785L33.3013 63.1291C35.427 60.5108 36.1146 57.0102 35.152 53.7726L32.1213 43.5806C29.7018 35.4347 37.6719 28.074 45.6115 31.1274L55.5393 34.9539C58.6931 36.1688 62.233 35.7531 65.0134 33.8542L73.775 27.8538C78.1849 24.818 83.5844 25.8225 86.8642 29.1023ZM89.4495 26.517C84.6854 21.7529 77.2151 21.0432 71.693 24.8282L62.9314 30.8286C61.1468 32.0558 58.8688 32.3244 56.8418 31.5383L46.9141 27.7118C41.934 25.7953 36.408 26.8489 32.4908 30.4549C28.5737 34.061 27.0863 39.4892 28.6082 44.6047L31.6389 54.8096C32.2568 56.8882 31.8134 59.1335 30.4501 60.8209L23.7694 69.0702C19.2789 74.6236 19.7176 82.6372 24.7993 87.7189C27.3012 90.2208 30.6496 91.656 34.2355 91.7518L44.8637 92.0518C46.5531 92.0995 48.1463 92.7879 49.3454 93.987C49.6695 94.3111 49.9678 94.674 50.2143 95.0627L56.0134 103.99C56.5583 104.832 57.1937 105.61 57.8938 106.31C61.2578 109.674 66.0753 111.053 70.7857 109.998C75.4509 108.95 79.1872 105.628 80.7859 101.1L84.3315 91.0856C85.0535 89.0413 86.7341 87.4903 88.8304 86.9367L99.0983 84.2006C103.957 82.9065 107.622 79.2419 108.916 74.3959C110.21 69.5239 108.882 64.5123 105.35 60.9798C104.909 60.539 104.436 60.1306 103.944 59.7415L95.5006 53.2505C95.2739 53.0754 95.06 52.8874 94.8526 52.68C93.5303 51.3577 92.8287 49.5315 92.9231 47.674L93.4645 37.0599C93.6789 33.0602 92.2496 29.3171 89.4495 26.517Z" fill="#E8A705"/>
<g opacity="0.35">
<path d="M101.721 62.638L93.2714 56.1535C90.5953 54.0979 89.0955 50.8401 89.2719 47.4876L89.8134 36.8735C90.2479 28.3887 80.7581 23.0612 73.7682 27.8602L65.013 33.8671C62.2261 35.7725 58.6863 36.1882 55.5454 34.9733L45.6111 31.1533C37.6779 28.0675 29.7014 35.4347 32.1144 43.5741L35.1451 53.7791C36.1012 57.0231 35.4072 60.5043 33.288 63.1291L26.6072 71.3785C21.2704 77.9727 25.8217 87.8498 34.3139 88.082L44.9487 88.3885C48.3145 88.4839 51.4302 90.2295 53.279 93.0606L59.0781 101.975C63.7226 109.114 74.504 107.861 77.3339 99.8587L80.8665 89.8444C82.0011 86.6615 84.6126 84.2575 87.8605 83.3819L98.1349 80.6393C106.352 78.4763 108.46 67.8256 101.721 62.638ZM94.0085 78.271L85.0346 80.6594C82.1943 81.4126 79.8996 83.5259 78.9197 86.3076L75.819 95.0604C73.3565 102.047 63.9277 103.153 59.8799 96.9211L54.8138 89.1146C53.1986 86.6462 50.478 85.1148 47.5264 85.0329L38.2445 84.7737C30.8202 84.5624 26.8467 75.9354 31.5052 70.1751L37.346 62.9602C39.2003 60.6651 39.7914 57.6109 38.9653 54.7813L36.3118 45.8714C34.2045 38.7486 41.1662 32.3185 48.102 34.9886L56.7735 38.3343C59.5258 39.3932 62.6256 39.0417 65.0569 37.3753L72.7063 32.1241C78.8233 27.9387 87.1082 32.5913 86.724 40.0017L86.2518 49.2632C86.1007 52.2144 87.4057 55.0447 89.7514 56.8475L97.1251 62.5149C103.015 67.0476 101.164 76.3524 94.0085 78.271Z" fill="#FFF096"/>
</g>
</g>
<defs>
<clipPath id="clip0_229_15958">
<rect width="87" height="89" fill="white" transform="translate(62.9325) rotate(45)"/>
</clipPath>
</defs>
</svg>
