<svg width="51" height="100" viewBox="0 0 51 100" fill="none" xmlns="http://www.w3.org/2000/svg">
<g clip-path="url(#clip0_229_16199)">
<path d="M13.7382 95.274C10.6184 94.4267 8.76121 91.3435 9.50299 88.2521L21.3995 38.8144C21.7724 37.272 22.7363 35.979 24.1179 35.1729C25.4995 34.3669 27.1152 34.152 28.6711 34.5689L31.5003 35.3383C33.0602 35.762 34.3505 36.7612 35.1372 38.154C35.9239 39.5467 36.1053 41.1523 35.6449 42.6769L20.934 91.3548C20.016 94.3933 16.8595 96.116 13.7476 95.2822C13.7544 95.2783 13.7382 95.274 13.7382 95.274Z" fill="#BA8E5D"/>
<path d="M28.3835 35.6223C28.3889 35.6238 28.3943 35.6252 28.3997 35.6267L31.2126 36.3918C33.8278 37.0982 35.3497 39.796 34.5785 42.351L19.8676 91.029C19.1248 93.478 16.5425 94.8886 14.0336 94.2163C14.0282 94.2149 14.0228 94.2134 14.0174 94.212C11.5046 93.533 9.97776 91.0043 10.582 88.5125L22.4785 39.0748C23.1043 36.4808 25.7723 34.9227 28.3835 35.6223ZM28.9518 33.5016C27.1051 33.0068 25.1782 33.2633 23.5434 34.2175C21.9018 35.1755 20.7577 36.71 20.3175 38.5469L8.42097 87.9846C7.53511 91.6568 9.7439 95.3229 13.4506 96.3274C17.1656 97.3229 20.918 95.2711 22.0056 91.6644L36.7165 42.9864C37.2644 41.1785 37.0491 39.2683 36.1133 37.614C35.1774 35.9596 33.6438 34.7702 31.7877 34.2672L28.9747 33.5021C28.9733 33.5074 28.9571 33.503 28.9518 33.5016Z" fill="#896138"/>
<g opacity="0.24">
<path d="M34.8432 42.3536L20.1323 91.0316C19.3935 93.4873 16.8004 94.895 14.2875 94.216C13.5284 94.0126 12.8567 93.6337 12.3066 93.1454C13.9671 92.8061 15.3864 91.601 15.9033 89.8871L30.6142 41.2091C31.3161 38.8912 30.1271 36.4587 27.938 35.4971C28.1795 35.5221 28.4153 35.5682 28.6576 35.6331L31.4705 36.3982C34.0965 37.1075 35.6144 39.7986 34.8432 42.3536Z" fill="#896138"/>
</g>
<path d="M18.743 51.1832C18.5331 51.1269 18.3441 51.0138 18.1923 50.8481C17.9527 50.5793 17.8603 50.2136 17.9418 49.8661L20.6081 38.6019C20.9471 37.1641 21.875 35.941 23.2172 35.1528C24.7432 34.2604 26.6576 34.0289 28.472 34.5151L31.6672 35.3826C33.4856 35.8755 35.0249 37.0438 35.8934 38.5834C36.6549 39.941 36.8401 41.4681 36.4027 42.8852L33.1209 53.6038C33.0206 53.9349 32.766 54.1962 32.4402 54.3135C32.2231 54.3917 31.9907 54.3976 31.7699 54.3385C31.6569 54.3082 31.5534 54.2634 31.4557 54.1975C29.8792 53.1897 28.0069 52.3812 26.0431 51.8493L25.9839 51.8335C23.658 51.2102 21.2916 50.9967 19.1438 51.2167C19.0071 51.2312 18.8722 51.2178 18.743 51.1832Z" fill="#F7D76D"/>
<path d="M28.1843 35.5689C28.1897 35.5704 28.195 35.5718 28.2004 35.5733L31.3741 36.435C34.3217 37.2362 36.1196 40.0023 35.3376 42.5545L32.0559 53.273C30.419 52.2321 28.4813 51.3663 26.3345 50.7853C26.3129 50.7796 26.2914 50.7738 26.2699 50.768C23.7286 50.0871 21.2364 49.891 19.029 50.1178L21.6952 38.8535C22.3074 36.2672 25.2392 34.7798 28.1843 35.5689ZM28.7525 33.4482C26.6474 32.8841 24.4204 33.1625 22.6412 34.203C21.039 35.1432 19.9364 36.6093 19.5246 38.3401L16.8583 49.6043C16.6952 50.2993 16.8801 51.0308 17.3646 51.5697C17.6575 51.8982 18.0447 52.1327 18.4593 52.2438C18.7231 52.3145 18.9997 52.3375 19.273 52.3084C21.2842 52.1029 23.5035 52.3055 25.7002 52.8941L25.7594 52.9099C27.6155 53.4129 29.379 54.1753 30.8617 55.1238C31.0586 55.2504 31.2709 55.3414 31.4916 55.4005C31.9277 55.5174 32.3993 55.5017 32.8336 55.3453C33.4851 55.1107 33.989 54.5866 34.1935 53.9311L37.4753 43.2125C37.9948 41.5106 37.7812 39.6804 36.8719 38.0559C35.8596 36.2561 34.0676 34.8894 31.9585 34.3186L28.7848 33.4569C28.7741 33.454 28.7579 33.4497 28.7525 33.4482Z" fill="#F7B82F"/>
<g opacity="0.25">
<path d="M21.8895 37.8712C21.7907 38.1971 21.7219 38.4969 21.6761 38.6892C23.1537 38.9033 24.6165 39.2157 26.0509 39.6341C27.5499 40.0698 28.6762 40.4966 29.2239 41.9845C29.6087 43.0252 29.5266 44.1283 29.387 45.1876C29.2133 46.4821 28.9627 47.7617 28.6246 49.0236C28.4229 49.7764 27.6631 50.9537 28.2802 51.6873C28.6526 52.128 32.3645 53.3499 32.1799 53.9312C32.9092 51.6832 33.6346 49.4284 34.3639 47.1803C34.9989 45.2196 35.6328 43.2415 35.7425 41.174C35.7769 40.507 35.6621 39.6864 34.9694 39.3644C34.7022 39.2417 34.3958 39.2221 34.1003 39.2054C30.5064 38.9641 26.9175 38.0365 23.6527 36.5026C22.6461 36.0169 22.1534 37.0157 21.8895 37.8712Z" fill="#C6AF4F"/>
</g>
<path opacity="0.09" d="M12.9568 90.4388C12.9098 90.4205 12.8642 90.3969 12.8146 90.3666C11.3371 89.5275 12.3592 86.8976 12.6096 85.8339C14.0503 79.7248 15.7214 73.6605 17.2874 67.5793C18.2399 63.8739 19.1991 60.1645 20.1516 56.4591C20.4108 55.4488 20.4835 53.9284 21.671 53.5022C22.3483 53.2574 23.2442 53.5316 23.7288 54.0706C24.762 55.2112 23.8889 57.0911 23.5503 58.2903C23.0602 60.0115 22.5688 61.738 22.0787 63.4591C20.7063 68.2795 19.3354 73.0946 17.963 77.9149C16.9192 81.5732 15.8809 85.233 14.8372 88.8913C14.6557 89.5473 14.0754 90.9374 12.9568 90.4388Z" fill="#F7D36D"/>
<path d="M27.8921 38.9852C26.1154 38.5092 24.5233 37.753 23.1698 36.7312C21.8042 35.7117 20.6708 34.3852 19.8935 32.8927C19.1689 31.5052 18.77 30.0004 18.7475 28.534C18.724 27.1355 19.0246 25.6477 19.6432 24.1144C20.3875 22.2625 21.4685 20.5973 22.857 19.1624C23.6568 18.3311 24.5285 17.5759 25.3702 16.8468C27.7914 14.7452 29.8874 12.9316 30.1908 9.79656C30.2875 8.811 30.1739 7.79182 30.0585 6.7153C30.0291 6.48015 30.0066 6.24113 29.9827 6.00742C29.9247 5.38386 30.1064 4.92113 30.517 4.61632C30.5743 4.57485 30.637 4.53481 30.7036 4.50152C30.9525 4.36934 31.3675 4.24187 31.9382 4.39479C32.9881 4.67611 34.3435 5.86323 35.6563 7.10147L35.831 7.26763C37.1362 8.46972 38.3835 9.86654 39.5354 11.4253C40.5533 12.7948 41.3667 14.1095 42.0273 15.4344C42.2011 15.7764 42.3653 16.1329 42.524 16.488C45.269 22.8264 45.3127 31.6005 39.2251 36.919C38.0717 37.9283 36.9538 38.6118 35.8071 39.0149C34.731 39.3914 33.4847 39.5632 32.0018 39.5409C30.5811 39.5239 29.2004 39.3358 27.8921 38.9852Z" fill="#827060"/>
<path d="M31.6527 5.46053C32.681 5.73607 34.6478 7.678 35.0681 8.06907C36.3866 9.28609 37.571 10.6377 38.6354 12.0707C39.5378 13.2899 40.3558 14.566 41.0269 15.9164C41.1927 16.245 41.3504 16.5827 41.4958 16.9229C44.2487 23.2748 43.9372 31.3286 38.4754 36.0988C37.5708 36.8906 36.5594 37.5857 35.4195 37.9848C34.3312 38.3638 33.1615 38.4652 32.0068 38.4456C30.7198 38.4246 29.4253 38.2596 28.1762 37.9249C26.6149 37.5066 25.1285 36.8299 23.8419 35.86C22.6167 34.9408 21.587 33.7443 20.8807 32.3958C20.2509 31.1929 19.8834 29.8726 19.8633 28.5262C19.8435 27.1571 20.1681 25.795 20.6805 24.5288C21.3689 22.821 22.3838 21.2518 23.6668 19.9306C26.6918 16.8032 30.8394 14.6982 31.3008 9.91791C31.4318 8.58921 31.2267 7.24432 31.0875 5.91144C31.0746 5.76591 31.0702 5.58857 31.193 5.49645C31.2066 5.48873 31.2216 5.47571 31.2338 5.4733C31.3427 5.41155 31.4858 5.4158 31.6527 5.46053ZM32.2209 3.3398C31.408 3.12196 30.7699 3.26353 30.3378 3.45461C30.1558 3.53086 29.9775 3.6365 29.8178 3.75851C29.4223 4.05029 28.7563 4.76969 28.8714 6.08475C28.899 6.34786 28.9269 6.58832 28.9494 6.82733C29.0629 7.8465 29.1677 8.81219 29.0832 9.68739C28.8193 12.3954 26.9706 13.9969 24.6328 16.0242C23.7746 16.7716 22.8825 17.5384 22.0444 18.4048C20.56 19.9391 19.4005 21.7253 18.6045 23.7054C17.9328 25.3722 17.606 27.0008 17.6302 28.5472C17.6547 30.179 18.0945 31.8538 18.8996 33.3936C19.7533 35.0316 21.0024 36.4857 22.5018 37.6092C23.9664 38.7119 25.6859 39.5306 27.608 40.0456C29.0078 40.4207 30.4829 40.6228 31.9886 40.6455C33.6038 40.6692 34.976 40.48 36.1728 40.0619C37.4607 39.6058 38.7012 38.8528 39.9597 37.7524C46.4614 32.0732 46.4435 22.7719 43.5412 16.0731C43.3655 15.6736 43.192 15.3089 43.0171 14.9495C42.3302 13.5722 41.4836 12.2088 40.4286 10.784C39.2288 9.16687 37.9377 7.71851 36.5764 6.4673C36.539 6.43455 36.4844 6.38012 36.415 6.31607C34.7821 4.76478 33.4431 3.66727 32.2209 3.3398Z" fill="#665649"/>
<path opacity="0.12" d="M22.502 41.7856C21.9323 43.5025 21.7423 45.3098 21.5592 47.1132C21.5238 47.439 21.491 47.7768 21.5987 48.1069C21.7065 48.4369 21.9843 48.7785 22.3957 48.9228C22.916 49.1133 23.5084 48.9482 23.8419 48.6511C24.1808 48.3555 24.3253 47.9453 24.4696 47.5578C24.8432 46.5726 25.2814 45.6046 25.7868 44.6661C26.0845 44.1151 26.4051 43.5645 26.4336 42.9414C26.4761 42.072 25.8114 40.9563 24.7688 40.4326C23.478 39.7799 22.7368 41.0814 22.502 41.7856Z" fill="#F5F9FF"/>
<path opacity="0.18" d="M38.4758 36.0987C37.5712 36.8906 36.5598 37.5856 35.4199 37.9848C34.3316 38.3637 33.1619 38.4651 32.0072 38.4455C29.1051 38.4009 26.1575 37.5997 23.8423 35.8599C22.6171 34.9407 21.5874 33.7442 20.8811 32.3957C20.2513 31.1928 19.8838 29.8725 19.8637 28.5261C19.8439 27.157 20.1685 25.795 20.6809 24.5287C21.3693 22.8209 22.3842 21.2517 23.6672 19.9305C26.6922 16.8031 30.8398 14.6981 31.3012 9.91782C31.4322 8.58912 31.2271 7.24423 31.0879 5.91134C31.075 5.76581 31.0706 5.58847 31.188 5.49492C31.2016 5.4872 31.2166 5.47418 31.2288 5.47176C31.4808 7.15878 32.5201 8.85788 32.6215 10.5898C32.7555 12.8248 32.1744 15.1012 30.9448 16.9766C30.6208 17.475 30.254 17.9393 29.8632 18.3858C27.939 20.5921 25.4047 22.3622 24.1663 25.0023C23.5493 26.3144 23.2989 27.7873 23.4326 29.2267C23.5058 30.0305 23.7113 30.8356 24.1413 31.5134C24.9723 32.8271 26.6768 33.5509 28.2007 33.2262C29.7285 32.9082 30.9753 31.5717 31.1779 30.0405C31.2636 29.3759 31.1689 28.6743 31.396 28.0419C32.0582 26.1736 34.2816 26.9853 34.5779 28.5933C34.7456 29.4963 34.2766 30.3423 34.5784 31.2187C34.7761 31.7945 35.2451 32.2839 35.8331 32.4585C36.4641 32.6446 37.1448 32.4519 37.7347 32.1668C42.8206 29.6825 43.2794 20.3896 41.0219 15.9149C41.1877 16.2435 41.3454 16.5812 41.4908 16.9213C44.2505 23.2694 43.9444 31.3247 38.4758 36.0987Z" fill="#4F4337"/>
<path d="M28.5489 26.8869C27.2298 26.5335 26.1602 25.2922 25.9534 23.8673C25.7649 22.5894 26.191 21.2147 27.1432 19.9868C27.3988 19.6575 27.677 19.3513 27.947 19.0543C28.6448 18.2809 29.2492 17.6189 29.234 16.9216C29.2108 16.9438 29.1861 16.9712 29.1628 16.9934C28.7547 17.4182 27.9946 18.209 26.7133 17.8656C26.6379 17.8455 26.5585 17.8185 26.4792 17.7916C26.1162 17.6602 25.8194 17.4329 25.6274 17.1371C25.4459 16.8669 24.9509 15.8932 26.1049 14.7307C26.2787 14.5557 26.4579 14.3821 26.6318 14.207C27.4747 13.3873 28.271 12.6119 28.5953 11.6817C28.9253 10.7302 28.7684 9.61417 28.6003 8.43263C28.4976 7.71753 28.3938 6.98509 28.3889 6.22801C28.3847 4.90855 28.7484 3.96042 29.4729 3.41015C30.1455 2.90279 31.0182 2.79 32.0788 3.0742C33.9632 3.57912 36.0954 5.26988 36.929 5.97058C38.2368 7.07678 42.5036 10.9874 42.4711 14.7916C42.461 15.8629 41.6728 16.7371 40.6726 16.7873C40.4334 16.7971 40.2245 16.7582 40.0925 16.7341C40.0871 16.7327 40.0871 16.7327 40.0817 16.7313C40.0377 16.7877 39.9824 16.8865 39.9633 17.0007C39.9277 17.2412 39.9562 17.5443 39.9843 17.8701C40.0119 18.1332 40.0381 18.4016 40.0342 18.696C40.0321 20.082 39.365 21.3011 38.293 21.8776C37.6863 22.2038 36.9383 22.2818 36.2384 22.0942C35.3823 21.8648 34.7229 21.2677 34.4738 20.4963C34.3453 20.0925 34.3436 19.7113 34.3396 19.4034C34.3393 19.3181 34.3408 19.2048 34.3298 19.1166C34.1787 19.2068 34.0204 19.4315 33.8918 19.7607C33.6556 20.3623 33.5588 21.0467 33.452 21.7681C33.3643 22.3754 33.2763 23.0053 33.0991 23.6454C32.6229 25.3362 31.1868 27.0994 29.1729 26.9916C28.9638 26.9753 28.7535 26.9417 28.5489 26.8869Z" fill="#95F4F4"/>
<path d="M31.7947 4.13456C33.3507 4.55148 35.2818 6.02357 36.2089 6.80614C38.2648 8.54465 41.3841 11.8921 41.3556 14.7769C41.3485 15.2125 41.0466 15.6715 40.6073 15.6958C40.4262 15.7041 40.242 15.6377 40.0598 15.6287C39.4295 15.5905 38.9538 16.2244 38.8593 16.8356C38.7648 17.4467 38.9199 18.0736 38.9212 18.6933C38.9218 19.5742 38.5354 20.4992 37.76 20.9165C37.39 21.1129 36.9371 21.1449 36.5279 21.0353C36.0757 20.9141 35.6825 20.6156 35.541 20.1742C35.353 19.584 35.6043 18.8615 35.2299 18.3634C35.1011 18.1982 34.9229 18.0879 34.7237 18.0345C34.4222 17.9537 34.0758 17.9973 33.7997 18.1449C33.3398 18.3968 33.0527 18.8653 32.8599 19.3478C32.3597 20.6117 32.4018 22.0266 32.0333 23.3371C31.6649 24.6476 30.6128 25.9682 29.232 25.888C29.0957 25.8799 28.9623 25.8612 28.833 25.8265C27.907 25.5784 27.1976 24.6723 27.0549 23.7192C26.8963 22.6311 27.3525 21.5316 28.0299 20.6619C28.9696 19.459 30.4115 18.3849 30.3519 16.8631C30.3304 16.3402 29.9354 15.7684 29.4724 15.6444C29.3109 15.6011 29.1352 15.6108 28.9718 15.7035C28.2806 16.0865 27.9733 17.0611 27.0042 16.8014C26.9611 16.7899 26.9127 16.7769 26.8656 16.7586C26.7446 16.7148 26.6308 16.6445 26.562 16.5352C26.3394 16.2028 26.6259 15.7795 26.9078 15.5027C27.9578 14.4487 29.1664 13.4485 29.6562 12.0512C30.3005 10.2065 29.5315 8.18776 29.5141 6.22832C29.49 4.1648 30.5134 3.79121 31.7947 4.13456ZM32.363 2.01383C30.6024 1.54209 29.4477 2.0396 28.7941 2.54068C27.7804 3.30895 27.2737 4.55401 27.2853 6.23346C27.2947 7.05993 27.4047 7.83381 27.5096 8.5836C27.6668 9.67697 27.8002 10.6219 27.5546 11.3232C27.3118 12.014 26.607 12.7059 25.8586 13.4316C25.6779 13.6105 25.4933 13.7826 25.318 13.963C23.9369 15.3488 24.1303 16.8667 24.7104 17.7381C25.0389 18.2353 25.527 18.6104 26.1158 18.825C26.226 18.8659 26.3376 18.9015 26.4453 18.9303C26.483 18.9404 26.5207 18.9505 26.5637 18.9621C26.4636 19.0773 26.3689 19.194 26.2713 19.3213C25.1296 20.7826 24.6308 22.4503 24.8613 24.0236C25.1364 25.9043 26.5082 27.4823 28.2741 27.9555C28.5541 28.0305 28.8412 28.079 29.1314 28.0942C31.754 28.2344 33.5915 26.0503 34.1824 23.9527C34.3298 23.4239 34.4246 22.8981 34.4971 22.4118C34.9073 22.7547 35.4091 23.0142 35.9582 23.1613C36.9327 23.4224 37.9783 23.3105 38.834 22.8522C40.2624 22.0871 41.1491 20.5006 41.1497 18.7108C41.1485 18.3923 41.1266 18.1079 41.0976 17.8501C42.5029 17.6016 43.5691 16.336 43.5838 14.817C43.6225 10.6451 39.4445 6.66163 37.6478 5.14031C36.7595 4.38519 34.4627 2.57646 32.363 2.01383Z" fill="#7BC6C4"/>
</g>
<defs>
<clipPath id="clip0_229_16199">
<rect width="27" height="96" fill="white" transform="translate(24.8466) rotate(15)"/>
</clipPath>
</defs>
</svg>
