<svg width="75" height="79" viewBox="0 0 75 79" fill="none" xmlns="http://www.w3.org/2000/svg">
<g clip-path="url(#clip0_229_16329)">
<path d="M39.8819 77.616C37.286 77.616 34.3313 76.495 30.856 74.1839L7.28179 58.5251C-0.287858 53.5015 0.8096 48.5264 3.06783 45.2465C4.39041 43.316 6.86672 41.9044 10.6375 40.9357C16.1248 39.621 21.7176 38.2509 27.2823 36.8739C33.9233 35.2479 39.4598 33.691 43.7512 32.2448C48.2887 30.7017 51.2997 28.8819 52.7067 26.8407C53.6001 25.5398 53.966 24.2804 53.8253 23.0003C53.6916 21.8102 53.0233 20.8276 51.771 19.9973C50.9198 19.4368 50.0264 19.16 49.0344 19.16C48.4998 19.16 47.9299 19.243 47.339 19.4022C46.1571 19.8035 44.4265 20.7307 42.1964 22.1631C39.699 23.7684 37.8981 24.7371 36.681 25.1177C36.0197 25.3184 35.3725 25.4083 34.7182 25.4083C33.2761 25.4083 31.8269 24.9309 30.4128 23.9898C28.1124 22.4606 26.7546 20.4332 26.3747 17.9629C26.0019 15.5411 26.5928 13.1815 28.1194 10.9535C29.2521 9.30662 30.9053 7.68054 33.0439 6.11673C37.2157 3.02371 42.0698 1.42531 47.4656 1.38379H47.6978C52.9811 1.38379 57.8422 2.83689 62.1547 5.70156C67.8038 9.45193 71.4198 14.1918 72.9112 19.7966C74.4659 25.7335 73.3192 31.5598 69.4992 37.123C66.0943 42.0843 59.6221 46.1461 50.2656 49.2114C46.1923 50.4846 39.8116 51.9585 31.2641 53.6191L40.6698 59.8675C44.0748 62.1301 46.2134 64.3513 47.2194 66.6693C48.2958 69.1673 48.0073 71.6514 46.3541 74.0594C44.7431 76.4189 42.5622 77.616 39.8819 77.616Z" fill="#47D68F"/>
<path d="M47.6974 2.7678C52.7204 2.7678 57.272 4.13094 61.3664 6.85031C66.7481 10.4208 70.139 14.8562 71.553 20.1496C73.0093 25.706 71.94 31.1101 68.338 36.3551C65.0949 41.0811 58.9182 44.9284 49.822 47.9037C45.2844 49.3222 37.8906 50.9829 27.6617 52.8996L39.8886 61.0162C46.1708 65.1887 47.9436 69.285 45.1859 73.2914C43.8352 75.2565 42.0694 76.2391 39.8674 76.2391C37.5811 76.2391 34.8304 75.1735 31.6295 73.0423L8.0693 57.3765C2.74381 53.8407 1.46345 50.0557 4.23523 46.0216C5.34676 44.3956 7.60499 43.15 10.9959 42.2713C16.5676 40.9358 22.1111 39.5796 27.6266 38.2095C34.3379 36.5627 39.8674 35.0127 44.208 33.5458C49.0692 31.892 52.2842 29.913 53.8671 27.6019C54.9434 26.0312 55.4007 24.4397 55.2178 22.8344C55.0419 21.229 54.1555 19.8936 52.5586 18.8349C51.4822 18.1153 50.3074 17.7624 49.034 17.7624C48.3587 17.7624 47.6552 17.8662 46.9235 18.0668C45.6221 18.4958 43.7859 19.4715 41.4222 20.9938C39.0584 22.5161 37.3349 23.4433 36.2444 23.7893C35.7379 23.9415 35.2244 24.0176 34.7178 24.0176C33.5571 24.0176 32.3822 23.6232 31.2003 22.8413C29.2305 21.5335 28.0838 19.8382 27.7673 17.7624C27.4507 15.6796 27.9572 13.6729 29.2868 11.7355C30.328 10.2132 31.8616 8.71858 33.8877 7.2378C37.8343 4.29701 42.3719 2.80932 47.4793 2.7678C47.5497 2.7678 47.627 2.7678 47.6974 2.7678ZM47.6974 0L47.4512 0C41.7458 0.041517 36.6102 1.7368 32.1782 5.03048C29.934 6.6704 28.1612 8.4072 26.9442 10.1855C25.2136 12.7111 24.5452 15.3959 24.9744 18.1775C25.4105 21.0422 26.9723 23.3879 29.6104 25.1386C31.2637 26.2388 32.9732 26.7923 34.7038 26.7923C35.4917 26.7923 36.2796 26.6747 37.0535 26.4464C37.0675 26.4394 37.0816 26.4394 37.0957 26.4325C38.4534 26.0035 40.3106 25.014 42.9488 23.3187C45.5517 21.6442 46.9869 20.9799 47.7396 20.717C48.1969 20.5994 48.626 20.5371 49.02 20.5371C49.7375 20.5371 50.3566 20.7308 50.9687 21.1391C52.1365 21.9141 52.3475 22.6199 52.4108 23.1457C52.5164 24.0868 52.2279 25.0417 51.5244 26.0658C50.6802 27.2975 48.5627 29.138 43.2724 30.9371C39.0232 32.3694 33.5219 33.9194 26.9301 35.5317C21.3443 36.9156 15.7585 38.2787 10.3135 39.5865C10.2994 39.5934 10.2783 39.5934 10.2642 39.6003C6.14875 40.6659 3.41214 42.2574 1.88555 44.4786C-0.471175 47.9107 -0.21088 50.8791 0.429303 52.7682C1.28054 55.2799 3.25737 57.5426 6.47939 59.6807L30.0536 75.3396C33.7681 77.8098 36.9831 79.0069 39.8674 79.0069C42.998 79.0069 45.6432 77.5677 47.5145 74.8414C49.428 72.0597 49.7657 69.0498 48.5134 66.1366C47.4019 63.5626 45.0944 61.1408 41.4574 58.7258L34.8374 54.332C41.8372 52.9204 47.0431 51.6749 50.6661 50.547C50.6802 50.5401 50.6943 50.5401 50.7013 50.5332C60.5011 47.3294 67.0295 43.1985 70.6596 37.912C74.7117 32.0027 75.9288 25.7959 74.2685 19.4646C72.6857 13.5207 68.8727 8.51099 62.9352 4.56687C58.3976 1.52921 53.2691 0 47.6974 0Z" fill="#2E9161"/>
</g>
<defs>
<clipPath id="clip0_229_16329">
<rect width="75" height="79" fill="white"/>
</clipPath>
</defs>
</svg>
