<svg width="139" height="106" viewBox="0 0 139 106" fill="none" xmlns="http://www.w3.org/2000/svg">
<path d="M20.8696 1.64515C18.3499 -1.53229 13.4233 2.36686 15.9471 5.55087C18.7152 9.03961 20.9019 13.2642 22.1213 17.5388C23.0447 20.7734 27.9977 20.3158 27.4872 16.7703C26.6797 11.0919 24.4428 6.14925 20.8696 1.64515Z" fill="#FAB36B"/>
<path fill-rule="evenodd" clip-rule="evenodd" d="M90.9757 37.2475C87.5077 35.4471 83.2907 35.0656 79.4695 35.6133C77.7582 35.86 76.06 36.6474 74.3762 37.428C72.2938 38.3935 70.2337 39.3487 68.1985 39.2579C65.446 39.1305 62.9095 36.6355 60.3982 34.1653C58.9355 32.7265 57.4813 31.2962 55.9981 30.3471C52.6075 28.1728 48.8012 26.8692 44.7804 26.7809C36.8318 26.5929 30.839 31.2695 28.7265 38.7972C26.0338 48.3668 29.4003 58.392 33.8479 66.9093C38.3921 75.6217 43.6167 84.0492 48.8244 92.4495C51.0857 96.097 53.3439 99.7395 55.5417 103.398C58.0025 107.492 64.8786 104.835 62.7571 100.598C62.9123 100.54 63.0687 100.476 63.2235 100.395C79.3057 92.1461 96.6319 73.0466 98.9418 54.4813C99.8031 47.558 97.51 40.635 90.9757 37.2475ZM88.0477 59.7791C82.3255 74.0916 70.9454 84.3004 59.1276 93.6374C59.0301 93.7151 58.9366 93.7993 58.8498 93.8795C57.7928 92.1097 56.7193 90.3358 55.6423 88.5559C49.6233 78.6093 43.4936 68.4795 39.5066 57.8718C36.8172 50.7368 34.8509 30.8232 49.0203 36.7226C52.0716 37.9921 54.2616 40.4475 56.4311 42.88C58.6919 45.4148 60.9305 47.9247 64.0984 49.0417C67.5406 50.2563 70.3442 48.8763 73.2293 47.4562C73.9424 47.1052 74.6608 46.7516 75.3948 46.4343C79.9596 44.4665 88.0537 41.394 90.1668 49.6247C90.9269 52.6006 89.3871 56.4391 88.2495 59.2748L88.247 59.2812C88.1789 59.4509 88.1123 59.617 88.0477 59.7791Z" fill="#FAB36B"/>
<path d="M134.938 35.409C136.711 33.7967 135.063 30.9724 132.752 31.8011C128.686 33.2614 124.915 35.6833 121.211 38.0623C119.939 38.8789 118.675 39.6905 117.41 40.4563C114.533 42.1981 117.85 46.2321 120.695 44.5331C121.907 43.8085 123.157 43.1045 124.415 42.3962C128.111 40.3148 131.873 38.196 134.938 35.409Z" fill="#FAB36B"/>
<path d="M121.882 54.7566C126.845 53.8494 131.661 52.9691 136.763 53.0362C138.363 53.0583 138.791 55.7101 137.237 56.1639C132.319 57.5977 127.423 58.0389 122.37 58.4944C121.844 58.5417 121.317 58.5892 120.788 58.638C118.46 58.8516 117.933 55.4703 120.253 55.053C120.798 54.9547 121.341 54.8555 121.882 54.7566Z" fill="#FAB36B"/>
<path d="M1.79407 16.4169C-1.69539 13.1095 2.87791 8.45942 6.28835 11.7424C7.04105 12.4686 7.8351 13.1893 8.63693 13.917C10.8491 15.9246 13.1204 17.9861 14.7464 20.3678C16.601 23.0844 13.6098 26.2112 10.8 24.4722C8.33195 22.9486 6.16369 20.7677 4.05341 18.6451C3.29655 17.8839 2.54716 17.1301 1.79407 16.4169Z" fill="#FAB36B"/>
</svg>
