<svg width="20" height="21" viewBox="0 0 20 21" fill="none" xmlns="http://www.w3.org/2000/svg">
<path d="M9.99984 2.16675C5.40817 2.16675 1.6665 5.90841 1.6665 10.5001C1.6665 15.0917 5.40817 18.8334 9.99984 18.8334C14.5915 18.8334 18.3332 15.0917 18.3332 10.5001C18.3332 5.90841 14.5915 2.16675 9.99984 2.16675ZM13.3332 11.1251H10.6248V13.8334C10.6248 14.1751 10.3415 14.4584 9.99984 14.4584C9.65817 14.4584 9.37484 14.1751 9.37484 13.8334V11.1251H6.6665C6.32484 11.1251 6.0415 10.8417 6.0415 10.5001C6.0415 10.1584 6.32484 9.87508 6.6665 9.87508H9.37484V7.16675C9.37484 6.82508 9.65817 6.54175 9.99984 6.54175C10.3415 6.54175 10.6248 6.82508 10.6248 7.16675V9.87508H13.3332C13.6748 9.87508 13.9582 10.1584 13.9582 10.5001C13.9582 10.8417 13.6748 11.1251 13.3332 11.1251Z" fill="#477EEB"/>
</svg>
