<svg width="92" height="67" viewBox="0 0 92 67" fill="none" xmlns="http://www.w3.org/2000/svg">
<g clip-path="url(#clip0_229_14041)">
<g opacity="0.69">
<path d="M26.9703 6.11767C27.3005 6.238 27.643 6.39509 27.9901 6.59255C30.6033 8.07381 32.5327 10.9178 33.2795 14.3883C33.8086 16.8637 34.3909 21.5638 32.3829 25.2681C32.003 25.9743 31.5387 26.6111 31.0099 27.1598C29.2632 28.9798 26.8073 30.3221 23.71 31.1597C23.0302 31.344 22.3127 31.508 21.5228 31.6586C20.3146 31.8952 19.0888 32.0739 17.9034 32.2479C17.2491 32.3447 16.5949 32.4415 15.9385 32.544L15.7941 32.5687C15.0259 32.6949 14.2365 32.8263 13.3939 32.8029C12.7909 32.7765 12.2341 32.6767 11.7332 32.4942C11.2665 32.324 10.8438 32.0861 10.4843 31.781C9.11155 30.6294 8.78823 28.403 9.76768 26.8127C9.90811 26.5867 10.0651 26.386 10.278 26.1734C10.3039 26.1377 10.2946 26.057 10.2476 26.0269C9.74317 25.6947 9.29161 25.3238 8.90219 24.9239C7.94439 23.9429 7.41884 22.8551 7.37205 21.7805C7.30953 20.3069 8.14966 18.8335 9.57938 17.9361C9.91701 17.7174 10.3116 17.5195 10.7666 17.3501C10.8267 17.3268 10.8562 17.2989 10.8785 17.2555C10.8889 17.227 10.9102 17.1509 10.8518 17.0458C9.98297 15.4137 10.1072 13.4279 11.1756 11.8765C11.7891 10.9717 12.6768 10.2701 13.7438 9.87234C14.9444 9.4266 16.286 9.42556 17.5346 9.87422C17.8904 8.93354 18.6006 8.13495 19.5087 7.7309C20.3723 7.34287 21.4158 7.31055 22.3606 7.65495C22.372 7.6591 22.3777 7.66117 22.3834 7.66324C22.6037 7.25349 22.8995 6.88417 23.2662 6.58581C23.9757 6.01909 25.1888 5.46828 26.9703 6.11767Z" fill="#6B931F"/>
<path d="M12.1596 31.36C11.8409 31.2438 11.5387 31.0821 11.2729 30.8563C10.3289 30.0673 10.1795 28.4782 10.8117 27.4513C10.9102 27.2873 11.0288 27.1564 11.1532 27.0276C11.7343 26.4593 11.599 25.4685 10.9177 25.0203C10.5074 24.7482 10.1174 24.4384 9.76883 24.0857C9.1446 23.4455 8.62092 22.6356 8.58642 21.7396C8.53707 20.619 9.27544 19.5663 10.2272 18.9718C10.5317 18.7733 10.8636 18.6235 11.1949 18.4928C12.016 18.186 12.3294 17.2556 11.9252 16.4893C11.2296 15.1782 11.401 13.6997 12.1741 12.5693C12.6379 11.8808 13.322 11.3306 14.1664 11.013C15.1211 10.6581 16.1956 10.6822 17.1518 11.0308C17.5502 11.176 17.9222 11.3761 18.2621 11.6289C18.2714 11.6388 18.2884 11.645 18.2998 11.6492C18.3966 11.6844 18.51 11.6033 18.4997 11.4899C18.3898 10.4117 19.0076 9.28281 20.0012 8.83897C20.6106 8.56461 21.3197 8.56516 21.9458 8.79338C22.4637 8.98217 22.9257 9.32465 23.225 9.79484C23.1976 9.67526 23.1838 9.55413 23.1833 9.43147C23.1554 8.71201 23.4671 7.98091 24.0336 7.52329C24.8043 6.89503 25.7095 6.94127 26.5519 7.24833C26.8422 7.35414 27.1277 7.49048 27.3957 7.63975C29.9127 9.06659 31.4866 11.8068 32.0941 14.6333C32.764 17.7662 32.9043 21.7506 31.3203 24.6809C31.0011 25.2738 30.6062 25.8263 30.1385 26.3135C28.3426 28.1801 25.8946 29.306 23.3978 29.9821C22.699 30.1658 22.0027 30.3247 21.2935 30.466C19.461 30.8232 17.5918 31.0511 15.7495 31.3467C14.9814 31.473 14.209 31.6106 13.4373 31.5872C13.0062 31.5848 12.5694 31.5094 12.1596 31.36ZM11.3297 33.6367C11.9501 33.8629 12.6307 33.9949 13.3506 34.0187C14.3195 34.0495 15.2108 33.9037 15.9925 33.7759L16.1447 33.7476C16.7897 33.6409 17.4419 33.5498 18.0962 33.453C19.2893 33.2754 20.5286 33.0952 21.758 32.8534C22.5847 32.6905 23.3234 32.5213 24.03 32.3339C27.3474 31.4411 29.9866 29.9851 31.8892 28.0027C32.4932 27.3717 33.0232 26.6428 33.4576 25.8404C35.6531 21.7983 35.0359 16.7695 34.4748 14.1341C33.6533 10.3205 31.5077 7.18486 28.6002 5.53827C28.1889 5.30453 27.7802 5.11685 27.3931 4.97577C25.5832 4.31601 23.8517 4.55536 22.5124 5.64693C22.2809 5.83981 22.07 6.04668 21.8779 6.27323C20.9049 6.11203 19.9013 6.22979 19.0164 6.62298C18.1393 7.01256 17.4142 7.65742 16.9017 8.44426C15.7006 8.21922 14.462 8.30936 13.3328 8.73601C12.0255 9.22671 10.9343 10.0799 10.1768 11.203C9.06429 12.8221 8.78221 14.8342 9.38327 16.6524C9.22379 16.7362 9.06793 16.8277 8.92137 16.929C7.15609 18.0394 6.0936 19.9282 6.17649 21.8413C6.2303 23.215 6.88036 24.5803 8.04503 25.7722C8.23689 25.9711 8.4443 26.1627 8.66154 26.3451C7.47983 28.4549 7.93214 31.2118 9.73009 32.7183C10.1868 33.1105 10.7264 33.4168 11.3297 33.6367Z" fill="#526B10"/>
<path opacity="0.3" d="M14.1718 11.0151C15.5215 10.5141 17.1185 10.7674 18.2674 11.6311C18.3667 11.7124 18.5169 11.6189 18.5051 11.492C18.3951 10.4138 19.013 9.28496 20.0065 8.84113C21.1244 8.33942 22.5671 8.76857 23.236 9.79907C23.2087 9.67948 23.1948 9.55836 23.1944 9.43569C23.1665 8.71624 23.4781 7.98514 24.0447 7.52752C25.08 6.68622 26.3555 7.06089 27.4104 7.65174C29.9273 9.07858 31.5012 11.8188 32.1088 14.6453C32.7787 17.7782 32.919 21.7626 31.335 24.6929C31.1288 24.3212 30.9536 23.9349 30.7996 23.6853C30.0329 22.4451 29.1824 21.2582 28.2398 20.1473C26.4071 17.9575 24.2684 16.0237 21.8981 14.4247C20.1072 13.2173 18.1236 12.1848 15.9644 11.9523C14.6861 11.8152 13.3429 12.0155 12.1836 12.5601C12.6453 11.8773 13.3294 11.3271 14.1718 11.0151Z" fill="#526B10"/>
<path d="M10.0109 23.0324C10.6435 23.579 11.5056 23.7965 12.3446 23.8122C12.8886 23.8235 13.4813 23.7364 13.8713 23.3563C14.1826 23.0507 14.318 22.5907 14.2707 22.1543C14.2235 21.7179 14.0162 21.3136 13.7323 20.9779C11.9824 18.9151 7.34767 20.7334 10.0109 23.0324Z" fill="#75A122"/>
<path d="M12.0941 30.7621C12.7564 31.068 13.5323 31.0091 14.2374 30.8083C14.5909 30.705 14.9456 30.5635 15.1834 30.2826C15.3756 30.0561 15.4721 29.7559 15.4899 29.4594C15.5622 28.3767 14.578 27.3796 13.4968 27.3208C11.66 27.2122 9.9257 29.7589 12.0941 30.7621Z" fill="#75A122"/>
<path d="M43.899 13.0621C45.117 13.5061 46.335 14.0919 47.5243 14.8091C53.722 18.5384 59.0934 24.004 63.8291 28.8253C66.8391 31.8891 69.7506 35.1169 72.4933 38.4186L72.8826 38.8894C75.3751 41.887 77.9471 44.9847 79.586 48.6964C80.4189 50.5862 81.9751 54.1002 79.9254 56.8931C79.7363 57.1465 79.5441 57.3731 79.3411 57.5763C78.5087 58.4271 77.4306 59.0143 76.1442 59.3062C75.5328 59.4445 74.8734 59.52 74.1332 59.534L74.0489 59.5354C73.654 59.5398 73.2647 59.5462 72.874 59.5392C70.136 59.5148 67.3216 59.2047 64.2782 58.5854C64.2782 58.5854 63.9067 58.508 63.8953 58.5038C60.4027 57.7724 57.0165 56.7315 53.8709 55.7203L48.7259 54.0384C47.3355 53.5896 45.984 53.1228 44.7147 52.6601C37.7366 50.1165 32.1386 47.2184 27.6094 43.7943C24.6811 41.5856 22.6874 38.7762 21.9935 35.886C21.992 35.8725 21.9847 35.857 21.9832 35.8435C21.4446 33.5709 21.7227 31.3575 22.8003 29.2678C22.8491 29.1695 22.9076 29.0619 22.9662 28.9543C23.0994 28.7127 23.244 28.4752 23.3943 28.2398C24.0752 27.1855 24.9066 26.3021 25.7085 25.4467C26.3384 24.78 26.9268 24.1563 27.4309 23.4631C28.0366 22.6329 28.614 21.6504 29.1852 20.4723C29.559 19.7123 29.8992 18.9207 30.1496 18.322L30.2336 18.127C30.482 17.534 30.7738 16.9633 31.091 16.447C31.7533 15.3731 32.5541 14.485 33.4816 13.7978C35.1409 12.5714 37.1573 12.0104 39.4713 12.1188C40.8837 12.1887 42.3679 12.504 43.899 13.0621Z" fill="#FF7529"/>
<path d="M45.1295 51.5218C39.21 49.3641 33.3361 46.604 28.3356 42.8275C25.8878 40.9809 23.834 38.4075 23.1618 35.5639C22.73 33.7236 22.8764 31.7652 23.8753 29.8209C23.9219 29.7283 23.9743 29.6378 24.0209 29.5452C24.1401 29.3242 24.2687 29.1132 24.4086 28.9062C25.5382 27.1515 27.1898 25.8578 28.411 24.188C29.14 23.1963 29.7448 22.1208 30.2778 21.0125C30.6334 20.2846 30.9549 19.5442 31.2706 18.8017C31.2992 18.7411 31.3199 18.6842 31.3484 18.6237C31.5844 18.0649 31.842 17.5527 32.1249 17.0948C32.725 16.1207 33.4285 15.3583 34.2053 14.7839C35.7216 13.6666 37.5309 13.2493 39.42 13.3382C40.7522 13.3982 42.1328 13.7145 43.4818 14.2062C44.6543 14.6336 45.8096 15.1966 46.8934 15.8495C52.8801 19.4503 58.0901 24.7217 62.964 29.6771C65.9589 32.729 68.8316 35.904 71.5593 39.1937C74.1572 42.3266 76.8265 45.4403 78.4799 49.1832C79.412 51.2961 80.4864 54.08 78.9507 56.1703C78.8072 56.3695 78.6507 56.551 78.487 56.7171C77.7551 57.469 76.8635 57.8985 75.882 58.1146C75.3188 58.2446 74.723 58.3047 74.1076 58.3125C74.0807 58.3156 74.0502 58.3109 74.0232 58.314C73.6397 58.3225 73.266 58.3217 72.8866 58.3188C70.0146 58.2907 67.2396 57.9433 64.5202 57.3905C64.4115 57.3703 64.3106 57.3464 64.2019 57.3261C64.1714 57.3214 64.1486 57.3131 64.1181 57.3084C60.7875 56.6102 57.5244 55.6207 54.2422 54.5597C54.0011 54.4783 53.7579 54.4025 53.5111 54.319C53.2642 54.2355 53.021 54.1597 52.7799 54.0783C52.5025 53.9901 52.2273 53.8962 51.9499 53.808C51.494 53.6612 51.0346 53.5066 50.5787 53.3598C50.083 53.1984 49.5929 53.0391 49.0972 52.8778C47.7808 52.456 46.4557 52.0052 45.1295 51.5218ZM44.2996 53.7985C45.5859 54.2674 46.9509 54.7327 48.3584 55.1877C48.8484 55.347 49.3385 55.5062 49.8285 55.6655C50.1855 55.7828 50.5369 55.8979 50.8882 56.0131L51.1976 56.1194C51.4103 56.1905 51.6287 56.2637 51.8548 56.3332L52.0333 56.3918L52.3961 56.5111L52.7645 56.6325L53.1443 56.7581L53.4956 56.8733C56.6733 57.9026 60.0957 58.9502 63.6245 59.6884C63.6302 59.6905 63.6302 59.6905 63.6359 59.6926C63.6722 59.6993 63.7084 59.7061 63.7446 59.7128L63.8476 59.731L64.0572 59.7752C67.1616 60.4038 70.0448 60.7197 72.8651 60.7483C73.2714 60.7481 73.672 60.7458 74.0747 60.7378C74.0881 60.7363 74.1073 60.7368 74.1207 60.7353L74.159 60.7363C74.9836 60.7209 75.7181 60.634 76.42 60.4772C77.9301 60.1378 79.2163 59.4396 80.2243 58.4078C80.4491 58.1802 80.6848 57.905 80.9019 57.6102C83.364 54.252 81.5649 50.1658 80.6938 48.2041C78.9883 44.339 76.3568 41.1746 73.8162 38.1143L73.4269 37.6435C70.6619 34.3144 67.7262 31.0648 64.6919 27.9793C59.9039 23.1067 54.4767 17.582 48.1471 13.7724C46.8936 13.0189 45.6037 12.4004 44.3117 11.9295C42.6668 11.3299 41.0568 10.9881 39.5352 10.917C36.936 10.795 34.6566 11.4407 32.7705 12.8295C31.7198 13.6071 30.8065 14.6089 30.0618 15.8205C29.7125 16.3896 29.3865 17.0187 29.1091 17.6914L29.0722 17.7747L29.0536 17.8259C29.0494 17.8373 29.0453 17.8486 29.0411 17.86C28.7969 18.4416 28.4651 19.2105 28.1053 19.9498C27.5625 21.0674 27.0215 21.9856 26.4557 22.7595C25.9956 23.3849 25.4268 23.99 24.8264 24.6288C23.9852 25.5215 23.1124 26.4478 22.3693 27.6019C22.2071 27.8523 22.0464 28.1162 21.9049 28.3805C21.8443 28.4938 21.7816 28.6128 21.7209 28.7261C20.5277 31.0445 20.211 33.6114 20.8079 36.1309C20.811 36.1579 20.8218 36.1812 20.827 36.2024C21.5921 39.3571 23.7403 42.3969 26.8864 44.7688C31.5078 48.2588 37.2077 51.2134 44.2996 53.7985Z" fill="#F0681D"/>
<path d="M68.0115 47.3532C56.7955 39.3831 44.4254 33.2879 31.3113 29.6232C30.2784 29.3434 29.2206 29.2028 28.1606 29.2098C24.8734 29.2238 22.413 32.3119 23.1481 35.5136C23.1533 35.5349 23.1548 35.5483 23.1621 35.5639C23.8343 38.4074 25.8881 40.9809 28.3359 42.8274C34.4553 47.4437 41.8739 50.5477 49.1011 52.8855C49.5912 53.0447 50.0869 53.2061 50.5769 53.3654C51.0385 53.5143 51.4923 53.6668 51.9481 53.8136C52.2234 53.9075 52.5008 53.9957 52.7838 54.086C53.0249 54.1674 53.2738 54.2453 53.515 54.3267C53.7561 54.4082 53.9993 54.4839 54.2461 54.5674C57.5283 55.6284 60.7857 56.6159 64.1163 57.3141C64.1468 57.3187 64.1696 57.327 64.2001 57.3317C64.3088 57.352 64.4097 57.3759 64.5184 57.3961C67.2456 57.9453 70.0185 58.2984 72.8849 58.3244C73.2642 58.3273 73.64 58.3224 74.0215 58.3196C74.0484 58.3165 74.0789 58.3212 74.1058 58.3181C74.7176 58.3025 75.3134 58.2424 75.8802 58.1202C76.7442 57.9257 77.5436 57.5723 78.2216 56.9683C75.3629 53.1536 71.7277 50.1069 68.0115 47.3532Z" fill="#FF8642"/>
<g opacity="0.08">
<path d="M55.6815 24.5912C56.0452 24.885 56.4031 25.1766 56.7646 25.4761C56.4088 25.1787 56.0452 24.885 55.6815 24.5912Z" fill="#5E2C0B"/>
</g>
<path d="M54.5959 54.9336C55.4513 53.8075 56.1003 52.5223 56.4869 51.1609" stroke="#F0681D" stroke-width="4" stroke-miterlimit="10" stroke-linecap="round" stroke-linejoin="round"/>
<path d="M55.1925 37.4834C56.5757 35.8468 57.6667 33.9683 58.4125 31.9576" stroke="#F0681D" stroke-width="4" stroke-miterlimit="10" stroke-linecap="round" stroke-linejoin="round"/>
<path d="M37.6944 43.6146C39.2652 41.7111 40.5623 39.5854 41.5356 37.3223" stroke="#F0681D" stroke-width="4" stroke-miterlimit="10" stroke-linecap="round" stroke-linejoin="round"/>
<path d="M42.3753 22.0694C44.301 20.2888 45.6625 17.9157 46.2701 15.3645" stroke="#F0681D" stroke-width="4" stroke-miterlimit="10" stroke-linecap="round" stroke-linejoin="round"/>
<path d="M26.5338 41.4032C27.7374 40.4362 28.715 39.187 29.3502 37.7808" stroke="#F0681D" stroke-width="4" stroke-miterlimit="10" stroke-linecap="round" stroke-linejoin="round"/>
<path d="M62.0472 47.2103C63.4028 45.8796 64.5142 44.2988 65.2981 42.5727" stroke="#F0681D" stroke-width="4" stroke-miterlimit="10" stroke-linecap="round" stroke-linejoin="round"/>
<path d="M30.3847 29.3504C32.0162 27.9526 33.3115 26.168 34.1427 24.1883" stroke="#F0681D" stroke-width="4" stroke-miterlimit="10" stroke-linecap="round" stroke-linejoin="round"/>
<path opacity="0.1" d="M29.8815 41.1858C31.474 41.9468 33.2563 42.2934 34.8709 41.9147C37.8977 41.1997 38.0642 38.0364 36.3854 35.8318C35.5994 34.8038 34.5245 34.0379 33.4682 33.2918C31.1471 31.6462 26.2699 29.0173 25.0362 33.481C24.5929 35.0862 25.1982 36.8221 26.1707 38.1695C27.0341 39.3741 28.3702 40.4672 29.8815 41.1858Z" fill="white"/>
<path opacity="0.1" d="M68.1009 56.4647C68.5818 56.4723 69.0409 56.4333 69.4576 56.3337C70.5359 56.082 71.5139 55.0263 71.2622 53.948C71.0295 52.9412 69.9342 52.4258 68.9671 52.054C63.9667 50.1346 58.9643 48.2209 53.9582 46.2994C52.9626 45.9172 51.9117 45.5276 50.8501 45.6629C49.5979 45.8255 48.4806 46.998 48.6101 48.2703C48.816 50.3056 51.5136 51.0954 53.0233 51.8005C55.6434 53.0328 58.349 54.0835 61.1324 54.8853C63.0067 55.4395 65.8402 56.4401 68.1009 56.4647Z" fill="white"/>
<path d="M70.8959 49.0625C72.6695 47.1685 73.9968 44.8539 74.7596 42.3722" stroke="#F0681D" stroke-width="4" stroke-miterlimit="10" stroke-linecap="round" stroke-linejoin="round"/>
<path d="M10.9397 18.6964C10.8754 18.8728 10.8074 19.0415 10.7452 19.2123C10.7701 19.144 10.7929 19.0814 10.8157 19.0188C10.8572 18.9049 10.9023 18.7989 10.9397 18.6964Z" fill="#6E9620"/>
<path d="M10.7435 19.2179C10.6833 19.383 10.619 19.5594 10.5547 19.7358C10.6112 19.563 10.6735 19.3923 10.7435 19.2179Z" fill="#6E9620"/>
<path d="M10.8988 27.973C10.9282 28.1578 10.9519 28.3405 10.9776 28.5176C10.9642 28.4482 10.9565 28.3809 10.9488 28.3136C10.9271 28.1961 10.9112 28.0807 10.8988 27.973Z" fill="#6E9620"/>
<path d="M10.9749 28.5233C11.0007 28.7003 11.0321 28.8795 11.0537 29.0679C11.0259 28.8965 10.9965 28.7117 10.9749 28.5233Z" fill="#6E9620"/>
</g>
</g>
<defs>
<clipPath id="clip0_229_14041">
<rect width="83.099" height="40.0743" fill="white" transform="translate(78.0742 66.1096) rotate(-159.973)"/>
</clipPath>
</defs>
</svg>
