<svg width="16" height="16" viewBox="0 0 16 16" fill="none" xmlns="http://www.w3.org/2000/svg">
<path d="M3.04962 3.05011C3.23715 2.86264 3.49146 2.75732 3.75662 2.75732C4.02179 2.75732 4.27609 2.86264 4.46362 3.05011L7.99962 6.58611L11.5356 3.05011C11.7242 2.86795 11.9768 2.76716 12.239 2.76944C12.5012 2.77172 12.752 2.87688 12.9374 3.06229C13.1228 3.2477 13.228 3.49851 13.2303 3.76071C13.2326 4.02291 13.1318 4.27551 12.9496 4.46411L9.41362 8.00011L12.9496 11.5361C13.1318 11.7247 13.2326 11.9773 13.2303 12.2395C13.228 12.5017 13.1228 12.7525 12.9374 12.9379C12.752 13.1233 12.5012 13.2285 12.239 13.2308C11.9768 13.2331 11.7242 13.1323 11.5356 12.9501L7.99962 9.41411L4.46362 12.9501C4.27502 13.1323 4.02242 13.2331 3.76022 13.2308C3.49802 13.2285 3.24721 13.1233 3.0618 12.9379C2.8764 12.7525 2.77123 12.5017 2.76895 12.2395C2.76667 11.9773 2.86746 11.7247 3.04962 11.5361L6.58562 8.00011L3.04962 4.46411C2.86215 4.27658 2.75684 4.02227 2.75684 3.75711C2.75684 3.49195 2.86215 3.23764 3.04962 3.05011Z" fill="#2A364D"/>
</svg>
