<svg width="152" height="100" viewBox="0 0 152 100" fill="none" xmlns="http://www.w3.org/2000/svg">
<g clip-path="url(#clip0_229_14485)">
<path d="M148.549 65.8617C148.503 65.8617 148.451 65.8552 148.405 65.8486C148.164 65.7964 147.974 65.6072 147.916 65.3657C147.772 64.7914 147.485 64.2628 147.074 63.8386C146.741 63.4927 146.323 63.2121 145.886 62.9119C145.71 62.7944 145.534 62.6704 145.364 62.5464C143.98 61.5479 143.38 60.445 143.569 59.2638C143.732 58.2457 144.489 57.8541 144.901 57.6388L145.109 57.5343C145.292 57.443 145.436 57.3712 145.553 57.2668L145.69 57.1363C145.938 56.9078 146.245 56.6142 146.676 56.4771C146.839 56.4249 147.015 56.3988 147.191 56.3988C147.596 56.3988 148.013 56.5358 148.372 56.7904C148.829 57.1167 149.129 57.5735 149.319 57.8868C149.847 58.7874 150.193 59.825 150.317 60.8888C150.409 61.6784 150.369 62.4485 150.213 63.1795C150.017 64.0801 149.619 64.9154 149.058 65.6137C148.927 65.7769 148.744 65.8617 148.549 65.8617Z" fill="#A8BDED"/>
<path d="M147.191 57.0579C147.472 57.0579 147.759 57.1624 147.994 57.3255C148.314 57.5539 148.555 57.8802 148.757 58.2196C149.24 59.0419 149.56 59.9947 149.665 60.9671C149.743 61.6654 149.717 62.3702 149.573 63.0424C149.404 63.8255 149.051 64.576 148.549 65.2026C148.379 64.5173 148.027 63.8843 147.537 63.3752C147.015 62.8336 146.349 62.455 145.742 62.0113C144.887 61.3978 144.026 60.5037 144.209 59.3617C144.307 58.7482 144.685 58.4806 145.201 58.2131C145.481 58.063 145.749 57.9651 145.99 57.7497C146.264 57.5082 146.519 57.2146 146.878 57.1036C146.976 57.071 147.08 57.0579 147.191 57.0579ZM147.191 55.7527C146.95 55.7527 146.708 55.7919 146.48 55.8571C145.906 56.0399 145.521 56.3988 145.24 56.6598C145.194 56.699 145.155 56.7382 145.109 56.7773C145.057 56.823 144.946 56.8817 144.809 56.9405C144.737 56.9796 144.659 57.0123 144.587 57.0514C144.15 57.2798 143.132 57.815 142.917 59.1528C142.76 60.1448 142.982 61.6262 144.972 63.0685C145.149 63.199 145.331 63.3165 145.507 63.4405C145.919 63.7211 146.304 63.9822 146.591 64.2824C146.917 64.6217 147.159 65.059 147.27 65.5158C147.387 65.9987 147.765 66.3707 148.255 66.4752C148.353 66.4947 148.444 66.5078 148.542 66.5078C148.934 66.5078 149.306 66.3316 149.554 66.0248C150.18 65.2548 150.624 64.315 150.839 63.3165C151.016 62.5138 151.048 61.6719 150.957 60.817C150.826 59.6619 150.454 58.5328 149.873 57.5539C149.658 57.1819 149.299 56.6468 148.738 56.2552C148.281 55.9354 147.726 55.7527 147.191 55.7527Z" fill="#6D83B0"/>
<path d="M129.577 46.825C131.979 46.9881 134.354 47.5624 136.573 48.5022C138.988 49.5202 140.841 50.9886 142.721 52.7964C143.856 53.8862 144.959 55.074 145.553 56.5293C145.703 56.8948 145.788 57.3842 145.481 57.6322C145.175 57.8802 144.724 57.704 144.378 57.5213C141.494 55.9942 138.779 54.2974 135.575 53.4294C133.839 52.9595 132.018 52.7833 130.223 52.9204" fill="#A8BDED"/>
<path d="M129.577 46.825C131.979 46.9881 134.354 47.5624 136.573 48.5022C138.988 49.5202 140.841 50.9886 142.721 52.7964C143.856 53.8862 144.959 55.074 145.553 56.5293C145.703 56.8948 145.788 57.3842 145.481 57.6322C145.175 57.8802 144.724 57.704 144.378 57.5213C141.494 55.9942 138.779 54.2974 135.575 53.4294C133.839 52.9595 132.018 52.7833 130.223 52.9204" stroke="#6D83B0" stroke-width="2" stroke-miterlimit="10" stroke-linecap="round" stroke-linejoin="round"/>
<path d="M62.2925 66.8604C61.4703 76.1079 61.8945 85.5055 63.539 94.6095C63.6108 94.9945 63.6891 95.3926 63.911 95.6928C64.1068 95.9539 64.394 96.104 64.6746 96.228C66.3388 96.9785 68.153 97.1547 69.9412 97.1221C72.4603 97.0764 74.9794 96.6195 77.3875 95.7711C78.0728 95.5297 78.6014 94.9032 78.771 94.107C80.6375 85.238 80.8007 75.9056 79.2409 66.9582" fill="#A8B9DD"/>
<path d="M62.2925 66.8604C61.4703 76.1079 61.8945 85.5055 63.539 94.6095C63.6108 94.9945 63.6891 95.3926 63.911 95.6928C64.1068 95.9539 64.394 96.104 64.6746 96.228C66.3388 96.9785 68.153 97.1547 69.9412 97.1221C72.4603 97.0764 74.9794 96.6195 77.3875 95.7711C78.0728 95.5297 78.6014 94.9032 78.771 94.107C80.6375 85.238 80.8007 75.9056 79.2409 66.9582" stroke="#6D83B0" stroke-width="2" stroke-miterlimit="10" stroke-linecap="round" stroke-linejoin="round"/>
<path d="M67.3833 96.9133C66.0258 96.8415 64.8903 96.6326 63.9179 96.2672C63.6373 96.1628 63.4676 95.8821 63.5002 95.5819C63.5394 95.2361 63.6242 94.9163 63.6829 94.7009C63.8591 94.0809 64.1463 93.6241 64.577 93.2978C64.9686 92.9976 65.4776 92.8279 65.9867 92.8279C66.2086 92.8279 66.4174 92.8605 66.6132 92.9258C67.07 93.0759 67.4485 93.3761 67.69 93.7872C67.8988 94.1397 67.9706 94.4986 68.0098 94.8053C68.0816 95.3013 68.1011 95.8104 68.0685 96.3063C68.0424 96.6522 67.7618 96.9133 67.4159 96.9133C67.4028 96.9133 67.3963 96.9133 67.3833 96.9133Z" fill="white"/>
<path d="M65.9867 93.4805C66.1302 93.4805 66.2803 93.5001 66.4174 93.5458C66.7437 93.6502 66.9852 93.8721 67.1287 94.1136C67.2723 94.355 67.331 94.6226 67.3637 94.8902C67.4289 95.347 67.4485 95.8038 67.4159 96.2607C66.2999 96.2019 65.1774 96.0388 64.1463 95.6537C64.1789 95.3666 64.2507 95.0925 64.3094 94.8771C64.4204 94.4855 64.6031 94.094 64.9686 93.8133C65.2362 93.611 65.6147 93.4805 65.9867 93.4805ZM65.9867 92.1753C65.3406 92.1753 64.6814 92.3972 64.1789 92.7757C63.6372 93.1934 63.2653 93.7611 63.0564 94.5182C62.9912 94.7531 62.8998 95.112 62.8541 95.5036C62.7823 96.0975 63.1282 96.6653 63.6895 96.8741C64.7206 97.2657 65.9214 97.4876 67.3506 97.5594C67.3767 97.5594 67.3963 97.5594 67.4224 97.5594C68.1011 97.5594 68.6754 97.0307 68.7211 96.3455C68.7603 95.8038 68.7342 95.2491 68.6624 94.7009C68.6167 94.355 68.5253 93.8982 68.2578 93.4479C67.938 92.9062 67.4289 92.4951 66.822 92.2993C66.5479 92.221 66.2738 92.1753 65.9867 92.1753Z" fill="#6D83B0"/>
<path d="M69.2238 97.1155C68.8844 97.109 68.6038 96.8414 68.5842 96.502C68.5516 95.9408 68.6821 95.36 68.7865 94.9814C68.9627 94.3419 69.2564 93.8655 69.6871 93.5196C70.0852 93.2063 70.6073 93.0236 71.1294 93.0236C71.3513 93.0236 71.5667 93.0562 71.769 93.1215C72.2258 93.2781 72.6174 93.5914 72.8588 94.0221C73.0611 94.3876 73.1329 94.7596 73.1786 95.0793C73.2308 95.4709 73.2569 95.8755 73.2504 96.2802C73.2439 96.5999 73.0024 96.874 72.6826 96.9132C71.6841 97.0502 70.666 97.1155 69.661 97.1155C69.5109 97.122 69.3673 97.1155 69.2238 97.1155Z" fill="white"/>
<path d="M71.129 93.6762C71.2791 93.6762 71.4226 93.6958 71.5662 93.7415C71.899 93.8525 72.147 94.0874 72.2906 94.3419C72.4342 94.603 72.4929 94.8836 72.5321 95.1577C72.5843 95.5231 72.6039 95.8951 72.5973 96.2671C71.6249 96.3976 70.646 96.4629 69.6671 96.4629C69.5235 96.4629 69.3865 96.4629 69.2429 96.4564C69.2168 95.993 69.3343 95.497 69.4256 95.1446C69.5366 94.7335 69.7258 94.3223 70.0978 94.0221C70.3654 93.8198 70.7504 93.6762 71.129 93.6762ZM71.129 92.371C70.4633 92.371 69.7911 92.606 69.2821 93.0106C68.7404 93.4413 68.3749 94.0287 68.1596 94.8118C68.0421 95.2425 67.892 95.8886 67.9312 96.5478C67.9703 97.2265 68.5316 97.7616 69.2103 97.7747C69.3604 97.7747 69.5105 97.7812 69.6606 97.7812C70.6982 97.7812 71.7424 97.7094 72.767 97.5724C73.4066 97.4875 73.8895 96.9458 73.896 96.2998C73.9026 95.8625 73.8765 95.4253 73.8177 94.9945C73.772 94.6421 73.6807 94.1657 73.4196 93.7089C73.0999 93.1476 72.5843 92.7169 71.9774 92.5146C71.7033 92.4167 71.4226 92.371 71.129 92.371Z" fill="#6D83B0"/>
<path d="M74.0065 97.9182C72.7731 97.9182 71.8268 97.0176 71.755 95.7841C71.7289 95.2686 71.755 94.7399 71.8398 94.2244C71.9704 93.4347 72.3293 92.7625 72.9101 92.247C73.1973 91.9924 73.7911 91.5421 74.5482 91.4181C74.6983 91.392 74.8549 91.379 75.0115 91.379C75.501 91.379 75.9905 91.503 76.4212 91.7314C77.1325 92.1099 77.6742 92.7756 77.9483 93.5979C78.0919 94.0286 78.1637 94.5115 78.1571 94.9879C78.1506 95.3273 78.1441 96.2279 77.3544 96.9588C77.1717 97.1285 76.9694 97.2721 76.741 97.3895C76.506 97.5135 76.258 97.6049 75.9513 97.6767C75.5467 97.7746 75.1616 97.8203 74.8353 97.8529C74.6265 97.8725 74.4177 97.8921 74.2023 97.9051C74.1305 97.9116 74.0652 97.9182 74.0065 97.9182Z" fill="white"/>
<path d="M75.0055 93.3369C75.1752 93.3369 75.3514 93.3826 75.4949 93.4544C75.7821 93.6045 75.9779 93.8981 76.0823 94.2049C76.1606 94.4463 76.1998 94.7074 76.1932 94.9619C76.1932 95.1773 76.1867 95.3665 76.0105 95.5297C75.9583 95.5819 75.893 95.621 75.8278 95.6537C75.7168 95.7124 75.5994 95.7516 75.4754 95.7777C75.2013 95.8429 74.9207 95.8756 74.64 95.9017C74.4508 95.9212 74.2615 95.9343 74.0723 95.9473C74.0461 95.9473 74.02 95.9473 74.0005 95.9473C73.8177 95.9473 73.7198 95.8886 73.7068 95.6602C73.6872 95.2817 73.7068 94.9032 73.7655 94.5312C73.8243 94.1918 73.9548 93.9242 74.2093 93.6893C74.3725 93.5457 74.6335 93.3695 74.8489 93.3369C74.9076 93.3434 74.9598 93.3369 75.0055 93.3369ZM75.0055 89.4212C74.751 89.4212 74.4899 89.4408 74.2419 89.4799C72.9889 89.6823 72.0491 90.3805 71.6054 90.7852C70.6982 91.6009 70.1109 92.6777 69.9086 93.9047C69.7976 94.5638 69.765 95.2295 69.8042 95.8886C69.9347 98.1597 71.7424 99.8696 74.007 99.8696C74.1049 99.8696 74.2093 99.8695 74.3268 99.8565C74.5552 99.8434 74.7901 99.8239 75.0185 99.8043C75.4166 99.7651 75.893 99.7129 76.4217 99.5824C76.872 99.4715 77.2766 99.3214 77.6486 99.1256C78.0271 98.9233 78.3795 98.6818 78.6862 98.3881C79.6129 97.5201 80.0959 96.3846 80.1089 95.0076C80.1155 94.3093 80.011 93.624 79.8022 92.978C79.378 91.6793 78.497 90.6155 77.3418 90.002C76.624 89.6235 75.8213 89.4212 75.0055 89.4212Z" fill="#7F94BF"/>
<path d="M100.705 66.8604C99.8824 76.1079 100.307 85.5055 101.951 94.6095C102.023 94.9945 102.101 95.3926 102.323 95.6928C102.519 95.9539 102.806 96.104 103.087 96.228C104.751 96.9785 106.565 97.1547 108.353 97.1221C110.872 97.0764 113.391 96.6195 115.8 95.7711C116.485 95.5297 117.013 94.9032 117.183 94.107C119.05 85.238 119.213 75.9056 117.653 66.9582" fill="#A8B9DD"/>
<path d="M100.705 66.8604C99.8824 76.1079 100.307 85.5055 101.951 94.6095C102.023 94.9945 102.101 95.3926 102.323 95.6928C102.519 95.9539 102.806 96.104 103.087 96.228C104.751 96.9785 106.565 97.1547 108.353 97.1221C110.872 97.0764 113.391 96.6195 115.8 95.7711C116.485 95.5297 117.013 94.9032 117.183 94.107C119.05 85.238 119.213 75.9056 117.653 66.9582" stroke="#6D83B0" stroke-width="2" stroke-miterlimit="10" stroke-linecap="round" stroke-linejoin="round"/>
<path d="M106.297 96.9133C104.94 96.8415 103.804 96.6326 102.832 96.2672C102.551 96.1628 102.382 95.8821 102.414 95.5819C102.453 95.2426 102.532 94.9358 102.597 94.7009C102.773 94.0809 103.06 93.6241 103.491 93.2978C103.883 92.9976 104.392 92.8279 104.901 92.8279C105.123 92.8279 105.331 92.8605 105.527 92.9258C105.984 93.0759 106.363 93.3761 106.604 93.7872C106.813 94.1397 106.885 94.4986 106.924 94.8053C106.996 95.3078 107.015 95.8104 106.983 96.3063C106.956 96.6522 106.676 96.9133 106.33 96.9133C106.323 96.9133 106.31 96.9133 106.297 96.9133Z" fill="white"/>
<path d="M104.901 93.4805C105.044 93.4805 105.194 93.5001 105.331 93.5458C105.658 93.6502 105.899 93.8721 106.043 94.1136C106.186 94.355 106.245 94.6226 106.278 94.8902C106.343 95.347 106.363 95.8038 106.33 96.2607C105.214 96.2019 104.091 96.0388 103.06 95.6537C103.093 95.3666 103.165 95.0925 103.224 94.8771C103.334 94.4855 103.517 94.094 103.883 93.8133C104.157 93.611 104.529 93.4805 104.901 93.4805ZM104.901 92.1753C104.255 92.1753 103.595 92.3972 103.093 92.7757C102.551 93.1934 102.179 93.7611 101.97 94.5182C101.905 94.7531 101.814 95.112 101.768 95.5036C101.696 96.0975 102.042 96.6653 102.604 96.8741C103.635 97.2657 104.835 97.4876 106.265 97.5594C106.291 97.5594 106.31 97.5594 106.336 97.5594C107.015 97.5594 107.589 97.0307 107.635 96.3455C107.674 95.8038 107.648 95.2491 107.576 94.7009C107.531 94.355 107.439 93.8982 107.172 93.4479C106.852 92.9062 106.343 92.4951 105.736 92.2993C105.468 92.221 105.188 92.1753 104.901 92.1753Z" fill="#6D83B0"/>
<path d="M107.636 96.6065C107.297 96.5999 107.016 96.3324 106.996 95.993C106.964 95.4318 107.094 94.8574 107.199 94.4724C107.375 93.8328 107.669 93.3564 108.099 93.0106C108.497 92.6973 109.019 92.5146 109.542 92.5146C109.763 92.5146 109.979 92.5472 110.181 92.6125C110.644 92.7691 111.029 93.0889 111.271 93.5131C111.473 93.872 111.545 94.2505 111.591 94.5703C111.643 94.9619 111.669 95.3665 111.663 95.7711C111.656 96.0909 111.415 96.365 111.095 96.4041C110.096 96.5412 109.085 96.6065 108.073 96.6065C107.923 96.613 107.779 96.6065 107.636 96.6065Z" fill="white"/>
<path d="M109.541 93.1672C109.691 93.1672 109.835 93.1868 109.978 93.2325C110.311 93.3434 110.559 93.5784 110.703 93.8329C110.846 94.0939 110.905 94.3745 110.944 94.6486C110.996 95.0141 111.016 95.3861 111.009 95.7581C110.037 95.8886 109.058 95.9539 108.079 95.9539C107.936 95.9539 107.799 95.9539 107.655 95.9473C107.629 95.484 107.746 94.988 107.838 94.6356C107.949 94.2244 108.138 93.8133 108.51 93.5131C108.771 93.3108 109.156 93.1672 109.541 93.1672ZM109.541 91.862C108.875 91.862 108.203 92.0969 107.694 92.5015C107.153 92.9323 106.787 93.5196 106.572 94.3028C106.454 94.7335 106.304 95.3796 106.343 96.0387C106.382 96.7174 106.944 97.2526 107.622 97.2656C107.772 97.2656 107.923 97.2722 108.073 97.2722C109.11 97.2722 110.155 97.2004 111.179 97.0633C111.819 96.9785 112.302 96.4368 112.308 95.7907C112.315 95.3535 112.289 94.9162 112.23 94.4855C112.184 94.1331 112.093 93.6567 111.832 93.1998C111.512 92.6386 110.996 92.2079 110.389 92.0056C110.115 91.9077 109.835 91.862 109.541 91.862Z" fill="#6D83B0"/>
<path d="M112.413 96.613C111.858 96.613 111.499 96.2671 111.466 95.7124C111.44 95.2882 111.466 94.864 111.532 94.4398C111.616 93.9373 111.832 93.5392 112.184 93.2194C112.295 93.115 112.7 92.7822 113.157 92.7104C113.241 92.6973 113.326 92.6908 113.411 92.6908C113.692 92.6908 113.966 92.7561 114.207 92.8866C114.618 93.1085 114.938 93.5066 115.108 94.0091C115.206 94.3093 115.258 94.6421 115.251 94.9749C115.251 95.2295 115.245 95.6537 114.86 96.0126C114.762 96.104 114.658 96.1758 114.534 96.241C114.397 96.3128 114.233 96.3715 114.038 96.4172C113.718 96.4955 113.405 96.5347 113.111 96.5608C112.915 96.5804 112.719 96.5934 112.517 96.6065C112.491 96.613 112.452 96.613 112.413 96.613Z" fill="white"/>
<path d="M113.418 93.3369C113.587 93.3369 113.763 93.3826 113.907 93.4544C114.194 93.6045 114.39 93.8981 114.494 94.2049C114.573 94.4463 114.612 94.7074 114.605 94.9619C114.605 95.1773 114.599 95.3665 114.423 95.5297C114.37 95.5819 114.305 95.621 114.24 95.6537C114.129 95.7124 114.011 95.7516 113.887 95.7777C113.613 95.8429 113.333 95.8756 113.052 95.9017C112.863 95.9212 112.674 95.9343 112.484 95.9473C112.458 95.9473 112.432 95.9473 112.413 95.9473C112.23 95.9473 112.132 95.8886 112.119 95.6602C112.099 95.2817 112.119 94.9032 112.178 94.5312C112.236 94.1918 112.367 93.9242 112.621 93.6893C112.785 93.5457 113.046 93.3695 113.261 93.3369C113.313 93.3434 113.365 93.3369 113.418 93.3369ZM113.418 92.0317C113.3 92.0317 113.176 92.0382 113.059 92.0578C112.445 92.1557 111.943 92.5603 111.753 92.7234C111.29 93.1411 110.996 93.6828 110.892 94.3223C110.814 94.7922 110.788 95.2686 110.814 95.7385C110.866 96.6326 111.519 97.2591 112.413 97.2591C112.458 97.2591 112.51 97.2591 112.569 97.2526C112.772 97.2395 112.98 97.2265 113.183 97.2069C113.502 97.1743 113.842 97.1351 114.207 97.0503C114.455 96.9915 114.664 96.9132 114.853 96.8153C115.023 96.724 115.186 96.613 115.323 96.489C115.911 95.9408 115.917 95.2686 115.917 94.9815C115.924 94.5769 115.858 94.1657 115.741 93.8002C115.526 93.1411 115.095 92.606 114.534 92.3058C114.188 92.1296 113.803 92.0317 113.418 92.0317Z" fill="#6D83B0"/>
<path d="M110.449 83.7891C109.64 83.8805 108.844 83.9457 108.073 83.9914C101.717 84.3699 95.9348 84.9377 89.6045 83.5281C86.2696 82.7841 83.0979 81.4919 79.8479 80.5521C76.4608 79.5732 73.0216 78.0722 70.0261 76.2188C68.4011 75.2138 66.8935 74.026 65.523 72.6947C61.9076 69.1967 59.2514 64.7263 57.8809 59.8904C56.4778 54.9371 57.1043 51.2237 59.271 46.6228C63.2193 38.2432 71.8599 32.6895 81.1336 32.6895C81.1401 32.6895 110.462 32.6895 110.462 32.6895C123.743 32.6895 134.609 43.5555 134.609 56.8362V59.8643C134.609 66.4035 131.796 72.786 127.091 77.3087C122.914 81.3157 116.329 83.143 110.449 83.7891Z" fill="#A8BDED" stroke="#6D83B0" stroke-width="2" stroke-miterlimit="10" stroke-linecap="round" stroke-linejoin="round"/>
<path opacity="0.2" d="M134.602 56.1964V59.2246C134.602 65.7638 131.789 72.1463 127.084 76.6624C122.914 80.676 116.322 82.5033 110.449 83.1494C109.64 83.2342 108.843 83.306 108.073 83.3517C101.717 83.7302 95.9348 84.298 89.6044 82.8818C86.2696 82.1378 83.0979 80.8457 79.8478 79.9059C76.4673 78.927 73.0215 77.426 70.026 75.566C68.401 74.561 66.8935 73.3732 65.523 72.0484C61.9075 68.5504 59.2514 64.08 57.8743 59.2441C57.0651 56.3857 56.9281 53.9449 57.3784 51.5042C57.4958 52.2024 57.6655 52.9203 57.8743 53.6643C59.2448 58.5002 61.9075 62.9706 65.523 66.4686C66.8935 67.7934 68.4075 68.9811 70.026 69.9862C73.015 71.8461 76.4608 73.3471 79.8478 74.3261C83.0979 75.2658 86.2696 76.558 89.6044 77.302C95.9348 78.7116 101.717 78.1504 108.073 77.7719C108.843 77.7262 109.64 77.6609 110.449 77.5695C116.322 76.9235 122.914 75.0961 127.084 71.0826C131.489 66.8536 134.23 60.9932 134.563 54.8977C134.596 55.3285 134.602 55.7592 134.602 56.1964Z" fill="#7F94BF"/>
<path d="M112.178 69.0465C111.356 78.294 111.78 87.6917 113.425 96.7956C113.496 97.1807 113.575 97.5788 113.797 97.879C113.992 98.14 114.279 98.2901 114.56 98.4141C116.224 99.1646 118.039 99.3408 119.827 99.3082C122.346 99.2625 124.865 98.8057 127.273 97.9573C127.958 97.7158 128.487 97.0893 128.657 96.2931C130.523 87.4241 130.686 78.0917 129.126 69.1444" fill="#A8BDED"/>
<path d="M112.178 69.0465C111.356 78.294 111.78 87.6917 113.425 96.7956C113.496 97.1807 113.575 97.5788 113.797 97.879C113.992 98.14 114.279 98.2901 114.56 98.4141C116.224 99.1646 118.039 99.3408 119.827 99.3082C122.346 99.2625 124.865 98.8057 127.273 97.9573C127.958 97.7158 128.487 97.0893 128.657 96.2931C130.523 87.4241 130.686 78.0917 129.126 69.1444" stroke="#6D83B0" stroke-width="2" stroke-miterlimit="10" stroke-linecap="round" stroke-linejoin="round"/>
<path opacity="0.2" d="M128.891 96.4301C128.722 97.2263 128.199 97.8528 127.514 98.0943C125.106 98.9361 122.587 99.3995 120.068 99.4452C118.782 99.4648 117.484 99.3799 116.237 99.0536C118.502 98.7665 120.747 98.2378 122.926 97.4678C123.86 97.1415 124.577 96.2865 124.799 95.2032C126.581 86.7323 128.826 78.1112 128.31 69.4249L129.361 69.2814C130.914 78.2287 130.751 87.5611 128.891 96.4301Z" fill="#7F94BF"/>
<path d="M117.934 99.1451C116.576 99.0733 115.441 98.8644 114.468 98.499C114.188 98.3946 114.018 98.114 114.051 97.8137C114.09 97.4679 114.175 97.1481 114.233 96.9327C114.41 96.3127 114.697 95.8559 115.128 95.5296C115.519 95.2294 116.028 95.0597 116.537 95.0597C116.759 95.0597 116.968 95.0923 117.164 95.1576C117.621 95.3077 117.999 95.6079 118.241 96.0191C118.449 96.3649 118.521 96.7304 118.56 97.0371C118.632 97.5396 118.652 98.0422 118.619 98.5382C118.593 98.884 118.312 99.1451 117.966 99.1451C117.96 99.1451 117.947 99.1451 117.934 99.1451Z" fill="white"/>
<path d="M116.537 95.7123C116.681 95.7123 116.831 95.7319 116.968 95.7776C117.294 95.882 117.536 96.1039 117.679 96.3454C117.823 96.5868 117.882 96.8544 117.914 97.122C117.979 97.5788 117.999 98.0356 117.966 98.4925C116.85 98.4337 115.728 98.2706 114.697 97.8855C114.729 97.5984 114.801 97.3243 114.86 97.1089C114.971 96.7174 115.154 96.3258 115.519 96.0452C115.787 95.8429 116.165 95.7123 116.537 95.7123ZM116.537 94.4071C115.891 94.4071 115.232 94.629 114.729 95.0075C114.188 95.4252 113.816 95.993 113.607 96.75C113.542 96.9849 113.45 97.3439 113.405 97.7354C113.333 98.3293 113.679 98.8971 114.24 99.1059C115.271 99.4975 116.472 99.7194 117.901 99.7912C117.927 99.7912 117.947 99.7912 117.973 99.7912C118.652 99.7912 119.226 99.2625 119.272 98.5773C119.311 98.0356 119.285 97.4809 119.213 96.9327C119.167 96.5868 119.076 96.13 118.808 95.6797C118.489 95.138 117.979 94.7269 117.373 94.5311C117.105 94.4528 116.824 94.4071 116.537 94.4071Z" fill="#6D83B0"/>
<path d="M119.775 98.8384C119.435 98.8318 119.155 98.5643 119.135 98.2249C119.102 97.6702 119.226 97.122 119.337 96.7043C119.513 96.0647 119.807 95.5818 120.238 95.2425C120.636 94.9292 121.158 94.7465 121.68 94.7465C121.902 94.7465 122.117 94.7791 122.32 94.8444C122.783 95.001 123.168 95.3142 123.41 95.745C123.612 96.1039 123.684 96.4824 123.729 96.7957C123.782 97.1872 123.808 97.5919 123.801 97.9965C123.795 98.3163 123.553 98.5904 123.233 98.6295C122.235 98.7666 121.223 98.8318 120.212 98.8318C120.068 98.8449 119.925 98.8384 119.775 98.8384Z" fill="white"/>
<path d="M121.68 95.3991C121.831 95.3991 121.974 95.4187 122.118 95.4644C122.451 95.5753 122.699 95.8102 122.842 96.0648C122.986 96.3258 123.044 96.6064 123.084 96.8805C123.136 97.246 123.155 97.618 123.149 97.99C122.176 98.1205 121.198 98.1858 120.219 98.1858C120.075 98.1858 119.938 98.1858 119.794 98.1792C119.768 97.7159 119.886 97.2199 119.977 96.8675C120.088 96.4563 120.277 96.0452 120.649 95.745C120.917 95.5427 121.302 95.3991 121.68 95.3991ZM121.68 94.0939C121.015 94.0939 120.343 94.3288 119.834 94.7334C119.292 95.1642 118.926 95.7515 118.711 96.5347C118.594 96.9654 118.444 97.6115 118.483 98.2706C118.522 98.9493 119.083 99.4845 119.762 99.4975C119.912 99.4975 120.062 99.504 120.212 99.504C121.25 99.504 122.294 99.4323 123.319 99.2952C123.958 99.2104 124.441 98.6687 124.448 98.0226C124.454 97.5854 124.428 97.1481 124.369 96.7174C124.324 96.365 124.232 95.8886 123.971 95.4317C123.651 94.8705 123.136 94.4398 122.529 94.2374C122.261 94.1396 121.974 94.0939 121.68 94.0939Z" fill="#6D83B0"/>
<path d="M125.576 98.3358C125.022 98.3358 124.663 97.9899 124.63 97.4352C124.604 97.011 124.63 96.5868 124.695 96.1626C124.78 95.6601 124.989 95.262 125.348 94.9422C125.459 94.8378 125.863 94.505 126.32 94.4332C126.405 94.4201 126.49 94.4136 126.575 94.4136C126.855 94.4136 127.129 94.4789 127.371 94.6094C127.782 94.8313 128.102 95.2294 128.272 95.7319C128.369 96.0321 128.422 96.3649 128.415 96.6978C128.415 96.9523 128.409 97.3765 128.024 97.7354C127.932 97.8202 127.821 97.8986 127.697 97.9638C127.554 98.0356 127.397 98.0943 127.201 98.1466C126.881 98.2249 126.568 98.264 126.275 98.2901C126.079 98.3097 125.883 98.3228 125.681 98.3358C125.648 98.3358 125.615 98.3358 125.576 98.3358Z" fill="white"/>
<path d="M126.581 95.0597C126.751 95.0597 126.927 95.1054 127.071 95.1772C127.358 95.3273 127.554 95.6209 127.658 95.9277C127.736 96.1691 127.776 96.4302 127.769 96.6847C127.769 96.9001 127.762 97.0893 127.586 97.2525C127.534 97.3047 127.469 97.3438 127.404 97.3765C127.293 97.4352 127.175 97.4744 127.051 97.5005C126.777 97.5657 126.496 97.5984 126.216 97.6245C126.027 97.644 125.837 97.6571 125.648 97.6701C125.622 97.6701 125.596 97.6701 125.576 97.6701C125.393 97.6701 125.296 97.6114 125.283 97.383C125.263 97.0045 125.283 96.626 125.341 96.254C125.4 95.9146 125.531 95.647 125.785 95.4121C125.948 95.2685 126.209 95.0923 126.425 95.0597C126.477 95.0662 126.529 95.0597 126.581 95.0597ZM126.581 93.7545C126.464 93.7545 126.34 93.761 126.222 93.7806C125.609 93.8785 125.106 94.2831 124.917 94.4462C124.447 94.8639 124.16 95.4056 124.056 96.0451C123.977 96.515 123.951 96.9914 123.977 97.4613C124.03 98.3554 124.682 98.9819 125.576 98.9819C125.622 98.9819 125.674 98.9819 125.733 98.9754C125.935 98.9623 126.144 98.9493 126.346 98.9297C126.666 98.8971 127.005 98.8579 127.371 98.7731C127.619 98.7143 127.828 98.636 128.017 98.5381C128.193 98.4468 128.35 98.3358 128.487 98.2118C129.074 97.6636 129.081 96.9914 129.081 96.7043C129.087 96.2997 129.022 95.8885 128.905 95.523C128.689 94.8639 128.258 94.3288 127.697 94.0286C127.345 93.8524 126.966 93.7545 126.581 93.7545Z" fill="#6D83B0"/>
<path d="M69.7847 69.0464C68.9624 78.2939 69.3866 87.6916 71.0312 96.7955C71.103 97.1806 71.1813 97.5787 71.4032 97.8789C71.599 98.1399 71.8862 98.29 72.1668 98.414C73.8309 99.1645 75.6452 99.3407 77.4334 99.3081C79.9525 99.2624 82.4715 98.8056 84.8797 97.9572C85.5649 97.7157 86.0935 97.0892 86.2632 96.293C88.1297 87.424 88.2929 78.0916 86.7331 69.1443" fill="#A8BDED"/>
<path d="M69.7847 69.0464C68.9624 78.2939 69.3866 87.6916 71.0312 96.7955C71.103 97.1806 71.1813 97.5787 71.4032 97.8789C71.599 98.1399 71.8862 98.29 72.1668 98.414C73.8309 99.1645 75.6452 99.3407 77.4334 99.3081C79.9525 99.2624 82.4715 98.8056 84.8797 97.9572C85.5649 97.7157 86.0936 97.0892 86.2632 96.293C88.1297 87.424 88.2929 78.0916 86.7331 69.1443" stroke="#6D83B0" stroke-width="2" stroke-miterlimit="10" stroke-linecap="round" stroke-linejoin="round"/>
<path opacity="0.2" d="M85.6952 96.43C85.5255 97.2262 85.0034 97.8527 84.3182 98.0941C81.91 98.936 79.3909 99.3994 76.8719 99.4451C75.5862 99.4646 74.2875 99.3798 73.041 99.0535C75.3056 98.7663 77.5506 98.2377 79.7303 97.4676C80.6635 97.1413 81.3814 96.2864 81.6033 95.2031C83.3849 86.7321 85.6299 78.1111 85.1144 69.4248L86.1651 69.2812C87.7248 78.2286 87.5617 87.561 85.6952 96.43Z" fill="#7F94BF"/>
<path d="M75.3842 99.1449C74.0267 99.0731 72.8912 98.8643 71.9188 98.4988C71.6382 98.3944 71.4685 98.1138 71.5011 97.8136C71.5403 97.4677 71.6251 97.1479 71.6839 96.9326C71.8601 96.3126 72.1472 95.8558 72.5779 95.5295C72.9695 95.2293 73.4786 95.0596 73.9876 95.0596C74.2095 95.0596 74.4183 95.0922 74.6141 95.1575C75.0709 95.3076 75.4494 95.6078 75.6909 96.0189C75.8997 96.3648 75.9715 96.7303 76.0107 97.037C76.0825 97.5395 76.1021 98.042 76.0694 98.538C76.0433 98.8839 75.7627 99.1449 75.4168 99.1449C75.4038 99.1449 75.3907 99.1449 75.3842 99.1449Z" fill="white"/>
<path d="M73.9876 95.7122C74.1312 95.7122 74.2813 95.7318 74.4183 95.7774C74.7446 95.8819 74.9861 96.1038 75.1297 96.3452C75.2732 96.5867 75.332 96.8543 75.3646 97.1218C75.4299 97.5787 75.4494 98.0355 75.4168 98.4923C74.3008 98.4336 73.1783 98.2704 72.1472 97.8854C72.1798 97.5982 72.2516 97.3241 72.3104 97.1088C72.4213 96.7172 72.604 96.3256 72.9695 96.045C73.2371 95.8427 73.6091 95.7122 73.9876 95.7122ZM73.9876 94.407C73.3415 94.407 72.6823 94.6288 72.1798 95.0074C71.6382 95.425 71.2662 95.9928 71.0573 96.7498C70.9921 96.9848 70.9007 97.3437 70.855 97.7353C70.7832 98.3292 71.1291 98.8969 71.6904 99.1058C72.7215 99.4973 73.9223 99.7192 75.3515 99.791C75.3776 99.791 75.3972 99.791 75.4233 99.791C76.102 99.791 76.6763 99.2624 76.722 98.5772C76.7612 98.0355 76.7351 97.4808 76.6633 96.9326C76.6176 96.5867 76.5262 96.1299 76.2587 95.6796C75.9389 95.1379 75.4299 94.7267 74.8229 94.531C74.5488 94.4526 74.2747 94.407 73.9876 94.407Z" fill="#6D83B0"/>
<path d="M76.716 99.3472C76.3766 99.3407 76.096 99.0731 76.0764 98.7338C76.0438 98.1725 76.1743 97.5982 76.2787 97.2132C76.4549 96.5736 76.7486 96.0972 77.1793 95.7513C77.5774 95.4381 78.0995 95.2553 78.6216 95.2553C78.8435 95.2553 79.0588 95.288 79.2611 95.3532C79.7245 95.5098 80.1095 95.8231 80.351 96.2538C80.5533 96.6128 80.6251 96.9913 80.6708 97.3045C80.723 97.6961 80.7491 98.1007 80.7426 98.5053C80.7361 98.8251 80.4946 99.0992 80.1748 99.1384C79.1763 99.2754 78.1648 99.3407 77.1532 99.3407C77.0031 99.3537 76.8595 99.3472 76.716 99.3472Z" fill="white"/>
<path d="M78.6211 95.908C78.7712 95.908 78.9148 95.9275 79.0584 95.9732C79.3912 96.0842 79.6392 96.3191 79.7828 96.5736C79.9264 96.8347 79.9851 97.1153 80.0243 97.3894C80.0765 97.7549 80.0961 98.1268 80.0895 98.4988C79.1171 98.6294 78.1382 98.6946 77.1593 98.6946C77.0157 98.6946 76.8787 98.6946 76.7351 98.6881C76.709 98.2247 76.8265 97.7288 76.9178 97.3764C77.0288 96.9652 77.218 96.5541 77.59 96.2539C77.8576 96.0515 78.2426 95.908 78.6211 95.908ZM78.6211 94.6027C77.9555 94.6027 77.2833 94.8377 76.7742 95.2423C76.2326 95.673 75.8671 96.2604 75.6518 97.0435C75.5343 97.4742 75.3842 98.1203 75.4233 98.7795C75.4625 99.4582 76.0237 99.9933 76.7025 100.006C76.8526 100.006 77.0027 100.013 77.1528 100.013C78.1904 100.013 79.2346 99.9411 80.2592 99.8041C80.8988 99.7192 81.3817 99.1776 81.3882 98.5315C81.3948 98.0942 81.3686 97.657 81.3099 97.2262C81.2642 96.8738 81.1729 96.3974 80.9118 95.9406C80.592 95.3793 80.0765 94.9486 79.4695 94.7463C79.1954 94.6484 78.9148 94.6027 78.6211 94.6027Z" fill="#6D83B0"/>
<path d="M82.511 98.8448C81.9563 98.8448 81.5974 98.4989 81.5648 97.9442C81.5386 97.52 81.5648 97.0892 81.63 96.6716C81.7149 96.1691 81.9237 95.771 82.2826 95.4512C82.3936 95.3533 82.7982 95.0139 83.255 94.9421C83.3399 94.9291 83.4247 94.9226 83.5095 94.9226C83.7902 94.9226 84.0643 94.9878 84.3057 95.1183C84.7169 95.3402 85.0367 95.7383 85.2063 96.2408C85.3042 96.541 85.3564 96.8739 85.3499 97.2067C85.3434 97.4612 85.3434 97.892 84.9583 98.2444C84.867 98.3292 84.756 98.4075 84.632 98.4728C84.4493 98.5707 84.26 98.6229 84.136 98.6555C83.8163 98.7338 83.503 98.773 83.2093 98.7991C83.0136 98.8187 82.8178 98.8317 82.6155 98.8448C82.5894 98.8383 82.5502 98.8448 82.511 98.8448Z" fill="white"/>
<path d="M83.5161 95.5687C83.6857 95.5687 83.8619 95.6143 84.0055 95.6861C84.2927 95.8362 84.4885 96.1299 84.5929 96.4366C84.6712 96.6781 84.7103 96.9391 84.7038 97.1937C84.7038 97.409 84.6973 97.5983 84.5211 97.7614C84.4689 97.8136 84.4036 97.8528 84.3384 97.8854C84.2274 97.9442 84.1099 97.9833 83.9859 98.0094C83.7118 98.0747 83.4312 98.1073 83.1506 98.1334C82.9613 98.153 82.7721 98.1661 82.5828 98.1791C82.5567 98.1791 82.5306 98.1791 82.511 98.1791C82.3283 98.1791 82.2304 98.1204 82.2174 97.892C82.1978 97.5134 82.2174 97.1349 82.2761 96.7629C82.3348 96.4236 82.4654 96.156 82.7199 95.9211C82.883 95.7775 83.1441 95.6013 83.3594 95.5687C83.4116 95.5752 83.4639 95.5687 83.5161 95.5687ZM83.5161 94.2634C83.3986 94.2634 83.2746 94.2699 83.1571 94.2895C82.5437 94.3874 82.0412 94.792 81.8519 94.9552C81.382 95.3729 81.0949 95.9145 80.9904 96.5541C80.9121 97.024 80.886 97.5004 80.9121 97.9703C80.9643 98.8643 81.617 99.4909 82.511 99.4909C82.5567 99.4909 82.6089 99.4909 82.6677 99.4843C82.87 99.4713 83.0788 99.4582 83.2811 99.4386C83.6009 99.406 83.9403 99.3669 84.3057 99.282C84.5537 99.2233 84.7626 99.145 84.9518 99.0471C85.1215 98.9557 85.2846 98.8448 85.4217 98.7208C86.009 98.1726 86.0156 97.5004 86.0156 97.2132C86.0221 96.8086 85.9568 96.3975 85.8394 96.032C85.624 95.3729 85.1933 94.8377 84.632 94.5375C84.2861 94.3613 83.9011 94.2634 83.5161 94.2634Z" fill="#6D83B0"/>
<path d="M67.853 9.39762C76.9831 4.17671 91.7452 3.18473 99.7462 7.09389C110.456 12.3213 108.72 26.3852 101.959 36.2005C94.5971 46.8903 81.6362 50.199 70.9268 44.9716C67.9248 43.5097 65.4187 41.441 63.4805 38.9871" fill="#A8BDED"/>
<path d="M67.853 9.39762C76.9831 4.17671 91.7452 3.18473 99.7462 7.09389C110.456 12.3213 108.72 26.3852 101.959 36.2005C94.5971 46.8903 81.6362 50.199 70.9268 44.9716C67.9248 43.5097 65.4187 41.441 63.4805 38.9871" stroke="#6D83B0" stroke-width="2" stroke-miterlimit="10" stroke-linecap="round" stroke-linejoin="round"/>
<path d="M64.4788 55.4852C79.6204 55.4852 91.8951 43.2105 91.8951 28.0689C91.8951 12.9273 79.6204 0.652588 64.4788 0.652588C49.3372 0.652588 37.0625 12.9273 37.0625 28.0689C37.0625 43.2105 49.3372 55.4852 64.4788 55.4852Z" fill="#A8BDED" stroke="#6D83B0" stroke-width="2" stroke-miterlimit="10" stroke-linecap="round" stroke-linejoin="round"/>
<path opacity="0.2" d="M92.2081 27.4293C92.2081 31.4233 91.3336 35.3977 89.6433 39.0197C85.6363 47.5951 76.6824 54.1604 67.2652 55.3155C65.0071 55.5896 62.7099 55.57 60.4584 55.2241C58.5463 54.9305 55.9554 54.6172 54.3695 53.449C54.1672 53.2989 53.9714 53.1227 53.8801 52.8878C53.2731 51.3346 55.5442 52.2939 60.0081 51.6544C66.0774 50.7864 68.9424 49.4094 72.4404 47.83C75.586 46.4073 76.5323 44.7301 79.084 42.3872C84.2331 37.6623 87.6855 30.9404 88.5143 23.9966C88.6383 22.9654 88.7035 21.9278 88.7035 20.8901C88.7035 17.5226 88.0966 14.3053 86.9872 11.3293C90.2698 15.852 92.2081 21.4122 92.2081 27.4293Z" fill="#7F94BF"/>
<path opacity="0.37" d="M46.4211 12.452C44.9266 14.201 43.6736 16.2763 43.4452 18.5669C43.3799 19.2391 43.4191 19.9701 43.8302 20.4987C44.3458 21.1644 45.3116 21.334 46.1274 21.1317C46.9432 20.9294 47.648 20.4334 48.3463 19.957C52.0336 17.4314 55.9688 15.2778 60.0803 13.5288C61.2028 13.0524 62.3644 12.589 63.252 11.7537C64.1395 10.9183 64.6943 9.60004 64.2635 8.45796C63.8981 7.47252 62.9126 6.85906 61.9468 6.44791C58.7946 5.11005 56.5105 5.44941 53.515 6.93085C50.8197 8.27523 48.3855 10.1548 46.4211 12.452Z" fill="#D9E6FF"/>
<path opacity="0.37" d="M118.717 45.6567C118.586 44.1492 118.684 42.4524 119.761 41.3821C120.766 40.3771 122.404 40.227 123.736 40.7099C125.073 41.1929 126.144 42.2044 127.051 43.3008C129.381 46.1201 130.829 49.6573 131.143 53.2988C131.273 54.8129 131.195 56.4053 130.477 57.7431C128.108 62.1483 124.701 58.7677 122.75 56.1442C120.492 53.1031 119.05 49.4419 118.717 45.6567Z" fill="#D9E6FF"/>
<path d="M80.1676 14.142C89.2977 8.92109 104.06 7.92912 112.061 11.8383C122.268 16.8242 120.395 29.8047 116.029 38.2104C112.387 45.2129 106.057 52.1829 98.3429 54.6889C93.9834 56.1051 89.0758 55.7396 84.9708 53.6969C80.8659 51.6542 77.6224 47.9539 76.1279 43.6206" fill="#A8BDED"/>
<path d="M80.1676 14.142C89.2977 8.92109 104.06 7.92912 112.061 11.8383C122.268 16.8242 120.395 29.8047 116.029 38.2104C112.387 45.2129 106.057 52.1829 98.3429 54.6889C93.9834 56.1051 89.0758 55.7396 84.9708 53.6969C80.8659 51.6542 77.6224 47.9539 76.1279 43.6206" stroke="#6D83B0" stroke-width="2" stroke-miterlimit="10" stroke-linecap="round" stroke-linejoin="round"/>
<path opacity="0.2" d="M114.241 40.9448C111.571 45.1803 108.099 48.9459 103.89 51.6151C100.797 53.5729 96.0522 55.7135 92.2801 55.1196C103.381 51.0865 112.439 41.7867 116.166 30.5748C116.877 28.4408 117.171 26.2284 117.836 24.0878C118.359 22.3976 118.946 19.6109 118.15 17.9337C120.806 23.5266 119.494 30.3072 117.053 35.7239C116.238 37.5056 115.298 39.2611 114.241 40.9448Z" fill="#7F94BF"/>
<path d="M105.176 36.4157C101.815 43.3008 93.5074 46.1593 86.6158 42.7983C79.7242 39.4373 76.8723 31.1296 80.2332 24.238C83.5942 17.3529 95.6871 15.0948 102.572 18.4558C109.457 21.8168 108.537 29.5307 105.176 36.4157Z" fill="#FEC4F9"/>
<path d="M87.4834 18.0903C91.51 17.0657 95.8499 17.2028 99.0999 18.7951C105.985 22.1561 105.404 30.751 102.037 37.6361C100.634 40.5141 98.3625 42.6873 95.6933 43.9991C99.746 43.1507 103.381 40.5076 105.339 36.5005C108.7 29.6155 109.287 21.0205 102.402 17.6596C98.2319 15.6169 92.2801 15.9693 87.4834 18.0903Z" fill="#F2B6EF"/>
<path opacity="0.37" d="M108.334 11.8839C109.528 12.1319 110.736 12.4517 111.741 13.1435C112.543 13.6917 113.229 14.6445 112.961 15.5712C112.739 16.3413 111.93 16.8177 111.134 16.896C110.338 16.9743 109.548 16.7459 108.778 16.5305C104.014 15.2188 99.08 14.527 94.1397 14.4683C93.3631 14.4617 92.4951 14.4291 91.9469 13.8809C89.7607 11.7077 97.4093 11.2444 98.2903 11.1856C101.645 10.9703 105.038 11.1987 108.334 11.8839Z" fill="#D9E6FF"/>
<path d="M49.1747 34.1839C49.1682 31.097 51.622 28.6367 54.7154 28.6171C57.874 28.5975 60.3801 31.0579 60.3735 34.1643C60.3735 37.2968 57.9001 39.7311 54.7284 39.718C51.622 39.718 49.1812 37.2838 49.1747 34.1839Z" fill="white" stroke="#6D83B0" stroke-width="2" stroke-miterlimit="10" stroke-linecap="round" stroke-linejoin="round"/>
<path d="M63.2059 27.103C62.9775 25.9087 62.351 24.8254 61.111 24.225C59.7209 23.5528 58.2917 23.5006 56.9343 24.3164C56.5884 24.5187 56.2425 24.8319 56.2882 25.3083C56.3339 25.7652 56.7254 25.9153 57.0844 26.0523C58.6768 26.6527 60.1908 27.4032 61.6527 28.2712C61.979 28.467 62.3836 28.7802 62.8013 28.4409C63.1798 28.1342 63.2516 27.6969 63.2059 27.103Z" fill="#7F94BF"/>
<path d="M54.7608 37.2707C52.9661 37.2837 51.5107 35.8675 51.5107 34.1055C51.5107 32.3761 52.94 30.9534 54.6955 30.9338C56.4837 30.9142 57.939 32.3434 57.939 34.1055C57.9325 35.848 56.5163 37.2576 54.7608 37.2707Z" fill="#2E3537"/>
<path d="M55.5631 32.076C56.0786 32.089 56.5355 32.5328 56.542 33.0288C56.5485 33.5509 56.0656 34.0077 55.5174 33.9946C55.0018 33.9881 54.5385 33.5378 54.545 33.0484C54.545 32.5132 55.0149 32.0629 55.5631 32.076Z" fill="#959899"/>
<path d="M37.1471 25.7847C36.9708 32.1934 34.9934 39.2873 31.1234 44.4691C27.7103 49.0374 21.2624 50.4535 15.8849 49.7552C12.9155 49.3702 9.80906 48.5544 7.77291 46.3551C7.01588 45.5394 6.1218 44.4495 5.05804 44.7693C4.67299 44.8867 4.36627 45.1804 4.09217 45.4806C2.34316 47.3667 1.16193 49.7683 0.731206 52.3004C0.600684 53.0705 0.581105 53.9711 1.14888 54.5063C1.80802 55.1263 2.85873 54.9044 3.76586 54.9044C6.10222 54.8978 7.92301 56.4902 9.77643 57.6715C11.7995 58.9571 14.0706 59.9164 16.3483 60.6343C24.7931 63.2905 35.8745 62.1745 43.9016 58.5198C48.1305 56.5946 51.9353 53.4686 54.0041 49.3049" fill="#A8BDED"/>
<path d="M37.1471 25.7847C36.9708 32.1934 34.9934 39.2873 31.1234 44.4691C27.7103 49.0374 21.2624 50.4535 15.8849 49.7552C12.9155 49.3702 9.80906 48.5544 7.77291 46.3551C7.01588 45.5394 6.1218 44.4495 5.05804 44.7693C4.67299 44.8867 4.36627 45.1804 4.09217 45.4806C2.34316 47.3667 1.16193 49.7683 0.731206 52.3004C0.600684 53.0705 0.581105 53.9711 1.14888 54.5063C1.80802 55.1263 2.85873 54.9044 3.76586 54.9044C6.10222 54.8978 7.92301 56.4902 9.77643 57.6715C11.7995 58.9571 14.0706 59.9164 16.3483 60.6343C24.7931 63.2905 35.8745 62.1745 43.9016 58.5198C48.1305 56.5946 51.9353 53.4686 54.0041 49.3049" stroke="#6D83B0" stroke-width="2" stroke-miterlimit="10" stroke-linecap="round" stroke-linejoin="round"/>
<path opacity="0.2" d="M54.0109 49.1419C51.9421 53.3055 48.1374 56.4315 43.9084 58.3568C35.8813 62.0114 24.7999 63.1339 16.3551 60.4712C14.0775 59.7534 11.8064 58.794 9.78327 57.5084C7.92332 56.3271 6.10253 54.7348 3.7727 54.7478C2.86556 54.7478 1.82138 54.9697 1.15572 54.3497C0.587941 53.8146 0.60752 52.914 0.738042 52.1439C0.829408 51.6022 0.953405 51.0671 1.11656 50.5384C3.28976 50.8909 5.07792 52.3984 6.90524 53.56C9.16981 54.9958 11.715 56.0791 14.2667 56.8819C23.7231 59.8578 36.1358 58.6047 45.1288 54.5129C48.2875 53.0771 51.2308 51.041 53.528 48.4631L54.0109 49.1419Z" fill="#7F94BF"/>
<path d="M18.3848 49.8923C18.3457 51.2955 18.6916 52.7116 19.3768 53.9385" stroke="#7F94BF" stroke-width="2" stroke-miterlimit="10" stroke-linecap="round" stroke-linejoin="round"/>
<path d="M22.9005 49.4811C23.3182 51.2758 24.2514 52.9726 25.5893 54.3627" stroke="#7F94BF" stroke-width="2" stroke-miterlimit="10" stroke-linecap="round" stroke-linejoin="round"/>
<path d="M27.9326 47.6016C28.7941 49.579 30.1907 51.3671 31.9658 52.7703" stroke="#7F94BF" stroke-width="2" stroke-miterlimit="10" stroke-linecap="round" stroke-linejoin="round"/>
<path d="M31.4628 43.9861C33.2509 45.833 35.1239 47.7387 37.7018 48.7894" stroke="#7F94BF" stroke-width="2" stroke-miterlimit="10" stroke-linecap="round" stroke-linejoin="round"/>
<path d="M50.9372 53.8472C50.526 53.8472 50.1475 53.6644 49.8864 53.3512C49.6189 53.0184 49.521 52.5746 49.6123 52.1308L50.3563 48.5871C50.513 47.8301 51.1982 47.2558 51.9356 47.2558C52.2293 47.2558 52.5099 47.3471 52.7449 47.5233L55.3945 49.4942C55.7861 49.7879 55.9884 50.2643 55.9362 50.7799C55.8774 51.3672 55.5054 51.8893 54.9703 52.1373L51.5767 53.7101C51.3679 53.8015 51.1525 53.8472 50.9372 53.8472Z" fill="white"/>
<path d="M51.9353 47.9018C52.0854 47.9018 52.229 47.9475 52.353 48.0389L53.4298 48.8416L55.0026 50.0098C55.4986 50.3752 55.3224 51.2432 54.6893 51.5369L51.2957 53.1097C51.1717 53.1684 51.0477 53.1945 50.9368 53.1945C50.4865 53.1945 50.1406 52.7899 50.2515 52.2613L50.9955 48.7176C51.0934 48.2347 51.5241 47.9018 51.9353 47.9018ZM51.9353 46.5966C50.8911 46.5966 49.9383 47.3928 49.7164 48.45L48.9724 51.9937C48.8354 52.6333 48.9855 53.2794 49.377 53.7623C49.7556 54.2322 50.3233 54.4997 50.9303 54.4997C51.2435 54.4997 51.5503 54.428 51.8439 54.2974L55.2375 52.7246C55.9815 52.3788 56.4971 51.6609 56.5819 50.8451C56.6602 50.1011 56.36 49.3963 55.7792 48.9721L54.2064 47.8039L53.1296 47.0012C52.7837 46.7336 52.3725 46.5966 51.9353 46.5966Z" fill="#6D83B0"/>
<path d="M51.9875 45.6699C51.5764 45.8461 51.2174 46.205 51.0282 46.6292C50.5518 47.6995 51.1522 48.078 51.981 48.2869C52.9664 48.5283 53.8279 49.1287 54.3826 49.9771C54.7872 50.5906 55.4072 51.6805 56.3927 51.0866C56.8038 50.8386 56.9996 50.323 57.1562 49.8662" fill="#B4C5ED"/>
<path d="M51.9875 45.6699C51.5764 45.8461 51.2174 46.205 51.0282 46.6292C50.5518 47.6995 51.1522 48.078 51.981 48.2869C52.9664 48.5283 53.8279 49.1287 54.3826 49.9771C54.7872 50.5906 55.4072 51.6805 56.3927 51.0866C56.8038 50.8386 56.9996 50.323 57.1562 49.8662" stroke="#6D83B0" stroke-width="2" stroke-miterlimit="10" stroke-linecap="round" stroke-linejoin="round"/>
</g>
<defs>
<clipPath id="clip0_229_14485">
<rect width="151.015" height="100" fill="white"/>
</clipPath>
</defs>
</svg>
