<svg width="24" height="24" viewBox="0 0 24 24" fill="none" xmlns="http://www.w3.org/2000/svg">
<path d="M9.46992 15.2819C9.27992 15.2819 9.08992 15.2119 8.93992 15.0619C8.11992 14.2419 7.66992 13.1519 7.66992 12.0019C7.66992 9.61187 9.60992 7.67188 11.9999 7.67188C13.1499 7.67188 14.2399 8.12187 15.0599 8.94187C15.1999 9.08187 15.2799 9.27188 15.2799 9.47188C15.2799 9.67188 15.1999 9.86187 15.0599 10.0019L9.99992 15.0619C9.84992 15.2119 9.65992 15.2819 9.46992 15.2819ZM11.9999 9.17188C10.4399 9.17188 9.16992 10.4419 9.16992 12.0019C9.16992 12.5019 9.29992 12.9819 9.53992 13.4019L13.3999 9.54187C12.9799 9.30187 12.4999 9.17188 11.9999 9.17188Z" fill="#9DA3AF"/>
<path d="M5.59984 18.5105C5.42984 18.5105 5.24984 18.4505 5.10984 18.3305C4.03984 17.4205 3.07984 16.3005 2.25984 15.0005C1.19984 13.3505 1.19984 10.6605 2.25984 9.00047C4.69984 5.18047 8.24984 2.98047 11.9998 2.98047C14.1998 2.98047 16.3698 3.74047 18.2698 5.17047C18.5998 5.42047 18.6698 5.89047 18.4198 6.22047C18.1698 6.55047 17.6998 6.62047 17.3698 6.37047C15.7298 5.13047 13.8698 4.48047 11.9998 4.48047C8.76984 4.48047 5.67984 6.42047 3.51984 9.81047C2.76984 10.9805 2.76984 13.0205 3.51984 14.1905C4.26984 15.3605 5.12984 16.3705 6.07984 17.1905C6.38984 17.4605 6.42984 17.9305 6.15984 18.2505C6.01984 18.4205 5.80984 18.5105 5.59984 18.5105Z" fill="#9DA3AF"/>
<path d="M12.0001 21.0195C10.6701 21.0195 9.37006 20.7495 8.12006 20.2195C7.74006 20.0595 7.56006 19.6195 7.72006 19.2395C7.88006 18.8595 8.32006 18.6795 8.70006 18.8395C9.76006 19.2895 10.8701 19.5195 11.9901 19.5195C15.2201 19.5195 18.3101 17.5795 20.4701 14.1895C21.2201 13.0195 21.2201 10.9795 20.4701 9.80951C20.1601 9.31951 19.8201 8.84951 19.4601 8.40951C19.2001 8.08951 19.2501 7.61951 19.5701 7.34951C19.8901 7.08951 20.3601 7.12951 20.6301 7.45951C21.0201 7.93951 21.4001 8.45951 21.7401 8.99951C22.8001 10.6495 22.8001 13.3395 21.7401 14.9995C19.3001 18.8195 15.7501 21.0195 12.0001 21.0195Z" fill="#9DA3AF"/>
<path d="M12.6901 16.2684C12.3401 16.2684 12.0201 16.0184 11.9501 15.6584C11.8701 15.2484 12.1401 14.8584 12.5501 14.7884C13.6501 14.5884 14.5701 13.6684 14.7701 12.5684C14.8501 12.1584 15.2401 11.8984 15.6501 11.9684C16.0601 12.0484 16.3301 12.4384 16.2501 12.8484C15.9301 14.5784 14.5501 15.9484 12.8301 16.2684C12.7801 16.2584 12.7401 16.2684 12.6901 16.2684Z" fill="#9DA3AF"/>
<path d="M1.99994 22.7487C1.80994 22.7487 1.61994 22.6788 1.46994 22.5288C1.17994 22.2388 1.17994 21.7587 1.46994 21.4687L8.93994 13.9988C9.22994 13.7088 9.70994 13.7088 9.99994 13.9988C10.2899 14.2887 10.2899 14.7688 9.99994 15.0588L2.52994 22.5288C2.37994 22.6788 2.18994 22.7487 1.99994 22.7487Z" fill="#9DA3AF"/>
<path d="M14.5302 10.2214C14.3402 10.2214 14.1502 10.1514 14.0002 10.0014C13.7102 9.71141 13.7102 9.23141 14.0002 8.94141L21.4702 1.47141C21.7602 1.18141 22.2402 1.18141 22.5302 1.47141C22.8202 1.76141 22.8202 2.24141 22.5302 2.53141L15.0602 10.0014C14.9102 10.1514 14.7202 10.2214 14.5302 10.2214Z" fill="#9DA3AF"/>
</svg>
