<svg width="78" height="100" viewBox="0 0 78 100" fill="none" xmlns="http://www.w3.org/2000/svg">
<g clip-path="url(#clip0_229_14335)">
<path d="M71.0929 79.9195C71.0872 79.931 71.0814 79.9425 71.0757 79.954C71.0642 79.9482 71.0584 79.9483 71.0527 79.9425C71.0642 79.9368 71.0814 79.9252 71.0929 79.9195Z" fill="#D6CCC4"/>
<path d="M71.0469 79.9425C71.0584 79.9368 71.0757 79.9252 71.0929 79.9195C71.0872 79.931 71.0814 79.9425 71.0757 79.954C71.0642 79.9482 71.0584 79.9483 71.0469 79.9425Z" fill="#D6CCC4"/>
<path d="M38.718 92.1162C35.1125 92.1162 31.6162 91.9954 28.3327 91.7539C27.1367 91.6676 25.8888 91.5584 24.6237 91.4319C23.5139 91.3168 22.3925 91.1846 21.2885 91.0351C19.9486 90.8511 18.8158 90.644 17.913 90.414C17.7002 90.3565 17.3839 90.2128 16.7284 89.54L16.6019 89.4077C15.7335 88.4819 14.7215 87.0845 13.8244 85.5894C13.2896 84.7038 12.8123 83.801 12.3925 82.8982C11.1217 80.1495 9.98887 77.0155 11.2597 74.5946C12.128 72.9327 13.9854 71.8574 16.9296 71.3111C17.0331 68.9707 17.7347 58.6429 21.829 50.2588C21.9958 49.9022 22.1798 49.5457 22.3695 49.1949C26.0441 42.3289 31.2195 38.7752 37.7634 38.6371C37.8727 38.6371 37.982 38.6314 38.0855 38.6314C43.7899 38.6314 48.5743 41.7999 52.3063 48.0506C56.8376 55.6412 58.626 65.6929 59.2931 71.0351C62.335 71.7999 64.3132 73.1627 65.1873 75.0949C66.6249 78.2864 64.8135 82.3519 63.0769 85.5319C63.0251 85.6297 62.9676 85.7274 62.9101 85.8252C61.7715 87.8551 60.1441 90.1265 59.3851 90.414C57.6427 91.0638 55.7105 91.2536 54.0372 91.3744L53.2149 91.4319C52.8928 91.4549 52.5708 91.4779 52.2545 91.5009L51.2252 91.5756C48.2982 91.7884 45.2735 92.0069 42.2545 92.0702C41.0757 92.1047 39.8969 92.1162 38.718 92.1162Z" fill="#F2BB33"/>
<path d="M38.0912 39.2064C44.3362 39.2064 48.7353 43.18 51.8232 48.3496C57.5219 57.8953 58.7353 71.5009 58.787 71.5066C67.7519 73.5423 65.4575 79.9943 62.5823 85.2617C62.5305 85.3594 62.4788 85.4514 62.4213 85.5492C61.0642 87.9701 59.6208 89.724 59.1895 89.8907C57.5852 90.4888 55.768 90.6843 54.0027 90.8166C53.3989 90.8626 52.8008 90.8971 52.22 90.9431C48.8963 91.1846 45.5955 91.4434 42.2488 91.5066C41.0757 91.5296 39.8968 91.5411 38.718 91.5411C35.262 91.5411 31.8117 91.4319 28.373 91.1788C27.1366 91.0926 25.906 90.9833 24.6812 90.8568C23.5771 90.7418 22.4673 90.6095 21.3632 90.46C20.0866 90.2875 18.9653 90.0863 18.0567 89.8505C17.8612 89.7987 17.5449 89.5457 17.1366 89.1317C17.1021 89.0972 17.0676 89.0569 17.0331 89.0224C16.2798 88.2116 15.2735 86.8833 14.3132 85.2904C13.8186 84.4681 13.3413 83.5825 12.9101 82.6567C10.5639 77.5906 9.79908 73.1282 17.2516 71.8344C17.3264 71.8229 17.4069 71.8056 17.4874 71.7941C17.4874 71.7884 17.7462 59.9195 22.3465 50.5118C22.5133 50.161 22.6915 49.8102 22.8756 49.4652C25.8773 43.8585 30.5351 39.3675 37.7807 39.2122C37.8842 39.2064 37.9877 39.2064 38.0912 39.2064ZM38.0912 38.0564C37.9819 38.0564 37.8669 38.0564 37.7577 38.0621C30.9894 38.2059 25.6473 41.8631 21.8692 48.9304C21.6737 49.2927 21.484 49.6607 21.3114 50.023C17.4012 58.0219 16.5558 67.7803 16.3776 70.8396C13.5024 71.4434 11.6565 72.5934 10.7479 74.3301C9.36205 76.9753 10.5351 80.2703 11.8692 83.1455C12.2948 84.0656 12.7893 84.9914 13.3298 85.8942C14.2442 87.4181 15.285 88.8442 16.1821 89.8102C16.2051 89.839 16.2338 89.8677 16.2626 89.8965L16.2913 89.9252C16.2971 89.931 16.3086 89.9425 16.3143 89.9482C16.9066 90.5578 17.3436 90.8626 17.7634 90.9718C18.695 91.2076 19.8508 91.4204 21.2079 91.6101C22.3063 91.7596 23.4334 91.8919 24.5604 92.0069C25.8428 92.1392 27.0964 92.2484 28.2925 92.3347C31.5875 92.5762 35.0952 92.697 38.718 92.697C39.8738 92.697 41.0699 92.6855 42.2718 92.6624C45.308 92.5992 48.3442 92.3807 51.2827 92.1679L52.3063 92.0932C52.6225 92.0702 52.9331 92.0472 53.2493 92.0242C53.5254 92.0069 53.8071 91.9839 54.0889 91.9666C55.8025 91.8401 57.7864 91.6446 59.5921 90.9718C60.7077 90.5463 62.588 87.6136 63.4219 86.1185C63.4736 86.0265 63.5311 85.9229 63.5886 85.8252C65.3885 82.5244 67.2631 78.2921 65.7163 74.8706C64.8077 72.8522 62.8238 71.4146 59.8221 70.5923C59.1148 65.1121 57.2861 55.2674 52.8066 47.7688C48.9595 41.3226 44.0084 38.0564 38.0912 38.0564Z" fill="#A07412"/>
<path d="M30.092 92.7028C30.1035 93.2606 29.7182 93.7494 29.1432 94.1749C27.8091 95.141 25.4399 95.7505 24.4566 95.992C21.8746 96.6361 19.0569 96.8144 16.4347 96.2853C15.5837 96.1128 14.8419 95.7908 14.2438 95.371C13.1052 94.5774 12.4842 93.4446 12.5704 92.3808C12.6739 91.1272 13.3352 90.2819 14.3301 89.7413C16.8085 88.3957 21.3686 88.9075 24.5371 89.5458C25.6929 89.7816 26.6647 90.0288 27.2858 90.2129C27.9298 90.4026 28.5796 90.6211 29.1144 91.0237C29.6607 91.4204 30.0805 92.03 30.092 92.7028Z" fill="#F5CF64"/>
<path d="M20.196 92.8352C18.5169 93.2607 18.3213 95.5724 19.4542 96.4809" stroke="#A07412" stroke-width="2" stroke-miterlimit="10" stroke-linecap="round" stroke-linejoin="round"/>
<path d="M17.0788 91.5412C15.2962 91.8402 14.5543 93.4273 15.1754 94.9857" stroke="#A07412" stroke-width="2" stroke-miterlimit="10" stroke-linecap="round" stroke-linejoin="round"/>
<path d="M64.1123 95.371C63.5143 95.7908 62.7725 96.1128 61.9214 96.2853C58.0341 97.0616 52.439 96.2681 49.3337 94.0081C48.7989 93.6171 47.9766 93.2433 48.4482 92.5245C49.213 91.3629 50.1388 90.7361 51.4499 90.2129C53.7558 89.287 56.2457 88.8443 58.7299 88.9075C60.7196 88.9593 63.1348 88.988 64.7449 90.3624C65.3199 90.8512 65.7109 91.5067 65.78 92.3808C65.872 93.4446 65.2452 94.5774 64.1123 95.371Z" fill="#F5CF64"/>
<path d="M58.166 92.8352C59.8451 93.2607 60.0407 95.5724 58.9078 96.4809" stroke="#A07412" stroke-width="2" stroke-miterlimit="10" stroke-linecap="round" stroke-linejoin="round"/>
<path d="M61.2831 91.5412C63.0658 91.8402 63.8076 93.4273 63.1865 94.9857" stroke="#A07412" stroke-width="2" stroke-miterlimit="10" stroke-linecap="round" stroke-linejoin="round"/>
<path opacity="0.2" d="M15.1872 73.8413C14.5604 73.7895 13.9049 74.0426 13.2953 74.7441C12.7548 75.3709 12.496 76.2047 12.4615 77.0328C12.381 78.9937 13.4448 80.8051 14.5834 82.3979C15.0262 83.019 15.5207 83.6515 16.2338 83.9218C19.9428 85.3307 18.4995 77.9701 17.9704 76.4807C17.5046 75.1869 16.4006 73.9391 15.1872 73.8413Z" fill="#FFCC90"/>
<path opacity="0.2" d="M59.0053 74.146C57.8149 75.9516 59.264 79.8964 59.6953 81.61C59.8276 82.1333 60.0288 82.7371 60.5406 82.9154C61.0064 83.0764 61.501 82.8004 61.8805 82.4898C64.2094 80.575 64.9282 76.4231 62.5993 74.2092C62.145 73.7779 61.5872 73.4387 60.9662 73.3409C60.3509 73.2432 59.6723 73.4099 59.2353 73.8585C59.149 73.9447 59.0743 74.0425 59.0053 74.146Z" fill="#FFCC90"/>
<path d="M38.6547 73.7837C38.511 73.3581 38.373 72.8866 38.2292 72.3001C38.1372 71.9263 38.0452 71.5352 37.9589 71.1615C37.6829 69.9711 37.3954 68.7405 36.9066 67.579C36.0095 65.4455 34.4569 63.5536 32.5478 62.2426C31.1504 61.288 29.7186 60.7819 28.396 60.7819C28.189 60.7819 27.9819 60.7934 27.7807 60.8164C26.4351 60.9832 25.1527 61.7308 24.3477 62.8176C23.6059 63.8239 23.5081 64.9453 23.4161 66.0321C23.3874 66.3484 23.3528 66.6646 23.3183 66.9694C23.2321 67.7112 23.1458 68.4703 23.1746 69.2753C23.3759 74.3012 24.0256 78.4703 25.216 82.4093L25.308 82.7256C25.5438 83.5134 25.791 84.3357 26.0498 85.135C26.5731 86.7509 27.3206 88.8555 28.4592 90.7762C28.5397 90.92 28.6202 91.0465 28.695 91.1672C29.9026 93.0879 31.4265 94.514 33.0941 95.2845C33.8416 95.6296 34.6582 95.8193 35.3943 95.8193C35.9693 95.8193 36.4868 95.7101 36.9469 95.4915C37.1884 95.3765 37.4184 95.2328 37.6139 95.0603C38.7985 94.0367 38.9193 92.3173 38.9423 90.7877V90.6439C38.9595 89.4766 38.9768 88.3035 38.994 87.1362C38.9998 86.5669 39.0113 86.0033 39.017 85.434V85.4225C39.0285 84.721 39.04 84.0137 39.0458 83.3121C39.0573 82.5991 39.0688 81.8803 39.0803 81.1672C39.086 80.7417 39.1033 80.3047 39.1148 79.8389C39.201 77.8722 39.2758 75.6296 38.6547 73.7837Z" fill="#F2BB33"/>
<path d="M38.7127 87.142C38.6954 88.3611 38.6724 89.5744 38.6552 90.7935C38.6322 92.2484 38.5229 93.893 37.3901 94.8476C37.2003 95.0086 36.9876 95.1351 36.769 95.2386C33.3878 94.6808 30.5873 93.1225 28.7242 90.6383C27.6834 88.8844 26.9646 86.9868 26.3435 85.0546C27.0508 85.3249 27.8099 85.6757 28.4137 85.9459C30.5873 86.9063 32.9335 86.9925 35.4177 87.1133C36.5103 87.1593 37.6144 87.1708 38.7127 87.142Z" fill="#F5CF64"/>
<path d="M28.3964 61.0868C29.811 61.0868 31.2026 61.6906 32.3815 62.4957C34.2561 63.778 35.7512 65.6067 36.6368 67.6998C37.2693 69.2007 37.5511 70.8108 37.9479 72.3749C38.0744 72.8867 38.2124 73.387 38.3792 73.8815C39.121 76.0839 38.8392 78.8844 38.8047 81.1731C38.7817 82.5934 38.7644 84.008 38.7414 85.4284C38.7299 85.9977 38.7242 86.567 38.7184 87.142C38.7012 88.3611 38.6839 89.5744 38.6609 90.7935C38.6379 92.2484 38.5344 93.893 37.4303 94.8476C37.2463 95.0086 37.0393 95.1351 36.8266 95.2386C36.3895 95.4456 35.9007 95.5376 35.4004 95.5376C34.6586 95.5376 33.8938 95.3421 33.2268 95.0316C31.4614 94.215 30.0583 92.7544 29.0117 91.1098C28.9887 91.0811 28.9715 91.0523 28.9542 91.0236C28.8737 90.897 28.7989 90.7705 28.7242 90.644C27.6834 88.8901 26.9646 86.9925 26.3435 85.0604C26.0502 84.1575 25.78 83.249 25.5097 82.3462C25.1187 81.0581 24.7966 79.77 24.5321 78.4704C23.9168 75.4571 23.6063 72.4037 23.4798 69.2927C23.4338 68.1828 23.6236 67.1708 23.7213 66.0839C23.8191 64.9741 23.9168 63.9505 24.6011 63.019C25.3602 61.9896 26.5563 61.2881 27.8271 61.1328C28.0111 61.0983 28.2067 61.0868 28.3964 61.0868ZM28.3964 59.9367C28.1549 59.9367 27.9134 59.954 27.6776 59.977C26.079 60.1725 24.6184 61.0293 23.6638 62.3232C22.784 63.5192 22.669 64.8188 22.5655 65.9689C22.5367 66.2795 22.5022 66.5842 22.4677 66.889C22.3815 67.6596 22.2895 68.4531 22.324 69.3214C22.462 72.7659 22.8127 75.8309 23.3993 78.6889C23.6811 80.0575 24.0146 81.3916 24.4056 82.6682L24.5034 82.9845C24.7449 83.778 24.9864 84.5946 25.2509 85.3996C25.7857 87.0615 26.5563 89.2237 27.7409 91.2133C27.8214 91.3456 27.9019 91.4893 27.9881 91.6216L28.9772 91.0351L28.0054 91.6504C28.0226 91.6791 28.0399 91.7021 28.0571 91.7309C29.3395 93.7378 30.9669 95.2329 32.7495 96.0609C33.6178 96.4635 34.5379 96.6762 35.4062 96.6762C36.1077 96.6762 36.7518 96.5382 37.3211 96.268C37.6316 96.1242 37.9249 95.9344 38.1837 95.7102C39.6328 94.4566 39.7823 92.5244 39.811 90.805L39.8168 90.598C39.834 89.4537 39.8513 88.3036 39.8685 87.1593C39.8743 86.5957 39.8858 86.0379 39.8915 85.4801V85.4456L39.9203 83.3697L39.9548 81.1903C39.9605 80.7705 39.9778 80.3278 39.9893 79.8792C40.0583 77.8263 40.1388 75.5031 39.466 73.5135C39.328 73.111 39.2015 72.6567 39.0577 72.0931C38.9657 71.7251 38.8795 71.3456 38.7932 70.9718C38.5057 69.747 38.2124 68.4761 37.6949 67.2513C36.7345 64.9683 35.0784 62.9442 33.0313 61.5411C31.4902 60.4888 29.8915 59.9367 28.3964 59.9367Z" fill="#A07412"/>
<path d="M27.9364 78.8556C27.9709 79.747 27.8559 80.667 27.2176 81.2536C26.5621 81.8574 25.3372 80.345 25.1359 79.816C24.9117 79.2237 24.7162 78.5739 24.5782 77.9586C24.4574 77.4238 24.4689 76.5555 23.8248 76.3485C23.6063 76.2795 23.3188 76.3427 23.1635 76.5267C23.06 76.6475 23.014 76.8085 22.9738 76.958C22.9393 77.1018 22.8818 77.2283 22.8415 77.3663C22.9048 77.1535 22.4275 76.3255 22.347 76.0839C22.186 75.6124 22.0537 75.1351 21.9387 74.6521C21.7029 73.6515 21.5592 72.6222 21.5132 71.5929C21.4557 70.2127 21.1336 67.2398 23.1578 67.1765C23.8536 67.1535 24.5149 67.5273 24.9864 68.0391C25.458 68.5509 25.757 69.1949 26.0215 69.8332C27.1198 72.5187 27.6489 75.4054 27.9019 78.2921C27.9192 78.4761 27.9307 78.6659 27.9364 78.8556Z" fill="#F2BB33"/>
<path d="M32.6394 99.425C31.7135 99.4135 30.8165 99.0685 30.1092 98.4762C29.7987 98.5912 29.4651 98.6487 29.1259 98.6487C28.4876 98.6487 27.8723 98.4417 27.3892 98.0679C26.6704 97.5159 26.2909 96.7338 26.2909 95.8138C26.2909 95.256 26.4347 94.6694 26.7049 94.1059C26.9924 93.4963 27.4237 92.9386 27.9125 92.5303C29.2294 91.4377 30.966 90.8339 32.8004 90.8339C33.9275 90.8339 35.0546 91.0639 36.0666 91.5009C37.2455 92.0127 38.177 92.8351 38.6946 93.8241C38.8901 94.2037 39.0281 94.6177 39.0971 95.0432C39.1086 95.1065 39.1201 95.1812 39.1259 95.2502C39.2121 96.0323 39.0568 96.7913 38.6831 97.4296C38.5738 97.6137 38.4301 97.7862 38.2575 97.9529C37.671 98.5165 36.8487 98.8615 36.1184 98.8615C35.7446 98.8615 35.3996 98.7752 35.1121 98.6027C34.422 99.1203 33.5652 99.4135 32.6969 99.4135C32.6911 99.425 32.6394 99.425 32.6394 99.425Z" fill="#F5CF64"/>
<path d="M32.8061 91.4147C33.8469 91.4147 34.8935 91.6217 35.8481 92.0357C36.8199 92.4555 37.7055 93.1571 38.1943 94.0944C38.3668 94.4222 38.4818 94.7787 38.5393 95.141C38.5508 95.1927 38.5565 95.2502 38.5623 95.302C38.6313 95.9403 38.522 96.5901 38.1943 97.1421C38.1137 97.2801 37.9987 97.4181 37.8665 97.5447C37.4237 97.9702 36.7451 98.298 36.1241 98.298C35.7388 98.298 35.3765 98.1715 35.1063 97.8667C34.4737 98.4877 33.5882 98.85 32.7026 98.85C32.6853 98.85 32.6681 98.85 32.6566 98.85C31.7538 98.8385 30.8567 98.4475 30.2299 97.7977C29.8964 97.9817 29.5169 98.0737 29.1373 98.0737C28.6428 98.0737 28.1425 97.9184 27.7515 97.6137C27.1304 97.1364 26.8774 96.4866 26.8774 95.8138C26.8774 95.325 27.0097 94.8189 27.2339 94.3532C27.4927 93.8126 27.8665 93.3296 28.292 92.9731C29.5514 91.9265 31.173 91.4147 32.8061 91.4147ZM32.8061 90.2646C30.8395 90.2646 28.9706 90.9144 27.5502 92.0932C26.9982 92.5533 26.5151 93.1801 26.1874 93.8644C25.8826 94.5027 25.7216 95.1755 25.7158 95.8138C25.7158 96.9064 26.1816 97.8724 27.0384 98.528C27.6192 98.9765 28.361 99.2238 29.1258 99.2238C29.4191 99.2238 29.7124 99.1893 29.9884 99.1145C30.7474 99.6666 31.679 99.9828 32.6278 100H32.6911C33.5652 100 34.4277 99.7413 35.1638 99.2755C35.4571 99.3905 35.7791 99.448 36.1184 99.448C36.9924 99.448 37.97 99.0398 38.66 98.3785C38.8728 98.1772 39.0453 97.9587 39.1833 97.7344C39.6261 96.9869 39.8044 96.1128 39.7066 95.1927C39.7009 95.1122 39.6894 95.0317 39.6779 94.9512C39.5974 94.4682 39.4421 93.9966 39.2178 93.5596C38.6428 92.4555 37.6077 91.5354 36.3081 90.9719C35.2155 90.5119 34.0079 90.2646 32.8061 90.2646Z" fill="#A07412"/>
<path d="M31.0347 94.9455C29.8501 95.9863 29.7236 97.7287 30.7414 98.8788" stroke="#A07412" stroke-width="2" stroke-miterlimit="10" stroke-linecap="round" stroke-linejoin="round"/>
<path d="M34.3359 94.9858C35.4055 96.1876 35.6528 97.332 34.9627 98.7121" stroke="#A07412" stroke-width="2" stroke-miterlimit="10" stroke-linecap="round" stroke-linejoin="round"/>
<path d="M54.7387 66.981C54.7042 66.6763 54.6697 66.36 54.6409 66.0437C54.5432 64.9569 54.4454 63.8355 53.7094 62.8292C52.9043 61.7366 51.622 60.9891 50.2821 60.8281C50.0809 60.8051 49.8738 60.7936 49.6668 60.7936C48.3442 60.7936 46.9124 61.2996 45.515 62.2542C43.6059 63.5653 42.059 65.4572 41.1562 67.5906C40.6674 68.7522 40.3799 69.9828 40.1039 71.1731C40.0176 71.5469 39.9256 71.9321 39.8336 72.3117C39.6841 72.8982 39.5518 73.3698 39.4081 73.7953C38.787 75.6412 38.8618 77.8781 38.9308 79.862C38.948 80.3278 38.9595 80.7648 38.9653 81.1903C38.9768 81.9034 38.9883 82.6165 38.9998 83.3295C39.0113 84.0368 39.0228 84.7384 39.0285 85.4457C39.04 86.0207 39.0458 86.59 39.0515 87.1593C39.0688 88.3324 39.086 89.5055 39.1033 90.6786V90.8108C39.1263 92.3404 39.2528 94.0598 40.4316 95.0834C40.6329 95.2559 40.8572 95.3997 41.1044 95.5147C41.5587 95.7274 42.082 95.8367 42.6513 95.8367C43.3874 95.8367 44.2039 95.6469 44.9515 95.3019C46.6191 94.5313 48.143 93.1052 49.3506 91.1846C49.4253 91.0638 49.5058 90.9373 49.5863 90.7936C50.7249 88.8729 51.4725 86.7683 51.9957 85.1524C52.2545 84.3531 52.5018 83.5365 52.7376 82.743L52.8296 82.4324C54.0199 78.4991 54.6697 74.3243 54.871 69.2985C54.917 68.4819 54.825 67.7171 54.7387 66.981Z" fill="#F2BB33"/>
<path d="M39.3508 87.1421C39.3681 88.3612 39.3911 89.5745 39.4083 90.7936C39.4313 92.2485 39.5406 93.8931 40.6734 94.8477C40.8632 95.0087 41.076 95.1352 41.2945 95.2387C44.6757 94.6809 47.4762 93.1225 49.3393 90.6383C50.3802 88.8845 51.099 86.9868 51.72 85.0547C51.0127 85.3249 50.2536 85.6757 49.6499 85.946C47.4762 86.9063 45.13 86.9926 42.6458 87.1133C41.5475 87.1593 40.4492 87.1708 39.3508 87.1421Z" fill="#F5CF64"/>
<path d="M49.6611 61.0868C49.8566 61.0868 50.0464 61.0983 50.2419 61.1213C51.5127 61.2766 52.7088 61.9724 53.4679 63.0075C54.1522 63.939 54.2499 64.9626 54.3419 66.0725C54.4397 67.1593 54.6295 68.1714 54.5835 69.2812C54.3994 73.7435 53.8474 78.0679 52.5536 82.3404C52.2775 83.2432 52.0073 84.1576 51.7197 85.0546C51.668 85.2099 51.6162 85.3652 51.5645 85.5262C50.9779 87.2915 50.2936 89.0282 49.3391 90.6383C49.2643 90.7648 49.1896 90.8913 49.1091 91.0178C49.0803 91.0581 49.0573 91.1041 49.0285 91.1443C47.982 92.7717 46.5904 94.2151 44.8365 95.0259C44.1694 95.3364 43.3989 95.5319 42.6628 95.5319C42.1625 95.5319 41.6737 95.4399 41.2367 95.2329C41.0239 95.1351 40.8227 95.0029 40.6329 94.8419C40.0061 94.3013 39.7013 93.5365 39.5518 92.7085C39.4368 92.0817 39.4138 91.4146 39.4023 90.7878C39.3851 89.5745 39.3678 88.3554 39.3506 87.1363C39.3448 86.682 39.3391 86.2335 39.3333 85.7792C39.3333 85.6584 39.3276 85.5434 39.3276 85.4227C39.3046 84.0023 39.2873 82.5877 39.2643 81.1673C39.2298 78.8787 38.948 76.0782 39.6898 73.8758C39.8566 73.3813 39.9946 72.8752 40.1269 72.3692C40.5179 70.8051 40.8054 69.1949 41.438 67.6941C42.3235 65.6009 43.8187 63.7723 45.6933 62.4899C46.8606 61.6849 48.2465 61.0868 49.6611 61.0868ZM49.6611 59.9367C48.166 59.9367 46.5674 60.4945 45.0262 61.5469C42.9791 62.9442 41.3287 64.9741 40.3626 67.2513C39.8451 68.4761 39.5518 69.747 39.2643 70.9718C39.1781 71.3456 39.0918 71.7194 38.9998 72.0932C38.856 72.6567 38.7295 73.111 38.5915 73.5135C37.9245 75.5032 37.9992 77.8263 38.0682 79.8792C38.0855 80.3278 38.097 80.7706 38.1027 81.1903L38.1372 83.318L38.1717 85.4457L38.1775 85.6297L38.1832 85.8022L38.1947 86.4807L38.2062 87.1593C38.2235 88.3611 38.2407 89.563 38.258 90.7591V90.8108C38.2695 91.4836 38.2925 92.2024 38.4248 92.9212C38.649 94.1461 39.1263 95.0604 39.8854 95.7159C40.1441 95.9402 40.4374 96.13 40.7537 96.2737C41.323 96.544 41.967 96.682 42.6628 96.682C43.5311 96.682 44.4512 96.4692 45.3195 96.0667C47.0964 95.2444 48.7123 93.7608 49.9889 91.7711C50.0119 91.7366 50.0349 91.7021 50.0579 91.6676L50.0751 91.6389C50.1671 91.4951 50.2476 91.3571 50.3339 91.2191C51.208 89.7527 51.9268 88.1024 52.6571 85.8884C52.7088 85.7332 52.7663 85.5722 52.8181 85.4054C53.0768 84.6003 53.3241 83.778 53.5656 82.9845L53.6634 82.6682C54.871 78.6659 55.5323 74.4278 55.7393 69.3272C55.7738 68.4531 55.6818 67.6538 55.5898 66.8833C55.5553 66.5842 55.5208 66.2795 55.492 65.9747C55.3943 64.8304 55.2793 63.5308 54.3994 62.3289C53.4449 61.0351 51.9785 60.1783 50.3856 59.9827C50.1441 59.9482 49.9026 59.9367 49.6611 59.9367Z" fill="#A07412"/>
<path d="M50.1212 78.8557C50.0867 79.747 50.2017 80.6671 50.84 81.2536C51.4955 81.8574 52.7203 80.345 52.9216 79.816C53.1459 79.2237 53.3414 78.5739 53.4794 77.9586C53.6002 77.4238 53.5887 76.5555 54.2327 76.3485C54.4512 76.2795 54.7387 76.3427 54.894 76.5267C54.9975 76.6475 55.0435 76.8085 55.0838 76.958C55.1183 77.1018 55.1758 77.2283 55.216 77.3663C55.1528 77.1535 55.6301 76.3255 55.7106 76.084C55.8716 75.6124 56.0038 75.1351 56.1189 74.6521C56.7284 72.0874 56.8377 69.5515 56.6996 66.9408C56.6364 65.7332 56.4409 64.4681 55.6818 63.525C55.3943 63.1627 54.9573 62.8465 54.503 62.9385C53.9509 63.0477 53.6979 63.6745 53.5427 64.2093C52.8871 66.5095 52.3811 68.7234 51.6105 70.9603C50.794 73.3238 50.3742 75.8079 50.1557 78.2921C50.1442 78.4761 50.1269 78.6659 50.1212 78.8557Z" fill="#F2BB33"/>
<path d="M45.3652 99.425C44.4968 99.425 43.64 99.1318 42.95 98.6142C42.6567 98.7867 42.3174 98.873 41.9437 98.873C40.9661 98.873 39.862 98.2577 39.379 97.4411C39.1202 97.0041 38.9649 96.5038 38.9247 95.969C38.9074 95.739 38.9074 95.5032 38.9362 95.2675C38.9362 95.2617 38.9362 95.256 38.9362 95.256C38.9419 95.187 38.9534 95.118 38.9649 95.0547C39.0339 94.6234 39.1719 94.2151 39.3675 93.8356C39.885 92.8465 40.8166 92.0185 41.9954 91.5125C43.0075 91.0754 44.1346 90.8454 45.2617 90.8454C47.096 90.8454 48.8327 91.4492 50.1495 92.5418C50.5175 92.8465 50.8511 93.2318 51.1156 93.6689C51.2248 93.8529 51.3284 94.0369 51.4089 94.2209C52.0874 95.7333 51.8056 97.2111 50.6786 98.0794C50.1955 98.4532 49.5802 98.6545 48.9419 98.6545C48.6027 98.6545 48.2691 98.597 47.9586 98.482C47.2571 99.0743 46.3542 99.4135 45.4284 99.4308C45.4169 99.425 45.3709 99.425 45.3652 99.425Z" fill="#F5CF64"/>
<path d="M45.2559 91.4147C46.8833 91.4147 48.5107 91.9265 49.7758 92.9788C50.092 93.2433 50.3853 93.5826 50.6153 93.9621C50.7131 94.1174 50.7993 94.2784 50.8741 94.4509C51.3629 95.5378 51.3571 96.8143 50.3163 97.6194C49.9253 97.9242 49.425 98.0794 48.9305 98.0794C48.5509 98.0794 48.1714 97.9874 47.8379 97.8034C47.2111 98.459 46.3198 98.8443 45.4112 98.8558C45.3939 98.8558 45.3767 98.8558 45.3652 98.8558C44.4796 98.8558 43.5941 98.4935 42.9615 97.8724C42.6912 98.1772 42.329 98.3037 41.9437 98.3037C41.1386 98.3037 40.2301 97.7517 39.8735 97.1536C39.6493 96.7798 39.5285 96.3601 39.4998 95.9288C39.4825 95.7275 39.4882 95.5262 39.5112 95.3192C39.517 95.2617 39.5228 95.2042 39.5343 95.1467C39.5918 94.7844 39.7125 94.4279 39.8793 94.1001C40.3681 93.1571 41.2536 92.4613 42.2255 92.0415C43.1685 91.6275 44.2151 91.4147 45.2559 91.4147ZM45.2559 90.2646C44.0541 90.2646 42.8465 90.5119 41.7597 90.9777C40.4601 91.5412 39.425 92.4555 38.8499 93.5654C38.6257 94.0024 38.4704 94.4682 38.3899 94.9627C38.3784 95.0432 38.3669 95.1237 38.3612 95.1985C38.3612 95.2042 38.3612 95.21 38.3612 95.21C38.3324 95.4803 38.3324 95.7505 38.3497 96.015C38.4014 96.6418 38.5797 97.2169 38.8845 97.7344C39.4652 98.712 40.7821 99.448 41.9437 99.448C42.283 99.448 42.605 99.3905 42.8983 99.2755C43.6286 99.7413 44.4969 100 45.3709 100H45.4342C46.383 99.9886 47.3088 99.6723 48.0736 99.1145C48.3554 99.1835 48.6429 99.2238 48.9362 99.2238C49.701 99.2238 50.4428 98.9765 51.0236 98.528C52.375 97.4871 52.72 95.7448 51.9264 93.9794C51.8344 93.7724 51.7252 93.5654 51.5987 93.3641C51.2996 92.8753 50.9259 92.4383 50.5118 92.0932C49.0915 90.9144 47.2226 90.2646 45.2559 90.2646Z" fill="#A07412"/>
<path d="M47.0274 94.9455C48.212 95.9863 48.3385 97.7287 47.3207 98.8788" stroke="#A07412" stroke-width="2" stroke-miterlimit="10" stroke-linecap="round" stroke-linejoin="round"/>
<path d="M43.7266 94.9858C42.6571 96.1876 42.4098 97.3319 43.0998 98.712" stroke="#A07412" stroke-width="2" stroke-miterlimit="10" stroke-linecap="round" stroke-linejoin="round"/>
<path d="M58.868 88.9821C60.7369 88.9821 63.5086 89.0396 64.7507 90.4427C67.4706 93.5192 62.6 96.2449 59.5408 96.59C57.4591 96.8257 54.3826 96.4634 52.1055 95.6756" stroke="#A07412" stroke-width="2" stroke-miterlimit="10" stroke-linecap="round" stroke-linejoin="round"/>
<path d="M19.5058 88.9822C17.6369 88.9822 14.8652 89.0397 13.6231 90.4428C10.9032 93.5193 15.7738 96.245 18.833 96.59C20.9147 96.8258 23.9912 96.4635 26.2683 95.6757" stroke="#A07412" stroke-width="2" stroke-miterlimit="10" stroke-linecap="round" stroke-linejoin="round"/>
<path d="M30.3799 72.0069C30.3799 72.0069 38.4995 80.0115 47.7232 71.6619L30.3799 72.0069Z" fill="#F2BB33"/>
<path d="M30.3799 72.0069C30.3799 72.0069 38.4995 80.0115 47.7232 71.6619" stroke="#A07412" stroke-width="2" stroke-miterlimit="10" stroke-linecap="round" stroke-linejoin="round"/>
<path d="M37.1076 72.8751C37.0098 72.8751 36.9178 72.8694 36.8201 72.8579C36.6648 72.8406 36.4118 72.7774 35.854 72.4553C35.8252 72.4381 33.9276 71.242 32.628 70.0172C32.5763 70.2012 32.4842 70.3852 32.3232 70.552C32.1392 70.7532 31.7942 70.989 31.2307 70.989C30.8799 70.989 30.4773 70.897 30.0288 70.7187C26.4635 69.2926 21.5412 66.8487 18.3267 63.3064C16.6188 61.426 14.7959 58.5508 14.1059 55.5433C13.4848 56.6417 12.4152 57.5272 10.5521 57.5272C10.3853 57.5272 10.2071 57.5215 10.0231 57.5042C8.31518 57.3605 6.82582 56.5036 5.854 55.8769C5.68724 55.7676 5.58948 55.5836 5.58948 55.3881C5.58948 55.1925 5.69299 55.0085 5.8655 54.905C6.76832 54.353 7.42387 53.3122 7.67113 52.0586C7.9069 50.8682 7.79189 49.6031 7.67688 48.3783L7.62513 47.8262C7.46987 46.2506 7.2456 43.939 7.56763 42.0528C7.48137 42.1103 7.39511 42.1678 7.29736 42.2196C6.64181 42.5531 5.85975 42.7314 5.02594 42.7314C4.69241 42.7314 4.35889 42.7026 4.04261 42.6451C4.01386 42.6394 0.897126 41.8918 0.598103 40.7992C0.534849 40.5577 0.632606 40.2989 0.845372 40.1609C3.42732 38.5393 2.61075 35.3651 1.81719 32.3001C1.52392 31.1557 1.24215 30.0804 1.15014 29.1086C0.966131 27.1362 1.50092 25.6583 2.07021 24.0942C2.28298 23.5019 2.50725 22.8924 2.69126 22.2426C3.2433 20.3277 3.59408 19.2178 3.85285 18.5738L2.98453 18.2403C2.76027 18.154 2.61075 17.9355 2.6165 17.694C2.62226 17.4525 2.77177 17.2397 3.00178 17.1592C4.51415 16.6244 5.9345 15.5203 7.33761 13.7722C7.85515 13.1281 8.34393 12.4438 8.81547 11.7825C9.44802 10.897 10.0978 9.98266 10.8396 9.13159C13.2778 6.34263 16.8028 4.10572 21.5987 2.30008C24.6924 1.13849 27.7401 0.574951 30.9086 0.574951C33.4331 0.574951 35.9575 0.931478 38.6315 1.66753C38.9592 1.75954 39.2353 1.85155 39.494 1.94355C39.9943 2.11607 40.3508 2.24258 40.8511 2.24258C40.9661 2.24258 41.0869 2.23683 41.2192 2.21957C42.3922 2.09307 43.5366 1.88605 44.6464 1.69053C46.4233 1.37426 48.2692 1.04649 50.1783 1.04649C51.0179 1.04649 51.8057 1.10399 52.5993 1.2305L52.7373 1.2535C53.8758 1.43177 55.1697 1.63303 56.314 1.9493C56.7626 2.07006 57.2053 2.20807 57.6481 2.34033L58.0162 2.44959C59.3043 2.83487 60.5636 3.18565 61.8402 3.18565C62.536 3.18565 63.1858 3.08214 63.8241 2.87512C63.8816 2.85787 63.9449 2.84637 64.0024 2.84637C64.1461 2.84637 64.2841 2.89813 64.3876 2.99588C64.5429 3.13389 64.6062 3.34666 64.5602 3.54792C64.4106 4.20347 64.0311 4.80727 63.4906 5.25005C63.4273 5.30181 63.3583 5.35356 63.2893 5.40531C63.18 5.48582 63.0708 5.56633 63.0075 5.64108C62.9903 5.65833 62.9443 5.71009 62.95 5.86535C63.0018 7.13044 65.6527 9.8619 66.9236 11.1787C67.2974 11.564 67.5964 11.8745 67.7689 12.0758C69.7988 14.4277 71.8114 15.8308 73.9219 16.3599C74.1461 16.4174 74.3129 16.5957 74.3474 16.8257C74.3876 17.0499 74.2841 17.28 74.0944 17.4007C74.0081 17.4582 73.9679 17.4812 73.9276 17.51C73.2261 17.97 72.467 18.3783 71.6734 18.7233C72.881 20.3507 73.6746 22.4151 73.9794 24.7268C74.1576 26.0781 74.3071 27.4755 74.3991 28.7751C74.4221 29.0683 74.4279 29.3559 74.4279 29.6491C74.4279 30.1724 74.3934 30.69 74.3589 31.196C74.3301 31.679 74.2956 32.1736 74.2956 32.6624V32.7486C74.2956 33.2662 74.3301 33.7204 74.3991 34.1345C74.7327 36.1356 75.5665 37.8895 76.8028 39.1949C76.9293 39.3271 76.9868 39.5169 76.9466 39.7009C76.9121 39.8849 76.7856 40.0344 76.6188 40.1149C76.5843 40.1322 76.544 40.1494 76.5038 40.1609C75.9863 40.3679 75.4227 40.4772 74.8362 40.4772C74.2381 40.4772 73.6343 40.3622 73.0823 40.1437C72.881 40.0632 72.6855 39.9712 72.5015 39.8619C71.8402 41.5468 71.3974 43.6457 71.3284 45.5031C71.3399 46.1759 72.2255 50.0057 72.7488 50.4312C72.7315 50.4197 72.674 50.3852 72.582 50.3852C72.5245 50.3852 72.4727 50.3967 72.421 50.4254L72.95 51.4433C72.1277 51.8688 71.2191 52.0873 70.2588 52.0873C68.9362 52.0873 67.5906 51.6618 66.4693 50.9085C65.8367 52.2771 64.9397 54.2495 64.9627 55.6238C64.9799 56.9234 65.3882 58.062 66.1013 58.8383C66.2278 58.9763 66.2795 59.1718 66.2393 59.3559C66.199 59.5399 66.0668 59.6951 65.8885 59.7641C64.8189 60.1897 63.6056 60.667 62.306 60.7015H62.191C61.3112 60.7015 60.4888 60.4657 59.8448 60.0574C59.287 61.5065 57.3491 63.3639 53.9966 65.6698C53.5711 65.9631 53.065 66.2851 52.4612 66.3944C52.3405 66.4174 52.214 66.4289 52.0817 66.4289C51.4319 66.4289 50.8684 66.1529 50.5694 65.6928C50.4543 65.5203 50.3911 65.3421 50.3566 65.158C50.0748 65.5376 49.7528 65.9056 49.379 66.2679C48.7235 66.9004 47.9874 67.4582 47.2226 68.016C46.8258 68.3035 45.0374 69.1316 42.7373 70.1782C42.076 70.4772 41.3917 70.7935 41.2422 70.8682C41.1501 70.9315 41.0409 70.966 40.9259 70.966C40.8856 70.966 40.8454 70.9602 40.8051 70.9545C40.7361 70.9372 40.6671 70.9085 40.6096 70.874C39.701 71.8573 38.4474 72.8751 37.1076 72.8751Z" fill="#F48931"/>
<path d="M30.9089 1.15009C33.3988 1.15009 35.9118 1.51811 38.4822 2.21967C39.4425 2.48419 39.9716 2.81196 40.8514 2.81196C40.9837 2.81196 41.1274 2.80621 41.2827 2.78896C44.3822 2.44968 47.1539 1.62162 50.1786 1.62162C50.9377 1.62162 51.7082 1.67338 52.5075 1.79989C53.6979 1.9839 54.9975 2.18516 56.159 2.50144C56.7226 2.6567 57.2861 2.83496 57.8439 3.00173C59.1665 3.3985 60.4776 3.76078 61.8347 3.76078C62.542 3.76078 63.2608 3.66302 63.9969 3.42151C63.8761 3.95055 63.5656 4.44508 63.1286 4.80736C62.9446 4.95687 62.7318 5.08913 62.5765 5.2674C62.427 5.43416 62.3695 5.64692 62.381 5.89419C62.381 5.89419 62.381 5.89419 62.381 5.89994C62.4558 7.74583 66.4926 11.4721 67.3436 12.4554C69.0515 14.4336 71.1619 16.2565 73.7899 16.9235C73.7381 16.958 73.6921 16.9925 73.6404 17.0213C72.7375 17.6078 71.7657 18.1024 70.7479 18.4934C70.7766 18.5279 70.8054 18.5624 70.8342 18.5969C72.3293 20.368 73.1228 22.5819 73.4161 24.8189C73.5944 26.1357 73.7381 27.5158 73.8359 28.8327C73.8589 29.1087 73.8646 29.3847 73.8646 29.6607C73.8589 30.6671 73.7381 31.6619 73.7324 32.6682V32.7545C73.7324 33.2432 73.7611 33.7378 73.8474 34.2381C74.1751 36.1932 74.9917 38.1139 76.3948 39.5975C76.3661 39.609 76.3316 39.6205 76.3028 39.632C75.8428 39.816 75.3482 39.9022 74.848 39.9022C74.3189 39.9022 73.7899 39.8045 73.3068 39.609C73.0193 39.494 72.7433 39.3502 72.5018 39.1719C72.4213 39.1144 72.3408 39.0512 72.266 38.9879C71.3919 40.9028 70.8514 43.3985 70.7709 45.4859C70.7536 45.9632 71.7427 50.9661 72.5995 50.9661C72.634 50.9661 72.6685 50.9546 72.7088 50.9373C71.944 51.3341 71.1102 51.5181 70.2821 51.5181C68.8215 51.5181 67.3666 50.9603 66.2683 50.023C65.5955 51.5009 64.3822 53.893 64.4052 55.6354C64.4224 56.9235 64.7962 58.2519 65.6933 59.2352C64.6064 59.6665 63.4908 60.0978 62.312 60.1323C62.2775 60.1323 62.2488 60.1323 62.2143 60.1323C61.0642 60.1323 59.8508 59.655 59.3275 58.7062C60.3511 60.5865 55.0147 64.2898 53.6921 65.1984C53.2953 65.4744 52.8698 65.7447 52.381 65.8252C52.289 65.8424 52.197 65.8482 52.105 65.8482C51.6967 65.8482 51.2827 65.6929 51.0757 65.3709C50.6559 64.7269 51.2367 63.8068 50.8111 63.1685C50.3914 64.2726 49.7646 65.1064 48.9998 65.8482C48.3845 66.4405 47.6772 66.9753 46.9066 67.5446C46.3201 67.9759 40.9549 70.3278 40.9434 70.3853C41.0182 70.0288 41.1274 69.6837 41.2597 69.3387C41.3632 69.0742 41.4897 68.8154 41.6277 68.5624C41.4609 68.8269 41.2654 69.1317 41.0412 69.4422C40.0693 70.7763 38.5857 72.3059 37.1251 72.3059C37.0504 72.3059 36.9756 72.3002 36.9009 72.2944C36.7513 72.2772 36.4868 72.1564 36.159 71.9667C34.7042 71.1213 31.9555 68.9074 32.0245 68.2461C31.8922 68.8959 32.3868 69.6722 31.921 70.1668C31.7485 70.3508 31.507 70.4198 31.2482 70.4198C30.9204 70.4198 30.5639 70.3105 30.2649 70.1898C26.1936 68.5566 21.6622 66.107 18.7755 62.927C16.2856 60.1898 14.0256 55.8482 14.4799 52.1449C14.1867 54.5428 13.4793 56.958 10.5754 56.958C10.4201 56.958 10.2649 56.9523 10.0981 56.935C8.67199 56.8143 7.36664 56.1587 6.19355 55.3939C7.34364 54.6866 8.01069 53.4388 8.26371 52.1737C8.51673 50.9086 8.39597 49.609 8.28096 48.3266C8.09119 46.2852 7.5449 42.0644 8.86175 40.2358C8.06819 40.4658 7.79792 41.3284 7.06187 41.7021C6.46382 42.0069 5.75077 42.1507 5.05497 42.1507C4.75594 42.1507 4.45692 42.1219 4.1694 42.0702C3.62886 41.9724 1.32869 41.2018 1.17918 40.6383C5.15847 38.1369 2.08199 32.5704 1.75422 29.0454C1.5127 26.4635 2.61103 24.7384 3.27808 22.3864C3.37009 22.0587 4.51443 18.2519 4.67544 18.2519C4.67544 18.2519 4.67544 18.2519 4.68119 18.2519C4.19815 18.0679 3.70937 17.8781 3.22633 17.6941C5.11822 17.027 6.60758 15.6297 7.82092 14.1231C9.03426 12.6164 10.0291 10.9603 11.3057 9.49971C14.0141 6.40023 17.8554 4.31857 21.8405 2.82346C24.8479 1.69638 27.8612 1.15009 30.9089 1.15009ZM30.9089 0C27.6714 0 24.5604 0.575043 21.3977 1.76538C16.5098 3.60552 12.9101 5.89419 10.4029 8.76366C9.64381 9.63197 8.98251 10.5578 8.34421 11.4549C7.85543 12.1449 7.39539 12.789 6.88935 13.4215C5.55525 15.0834 4.22115 16.13 2.8123 16.6302C2.35801 16.7913 2.05324 17.2168 2.04174 17.6998C2.03024 18.1829 2.32926 18.6199 2.7778 18.7924L3.12857 18.9247C3.03657 19.2007 2.93306 19.5112 2.8238 19.8677C2.50753 20.8511 2.197 21.8976 2.1395 22.0932C1.96123 22.7257 1.74272 23.3295 1.52995 23.9103C0.96641 25.4629 0.379866 27.073 0.57538 29.1719C0.667387 30.1898 0.954909 31.2881 1.25393 32.4497C2.16825 35.9689 2.61103 38.3784 0.540878 39.678C0.115346 39.9482 -0.0916699 40.4658 0.0405901 40.9488C0.454621 42.4784 3.90488 43.2087 3.93938 43.2145C4.29016 43.2777 4.65819 43.3122 5.02621 43.3122C5.67601 43.3122 6.30281 43.2145 6.8721 43.0247C6.76284 44.5256 6.8951 46.222 7.05612 47.8896C7.07337 48.0851 7.09062 48.2691 7.10787 48.4359C7.21713 49.6205 7.33214 50.8396 7.10787 51.9551C6.88935 53.0535 6.32581 53.9505 5.561 54.4221C5.22748 54.6291 5.02046 54.9914 5.01471 55.3882C5.00896 55.7849 5.21023 56.153 5.538 56.3657C6.56158 57.0328 8.1372 57.9356 9.97734 58.0851C10.1729 58.1024 10.3684 58.1081 10.5524 58.1081C12.0705 58.1081 13.1286 57.5676 13.8589 56.8028C14.7214 59.4997 16.3546 61.9954 17.9014 63.6975C21.1907 67.3145 26.1936 69.8045 29.8163 71.2536C30.3339 71.4606 30.8054 71.5641 31.2309 71.5641C32.0015 71.5641 32.4788 71.2248 32.7433 70.9431C32.749 70.9373 32.7548 70.9316 32.7605 70.9201C34.0544 72.0357 35.5323 72.9327 35.561 72.9442C36.0843 73.2432 36.4408 73.387 36.7571 73.4215C36.8664 73.433 36.9871 73.4388 37.1079 73.4388C38.4995 73.4388 39.7646 72.5589 40.7824 71.5066C40.8284 71.5124 40.8802 71.5181 40.9262 71.5181C41.1447 71.5181 41.3517 71.4549 41.53 71.3456C41.7082 71.2593 42.3523 70.9603 42.9791 70.6786C45.8255 69.379 47.1654 68.7522 47.5737 68.4531C48.3212 67.9068 49.1033 67.3146 49.7876 66.659C49.9486 66.5037 50.1038 66.3427 50.2476 66.1817C50.6731 66.682 51.3459 66.9753 52.0935 66.9753C52.2545 66.9753 52.4155 66.9638 52.5708 66.935C53.2896 66.8085 53.8531 66.4462 54.3304 66.1185C57.3609 64.0311 59.2643 62.2944 60.1038 60.8223C60.7249 61.0983 61.4437 61.2536 62.2028 61.2536C62.243 61.2536 62.289 61.2536 62.3293 61.2536C63.7324 61.2191 64.9975 60.7188 66.1073 60.276C66.4581 60.138 66.7226 59.8332 66.8031 59.4652C66.8894 59.0972 66.7859 58.7062 66.5271 58.4301C65.906 57.7573 65.5553 56.751 65.538 55.5952C65.5208 54.5256 66.159 52.9672 66.7226 51.7194C67.8094 52.3174 69.0458 52.6452 70.2591 52.6452C71.3057 52.6452 72.289 52.4094 73.1861 51.9494C73.5714 51.7654 73.8359 51.3686 73.8359 50.9143C73.8359 50.4025 73.5023 49.9655 73.0366 49.816C72.5823 48.9247 71.9555 46.176 71.9037 45.4687C71.967 43.8873 72.3063 42.1334 72.8238 40.6325C72.841 40.6383 72.8583 40.6441 72.8756 40.6498C73.4851 40.8913 74.1694 41.0236 74.8364 41.0236C75.4977 41.0236 76.1303 40.9028 76.7168 40.6671C76.7513 40.6556 76.8031 40.6325 76.8491 40.6095C77.1884 40.4543 77.4356 40.1495 77.5046 39.7872C77.5794 39.425 77.4702 39.0454 77.2114 38.7752C76.0555 37.5503 75.2735 35.8999 74.9572 34.0138C74.894 33.6228 74.8595 33.2145 74.8595 32.72V32.6337C74.8652 32.1737 74.894 31.7079 74.9227 31.2076C74.9572 30.6958 74.9917 30.1668 74.9917 29.6262C74.9917 29.2984 74.986 28.9937 74.963 28.7062C74.8652 27.3951 74.7214 25.9862 74.5374 24.6291C74.2557 22.4842 73.5656 20.5405 72.519 18.9362C73.1113 18.6486 73.6864 18.3209 74.2327 17.9643C74.2729 17.9413 74.3189 17.9126 74.3592 17.8838L74.3937 17.8608C74.7789 17.6136 74.9802 17.1593 74.9054 16.705C74.8307 16.2507 74.4972 15.8884 74.0486 15.7792C72.059 15.2789 70.1441 13.939 68.1947 11.6791C68.0049 11.4606 67.7059 11.1501 67.3264 10.7591C66.4178 9.82749 63.7151 7.03853 63.5254 5.92294C63.5599 5.89994 63.5944 5.87119 63.6231 5.84819C63.6979 5.79068 63.7726 5.73893 63.8416 5.67568C64.4799 5.15239 64.9285 4.43933 65.1067 3.65727C65.1987 3.25474 65.0665 2.82921 64.7617 2.55319C64.5489 2.35768 64.2672 2.25417 63.9854 2.25417C63.8646 2.25417 63.7439 2.27142 63.6231 2.31167C63.0423 2.50144 62.4558 2.59344 61.8175 2.59344C60.6156 2.59344 59.4023 2.25992 58.1602 1.88614L57.7922 1.77688C57.3494 1.64462 56.9009 1.50661 56.4523 1.3801C55.2735 1.05233 53.9624 0.851064 52.8065 0.6728L52.6743 0.649799C51.852 0.523289 51.0354 0.460035 50.1671 0.460035C48.2062 0.460035 46.3373 0.793559 44.5374 1.10983C43.4391 1.30535 42.3005 1.50661 41.1504 1.63312C41.0412 1.64462 40.9434 1.65037 40.8456 1.65037C40.4431 1.65037 40.1383 1.54687 39.6726 1.38585C39.4138 1.29385 39.1263 1.19609 38.7755 1.09833C36.0555 0.362277 33.4793 0 30.9089 0Z" fill="#AF6127"/>
<g opacity="0.1">
<path d="M41.0235 69.4365C39.9999 70.8396 38.4128 72.4555 36.8832 72.2887C36.7337 72.2715 36.4692 72.1507 36.1414 71.961C36.1184 71.892 36.1241 71.8172 36.1644 71.7367C36.2736 71.5009 36.5439 71.3802 36.7969 71.2709C38.1713 70.6959 39.6089 70.0978 41.0235 69.4365Z" fill="#3F140A"/>
</g>
<g opacity="0.1">
<path d="M76.3829 39.7184C76.4404 39.7759 74.2093 40.0059 73.9103 39.9254C73.686 39.8679 73.4905 39.7356 73.295 39.6033C73.0304 39.4193 72.7774 39.2181 72.4899 39.1663C72.4094 39.1088 72.3289 39.0456 72.2541 38.9823C71.3801 40.8972 70.8395 43.3929 70.759 45.4803C70.7418 45.9748 71.8171 51.386 72.6912 50.9317C70.5808 52.03 67.9758 51.4837 66.2507 50.0174C65.5779 51.4952 64.3645 53.8874 64.3875 55.6298C64.4048 56.9179 64.7786 58.2462 65.6756 59.2296C64.5888 59.6609 63.4732 60.0921 62.2944 60.1266C61.1155 60.1554 59.8447 59.6781 59.3099 58.7005C60.3335 60.5809 54.9971 64.2842 53.6745 65.1928C53.2777 65.4688 52.8522 65.7391 52.3634 65.8196C51.8804 65.9058 51.3111 65.7621 51.058 65.371C50.6383 64.727 51.2191 63.8069 50.7935 63.1686C50.3737 64.2727 49.7469 65.1065 48.9821 65.8483C48.3668 66.4406 47.6595 66.9754 46.889 67.5447C46.3024 67.976 40.9373 70.3279 40.9258 70.3854C41.0005 70.0289 41.1098 69.6839 41.2421 69.3388C43.5307 68.2578 45.7389 66.9984 47.5158 65.348C48.0678 64.8362 48.5796 64.2842 49.0339 63.6919C49.7757 62.7258 50.4025 61.9955 51.6331 61.5585C51.9379 61.4492 52.3174 61.3745 52.5762 61.57C53.3122 62.122 52.3519 64.428 54.2898 63.0249C55.7159 61.9955 56.8717 60.6269 57.5963 59.0916L57.8896 58.1427C58.0046 57.5677 58.1828 56.9236 58.7291 56.6419C59.0741 56.4636 59.5112 56.4751 59.885 56.6016C60.437 56.7799 60.7073 57.1422 61.15 57.4239C61.6273 57.723 62.2369 57.8322 62.7947 57.7115C62.4496 57.6482 62.3116 57.2629 62.2656 56.9352C62.1564 56.1013 62.3979 55.3423 62.4151 54.52C62.4266 53.9449 62.3231 53.4216 62.4209 52.8408C62.6912 51.2135 63.318 49.5286 64.2208 48.114C64.4968 47.677 64.9051 47.0157 65.5319 47.2629C65.9172 47.4124 65.9344 48.1312 66.4634 48.0852C66.5727 48.0737 66.6705 48.022 66.7625 47.9702C69.4019 46.3831 69.9597 42.9788 70.4255 40.3336C70.5808 39.4481 70.8223 38.436 70.7418 37.5389C70.667 36.6706 70.1035 35.9058 70.0862 35.026C70.0747 34.3359 71.7078 34.8707 72.1104 34.7845C72.1794 34.7672 72.2599 34.7442 72.2944 34.681C72.3289 34.6177 72.3116 34.5487 72.2944 34.4797C72.0874 33.7667 71.5296 33.2204 71.2191 32.5533C70.8453 31.7598 70.5002 30.9432 70.3565 30.0806C70.3047 29.7759 70.207 29.3906 70.4542 29.1318C70.5347 29.0455 71.6963 28.7753 71.6733 28.7408C70.6785 27.1939 69.8562 25.5493 69.2122 23.8529C68.6314 22.3118 68.5394 20.6614 67.9183 19.1433C67.5273 18.1887 66.9235 17.3147 66.1529 16.5844C65.8654 16.3083 65.5376 16.0323 65.4456 15.6585C65.2099 14.6695 66.8545 15.026 66.8257 14.1289C66.82 13.9967 66.6762 13.9162 66.544 13.8472C65.6009 13.3814 65.1753 12.5303 64.4163 11.9323C63.6227 11.3055 62.8924 10.7764 62.2944 9.95987C62.2081 9.84486 62.1276 9.7241 62.0471 9.60909C61.8344 9.28707 59.5687 5.12375 60.5808 5.12375C59.7987 5.11225 59.0339 4.77298 58.5048 4.23819C58.2921 4.02542 57.8493 3.43888 57.8435 3.02485C57.8378 2.84658 57.9183 2.69707 58.1368 2.62232C58.5279 2.49006 59.9712 3.14561 60.4485 3.20311C61.4146 3.31237 62.3979 3.27212 63.3525 3.08235C63.4962 3.0536 63.6572 3.02485 63.7837 3.09385C64.4278 3.46188 63.433 4.70397 63.1224 4.95699C62.9384 5.1065 62.7257 5.23876 62.5704 5.41703C62.4496 5.55504 62.3864 5.71605 62.3749 5.91156C62.3749 5.91156 62.3749 5.91156 62.3749 5.91731C62.2426 7.71145 66.4634 11.5987 67.3375 12.6051C69.0109 14.543 71.0753 16.3428 73.6342 17.0329C73.6802 17.0502 73.732 17.0617 73.7837 17.0732C72.8637 17.6884 71.8688 18.2002 70.828 18.6028C70.7993 18.6143 70.7705 18.6258 70.7418 18.6373C72.2886 20.4199 73.1052 22.6856 73.41 24.9627C73.5882 26.2796 73.7262 27.6597 73.8297 28.9765C73.847 29.2066 73.8527 29.4366 73.8585 29.6666C73.8643 30.6729 73.7435 31.6677 73.7262 32.6741V32.7603C73.7205 33.2951 73.7435 33.8299 73.8355 34.3762C74.1575 36.2911 74.9453 38.1657 76.2967 39.6378C76.3197 39.6551 76.3542 39.6896 76.3829 39.7184Z" fill="#3F140A"/>
</g>
<path opacity="0.7" d="M34.3764 34.9799H34.2499V34.9741C34.2901 34.9741 34.3361 34.9799 34.3764 34.9799Z" fill="#B5A897"/>
<path opacity="0.7" d="M34.3764 34.9799H34.2499V34.9741C34.2901 34.9741 34.3361 34.9799 34.3764 34.9799Z" fill="#B5A897"/>
<g opacity="0.15">
<path d="M9.50545 25.4399C10.1207 23.8011 10.8568 22.2082 11.7366 20.6786C13.364 17.8494 15.5031 15.2502 18.1368 13.1685C20.8568 11.0179 24.2036 9.68376 27.5848 8.66593C30.5175 7.78611 33.6515 7.25132 36.6877 7.83787C39.6895 8.41866 42.6567 9.55725 45.7734 9.28698C48.2001 9.07996 50.598 8.60843 53.0247 9.02821C55.5089 9.45374 57.8781 10.4428 59.8735 11.8862C60.4083 12.2772 60.9546 12.7545 61.0523 13.3755C60.0977 13.3525 59.1432 13.3295 58.1886 13.3065C58.0218 13.3008 57.8436 13.3008 57.6883 13.364C57.2225 13.5595 57.2628 14.2438 57.6423 14.5659C58.0161 14.8879 58.5624 14.9569 59.0627 15.0374C61.4376 15.4284 63.0822 16.4003 64.5543 18.1714C66.6532 20.6901 68.1944 23.6113 69.0512 26.6993C69.3904 27.9299 69.6262 29.2295 69.2927 30.4601C69.1662 30.9259 68.7694 31.4606 68.2806 31.3169C68.0448 31.2479 67.9011 31.0409 67.7573 30.8568C67.2168 30.1495 66.0322 28.8039 65.9459 30.3393C65.8942 31.2939 66.4577 32.1737 66.8027 33.042C67.1765 33.9908 67.4238 34.9914 67.5791 35.992C67.9183 38.1886 67.7803 40.4543 67.165 42.5992C66.7682 43.9851 66.0667 45.4342 64.6923 46.084C63.9965 45.7275 64.3531 44.7384 63.5998 44.4336C62.973 44.1806 62.3289 44.7039 61.9781 45.1179C61.2651 45.9632 61.3168 47.0156 60.9488 47.9989C60.5865 48.9592 60.115 49.885 59.54 50.7533C58.4244 52.4555 56.9293 53.9391 55.1696 55.0719C52.0701 57.0673 48.1656 57.9471 44.4336 57.4871C43.6285 58.8212 42.5474 60.0173 41.2708 60.9834C40.8913 61.2709 40.4773 61.5469 39.9942 61.6274C39.3502 61.7309 38.7119 61.4721 38.1426 61.1731C35.0661 59.5515 32.9615 56.7568 30.5635 54.3359C30.391 54.1633 30.2013 53.9793 29.9482 53.9506C29.5055 53.8931 29.1719 54.3244 29.0339 54.7211C28.4071 56.521 29.5055 58.4474 29.3904 60.3393C29.3789 60.5348 29.3502 60.7361 29.2237 60.8913C28.8959 61.3054 28.2001 61.1271 27.7056 60.8913C22.6797 58.4992 18.6429 54.3531 16.567 49.4652C16.3945 49.0627 16.1644 48.5969 15.7044 48.5222C14.9511 48.4014 14.6233 49.3962 13.9908 49.8045C13.3582 50.2128 12.4267 49.9368 11.9321 49.3847C11.4376 48.8384 11.2651 48.0966 11.1271 47.3951C10.3278 43.2433 10.1437 38.9937 10.5865 34.7959C9.31569 35.4112 8.32661 36.5153 7.89533 37.7861C6.93501 36.9408 7.02126 35.5204 7.21678 34.3071C7.71707 31.2996 8.42437 28.3037 9.50545 25.4399Z" fill="#AF6127"/>
</g>
<path d="M38.994 53.2202C37.1481 53.2202 35.3597 52.973 33.2378 52.5992C28.925 51.8401 24.4569 50.8166 21.0239 48.4819C15.0664 44.4278 13.0653 38.4934 15.2447 31.3226C16.113 28.4589 18.5799 23.088 20.9491 20.4485C21.5127 19.8217 22.1165 19.2467 22.7375 18.7349C22.749 18.7234 22.7605 18.7119 22.7778 18.7062C23.8128 17.8608 24.9629 17.1478 26.1878 16.5842C29.6495 14.9914 33.4333 14.6636 38.0509 14.6636H38.9595H39.753C40.8629 14.6636 41.8289 14.6809 42.7088 14.7211C46.0843 14.8706 48.718 15.3824 50.9951 16.3197C52.4385 16.912 53.7726 17.6998 54.9572 18.6602C55.6185 19.1892 56.251 19.793 56.8376 20.4485C59.2412 23.1282 61.5127 28.2634 62.3637 31.0581C63.4276 34.5601 63.5483 37.7918 62.7203 40.6556C62.5305 41.3169 62.2832 41.9667 61.99 42.5935C61.7829 43.0305 61.5472 43.4675 61.2769 43.893C60.9721 44.3876 60.6213 44.8764 60.2303 45.3479C59.2872 46.498 58.1084 47.5561 56.7283 48.4934C54.0314 50.3278 50.5983 51.2881 47.6024 51.9839C44.7847 52.6337 42.6052 53.0017 40.5236 53.1685C40.0348 53.1972 39.5173 53.2202 38.994 53.2202Z" fill="#F2BB33"/>
<path d="M39.753 15.2329C40.7364 15.2329 41.7139 15.2501 42.6858 15.2904C45.515 15.4169 48.2464 15.8022 50.7766 16.8488C52.1165 17.4008 53.3931 18.1311 54.6007 19.1029C55.2332 19.6147 55.837 20.184 56.4178 20.8281C58.6317 23.2893 60.9089 28.2174 61.8174 31.2191C62.749 34.2841 63.0365 37.4871 62.174 40.4888C61.9957 41.1156 61.7599 41.7309 61.4724 42.3404C61.2769 42.7602 61.0469 43.1742 60.7939 43.5825C60.5006 44.0598 60.1671 44.5256 59.7933 44.9741C58.9077 46.0552 57.7921 47.073 56.412 48.0104C53.7783 49.7987 50.4603 50.7246 47.4759 51.4146C45.1584 51.9494 42.8295 52.3979 40.4833 52.5877C39.9831 52.628 39.4828 52.6452 38.994 52.6452C37.0963 52.6452 35.2505 52.3692 33.3413 52.0357C29.4368 51.3514 24.8077 50.3623 21.3517 48.0104C14.7387 43.5078 14.0199 37.3548 15.8025 31.4894C16.7053 28.5049 19.1722 23.295 21.3862 20.8281C21.9382 20.2185 22.5132 19.6665 23.1113 19.1719C23.117 19.1719 23.117 19.1719 23.117 19.1719C24.1694 18.3036 25.2792 17.6308 26.435 17.1018C29.9946 15.4629 33.9681 15.2329 38.0567 15.2329C38.3212 15.2329 38.5857 15.2329 38.8502 15.2329H38.971C39.224 15.2329 39.4885 15.2329 39.753 15.2329ZM39.753 14.0828C39.4828 14.0828 39.2183 14.0828 38.948 14.0886H38.8387C38.58 14.0886 38.3154 14.0886 38.0452 14.0886C33.3528 14.0886 29.5 14.4221 25.9463 16.061C24.6869 16.6418 23.5023 17.3721 22.4327 18.2461C22.4155 18.2576 22.3925 18.2749 22.3752 18.2864C21.7312 18.8154 21.1044 19.4135 20.5236 20.0633C18.0969 22.766 15.5782 28.2404 14.6927 31.1558C12.4385 38.5911 14.5144 44.7499 20.7019 48.9592C24.2269 51.3571 28.764 52.3979 33.14 53.1685C35.285 53.548 37.1078 53.7953 38.994 53.7953C39.5288 53.7953 40.0636 53.7723 40.5811 53.732C42.6858 53.5595 44.8939 53.1915 47.7404 52.5359C50.7939 51.8286 54.2901 50.8453 57.0618 48.9592C58.4822 47.9931 59.7013 46.8948 60.6846 45.7044C61.0871 45.2156 61.4552 44.7039 61.7772 44.1863C62.0532 43.7435 62.3062 43.2835 62.519 42.8292C62.8238 42.1852 63.0825 41.5009 63.2838 40.8108C64.1406 37.8378 64.0199 34.5026 62.9273 30.8913C62.0647 28.0506 59.7473 22.812 57.2804 20.069C56.6708 19.3905 56.0153 18.7694 55.331 18.2174C54.1004 17.2225 52.7203 16.406 51.2252 15.7907C48.8847 14.8246 46.1935 14.3071 42.749 14.1518C41.8462 14.1001 40.8744 14.0828 39.753 14.0828Z" fill="#AF6127"/>
<g opacity="0.19">
<path d="M25.2962 48.0851C21.1731 45.2789 18.9075 40.8626 18.9592 35.9172C18.9937 32.6855 19.8563 29.7067 20.5751 26.5727C20.7361 25.8654 21.7367 23.318 20.7821 22.9787C18.6199 22.2082 16.1875 30.2013 15.7965 31.4894C14.0138 37.3548 14.7327 43.5135 21.3456 48.0104C24.3934 50.0863 27.4239 50.7303 30.9949 51.4146C29.9885 51.2133 27.3779 49.494 25.2962 48.0851Z" fill="#CE7730"/>
</g>
<g opacity="0.19">
<path d="M52.3813 48.0851C56.5044 45.2789 58.77 40.8626 58.7183 35.9172C58.6838 32.6855 57.8212 29.7067 57.1024 26.5727C56.9414 25.8654 55.9408 23.318 56.8954 22.9787C59.0575 22.2082 61.49 30.2013 61.881 31.4894C63.6636 37.3548 62.9448 43.5135 56.3318 48.0104C53.2841 50.0863 50.2536 50.7303 46.6826 51.4146C47.6947 51.2133 50.3054 49.494 52.3813 48.0851Z" fill="#CE7730"/>
</g>
<g opacity="0.15">
<path d="M23.8474 65.3882C25.1182 66.2795 26.5501 67.0558 28.1257 67.2283C28.4477 67.2628 28.856 67.2283 28.971 66.9465C29.0285 66.8028 28.9825 66.636 28.9308 66.4922C28.396 65.1006 27.0676 64.1403 25.86 63.1742C22.1223 60.184 19.0918 56.4347 17.0389 52.2599C16.5616 51.2881 15.0377 50.5865 15.3483 52.1392C15.5898 53.3525 15.9291 54.5831 16.3603 55.7504C17.2574 58.1714 18.649 60.437 20.4316 62.3864C21.4552 63.502 22.5938 64.5083 23.8474 65.3882Z" fill="#AF6127"/>
</g>
<g opacity="0.15">
<path d="M31.4837 60.5864C31.4434 60.3162 31.4147 60.0344 31.5124 59.7756C31.6102 59.5169 31.8574 59.2868 32.1507 59.2926C32.4325 59.2983 32.6568 59.5054 32.8523 59.7009C34.5889 61.472 36.1703 63.3696 37.5906 65.3708C38.3497 66.4461 39.0915 67.6192 39.0857 68.9073C39.0857 69.5226 38.8385 70.2069 38.2347 70.4542C37.2168 70.8682 36.3945 69.9251 35.9115 69.2523C35.2905 68.384 34.5141 67.625 33.9046 66.7336C32.6338 64.8763 31.7942 62.7658 31.4837 60.5864Z" fill="#AF6127"/>
</g>
<path d="M38.896 58.4129C37.4124 58.4129 35.9863 57.8551 34.7672 56.797C32.2255 54.5946 30.9891 52.8522 30.9891 51.4779C30.9891 48.2346 34.4624 45.6009 38.735 45.6009C43.0075 45.6009 46.4808 48.2404 46.4808 51.4779C46.4808 52.7717 45.4802 54.3933 43.4158 56.4347C42.1335 57.7113 40.5291 58.4129 38.896 58.4129Z" fill="#F2BB33"/>
<path d="M38.7349 46.176C42.697 46.176 45.9057 48.5509 45.9057 51.4779C45.9057 52.7947 44.5256 54.5256 43.0133 56.0265C41.8057 57.2283 40.3508 57.8321 38.8959 57.8321C37.5906 57.8321 36.2795 57.3433 35.1467 56.36C33.3295 54.7844 31.5641 52.8925 31.5641 51.4779C31.5641 48.5509 34.7729 46.176 38.7349 46.176ZM38.7349 45.0259C34.1461 45.0259 30.4141 47.9183 30.4141 51.4779C30.4141 53.0305 31.7137 54.9109 34.3934 57.2283C35.716 58.3784 37.2743 58.9822 38.8959 58.9822C40.6843 58.9822 42.4325 58.2231 43.8241 56.843C45.9977 54.6866 47.0558 52.927 47.0558 51.4779C47.0558 47.9183 43.3238 45.0259 38.7349 45.0259Z" fill="#AF6127"/>
<path d="M39.0573 54.5486C38.2292 54.5486 37.4184 54.4106 36.6996 54.1461C36.2511 53.9793 35.8256 53.6343 35.4288 53.1282C34.733 52.2254 34.2442 50.9316 34.2442 50.3278C34.2442 48.6602 36.3259 47.3491 38.9883 47.3491C41.645 47.3491 43.7267 48.6544 43.7267 50.3278C43.7267 50.8683 43.3299 52.1794 42.6858 53.088C42.3926 53.502 42.0705 53.801 41.7313 53.9736C40.978 54.3473 40.0521 54.5486 39.0573 54.5486Z" fill="#8A485E"/>
<path d="M38.9883 47.9241C41.2885 47.9241 43.1516 48.9994 43.1516 50.3278C43.1516 50.7591 42.7893 51.9436 42.2143 52.7545C41.9958 53.065 41.7427 53.318 41.4667 53.456C40.7709 53.8068 39.9141 53.9735 39.0573 53.9735C38.304 53.9735 37.5507 53.847 36.9009 53.6055C36.5271 53.4675 36.1821 53.157 35.883 52.7717C35.2332 51.9379 34.8192 50.7648 34.8192 50.322C34.8192 48.9994 36.6824 47.9241 38.9883 47.9241ZM38.9883 46.774C35.9578 46.774 33.6691 48.2979 33.6691 50.3278C33.6691 51.1386 34.2557 52.5532 34.9745 53.479C35.4345 54.0771 35.9521 54.4796 36.4983 54.6866C37.2804 54.9741 38.166 55.1236 39.0573 55.1236C40.1441 55.1236 41.1562 54.8994 41.99 54.4796C42.4098 54.2668 42.8066 53.9103 43.1516 53.4158C43.8359 52.4497 44.2959 51.0408 44.2959 50.3278C44.3017 48.2979 42.013 46.774 38.9883 46.774Z" fill="#AF6127"/>
<path d="M42.2139 52.7488C41.9954 53.0593 41.7424 53.3123 41.4664 53.4504C40.1553 54.1117 38.2921 54.1174 36.8948 53.5999C36.521 53.4619 36.176 53.1513 35.877 52.7661C36.8028 52.5073 37.9069 52.3635 39.0857 52.3635C40.2358 52.3693 41.3054 52.5073 42.2139 52.7488Z" fill="#BA617E"/>
<g opacity="0.53">
<path d="M44.5314 41.2248C44.5314 36.4175 40.7533 27.7171 38.8672 27.7171C36.981 27.7171 32.9902 36.4175 32.9902 41.2248C32.9902 46.0322 35.5779 48.1311 38.7637 48.1311C41.9494 48.1311 44.5314 46.038 44.5314 41.2248Z" fill="#CE7730"/>
</g>
<path opacity="0.2" d="M39.247 30.0403C38.7583 30.184 39.247 31.5814 39.3275 31.8574C40.6386 36.6187 40.3569 41.6964 38.9653 46.4175C38.8388 46.843 38.7008 47.2685 38.557 47.6941C38.5167 47.8148 38.4707 47.9356 38.4305 48.0564C41.1389 47.6481 43.1976 45.5204 43.1976 41.2306C43.1976 41.2133 43.1976 41.1961 43.1976 41.1788C43.1861 39.1777 42.6685 37.165 42.0418 35.2559C41.7082 34.2381 41.3229 33.2317 40.8859 32.2427C40.6904 31.7999 40.0118 29.8102 39.247 30.0403Z" fill="#FFCC90"/>
<path d="M34.3764 42.5244H34.5432C37.0504 42.7832 38.9825 44.4623 38.9825 46.498C38.9825 48.7119 36.1533 51.3514 33.3183 51.3514C30.4834 51.3514 28.7295 48.7119 28.7295 46.498C28.7295 44.2841 31.0239 42.4899 33.8531 42.4899C34.0256 42.4899 34.1982 42.4957 34.3707 42.5129V42.5244H34.3764Z" fill="#EFC99E"/>
<path d="M49.3448 46.498C49.3448 48.7119 47.5852 51.3514 44.756 51.3514C41.9268 51.3514 39.0918 48.7119 39.0918 46.498C39.0918 44.2841 41.3862 42.4899 44.2154 42.4899C47.0446 42.4842 49.3448 44.2841 49.3448 46.498Z" fill="#EFC99E"/>
<g opacity="0.2">
<path d="M38.9825 46.498C38.9825 46.59 38.9768 46.6763 38.9653 46.7683C38.603 45.0374 36.8261 43.6803 34.5892 43.4503H34.4224V43.433C34.2499 43.4215 34.0774 43.41 33.9049 43.41C31.1619 43.41 28.925 45.0949 28.787 47.2168C28.7467 46.9753 28.7295 46.7338 28.7295 46.498C28.7295 44.2841 31.0239 42.4842 33.8531 42.4842C34.0256 42.4842 34.1982 42.4899 34.3707 42.5072V42.5244H34.5374C37.0504 42.7832 38.9825 44.4623 38.9825 46.498Z" fill="white"/>
<path d="M49.3448 46.498C49.3448 46.5957 49.3391 46.6935 49.3333 46.7913C48.948 44.8764 46.8261 43.41 44.2672 43.41C41.5702 43.41 39.3621 45.0431 39.1608 47.1133C39.1148 46.9063 39.0918 46.6993 39.0918 46.498C39.0918 44.2841 41.3862 42.4842 44.2154 42.4842C47.0446 42.4842 49.3448 44.2841 49.3448 46.498Z" fill="white"/>
</g>
<path d="M38.1832 45.7217C38.695 46.2105 38.9882 46.797 38.9882 47.4238C38.9882 49.1719 36.159 51.2478 33.3241 51.2478C30.4891 51.2478 28.7352 49.1662 28.7352 47.4238" stroke="#AF6127" stroke-width="2" stroke-miterlimit="10" stroke-linecap="round" stroke-linejoin="round"/>
<path d="M49.3448 47.4238C49.3448 49.1719 47.5852 51.2478 44.756 51.2478C41.9268 51.2478 39.0918 49.1662 39.0918 47.4238C39.0918 46.797 39.3851 46.2162 39.8969 45.7217" stroke="#AF6127" stroke-width="2" stroke-miterlimit="10" stroke-linecap="round" stroke-linejoin="round"/>
<path d="M44.5317 43.4388C44.5317 45.1236 40.7537 48.1656 38.8675 48.1656C36.9814 48.1656 32.9963 45.1179 32.9963 43.4388C32.9963 41.7539 35.5783 41.0236 38.764 41.0236C41.9498 41.0236 44.5317 41.7596 44.5317 43.4388Z" fill="#3A1D05"/>
<path d="M24.4167 21.2248C24.0659 21.2823 23.7036 21.1846 23.3529 21.1271C22.9963 21.0696 22.5938 21.0753 22.3408 21.2938C22.6283 21.4376 22.8986 21.6159 23.1401 21.8171C23.2436 21.9034 23.3414 22.0012 23.3816 22.1162C23.4276 22.2312 23.3989 22.3807 23.2781 22.4439C23.0768 22.5589 22.7548 22.3749 22.5766 22.5129C22.4846 22.5819 22.4788 22.7142 22.5248 22.8235C22.5708 22.927 22.6571 23.0132 22.7318 23.1052C23.2149 23.6975 23.1459 24.5256 22.7606 25.1466C22.7203 25.2099 22.6743 25.2789 22.6226 25.3364C22.2833 25.7792 21.7657 26.1242 21.1735 26.2335C21.0872 26.2507 20.9952 26.2622 20.9032 26.268C20.6674 26.2852 20.4546 26.2622 20.2591 26.2047C19.7301 26.061 19.2356 25.7159 18.8215 25.3709C18.4305 25.0431 17.982 24.8016 17.6082 24.4451C16.8261 23.6918 16.3086 22.7142 15.8543 21.7424C15.1643 20.2703 14.549 18.6659 14.7962 17.0558C14.9055 16.3255 15.193 15.6297 15.5265 14.9741C15.7738 14.4796 16.0613 13.9908 16.4408 13.5883C16.5041 13.525 16.5674 13.4675 16.6306 13.4215C16.9009 13.2375 17.2057 13.2202 17.5737 13.2835C18.465 13.4388 19.2586 13.9908 20.0004 14.4738C21.1044 15.1869 22.0648 16.084 22.9906 17.0098C23.6289 17.6481 24.3362 18.2691 24.7502 19.0454C25.0895 19.6205 25.4575 21.0408 24.4167 21.2248Z" fill="#F8A999"/>
<g opacity="0.48">
<path d="M21.1849 26.2277C21.0987 26.245 21.0067 26.2565 20.9147 26.2622C20.6789 26.2795 20.4661 26.2565 20.2706 26.199C19.7416 26.0552 19.247 25.7102 18.833 25.3652C18.442 25.0374 17.9934 24.7959 17.6197 24.4393C16.8376 23.686 16.3201 22.7085 15.8658 21.7366C15.1757 20.2645 14.5604 18.6601 14.8077 17.05C14.917 16.3197 15.2045 15.6239 15.538 14.9684C15.7853 14.4738 16.0728 13.985 16.4523 13.5825C16.5156 13.5193 16.5788 13.4618 16.6421 13.4158C16.6651 13.4158 16.6823 13.4158 16.7053 13.4215C16.5271 13.5135 16.3833 13.6688 16.2166 13.9103C15.8773 14.4048 15.6875 14.9914 15.5668 15.5722C15.2217 17.2455 15.3942 19.0167 15.9808 20.621C16.5673 22.2312 17.5679 23.6745 18.8158 24.8419C19.27 25.2674 19.7646 25.6642 20.3396 25.9057C20.6329 26.0265 20.9089 26.1012 21.1849 26.2277Z" fill="#FFC6BD"/>
</g>
<path d="M21.5296 26.1357C21.9723 25.9747 22.3576 25.6872 22.6279 25.3364C22.6796 25.2732 22.7199 25.2042 22.7659 25.1409C23.1512 24.5199 23.2144 23.6918 22.7314 23.0995C22.6566 23.0075 22.5704 22.9212 22.5244 22.8177C22.4784 22.7142 22.4841 22.582 22.5761 22.513C22.7544 22.375 23.0764 22.559 23.2777 22.444C23.3927 22.3807 23.4215 22.2369 23.3812 22.1219C23.3352 22.0012 23.2374 21.9092 23.1397 21.8229C22.8982 21.6217 22.6279 21.4376 22.3346 21.2939C22.5876 21.0754 22.9902 21.0754 23.3467 21.1329C23.6975 21.1904 24.0597 21.2881 24.4048 21.2306C25.3593 21.0639 25.1293 19.862 24.8476 19.2122C24.8131 19.1375 24.7843 19.08 24.7613 19.0397C24.3473 18.2634 23.64 17.6424 23.0017 17.0041C22.8867 16.889 22.7717 16.774 22.6566 16.659C22.5359 16.544 22.4209 16.429 22.3059 16.3198C22.1851 16.2047 22.0701 16.0955 21.9493 15.9862C21.8286 15.877 21.7078 15.7677 21.5813 15.6585C21.334 15.4457 21.081 15.2387 20.8223 15.0374C20.5347 14.8189 20.2357 14.6061 19.9252 14.4106C19.7584 14.3071 19.5859 14.2036 19.4077 14.1001C19.0684 13.9103 18.7176 13.7321 18.3438 13.594C18.1138 13.5135 17.8723 13.4445 17.6308 13.4503C17.1305 13.456 16.6992 13.7551 16.4404 14.1288C22.5934 16.3543 22.6624 23.9678 21.5296 26.1357Z" fill="#DE9F99"/>
<path d="M21.5296 26.1357C21.9723 25.9747 22.3576 25.6872 22.6279 25.3364C22.6796 25.2732 22.7199 25.2042 22.7659 25.1409C23.1512 24.5199 23.2144 23.6918 22.7314 23.0995C22.6566 23.0075 22.5704 22.9212 22.5244 22.8177C22.4784 22.7142 22.4841 22.582 22.5761 22.513C22.7544 22.375 23.0764 22.559 23.2777 22.444C23.3927 22.3807 23.4215 22.2369 23.3812 22.1219C23.3352 22.0012 23.2374 21.9092 23.1397 21.8229C22.8982 21.6217 22.6279 21.4376 22.3346 21.2939C22.5876 21.0754 22.9902 21.0754 23.3467 21.1329C23.6975 21.1904 24.0597 21.2881 24.4048 21.2306C25.3593 21.0639 25.1293 19.862 24.8476 19.2122C24.8131 19.1375 24.7843 19.08 24.7613 19.0397C24.3473 18.2634 23.64 17.6424 23.0017 17.0041C22.8867 16.889 22.7717 16.774 22.6566 16.659C22.5359 16.544 22.4209 16.429 22.3059 16.3198C22.1851 16.2047 22.0701 16.0955 21.9493 15.9862C21.8286 15.877 21.7078 15.7677 21.5813 15.6585C21.334 15.4399 21.0868 15.2329 20.8223 15.0374C20.5347 14.8189 20.2357 14.6061 19.9252 14.4106C19.7584 14.3071 19.5859 14.2036 19.4077 14.1001C19.0684 13.9103 18.7176 13.7321 18.3438 13.594C18.1138 13.5135 17.8723 13.4445 17.6308 13.4503C17.1305 13.456 16.6992 13.7551 16.4404 14.1288C22.5934 16.3543 22.6624 23.9678 21.5296 26.1357Z" fill="#E89B8E"/>
<path d="M16.7797 13.4964C16.7739 13.5251 16.7854 13.5596 16.8314 13.5999C16.9695 13.7149 17.2052 13.7781 17.372 13.8357C19.1201 14.474 20.7015 15.4688 21.9953 16.6936C22.7371 17.3952 23.4617 18.1312 23.9735 18.9765C24.3012 19.5171 25.1408 21.0869 24.0597 21.3342C24.353 21.5757 24.813 21.4032 25.1293 21.2135C25.6123 20.9202 26.2449 20.5349 26.6187 20.1324C26.9522 19.7758 26.9982 19.2296 26.958 18.7638C26.9349 18.5223 26.9464 18.3152 26.8487 18.0852C26.7452 17.838 26.5957 17.6079 26.4232 17.4009C26.1701 17.0961 25.8769 16.8374 25.5721 16.5844C25.3593 16.4061 25.1408 16.2278 24.9223 16.0553C24.7613 15.9288 24.6003 15.8081 24.4335 15.6815C23.6745 15.118 22.8521 14.497 21.9781 14.1117C21.0868 13.7206 20.1437 13.4101 19.2064 13.1629C18.9188 13.0881 18.5508 12.9443 18.2633 12.9903C17.8435 13.0593 17.4352 13.1801 17.0385 13.3354C16.9522 13.3814 16.8027 13.4274 16.7797 13.4964Z" fill="#F2BB33"/>
<path d="M27.1428 17.9701C27.1428 17.9701 19.8513 10.8108 16.723 13.479C13.5948 16.1472 14.5379 22.3175 19.0635 25.8195" stroke="#AF6127" stroke-width="2" stroke-miterlimit="10" stroke-linecap="round" stroke-linejoin="round"/>
<path opacity="0.2" d="M20.8859 15.2961C21.4782 15.6987 22.0475 16.13 22.5995 16.5842C23.4851 17.3203 24.2441 18.1829 24.9744 19.0627C25.2045 19.3387 25.653 19.9943 26.067 19.563C26.4293 19.1892 25.8428 18.5911 25.5955 18.3266C24.7617 17.4238 23.9221 16.521 22.956 15.7619C22.3752 15.3019 21.7485 14.8994 21.0699 14.5946C20.8744 14.5083 19.9313 14.0081 19.7646 14.3876C19.6495 14.6924 20.6789 15.1581 20.8859 15.2961Z" fill="#FFCC90"/>
<path d="M52.4673 21.2249C52.8123 21.2824 53.1746 21.1847 53.5311 21.1272C53.8876 21.0697 54.2902 21.0754 54.5432 21.2882C54.2499 21.432 53.9854 21.6102 53.7439 21.8172C53.6404 21.9035 53.5426 22.0012 53.5023 22.1163C53.4621 22.2313 53.4908 22.3808 53.6059 22.444C53.8071 22.559 54.1291 22.3693 54.3074 22.513C54.3994 22.582 54.4052 22.7143 54.3592 22.8236C54.3132 22.9271 54.2269 23.0133 54.1521 23.1053C53.6691 23.6976 53.7381 24.5257 54.1234 25.1467C54.1636 25.21 54.2096 25.279 54.2614 25.3422C54.6582 25.8483 55.2792 26.2278 55.975 26.2681C56.2108 26.2853 56.4236 26.2623 56.6191 26.2048C56.9239 26.1186 57.2114 25.9633 57.4816 25.7908C57.7232 25.6355 57.9762 25.5378 58.2234 25.394C58.7352 25.1007 59.155 24.6694 59.5288 24.2209C60.5639 22.9846 61.3344 21.5125 61.6967 19.9426C62.0647 18.3727 62.0187 16.6936 61.5012 15.164C61.3229 14.6292 61.0757 14.1059 60.7019 13.6804C60.3626 13.2951 60.1268 13.1801 59.6381 13.2376C58.5915 13.3641 57.7347 13.9046 56.8606 14.4682C55.7565 15.1812 54.7962 16.0783 53.8704 17.0041C53.2321 17.6424 52.5248 18.2635 52.1107 19.0398C51.8002 19.6206 51.4264 21.0409 52.4673 21.2249Z" fill="#F8A999"/>
<g opacity="0.48">
<path d="M61.6959 19.9368C61.3279 21.5067 60.5574 22.9788 59.528 24.2152C59.1542 24.6637 58.7345 25.095 58.2227 25.3882C57.9754 25.532 57.7224 25.6298 57.4809 25.785C57.2164 25.9575 56.9288 26.1128 56.6183 26.1991C56.4285 26.2508 56.2158 26.2738 55.9743 26.2623C55.8765 26.2566 55.7845 26.2451 55.6982 26.2278C55.7327 26.2221 55.7672 26.2106 55.8018 26.2048C56.1123 26.1186 56.394 25.9633 56.6643 25.7908C56.9058 25.6355 57.1589 25.5378 57.4061 25.394C57.9179 25.1007 58.3377 24.6694 58.7115 24.2209C59.7465 22.9846 60.5171 21.5125 60.8794 19.9426C61.2474 18.3727 61.2014 16.6936 60.6896 15.164C60.5114 14.6349 60.2641 14.1059 59.8903 13.6804C59.7063 13.4734 59.5568 13.3468 59.3785 13.2778C59.4648 13.2606 59.551 13.2491 59.643 13.2376C60.1318 13.1801 60.3733 13.2951 60.7069 13.6804C61.0806 14.1059 61.3279 14.6292 61.5062 15.164C62.018 16.6936 62.0582 18.367 61.6959 19.9368Z" fill="#FFC6BD"/>
</g>
<path d="M55.3536 26.1357C54.9108 25.9747 54.5256 25.6872 54.2553 25.3364C54.2035 25.2732 54.1633 25.2042 54.1173 25.1409C53.732 24.5199 53.6687 23.6918 54.1518 23.0995C54.2265 23.0075 54.3128 22.9213 54.3588 22.8177C54.4048 22.7142 54.3991 22.582 54.307 22.513C54.1288 22.375 53.8068 22.559 53.6055 22.444C53.4905 22.3807 53.4617 22.237 53.502 22.1219C53.548 22.0012 53.6457 21.9092 53.7435 21.8229C53.985 21.6217 54.2553 21.4376 54.5486 21.2939C54.2955 21.0754 53.893 21.0754 53.5365 21.1329C53.1857 21.1904 52.8234 21.2881 52.4784 21.2306C51.5238 21.0639 51.7538 19.862 52.0356 19.2122C52.0701 19.1375 52.0989 19.08 52.1219 19.0397C52.5359 18.2634 53.2432 17.6424 53.8815 17.0041C53.9965 16.8891 54.1115 16.774 54.2265 16.659C54.3473 16.544 54.4623 16.429 54.5773 16.3198C54.6981 16.2048 54.8131 16.0955 54.9338 15.9862C55.0546 15.877 55.1754 15.7677 55.3019 15.6585C55.5491 15.4399 55.7964 15.2329 56.0609 15.0374C56.3484 14.8189 56.6475 14.6061 56.958 14.4106C57.1248 14.3071 57.2973 14.2036 57.4755 14.1001C57.8148 13.9103 58.1656 13.7321 58.5394 13.5941C58.7694 13.5135 59.0109 13.4445 59.2524 13.4503C59.7527 13.456 60.184 13.7551 60.4428 14.1288C54.2898 16.3543 54.2208 23.9678 55.3536 26.1357Z" fill="#E89B8E"/>
<path d="M55.6474 16.1358C55.5266 16.2163 55.4059 16.3026 55.2909 16.3888C54.296 17.1307 53.2955 18.114 52.7549 19.2411C52.4846 19.7989 51.8061 21.11 52.8182 21.34C52.3984 21.685 51.7716 21.248 51.4266 21.0007C51.2253 20.8569 50.9895 20.7592 50.8055 20.5924C50.61 20.4141 50.449 20.1956 50.2995 19.9771C50.081 19.6551 49.874 19.3043 49.8279 18.9133C49.7992 18.666 49.8394 18.413 49.8912 18.1657C49.9775 17.7862 50.1385 17.2629 50.4892 17.0386C50.6273 16.9524 50.771 16.9179 50.909 16.8144C51.0988 16.6764 51.2771 16.5154 51.4668 16.3716C52.2431 15.7793 53.0539 15.2388 53.882 14.727C54.4685 14.3647 55.0551 13.9622 55.6704 13.6516C56.2512 13.3584 56.9642 13.2204 57.591 13.0651C57.8498 13.0018 58.1086 12.9443 58.3731 12.9443C58.6606 12.9443 58.9481 13.0191 59.2241 13.0938C59.5347 13.1801 59.8567 13.2721 60.0867 13.4964C60.1615 13.5711 60.2247 13.6746 60.196 13.7781" fill="#F2BB33"/>
<path d="M49.7412 17.9701C49.7412 17.9701 57.0328 10.8108 60.161 13.479C63.2892 16.1472 62.3462 22.3175 57.8206 25.8195" stroke="#AF6127" stroke-width="2" stroke-miterlimit="10" stroke-linecap="round" stroke-linejoin="round"/>
<path opacity="0.2" d="M55.8431 15.2961C55.2508 15.6986 54.6815 16.1299 54.1295 16.5842C53.2439 17.3203 52.4849 18.1828 51.7546 19.0626C51.5245 19.3387 51.076 19.9942 50.662 19.5629C50.2997 19.1892 50.8862 18.5911 51.1335 18.3266C51.9673 17.4238 52.8069 16.521 53.773 15.7619C54.3538 15.3019 54.9806 14.8993 55.6591 14.5946C55.8546 14.5083 56.7977 14.008 56.9645 14.3875C57.0852 14.6923 56.0501 15.1581 55.8431 15.2961Z" fill="#FFCC90"/>
<path d="M49.4317 38.7751C46.9648 38.7751 44.9521 36.7682 44.9521 34.2955C44.9521 31.8286 46.959 29.8159 49.4317 29.8159C51.9044 29.8159 53.9113 31.8228 53.9113 34.2955C53.9056 36.7682 51.8987 38.7751 49.4317 38.7751Z" fill="white"/>
<path d="M49.4257 30.3967C51.5821 30.3967 53.3303 32.1448 53.3303 34.3012C53.3303 36.4576 51.5821 38.2058 49.4257 38.2058C47.2693 38.2058 45.5212 36.4576 45.5212 34.3012C45.5269 32.1448 47.2751 30.3967 49.4257 30.3967ZM49.4257 29.2466C46.6368 29.2466 44.3711 31.5123 44.3711 34.3012C44.3711 37.0902 46.6368 39.3558 49.4257 39.3558C52.2147 39.3558 54.4803 37.0902 54.4803 34.3012C54.4803 31.5123 52.2147 29.2466 49.4257 29.2466Z" fill="#AF6127"/>
<path d="M28.4765 38.7752C26.0095 38.7752 23.9969 36.7683 23.9969 34.2956C23.9969 31.8286 26.0038 29.816 28.4765 29.816C30.9492 29.816 32.9561 31.8229 32.9561 34.2956C32.9561 36.7683 30.9434 38.7752 28.4765 38.7752Z" fill="white"/>
<path d="M28.4764 30.3968C30.6329 30.3968 32.381 32.1449 32.381 34.3013C32.381 36.4577 30.6329 38.2059 28.4764 38.2059C26.32 38.2059 24.5719 36.4577 24.5719 34.3013C24.5719 32.1449 26.32 30.3968 28.4764 30.3968ZM28.4764 29.2467C25.6875 29.2467 23.4218 31.5124 23.4218 34.3013C23.4218 37.0903 25.6875 39.356 28.4764 39.356C31.2654 39.356 33.5311 37.0903 33.5311 34.3013C33.5311 31.5124 31.2597 29.2467 28.4764 29.2467Z" fill="#AF6127"/>
<path d="M49.3793 37.0098C50.8751 37.0098 52.0877 35.7972 52.0877 34.3013C52.0877 32.8055 50.8751 31.5929 49.3793 31.5929C47.8835 31.5929 46.6708 32.8055 46.6708 34.3013C46.6708 35.7972 47.8835 37.0098 49.3793 37.0098Z" fill="#2A364D"/>
<path d="M50.5466 34.3013C50.9563 34.3013 51.2884 33.9692 51.2884 33.5595C51.2884 33.1498 50.9563 32.8177 50.5466 32.8177C50.1369 32.8177 49.8048 33.1498 49.8048 33.5595C49.8048 33.9692 50.1369 34.3013 50.5466 34.3013Z" fill="#B0B0B0"/>
<path d="M28.4243 37.0097C29.9201 37.0097 31.1327 35.7971 31.1327 34.3012C31.1327 32.8054 29.9201 31.5928 28.4243 31.5928C26.9284 31.5928 25.7158 32.8054 25.7158 34.3012C25.7158 35.7971 26.9284 37.0097 28.4243 37.0097Z" fill="#2A364D"/>
<path d="M29.5983 34.3012C30.0079 34.3012 30.3401 33.9691 30.3401 33.5594C30.3401 33.1497 30.0079 32.8176 29.5983 32.8176C29.1886 32.8176 28.8564 33.1497 28.8564 33.5594C28.8564 33.9691 29.1886 34.3012 29.5983 34.3012Z" fill="#B0B0B0"/>
<path d="M22.7085 28.5049C23.0593 27.4468 23.7551 26.5325 24.9627 26.1299C26.3083 25.6814 27.6136 25.8079 28.758 26.7107C29.0455 26.9408 29.3273 27.2628 29.2295 27.6941C29.1375 28.1081 28.758 28.2001 28.4129 28.2806C26.8891 28.6371 25.4227 29.1432 23.9851 29.7585C23.6631 29.8965 23.2605 30.138 22.9155 29.7757C22.6107 29.4479 22.5992 29.0397 22.7085 28.5049Z" fill="#AF6127"/>
<path d="M55.078 28.5049C54.7272 27.4468 54.0314 26.5325 52.8238 26.13C51.4782 25.6814 50.1729 25.8079 49.0285 26.7108C48.741 26.9408 48.4592 27.2628 48.557 27.6941C48.649 28.1081 49.0285 28.2001 49.3736 28.2806C50.8974 28.6372 52.3638 29.1432 53.8014 29.7585C54.1234 29.8965 54.5259 30.138 54.871 29.7757C55.1757 29.448 55.193 29.0397 55.078 28.5049Z" fill="#AF6127"/>
</g>
<defs>
<clipPath id="clip0_229_14335">
<rect width="77.5331" height="100" fill="white"/>
</clipPath>
</defs>
</svg>
