<svg width="132" height="48" viewBox="0 0 132 48" fill="none" xmlns="http://www.w3.org/2000/svg">
<path d="M1.96973 46.4617L2.11982 45.2256C2.37354 45.3542 2.71671 45.4677 3.14922 45.5659C3.58161 45.664 3.97846 45.7131 4.33941 45.7131C4.77192 45.7131 5.13298 45.6177 5.42248 45.4266C5.71199 45.2356 5.8568 44.9579 5.8568 44.5935C5.8568 44.4079 5.81297 44.2436 5.72543 44.1009C5.63778 43.958 5.52071 43.8392 5.37421 43.7446C5.2276 43.65 5.05878 43.5626 4.8675 43.4823C4.67634 43.4018 4.47521 43.3251 4.26436 43.2519C4.05351 43.1786 3.8435 43.1001 3.63445 43.0162C3.4254 42.9322 3.22511 42.8286 3.03395 42.7055C2.84279 42.5823 2.67385 42.4412 2.52736 42.2822C2.38074 42.1234 2.26367 41.9234 2.17614 41.6822C2.08848 41.4412 2.04477 41.1708 2.04477 40.8707C2.04477 40.4707 2.12162 40.1198 2.27532 39.8178C2.42901 39.5158 2.63902 39.2783 2.90535 39.1049C3.17156 38.9318 3.46562 38.8023 3.7873 38.7165C4.10886 38.6307 4.45744 38.5879 4.83268 38.5879C5.56333 38.5879 6.23479 38.7416 6.84729 39.049L6.70188 40.2708C6.46546 40.1352 6.16743 40.0228 5.80757 39.9334C5.4477 39.8442 5.1014 39.7996 4.76844 39.7996C4.50379 39.7996 4.26976 39.8327 4.066 39.8986C3.86235 39.9648 3.69424 40.0763 3.56204 40.2335C3.42984 40.3906 3.36368 40.5853 3.36368 40.8173C3.36368 40.9959 3.40739 41.1529 3.49504 41.2887C3.58257 41.4244 3.69965 41.5378 3.84626 41.6289C3.99275 41.7199 4.16074 41.8029 4.35021 41.8778C4.53957 41.9529 4.73974 42.0268 4.95071 42.1002C5.16156 42.1733 5.37265 42.2511 5.58411 42.3331C5.79556 42.4154 5.99632 42.5171 6.18628 42.6385C6.37636 42.7601 6.54483 42.8993 6.69168 43.0565C6.83865 43.2135 6.95608 43.4118 7.04386 43.651C7.13163 43.8901 7.17558 44.1598 7.17558 44.4598C7.17558 44.8106 7.12011 45.1276 7.00916 45.4104C6.89809 45.6932 6.75039 45.9278 6.56608 46.1139C6.38164 46.2999 6.16131 46.4548 5.90531 46.5785C5.64931 46.7019 5.3825 46.7906 5.10501 46.8444C4.82751 46.8979 4.53477 46.9248 4.2269 46.9248C3.84794 46.9248 3.45662 46.8843 3.05268 46.8038C2.64875 46.723 2.28781 46.609 1.96973 46.4617Z" fill="#585C63"/>
<path d="M8.28009 41.0485H9.47508C9.5183 41.377 9.54004 41.7219 9.54004 42.0831H9.5775C10.0267 41.2824 10.6062 40.8822 11.3157 40.8822C11.7194 40.8822 12.0515 40.9976 12.3122 41.2281C12.5729 41.4587 12.7605 41.7758 12.8748 42.1792C13.1066 41.7721 13.3874 41.4542 13.7173 41.2255C14.0472 40.9966 14.3905 40.8822 14.7471 40.8822C15.3221 40.8822 15.7534 41.0967 16.0409 41.5257C16.3285 41.9545 16.4723 42.5319 16.4723 43.2573V46.7368H15.207V43.4418C15.207 42.4824 14.8932 42.0027 14.2658 42.0027C13.8806 42.0027 13.5803 42.1767 13.3645 42.5243C13.1488 42.8722 13.0409 43.308 13.0409 43.8322V46.7368H11.7757V43.4418C11.7757 42.4824 11.4584 42.0027 10.8236 42.0027C10.4243 42.0027 10.1204 42.1748 9.91167 42.5189C9.7031 42.8631 9.59875 43.349 9.59875 43.9768V46.7368H8.33364V42.6515C8.33364 42.1654 8.31575 41.6311 8.28009 41.0485Z" fill="#585C63"/>
<path d="M18.9275 44.9731C18.9275 45.275 19.0184 45.5149 19.2002 45.6927C19.3821 45.8708 19.6228 45.9595 19.9224 45.9595C20.2255 45.9595 20.5018 45.8644 20.7514 45.674C21.0012 45.4834 21.1777 45.2499 21.2811 44.9731C21.1813 44.7037 21.0064 44.4708 20.7568 44.2751C20.5072 44.0792 20.2255 43.9813 19.9117 43.9813C19.6085 43.9813 19.3686 44.0702 19.1921 44.2482C19.0156 44.4261 18.9275 44.6677 18.9275 44.9731ZM18.1903 46.3617C17.8381 46.0151 17.6621 45.5504 17.6621 44.9677C17.6621 44.3852 17.8381 43.9214 18.1903 43.5764C18.5424 43.2316 18.9736 43.0591 19.4838 43.0591C19.8403 43.0591 20.1719 43.1422 20.4786 43.3084C20.7853 43.4746 21.0457 43.7097 21.2597 44.0135V43.1235C21.2597 42.7266 21.1499 42.4247 20.9307 42.2174C20.7113 42.0102 20.4163 41.9064 20.0454 41.9064C19.784 41.9064 19.4768 41.9486 19.1241 42.0324C18.7714 42.1164 18.4661 42.2139 18.2082 42.3246L18.0839 41.2683C18.3346 41.1683 18.673 41.0788 19.0992 41.0003C19.5253 40.9218 19.9014 40.8824 20.2273 40.8824C20.968 40.8824 21.536 41.0799 21.9316 41.4747C22.3271 41.8698 22.5249 42.405 22.5249 43.0805V44.9034C22.5249 45.6935 22.5625 46.3046 22.6375 46.7369H21.3357C21.3174 46.6083 21.2992 46.3331 21.2811 45.9113H21.2705C21.0601 46.2116 20.7979 46.4484 20.4841 46.6216C20.1704 46.795 19.8368 46.8818 19.4838 46.8818C18.9736 46.8818 18.5424 46.7084 18.1903 46.3617Z" fill="#585C63"/>
<path d="M23.9189 41.049H25.1139C25.1572 41.3743 25.1789 41.7156 25.1789 42.0729H25.2111C25.6185 41.2795 26.1313 40.8827 26.7497 40.8827C26.9249 40.8827 27.1125 40.9096 27.3127 40.9631L27.1786 42.1909C26.9785 42.1267 26.7801 42.0944 26.5835 42.0944C26.1403 42.0944 25.8052 42.2632 25.5783 42.6011C25.3513 42.9389 25.2378 43.3955 25.2378 43.9709V46.7373H23.9726V42.652C23.9726 42.1659 23.9546 41.6316 23.9189 41.049Z" fill="#585C63"/>
<path d="M27.7363 42.0942L27.8007 41.0488H28.755V39.2688H29.9827V41.0488H31.3874L31.3124 42.0942H29.9827V44.5137C29.9863 44.9655 30.0382 45.2953 30.1382 45.5032C30.2347 45.7039 30.3937 45.8043 30.6154 45.8043H30.653C30.8245 45.8043 31.0479 45.7594 31.3231 45.6698L31.3981 46.7387C30.8978 46.8627 30.5277 46.9248 30.2883 46.9248C29.7248 46.9248 29.3283 46.7274 29.0989 46.3325C28.8696 45.9375 28.755 45.2968 28.755 44.4103V42.0942H27.7363Z" fill="#585C63"/>
<path d="M35.3125 46.4617L35.4626 45.2256C35.7163 45.3542 36.0595 45.4677 36.492 45.5659C36.9244 45.664 37.3212 45.7131 37.6822 45.7131C38.1147 45.7131 38.4758 45.6177 38.7653 45.4266C39.0549 45.2356 39.1996 44.9579 39.1996 44.5935C39.1996 44.4079 39.1557 44.2436 39.0682 44.1009C38.9806 43.958 38.8635 43.8392 38.717 43.7446C38.5704 43.65 38.4016 43.5626 38.2104 43.4823C38.0191 43.4018 37.8181 43.3251 37.6071 43.2519C37.3963 43.1786 37.1863 43.1001 36.9772 43.0162C36.7682 42.9322 36.5679 42.8286 36.3767 42.7055C36.1856 42.5823 36.0166 42.4412 35.8701 42.2822C35.7235 42.1234 35.6064 41.9234 35.5189 41.6822C35.4314 41.4412 35.3875 41.1708 35.3875 40.8707C35.3875 40.4707 35.4644 40.1198 35.6181 39.8178C35.7718 39.5158 35.9818 39.2783 36.2481 39.1049C36.5143 38.9318 36.8084 38.8023 37.1301 38.7165C37.4516 38.6307 37.8002 38.5879 38.1756 38.5879C38.9061 38.5879 39.5776 38.7416 40.1901 39.049L40.0447 40.2708C39.8082 40.1352 39.5102 40.0228 39.1505 39.9334C38.7906 39.8442 38.4442 39.7996 38.1112 39.7996C37.8466 39.7996 37.6125 39.8327 37.4088 39.8986C37.2051 39.9648 37.037 40.0763 36.9048 40.2335C36.7726 40.3906 36.7065 40.5853 36.7065 40.8173C36.7065 40.9959 36.7502 41.1529 36.8378 41.2887C36.9253 41.4244 37.0424 41.5378 37.189 41.6289C37.3355 41.7199 37.5035 41.8029 37.693 41.8778C37.8823 41.9529 38.0825 42.0268 38.2935 42.1002C38.5043 42.1733 38.7155 42.2511 38.927 42.3331C39.1383 42.4154 39.3391 42.5171 39.5291 42.6385C39.7191 42.7601 39.8876 42.8993 40.0345 43.0565C40.1814 43.2135 40.2989 43.4118 40.3866 43.651C40.4744 43.8901 40.5184 44.1598 40.5184 44.4598C40.5184 44.8106 40.4629 45.1276 40.3519 45.4104C40.2409 45.6932 40.0932 45.9278 39.9089 46.1139C39.7244 46.2999 39.5042 46.4548 39.2481 46.5785C38.9921 46.7019 38.7253 46.7906 38.4479 46.8444C38.1703 46.8979 37.8777 46.9248 37.5697 46.9248C37.1908 46.9248 36.7994 46.8843 36.3956 46.8038C35.9915 46.723 35.6306 46.609 35.3125 46.4617Z" fill="#585C63"/>
<path d="M42.7373 43.9011C42.7373 44.4316 42.8711 44.8833 43.1387 45.256C43.4063 45.6288 43.7577 45.815 44.193 45.815C44.6176 45.815 44.9627 45.6288 45.2285 45.256C45.4942 44.8833 45.627 44.4316 45.627 43.9011C45.627 43.5533 45.57 43.2335 45.4559 42.9414C45.3416 42.6493 45.174 42.4144 44.9528 42.2371C44.7316 42.0596 44.4783 41.971 44.193 41.971C43.7577 41.971 43.4063 42.1582 43.1387 42.5327C42.8711 42.9073 42.7373 43.3634 42.7373 43.9011ZM41.4453 43.9011C41.4453 43.4892 41.5115 43.099 41.6438 42.7302C41.7761 42.3615 41.9595 42.0409 42.194 41.7688C42.4282 41.4967 42.7189 41.2809 43.066 41.1216C43.413 40.9622 43.7887 40.8825 44.193 40.8825C44.7238 40.8825 45.1989 41.0186 45.6176 41.2907C46.0363 41.5627 46.3579 41.9277 46.5825 42.3859C46.807 42.8441 46.9193 43.3491 46.9193 43.9011C46.9193 44.4532 46.807 44.9562 46.5825 45.4102C46.3579 45.8643 46.0363 46.2267 45.6176 46.4973C45.1989 46.768 44.7238 46.9033 44.193 46.9033C43.6528 46.9033 43.1715 46.7678 42.7493 46.4966C42.3271 46.2255 42.0043 45.8635 41.7807 45.4102C41.557 44.9571 41.4453 44.454 41.4453 43.9011Z" fill="#585C63"/>
<path d="M48.2226 38.7756H49.4879V46.7373H48.2226V38.7756Z" fill="#585C63"/>
<path d="M50.9727 44.5284V41.0488H52.2379V44.3568C52.2379 44.5535 52.2548 44.733 52.2888 44.8957C52.3227 45.0582 52.3773 45.2085 52.4523 45.3459C52.5274 45.4837 52.632 45.5909 52.766 45.6676C52.9 45.7446 53.0598 45.7829 53.2458 45.7829C53.6568 45.7829 53.9811 45.6052 54.2189 45.2494C54.4565 44.8939 54.5754 44.3944 54.5754 43.751V41.0488H55.8407V44.9036C55.8407 45.7366 55.8746 46.3476 55.9427 46.7373H54.6515C54.6151 46.337 54.5969 46.0118 54.5969 45.7615H54.5863C54.086 46.5227 53.5031 46.9033 52.8385 46.9033C52.2057 46.9033 51.7366 46.6899 51.4311 46.2627C51.1253 45.8357 50.9727 45.2575 50.9727 44.5284Z" fill="#585C63"/>
<path d="M56.6829 42.0942L56.7472 41.0488H57.7015V39.2688H58.9292V41.0488H60.334L60.2589 42.0942H58.9292V44.5137C58.9327 44.9655 58.9846 45.2953 59.0847 45.5032C59.1813 45.7039 59.3402 45.8043 59.5619 45.8043H59.5994C59.771 45.8043 59.9943 45.7594 60.2696 45.6698L60.3447 46.7387C59.8442 46.8627 59.4744 46.9248 59.2348 46.9248C58.6713 46.9248 58.2747 46.7274 58.0455 46.3325C57.8161 45.9375 57.7015 45.2968 57.7015 44.4103V42.0942H56.6829Z" fill="#585C63"/>
<path d="M61.4441 41.049H62.7095V46.7373H61.4441V41.049ZM61.3154 39.0491C61.3154 38.8169 61.3883 38.6274 61.5338 38.4809C61.6795 38.3343 61.8604 38.2611 62.0768 38.2611C62.2931 38.2611 62.4749 38.3343 62.6223 38.4809C62.7698 38.6274 62.8434 38.8169 62.8434 39.0491C62.8434 39.2816 62.7692 39.4736 62.6209 39.6255C62.4726 39.7775 62.2913 39.8534 62.0768 39.8534C61.8499 39.8534 61.6664 39.7749 61.5259 39.6176C61.3856 39.4603 61.3154 39.2708 61.3154 39.0491Z" fill="#585C63"/>
<path d="M65.2718 43.9011C65.2718 44.4316 65.4057 44.8833 65.6732 45.256C65.9407 45.6288 66.2922 45.815 66.7275 45.815C67.1519 45.815 67.4972 45.6288 67.763 45.256C68.0287 44.8833 68.1616 44.4316 68.1616 43.9011C68.1616 43.5533 68.1045 43.2335 67.9904 42.9414C67.8761 42.6493 67.7085 42.4144 67.4873 42.2371C67.266 42.0596 67.0128 41.971 66.7275 41.971C66.2922 41.971 65.9407 42.1582 65.6732 42.5327C65.4057 42.9073 65.2718 43.3634 65.2718 43.9011ZM63.9797 43.9011C63.9797 43.4892 64.046 43.099 64.1783 42.7302C64.3106 42.3615 64.494 42.0409 64.7285 41.7688C64.9627 41.4967 65.2534 41.2809 65.6004 41.1216C65.9475 40.9622 66.3232 40.8825 66.7275 40.8825C67.2584 40.8825 67.7333 41.0186 68.152 41.2907C68.5709 41.5627 68.8924 41.9277 69.117 42.3859C69.3415 42.8441 69.4538 43.3491 69.4538 43.9011C69.4538 44.4532 69.3415 44.9562 69.117 45.4102C68.8924 45.8643 68.5709 46.2267 68.152 46.4973C67.7333 46.768 67.2584 46.9033 66.7275 46.9033C66.1873 46.9033 65.706 46.7678 65.2838 46.4966C64.8616 46.2255 64.5387 45.8635 64.3152 45.4102C64.0915 44.9571 63.9797 44.454 63.9797 43.9011Z" fill="#585C63"/>
<path d="M70.6016 41.049H71.7964C71.8398 41.3775 71.8614 41.7224 71.8614 42.0836H71.8936C72.4249 41.2829 73.0402 40.8827 73.7391 40.8827C74.3409 40.8827 74.7967 41.098 75.1068 41.5288C75.4166 41.9595 75.5716 42.5359 75.5716 43.2578V46.7373H74.3062V43.4423C74.3062 43.2425 74.2883 43.0606 74.2526 42.8966C74.2169 42.7326 74.1617 42.581 74.0869 42.442C74.0119 42.3028 73.9067 42.195 73.7712 42.1183C73.6357 42.0416 73.4752 42.0032 73.2898 42.0032C72.8796 42.0032 72.5487 42.1789 72.2974 42.5301C72.0458 42.8816 71.9201 43.3637 71.9201 43.9773V46.7373H70.655V42.652C70.655 42.1659 70.6371 41.6316 70.6016 41.049Z" fill="#585C63"/>
<path d="M76.7452 46.5426L76.8895 45.46C77.1358 45.5783 77.432 45.6778 77.7782 45.7584C78.1242 45.8391 78.4564 45.8794 78.774 45.8794C78.9281 45.8794 79.0761 45.8596 79.2178 45.82C79.3593 45.7805 79.4876 45.7041 79.6022 45.5908C79.717 45.4775 79.7744 45.3345 79.7744 45.1619C79.7744 45.0252 79.7314 44.9084 79.6455 44.8114C79.5596 44.7141 79.446 44.6405 79.3047 44.5901C79.1635 44.5398 79.0029 44.4913 78.8233 44.4443C78.6438 44.3976 78.4606 44.3498 78.2741 44.3012C78.0877 44.2525 77.905 44.1852 77.7264 44.0996C77.5475 44.014 77.3877 43.9149 77.2466 43.8025C77.1053 43.69 76.9918 43.5356 76.9061 43.3391C76.8202 43.1429 76.7775 42.9144 76.7775 42.6539C76.7775 42.2637 76.8764 41.932 77.0744 41.6582C77.2727 41.3844 77.5279 41.1868 77.8403 41.0652C78.1525 40.9434 78.505 40.8825 78.8978 40.8825C79.2242 40.8825 79.5534 40.9173 79.885 40.987C80.217 41.0567 80.4942 41.147 80.7165 41.2579L80.5711 42.3366C80.3524 42.222 80.0833 42.1253 79.7641 42.0464C79.4447 41.9674 79.1632 41.928 78.9193 41.928C78.6718 41.928 78.4684 41.9843 78.3088 42.097C78.1492 42.2095 78.0695 42.3838 78.0695 42.6201C78.0695 42.7551 78.1104 42.8705 78.1924 42.9662C78.2742 43.0619 78.3858 43.129 78.5269 43.168C78.6679 43.2068 78.8288 43.2512 79.0093 43.3011C79.1899 43.3508 79.3723 43.4011 79.5565 43.4519C79.7406 43.5027 79.9237 43.5705 80.1055 43.6554C80.2875 43.7403 80.4496 43.8374 80.5914 43.9467C80.7335 44.056 80.8481 44.2068 80.9354 44.3992C81.0227 44.5916 81.0664 44.8144 81.0664 45.0676C81.0664 45.3345 81.0207 45.5746 80.9293 45.7881C80.8378 46.0016 80.7167 46.1767 80.566 46.3138C80.4153 46.4506 80.2368 46.5646 80.0306 46.6551C79.8243 46.7459 79.6152 46.81 79.4036 46.8474C79.1919 46.8847 78.9712 46.9033 78.7418 46.9033C78.3848 46.9033 78.0182 46.8697 77.6418 46.8027C77.2653 46.7353 76.9665 46.6488 76.7452 46.5426Z" fill="#585C63"/>
<path d="M84.7391 42.0939L84.8033 41.0485H85.7576V40.6401C85.7576 39.8737 85.8803 39.3087 86.1255 38.9451C86.3707 38.5817 86.7967 38.3999 87.4035 38.3999C87.6645 38.3999 87.997 38.4358 88.4009 38.5077L88.3257 39.5901C88.1292 39.5222 87.913 39.4884 87.6771 39.4884C87.4053 39.4884 87.2222 39.582 87.1276 39.7698C87.0329 39.9574 86.9854 40.2817 86.9854 40.7428V41.0485H88.181L88.1167 42.0939H86.9854V46.7368H85.7576V42.0939H84.7391Z" fill="#585C63"/>
<path d="M90.1652 43.9011C90.1652 44.4316 90.2989 44.8833 90.5665 45.256C90.834 45.6288 91.1855 45.815 91.6208 45.815C92.0453 45.815 92.3904 45.6288 92.6563 45.256C92.922 44.8833 93.0549 44.4316 93.0549 43.9011C93.0549 43.5533 92.9979 43.2335 92.8838 42.9414C92.7695 42.6493 92.6019 42.4144 92.3807 42.2371C92.1594 42.0596 91.906 41.971 91.6208 41.971C91.1855 41.971 90.834 42.1582 90.5665 42.5327C90.2989 42.9073 90.1652 43.3634 90.1652 43.9011ZM88.873 43.9011C88.873 43.4892 88.9392 43.099 89.0717 42.7302C89.2039 42.3615 89.3873 42.0409 89.6217 41.7688C89.856 41.4967 90.1468 41.2809 90.4937 41.1216C90.8407 40.9622 91.2166 40.8825 91.6208 40.8825C92.1517 40.8825 92.6266 41.0186 93.0454 41.2907C93.4641 41.5627 93.7858 41.9277 94.0102 42.3859C94.2348 42.8441 94.347 43.3491 94.347 43.9011C94.347 44.4532 94.2348 44.9562 94.0102 45.4102C93.7858 45.8643 93.4641 46.2267 93.0454 46.4973C92.6266 46.768 92.1517 46.9033 91.6208 46.9033C91.0805 46.9033 90.5994 46.7678 90.1772 46.4966C89.7549 46.2255 89.4321 45.8635 89.2084 45.4102C88.9848 44.9571 88.873 44.454 88.873 43.9011Z" fill="#585C63"/>
<path d="M95.494 41.0485H96.6889C96.7322 41.3738 96.7538 41.7152 96.7538 42.0724H96.786C97.1934 41.279 97.7064 40.8822 98.3248 40.8822C98.4997 40.8822 98.6875 40.9091 98.8877 40.9626L98.7536 42.1904C98.5534 42.1262 98.355 42.0939 98.1585 42.0939C97.7153 42.0939 97.3803 42.2627 97.1533 42.6006C96.9263 42.9384 96.8128 43.395 96.8128 43.9704V46.7368H95.5476V42.6515C95.5476 42.1654 95.5297 41.6311 95.494 41.0485Z" fill="#585C63"/>
<path d="M102.989 46.7368V38.7751H104.281V42.1208H104.817L107.268 38.7751H108.86L105.836 42.6167L109.133 46.7368H107.498L104.785 43.1125H104.281V46.7368H102.989Z" fill="#585C63"/>
<path d="M110.002 41.0485H111.267V46.7368H110.002V41.0485ZM109.873 39.0487C109.873 38.8164 109.946 38.6269 110.091 38.4805C110.237 38.3338 110.418 38.2606 110.634 38.2606C110.851 38.2606 111.032 38.3338 111.18 38.4805C111.327 38.6269 111.401 38.8164 111.401 39.0487C111.401 39.2811 111.327 39.4731 111.179 39.625C111.03 39.777 110.849 39.8529 110.634 39.8529C110.408 39.8529 110.224 39.7744 110.084 39.6171C109.943 39.4598 109.873 39.2703 109.873 39.0487Z" fill="#585C63"/>
<path d="M113.83 43.9011C113.83 44.4744 113.968 44.937 114.242 45.2883C114.517 45.6395 114.875 45.815 115.318 45.815C115.778 45.815 116.149 45.6304 116.431 45.2613C116.713 44.8922 116.854 44.4387 116.854 43.9011C116.854 43.3419 116.71 42.8804 116.423 42.5166C116.136 42.1528 115.768 41.971 115.318 41.971C114.879 41.971 114.521 42.1483 114.245 42.5032C113.968 42.858 113.83 43.324 113.83 43.9011ZM113.22 46.0662C112.765 45.5082 112.538 44.7863 112.538 43.9011C112.538 43.0158 112.764 42.2914 113.217 41.7277C113.67 41.1643 114.258 40.8825 114.981 40.8825C115.709 40.8825 116.315 41.2525 116.8 41.9924H116.833L116.811 41.0488V38.502H118.071V46.7371H116.843V45.8044H116.811C116.351 46.5371 115.744 46.9033 114.992 46.9033C114.265 46.9033 113.674 46.6244 113.22 46.0662Z" fill="#585C63"/>
<path d="M119.267 46.5426L119.411 45.46C119.657 45.5783 119.953 45.6778 120.3 45.7584C120.646 45.8391 120.978 45.8794 121.295 45.8794C121.45 45.8794 121.597 45.8596 121.739 45.82C121.881 45.7805 122.009 45.7041 122.124 45.5908C122.238 45.4775 122.296 45.3345 122.296 45.1619C122.296 45.0252 122.253 44.9084 122.167 44.8114C122.081 44.7141 121.967 44.6405 121.826 44.5901C121.685 44.5398 121.524 44.4913 121.345 44.4443C121.165 44.3976 120.982 44.3498 120.796 44.3012C120.609 44.2525 120.426 44.1852 120.248 44.0996C120.069 44.014 119.909 43.9149 119.768 43.8025C119.627 43.69 119.513 43.5356 119.428 43.3391C119.342 43.1429 119.299 42.9144 119.299 42.6539C119.299 42.2637 119.398 41.932 119.596 41.6582C119.794 41.3844 120.049 41.1868 120.362 41.0652C120.674 40.9434 121.026 40.8825 121.419 40.8825C121.746 40.8825 122.075 40.9173 122.406 40.987C122.738 41.0567 123.015 41.147 123.238 41.2579L123.092 42.3366C122.874 42.222 122.605 42.1253 122.286 42.0464C121.966 41.9674 121.685 41.928 121.441 41.928C121.193 41.928 120.99 41.9843 120.83 42.097C120.671 42.2095 120.591 42.3838 120.591 42.6201C120.591 42.7551 120.632 42.8705 120.714 42.9662C120.796 43.0619 120.907 43.129 121.048 43.168C121.189 43.2068 121.35 43.2512 121.531 43.3011C121.711 43.3508 121.894 43.4011 122.078 43.4519C122.262 43.5027 122.445 43.5705 122.627 43.6554C122.809 43.7403 122.971 43.8374 123.113 43.9467C123.255 44.056 123.369 44.2068 123.457 44.3992C123.544 44.5916 123.588 44.8144 123.588 45.0676C123.588 45.3345 123.542 45.5746 123.451 45.7881C123.359 46.0016 123.238 46.1767 123.087 46.3138C122.937 46.4506 122.758 46.5646 122.552 46.6551C122.346 46.7459 122.137 46.81 121.925 46.8474C121.713 46.8847 121.493 46.9033 121.263 46.9033C120.906 46.9033 120.54 46.8697 120.163 46.8027C119.787 46.7353 119.488 46.6488 119.267 46.5426Z" fill="#585C63"/>
<path d="M10.9237 9.87002C10.9176 10.2589 10.9096 10.6754 10.9017 11.0945C10.885 11.9717 10.8642 13.0633 10.8663 13.7842C11.1701 13.6238 11.5231 13.3863 11.8193 13.0489C12.6249 12.1313 12.7332 10.9596 12.424 10.2766C12.2497 9.89164 11.9739 9.69651 11.6039 9.69651L11.5794 9.69675C11.3956 9.70084 11.0744 9.78417 10.9237 9.87002ZM10.8695 20.5885C10.8654 20.7234 10.859 20.8654 10.8519 21.02C10.8377 21.3303 10.8215 21.6823 10.8151 22.1533C10.8038 22.9838 10.7812 23.4805 10.7676 23.7772C10.7612 23.9177 10.7564 24.014 10.7564 24.0847C10.7564 24.1342 10.7531 24.1935 10.7479 24.2676C10.7471 24.2782 10.7463 24.2892 10.7456 24.3006C12.2431 23.5619 12.3663 21.967 12.3759 21.7641C12.3887 21.494 12.3711 20.6056 11.6071 20.5078C11.5435 20.4997 11.4716 20.4953 11.3989 20.4953C11.1524 20.4953 10.9723 20.5416 10.8695 20.5885ZM10.7053 32.8799C6.99459 32.8799 4.26312 32.0701 2.58687 30.473L2.55613 30.4437L2.52983 30.4103C2.26855 30.0794 1.83124 29.5253 1.83124 18.5285C1.83124 7.0605 2.18798 4.85377 2.49861 4.21245L2.55325 4.0997L2.64823 4.01828C4.5226 2.40988 7.34845 1.59445 11.0469 1.59445C12.2453 1.59445 13.0395 1.68102 13.4946 1.75379C16.3537 2.2138 18.5039 3.2761 20.0687 5.00134C21.6196 6.71193 22.1751 8.20134 22.2698 10.9035L22.2705 10.9234L22.2698 10.9434C22.2221 12.4644 21.6597 13.7649 20.5502 14.9189C20.3977 15.0765 19.9477 15.5038 19.128 15.9959C20.3069 16.4796 21.2234 17.21 21.9537 18.2349C22.9948 19.6972 23.4724 21.4042 23.3348 23.1712C23.1088 25.9102 22.012 28.1045 19.9815 29.8823C18.4302 31.2388 16.5891 32.1162 14.3528 32.5644L14.3402 32.5668C13.175 32.7746 11.952 32.8799 10.7053 32.8799Z" fill="#5AB6CC"/>
<path d="M11.4009 22.9151C11.4066 22.7001 11.4119 22.4506 11.4159 22.1611C11.4219 21.7251 11.4364 21.3913 11.4497 21.0975C11.487 21.0992 11.5148 21.1021 11.5304 21.1041C11.7902 21.1372 11.7797 21.6358 11.775 21.7353C11.7702 21.8374 11.7293 22.3794 11.4009 22.9151ZM11.5956 10.2977L11.6034 10.2976H11.605C11.6728 10.2976 11.7742 10.2994 11.8761 10.5242C12.0865 10.9889 12.0094 11.8225 11.4777 12.5174C11.4848 12.0318 11.4943 11.5298 11.5025 11.1049C11.5075 10.8356 11.5127 10.5676 11.5172 10.3073C11.5468 10.3024 11.5737 10.299 11.5956 10.2977ZM11.0465 0.993095C7.20029 0.993095 4.24284 1.8574 2.25632 3.56186L2.06648 3.72492L1.95733 3.95018C1.74324 4.39182 1.52542 5.2566 1.38253 8.5631C1.28107 10.9113 1.22968 14.2641 1.22968 18.5285C1.22968 22.1273 1.27807 24.9302 1.3734 26.8593C1.5229 29.8804 1.76137 30.4075 2.05759 30.7826L2.11031 30.8495L2.1719 30.9081C3.96366 32.6153 6.83466 33.481 10.7049 33.481C11.987 33.481 13.2453 33.3726 14.4453 33.1588L14.458 33.1564L14.4706 33.154C16.8125 32.6843 18.7444 31.7623 20.3766 30.3351C22.531 28.4489 23.6942 26.1228 23.9333 23.2233C24.0826 21.3083 23.5671 19.4647 22.4431 17.8862C21.8544 17.0599 21.1573 16.4095 20.319 15.9142C20.6654 15.6495 20.8812 15.441 20.9802 15.3386C22.2005 14.0691 22.8178 12.6387 22.8704 10.9622L22.8716 10.9222L22.8703 10.8824C22.7698 8.01568 22.1751 6.42985 20.5138 4.59751C18.8535 2.76696 16.5888 1.6427 13.5904 1.16024C12.9054 1.05085 12.0262 0.993095 11.0465 0.993095ZM10.155 25.1428C12.555 24.5802 12.9466 22.4139 12.976 21.7923C13.0246 20.768 12.5251 20.0191 11.683 19.9114C11.5978 19.9006 11.501 19.8941 11.3986 19.8941C10.9881 19.8941 10.4864 19.9969 10.2725 20.3228C10.2724 20.7619 10.2257 21.2607 10.2136 22.1449C10.197 23.3849 10.155 23.8567 10.155 24.0846C10.155 24.2367 10.1039 24.5102 10.155 25.1428ZM10.3048 14.6542C10.3048 14.6542 11.4518 14.3783 12.2708 13.4455C13.7925 11.712 13.3084 9.0948 11.6034 9.09516C11.591 9.09516 11.5781 9.09528 11.5656 9.09564C11.31 9.10128 10.5247 9.23649 10.3255 9.64042C10.2977 11.5645 10.2166 14.3245 10.3048 14.6542ZM11.0465 2.19552C12.0837 2.19552 12.8653 2.26205 13.3994 2.3473C16.339 2.82028 18.2569 3.89891 19.623 5.40513C20.9893 6.91207 21.5733 8.20336 21.6686 10.9245C21.6226 12.39 21.0567 13.5241 20.1164 14.5023C19.7302 14.9011 18.851 15.5641 17.536 16.1355C19.1997 16.4983 20.4895 17.2164 21.4636 18.5837C22.4373 19.951 22.8612 21.5044 22.735 23.1246C22.5073 25.885 21.3637 27.8727 19.5852 29.4299C18.5593 30.3269 16.9518 31.43 14.2343 31.975C13.0959 32.1779 11.9194 32.2785 10.7049 32.2785C7.13785 32.2785 4.5698 31.5321 3.00126 30.0376C2.62183 29.5569 2.43211 25.7205 2.43211 18.5285C2.43211 9.99536 2.63431 5.31027 3.03933 4.47443C4.80983 2.95512 7.47934 2.19552 11.0465 2.19552Z" fill="#39767C"/>
<path d="M28.1486 32.7979C26.0964 32.7979 24.8706 31.7857 24.6037 29.871C24.2045 27.0952 24.011 24.5467 24.0285 22.2989C24.0458 19.9254 24.2321 17.7891 24.5825 15.9495L24.5849 15.9373C24.589 15.9181 24.6869 15.4609 24.8761 14.9908C25.0675 14.5155 25.3404 14.0444 25.352 14.0246L25.3639 14.0041L25.3774 13.9845C26.3891 12.5238 27.8438 11.7832 29.7011 11.7832C30.1731 11.7832 30.5194 11.8333 30.8967 11.9565L30.9172 11.9636C31.6515 12.2328 32.0564 12.694 32.2712 13.5059C32.2747 13.5187 32.3796 13.9099 32.4386 14.4509C32.4829 14.8574 32.5004 15.2419 32.5011 15.2581L32.5017 15.285C32.5017 15.7991 32.5166 16.3904 32.534 17.0755C32.5404 17.3238 32.547 17.5852 32.5533 17.861C32.5736 18.7533 32.5691 19.3002 32.5664 19.6269C32.5657 19.7121 32.5651 19.7832 32.5651 19.8431C32.5831 23.4745 32.3645 26.5089 31.8971 29.1172C31.5438 31.1013 30.5966 32.3153 29.0819 32.7251L29.0317 32.7387L28.9797 32.7435C28.5797 32.7801 28.3079 32.7979 28.1486 32.7979Z" fill="#5AB6CC"/>
<path d="M29.7011 11.1819C27.6639 11.1819 25.9979 12.0326 24.8832 13.6421L24.8562 13.6812L24.8323 13.7222C24.8012 13.7759 24.5224 14.2598 24.3184 14.7663C24.1134 15.2758 24.0081 15.7592 23.9968 15.8125L23.9943 15.8247L23.9919 15.837C23.6348 17.7122 23.4447 19.8848 23.4272 22.2947C23.4095 24.5724 23.6053 27.1512 24.0088 29.959C24.1628 31.0629 24.6122 31.9281 25.3438 32.5256C26.0535 33.1051 26.9971 33.3989 28.1487 33.3989C28.2624 33.3989 28.4778 33.3932 29.0347 33.342L29.1383 33.3325L29.2388 33.3053C31.4298 32.7128 32.2157 30.7575 32.4891 29.2218C32.9628 26.5783 33.1845 23.5081 33.1663 19.837C33.1663 19.7846 33.167 19.7148 33.1677 19.6317C33.1703 19.3015 33.1749 18.7488 33.1543 17.8475C33.148 17.5698 33.1413 17.3073 33.135 17.058C33.1177 16.3779 33.1028 15.7908 33.1028 15.2849V15.258L33.1016 15.2312C33.1009 15.2143 33.0825 14.8112 33.0362 14.3858C32.9747 13.8214 32.868 13.4098 32.8515 13.3489C32.6852 12.7219 32.3247 11.8393 31.1241 11.3991L31.1038 11.3917L31.0834 11.385C30.6473 11.2427 30.2339 11.1819 29.7011 11.1819ZM29.7011 12.3844C30.0803 12.3844 30.3766 12.4192 30.7102 12.5281C31.2865 12.7393 31.5348 13.0729 31.6899 13.6595C31.6899 13.6595 31.7863 14.0155 31.8408 14.5159C31.8836 14.9081 31.9004 15.2849 31.9004 15.2849C31.9004 15.993 31.928 16.8292 31.9523 17.8748C31.9776 18.9904 31.9639 19.5497 31.9639 19.8431C31.9808 23.2616 31.788 26.3175 31.3053 29.0109C30.9948 30.7551 30.2012 31.7994 28.9249 32.1446C28.5453 32.1794 28.2865 32.1966 28.1487 32.1966C26.4061 32.1966 25.4229 31.3934 25.199 29.7879C24.8019 27.0258 24.6123 24.5307 24.6296 22.3035C24.6467 19.9554 24.8279 17.8748 25.1731 16.0619C25.1731 16.0619 25.262 15.6422 25.4338 15.2152C25.6111 14.7747 25.8717 14.3267 25.8717 14.3267C26.7685 13.0319 28.0451 12.3844 29.7011 12.3844Z" fill="#39767C"/>
<path d="M49.4396 32.7593C49.3038 32.7593 49.1722 32.7545 49.0375 32.7447C48.064 32.6739 47.3053 32.2723 46.7177 31.5172C46.1432 30.78 45.8757 29.894 45.8757 28.7292C45.8757 28.4731 45.8808 28.164 45.8908 27.81C45.5171 28.5141 45.1165 29.0439 44.7149 29.3564C44.3546 29.6449 43.9148 29.7938 43.4142 29.7938C43.021 29.7938 42.6237 29.6654 42.2332 29.4123L42.1848 29.3808L42.1431 29.3407C41.6999 28.9135 41.3534 28.5007 41.0709 28.0505C41.0578 28.6662 41.0125 29.2111 40.9376 29.6354C40.7892 30.4514 40.5434 31.1087 39.7757 31.872L39.7387 31.9089L39.696 31.9387C39.0926 32.3601 38.413 32.5649 37.6183 32.5649C36.6294 32.5649 35.6147 32.1172 34.904 31.3675L34.8904 31.3531L34.8777 31.3377C34.1614 30.4744 33.9018 29.4705 33.7623 28.9313C33.7415 28.8507 33.7237 28.7816 33.7074 28.7268C33.4274 27.8804 33.2912 26.6772 33.2912 25.049C33.2912 23.6048 33.4136 21.0295 33.6549 17.3952C33.7573 15.8947 34.2237 14.5188 34.9343 13.6193C35.6367 12.7304 36.3143 12.0313 38.0802 11.7891L38.1126 11.7847L38.1454 11.7837C38.1934 11.7825 38.2406 11.7819 38.2879 11.7819C40.905 11.7819 42.3559 13.8411 43.284 16.1509C43.3834 15.8389 43.4973 15.5079 43.6259 15.1564C44.3376 13.2067 45.0841 12.177 46.2021 11.6024L46.2157 11.5957C47.1175 11.1607 47.9431 11.1103 48.4856 11.1103C49.5468 11.1103 50.4494 11.4408 51.1682 12.0926L51.1938 12.1156L51.2166 12.1416C51.9072 12.9294 52.3241 13.7138 52.6106 14.7647C52.7965 15.4551 52.934 16.3689 53.0853 17.9203L53.0865 17.9345C53.1856 19.2793 53.2047 20.679 53.2202 21.8035C53.2803 24.282 53.2752 26.4622 53.2035 28.8648V28.8971L53.2028 28.9121C53.1551 29.8599 52.7973 30.8163 52.485 31.304C52.1686 31.7879 51.8079 32.1015 51.2371 32.3915C50.8829 32.5712 50.4354 32.6931 49.9774 32.7347C49.7962 32.751 49.6154 32.7593 49.4396 32.7593Z" fill="#5AB6CC"/>
<path d="M48.4851 10.5091C47.8837 10.5091 46.9668 10.5655 45.954 11.054L45.9404 11.0607L45.9268 11.0676C44.7579 11.6683 43.9324 12.7229 43.2095 14.5576C42.1933 12.6625 40.6902 11.1806 38.2874 11.1806C38.2348 11.1806 38.1819 11.1813 38.1286 11.1827L38.063 11.1845L37.998 11.1934C36.0133 11.4656 35.2225 12.2843 34.4623 13.2465C34.0015 13.8295 33.206 15.1386 33.0548 17.353C32.8124 21.0034 32.6896 23.592 32.6896 25.049C32.6896 26.7361 32.8347 27.998 33.133 28.9058C33.1447 28.9462 33.1618 29.0123 33.1798 29.0821C33.3311 29.6667 33.6127 30.7548 34.4145 31.7216L34.44 31.7522L34.4672 31.781C35.2894 32.6483 36.4672 33.1659 37.6179 33.1659C38.5398 33.1659 39.3319 32.9258 40.0398 32.4316L40.1253 32.3719L40.1992 32.2984C41.0754 31.4271 41.3641 30.648 41.5281 29.746L41.5286 29.743L41.5292 29.74C41.5371 29.6953 41.5447 29.6494 41.5519 29.6024C41.6082 29.6592 41.666 29.7162 41.7255 29.7736L41.8087 29.8538L41.9059 29.9167C42.3952 30.234 42.9026 30.3949 43.4139 30.3949C44.0423 30.3949 44.6216 30.1983 45.0898 29.8261C45.1698 29.7635 45.2491 29.6945 45.3279 29.6193C45.4422 30.5076 45.7407 31.2419 46.243 31.8868C46.9313 32.771 47.8566 33.2614 48.9931 33.3443C49.1427 33.3552 49.2886 33.3604 49.4395 33.3604C49.6329 33.3604 49.8317 33.3512 50.03 33.3336C50.5636 33.2851 51.0881 33.1409 51.5085 32.9276C52.1724 32.5904 52.6137 32.2047 52.9846 31.6379L52.9877 31.633L52.9908 31.6281C53.3565 31.0572 53.7492 30.0053 53.8027 28.9423L53.8042 28.9122V28.8819V28.8736C53.876 26.4659 53.8811 24.2797 53.8209 21.789C53.8053 20.6563 53.7857 19.2478 53.6857 17.8902L53.6846 17.8761L53.6833 17.8618C53.5284 16.2752 53.3858 15.3331 53.1911 14.61C52.8822 13.477 52.4128 12.5946 51.6682 11.7453L51.6228 11.6933L51.5718 11.6471C50.7388 10.8919 49.7004 10.5091 48.4851 10.5091ZM48.4851 11.7115C49.4336 11.7115 50.1834 12.0114 50.7641 12.5379C51.3995 13.2627 51.7712 13.9735 52.0301 14.9227C52.2022 15.5619 52.3348 16.4224 52.4865 17.9786C52.5804 19.2533 52.6011 20.5342 52.6186 21.8117C52.6873 24.6435 52.6618 26.8512 52.6018 28.8559V28.8819C52.5617 29.6796 52.2603 30.5392 51.9784 30.9795C51.7078 31.393 51.4121 31.628 50.9645 31.8552C50.6904 31.9945 50.3133 32.1004 49.9226 32.1359C49.7408 32.1523 49.5788 32.1579 49.4395 32.1579C49.2946 32.1579 49.1739 32.1518 49.0804 32.1451C48.3405 32.0912 47.709 31.8127 47.1916 31.148C46.6741 30.4836 46.4764 29.7134 46.4764 28.7292C46.4764 28.3496 46.4879 27.5972 46.5565 26.2042C46.6147 25.0227 46.6652 24.6698 46.7258 23.8594C46.6392 24.1183 46.4839 24.6483 46.0356 25.9602C45.4489 27.6176 44.811 28.5194 44.3452 28.8819C44.0866 29.0889 43.776 29.1925 43.4139 29.1925C43.1377 29.1925 42.853 29.0979 42.5599 28.9078C41.3212 27.7139 40.904 26.7129 40.3866 23.9329C40.3934 24.5247 40.4254 24.7974 40.4254 25.246C40.4254 25.5052 40.4326 25.8216 40.4641 27.0689C40.4939 28.0581 40.4488 28.944 40.3451 29.5308C40.2071 30.2905 39.9818 30.819 39.3515 31.4458C38.7609 31.8581 38.1699 31.9636 37.6179 31.9636C36.8588 31.9636 35.9779 31.6269 35.3399 30.9539C34.5923 30.0526 34.4007 28.9427 34.2801 28.5453C34.0215 27.7682 33.8919 26.6029 33.8919 25.049C33.8919 23.6159 34.0125 21.078 34.2543 17.4349C34.3404 16.175 34.711 14.8713 35.4057 13.992C36.0869 13.1297 36.6448 12.5928 38.1613 12.3847C38.2037 12.3835 38.2456 12.3829 38.2874 12.3829C40.7331 12.3829 42.2177 14.3602 43.3878 18.3155C43.4742 17.5734 43.7413 16.5891 44.1899 15.363C44.8454 13.5677 45.5082 12.6347 46.4764 12.1371C47.2269 11.7751 47.9159 11.7115 48.4851 11.7115Z" fill="#39767C"/>
<path fill-rule="evenodd" clip-rule="evenodd" d="M61.7592 17.8751C61.7472 16.8561 61.7675 16.1736 61.7073 15.2852C61.7073 15.2852 61.7135 14.8907 61.6812 14.5167C61.652 14.1802 61.5843 13.8601 61.5843 13.8601C61.3624 13.0329 60.9999 12.753 60.5173 12.5284C60.2237 12.4593 59.8873 12.3845 59.5081 12.3845C57.8521 12.3845 56.5754 13.0322 55.6785 14.327C55.6785 14.327 55.435 14.7328 55.2664 15.152C55.0862 15.5995 54.9802 16.0621 54.9802 16.0621C54.6348 17.8751 54.4536 19.9557 54.4368 22.3038C54.4194 24.5309 54.609 27.0261 55.006 29.7882C55.23 31.3937 56.2132 32.1968 57.9556 32.1968C58.0934 32.1968 58.3522 32.1797 58.7318 32.1449C60.1285 31.7596 60.9245 30.7727 61.1124 29.0112C61.2994 27.2772 61.4591 26.1326 61.5566 24.3803C61.595 23.6941 61.6155 23.0695 61.6506 21.8873C61.661 21.5942 61.7735 19.1542 61.7592 17.8751Z" fill="#5AB6CC"/>
<path d="M55.5682 16.1868C55.2327 17.9525 55.0543 20.0118 55.0377 22.308C55.0205 24.496 55.2101 26.9838 55.6008 29.7024C55.7836 31.0125 56.5097 31.5954 57.9553 31.5954C58.0206 31.5954 58.1928 31.5894 58.6215 31.551C59.7738 31.2153 60.3582 30.4098 60.5143 28.9473C60.5577 28.5459 60.5993 28.1766 60.6392 27.824C60.7695 26.6725 60.8819 25.6781 60.956 24.3467C60.9941 23.6649 61.0147 23.0391 61.0492 21.8692C61.0509 21.825 61.0542 21.7445 61.059 21.6323C61.0864 20.9742 61.1699 18.9713 61.1578 17.8816C61.1544 17.5938 61.1536 17.3327 61.1529 17.0862C61.1508 16.4741 61.1492 15.9453 61.1071 15.3256L61.1054 15.3006L61.1059 15.2754C61.1059 15.2718 61.1112 14.9056 61.0819 14.5684C61.0598 14.3131 61.0114 14.0617 60.9988 13.9989C60.838 13.4119 60.6223 13.2464 60.3179 13.0989C60.0437 13.0357 59.7893 12.9856 59.5078 12.9856C58.0555 12.9856 56.9683 13.5307 56.1846 14.6518C56.1414 14.7258 55.9545 15.0516 55.8238 15.3764C55.6766 15.7418 55.5834 16.1223 55.5682 16.1868ZM57.9553 32.7979C55.9033 32.7979 54.6775 31.7857 54.4103 29.871C54.0113 27.0954 53.8177 24.5468 53.8353 22.2988C53.8524 19.9254 54.0388 17.7891 54.3893 15.9493L54.3938 15.9277C54.3987 15.9068 54.5127 15.4133 54.7083 14.9273C54.8926 14.4694 55.1519 14.0358 55.1628 14.0175L55.1841 13.9845C56.1957 12.5238 57.6504 11.7832 59.5078 11.7832C59.9383 11.7832 60.3102 11.862 60.6542 11.9427L60.7146 11.9569L60.7709 11.9831C61.3241 12.2408 61.8758 12.6275 62.1647 13.7042L62.1722 13.7355C62.1752 13.7501 62.2478 14.0959 62.2799 14.4647C62.3099 14.8122 62.3092 15.1689 62.3084 15.2682C62.3516 15.916 62.3533 16.4571 62.3552 17.0823C62.3559 17.3257 62.3567 17.5836 62.3601 17.8678V17.8682C62.3727 18.9897 62.2909 20.946 62.2602 21.6825C62.2558 21.7914 62.2525 21.8695 62.2511 21.9087C62.2163 23.0856 62.1955 23.718 62.1565 24.4139C62.0805 25.7791 61.9663 26.7893 61.8341 27.9591C61.7943 28.3098 61.7529 28.6771 61.7098 29.0755C61.5005 31.0382 60.5523 32.266 58.8914 32.7244L58.8397 32.7385L58.7863 32.7435C58.3867 32.78 58.1147 32.7979 57.9553 32.7979Z" fill="#39767C"/>
<path d="M78.6398 9.53525C78.6389 9.99994 78.6351 10.4433 78.6317 10.8761C78.6237 11.8391 78.6162 12.7605 78.6404 13.7512C78.9382 13.5867 79.2685 13.3581 79.5166 13.0605C80.7186 11.6193 80.3102 10.3465 80.2922 10.293L80.2766 10.2493L80.2697 10.2098C80.2453 10.0842 80.0879 9.45648 79.3824 9.42706C79.3563 9.42598 79.33 9.42538 79.3035 9.42538C79.0226 9.42538 78.7767 9.4823 78.6398 9.53525ZM78.5123 20.5629C78.5082 20.6266 78.5032 20.6937 78.4975 20.765C78.4724 21.0946 78.4413 21.5047 78.4634 22.0626L78.4639 22.0799C78.4732 22.9288 78.4714 23.6574 78.4682 24.1889C79.5511 23.5888 80.1338 22.5255 80.1414 21.6697C80.1478 20.9531 79.794 20.4645 79.261 20.4538C79.2293 20.4531 79.198 20.4527 79.1675 20.4527C78.9156 20.4527 78.7268 20.4723 78.5123 20.5629ZM78.4114 32.8799C74.7002 32.8799 71.9687 32.07 70.2929 30.473L70.2622 30.4437L70.2359 30.4104C69.9746 30.0795 69.5372 29.5257 69.5372 18.5285C69.5372 7.06026 69.8937 4.85365 70.2043 4.21245L70.2589 4.09969L70.3539 4.01828C72.2283 2.40988 75.0541 1.59445 78.7527 1.59445C79.6154 1.59445 80.4349 1.6474 81.1884 1.75199C84.0798 2.15676 86.1712 3.16647 87.7703 4.92989C89.1903 6.49603 90.0162 8.01678 90.0349 11.156L90.0351 11.1764L90.0339 11.1966C89.9479 12.5913 89.283 13.9767 88.2097 14.9979C87.9459 15.2471 87.4982 15.6268 86.8766 16.0043C87.9839 16.4842 88.9163 17.2504 89.6595 18.2939C90.7131 19.7736 91.1776 21.4145 91.0406 23.1713C90.7996 26.0965 89.6616 28.3615 87.6583 29.906C86.8623 30.519 84.9985 31.9536 82.0628 32.5636L82.046 32.567C80.8808 32.7746 79.6579 32.8799 78.4114 32.8799Z" fill="#7FCC4E"/>
<path d="M79.0794 21.055C79.1069 21.0543 79.1362 21.0539 79.1675 21.0539C79.1942 21.0539 79.2214 21.0542 79.2492 21.0548C79.4527 21.0588 79.5426 21.3734 79.5401 21.6641C79.5366 22.0522 79.3719 22.4924 79.071 22.8879C79.07 22.6319 79.0681 22.3594 79.065 22.0731L79.0648 22.0559L79.0641 22.0385C79.0484 21.6431 79.0617 21.3232 79.0794 21.055ZM79.239 10.0279C79.2601 10.0269 79.2817 10.0265 79.3034 10.0265C79.3214 10.0265 79.3393 10.0268 79.357 10.0275C79.423 10.0304 79.624 10.0387 79.6795 10.3245L79.7026 10.4432L79.7243 10.4927C79.7585 10.621 79.9415 11.455 79.2253 12.4553C79.2241 11.9301 79.2284 11.4106 79.2327 10.8783C79.2351 10.6009 79.2373 10.3182 79.239 10.0279ZM78.7526 0.993095C74.9065 0.993095 71.949 1.8574 69.9623 3.56186L69.7722 3.72492L69.6632 3.9503C69.4492 4.39206 69.2314 5.25672 69.0888 8.56322C68.9873 10.9112 68.9359 14.264 68.9359 18.5285C68.9359 22.1277 68.9843 24.9305 69.0798 26.8593C69.2291 29.8806 69.4677 30.4078 69.7642 30.783L69.8167 30.8495L69.8781 30.9081C71.6695 32.6153 74.5405 33.481 78.4114 33.481C79.6933 33.481 80.9517 33.3725 82.1514 33.1588L82.1683 33.1557L82.185 33.1522C85.2558 32.5141 87.1962 31.0205 88.0247 30.3828C90.1681 28.7301 91.3841 26.3215 91.6396 23.2234C91.7882 21.3168 91.2867 19.5426 90.1493 17.9453C89.5546 17.1103 88.8488 16.4388 88.0378 15.934C88.2825 15.7442 88.4774 15.572 88.621 15.4363C89.8062 14.3087 90.5387 12.7779 90.6338 11.2335L90.6362 11.193L90.636 11.1524C90.6162 7.83557 89.6953 6.158 88.2159 4.52618C86.5398 2.67811 84.2685 1.57606 81.2723 1.15652C80.4901 1.04797 79.6429 0.993095 78.7526 0.993095ZM77.8627 25.084C79.6191 24.584 80.7302 23.0526 80.7424 21.6749C80.7525 20.5581 80.0885 19.8689 79.2731 19.8526C79.2372 19.8518 79.202 19.8516 79.1675 19.8516C78.7045 19.8516 78.3626 19.9212 77.9179 20.1998C77.9426 20.5294 77.8236 21.1017 77.8627 22.0863C77.8799 23.6664 77.8584 24.8204 77.8627 25.084ZM78.0697 14.6542C78.0697 14.6542 79.2697 14.2956 79.9783 13.4455C81.4369 11.6966 80.8598 10.095 80.8598 10.095C80.7436 9.49765 80.2742 8.86245 79.4072 8.82619C79.3731 8.82487 79.3384 8.82415 79.3034 8.82415C78.7711 8.82415 78.1579 8.98769 78.0389 9.27215C78.0393 11.2074 77.9862 12.7472 78.0697 14.6542ZM78.7526 2.19552C79.7896 2.19552 80.57 2.27297 81.1055 2.3473C84.0649 2.76156 85.9588 3.82734 87.3252 5.33369C88.6914 6.84063 89.4164 8.26196 89.4337 11.1596C89.3483 12.5467 88.6277 13.7703 87.7951 14.5624C87.3917 14.9437 86.5179 15.6523 85.2422 16.1355C86.8863 16.4395 88.1956 17.275 89.1698 18.6426C90.1433 20.0099 90.5676 21.5044 90.4412 23.1246C90.2136 25.8851 89.1632 27.9866 87.2913 29.4299C86.3045 30.1895 84.6091 31.4203 81.9404 31.975C80.8021 32.1779 79.6256 32.2786 78.4114 32.2786C74.844 32.2786 72.2758 31.5321 70.7076 30.0377C70.3281 29.557 70.1383 25.7205 70.1383 18.5285C70.1383 9.99548 70.3404 5.31027 70.7453 4.47443C72.516 2.95524 75.1856 2.19552 78.7526 2.19552Z" fill="#548236"/>
<path d="M98.8641 22.7368C98.8641 21.8288 98.9435 21.1104 99.2227 20.356C99.5022 19.6017 99.8547 19.2993 100.196 19.3831C100.47 19.4274 100.674 19.7338 100.845 20.4531C101.016 21.1731 101.028 21.8639 101.028 22.7158C101.028 24.1968 100.678 24.8987 100.16 24.961C100.03 24.9474 98.8397 25.0628 98.8641 22.7368ZM107.544 23.1056C107.544 21.5173 107.203 19.0413 106.095 16.4497C105.598 15.2973 104.77 14.0241 103.468 13.1089C102.166 12.1939 100.825 11.7364 99.4448 11.7364C99.1344 11.7364 98.8407 11.7621 98.5653 11.8141C95.4946 12.3836 93.4849 14.9217 92.5365 19.4282C92.3294 20.4119 92.2258 21.4829 92.2258 22.6393C92.2258 25.1604 92.8727 27.301 94.1664 29.0621C95.6841 31.1339 97.8149 32.1699 100.557 32.1699C102.041 32.1699 103.348 31.7645 104.478 30.9528C106.565 29.4532 107.544 26.1586 107.544 23.1056Z" fill="#7FCC4E"/>
<path d="M100.072 20.0227C100.008 20.0974 99.9023 20.2539 99.787 20.5649C99.556 21.1892 99.466 21.7982 99.466 22.7368V22.743C99.4598 23.3239 99.5354 24.2913 100.1 24.3553C100.158 24.3027 100.428 23.9868 100.428 22.7158C100.428 21.8851 100.416 21.2466 100.261 20.5918C100.186 20.2766 100.117 20.1086 100.072 20.0227ZM100.165 25.5659L100.108 25.5602C99.5449 25.5436 98.2384 25.2344 98.2635 22.7334C98.2638 21.6559 98.3786 20.9064 98.6594 20.1471C99.1867 18.7251 99.9765 18.7186 100.316 18.7937C101.104 18.9393 101.332 19.9011 101.431 20.3143C101.616 21.0947 101.63 21.8323 101.63 22.7158C101.63 24.9255 100.87 25.481 100.233 25.5578L100.165 25.5659ZM99.4454 12.3375C99.1723 12.3375 98.914 12.3602 98.6776 12.4048C95.8423 12.9306 94.0269 15.2683 93.1254 19.5519C92.9278 20.4909 92.8276 21.5297 92.8276 22.6393C92.8276 25.0174 93.4412 27.0587 94.6516 28.7061C96.0627 30.6325 97.9944 31.5686 100.558 31.5686C101.926 31.5686 103.093 31.2074 104.128 30.4645C105.838 29.2355 106.943 26.347 106.943 23.1056C106.943 22.1598 106.807 19.641 105.543 16.6861C105.152 15.7806 104.415 14.5088 103.123 13.6008C101.93 12.7625 100.693 12.3375 99.4454 12.3375ZM100.558 32.771C97.6256 32.771 95.3121 31.6427 93.6821 29.4173C92.3174 27.5596 91.6252 25.2789 91.6252 22.6393C91.6252 21.4466 91.7342 20.3246 91.9489 19.3043C92.9479 14.5574 95.1373 11.8384 98.4563 11.2229C98.7639 11.1647 99.0975 11.135 99.4454 11.135C100.945 11.135 102.415 11.6337 103.815 12.6169C105.337 13.6866 106.195 15.1622 106.647 16.2118C108 19.3727 108.145 22.0858 108.145 23.1056C108.145 27.4943 106.432 30.289 104.829 31.441C103.6 32.3235 102.163 32.771 100.558 32.771Z" fill="#548236"/>
<path fill-rule="evenodd" clip-rule="evenodd" d="M116.449 25.0201C116.12 25.0201 115.205 24.8871 115.214 22.7237C115.214 21.813 115.354 20.979 115.633 20.2222C115.913 19.4653 116.18 19.1778 116.521 19.262C116.813 19.2902 116.999 19.6788 117.17 20.4004C117.34 21.1224 117.379 21.848 117.379 22.7026C117.379 24.1884 117.005 24.9355 116.449 25.0201ZM122.433 16.4497C121.878 15.1788 121.109 14.0242 119.806 13.109C118.504 12.194 117.162 11.7364 115.783 11.7364C115.472 11.7364 115.179 11.7621 114.903 11.8142C111.832 12.3837 109.823 14.9217 108.874 19.4283C108.667 20.4119 108.564 21.4829 108.564 22.6394C108.564 25.1604 109.21 27.301 110.504 29.0621C112.022 31.1339 114.153 32.1699 116.895 32.1699C118.379 32.1699 119.685 31.7645 120.815 30.9528C122.902 29.4532 123.881 26.1586 123.881 23.1057C123.881 21.5173 123.458 18.8176 122.433 16.4497Z" fill="#7FCC4E"/>
<path d="M116.41 19.9562C116.357 20.0468 116.285 20.1941 116.198 20.4304C115.944 21.1171 115.816 21.8888 115.816 22.7236C115.812 23.8214 116.067 24.1969 116.177 24.3075C116.238 24.369 116.305 24.4033 116.386 24.4145C116.497 24.3463 116.778 23.9499 116.778 22.7025C116.778 22.0029 116.755 21.2564 116.585 20.5386C116.515 20.2434 116.455 20.0641 116.41 19.9562ZM116.495 25.6211H116.449C116.017 25.6211 115.628 25.4602 115.325 25.156C114.842 24.6704 114.609 23.8739 114.614 22.721C114.614 21.7464 114.767 20.8349 115.069 20.0142C115.212 19.6271 115.644 18.4602 116.625 18.6688C117.405 18.7799 117.632 19.7409 117.755 20.2618C117.953 21.0998 117.981 21.93 117.981 22.7025C117.981 23.9311 117.731 25.4333 116.54 25.6143L116.495 25.6211ZM115.783 12.3375C115.51 12.3375 115.252 12.36 115.015 12.4047C112.18 12.9305 110.365 15.2683 109.463 19.5519C109.266 20.4901 109.166 21.529 109.166 22.6393C109.166 25.0176 109.779 27.0589 110.989 28.7061C112.4 30.6325 114.333 31.5686 116.896 31.5686C118.244 31.5686 119.445 31.1971 120.465 30.4646C122.175 29.2354 123.281 26.3469 123.281 23.1056C123.281 21.5195 122.848 18.9206 121.882 16.6898C121.286 15.3239 120.516 14.3424 119.461 13.6007C118.268 12.7625 117.03 12.3375 115.783 12.3375ZM116.896 32.771C113.964 32.771 111.65 31.6427 110.02 29.4174C108.655 27.5599 107.963 25.2792 107.963 22.6393C107.963 21.4458 108.072 20.3239 108.286 19.3042C109.286 14.5574 111.475 11.8384 114.794 11.2229C115.102 11.1647 115.435 11.135 115.783 11.135C117.283 11.135 118.753 11.6336 120.152 12.6169C121.396 13.4908 122.296 14.6322 122.984 16.209L122.985 16.2106C124.02 18.5997 124.483 21.395 124.483 23.1056C124.483 27.4941 122.77 30.2889 121.166 31.4409C119.938 32.3234 118.501 32.771 116.896 32.771Z" fill="#548236"/>
<path d="M126.197 6.63981V8.13342H127.205C127.819 8.13342 128.196 8.01743 128.338 7.78496C128.404 7.66885 128.437 7.51948 128.437 7.33684C128.437 6.87239 128.076 6.63981 127.354 6.63981H126.197ZM127.018 8.90514H126.197V10.7475C126.197 11.0048 126.06 11.1333 125.786 11.1333C125.512 11.1333 125.375 11.0048 125.375 10.7475V6.117C125.375 5.95118 125.466 5.86808 125.649 5.86808H127.342C127.964 5.86808 128.421 5.96342 128.711 6.15398C129.076 6.39437 129.259 6.80479 129.259 7.38487C129.259 8.23861 128.829 8.72767 127.97 8.85195L129.111 10.6219C129.176 10.7218 129.209 10.8215 129.209 10.9212C129.209 11.0709 129.051 11.1456 128.736 11.1456C128.529 11.1456 128.363 11.0461 128.238 10.847L127.018 8.90514ZM127.267 12.0793C128.246 12.0793 129.089 11.7197 129.794 11.0001C130.499 10.2806 130.852 9.43311 130.852 8.45714C130.852 7.47301 130.501 6.61927 129.8 5.89558C129.099 5.17201 128.255 4.8101 127.267 4.8101C126.288 4.8101 125.446 5.17201 124.74 5.89558C124.035 6.61927 123.683 7.47301 123.683 8.45714C123.683 9.43311 124.037 10.2806 124.747 11.0001C125.456 11.7197 126.296 12.0793 127.267 12.0793ZM127.267 13.0625C126.006 13.0625 124.919 12.6104 124.006 11.7058C123.093 10.8015 122.637 9.71865 122.637 8.45714C122.637 7.1793 123.089 6.08806 123.994 5.18354C124.898 4.27913 125.989 3.82681 127.267 3.82681C128.545 3.82681 129.632 4.27913 130.528 5.18354C131.425 6.08806 131.873 7.1793 131.873 8.45714C131.873 9.71865 131.42 10.8015 130.516 11.7058C129.611 12.6104 128.529 13.0625 127.267 13.0625Z" fill="#3E4142"/>
</svg>
