<svg width="133" height="100" viewBox="0 0 133 100" fill="none" xmlns="http://www.w3.org/2000/svg">
<g clip-path="url(#clip0_229_14570)">
<path d="M70.8191 89.648C70.1597 89.648 69.4811 89.616 68.8089 89.552C67.4324 89.4175 66.1968 88.7517 65.3197 87.689C64.4427 86.6198 64.0393 85.2754 64.1738 83.9053C64.4363 81.2485 66.645 79.2511 69.3018 79.2511C69.4747 79.2511 69.6475 79.2575 69.8204 79.2767C70.1533 79.3087 70.499 79.3279 70.8447 79.3279C75.2173 79.3279 79.8908 76.735 83.6744 72.2216C87.1507 68.0731 89.4619 63.0603 90.3518 57.721C90.8511 54.744 90.9215 51.6454 91.0048 48.3612C91.0304 47.3176 91.056 46.2357 91.0944 45.1665C91.2608 40.6531 91.7154 35.365 93.8025 30.3842C96.2608 24.5135 100.685 20.1153 105.941 18.3292C107.701 17.7274 109.558 17.4265 111.459 17.4265C113.271 17.4265 115.102 17.7018 116.901 18.2523C118.245 18.6621 119.564 19.2254 120.813 19.9233C122.746 21.0052 124.519 22.4329 125.934 24.0526C130.358 29.1166 132.151 36.3637 130.736 43.438C129.955 47.3368 128.271 50.6339 125.864 52.9706C123.181 55.5763 119.443 57.0744 115.608 57.0744C114.276 57.0744 112.964 56.8951 111.715 56.5366C108.566 55.6403 105.922 53.7261 104.27 51.1461C103.553 50.0193 103.041 48.7837 102.753 47.4777C102.26 45.2498 102.458 42.9258 103.316 40.922C104.129 39.0206 105.998 37.7914 108.066 37.7914C108.303 37.7914 108.54 37.8106 108.777 37.8426C109.231 37.9066 109.68 38.0283 110.096 38.2139C112.714 39.3343 113.931 42.3753 112.81 44.9937C112.791 45.0641 112.829 45.3522 112.97 45.5763C113.245 46.0116 113.847 46.4021 114.539 46.6006C114.872 46.6966 115.23 46.7415 115.608 46.7415C116.747 46.7415 117.919 46.2869 118.674 45.5571C119.808 44.4559 120.358 42.689 120.614 41.4021C120.729 40.8196 120.813 40.2242 120.851 39.6416C121.082 36.3189 120.076 33.0283 118.162 30.8452C116.498 28.9438 113.931 27.7594 111.459 27.7594C110.685 27.7594 109.948 27.8746 109.276 28.1051C108.47 28.3804 107.676 28.8221 106.927 29.4303C105.454 30.6083 104.187 32.3624 103.348 34.3663C101.901 37.8234 101.568 41.9591 101.434 45.5443C101.395 46.5558 101.37 47.5929 101.35 48.6044C101.267 52.1064 101.184 55.7235 100.557 59.4303C99.3594 66.5814 96.2608 73.2971 91.6066 78.8541C86.5105 84.9425 79.75 88.8349 73.0662 89.5391C72.3108 89.6096 71.5617 89.648 70.8191 89.648Z" fill="#A7592C"/>
<path d="M111.46 18.3803C113.169 18.3803 114.904 18.6428 116.626 19.1613C117.919 19.5519 119.168 20.0896 120.346 20.7554C122.189 21.7862 123.854 23.1242 125.211 24.6799C129.437 29.5198 131.152 36.4597 129.795 43.2458C129.052 46.9526 127.465 50.0768 125.198 52.2791C122.65 54.7567 119.136 56.114 115.608 56.114C114.385 56.114 113.163 55.9475 111.978 55.6146C109.052 54.7823 106.607 53.0154 105.083 50.6338C104.417 49.5967 103.95 48.4507 103.694 47.2791C103.246 45.2689 103.406 43.1626 104.2 41.3124C104.885 39.7183 106.434 38.7644 108.067 38.7644C108.259 38.7644 108.451 38.7772 108.643 38.8028C109.001 38.854 109.366 38.9501 109.718 39.1037C111.85 40.0192 112.843 42.4904 111.927 44.6223C111.767 45 111.863 45.6402 112.164 46.1012C112.567 46.735 113.361 47.2663 114.277 47.5288C114.705 47.6504 115.154 47.7081 115.608 47.7081C116.972 47.7081 118.387 47.1831 119.341 46.2548C120.653 44.9808 121.268 43.0218 121.556 41.6005C121.684 40.9731 121.767 40.3393 121.805 39.7119C122.049 36.146 120.992 32.6376 118.88 30.2177C116.991 28.0538 114.136 26.799 111.453 26.799C110.595 26.799 109.75 26.927 108.963 27.1959C108.041 27.5096 107.151 28.0154 106.319 28.6812C104.738 29.9488 103.374 31.799 102.452 33.9949C100.947 37.5928 100.602 41.831 100.467 45.5058C100.429 46.5173 100.403 47.5672 100.378 48.5787C100.294 52.0487 100.211 55.6402 99.5967 59.2638C98.4251 66.2484 95.4033 72.8041 90.8579 78.233C85.8451 84.2189 79.379 87.9001 72.9513 88.5788C72.2407 88.6556 71.5237 88.694 70.8195 88.694C70.1793 88.694 69.539 88.662 68.9052 88.598C66.5941 88.3675 64.904 86.3124 65.1344 84.0013C65.3457 81.831 67.1767 80.2113 69.3086 80.2113C69.4494 80.2113 69.5903 80.2177 69.7311 80.2305C70.1024 80.2689 70.4737 80.2881 70.8515 80.2881C75.4609 80.2881 80.4545 77.5672 84.4174 72.8361C88.0026 68.5531 90.3841 63.3867 91.3124 57.8809C91.8182 54.8464 91.895 51.7094 91.9782 48.3803C92.0038 47.3432 92.0294 46.2676 92.0679 45.1921C92.2343 40.7618 92.676 35.5826 94.7055 30.749C97.055 25.128 101.274 20.9347 106.261 19.2382C107.926 18.662 109.68 18.3803 111.46 18.3803ZM111.46 16.4597C109.456 16.4597 107.497 16.7798 105.634 17.4136C100.122 19.2894 95.4866 23.8796 92.9193 30.0064C90.7746 35.128 90.3073 40.525 90.1344 45.1216C90.096 46.2036 90.0704 47.2855 90.0448 48.3291C89.968 51.5749 89.8976 54.6479 89.4046 57.5544C88.5403 62.7209 86.2996 67.58 82.9321 71.5941C79.3854 75.8259 74.8656 78.3547 70.8387 78.3547C70.525 78.3547 70.2113 78.3419 69.904 78.3099C69.7055 78.2907 69.4942 78.2779 69.2894 78.2779C66.1332 78.2779 63.5147 80.653 63.201 83.8028C62.8681 87.1639 65.3329 90.1665 68.694 90.4994C69.4046 90.5698 70.1088 90.6018 70.8003 90.6018C71.5749 90.6018 72.3624 90.557 73.137 90.4802C80.0704 89.7503 87.0615 85.7362 92.3111 79.4622C97.0743 73.7772 100.243 66.9014 101.472 59.5775C102.068 56.0435 102.177 52.612 102.26 49.2894C102.567 50.1152 102.958 50.9091 103.438 51.6581C105.211 54.4366 108.054 56.4917 111.428 57.452C112.766 57.8361 114.168 58.0282 115.589 58.0282C119.673 58.0282 123.656 56.4341 126.517 53.6492C129.065 51.178 130.845 47.7081 131.665 43.6172C133.137 36.2548 131.261 28.7004 126.645 23.4123C125.141 21.6837 123.329 20.2241 121.268 19.0717C119.962 18.3355 118.579 17.7465 117.164 17.3175C115.288 16.7478 113.367 16.4597 111.46 16.4597ZM102.894 39.6607C103.169 37.9449 103.579 36.2612 104.219 34.7311C104.994 32.8745 106.165 31.2548 107.516 30.1729C108.182 29.6351 108.873 29.2446 109.577 29.0077C110.154 28.8092 110.781 28.7132 111.453 28.7132C113.656 28.7132 115.947 29.7695 117.433 31.4725C119.181 33.4699 120.096 36.4981 119.885 39.5711C119.846 40.1216 119.776 40.6722 119.667 41.21C119.341 42.8425 118.745 44.1357 118.003 44.8656C117.42 45.4289 116.504 45.7811 115.602 45.7811C115.314 45.7811 115.045 45.7426 114.802 45.6722C114.277 45.5186 113.924 45.2497 113.803 45.0896C114.936 42.0551 113.483 38.6172 110.474 37.3239C109.974 37.1127 109.449 36.9654 108.905 36.8886C108.63 36.8502 108.342 36.831 108.06 36.831C105.941 36.831 104.008 37.9193 102.894 39.6607Z" fill="#7C3D1E"/>
<g opacity="0.17">
<path d="M106.312 28.6748C104.731 29.9424 103.367 31.7926 102.446 33.9885C100.941 37.5864 100.595 41.8246 100.461 45.4994C100.422 46.5109 100.397 47.5608 100.371 48.5723C100.288 52.0423 100.205 55.6338 99.5966 59.2574C98.4251 66.242 95.4033 72.7977 90.8578 78.2266C85.845 84.2126 79.379 87.8937 72.9513 88.5723C73.886 87.0871 75.2752 86.1972 77.0422 85.493C79.3021 84.6031 81.4468 83.0154 83.2842 81.4533C87.1062 78.2074 90.096 74.0397 92.1959 69.5006C93.3994 66.895 94.3213 64.1549 94.9359 61.3444C96.4916 54.2318 96.274 46.8118 98.0281 39.7439C99.0268 35.7234 100.858 31.6133 104.36 29.3918C104.949 29.0205 105.615 28.7004 106.312 28.6748Z" fill="#7C3D1E"/>
</g>
<g opacity="0.17">
<path d="M121.095 45.0769C120.679 45.8452 120.122 46.5366 119.469 47.1256C117.772 48.6557 115.34 49.4431 113.118 48.8926C110.897 48.3484 109.027 46.3509 108.906 44.0718C108.835 42.785 109.277 41.5174 109.213 40.237C109.181 39.6544 108.938 39.2063 108.637 38.8029C108.995 38.8541 109.36 38.9502 109.712 39.1038C111.844 40.0193 112.836 42.4905 111.921 44.6224C111.761 45.0001 111.857 45.6403 112.158 46.1013C112.561 46.7351 113.355 47.2664 114.271 47.5289C115.98 48.0155 118.061 47.4905 119.335 46.2549C120.647 44.9809 121.262 43.0219 121.55 41.6006C121.678 40.9732 121.761 40.3394 121.799 39.712C122.196 41.511 121.985 43.4508 121.095 45.0769Z" fill="#7C3D1E"/>
</g>
<g opacity="0.17">
<path d="M129.795 43.2457C129.053 46.9525 127.465 50.0767 125.199 52.279C121.767 55.6145 116.575 56.9205 111.979 55.6145C109.053 54.7822 106.607 53.0152 105.084 50.6337C104.418 49.5966 103.95 48.4506 103.694 47.279C103.912 47.3558 104.098 47.4967 104.264 47.6503C104.892 48.2265 105.308 48.9884 105.794 49.6862C106.991 51.3827 109.04 51.9269 110.935 52.5031C112.081 52.8488 113.233 53.2009 114.431 53.2841C116.703 53.4442 118.816 52.8424 120.653 51.7348C122.363 50.7041 123.829 49.2444 124.981 47.5543C130.237 39.8142 127.99 30.1087 122.03 23.4954C121.3 22.6887 120.474 21.8117 120.352 20.7553C122.196 21.7861 123.861 23.1241 125.218 24.6798C129.443 29.5197 131.153 36.4596 129.795 43.2457Z" fill="#7C3D1E"/>
</g>
<g opacity="0.17">
<path d="M58.6299 73.9437C58.9436 73.6748 59.3853 73.4251 59.7438 73.6364C60.1344 73.8668 60.0832 74.4366 60.0127 74.8912C59.4558 78.3739 60.9794 82.0294 63.6235 84.3662C66.2675 86.7029 69.8911 87.7721 73.4186 87.6312C73.6427 87.6248 73.8796 87.612 74.0588 87.7465C74.5262 88.0922 74.046 88.8156 73.5595 89.1293C71.005 90.7554 67.676 90.9731 64.8271 89.9424C61.9782 88.9052 59.6286 86.7093 58.1561 84.0589C56.4916 81.0627 55.7554 76.4405 58.6299 73.9437Z" fill="#7C3D1E"/>
</g>
<path d="M57.2663 75.1793C55.3393 79.5006 57.3687 84.1421 60.5506 87.1639C63.822 90.2689 68.4315 91.4213 72.5864 89.4942C74.1485 88.7708 75.5121 87.4136 75.9155 85.6914" stroke="#7C3D1E" stroke-width="6" stroke-miterlimit="10" stroke-linecap="round" stroke-linejoin="round"/>
<path d="M33.8732 93.6364C31.6709 93.6364 29.411 93.3547 27.42 93.105L26.959 93.0474C26.2036 92.9577 25.4673 92.8681 24.7439 92.7913C24.6479 92.7785 24.5519 92.7785 24.4558 92.7785C24.4558 92.7785 24.3278 92.7785 24.315 92.7785C23.886 92.7913 23.4315 92.8873 22.9513 92.9834C22.3816 93.105 21.7926 93.2266 21.1268 93.2394H21.0371C19.9616 93.2394 19.0461 92.8809 18.4507 92.2215C18.2138 91.9654 18.041 91.6645 17.9385 91.3124C17.8681 91.0948 17.8361 90.8835 17.8041 90.6914C17.7849 90.5698 17.7657 90.4481 17.7337 90.3265C17.6761 90.1729 17.612 90.0704 17.5352 89.9552C17.3752 89.7055 17.1511 89.3662 17.0999 88.886C17.0999 88.8732 17.0935 88.726 17.0935 88.7196C17.0871 88.6492 17.0935 88.5275 17.1127 88.3867C17.1191 88.3355 17.1255 88.2843 17.1383 88.2394C17.1447 88.2202 17.1639 88.1306 17.1703 88.1178C17.1703 88.1178 17.1767 88.0794 17.1895 88.041C17.2151 87.9513 17.2599 87.8297 17.2599 87.8297L17.2983 87.7273C17.2983 87.7273 17.3047 87.7017 17.3111 87.6825C17.3111 87.6761 17.2919 87.6056 17.2919 87.5672C17.2919 87.5672 17.2663 87.4392 17.2599 87.4328C17.2471 87.3496 17.2343 87.2599 17.2215 87.1703C17.2215 87.1511 17.2151 87.1319 17.2151 87.1191C17.2087 87.0935 17.2087 87.0358 17.2023 86.9654C17.1959 86.895 17.1959 86.8118 17.1959 86.7286C17.1959 86.6773 17.1959 86.6261 17.2023 86.5749C17.2023 86.5429 17.2279 86.3316 17.2279 86.3316C17.2407 86.242 17.2471 86.1844 17.2599 86.1268C17.2663 86.1076 17.2919 85.9795 17.2983 85.9603C17.3111 85.9091 17.3239 85.8515 17.3431 85.8003C17.3559 85.7554 17.3752 85.7042 17.3944 85.653C17.4008 85.6274 17.4328 85.5442 17.4392 85.5378C17.4776 85.4481 17.5032 85.3841 17.5352 85.3265C17.5352 85.3201 17.6184 85.1665 17.6248 85.1601C17.644 85.1216 17.6889 85.0448 17.7401 84.9744L17.8233 84.8527C17.8425 84.8271 17.9513 84.6863 17.9833 84.6479L18.0474 84.5711C18.0986 84.507 18.137 84.4686 18.1754 84.4302C18.1754 84.4302 18.2074 84.3982 18.2394 84.3662L18.4507 84.1677C18.5787 84.0525 18.7196 83.9437 18.8668 83.8476C18.9373 83.8028 19.0077 83.7516 19.0845 83.7004C19.1677 83.6492 19.2702 83.5851 19.3726 83.5275C20.8771 82.6633 23.0154 82.1063 25.717 81.8694C26.7029 81.7798 27.6825 81.7734 28.5083 81.7734L30.4481 81.7798C30.8643 81.7798 31.274 81.7798 31.6901 81.767C29.6095 79.3214 28.4763 76.0627 28.662 72.8489C28.886 68.9309 31.0755 65.1793 34.3662 63.041C35.2113 62.484 36.0371 62.0999 36.8758 61.863C37.548 61.6773 38.2522 61.5813 38.9821 61.5813C40.4481 61.5813 41.9526 61.9654 43.3419 62.7017C45.0576 63.6044 46.6325 65.0384 48.0218 66.9654C49.1613 68.5403 49.7951 69.9296 50.0256 71.338C50.2241 72.5544 50.096 73.7964 49.9936 74.7951C49.6351 78.3547 49.1165 81.2868 47.7593 84.0077C47.5736 84.3854 47.3624 84.7567 47.1511 85.1152C46.9974 85.3649 46.8374 85.6146 46.6773 85.8579C46.2228 86.5301 45.6978 87.2087 45.1216 87.8745L44.8015 88.2394C42.8425 90.4609 40.1152 93.0666 36.3252 93.5083C35.5506 93.5915 34.7503 93.6364 33.8732 93.6364Z" fill="#A7592C"/>
<path d="M38.9821 62.5416C40.3329 62.5416 41.6901 62.9129 42.8937 63.5467C44.6479 64.475 46.0819 65.9155 47.2471 67.5224C48.1114 68.7132 48.8476 70.0384 49.0781 71.4917C49.2509 72.548 49.1485 73.6364 49.0397 74.6991C48.7324 77.7465 48.2714 80.8259 46.9014 83.5787C46.7285 83.9309 46.5365 84.2766 46.3316 84.6159C46.1908 84.8527 46.0371 85.0832 45.8835 85.3137C45.4289 85.9795 44.9296 86.6197 44.3918 87.2471C44.2894 87.3688 44.1869 87.4904 44.0781 87.6056C41.9782 89.9872 39.5134 92.1703 36.21 92.5544C35.4481 92.644 34.6671 92.6825 33.8796 92.6825C31.7862 92.6825 29.6351 92.42 27.5416 92.1575C27.452 92.1447 27.3559 92.1383 27.2663 92.1255C27.2087 92.1191 27.1447 92.1127 27.0871 92.1063C26.3252 92.0166 25.5826 91.9206 24.8463 91.8438C24.7183 91.831 24.5903 91.8246 24.4622 91.8246C24.4302 91.8246 24.3918 91.8246 24.3598 91.8246H24.3534C23.2522 91.8438 22.2599 92.2663 21.1139 92.2855C21.0883 92.2855 21.0627 92.2855 21.0371 92.2855C20.3457 92.2855 19.6223 92.0935 19.1613 91.5813C19.0013 91.4084 18.9116 91.2292 18.854 91.0371C18.758 90.717 18.7516 90.3777 18.6492 90.0512C18.6364 90.0128 18.6235 89.9744 18.6107 89.936C18.4379 89.475 18.0986 89.2253 18.0538 88.7836C18.0538 88.7772 18.0538 88.7708 18.0538 88.7708C18.0538 88.7708 18.0538 88.7644 18.0538 88.758C18.0538 88.7452 18.0538 88.7388 18.0538 88.726C18.0474 88.6684 18.0538 88.6044 18.0666 88.5403C18.0666 88.5339 18.073 88.5275 18.073 88.5211C18.073 88.4955 18.0794 88.4699 18.0858 88.4443C18.0858 88.4379 18.0922 88.4251 18.0922 88.4187C18.0922 88.4059 18.0986 88.3931 18.0986 88.3803C18.105 88.3611 18.1114 88.3419 18.1178 88.3163C18.1242 88.2906 18.1306 88.2714 18.1434 88.2458C18.1498 88.2138 18.1626 88.1882 18.1754 88.1562C18.1882 88.1178 18.2074 88.073 18.2202 88.0346C18.2458 87.9641 18.265 87.8937 18.2714 87.8169C18.2714 87.7913 18.2778 87.7657 18.2778 87.7401C18.2778 87.7273 18.2778 87.7145 18.2778 87.7017C18.2778 87.6889 18.2778 87.6761 18.2778 87.6697C18.2778 87.6633 18.2778 87.6504 18.2714 87.644C18.2714 87.644 18.2714 87.6376 18.2714 87.6312C18.2714 87.6184 18.2714 87.6056 18.265 87.5928C18.265 87.5864 18.265 87.58 18.2586 87.5736C18.2586 87.5608 18.2522 87.548 18.2522 87.5288C18.2522 87.5224 18.2522 87.516 18.2458 87.5096C18.2394 87.4776 18.233 87.4392 18.2202 87.4072C18.2202 87.4008 18.2202 87.3944 18.2202 87.388C18.2138 87.356 18.2074 87.3239 18.201 87.2919C18.1882 87.2279 18.1818 87.1575 18.1754 87.0935C18.1754 87.0871 18.1754 87.0743 18.1754 87.0615C18.169 87.023 18.169 86.9846 18.169 86.9462C18.1626 86.8822 18.1626 86.8118 18.1626 86.7478C18.1626 86.7221 18.1626 86.6965 18.169 86.6709C18.169 86.6581 18.169 86.6389 18.169 86.6261C18.169 86.6133 18.169 86.6005 18.1754 86.5813C18.1754 86.5493 18.1818 86.5173 18.1882 86.4853C18.1882 86.4725 18.1882 86.4597 18.1946 86.4469C18.201 86.4084 18.2074 86.37 18.2138 86.338V86.3316V86.3188C18.2138 86.3124 18.2138 86.3124 18.2138 86.3124C18.2138 86.306 18.2138 86.306 18.2138 86.306V86.2996C18.2138 86.2868 18.2202 86.2676 18.2266 86.2548C18.2394 86.2164 18.2458 86.1716 18.2586 86.1332C18.2714 86.0947 18.2778 86.0627 18.2906 86.0307C18.297 86.0115 18.3034 85.9859 18.3163 85.9667C18.3163 85.9539 18.3227 85.9411 18.3291 85.9283C18.3419 85.8963 18.3547 85.8643 18.3739 85.8323C18.3867 85.8003 18.4059 85.7682 18.4251 85.7362C18.4315 85.7234 18.4379 85.7106 18.4507 85.6914C18.4763 85.6466 18.5083 85.5954 18.5339 85.5506C18.5531 85.525 18.5723 85.493 18.5915 85.4673C18.6107 85.4417 18.63 85.4161 18.6492 85.3905C18.6684 85.3649 18.6876 85.3393 18.7132 85.3137C18.7324 85.2881 18.758 85.2625 18.7772 85.2369C18.7964 85.2113 18.822 85.1857 18.8476 85.1665C18.8668 85.1408 18.8924 85.1152 18.918 85.0896C18.9437 85.064 18.9693 85.0448 18.9949 85.0192C19.0205 84.9936 19.0461 84.9744 19.0717 84.9488C19.1805 84.8592 19.2894 84.7695 19.4046 84.6863C19.4622 84.6479 19.5134 84.6095 19.5775 84.5711C19.6607 84.5198 19.7503 84.4686 19.8399 84.4174C21.5301 83.4507 23.918 83.0474 25.7938 82.8809C26.6965 82.8041 27.5992 82.7849 28.5019 82.7849C29.0141 82.7849 29.5326 82.7913 30.0448 82.7913C30.1792 82.7913 30.3073 82.7913 30.4417 82.7913C31.0179 82.7913 31.5941 82.7849 32.1703 82.7657C32.3111 82.7593 33.662 82.5608 33.79 82.5608C33.7964 82.5608 33.7964 82.5608 33.8028 82.5608C31.0115 80.2497 29.411 76.5749 29.6223 72.9577C29.8335 69.3406 31.8502 65.8707 34.8912 63.8988C35.5954 63.4443 36.3508 63.0602 37.1575 62.8361C37.7337 62.6184 38.3547 62.5416 38.9821 62.5416ZM38.9821 60.621C38.169 60.621 37.3751 60.7298 36.6197 60.9411C35.685 61.2036 34.7759 61.6261 33.8284 62.2407C30.2881 64.5391 27.9321 68.5851 27.6888 72.7977C27.5288 75.6018 28.297 78.4443 29.7951 80.8195H29.379C29.0845 80.8195 28.7836 80.8131 28.4891 80.8131C27.644 80.8131 26.6389 80.8259 25.6146 80.9155C22.7721 81.1652 20.5058 81.7606 18.8732 82.6953C18.758 82.7593 18.6428 82.8297 18.5275 82.9001C18.4571 82.9449 18.3675 83.0026 18.2778 83.0666C18.1178 83.1754 17.9577 83.3035 17.8041 83.4379L17.7337 83.5019C17.7209 83.5147 17.6889 83.5403 17.676 83.5531C17.6248 83.5979 17.5864 83.6364 17.5544 83.6684C17.5224 83.7004 17.484 83.7388 17.4456 83.7772C17.4072 83.822 17.3623 83.8604 17.3239 83.9052L17.2535 83.9885C17.2407 84.0013 17.2343 84.0141 17.2215 84.0269C17.1831 84.0717 17.1511 84.1165 17.1127 84.1613C17.0807 84.1997 17.0486 84.2381 17.023 84.283C16.9974 84.3214 16.9718 84.3534 16.9462 84.3918C16.9334 84.411 16.927 84.4174 16.9142 84.4366C16.863 84.5198 16.8118 84.6031 16.7606 84.6863C16.7413 84.7119 16.7285 84.7439 16.7157 84.7695C16.6901 84.8143 16.6709 84.8591 16.6453 84.904C16.6069 84.9744 16.5749 85.0448 16.5493 85.1152C16.5365 85.1472 16.5237 85.1793 16.5109 85.2113C16.5045 85.2241 16.5045 85.2305 16.4981 85.2433C16.4917 85.2689 16.4789 85.2881 16.4725 85.3137C16.4469 85.3777 16.4276 85.4481 16.402 85.5186C16.3828 85.5698 16.37 85.6338 16.3508 85.7042C16.3444 85.7362 16.3316 85.7682 16.3252 85.8067C16.3124 85.8579 16.2996 85.9027 16.2932 85.9539C16.2804 86.0307 16.2676 86.1012 16.2548 86.178C16.2484 86.2356 16.242 86.2932 16.2356 86.3508L16.2292 86.3828C16.2228 86.4341 16.2228 86.4789 16.2164 86.5173C16.21 86.5877 16.21 86.6517 16.21 86.7222C16.21 86.8182 16.21 86.9206 16.2164 87.023C16.2228 87.0999 16.2228 87.1639 16.2356 87.2407C16.2356 87.2471 16.2356 87.2535 16.2356 87.2599C16.2484 87.3624 16.2612 87.4712 16.2804 87.5736C16.2804 87.5864 16.2868 87.5992 16.2868 87.612C16.2804 87.6376 16.2676 87.6632 16.2612 87.6889C16.2548 87.7081 16.242 87.7465 16.2356 87.7657C16.2228 87.8105 16.21 87.8553 16.2036 87.8937C16.1972 87.9129 16.1908 87.9449 16.1844 87.9769C16.178 87.9962 16.178 88.0154 16.1716 88.0346C16.1716 88.0474 16.1652 88.0602 16.1652 88.073C16.1524 88.1242 16.146 88.1818 16.1396 88.2394C16.1396 88.2458 16.1396 88.2458 16.1396 88.2522C16.1139 88.4251 16.1075 88.5915 16.1075 88.7452C16.1075 88.7516 16.1075 88.7516 16.1075 88.758C16.1075 88.822 16.1139 88.8924 16.1203 88.9565C16.1203 88.9629 16.1203 88.9757 16.1203 88.9821C16.1972 89.6927 16.5173 90.1793 16.7093 90.4738C16.7413 90.5186 16.7734 90.5762 16.7926 90.6082C16.8054 90.6658 16.8246 90.7618 16.831 90.8387C16.863 91.0435 16.9078 91.306 16.9974 91.5941C17.1447 92.0743 17.3944 92.5096 17.7337 92.8809C18.4955 93.7196 19.6671 94.1933 21.0115 94.1933H21.1267C21.8822 94.1805 22.5416 94.0397 23.1306 93.918C23.5723 93.8284 23.9565 93.7452 24.3086 93.7324C24.3214 93.7324 24.3278 93.7324 24.3406 93.7324C24.3598 93.7324 24.379 93.7324 24.3982 93.7324H24.443C24.5006 93.7324 24.5647 93.7388 24.6287 93.7452C25.3521 93.822 26.0947 93.9117 26.8374 94.0013C26.8886 94.0077 26.9526 94.0141 27.0166 94.0205C27.0999 94.0333 27.1831 94.0397 27.2663 94.0525C29.3086 94.3086 31.6005 94.5967 33.8604 94.5967C34.7759 94.5967 35.6082 94.5518 36.4148 94.4558C40.5314 93.9757 43.4315 91.2228 45.4993 88.8732C45.5762 88.79 45.6466 88.7004 45.7234 88.6172L45.8259 88.5019C46.4276 87.8041 46.9718 87.0935 47.452 86.3892C47.6248 86.1332 47.7977 85.8707 47.9577 85.6082C48.1882 85.2305 48.4059 84.8335 48.6043 84.4302C50.1088 81.4149 50.6146 78.0602 50.9347 74.8912C51.0435 73.8348 51.178 72.5224 50.9603 71.178C50.7042 69.6159 50.0128 68.0922 48.79 66.3956C47.3111 64.3534 45.6274 62.8233 43.7772 61.8438C42.2599 61.0435 40.6018 60.621 38.9821 60.621Z" fill="#7C3D1E"/>
<path d="M45.7939 84.6159C45.9347 84.5903 46.082 84.5519 46.2228 84.4878C46.1268 84.84 45.9155 85.1473 45.6979 85.4417C43.3803 88.6428 40.3842 92.0551 36.2036 92.5416C33.4123 92.8681 30.4162 92.5032 27.5353 92.1447C27.4456 92.1319 27.3496 92.1255 27.26 92.1127C27.2023 92.1063 27.1383 92.0999 27.0807 92.0935C26.3189 92.0038 25.5762 91.9078 24.84 91.831C24.6735 91.8118 24.5135 91.8054 24.3534 91.8118H24.347C23.2459 91.831 22.2536 92.2535 21.1076 92.2727C20.397 92.2855 19.6351 92.0999 19.155 91.5685C18.9949 91.3956 18.9053 91.2164 18.8477 91.0243C18.8605 90.8259 18.9117 90.621 18.9117 90.4417C18.9309 90.3713 18.9501 90.3009 18.9309 90.2305C18.8989 90.1344 18.8029 90.0768 18.7132 90.0128C18.6748 89.9872 18.6364 89.9616 18.6044 89.9296C18.2651 89.6543 18.0602 89.219 18.041 88.7772C18.041 88.7708 18.041 88.758 18.041 88.7516C18.041 88.7388 18.041 88.7324 18.041 88.7196C18.041 88.6556 18.041 88.5915 18.0538 88.5339C18.0538 88.5275 18.0538 88.5211 18.0538 88.5147C18.0602 88.4827 18.0666 88.4443 18.073 88.4123C18.0794 88.3803 18.0858 88.3419 18.0986 88.3099C18.105 88.2843 18.1114 88.265 18.1178 88.2394C18.1242 88.2074 18.137 88.1818 18.1499 88.1498C18.1627 88.1114 18.1819 88.0666 18.1947 88.0282C18.2203 87.9577 18.2395 87.8873 18.2459 87.8105C18.2459 87.7849 18.2523 87.7593 18.2523 87.7337C18.2523 87.7081 18.2523 87.6825 18.2523 87.6569C18.2523 87.6504 18.2523 87.6376 18.2523 87.6312C18.2523 87.6312 18.2523 87.6248 18.2523 87.6184C18.2523 87.6056 18.2523 87.5928 18.2459 87.58C18.2459 87.5736 18.2459 87.5672 18.2459 87.5608C18.2459 87.548 18.2395 87.5352 18.2395 87.5224C18.2395 87.516 18.2395 87.5096 18.2395 87.4968C18.2331 87.4648 18.2267 87.4264 18.2203 87.3944C18.2203 87.388 18.2203 87.3816 18.2203 87.3752C18.2139 87.3431 18.2075 87.3111 18.2011 87.2791C18.1563 87.0423 18.1434 86.8182 18.1627 86.6069C18.1627 86.5941 18.1627 86.5813 18.1691 86.5621C18.1691 86.5301 18.1755 86.4981 18.1819 86.4661C18.1819 86.4533 18.1819 86.4405 18.1883 86.4277C18.1947 86.3892 18.2011 86.3508 18.2075 86.3188V86.3124C18.2075 86.306 18.2075 86.2996 18.2139 86.2932C18.2203 86.274 18.2203 86.2548 18.2267 86.2292C18.2331 86.1908 18.2459 86.146 18.2587 86.1076C18.2715 86.0691 18.2779 86.0371 18.2907 86.0051C18.2971 85.9859 18.3035 85.9603 18.3163 85.9411C18.3163 85.9283 18.3227 85.9155 18.3291 85.9027C18.3419 85.8707 18.3547 85.8387 18.3739 85.8067C18.3867 85.7746 18.4059 85.7426 18.4251 85.7106C18.4315 85.6978 18.4443 85.685 18.4507 85.6658C18.4764 85.621 18.5084 85.5698 18.534 85.525C18.5532 85.4994 18.5724 85.4674 18.5916 85.4417C18.6108 85.4161 18.63 85.3905 18.6492 85.3649C18.6684 85.3393 18.6876 85.3137 18.7132 85.2881C18.7324 85.2625 18.758 85.2369 18.7773 85.2113C18.7965 85.1857 18.8221 85.1601 18.8477 85.1409C18.8669 85.1152 18.8925 85.0896 18.9181 85.064C20.2625 83.6812 22.4136 83.1562 24.2638 82.8233C25.6466 82.5736 27.0487 82.5032 28.4443 82.5096C29.6735 82.5096 30.9091 82.5672 32.1383 82.5992C32.6505 82.612 33.3227 82.3752 33.8029 82.5992C34.2958 82.8297 34.7952 83.6236 35.2497 83.9757C36.3317 84.8079 37.6057 85.3969 38.9437 85.6722C40.9668 86.0948 43.1242 85.8067 44.9616 84.8656C45.2177 84.6991 45.5058 84.6735 45.7939 84.6159Z" fill="#DDB176"/>
<g opacity="0.47">
<path d="M46.9015 83.5787C46.6006 84.1741 46.2548 84.7503 45.8707 85.3137C45.4226 85.9795 44.9168 86.6197 44.3854 87.2471C44.283 87.3688 44.1742 87.484 44.0717 87.6056C41.9719 89.9872 39.5071 92.1703 36.2036 92.5544C33.4123 92.8809 30.4162 92.516 27.5353 92.1575C27.4456 92.1447 27.3496 92.1319 27.26 92.1255C27.2023 92.1191 27.1383 92.1127 27.0807 92.1063C26.7542 92.0102 26.4277 91.927 26.0948 91.863C26.0436 91.8502 25.986 91.8438 25.9347 91.8374C25.8707 91.831 25.8003 91.8182 25.7363 91.8118C25.6851 91.8054 25.6338 91.799 25.5826 91.7926C25.5634 91.7926 25.5506 91.7926 25.5314 91.7862C25.525 91.7862 25.5186 91.7862 25.5186 91.7862C25.461 91.7798 25.4034 91.7798 25.3394 91.7734C25.2113 91.767 25.0897 91.767 24.9616 91.767C24.8784 91.767 24.7952 91.7734 24.7119 91.7798C24.6671 91.7798 24.6287 91.7862 24.5839 91.7926C24.5007 91.799 24.4175 91.8118 24.3342 91.8246C24.3278 91.8246 24.315 91.8246 24.3086 91.831C24.3022 91.831 24.2958 91.831 24.2894 91.8374C24.1486 91.8566 24.0013 91.8758 23.8605 91.9014C23.7965 91.9142 23.7324 91.9206 23.6684 91.9334C23.6108 91.9398 23.5532 91.9526 23.4956 91.9654C23.4251 91.9782 23.3547 91.991 23.2843 92.0038C23.2139 92.0166 23.1434 92.0295 23.073 92.0423C23.0026 92.0551 22.9322 92.0679 22.8618 92.0807C22.7849 92.0935 22.7081 92.1063 22.6313 92.1255C22.5609 92.1383 22.4904 92.1511 22.4264 92.1639C22.292 92.1895 22.1575 92.2087 22.0295 92.2343C21.6838 92.2919 21.3317 92.3303 20.9796 92.3432C20.3201 92.3624 19.2318 92.1511 18.8989 91.4789C18.8925 91.4661 18.8861 91.4469 18.8797 91.4277C18.8733 91.4148 18.8669 91.3956 18.8605 91.3764C18.8541 91.3572 18.8541 91.3444 18.8477 91.3252C18.8413 91.306 18.8413 91.2932 18.8413 91.274C18.8285 91.2036 18.8349 91.1268 18.8349 91.0563C18.8477 90.8579 18.8989 90.653 18.8989 90.4738C18.8989 90.461 18.9053 90.4481 18.9117 90.4289C18.9181 90.3905 18.9309 90.3585 18.9309 90.3201C18.9309 90.3009 18.9309 90.2753 18.9245 90.2561C18.9245 90.2433 18.9181 90.2305 18.9117 90.2177C18.9053 90.2049 18.8989 90.1985 18.8925 90.1857C18.8797 90.1664 18.8605 90.1472 18.8413 90.128C18.8093 90.1024 18.7773 90.0768 18.7452 90.0576C18.7324 90.0512 18.7196 90.0448 18.7132 90.0384C18.7004 90.032 18.694 90.0256 18.6812 90.0192C18.6684 90.0128 18.662 90.0064 18.6556 90C18.6364 89.9872 18.6172 89.9744 18.6044 89.9552C18.5596 89.9168 18.5212 89.8848 18.4828 89.8399C18.4636 89.8207 18.4443 89.8015 18.4251 89.7759C18.4059 89.7567 18.3867 89.7311 18.3739 89.7119C18.3419 89.6671 18.3099 89.6223 18.2779 89.5775C18.2651 89.5583 18.2523 89.5327 18.2395 89.5134C18.2331 89.507 18.2331 89.5006 18.2267 89.4942C18.2139 89.475 18.2075 89.4558 18.1947 89.4302C18.1819 89.4046 18.1691 89.379 18.1627 89.3534C18.1499 89.3278 18.1434 89.3022 18.1306 89.2766C18.1306 89.2766 18.1306 89.2766 18.1306 89.2702C18.1242 89.251 18.1178 89.2254 18.1114 89.1997C18.0986 89.1677 18.0922 89.1357 18.0858 89.0973C18.0794 89.0653 18.073 89.0333 18.0666 89.0013C18.0602 88.9693 18.0602 88.9437 18.0538 88.9117C18.0474 88.8668 18.041 88.822 18.041 88.7772V88.7708C18.041 88.726 18.041 88.6876 18.041 88.6428C18.041 88.6236 18.041 88.6044 18.0474 88.5787C18.0474 88.5659 18.0538 88.5467 18.0538 88.5275C18.0538 88.4955 18.0602 88.4699 18.0666 88.4379C18.073 88.4123 18.073 88.3931 18.0794 88.3739C18.0858 88.3547 18.0922 88.3355 18.0986 88.3099C18.1563 88.1178 18.2523 87.9321 18.2587 87.7337C18.2587 87.7209 18.2587 87.7081 18.2587 87.6953C18.2587 87.6825 18.2587 87.6697 18.2587 87.6568C18.2587 87.6312 18.2523 87.6056 18.2523 87.58C18.2523 87.5608 18.2459 87.5416 18.2395 87.516C18.2331 87.4648 18.2203 87.42 18.2075 87.3688C18.2011 87.3367 18.1947 87.3047 18.1883 87.2727C18.1755 87.2087 18.1627 87.1383 18.1563 87.0743C18.1563 87.0679 18.1563 87.0551 18.1563 87.0423C18.1499 87.0038 18.1499 86.9654 18.1499 86.927C18.1434 86.863 18.1434 86.7926 18.1434 86.7286C18.1434 86.7029 18.1434 86.6773 18.1434 86.6517C18.1434 86.6389 18.1434 86.6197 18.1434 86.6069C18.1434 86.5941 18.1434 86.5749 18.1499 86.5621C18.1563 86.5301 18.1563 86.4981 18.1627 86.4597C18.1627 86.4405 18.1691 86.4213 18.1691 86.4021C18.1755 86.3828 18.1755 86.3636 18.1819 86.3444C18.1819 86.3316 18.1883 86.3188 18.1883 86.306V86.2932C18.1883 86.2868 18.1883 86.2804 18.1947 86.274V86.2676C18.2331 86.0883 18.3099 85.7746 18.4315 85.6594C18.4571 85.6338 18.4828 85.621 18.5148 85.6146C18.534 85.717 18.5212 85.8323 18.5596 85.9347C18.63 86.146 18.8285 86.2868 19.0333 86.3508C19.2446 86.4149 19.4687 86.4148 19.6863 86.4148C19.5967 86.4148 19.4047 86.6005 19.3342 86.6517C19.1998 86.7478 19.0717 86.8502 18.9501 86.9654C18.9245 86.991 18.8989 87.0166 18.8733 87.0423C18.5212 87.4072 18.1691 88.0026 18.5404 88.4507C18.8989 88.8796 19.6927 88.9757 20.2177 88.9181C20.2305 88.9181 20.2433 88.9116 20.2561 88.9244C20.2625 88.9244 20.2625 88.9309 20.2689 88.9373C20.2817 88.9501 20.2817 88.9757 20.2689 88.9949C20.2561 89.0205 20.2305 89.0333 20.2113 89.0461C19.9552 89.1933 19.712 89.3598 19.4751 89.5454C19.2958 89.6863 19.1166 89.8399 19.0205 90.0448C18.8669 90.3841 19.0845 90.8195 19.3598 91.0371C20.5378 91.9718 22.8682 91.0499 24.1678 90.8451C25.5186 90.6338 26.8758 90.6978 28.2395 90.8387C30.1217 91.0307 32.0103 91.3508 33.8925 91.2356C36.2484 91.0947 38.566 90.3713 40.6018 89.1805C42.8746 87.8489 44.712 85.6594 46.607 83.854C46.703 83.7452 46.799 83.6556 46.9015 83.5787Z" fill="#7C3D1E"/>
</g>
<path d="M17.9318 87.8233C18.5848 87.0615 19.5131 86.5877 20.4734 86.5109" stroke="#7C3D1E" stroke-width="2" stroke-miterlimit="10" stroke-linecap="round" stroke-linejoin="round"/>
<path d="M18.3995 90.3841C18.8861 89.5967 19.7056 89.0205 20.6146 88.8284" stroke="#7C3D1E" stroke-width="2" stroke-miterlimit="10" stroke-linecap="round" stroke-linejoin="round"/>
<path d="M29.5647 69.7759C30.2881 67.9962 31.1716 66.2228 32.4648 64.7887C35.4162 61.5109 41.3125 62.2919 44.6479 64.6031C46.5109 65.8963 47.9258 67.8233 48.5916 69.9872C49.1358 71.7606 49.1806 73.6428 48.9757 75.4737C48.8029 77.0423 48.2139 78.4187 47.977 79.9424" stroke="#A7592C" stroke-width="16" stroke-miterlimit="10" stroke-linecap="round" stroke-linejoin="round"/>
<path d="M29.7506 70.0255C27.5483 74.2573 29.4497 78.982 32.6187 82.1382C35.8837 85.3841 40.6341 86.7413 45.0451 84.9935C46.7096 84.3405 48.1949 83.0409 48.6878 81.338" fill="#A7592C"/>
<path d="M29.7506 70.0255C27.5483 74.2573 29.4497 78.982 32.6187 82.1382C35.8837 85.3841 40.6341 86.7413 45.0451 84.9935C46.7096 84.3405 48.1949 83.0409 48.6878 81.338" stroke="#7C3D1E" stroke-width="6" stroke-miterlimit="10" stroke-linecap="round" stroke-linejoin="round"/>
<g opacity="0.17">
<path d="M59.5258 55.5635C59.1224 56.2101 59.2377 57.0552 59.5066 57.7722C60.2364 59.7248 61.8753 61.1653 63.5142 62.4521C68.0021 65.9732 73.1109 69.1806 75.6269 74.3023C77.4771 78.0667 77.6564 82.6185 76.1007 86.511C75.6909 87.5353 75.1596 88.566 75.2428 89.6672C77.3235 89.0654 78.6807 87.0808 79.5962 85.1153C81.1071 81.8695 81.8817 78.1307 80.9278 74.6736C80.4477 72.945 79.5514 71.3509 78.5463 69.8657C75.8958 65.9476 72.4003 62.5993 68.367 60.1281C66.6448 59.0718 64.8011 58.1883 63.1813 56.9719C62.3299 56.3317 60.6653 53.7581 59.5258 55.5635Z" fill="#7C3D1E"/>
</g>
<path d="M31.6651 96.1265C31.2233 96.1265 30.788 96.0305 30.4039 95.8513C30.3143 95.8065 30.2246 95.7616 30.135 95.7168C30.0582 95.672 29.9365 95.608 29.8981 95.6016C29.8917 95.6016 29.8789 95.6016 29.8725 95.6016C29.7957 95.6016 29.7445 95.608 29.6933 95.608C29.6228 95.6144 29.5588 95.6208 29.4884 95.6208H29.3155C28.1184 95.6208 27.1004 95.1919 26.2874 94.3532C24.2899 92.2917 24.1171 88.1752 24.1939 85.9089C24.4884 76.8308 26.3898 69.0459 29.8277 62.7591C31.8764 59.0139 34.0595 56.7091 36.6907 55.4992C37.9839 54.9102 39.5012 54.5645 40.8584 54.5645C42.4909 54.5645 43.8354 55.0574 44.7445 55.9921C46.7227 58.0216 46.2105 61.4659 45.8712 63.7514C44.8917 70.3327 42.1324 76.4531 39.1491 82.6694C38.3808 84.2636 37.5166 86.0753 37.715 87.8103C37.7726 88.3161 37.9263 88.8346 38.0863 89.3852C38.2592 89.9806 38.4384 90.5952 38.5217 91.261C38.6625 92.439 38.3232 93.5849 37.5934 94.4108C36.934 95.1534 36.0313 95.5568 35.0454 95.5568C34.6164 95.5568 34.1811 95.4799 33.7522 95.3263C33.2016 95.8321 32.4525 96.1265 31.6651 96.1265Z" fill="#A7592C"/>
<path d="M40.8646 55.5249C42.081 55.5249 43.259 55.8322 44.0656 56.658C45.7237 58.3546 45.2308 61.562 44.9235 63.6491C43.9504 70.2112 41.1399 76.3251 38.2974 82.2534C37.4395 84.0396 36.5496 85.9538 36.7737 87.9192C36.9081 89.0972 37.4395 90.1984 37.5803 91.3699C37.7916 93.1241 36.6456 94.5902 35.0579 94.5902C34.6802 94.5902 34.2769 94.5069 33.8607 94.3213C33.7775 94.2829 33.6879 94.2445 33.5983 94.2445C33.5855 94.2445 33.5791 94.2445 33.5662 94.2445C33.4254 94.2637 33.3294 94.3853 33.2333 94.4877C32.8428 94.9231 32.2538 95.1599 31.6712 95.1599C31.3767 95.1599 31.0823 95.1023 30.8134 94.9743C30.5701 94.8591 30.3396 94.699 30.0771 94.6478C30.0067 94.635 29.9363 94.6286 29.8723 94.6286C29.7378 94.6286 29.597 94.6478 29.4625 94.6478C29.4177 94.6478 29.3729 94.6478 29.3217 94.6478C25.3396 94.6478 25.0707 88.6427 25.1604 85.9282C25.4164 78.0665 26.9017 70.1087 30.6789 63.2073C32.177 60.4672 34.1808 57.6952 37.1002 56.3571C38.1181 55.9026 39.5202 55.5249 40.8646 55.5249ZM40.8646 53.6042C39.3729 53.6042 37.7084 53.9756 36.2935 54.6222C32.5739 56.3251 30.3396 59.8142 28.9824 62.2918C25.4677 68.7131 23.5342 76.6452 23.2333 85.8706C23.1373 88.8283 23.4702 92.8104 25.5957 95.0127C26.5816 96.037 27.8684 96.5748 29.3153 96.5748C29.3857 96.5748 29.4497 96.5748 29.5202 96.5684C29.5778 96.5684 29.6354 96.562 29.6994 96.562C29.7954 96.6132 29.8979 96.6644 29.9939 96.7156C30.5061 96.9525 31.0823 97.0806 31.6648 97.0806C32.4971 97.0806 33.2974 96.8309 33.9632 96.3763C34.3281 96.466 34.693 96.5044 35.0515 96.5044C36.3127 96.5044 37.4715 95.9794 38.3166 95.0319C39.2321 94.0012 39.6546 92.5863 39.4817 91.1331C39.3921 90.3904 39.1936 89.7054 39.0144 89.1036C38.8671 88.5978 38.7263 88.1177 38.6751 87.6888C38.5086 86.2291 39.3089 84.5517 40.0195 83.0729C43.0349 76.7861 45.8262 70.5889 46.8185 63.9179L46.8249 63.8731C47.1706 61.5556 47.7468 57.6759 45.4356 55.3072C44.3473 54.1996 42.766 53.6042 40.8646 53.6042Z" fill="#7C3D1E"/>
<path d="M37.5744 91.3698C37.8305 93.5401 36.0187 95.2751 33.8548 94.3276C33.7588 94.2892 33.6627 94.238 33.5603 94.2508C33.4195 94.27 33.3234 94.3916 33.2274 94.5004C32.6384 95.147 31.6077 95.3583 30.8074 94.9806C30.5641 94.8654 30.3337 94.7053 30.0712 94.6541C29.8663 94.6157 29.6615 94.6477 29.4566 94.6605C25.3401 94.8013 25.0648 88.6874 25.1544 85.9409C25.2184 84.0075 25.3529 82.0613 25.5834 80.1342C27.7024 79.7437 29.8919 79.7309 31.9918 80.2111C34.1429 80.704 36.1916 81.7284 37.8561 83.1688C37.1583 84.6861 36.5757 86.2802 36.7677 87.9191C36.9086 89.0971 37.4335 90.1983 37.5744 91.3698Z" fill="#DDB176"/>
<path d="M30.2563 95.2816C29.2768 94.2445 28.7006 92.8424 28.6622 91.4212" stroke="#7C3D1E" stroke-width="2" stroke-miterlimit="10" stroke-linecap="round" stroke-linejoin="round"/>
<path d="M33.5982 94.7182C32.6379 93.9115 32.0297 92.708 31.9529 91.4596" stroke="#7C3D1E" stroke-width="6" stroke-miterlimit="10" stroke-linecap="round" stroke-linejoin="round"/>
<g opacity="0.47">
<path d="M30.673 63.22C26.8958 70.1214 25.4169 78.0792 25.1544 85.9409C25.0648 88.6874 25.3401 94.8013 29.4566 94.6605C29.6615 94.6541 29.8727 94.6221 30.0712 94.6541C30.3337 94.7053 30.5641 94.8653 30.8074 94.9806C31.6077 95.3519 32.632 95.147 33.2274 94.494C33.3234 94.3916 33.4195 94.27 33.5603 94.2508C33.6627 94.2379 33.7588 94.2828 33.8548 94.3276C36.0187 95.2815 37.8305 93.5401 37.5744 91.3698C37.4335 90.1983 36.9022 89.0907 36.7677 87.9191C36.5373 85.9473 37.4271 84.0395 38.2914 82.2533C41.1339 76.325 43.9444 70.2111 44.9175 63.649C45.2248 61.5683 45.7178 58.3609 44.0597 56.6579C42.3631 54.9166 39.0405 55.4735 37.0942 56.3698C34.1749 57.7079 32.1711 60.4799 30.673 63.22Z" fill="#7C3D1E"/>
</g>
<path d="M53.4379 93.822C48.6428 93.822 43.1883 93.2522 39.123 89.0205C35.6915 85.4545 33.2203 80.5698 31.5557 74.0973C29.9296 67.7721 29.4751 62.3175 30.1985 57.8873C30.4482 56.3508 30.8451 54.9104 31.3765 53.6108C32.5289 50.8003 33.8093 47.8489 35.7235 45.3585C37.4456 43.1178 39.4239 41.5685 41.7862 40.6274C43.0794 40.1088 44.3726 39.8015 45.6338 39.7055C45.9219 39.6863 46.2036 39.6735 46.4853 39.6735C50.2753 39.6735 53.6684 41.6197 56.0308 45.1472C56.6966 46.146 57.2728 47.2535 57.7337 48.4507C58.9181 51.5301 60.3073 54.6991 63.073 56.6901C63.5916 57.0615 64.155 57.3944 64.744 57.6633C73.1819 61.5877 81.7094 69.6671 81.7542 78.8732C81.7734 83.4507 79.219 88.0026 75.0769 90.7554C70.9924 93.4699 66.5493 93.694 61.9783 93.694L59.8592 93.6876C59.1358 93.6876 58.1883 93.694 57.2472 93.726C56.0244 93.7772 54.712 93.822 53.4379 93.822Z" fill="#A7592C"/>
<path d="M46.4853 40.6274C50.128 40.6274 53.1754 42.6056 55.2305 45.6786C55.8643 46.6197 56.402 47.6697 56.831 48.7964C58.137 52.1895 59.6159 55.3905 62.5096 57.4712C63.0602 57.8681 63.6684 58.2266 64.3342 58.5403C71.9142 62.0679 80.7426 69.7823 80.7875 78.886C80.8067 83.3035 78.2202 87.516 74.5391 89.9616C70.6338 92.5608 66.3508 92.7401 61.9718 92.7401C61.2676 92.7401 60.5634 92.7337 59.8528 92.7337C58.9757 92.7337 58.0922 92.7401 57.2087 92.7721C55.9539 92.8169 54.6863 92.8617 53.4251 92.8617C48.3867 92.8617 43.4827 92.1831 39.8015 88.3547C35.9987 84.3982 33.8156 79.0973 32.4712 73.8604C31.242 69.0717 30.2817 63.2458 31.1332 58.0474C31.3636 56.6389 31.7286 55.2689 32.2535 53.9821C33.3931 51.1972 34.6543 48.3227 36.4725 45.9475C37.9257 44.0525 39.7375 42.4776 42.1319 41.5237C43.3675 41.0307 44.5583 40.749 45.6978 40.6658C45.9667 40.6402 46.2292 40.6274 46.4853 40.6274ZM46.4853 38.7068C46.178 38.7068 45.8707 38.7196 45.5634 38.7452C44.1997 38.8476 42.8105 39.1805 41.4277 39.7375C38.9052 40.749 36.7862 42.3944 34.9616 44.7759C32.9706 47.3688 31.6581 50.3841 30.4866 53.2522C29.9296 54.6159 29.5134 56.1268 29.251 57.7337C28.5083 62.2983 28.9693 67.8809 30.6274 74.3342C32.3303 80.9731 34.8848 85.9923 38.4315 89.6863C42.7465 94.1805 48.4379 94.7823 53.4379 94.7823C54.7311 94.7823 56.0499 94.7375 57.2919 94.6927C58.2138 94.6607 59.1549 94.6543 59.8656 94.6543C60.2177 94.6543 60.5698 94.6543 60.9219 94.6543C61.274 94.6543 61.6325 94.6543 61.9846 94.6543C66.7093 94.6543 71.3124 94.4174 75.6146 91.5557C80.0192 88.6236 82.7401 83.7644 82.7209 78.8668C82.6761 69.2382 73.8668 60.8387 65.1536 56.7862C64.6159 56.5365 64.1101 56.242 63.6428 55.9027C61.338 54.2446 60.0192 51.6837 58.6364 48.0986C58.1498 46.8374 57.548 45.6594 56.8374 44.6031C54.283 40.8067 50.6082 38.7068 46.4853 38.7068Z" fill="#7C3D1E"/>
<path d="M37.8614 98.2393C37.3556 98.2393 36.869 98.1177 36.4401 97.8872C36.3569 97.8424 36.2672 97.7912 36.184 97.7336C36.1072 97.6888 35.992 97.6183 35.9535 97.6055C35.9343 97.5991 35.9151 97.5991 35.8959 97.5991C35.8831 97.5991 35.5438 97.5991 35.5438 97.5991C34.3978 97.5735 33.4183 97.1702 32.6437 96.3891C30.5502 94.2957 30.595 89.9871 30.8063 87.6055C31.6066 78.5594 33.9369 70.8898 37.7269 64.8078C39.9804 61.1843 42.2916 59.0012 44.9868 57.9448C46.1392 57.4903 47.5028 57.2342 48.7256 57.2342C50.5822 57.2342 52.0611 57.804 53.0022 58.8859C54.8652 61.0242 54.1546 64.4429 53.6872 66.7028C53.476 67.7336 53.2199 68.7387 52.9318 69.7246C52.8934 69.8527 52.855 69.9871 52.8165 70.1151C51.2672 75.2496 48.7064 80.1215 46.4273 84.2893L45.9215 85.2048C45.0701 86.7541 44.097 88.5146 44.2058 90.2624L44.2186 90.448C44.2634 90.909 44.3722 91.3699 44.4875 91.8565C44.6283 92.4583 44.7756 93.0857 44.814 93.7515C44.9036 95.2432 44.2442 96.6132 43.0918 97.3366C42.5605 97.6759 41.9395 97.8488 41.2993 97.8488C40.8063 97.8488 40.3069 97.7464 39.8204 97.5415C39.2698 97.9961 38.5784 98.2393 37.8614 98.2393Z" fill="#A7592C"/>
<path d="M48.7193 58.2009C50.0893 58.2009 51.4273 58.553 52.2724 59.5261C53.8281 61.3123 53.1623 64.4877 52.7334 66.5556C52.5285 67.5351 52.2852 68.5082 52.0035 69.4685C51.9651 69.5966 51.9267 69.7246 51.8883 69.8527C50.4094 74.7502 48.0278 79.3597 45.5759 83.8411C45.4094 84.1484 45.2366 84.4557 45.0701 84.7566C44.1098 86.498 43.1175 88.3482 43.2327 90.3328C43.2391 90.4096 43.2455 90.4865 43.2519 90.5697C43.3608 91.6644 43.7769 92.7272 43.8473 93.8283C43.9177 95.0063 43.3992 96.0242 42.5733 96.5364C42.202 96.7733 41.7602 96.9077 41.2929 96.9077C40.8768 96.9077 40.4286 96.8053 39.9741 96.5684C39.8844 96.5236 39.7948 96.4724 39.6988 96.4724C39.6924 96.4724 39.6924 96.4724 39.686 96.4724C39.5451 96.4852 39.4363 96.6004 39.3403 96.6964C38.9497 97.0806 38.4056 97.279 37.8614 97.279C37.5285 97.279 37.1956 97.2022 36.8947 97.0422C36.6578 96.9141 36.4401 96.7413 36.1777 96.6772C36.0688 96.6516 35.96 96.6452 35.8447 96.6452C35.7743 96.6452 35.7039 96.6452 35.6399 96.6452C35.6143 96.6452 35.5887 96.6452 35.5695 96.6452C34.6092 96.626 33.8793 96.2739 33.3223 95.7169C31.4914 93.8859 31.5746 89.8014 31.7602 87.6952C32.4581 79.8591 34.3787 71.9973 38.54 65.32C40.1917 62.6696 42.3428 60.0127 45.3326 58.8411C46.2737 58.4762 47.5093 58.2009 48.7193 58.2009ZM48.7193 56.2803C47.3812 56.2803 45.8896 56.562 44.6284 57.055C40.8191 58.5466 38.3928 61.9077 36.9011 64.3085C33.0342 70.5185 30.6591 78.3354 29.8396 87.5287C29.5643 90.6401 29.7052 94.827 31.9587 97.0806C32.8998 98.0217 34.129 98.5402 35.5182 98.5658H35.6335H35.6975C35.7935 98.6235 35.8896 98.6811 35.9856 98.7323C36.549 99.0332 37.1956 99.1996 37.855 99.1996C38.604 99.1996 39.3339 98.9948 39.9549 98.6235C40.3902 98.7579 40.8383 98.8219 41.2865 98.8219C42.106 98.8219 42.8998 98.5915 43.5912 98.1561C45.0445 97.247 45.8768 95.5377 45.7615 93.7003C45.7167 92.9512 45.5503 92.2598 45.4094 91.6452C45.3006 91.1907 45.2045 90.7553 45.1597 90.3648C45.1533 90.2944 45.1469 90.2432 45.1469 90.1984C45.0637 88.7451 45.96 87.1126 46.7474 85.6785C46.9203 85.3712 47.0803 85.0703 47.2468 84.763C49.5515 80.5441 52.1444 75.6209 53.7193 70.3968C53.7641 70.256 53.8025 70.1215 53.8409 69.9807C54.1354 68.9884 54.3915 67.9576 54.6028 66.9333L54.6092 66.9013C55.0829 64.603 55.8768 60.7553 53.7065 58.2585C52.5925 56.9653 50.864 56.2803 48.7193 56.2803Z" fill="#7C3D1E"/>
<path d="M43.8537 93.8155C43.9881 95.9986 42.0803 97.6311 39.974 96.5556C39.8844 96.5108 39.7884 96.4532 39.6859 96.4596C39.5451 96.4724 39.4427 96.5876 39.3402 96.69C38.7128 97.3046 37.6757 97.4519 36.8946 97.0358C36.6578 96.9077 36.4401 96.7349 36.1776 96.6708C35.9792 96.6196 35.7679 96.6452 35.563 96.6388C31.4465 96.5492 31.5105 90.4352 31.7538 87.6952C31.9267 85.7681 32.1699 83.8347 32.5092 81.9205C33.1879 81.8309 33.8793 81.7861 34.5643 81.7797C36.0304 81.7669 37.4964 81.9461 38.9049 82.3559C40.2557 82.7464 41.5553 83.3482 42.7269 84.1356C43.3927 84.5774 44.0201 85.0831 44.5963 85.6401C43.8153 87.119 43.143 88.6747 43.2455 90.32C43.3159 91.5108 43.7833 92.6375 43.8537 93.8155Z" fill="#DDB176"/>
<path d="M53.0791 73.2009C52.983 72.9961 53.0919 72.5863 53.1047 72.4071C53.1303 72.1446 53.1047 71.8501 52.9254 71.6516C52.855 71.5812 52.7717 71.5236 52.6757 71.4852C52.3044 71.3251 51.8499 71.4084 51.5105 71.6324C51.1712 71.8565 50.928 72.2086 50.7615 72.5799C49.5131 72.2662 48.6424 70.9986 48.2647 69.8398C47.8742 68.6491 47.8614 67.2854 48.3479 66.1139C48.8345 64.9423 48.9753 63.6043 48.7385 62.3431C48.1367 62.3431 47.4452 62.5415 46.805 62.9128C45.8511 63.457 44.91 64.3981 44.0778 65.6209C43.3863 66.658 42.298 67.4135 41.0944 67.7144C39.8204 68.0345 38.668 67.7656 37.458 67.3623C37.426 67.1574 37.5413 66.9653 37.5989 66.7733C37.7333 66.3507 37.5733 65.813 37.17 65.6337C36.9139 65.5185 36.6194 65.5633 36.3505 65.6273C36.152 65.6721 35.9728 65.7425 35.8319 65.8962C34.225 64.4749 34.5131 61.4852 35.5951 59.8783C37.3172 57.3302 39.3723 55.3648 41.709 54.0268C44.654 52.3366 47.9894 51.7285 51.0944 52.3238C52.983 52.6824 54.5771 53.457 55.8383 54.6222C57.3364 56.005 58.3287 57.932 58.7961 60.352C59.4171 63.585 59.065 67.0294 57.8038 70.0575C57.3492 71.1587 56.4593 72.0934 55.4222 72.6696C54.878 72.9705 54.3338 73.0921 53.7321 73.2137C53.5656 73.2457 53.2711 73.4186 53.1239 73.2778C53.1047 73.2521 53.0919 73.2265 53.0791 73.2009Z" fill="#A7592C"/>
<g opacity="0.17">
<path d="M52.1059 69.4941C50.5823 74.5133 48.1047 79.2445 45.5823 83.8347C45.4158 84.142 45.2429 84.4493 45.0765 84.7502C44.1162 86.4916 43.1239 88.3418 43.2391 90.3264C43.2455 90.4032 43.2519 90.4801 43.2583 90.5633C43.3671 91.658 43.7833 92.7208 43.8537 93.8219C43.9241 94.9999 43.4056 96.0178 42.5797 96.53C41.8755 96.9717 40.9472 97.055 39.9741 96.562C39.8844 96.5172 39.7884 96.466 39.686 96.4724C39.5451 96.4852 39.4427 96.6004 39.3403 96.6964C38.7129 97.311 37.6757 97.4647 36.9011 97.0422C36.6642 96.9141 36.4465 96.7413 36.184 96.6772C35.9856 96.6324 35.7743 96.6516 35.5695 96.6452C35.1469 96.6324 34.7308 96.562 34.3339 96.402C34.1226 96.3123 33.4376 96.0306 33.4504 95.7553C33.5912 95.7553 33.7321 95.8066 33.8857 95.7873C34.1802 95.7489 34.4235 95.5313 34.5707 95.2688C34.7116 95.0063 34.7756 94.7118 34.8268 94.4173C34.8012 94.5325 34.9997 94.8399 35.0509 94.9551C35.1405 95.16 35.2429 95.3584 35.3582 95.5441C35.7167 96.1331 36.4657 96.8885 37.2084 96.4916C37.8742 96.1395 38.2135 95.1087 38.2775 94.4045C38.2775 94.3853 38.2839 94.3661 38.2903 94.3533C38.3095 94.3213 38.3607 94.3277 38.3864 94.3533C38.412 94.3789 38.4248 94.4109 38.4376 94.4493C38.5656 94.827 38.7193 95.1984 38.8921 95.5569C39.0266 95.8322 39.1802 96.1139 39.4299 96.2931C39.8396 96.594 40.4734 96.4212 40.8383 96.1139C41.184 95.8258 41.4273 95.352 41.4721 94.9039C41.5426 94.2381 41.3441 93.5722 41.2417 92.9192C41.0176 91.498 41.4977 89.9999 41.9203 88.6107C42.8998 85.4352 44.4363 82.4647 45.96 79.5261C46.1712 79.11 46.3761 78.6939 46.5874 78.2777C47.0163 77.4199 51.0752 69.5069 52.0035 69.4685C52.0483 69.4557 52.0803 69.4685 52.1059 69.4941Z" fill="#7C3D1E"/>
</g>
<path d="M36.2289 97.1318C35.403 96.0562 35.0253 94.7054 35.179 93.4122" stroke="#7C3D1E" stroke-width="2" stroke-miterlimit="10" stroke-linecap="round" stroke-linejoin="round"/>
<path d="M39.7438 97.2086C38.8348 96.3507 38.2906 95.1088 38.2842 93.8604" stroke="#7C3D1E" stroke-width="2" stroke-miterlimit="10" stroke-linecap="round" stroke-linejoin="round"/>
<g opacity="0.15">
<path d="M40.691 91.6836C40.6654 92.2598 40.9407 93.3738 40.7166 93.8795C40.5245 94.3277 39.7755 94.4621 39.417 94.174C38.8792 93.7387 39.0137 92.3815 37.9957 92.8552C37.522 93.0729 37.522 93.5722 37.4388 94.014C37.3811 94.3085 37.2275 94.6734 36.9394 94.6414C36.8242 94.6286 36.7345 94.5518 36.6577 94.4685C36.1647 93.9756 35.9343 93.2906 35.7294 92.6375C35.595 92.2214 35.2493 91.9717 34.8331 92.3366C34.6155 92.5287 34.513 92.8232 34.449 93.1113C34.3594 93.4826 34.2185 94.3597 33.6167 94.206C33.4759 94.1676 33.3671 94.0588 33.2838 93.9436C32.8357 93.3674 32.6692 92.6183 32.5732 91.8949C32.3235 90.1151 32.4003 88.3034 32.5796 86.5172C32.6756 85.6017 32.8741 84.6798 32.9509 83.7643C32.9893 83.2777 32.7845 82.2598 33.1942 81.8949C33.6744 81.466 35.4157 81.7861 35.9919 81.8309C36.9778 81.9077 37.9637 82.0806 38.9112 82.3559C40.2621 82.7464 41.5617 83.3482 42.7333 84.1356C42.554 85.1792 42.0546 86.1331 41.6705 87.119C41.0943 88.5786 40.7614 90.1215 40.691 91.6836Z" fill="white"/>
</g>
<g opacity="0.08">
<path d="M38.7004 67.6569C39.2254 66.959 39.7951 66.338 40.4289 65.8643C41.0948 65.3649 41.9398 65.064 42.7593 65.2049C45.1473 65.6274 46.0883 68.4059 46.2484 70.493C46.6197 75.3329 44.6671 80.0192 42.6825 84.4494C41.863 83.3035 40.4545 82.7145 39.0653 82.4904C37.6761 82.2663 36.2548 82.3496 34.8528 82.2471C34.5006 82.2215 34.1229 82.1767 33.8412 81.959C33.3803 81.6069 33.3291 80.9347 33.3611 80.3585C33.4955 77.5672 34.5391 74.9296 35.8643 72.4968C36.6581 71.0371 37.5672 69.1677 38.7004 67.6569Z" fill="white"/>
</g>
<path d="M49.0716 99.0397C48.0857 99.0397 47.2215 98.7196 46.6453 98.137C46.3956 97.8937 46.2163 97.5992 46.0883 97.2535C46.0115 97.0359 45.9667 96.831 45.9282 96.6453C45.9026 96.5237 45.8834 96.402 45.8386 96.2868C45.7746 96.1332 45.7042 96.0371 45.6273 95.9219C45.4545 95.6786 45.2176 95.3521 45.1408 94.872C45.1408 94.8592 45.128 94.7695 45.128 94.7375C45.128 94.7247 45.128 94.7183 45.128 94.7119C45.1216 94.6351 45.1216 94.5134 45.1344 94.379C45.1344 94.3278 45.1408 94.283 45.1472 94.2318C45.1472 94.2125 45.1792 94.0525 45.1856 94.0333C45.1856 94.0205 45.288 93.6812 45.2944 93.6684C45.2944 93.6684 45.2944 93.6556 45.2944 93.6492L45.2816 93.5916C45.2752 93.5659 45.2368 93.4123 45.2304 93.3995C45.2112 93.2971 45.192 93.2202 45.1856 93.1434C45.1856 93.1306 45.1664 93.0154 45.16 92.9513C45.1536 92.8809 45.1472 92.7913 45.1472 92.7081C45.1472 92.6568 45.1472 92.6056 45.1472 92.5608C45.1472 92.5352 45.1472 92.516 45.1472 92.5032C45.1472 92.4904 45.1536 92.3624 45.16 92.3111C45.1664 92.2343 45.1728 92.1639 45.1856 92.0999C45.1856 92.0871 45.192 92.0423 45.192 92.0423C45.1984 91.9974 45.2112 91.9526 45.2176 91.9142C45.2176 91.9078 45.2304 91.8502 45.2496 91.7862C45.2688 91.7285 45.32 91.5493 45.3265 91.5429C45.3329 91.5237 45.3457 91.4917 45.3521 91.4789C45.3777 91.4213 45.3969 91.3636 45.4225 91.306C45.4289 91.2868 45.5057 91.1332 45.5121 91.1204C45.5313 91.0819 45.5697 91.0115 45.6081 90.9411C45.653 90.8643 45.6786 90.8323 45.6978 90.8003C45.7042 90.7939 45.8002 90.653 45.8386 90.6018L45.909 90.5122C45.941 90.4674 46.0627 90.3329 46.0947 90.3009C46.1139 90.2753 46.2804 90.1152 46.2804 90.1152C46.4148 89.9872 46.5492 89.8784 46.6901 89.7695C46.7541 89.7247 46.8181 89.6671 46.895 89.6159C46.9782 89.5583 47.0806 89.4942 47.183 89.4302C48.6491 88.5019 50.7554 87.8489 53.4506 87.4968C54.6798 87.3367 55.9218 87.2855 57.119 87.2407L57.7784 87.2151C58.3546 87.1895 58.8924 87.1639 59.4174 87.1319C57.2279 84.7823 55.9538 81.5749 55.9987 78.3611C56.0499 74.443 58.0729 70.589 61.2611 68.3099C62.0998 67.7145 62.9065 67.2919 63.7323 67.0166C64.507 66.7606 65.3329 66.6325 66.1907 66.6325C67.5416 66.6325 68.9308 66.9526 70.224 67.5672C71.9782 68.3931 73.6107 69.7567 75.0896 71.6197C76.2932 73.1434 76.991 74.5006 77.2855 75.9027C77.5352 77.1127 77.4647 78.3611 77.4071 79.3598C77.2023 82.9321 76.8181 85.8835 75.5825 88.662C75.4161 89.0397 75.224 89.4238 75.0191 89.7951C74.8783 90.0512 74.7311 90.3073 74.5774 90.557C74.1549 91.2484 73.6619 91.9462 73.1113 92.6441L72.8104 93.0282C70.9539 95.3329 68.3418 98.0538 64.5774 98.662C63.4635 98.8412 62.2471 98.9309 60.8642 98.9309C59.078 98.9309 57.2727 98.7836 55.6722 98.6556L55.2112 98.6172C54.4622 98.5595 53.7195 98.5019 52.9833 98.4571C52.9257 98.4507 52.8681 98.4507 52.8104 98.4507C52.7464 98.4507 52.6824 98.4507 52.6248 98.4571C52.6056 98.4571 52.5864 98.4571 52.5608 98.4571C52.119 98.4891 51.6709 98.6044 51.2035 98.726C50.6402 98.8668 50.0576 99.0205 49.3918 99.0589C49.2701 99.0333 49.1741 99.0397 49.0716 99.0397Z" fill="#A7592C"/>
<path d="M66.1843 67.5672C67.4263 67.5672 68.6811 67.8745 69.8078 68.4059C71.6004 69.251 73.0985 70.6338 74.3277 72.1895C75.2432 73.3419 76.037 74.6287 76.3379 76.0691C76.5556 77.1191 76.5044 78.2074 76.4404 79.2766C76.2675 82.3368 75.941 85.4353 74.6926 88.2394C74.5326 88.598 74.3597 88.9501 74.1676 89.3022C74.0332 89.5455 73.8924 89.7823 73.7515 90.0192C73.329 90.7042 72.8552 91.37 72.3495 92.0166C72.2534 92.1383 72.151 92.2663 72.055 92.3944C70.0639 94.8656 67.6952 97.1575 64.4173 97.6825C63.2586 97.8681 62.0678 97.9385 60.8514 97.9385C59.1548 97.9385 57.4263 97.8041 55.7361 97.6697C55.6465 97.6633 55.5505 97.6569 55.4609 97.6441C55.3968 97.6376 55.3392 97.6376 55.2752 97.6312C54.5134 97.5736 53.7643 97.516 53.0217 97.4712C52.9449 97.4648 52.868 97.4648 52.7912 97.4648C52.7016 97.4648 52.6183 97.4648 52.5287 97.4712H52.5223C51.4212 97.5416 50.4481 98.0026 49.3085 98.073C49.2317 98.0794 49.1548 98.0794 49.0716 98.0794C48.4314 98.0794 47.772 97.9065 47.3239 97.4584C47.1574 97.2919 47.0614 97.1191 46.9909 96.9334C46.8757 96.6197 46.8565 96.2804 46.7413 95.9603C46.7285 95.9219 46.7157 95.8835 46.6965 95.8451C46.5044 95.3969 46.1523 95.1537 46.0883 94.7183C46.0883 94.7119 46.0883 94.7055 46.0883 94.7055C46.0883 94.7055 46.0883 94.6991 46.0883 94.6927C46.0883 94.6799 46.0883 94.6735 46.0883 94.6607C46.0819 94.6031 46.0819 94.5391 46.0883 94.475C46.0883 94.4686 46.0883 94.4558 46.0883 94.4494C46.0883 94.4238 46.0947 94.3918 46.0947 94.3662C46.0947 94.3598 46.0947 94.347 46.1011 94.3406C46.1011 94.3278 46.1075 94.315 46.1075 94.2958C46.1139 94.2766 46.1139 94.2574 46.1203 94.2318C46.1267 94.2062 46.1331 94.1869 46.1395 94.1613C46.1459 94.1293 46.1587 94.1037 46.1651 94.0717C46.1779 94.0333 46.1907 93.9885 46.2035 93.9501C46.2291 93.8796 46.2419 93.8028 46.2483 93.7324C46.2483 93.7068 46.2483 93.6812 46.2483 93.6556C46.2483 93.6428 46.2483 93.63 46.2483 93.6172C46.2483 93.6044 46.2483 93.5915 46.2483 93.5851C46.2483 93.5787 46.2483 93.5659 46.2419 93.5595C46.2419 93.5595 46.2419 93.5531 46.2419 93.5467C46.2419 93.5339 46.2419 93.5211 46.2355 93.5083C46.2355 93.5019 46.2355 93.4955 46.2291 93.4891C46.2291 93.4763 46.2227 93.4635 46.2227 93.4443C46.2227 93.4379 46.2163 93.4315 46.2163 93.4251C46.2099 93.3931 46.1971 93.3547 46.1907 93.3227C46.1907 93.3163 46.1843 93.3099 46.1843 93.3035C46.1779 93.2715 46.1715 93.2394 46.1587 93.2074C46.1459 93.1434 46.1331 93.073 46.1203 93.009C46.1203 93.0026 46.1203 92.9898 46.1139 92.977C46.1075 92.9385 46.1011 92.9001 46.1011 92.8617C46.0947 92.7977 46.0883 92.7273 46.0883 92.6633C46.0883 92.6376 46.0883 92.612 46.0883 92.5864C46.0883 92.5736 46.0883 92.5544 46.0883 92.5416C46.0883 92.5288 46.0883 92.5096 46.0883 92.4968C46.0883 92.4648 46.0947 92.4328 46.0947 92.3944C46.0947 92.3816 46.0947 92.3688 46.0947 92.356C46.0947 92.3175 46.1011 92.2791 46.1075 92.2407V92.2343V92.2215C46.1075 92.2151 46.1075 92.2151 46.1075 92.2087V92.2023V92.1959C46.1075 92.1767 46.1139 92.1639 46.1203 92.1511C46.1267 92.1063 46.1395 92.0679 46.1459 92.0295C46.1523 91.991 46.1651 91.959 46.1779 91.927C46.1843 91.9014 46.1907 91.8822 46.2035 91.863C46.2035 91.8502 46.2099 91.8374 46.2163 91.8246C46.2291 91.7926 46.2419 91.7542 46.2611 91.7222C46.2739 91.6901 46.2931 91.6581 46.3059 91.6197C46.3123 91.6069 46.3187 91.5941 46.3251 91.5749C46.3507 91.5237 46.3764 91.4725 46.402 91.4277C46.4212 91.4021 46.434 91.37 46.4532 91.3444C46.4724 91.3188 46.4916 91.2868 46.5108 91.2612C46.53 91.2356 46.5492 91.2036 46.5684 91.178C46.5876 91.1524 46.6068 91.1268 46.6324 91.1012C46.6516 91.0755 46.6772 91.0499 46.6965 91.0243C46.7157 90.9987 46.7413 90.9731 46.7669 90.9475C46.7925 90.9219 46.8117 90.8963 46.8373 90.8771C46.8629 90.8515 46.8885 90.8259 46.9077 90.8067C47.0102 90.7106 47.119 90.621 47.2342 90.5314C47.2854 90.4866 47.3431 90.4481 47.4007 90.4097C47.4839 90.3521 47.5671 90.2945 47.6568 90.2433C49.3021 89.1998 51.6708 88.694 53.5338 88.4443C54.9423 88.2586 56.3571 88.2266 57.772 88.169C58.4762 88.137 59.1869 88.105 59.8911 88.0474C60.0319 88.0346 61.402 87.7721 61.5044 87.7721C61.5108 87.7721 61.5108 87.7721 61.5108 87.7721C58.6171 85.589 56.8565 81.9846 56.9077 78.3611C56.9589 74.7375 58.8219 71.1844 61.7669 69.0845C62.4519 68.598 63.1881 68.1818 63.982 67.9193C64.7182 67.6761 65.4481 67.5672 66.1843 67.5672ZM66.1843 65.6466C65.224 65.6466 64.2957 65.7939 63.425 66.0819C62.5031 66.3828 61.6132 66.8502 60.6977 67.5032C57.2598 69.9552 55.0895 74.0973 55.0319 78.3227C54.9935 81.1332 55.8898 83.9373 57.4903 86.242L57.0742 86.2612C55.8578 86.306 54.5966 86.3572 53.3162 86.5237C50.4929 86.895 48.2521 87.5928 46.658 88.6044C46.5492 88.6748 46.434 88.7452 46.3251 88.822C46.2547 88.8668 46.1651 88.9373 46.0819 89.0013C45.9282 89.1165 45.7682 89.251 45.6209 89.3918L45.5505 89.4622C45.5377 89.475 45.5057 89.507 45.4929 89.5135C45.4481 89.5583 45.4096 89.5967 45.3776 89.6287C45.3392 89.6671 45.3072 89.7119 45.2688 89.7503C45.2304 89.7951 45.192 89.84 45.1536 89.8912L45.0895 89.9744C45.0767 89.9872 45.0703 90 45.0575 90.0128C45.0255 90.0576 44.9871 90.1024 44.9615 90.1472C44.9295 90.1857 44.9039 90.2305 44.8719 90.2753C44.8463 90.3137 44.8271 90.3457 44.8014 90.3841C44.7886 90.4033 44.7822 90.4097 44.7758 90.4289C44.7246 90.5122 44.6798 90.6018 44.635 90.685C44.6158 90.717 44.603 90.749 44.5902 90.7746C44.571 90.8195 44.5454 90.8643 44.5262 90.9091C44.4941 90.9795 44.4685 91.0499 44.4365 91.1204C44.4237 91.146 44.4109 91.1844 44.4045 91.21C44.3981 91.2228 44.3981 91.242 44.3917 91.2548C44.3853 91.2804 44.3789 91.2996 44.3661 91.3252C44.3469 91.3956 44.3213 91.4661 44.3021 91.5365C44.2893 91.5877 44.2765 91.6453 44.2573 91.7157C44.2509 91.7542 44.2381 91.7862 44.2317 91.8246C44.2253 91.8694 44.2125 91.9206 44.2061 91.9654C44.1933 92.0359 44.1869 92.1127 44.1804 92.1831V92.1959C44.174 92.2471 44.174 92.2983 44.1676 92.3496V92.388C44.1676 92.4392 44.1612 92.4904 44.1612 92.5352C44.1612 92.5992 44.1612 92.6697 44.1612 92.7337C44.1612 92.8297 44.1676 92.9321 44.1804 93.0346C44.1869 93.105 44.1933 93.1754 44.2061 93.2458C44.2061 93.2522 44.2061 93.2586 44.2061 93.265C44.2189 93.3675 44.2445 93.4763 44.2637 93.5787C44.2637 93.5916 44.2701 93.6044 44.2701 93.6172C44.2637 93.6428 44.2573 93.6684 44.2509 93.694C44.2445 93.7132 44.2381 93.7516 44.2317 93.7644C44.2189 93.8156 44.2125 93.854 44.1997 93.8988C44.1933 93.9181 44.1869 93.9501 44.1804 93.9821C44.174 94.0077 44.174 94.0269 44.1676 94.0525C44.1548 94.1293 44.1484 94.1933 44.142 94.251V94.2574C44.1228 94.4302 44.1228 94.5967 44.1356 94.7503C44.1356 94.7567 44.1356 94.7631 44.1356 94.7695C44.142 94.8335 44.1484 94.904 44.1548 94.9744V94.9808C44.2637 95.685 44.603 96.1588 44.8078 96.4469C44.8399 96.4917 44.8783 96.5429 44.8975 96.5749C44.9167 96.6389 44.9359 96.7286 44.9487 96.799C44.9935 97.0038 45.0447 97.2599 45.1472 97.548C45.3136 98.0218 45.5825 98.4443 45.941 98.7964C46.6836 99.5455 47.7912 99.968 49.0332 99.968C49.1548 99.968 49.2765 99.9616 49.3917 99.9552C50.1472 99.9104 50.8002 99.7439 51.3828 99.5967C51.8181 99.4878 52.2022 99.3918 52.5479 99.3598C52.5799 99.3598 52.6055 99.3598 52.6376 99.3534C52.676 99.3534 52.7144 99.347 52.7592 99.347C52.7976 99.347 52.836 99.347 52.868 99.3534C53.5979 99.3982 54.3341 99.4558 55.0895 99.5134C55.1408 99.5198 55.2048 99.5263 55.2688 99.5263C55.352 99.5327 55.4352 99.5391 55.5185 99.5455C57.1574 99.6799 58.9884 99.8271 60.813 99.8271C62.247 99.8271 63.5146 99.7375 64.6798 99.5455C68.7707 98.886 71.5492 96.0051 73.5082 93.5659C73.5787 93.4763 73.6555 93.3867 73.7259 93.2971L73.8155 93.1818C74.3853 92.4584 74.9039 91.7221 75.3456 91.0051C75.5057 90.7426 75.6657 90.4738 75.813 90.1985C76.0242 89.8143 76.2291 89.4046 76.4084 88.9949C77.7784 85.9155 78.1369 82.5416 78.3162 79.3598C78.3738 78.2971 78.4506 76.9846 78.1753 75.653C77.8552 74.1037 77.0934 72.612 75.7938 70.9731C74.2253 68.9949 72.4775 67.5416 70.5889 66.6517C69.2061 66.0051 67.6696 65.6466 66.1843 65.6466Z" fill="#7C3D1E"/>
<path d="M73.6363 89.3342C73.7772 89.3022 73.9244 89.2574 74.0589 89.1933C73.9756 89.5519 73.7772 89.8656 73.5787 90.1729C71.4084 93.4763 68.5659 97.0166 64.4046 97.6825C61.6261 98.1306 58.6235 97.9001 55.7298 97.6633C55.6402 97.6569 55.5441 97.6504 55.4545 97.6376C55.3905 97.6312 55.3329 97.6312 55.2689 97.6248C54.507 97.5672 53.758 97.5096 53.0153 97.4648C52.8489 97.452 52.6888 97.4584 52.5288 97.4648C52.5224 97.4648 52.5224 97.4648 52.516 97.4648C51.4148 97.5352 50.4417 97.9962 49.3021 98.0666C48.5915 98.1114 47.8233 97.9577 47.3239 97.452C47.1575 97.2855 47.0614 97.1127 46.991 96.927C46.9974 96.7285 47.0358 96.5237 47.0294 96.3444C47.0486 96.274 47.0614 96.1972 47.0422 96.1268C47.0102 96.0307 46.9078 95.9731 46.8181 95.9219C46.7797 95.8963 46.7413 95.8707 46.7029 95.8387C46.3508 95.5762 46.1267 95.1536 46.0947 94.7119C46.0947 94.7055 46.0947 94.6927 46.0947 94.6863C46.0947 94.6735 46.0947 94.6671 46.0947 94.6543C46.0947 94.5903 46.0947 94.5262 46.0947 94.4686C46.0947 94.4622 46.0947 94.4494 46.0947 94.443C46.1011 94.4046 46.1011 94.3726 46.1075 94.3342C46.1139 94.3022 46.1203 94.2638 46.1331 94.2318C46.1395 94.2061 46.1459 94.1805 46.1523 94.1613C46.1587 94.1293 46.1715 94.1037 46.1779 94.0717C46.1907 94.0333 46.2036 93.9885 46.2164 93.9501C46.2356 93.8796 46.2548 93.8028 46.2612 93.7324C46.2612 93.7068 46.2612 93.6812 46.2612 93.6556C46.2612 93.63 46.2612 93.6044 46.2548 93.5787C46.2548 93.5723 46.2548 93.5595 46.2548 93.5531C46.2548 93.5531 46.2548 93.5467 46.2548 93.5403C46.2548 93.5275 46.2548 93.5147 46.2484 93.5019C46.2484 93.4955 46.2484 93.4891 46.242 93.4827C46.242 93.4699 46.2356 93.4571 46.2292 93.4443C46.2292 93.4379 46.2292 93.4315 46.2228 93.4187C46.2164 93.3867 46.2036 93.3483 46.1972 93.3163C46.1972 93.3099 46.1907 93.3035 46.1907 93.2971C46.1843 93.265 46.1715 93.233 46.1651 93.201C46.1139 92.9641 46.0883 92.7401 46.0947 92.5288C46.0947 92.516 46.0947 92.4968 46.0947 92.484C46.0947 92.452 46.1011 92.42 46.1011 92.3816C46.1011 92.3688 46.1011 92.356 46.1011 92.3432C46.1011 92.3047 46.1075 92.2663 46.1139 92.2279V92.2215C46.1139 92.2151 46.1139 92.2087 46.1203 92.1959C46.1267 92.1767 46.1267 92.1511 46.1331 92.1319C46.1395 92.0871 46.1523 92.0487 46.1587 92.0102C46.1651 91.9718 46.1779 91.9398 46.1907 91.9078C46.1972 91.8822 46.2036 91.863 46.2164 91.8438C46.2164 91.831 46.2228 91.8182 46.2292 91.8054C46.242 91.7734 46.2548 91.735 46.2676 91.7029C46.2804 91.6709 46.2996 91.6389 46.3124 91.6005C46.3188 91.5877 46.3252 91.5749 46.338 91.5557C46.3636 91.5045 46.3892 91.4533 46.4148 91.4084C46.434 91.3828 46.4468 91.3508 46.466 91.3252C46.4852 91.2996 46.5044 91.2676 46.5237 91.242C46.5429 91.2164 46.5621 91.1844 46.5813 91.1588C46.6005 91.1332 46.6197 91.1076 46.6453 91.0819C46.6645 91.0563 46.6901 91.0307 46.7093 91.0051C46.7285 90.9795 46.7541 90.9539 46.7797 90.9283C48.0601 89.4878 50.192 88.8668 52.0166 88.4571C53.3866 88.1498 54.7823 88.0154 56.1843 87.9577C57.4135 87.9065 58.6491 87.9065 59.8783 87.8873C60.3905 87.8809 61.0499 87.6056 61.5365 87.8105C62.0358 88.0218 62.5736 88.79 63.0409 89.1165C64.1613 89.8976 65.4545 90.4289 66.8053 90.653C68.8412 90.9859 70.9859 90.6018 72.7849 89.5839C73.0665 89.443 73.3482 89.4046 73.6363 89.3342Z" fill="#DDB176"/>
<g opacity="0.47">
<path d="M74.699 88.2458C74.4237 88.854 74.1036 89.443 73.7451 90.0192C73.3225 90.7042 72.8488 91.37 72.343 92.0166C72.247 92.1383 72.1446 92.2663 72.0421 92.388C70.0511 94.8592 67.6823 97.1447 64.4045 97.6761C61.626 98.1242 58.6234 97.8937 55.7297 97.6568C55.6401 97.6504 55.5441 97.644 55.4544 97.6312C55.3968 97.6248 55.3328 97.6248 55.2752 97.6184C54.9487 97.5352 54.6158 97.4648 54.2829 97.42C54.2316 97.4136 54.174 97.4072 54.1228 97.4008C54.0588 97.3944 53.9884 97.388 53.9179 97.3816C53.8667 97.3816 53.8155 97.3752 53.7643 97.3752C53.7451 97.3752 53.7323 97.3752 53.7131 97.3752C53.7067 97.3752 53.7003 97.3752 53.7003 97.3752C53.6426 97.3752 53.5786 97.3688 53.521 97.3688C53.393 97.3688 53.2649 97.3688 53.1433 97.3752C53.0601 97.3816 52.9768 97.388 52.8936 97.3944C52.8488 97.4008 52.8104 97.4072 52.772 97.4136C52.6887 97.4264 52.6055 97.4392 52.5223 97.4584C52.5159 97.4584 52.5031 97.4584 52.4967 97.4648C52.4903 97.4648 52.4839 97.4648 52.4775 97.4712C52.3366 97.4968 52.1958 97.5224 52.0549 97.5544C51.9909 97.5672 51.9269 97.58 51.8629 97.5928C51.8053 97.6056 51.7476 97.6184 51.69 97.6312C51.6196 97.644 51.5492 97.6633 51.4852 97.6761C51.4147 97.6889 51.3507 97.7081 51.2803 97.7273C51.2099 97.7465 51.1394 97.7593 51.0754 97.7785C50.9986 97.7977 50.9218 97.8105 50.8449 97.8297C50.7745 97.8489 50.7105 97.8617 50.6401 97.8745C50.5056 97.9065 50.3776 97.9321 50.2432 97.9577C49.8974 98.0282 49.5517 98.0858 49.1996 98.1114C48.5402 98.1626 47.4455 97.9962 47.0805 97.3367C47.0741 97.3239 47.0613 97.3047 47.0549 97.2855C47.0485 97.2727 47.0421 97.2535 47.0357 97.2343C47.0293 97.2151 47.0229 97.2023 47.0229 97.1831C47.0165 97.1639 47.0165 97.1511 47.0101 97.1319C46.9973 97.0615 46.9973 96.9846 46.9973 96.9142C47.0037 96.7158 47.0421 96.5109 47.0357 96.3316C47.0357 96.3188 47.0421 96.2996 47.0421 96.2868C47.0485 96.2484 47.0549 96.2164 47.0549 96.178C47.0549 96.1588 47.0485 96.1332 47.0485 96.114C47.0421 96.1012 47.0357 96.0884 47.0293 96.0756C47.0229 96.0627 47.0165 96.0563 47.0101 96.0435C46.9909 96.0243 46.9781 96.0051 46.9525 95.9923C46.9205 95.9667 46.8885 95.9475 46.8565 95.9219C46.8437 95.9155 46.8309 95.9091 46.8245 95.9027C46.8117 95.8963 46.8053 95.8899 46.7925 95.8835C46.7796 95.8771 46.7732 95.8707 46.7604 95.8643C46.7412 95.8515 46.722 95.8387 46.7028 95.8259C46.658 95.7939 46.6196 95.7554 46.5748 95.717C46.5556 95.6978 46.5364 95.6786 46.5172 95.6594C46.498 95.6402 46.4788 95.621 46.4595 95.5954C46.4211 95.5506 46.3891 95.5122 46.3571 95.4609C46.3443 95.4417 46.3315 95.4225 46.3187 95.3969C46.3123 95.3905 46.3123 95.3841 46.3059 95.3777C46.2931 95.3585 46.2803 95.3393 46.2739 95.3137C46.2611 95.2881 46.2483 95.2625 46.2355 95.2369C46.2227 95.2113 46.2099 95.1857 46.2035 95.1601C46.2035 95.1601 46.2035 95.1601 46.2035 95.1537C46.1971 95.1344 46.1843 95.1088 46.1779 95.0896C46.1651 95.0576 46.1522 95.0256 46.1458 94.9872C46.1394 94.9552 46.1266 94.9232 46.1202 94.8912C46.1138 94.8592 46.1074 94.8335 46.101 94.8015C46.0946 94.7567 46.0882 94.7119 46.0818 94.6671V94.6607C46.0754 94.6159 46.0754 94.5775 46.0818 94.5327C46.0818 94.5134 46.0818 94.4942 46.0818 94.4686C46.0818 94.4558 46.0818 94.4366 46.0882 94.4174C46.0882 94.3854 46.0946 94.3598 46.101 94.3278C46.1074 94.3022 46.1074 94.283 46.1138 94.2574C46.1202 94.2382 46.1202 94.219 46.1266 94.1933C46.1779 94.0013 46.2611 93.8092 46.2611 93.6108C46.2611 93.598 46.2611 93.5852 46.2611 93.5723C46.2611 93.5595 46.2611 93.5467 46.2611 93.5339C46.2547 93.5083 46.2547 93.4827 46.2483 93.4571C46.2419 93.4379 46.2419 93.4187 46.2355 93.3931C46.2227 93.3419 46.2099 93.2971 46.1971 93.2522C46.1907 93.2202 46.1843 93.1882 46.1715 93.1562C46.1587 93.0922 46.1394 93.0218 46.133 92.9577C46.133 92.9513 46.133 92.9385 46.1266 92.9257C46.1202 92.8873 46.1138 92.8489 46.1138 92.8105C46.1074 92.7465 46.101 92.6761 46.101 92.612C46.101 92.5864 46.101 92.5608 46.101 92.5352C46.101 92.5224 46.101 92.5032 46.101 92.4904C46.101 92.4776 46.101 92.4584 46.101 92.4456C46.101 92.4136 46.1074 92.3816 46.1074 92.3432C46.1074 92.3239 46.1138 92.3047 46.1138 92.2855C46.1138 92.2663 46.1202 92.2471 46.1202 92.2279C46.1202 92.2151 46.1266 92.2023 46.1266 92.1895V92.1767C46.1266 92.1703 46.1266 92.1639 46.133 92.1575V92.1511C46.1586 91.9718 46.2227 91.6517 46.3443 91.5301C46.3699 91.5045 46.3955 91.4853 46.4211 91.4789C46.4467 91.5813 46.4339 91.6965 46.4788 91.7926C46.5556 91.9974 46.7604 92.1319 46.9717 92.1895C47.183 92.2471 47.4071 92.2343 47.6311 92.2215C47.5415 92.2279 47.3558 92.42 47.2854 92.4776C47.1574 92.58 47.0293 92.6889 46.9141 92.8041C46.8885 92.8297 46.8629 92.8553 46.8373 92.8873C46.5044 93.265 46.1779 93.8732 46.5684 94.3086C46.9461 94.7247 47.7464 94.7823 48.2649 94.6991C48.2777 94.6991 48.2905 94.6927 48.3033 94.6991C48.3097 94.6991 48.3097 94.7055 48.3161 94.7055C48.3289 94.7183 48.3289 94.7439 48.3225 94.7631C48.3097 94.7887 48.2905 94.8015 48.2649 94.8207C48.0152 94.9808 47.7784 95.1601 47.5543 95.3521C47.3814 95.4994 47.2086 95.6594 47.119 95.8707C46.9781 96.2164 47.215 96.6453 47.5031 96.8502C48.7195 97.7273 51.0114 96.7029 52.2982 96.4469C53.6362 96.1716 54.9999 96.1844 56.3635 96.2612C58.2521 96.37 60.1535 96.6005 62.0293 96.4085C64.3789 96.1588 66.658 95.3393 68.6426 94.0589C70.8578 92.6312 72.5927 90.3649 74.4109 88.4763C74.5069 88.4187 74.5965 88.3291 74.699 88.2458Z" fill="#7C3D1E"/>
</g>
<path d="M45.941 93.7644C46.562 92.977 47.4647 92.4584 48.425 92.3432" stroke="#7C3D1E" stroke-width="2" stroke-miterlimit="10" stroke-linecap="round" stroke-linejoin="round"/>
<path d="M46.5232 96.3059C46.9777 95.4992 47.7652 94.8847 48.6679 94.6542" stroke="#7C3D1E" stroke-width="2" stroke-miterlimit="10" stroke-linecap="round" stroke-linejoin="round"/>
<path d="M58.4442 77.1575C58.2266 77.3432 57.8425 77.516 57.5608 77.58C57.3431 77.6312 57.3623 77.484 57.3815 77.2855C57.4199 76.959 57.3111 76.6069 57.2022 76.2932C57.1254 76.0627 56.9782 75.8579 56.7733 75.717C56.498 75.5378 56.1459 75.493 55.8386 75.5954C55.6466 75.6594 55.4737 75.7682 55.3264 75.9027C55.1344 76.0691 54.9807 76.2676 54.8591 76.4917C54.7823 76.6325 54.5774 76.9846 54.6734 77.1447C54.1933 76.3828 54.0524 75.2113 54.3533 74.3662C54.9679 72.6376 55.877 70.4097 57.4647 68.4827C61.1587 64.0013 68.3866 64.3342 72.9705 67.2151C75.3841 68.7324 77.2407 71.0435 78.1946 73.726C78.8796 75.6402 79.1293 77.7657 78.9692 80.2241C78.8988 81.2804 78.6811 82.2343 78.4955 83.0794C78.361 83.6684 78.2522 84.251 78.1626 84.8464C78.1626 85.5058 77.7976 86.2484 77.5288 86.8374C77.4967 86.9078 77.4327 86.9846 77.3623 86.9526C77.4327 86.5877 77.3687 86.2036 77.1766 85.8835C76.9398 85.4802 76.434 85.4289 76.0179 85.6018C75.5441 85.8003 75.3329 86.3444 75.1408 86.8182C74.8975 87.4136 73.7579 86.3828 73.5787 86.1268C73.201 85.6082 73.0025 84.9296 73.0729 84.283C73.169 83.4443 73.3354 82.6889 73.5019 81.959C73.6683 81.2292 73.822 80.5442 73.8668 79.8848C73.982 78.1434 73.822 76.6901 73.3802 75.4481C72.8168 73.8668 71.6709 72.4392 70.2496 71.5429C67.612 69.8848 63.1818 69.6031 61.4276 71.7286C60.3457 73.041 59.6606 74.7375 59.1869 76.0691C59.0332 76.4917 58.7772 76.8694 58.4442 77.1575Z" fill="#A7592C"/>
<path d="M73.5155 51.4981C70.1801 51.4981 66.7486 50.3778 63.8484 48.3419C59.4118 45.2241 55.5578 39.251 56.9534 32.9258C58.5988 25.461 65.9675 22.1191 72.5424 22.1191C76.1852 22.1191 79.6871 23.1051 82.3952 24.8912C82.8689 25.2049 83.3171 25.5442 83.7268 25.9092C85.6154 27.5737 87.0303 29.9873 87.7153 32.6953C88.0738 34.1038 88.7908 37.7209 87.7857 40.8323C87.011 43.2395 85.4233 45.6339 83.3171 47.5609C82.4656 48.3419 81.5565 49.0205 80.6154 49.5839C78.4771 50.8515 76.0892 51.4981 73.5155 51.4981Z" fill="#A7592C"/>
<path d="M72.542 23.073C75.8903 23.073 79.2258 23.9436 81.8634 25.685C82.2924 25.9667 82.7021 26.2804 83.0926 26.6197C84.9492 28.2522 86.1784 30.5249 86.7866 32.9257C87.382 35.2753 87.6253 38.2074 86.8762 40.5313C86.1144 42.8809 84.5651 45.1088 82.6701 46.8438C81.8698 47.58 81.0119 48.2202 80.1221 48.7516C78.067 49.9808 75.7943 50.5313 73.5152 50.5313C70.3077 50.5313 67.0811 49.4302 64.3986 47.548C59.8724 44.3662 56.6586 38.7068 57.8877 33.1242C59.373 26.4276 65.9799 23.073 72.542 23.073ZM72.542 21.1523C65.583 21.1523 57.7725 24.7247 56.0119 32.7144C54.5203 39.4686 58.5984 45.8194 63.2911 49.1229C66.3513 51.274 69.9812 52.4584 73.5087 52.4584C76.2168 52.4584 78.8417 51.7477 81.0952 50.4033C82.0939 49.8079 83.0542 49.0845 83.9569 48.265C86.1848 46.2228 87.8621 43.6876 88.6944 41.1267C89.7763 37.7785 89.0209 33.95 88.6432 32.4584C87.9006 29.5198 86.4217 27.0038 84.3602 25.1856C83.9185 24.7951 83.4319 24.4238 82.9198 24.0845C80.058 22.1959 76.3705 21.1523 72.542 21.1523Z" fill="#7C3D1E"/>
<g opacity="0.17">
<path d="M59.2829 29.7566C58.6939 30.7617 58.2458 31.8885 57.9769 33.1241C56.7477 38.7003 59.9615 44.3661 64.4878 47.5479C69.0652 50.7681 75.2496 51.7028 80.2048 48.7515C81.0947 48.2201 81.9526 47.5799 82.7528 46.8437C84.6478 45.1087 86.1971 42.8808 86.959 40.5248C87.0038 40.384 87.0486 40.2367 87.087 40.0831C86.2611 41.5428 85.1664 42.9 83.9244 44.0396C83.1241 44.7758 82.2663 45.416 81.3764 45.9474C76.4212 48.8987 70.2368 47.964 65.6594 44.7438C61.1331 41.562 57.9193 35.9026 59.1485 30.32C59.1869 30.1343 59.2317 29.9423 59.2829 29.7566Z" fill="#7C3D1E"/>
</g>
<path d="M80.2053 31.3892C82.9774 34.3854 82.6125 39.4302 80.1541 42.5096C78.1566 45.0128 74.0401 46.2676 70.9351 45.6018C69.7508 45.3521 68.5856 44.8015 67.8557 43.8412C67.0235 42.7336 66.6201 40.9923 66.5113 39.6415C66.3193 37.2919 66.3449 34.8591 67.2219 32.6696C68.1054 30.4801 69.994 28.5787 72.3308 28.2586C75.0004 27.8873 78.2527 29.3918 80.0773 31.2676C80.1221 31.306 80.1605 31.3508 80.2053 31.3892Z" fill="#DDB176"/>
<g opacity="0.47">
<path d="M66.53 35.4097C66.3572 36.7989 66.3892 38.233 66.5044 39.635C66.6133 40.9859 67.0166 42.7272 67.8489 43.8348C68.5787 44.8015 69.7439 45.3456 70.9282 45.6017C74.0332 46.2675 78.1498 45.0127 80.1472 42.5095C81.434 40.8962 82.1446 38.7515 82.1382 36.6389C81.8885 38.2458 81.2419 39.7887 80.2624 41.0243C78.265 43.5275 74.1485 44.7823 71.0435 44.1165C69.8591 43.8604 68.6939 43.3162 67.9641 42.3495C67.1318 41.2419 66.7285 39.5006 66.6197 38.1497C66.5428 37.2471 66.5044 36.3252 66.53 35.4097Z" fill="#7C3D1E"/>
</g>
<path opacity="0.1" d="M85.6212 35.9027C85.6212 36.3188 85.4035 36.8886 85.0066 36.7669C84.7953 36.7029 84.6993 36.4596 84.6352 36.2484C83.6301 33.0666 82.036 29.8143 79.1167 28.1946C78.7261 27.9769 78.2652 27.7144 78.2524 27.2663C78.2396 26.9398 78.5085 26.6581 78.8158 26.5493C79.1231 26.4404 79.4624 26.4853 79.7825 26.5493C83.9502 27.452 85.5955 32.0934 85.6212 35.9027Z" fill="white"/>
<path d="M16.7154 44.0076C10.6719 44.0076 5.36457 41.0306 2.86137 36.2291C2.35561 35.256 1.93948 34.1996 1.61938 33.0857C0.844728 30.3392 0.742295 27.4711 1.35049 25.0127C2.13154 21.8373 4.64114 19.1356 5.68468 18.1241C7.68852 16.1779 10.1597 14.8655 12.6437 14.4429C13.1815 14.3533 13.7449 14.2957 14.3146 14.2765C14.4619 14.2701 14.6027 14.2701 14.75 14.2701C20.3134 14.2701 26.3313 17.4775 29.718 22.247C32.4388 26.0754 33.1559 30.4224 31.741 34.4749C29.6091 40.5889 23.1943 43.6491 17.7781 43.9756C17.426 43.9948 17.0675 44.0076 16.7154 44.0076Z" fill="#A7592C"/>
<path d="M14.7439 15.2305C24.0076 15.2305 34.1997 24.5198 30.8322 34.1613C28.95 39.5519 23.2394 42.6889 17.7208 43.0154C17.3879 43.0346 17.0486 43.0474 16.7157 43.0474C11.4596 43.0474 6.22276 40.5954 3.71315 35.7875C3.233 34.872 2.84248 33.8732 2.54798 32.8297C1.85016 30.3585 1.69651 27.644 2.2855 25.2497C2.86808 22.8809 4.61584 20.5122 6.3508 18.822C8.12417 17.0999 10.3649 15.8131 12.8041 15.3969C13.3098 15.3073 13.822 15.2625 14.3406 15.2433C14.475 15.2369 14.6094 15.2305 14.7439 15.2305ZM14.7439 13.3099C14.5902 13.3099 14.4366 13.3099 14.2765 13.3163C13.6619 13.3355 13.0601 13.3931 12.4776 13.4955C9.76949 13.9629 7.18306 15.3201 5.01277 17.4392C3.91162 18.5083 1.25477 21.37 0.416099 24.7887C-0.224105 27.4072 -0.128075 30.4481 0.69779 33.3547C1.0307 34.5326 1.47244 35.6466 2.01021 36.6773C4.67346 41.7926 10.3073 44.968 16.7157 44.968C17.087 44.968 17.4648 44.9552 17.8361 44.936C23.5659 44.5967 30.3713 41.3252 32.6504 34.7951C34.1741 30.4417 33.4059 25.7875 30.5057 21.6965C26.9398 16.6837 20.6082 13.3099 14.7439 13.3099Z" fill="#7C3D1E"/>
<g opacity="0.17">
<path d="M31.4337 30.941C31.4081 32.1062 31.1968 33.2969 30.7807 34.4941C28.8985 39.8846 23.1878 43.0216 17.6693 43.3482C12.0803 43.6811 6.32485 41.2355 3.6616 36.1202C3.18785 35.2047 2.79092 34.206 2.49643 33.1561C1.7986 30.6849 1.64495 27.9704 2.23394 25.5761C2.27235 25.4288 2.31077 25.2816 2.35558 25.1343C2.28516 26.8117 2.50923 28.5402 2.97018 30.1663C3.26467 31.2099 3.6616 32.2086 4.13535 33.1305C6.7986 38.2457 12.5604 40.6977 18.143 40.3584C23.6616 40.0255 29.3722 36.8949 31.2544 31.5044C31.3184 31.3123 31.3825 31.1266 31.4337 30.941Z" fill="#7C3D1E"/>
</g>
<path d="M12.7592 20.9667C8.82834 22.0615 6.4852 26.5429 6.95895 30.4609C7.34307 33.6428 10.192 36.8694 13.1817 37.9321C14.3213 38.3355 15.6017 38.4891 16.7285 38.0474C18.0217 37.5416 19.2765 36.274 20.0831 35.1793C21.4788 33.2779 22.74 31.1972 23.1369 28.8732C23.5338 26.5493 22.9257 23.9373 21.1075 22.4328C19.0332 20.717 15.4673 20.2881 12.9321 20.9219C12.8744 20.9347 12.8168 20.9539 12.7592 20.9667Z" fill="#DDB176"/>
<g opacity="0.47">
<path d="M22.2851 31.5686C21.7025 32.8426 20.9215 34.0462 20.0828 35.1794C19.2762 36.2741 18.0214 37.5417 16.7281 38.0475C15.6014 38.4892 14.321 38.3356 13.1814 37.9323C10.1917 36.8695 7.34274 33.6429 6.95862 30.4611C6.70894 28.4124 7.23391 26.2101 8.34786 24.4175C7.71406 25.9156 7.45158 27.5673 7.64364 29.1358C8.02776 32.3177 10.8767 35.5443 13.8664 36.607C15.006 37.0104 16.2864 37.164 17.4132 36.7223C18.7 36.2165 19.9612 34.9489 20.7678 33.8541C21.312 33.1243 21.8306 32.3625 22.2851 31.5686Z" fill="#7C3D1E"/>
</g>
<g opacity="0.08">
<path d="M5.78101 21.959C5.56334 22.3111 5.44811 22.9129 5.84503 23.0154C6.0563 23.073 6.26757 22.9129 6.43402 22.7721C8.96283 20.5954 12.0294 18.662 15.3585 18.8156C15.8002 18.8348 16.338 18.854 16.5813 18.4827C16.7605 18.2138 16.6837 17.8297 16.4788 17.58C16.274 17.3303 15.9667 17.1831 15.6594 17.0743C11.6453 15.6466 7.80406 18.7324 5.78101 21.959Z" fill="white"/>
</g>
<path d="M40.0572 43.8733L40.0444 43.8862C39.9484 43.8029 39.8587 43.7197 39.7627 43.6365C39.8651 43.7133 39.9612 43.7965 40.0572 43.8733Z" fill="#DDB176"/>
<path d="M39.7695 43.63C39.6735 43.5531 39.5775 43.4699 39.4814 43.3931L39.4942 43.3803C39.5839 43.4635 39.6799 43.5467 39.7695 43.63Z" fill="#DDB176"/>
<path d="M48.4377 57.5544C46.1521 57.5544 43.7514 57.3944 41.3186 57.0743C32.4965 55.9219 24.7565 52.9129 19.526 48.598C19.1739 48.3099 18.8346 48.0154 18.5017 47.7081C13.3288 42.9834 11.0561 36.9846 11.9268 30.3521C12.8038 23.6492 17.1572 16.2036 23.5657 10.4353C30.2558 4.41741 38.2968 0.960304 45.6271 0.960304C46.6387 0.960304 47.6502 1.02432 48.6297 1.15237C62.7718 3.00256 77.138 23.3163 75.1342 38.6236C74.2699 45.2497 70.8 50.4674 65.1086 53.7132C64.7437 53.9181 64.3723 54.1165 63.9946 54.3086C59.7117 56.4597 54.4812 57.5544 48.4377 57.5544Z" fill="#A7592C"/>
<path d="M45.6271 1.92061C46.5938 1.92061 47.5541 1.97823 48.508 2.10627C62.3749 3.92446 76.056 24.1933 74.1802 38.5019C73.3096 45.1665 69.8204 49.9232 64.6284 52.8809C64.2827 53.0794 63.9241 53.2715 63.5592 53.4507C59.3595 55.557 54.1738 56.5877 48.4312 56.5877C46.1777 56.5877 43.8345 56.4277 41.4338 56.114C32.9831 55.0064 25.3838 52.1831 20.1277 47.8489C19.7884 47.5736 19.4619 47.2855 19.1418 46.991C14.4939 42.7401 11.9907 37.1767 12.8678 30.4674C14.6348 17.0166 30.403 1.92061 45.6271 1.92061ZM45.6335 0C38.0663 0 29.7884 3.54674 22.919 9.72471C16.3377 15.6402 11.8755 23.3035 10.9664 30.2305C10.0573 37.1831 12.4389 43.4763 17.8486 48.4187C18.2071 48.7452 18.5592 49.0525 18.9113 49.3406C24.2763 53.7644 32.1892 56.8438 41.1905 58.0218C43.6681 58.3483 46.1073 58.5083 48.4376 58.5083C54.6284 58.5083 60.0125 57.3816 64.4235 55.1665C64.814 54.968 65.1982 54.7631 65.5759 54.5519C71.5426 51.1524 75.1789 45.685 76.0816 38.7516C77.0291 31.4917 74.3147 22.4392 68.8217 14.5198C63.2327 6.46607 55.7295 1.11396 48.7577 0.204866C47.7334 0.0704225 46.6834 0 45.6335 0Z" fill="#7C3D1E"/>
<path d="M65.9026 47.5672C64.0524 50.5378 61.5748 53.0602 58.5531 54.6991C53.5275 57.4328 46.9398 56.8374 41.434 56.1204C34.7503 55.2433 26.9078 53.6172 22.5159 48.0858C17.3239 41.5557 16.7925 32.8489 19.7695 25.1857C21.0819 21.799 22.9001 19.3982 25.4417 17.3496C27.676 15.5442 30.1792 15.8451 32.6696 16.4213C37.151 17.452 41.2804 20.4161 44.0652 24.7311C44.8527 25.9539 46.5556 26.1396 47.6376 25.1665C49.1869 23.7708 50.9667 22.7273 52.7272 21.7926C54.9615 20.6082 57.2983 19.5327 59.6862 19.475C65.2432 19.3406 68.9308 25.5634 69.6094 31.7093C70.1984 36.991 68.8476 42.8489 65.9026 47.5672Z" fill="#DDB176"/>
<g opacity="0.17">
<path d="M74.3594 38.5276C72.4836 52.8362 58.5399 58.3548 41.6129 56.1397C40.499 55.9924 39.4042 55.8195 38.3223 55.6147C53.7384 56.735 66.0175 51.0372 67.7717 37.6633C69.5066 24.4047 57.8869 6.01801 45.134 1.95271C46.3184 1.92069 47.5028 1.97191 48.6808 2.12556C62.5476 3.94374 76.2288 24.2126 74.3594 38.5276Z" fill="#7C3D1E"/>
</g>
<g opacity="0.08">
<path fill-rule="evenodd" clip-rule="evenodd" d="M20.2752 19.3086C19.0845 18.8284 16.6837 21.306 15.3841 23.9629C14.0781 26.6197 13.6491 31.274 14.8719 31.4789C16.1459 31.6901 17.0038 27.5736 18.3098 24.9168C19.6094 22.2599 21.4596 19.7951 20.2752 19.3086Z" fill="white"/>
</g>
<g opacity="0.47">
<path d="M51.0499 40.525C51.0179 40.4802 50.9859 40.4417 50.9539 40.3969C50.9539 40.3969 50.9539 40.3969 50.9475 40.3969C50.589 39.9488 50.1984 39.5839 49.7759 39.283C48.5403 38.3931 47.0742 38.0602 45.5441 37.8361C45.2817 37.7721 45.0064 37.7209 44.7375 37.6825C44.5454 37.6568 44.347 37.6376 44.1549 37.6248C43.9628 37.5864 43.7708 37.5544 43.5787 37.5288C43.3034 37.4904 43.0281 37.4712 42.7593 37.4712C41.2292 37.2919 39.7247 37.2343 38.297 37.7785C37.8169 37.9641 37.3367 38.2138 36.8758 38.5531C36.8758 38.5531 36.8758 38.5531 36.8694 38.5531C36.8246 38.5851 36.7861 38.6172 36.7413 38.6492C36.9078 38.2778 37.2535 37.8489 37.3431 37.7593C38.0345 37.0743 38.7068 36.37 39.347 35.6338C40.6146 34.1613 41.7605 32.5736 42.7593 30.9027C43.2522 30.0704 43.7196 29.2125 44.347 28.4827C44.347 28.4763 44.3534 28.4763 44.3534 28.4699C44.8975 27.8361 45.9347 27.9705 46.2996 28.726C46.2996 28.7324 46.306 28.7324 46.306 28.7388C46.7285 29.6095 46.9526 30.557 47.2215 31.4853C47.7529 33.3547 48.4507 35.1857 49.3022 36.9334C49.7247 37.8105 50.1984 38.662 50.6914 39.507C50.7618 39.6223 50.9859 40.128 51.0499 40.525Z" fill="#7C3D1E"/>
</g>
<g opacity="0.3">
<path d="M52.6948 50.1152C52.5796 50.3905 52.4451 50.653 52.2915 50.9155C52.1826 51.0947 52.061 51.2676 51.9329 51.4404C51.7793 51.6389 51.6128 51.831 51.4208 52.0166C50.979 52.4584 50.4413 52.8617 49.7947 53.2074C48.5591 53.8732 47.0738 54.1165 45.755 54.2702C44.7242 54.3918 43.6935 54.4686 42.6756 54.4302C41.6128 54.3918 40.6397 54.1165 39.6218 53.7964C37.9765 53.2778 36.0303 52.58 34.673 51.3316C32.0738 48.9372 32.0994 46.1139 33.1942 43.5531C33.7511 42.2535 35.102 40.0256 36.1967 39.0269C36.4208 38.822 36.6577 38.6363 36.8945 38.4699C36.9394 38.4379 36.9906 38.4059 37.0354 38.3739C37.0354 38.3739 37.0354 38.3739 37.0418 38.3739C37.5411 38.041 38.0597 37.7913 38.5847 37.612C40.1404 37.0871 41.7857 37.1639 43.463 37.3623C43.6551 37.3815 43.8472 37.4072 44.0392 37.4328L44.0904 37.4392C44.513 37.4904 44.9355 37.5416 45.3452 37.6056C45.4605 37.6248 45.5757 37.644 45.691 37.6632C46.9009 37.8745 48.0597 38.1946 49.0968 38.8028C49.641 39.1229 50.1532 39.5262 50.6205 40.032C50.7166 40.1408 50.8126 40.2497 50.9086 40.3649C51.0495 40.5378 51.1775 40.717 51.3055 40.9091C52.125 42.1447 52.8356 44.4942 53.0597 45.9027C53.2838 47.3367 53.2326 48.8028 52.6948 50.1152Z" fill="white"/>
</g>
<path d="M40.3905 42.4584C40.3649 42.4328 40.3393 42.4008 40.3137 42.3752C39.9551 41.959 39.6222 41.4469 39.8975 40.9219C40.0384 40.653 40.3201 40.4545 40.621 40.4609C40.9475 40.4673 41.2292 40.7042 41.434 40.9603C41.6133 41.1908 41.7605 41.4533 41.8565 41.735C41.9142 41.895 41.9526 42.0679 41.9462 42.2407C41.9078 42.8361 41.3892 43.0666 40.877 42.8233C40.685 42.7337 40.5249 42.6056 40.3905 42.4584Z" fill="#7C3D1E"/>
<path d="M46.5493 43.2394C46.5813 43.2202 46.6133 43.201 46.6453 43.1754C47.0934 42.8617 47.548 42.452 47.4135 41.8694C47.3495 41.5749 47.1254 41.3124 46.831 41.242C46.5109 41.1652 46.1779 41.3252 45.9155 41.5237C45.685 41.7029 45.4801 41.9206 45.3137 42.1639C45.2176 42.3047 45.1344 42.4648 45.1024 42.6312C44.9936 43.2202 45.4353 43.5723 45.9923 43.4635C46.1907 43.4379 46.3764 43.3483 46.5493 43.2394Z" fill="#7C3D1E"/>
<path d="M35.2051 46.2292C35.2051 46.2292 41.191 51.4597 50.506 48.2331" stroke="#7C3D1E" stroke-width="3" stroke-miterlimit="10" stroke-linecap="round" stroke-linejoin="round"/>
<path d="M31.5681 38.9692C31.3184 38.9692 31.0687 38.9564 30.8255 38.9244C27.522 38.5147 25.1597 35.4929 25.5694 32.1894C25.9407 29.1677 28.5143 26.8885 31.5553 26.8885C31.805 26.8885 32.0547 26.9013 32.3043 26.9333C35.6142 27.3431 37.9701 30.3648 37.5604 33.6683C37.1827 36.6901 34.6091 38.9692 31.5681 38.9692Z" fill="white"/>
<path d="M31.5556 27.5288C31.7733 27.5288 31.9973 27.5416 32.2214 27.5672C35.1792 27.9321 37.2854 30.6274 36.9205 33.5851C36.5812 36.3188 34.2573 38.3227 31.5684 38.3227C31.3507 38.3227 31.1267 38.3099 30.9026 38.2842C27.9448 37.9193 25.8386 35.2241 26.2035 32.2663C26.5364 29.5326 28.8667 27.5288 31.5556 27.5288ZM31.5556 26.2484C28.1945 26.2484 25.3456 28.7708 24.9295 32.1127C24.7118 33.886 25.1984 35.6338 26.2931 37.0423C27.3943 38.4507 28.9692 39.347 30.7425 39.5647C31.0178 39.5967 31.2931 39.6159 31.5684 39.6159C34.9295 39.6159 37.7784 37.0935 38.1945 33.7516C38.6427 30.096 36.037 26.7542 32.3815 26.306C32.1062 26.2676 31.8309 26.2484 31.5556 26.2484Z" fill="#7C3D1E"/>
<path d="M57.3043 42.3368C57.0546 42.3368 56.8049 42.324 56.5552 42.292C54.9547 42.0936 53.5271 41.2869 52.5348 40.0129C51.5424 38.7389 51.1007 37.1576 51.2992 35.5571C51.6705 32.5353 54.2441 30.2562 57.2851 30.2562C57.5348 30.2562 57.7844 30.269 58.0341 30.301C59.6346 30.4995 61.0623 31.3061 62.0546 32.5801C63.0469 33.8541 63.4823 35.4354 63.2902 37.0359C62.9189 40.0577 60.3453 42.3368 57.3043 42.3368Z" fill="white"/>
<path d="M57.2915 30.8964C57.5092 30.8964 57.7332 30.9092 57.9573 30.9348C60.9151 31.2997 63.0213 33.995 62.6564 36.9527C62.3171 39.6864 59.9932 41.6902 57.3043 41.6902C57.0866 41.6902 56.8626 41.6774 56.6385 41.6518C53.6807 41.2869 51.5745 38.5916 51.9394 35.6339C52.2787 32.9002 54.6026 30.8964 57.2915 30.8964ZM57.2915 29.616C53.9304 29.616 51.0815 32.1384 50.6654 35.4802C50.2172 39.1358 52.8229 42.4777 56.4784 42.9258C56.7537 42.9578 57.029 42.977 57.3043 42.977C60.6654 42.977 63.5143 40.4546 63.9304 37.1128C64.3786 33.4572 61.7729 30.1153 58.1174 29.6672C57.8421 29.6352 57.5668 29.616 57.2915 29.616Z" fill="#7C3D1E"/>
<path d="M31.6325 36.6901C33.7044 36.6901 35.3841 35.0105 35.3841 32.9385C35.3841 30.8666 33.7044 29.1869 31.6325 29.1869C29.5605 29.1869 27.8809 30.8666 27.8809 32.9385C27.8809 35.0105 29.5605 36.6901 31.6325 36.6901Z" fill="black"/>
<path d="M30.1473 32.7465C30.713 32.7465 31.1716 32.2879 31.1716 31.7221C31.1716 31.1564 30.713 30.6978 30.1473 30.6978C29.5815 30.6978 29.1229 31.1564 29.1229 31.7221C29.1229 32.2879 29.5815 32.7465 30.1473 32.7465Z" fill="#B0B0B0"/>
<path d="M57.3687 40.0576C59.4406 40.0576 61.1203 38.378 61.1203 36.306C61.1203 34.2341 59.4406 32.5544 57.3687 32.5544C55.2967 32.5544 53.6171 34.2341 53.6171 36.306C53.6171 38.378 55.2967 40.0576 57.3687 40.0576Z" fill="black"/>
<path d="M55.8837 36.1138C56.4494 36.1138 56.908 35.6552 56.908 35.0895C56.908 34.5238 56.4494 34.0652 55.8837 34.0652C55.318 34.0652 54.8594 34.5238 54.8594 35.0895C54.8594 35.6552 55.318 36.1138 55.8837 36.1138Z" fill="#B0B0B0"/>
<path d="M23.4955 24.5903C23.9948 23.0922 24.9744 21.8054 26.6773 21.242C28.5787 20.6082 30.4225 20.7875 32.0358 22.0615C32.4455 22.3816 32.8361 22.8361 32.7016 23.4507C32.5672 24.0333 32.0358 24.1613 31.5493 24.2766C29.3982 24.7823 27.3239 25.493 25.3009 26.3636C24.8463 26.5557 24.2765 26.9014 23.7964 26.3828C23.361 25.9219 23.3418 25.3457 23.4955 24.5903Z" fill="#6D3218"/>
<path d="M67.3685 30.3329C67.2724 28.758 66.6514 27.2599 65.1597 26.2804C63.4824 25.1792 61.6578 24.8783 59.7692 25.6914C59.2955 25.8962 58.7961 26.2355 58.7705 26.863C58.7449 27.4583 59.2314 27.7208 59.6732 27.9577C61.6194 28.9948 63.444 30.2176 65.1725 31.5813C65.5631 31.8886 66.024 32.3623 66.6258 31.991C67.1572 31.6581 67.3236 31.1011 67.3685 30.3329Z" fill="#6D3218"/>
</g>
<defs>
<clipPath id="clip0_229_14570">
<rect width="132.17" height="100" fill="white"/>
</clipPath>
</defs>
</svg>
