<svg width="78" height="101" viewBox="0 0 78 101" fill="none" xmlns="http://www.w3.org/2000/svg">
<g clip-path="url(#clip0_229_14144)">
<path d="M10.2879 18.3468C14.3556 18.3468 18.27 15.2697 19.3783 12.3954C20.4866 9.52109 20.1035 5.87027 18.4528 3.51753C17.3857 1.99346 15.8648 1.15899 14.1728 1.15899C9.29747 1.15899 5.24154 5.52258 3.90332 9.6254C3.35506 11.3117 3.62624 13.3457 4.63433 15.0784C5.58347 16.7068 7.0278 17.8078 8.70794 18.1787C9.21494 18.2888 9.74551 18.3468 10.2879 18.3468Z" fill="#272628"/>
<path d="M14.1728 2.31798C10.17 2.31798 6.34395 5.9514 5.02931 9.97889C4.16861 12.6156 5.89002 16.3707 8.96734 17.0429C9.39769 17.1356 9.83983 17.182 10.2879 17.182C13.6953 17.182 17.2796 14.5627 18.2759 11.9781C19.8028 8.0202 18.0755 2.31798 14.1728 2.31798ZM14.1728 0C16.2598 0 18.1285 1.01411 19.4196 2.85691C21.2766 5.4994 21.7129 9.59063 20.4749 12.801C19.0541 16.4982 14.4794 19.5 10.282 19.5C9.65708 19.5 9.03808 19.4362 8.44855 19.3029C6.44417 18.8625 4.72865 17.5645 3.60855 15.6521C2.4413 13.6471 2.12885 11.2596 2.77733 9.2719C4.25114 4.77503 8.74332 0 14.1728 0Z" fill="#2A364D"/>
<g opacity="0.1">
<path d="M6.52049 7.05824C8.28907 5.13432 10.6295 3.81887 13.0288 3.81887C16.9197 3.81887 18.6352 9.49791 17.1143 13.4443C17.0081 13.7282 16.8667 14.0064 16.6957 14.2845C17.4149 13.5602 17.9691 12.7663 18.2756 11.9666C19.7966 8.0202 18.0811 2.34116 14.1902 2.34116C11.2131 2.34116 8.33033 4.36359 6.52049 7.05824Z" fill="#EAE6E4"/>
</g>
<path d="M58.6938 18.3467C59.2362 18.3467 59.7668 18.2888 60.2737 18.1787C61.948 17.8136 63.3923 16.7126 64.3474 15.0784C65.3554 13.3515 65.6266 11.3117 65.0784 9.62534C63.7402 5.52253 59.6842 1.15894 54.8089 1.15894C53.1169 1.15894 51.5959 1.99341 50.5289 3.51748C48.8782 5.86443 48.495 9.51524 49.6034 12.3953C50.7117 15.2638 54.6261 18.3467 58.6938 18.3467Z" fill="#272628"/>
<path d="M54.8085 2.31798C50.9058 2.31798 49.1844 8.0202 50.7054 11.9839C51.7017 14.5685 55.286 17.1878 58.6934 17.1878C59.1356 17.1878 59.5836 17.1414 60.014 17.0487C63.0913 16.3707 64.8127 12.6214 63.952 9.98468C62.6373 5.9514 58.8113 2.31798 54.8085 2.31798ZM54.8085 0C60.2439 0 64.7302 4.77503 66.1981 9.2719C66.8466 11.2596 66.5341 13.6471 65.3668 15.6521C64.2526 17.5703 62.5312 18.8683 60.5268 19.3029C59.9373 19.4304 59.3183 19.5 58.6934 19.5C54.496 19.5 49.9213 16.4924 48.5005 12.801C47.2625 9.59063 47.6988 5.4994 49.5558 2.85691C50.8528 1.01411 52.7215 0 54.8085 0Z" fill="#2A364D"/>
<g opacity="0.1">
<path d="M52.6623 2.99588C52.8922 2.94952 53.1339 2.92634 53.3815 2.92634C57.3903 2.92634 61.2163 6.55977 62.5309 10.5873C63.2384 12.7546 62.1949 15.681 60.0903 17.0254C63.1264 16.3127 64.8124 12.5923 63.9635 9.97878C62.6371 5.9513 58.811 2.31787 54.8082 2.31787C53.9946 2.31787 53.2754 2.56705 52.6623 2.99588Z" fill="#EAE6E4"/>
</g>
<path d="M57.5792 65.4944C57.7207 65.4944 57.8563 65.4886 58.0037 65.4828C58.0037 65.4828 58.0096 65.4828 58.0155 65.4828C58.21 65.4828 58.44 65.448 58.6404 65.4191L58.7288 65.4075C62.7906 64.8164 66.375 63.5879 69.3756 61.7567C71.1796 60.6556 75.5126 57.6712 76.8685 53.7249C77.2281 52.676 77.1102 51.7546 76.5443 51.123C76.4558 51.0244 76.3556 50.9375 76.2613 50.868C76.9982 50.0103 77.2988 48.7412 77.0218 47.5533C76.8095 46.6377 76.1316 45.7974 75.3004 45.4149C74.9938 45.2759 74.6637 45.2063 74.3159 45.2063C73.968 45.2063 73.6438 45.2759 73.3844 45.3512C73.3785 44.9919 73.296 44.6442 73.1427 44.3255C72.8479 43.717 72.3056 43.2592 71.6217 43.0274C71.2857 42.9173 70.9202 42.8594 70.5488 42.8594C69.0927 42.8594 67.6955 43.7112 66.5636 44.3892C66.3514 44.5167 66.145 44.6442 65.9505 44.7543C64.0994 45.809 62.2188 46.8869 60.2852 47.5591C59.6072 47.7967 58.9293 47.9879 58.2041 48.1907C56.8954 48.5616 55.5454 48.9383 54.272 49.5873C54.1069 49.6684 53.9537 49.7553 53.8063 49.8481C52.981 50.3696 52.303 51.3837 51.7194 52.96C50.7054 55.7125 50.841 60.221 52.8277 63.0084C53.9831 64.6368 55.6279 65.4944 57.5792 65.4944Z" fill="#272628"/>
<path d="M70.5429 43.7286C69.0868 43.7286 67.5422 44.847 66.3926 45.5077C64.5415 46.5623 62.5961 47.6808 60.5799 48.3819C58.6227 49.0658 56.5358 49.4192 54.6729 50.3638C54.5373 50.4334 54.4017 50.5087 54.2779 50.5898C53.4349 51.1172 52.8689 52.3863 52.5447 53.2671C51.1122 57.1497 52.2087 64.631 57.5792 64.631C57.6972 64.631 57.8209 64.6252 57.9447 64.6194C58.1629 64.6194 58.381 64.5788 58.5932 64.5498C62.2129 64.0283 65.7854 62.9272 68.904 61.0207C71.6689 59.3344 74.9466 56.5818 76.0255 53.4525C76.2141 52.8962 76.3025 52.1834 75.8781 51.7082C75.3357 51.1114 74.251 51.4591 75.3004 50.5898C76.108 49.9234 76.3851 48.7354 76.1552 47.7503C76.0078 47.1187 75.5244 46.4812 74.9231 46.2088C74.7226 46.1161 74.5163 46.0814 74.31 46.0814C74.0152 46.0814 73.7204 46.1567 73.4375 46.2552C73.2783 46.3074 72.7654 46.6145 72.4765 46.6145C72.3527 46.6145 72.2761 46.5623 72.282 46.4059C72.2879 46.3016 72.3292 46.1973 72.3704 46.0987C72.7359 45.1484 72.335 44.1864 71.3388 43.8561C71.0735 43.7692 70.8082 43.7286 70.5429 43.7286ZM70.5429 41.9901C71.0145 41.9901 71.4684 42.0597 71.8988 42.2045C72.8126 42.5059 73.5377 43.1259 73.9386 43.9488C73.9975 44.0763 74.0565 44.2096 74.0977 44.3429C74.1685 44.3371 74.2392 44.3371 74.31 44.3371C74.7875 44.3371 75.2473 44.4356 75.6659 44.6268C76.7388 45.1194 77.6054 46.1915 77.8766 47.3562C78.1478 48.5326 77.9532 49.7785 77.3814 50.7753C78.0004 51.6271 78.1183 52.7803 77.6997 54.003C76.2554 58.216 71.7219 61.3452 69.8355 62.4926C66.7287 64.3876 63.0323 65.6567 58.8467 66.2651L58.7583 66.2767C58.552 66.3057 58.2985 66.3463 58.0037 66.3521C57.8563 66.3579 57.7148 66.3636 57.5733 66.3636C55.3214 66.3636 53.4231 65.3785 52.0967 63.5125C49.8624 60.3833 49.8034 55.5909 50.8822 52.6702C51.5307 50.9085 52.3266 49.7496 53.3229 49.1237C53.4879 49.0194 53.6707 48.9151 53.8593 48.8224C55.2094 48.1328 56.6065 47.7387 57.9565 47.362C58.664 47.1592 59.336 46.9738 59.9845 46.7478C61.8415 46.0987 63.6926 45.0441 65.4789 44.0184C65.6911 43.8967 65.8856 43.775 66.0979 43.6533C67.3182 42.9115 68.8392 41.9901 70.5429 41.9901Z" fill="#2A364D"/>
<g opacity="0.2">
<path d="M63.8102 52.7861C63.8161 51.8937 64.1934 50.9433 65.1897 50.2653C66.186 49.5873 67.9015 49.2917 69.0098 49.7727C69.9354 50.1784 70.2183 50.9723 70.2832 51.7082C70.3893 53.0179 69.9413 54.4492 68.491 55.4691C68.2552 55.6372 67.9841 55.7879 67.6657 55.8748C65.0541 56.5586 63.7984 53.8639 63.8102 52.7861Z" fill="#EAE6E4"/>
</g>
<g opacity="0.1">
<path d="M30.8792 34.6421C35.4245 32.527 40.3352 32.6719 44.7979 35.3839C46.2364 36.2589 47.4331 37.7366 48.9305 38.4784C51.0292 39.5273 55.203 41.712 54.2008 45.2643C53.8648 46.4638 53.0984 47.4084 52.2849 48.1907C49.3962 50.9781 45.7353 52.2124 42.1568 53.2207C40.6948 53.6322 39.221 54.0204 37.7295 54.1827C33.5675 54.6289 29.2875 53.2497 25.8447 50.3406C24.5536 49.2512 23.3333 47.8778 22.7792 46.0756C21.9774 43.4678 22.7261 40.8717 24.5242 39.4693C26.6406 37.812 28.4799 35.7606 30.8792 34.6421Z" fill="#2A364D"/>
</g>
<g opacity="0.2">
<path d="M67.9789 46.4058C67.9671 46.0581 68.0673 45.7162 68.2796 45.4091C68.651 44.8817 69.2935 44.563 69.9007 44.5398C70.5021 44.5167 71.4394 45.0382 71.2626 45.9074C71.1211 46.5912 70.6907 47.2113 70.2191 47.5996C69.9715 47.8024 69.6767 47.9646 69.3584 47.9936C68.987 48.0342 68.7335 47.8893 68.4564 47.559C68.1499 47.2113 67.9907 46.8057 67.9789 46.4058Z" fill="#EAE6E4"/>
</g>
<g opacity="0.2">
<path d="M71.4689 48.9094C71.4866 48.8167 71.522 48.7182 71.5691 48.6196C72.0113 47.7098 73.3259 46.8696 74.3517 47.3274C74.9471 47.5939 75.0237 48.1676 74.953 48.7413C74.8764 49.373 74.5226 49.9177 74.0039 50.2944C73.8742 50.3871 73.7268 50.4798 73.5499 50.532C72.872 50.729 72.2176 50.4914 71.7932 49.9467C71.5397 49.6164 71.3982 49.2803 71.4689 48.9094Z" fill="#EAE6E4"/>
</g>
<g opacity="0.2">
<path d="M72.0874 53.6727C72.111 53.1628 72.4471 52.6876 72.8067 52.3051C73.2665 51.8183 73.8914 51.6097 74.5634 51.743C75.9547 52.0212 75.3416 53.9567 74.6696 54.6347C74.5517 54.7506 74.4161 54.8723 74.2392 54.9534C73.461 55.3185 72.5296 55.0461 72.1936 54.2406C72.111 54.0494 72.0815 53.8582 72.0874 53.6727Z" fill="#EAE6E4"/>
</g>
<path d="M29.3709 80.3235C29.4357 80.3641 29.5065 80.3989 29.5772 80.4337C30.1903 80.735 30.7975 81.0016 31.3989 81.3493C34.3052 83.0298 37.3 84.5539 40.342 85.9678C41.4385 86.4778 42.5468 86.9703 43.6551 87.4571C46.7383 88.7957 49.9571 89.7751 53.1759 90.7544C54.6792 91.2122 56.1825 91.67 57.7152 92.0119C59.1301 92.3307 60.6747 92.7189 62.0954 92.2437C64.3238 91.4904 66.0747 89.6998 67.2479 87.6715C67.407 87.3934 67.5603 87.1094 67.7077 86.8197C68.8514 84.5249 69.5765 82.0041 69.6236 79.4427C69.6885 76.3424 69.1756 72.7901 66.7173 70.6054C66.4284 70.3505 66.1101 70.1071 65.7387 70.0086C65.3673 69.91 64.9192 69.9796 64.6657 70.2635C64.4122 69.5508 63.4985 69.3537 62.738 69.3016C61.9952 69.2494 61.105 69.4986 61.105 70.2635C61.105 69.8115 60.545 69.516 60.2266 69.5392C59.5428 69.5855 58.853 69.9738 58.3107 70.3563C57.5679 70.8836 57.0491 71.7818 56.1707 72.1063C55.3748 72.4019 54.5318 72.0252 53.8126 71.6949C53.0462 71.3414 52.1973 71.1444 51.3837 70.9068C45.2468 69.1045 38.8033 67.5689 32.3421 67.9514C30.9862 68.0325 29.6362 68.2121 28.3157 68.5077C27.06 68.7916 25.8043 69.1973 24.7903 69.9796C23.9414 70.6344 23.2752 71.6022 23.1455 72.6742C23.0099 73.8158 23.906 74.8299 24.5781 75.6702C25.5331 76.8698 26.6001 77.9824 27.7556 78.9965C28.2449 79.4369 28.7873 79.9816 29.3709 80.3235Z" fill="#272628"/>
<g opacity="0.15">
<path d="M29.359 80.1093C29.2765 80.0224 29.1999 79.9355 29.1232 79.8486C28.9817 79.6863 28.8402 79.4777 28.911 79.2749C28.9699 79.101 29.1704 79.0083 29.3531 79.0141C29.5359 79.0199 29.7127 79.101 29.8778 79.1764C34.2462 81.2162 38.7796 82.9141 43.4192 84.2527C44.9696 84.6989 46.5731 85.1104 48.1825 84.9423C48.6424 84.896 49.1022 84.7974 49.4972 84.5656C50.2518 84.131 50.464 83.1865 50.7882 82.4447C51.195 81.5175 51.6018 80.5961 51.9614 79.6515C52.4271 78.4346 52.8575 77.1481 53.7005 76.1224C54.1485 75.5719 54.8913 74.6969 55.64 74.5636C55.9643 74.5056 56.3416 74.6157 56.4948 74.9055C56.5656 75.0446 56.5774 75.2068 56.5774 75.3633C56.5715 75.9891 56.3946 76.5976 56.2414 77.2061C55.0387 81.9869 55.1861 87.2313 57.497 91.6007C56.2531 91.6065 54.8619 91.1835 53.7418 90.6735C51.9791 89.8738 50.0396 89.4971 48.2061 88.8829C46.2961 88.2396 44.4155 87.5153 42.5349 86.7909C40.1591 85.8753 37.7833 84.9597 35.4842 83.8761C33.4091 82.8967 30.9448 81.8073 29.359 80.1093Z" fill="#2A364D"/>
</g>
<path d="M19.3486 65.2047C19.3486 65.2047 20.5748 74.9981 32.5362 82.0621C34.5583 83.2559 36.6452 84.3338 38.7793 85.3131C43.5073 87.492 48.4416 89.2363 53.4644 90.6271C54.8851 91.0211 56.3118 91.3862 57.7502 91.7107C58.6875 91.9193 59.4127 92.3597 60.4208 92.3366C61.8415 92.3076 63.2328 91.7571 64.3529 90.911C65.7088 89.8853 66.6992 88.4771 67.4715 86.9878C68.3086 85.3826 68.9748 83.9165 69.352 82.1317C69.7588 80.202 69.918 78.2317 69.5879 76.2788C69.1693 73.8275 67.8488 70.2752 64.8009 70.3158C64.7184 70.3158 64.3529 69.7479 63.7928 69.5393C62.8437 69.18 61.6175 69.1336 61.081 70.1014C60.3618 69.6957 59.9786 69.7015 59.79 69.6899C59.1356 69.6436 58.5755 70.0261 58.1334 70.4723C57.65 70.959 57.2314 71.9616 56.6655 72.3035C55.9522 72.7323 50.8881 70.6635 47.127 69.7015" stroke="#2A364D" stroke-width="5" stroke-miterlimit="10" stroke-linecap="round" stroke-linejoin="round"/>
<path d="M60.1965 88.4597C60.6504 89.0449 61.2104 89.3463 61.8 89.4274C62.7786 89.5607 63.8515 89.0913 64.6651 88.309C65.402 87.602 65.909 86.7038 66.3334 85.7882C66.5338 85.3652 66.7166 84.9247 66.8758 84.4785C67.536 82.6415 67.8072 80.6597 67.1352 78.8632C66.8463 78.0983 66.3629 77.3623 65.6378 76.9683C63.091 75.5949 60.9157 78.1563 59.943 80.3236C59.7956 80.6539 59.6718 80.9784 59.5834 81.2739C59.4596 81.6796 59.3534 82.1084 59.2768 82.5488C58.929 84.4322 58.9526 86.8545 60.1965 88.4597Z" fill="#66636B"/>
<g opacity="0.15">
<path d="M60.1967 88.4598C60.6507 89.045 61.2107 89.3464 61.8002 89.4275C62.7788 89.5608 63.8518 89.0914 64.6653 88.3091C65.4022 87.6021 65.9092 86.7039 66.3337 85.7883C66.5341 85.3653 66.7169 84.9248 66.876 84.4786C65.7559 85.9042 64.3352 86.7155 62.9793 86.5242C60.8511 86.2229 59.6072 83.5572 59.9373 80.3237C59.79 80.654 59.6662 80.9785 59.5777 81.274C59.4539 81.6797 59.3478 82.1085 59.2712 82.5489C58.9292 84.4323 58.9528 86.8546 60.1967 88.4598Z" fill="#2A364D"/>
</g>
<path d="M66.1868 73.2945C65.78 74.3318 66.4992 78.0174 67.9023 76.134C68.987 74.6795 66.9413 71.3706 66.1868 73.2945Z" fill="#66636B"/>
<path d="M60.7686 72.9699C61.3935 74.1289 61.1753 76.9568 59.6838 76.5627C59.3124 76.4642 59.0236 76.1455 58.888 75.792C58.7524 75.4385 58.7524 75.0445 58.7995 74.6678C58.8644 74.181 59.0118 73.7058 59.2299 73.2596C59.3773 72.9641 59.5777 72.6628 59.8902 72.5411C60.2675 72.3904 60.5622 72.5874 60.7686 72.9699Z" fill="#66636B"/>
<path d="M63.2618 71.9732C63.079 72.0601 62.967 72.2397 62.8786 72.4136C62.6605 72.8366 62.5013 73.2886 62.4129 73.758C62.1535 75.1488 63.7393 76.7482 64.7238 75.1662C65.1954 74.407 64.4114 71.4284 63.2618 71.9732Z" fill="#66636B"/>
<g opacity="0.15">
<path d="M67.9073 76.1281C68.1195 75.8383 68.2138 75.4733 68.2138 75.0966C68.1726 75.1835 68.1254 75.2647 68.0665 75.3458C66.8874 76.9278 66.1918 74.5808 66.2389 73.1727C66.2212 73.2074 66.2036 73.248 66.1859 73.2944C65.785 74.3259 66.5042 78.0172 67.9073 76.1281Z" fill="#2A364D"/>
</g>
<g opacity="0.15">
<path d="M58.8883 75.7862C59.0239 76.1455 59.3127 76.4584 59.6841 76.5569C61.1108 76.9394 61.3761 74.3722 60.8455 73.1263C61.0341 74.4186 60.6451 76.0875 59.4719 75.7746C59.1713 75.6934 58.9237 75.4732 58.7704 75.2009C58.7822 75.4095 58.8175 75.6065 58.8883 75.7862Z" fill="#2A364D"/>
</g>
<g opacity="0.15">
<path d="M64.7245 75.1661C64.866 74.9401 64.8955 74.5113 64.8365 74.0419C64.813 74.1694 64.7776 74.2795 64.7245 74.3664C63.911 75.6703 62.6848 74.8068 62.4313 73.6768C62.4254 73.7058 62.4195 73.729 62.4136 73.758C62.1483 75.1487 63.74 76.7481 64.7245 75.1661Z" fill="#2A364D"/>
</g>
<path d="M65.5555 72.8366C65.4907 71.9442 65.2136 71.0633 64.742 70.2926" stroke="#2A364D" stroke-width="2" stroke-miterlimit="10" stroke-linecap="round" stroke-linejoin="round"/>
<path d="M61.7998 72.3556C61.7349 71.5095 61.4578 70.6751 60.9862 69.9449" stroke="#2A364D" stroke-width="2" stroke-miterlimit="10" stroke-linecap="round" stroke-linejoin="round"/>
<path d="M14.0369 88.5293C14.5027 88.7379 14.9625 88.9407 15.4046 89.1262C17.8335 90.1519 20.787 91.3167 23.4634 91.2993C26.4582 91.2819 29.4 91.815 32.436 91.589C35.6018 91.3572 38.7262 90.7603 41.8153 90.065C49.0606 88.4308 55.5277 82.7865 58.3161 74.633C58.5755 73.8681 58.8054 73.0858 58.9941 72.2977C59.7428 69.2032 59.9491 65.958 59.7605 62.7302C59.5129 58.5289 58.5755 54.3449 57.2491 50.5261C56.0111 46.9622 53.9831 43.8387 51.513 41.2078C49.1255 38.658 46.3193 36.5719 43.4189 35.0014C42.1632 34.3176 40.8839 33.7323 39.6105 33.2456C36.7042 32.1329 33.6622 31.5013 30.6026 31.4607C27.3956 31.4202 24.1945 32.1156 21.1997 33.4542C20.3743 33.8193 19.5726 34.2365 18.7826 34.7001C17.3206 35.5578 15.9883 36.5835 14.768 37.7598C14.0664 38.432 13.4121 39.1506 12.7931 39.9155C9.19695 44.3545 7.05698 49.5467 4.98775 54.7854C2.60017 60.8237 -0.235439 67.3894 1.35628 73.9434C2.18751 77.3682 3.70258 80.7757 6.14322 83.3892C8.13581 85.5391 11.2131 87.2486 14.0369 88.5293Z" fill="#E2DFEA" stroke="#2A364D" stroke-width="3" stroke-miterlimit="10"/>
<path d="M2.68301 60.5454C7.38152 62.9909 14.391 65.5638 19.4432 66.6823C25.2854 67.9687 31.6346 68.1194 37.5652 67.9398C41.7626 67.8123 45.9659 67.2502 50.0277 65.9521C53.3055 64.9032 56.6009 64.0629 59.7549 62.5736C59.5073 58.3723 58.5699 54.1884 57.2435 50.3695C56.0055 46.8056 53.9775 43.6821 51.5074 41.0512C49.1199 38.5015 46.3137 36.4153 43.4133 34.8449C39.8231 34.7232 36.2329 34.4856 32.6485 34.1668C28.8225 33.8307 24.9906 33.8481 21.1941 33.2976C20.3687 33.6627 19.567 34.0799 18.777 34.5435C17.315 35.4012 15.9827 36.4269 14.7624 37.6032C14.0608 38.2755 13.4065 38.994 12.7875 39.759C11.2901 41.6076 10.0049 43.7169 8.92018 46.0291C7.22824 49.6625 5.74854 52.0269 4.31599 55.8921C1.29763 64.0456 2.28213 59.0387 2.68301 60.5454Z" fill="#272628"/>
<g opacity="0.1">
<path d="M1.36806 77.8144C2.24055 79.918 3.52572 81.8883 5.35914 83.2791C5.64801 82.8213 5.68338 82.2534 5.71875 81.7144C5.75412 81.1639 5.80129 80.6192 5.85434 80.0687C6.59715 72.2455 8.94345 64.573 12.6869 57.6307C13.5535 56.0255 14.5498 54.5362 15.1983 52.8614C15.8939 51.0592 16.9197 49.3439 17.9632 47.7213C19.9911 44.5863 22.42 41.7236 24.7368 38.7913C27.2895 35.5635 21.7833 35.3723 19.7553 35.5114C17.5446 35.6679 15.5992 37.7193 14.0841 39.2433C12.2094 41.1267 10.6059 43.2708 9.24411 45.5424C6.774 49.6452 5.0408 54.1305 3.38423 58.61C2.69449 60.4644 2.01654 62.3246 1.50365 64.2369C0.81391 66.8041 0.418922 69.4524 0.336388 72.1122C0.295122 73.3639 0.330494 74.6272 0.678314 75.8326C0.866961 76.4932 1.09687 77.1596 1.36806 77.8144Z" fill="#2A364D"/>
</g>
<path d="M34.1692 53.0063C36.5096 53.0063 38.7734 52.6992 41.4557 52.2356C43.4837 51.8879 45.8772 51.4359 48.3119 50.7811C49.3731 50.4913 50.3399 50.1958 51.2713 49.8655C51.7135 49.709 52.1497 49.5409 52.5801 49.3729C52.7687 49.2976 52.9633 49.2164 53.1578 49.1295C53.9596 48.7876 54.7318 48.4109 55.4511 48.0111C55.9698 47.7213 56.4709 47.42 56.9367 47.1071C64.5238 42.0365 67.0647 34.6074 64.2939 25.631C63.1915 22.0613 60.067 15.3682 57.0546 12.0767C56.3412 11.2943 55.5749 10.57 54.779 9.93253L54.5491 9.7355H54.5255C53.258 8.75036 51.8726 7.9101 50.3929 7.24368C45.9951 5.25601 41.2022 4.84457 35.3542 4.84457C35.0181 4.84457 34.2046 4.85037 34.2046 4.85037C33.8745 4.85037 33.5443 4.84457 33.2083 4.84457C31.7816 4.84457 30.5908 4.86775 29.4589 4.91991C25.179 5.11114 21.8364 5.74279 18.9477 6.91337C17.0907 7.66671 15.44 8.62287 13.9014 9.83981C13.0583 10.512 12.2507 11.2654 11.5079 12.0767C8.45415 15.4203 5.57138 21.818 4.49845 25.3007C3.14844 29.6817 2.99516 33.715 4.04451 37.2962C4.29211 38.1307 4.60456 38.9478 4.97596 39.7243C5.22945 40.2632 5.53601 40.8138 5.88383 41.3527C6.26702 41.967 6.71506 42.5812 7.21616 43.1723C8.41879 44.6094 9.91028 45.9307 11.6553 47.0955L11.7142 47.1302C12.6752 47.7677 13.7599 48.3588 14.9389 48.8803C15.5461 49.1527 16.1474 49.3961 16.8077 49.6337L17.0435 49.7206C19.2425 50.5087 21.518 51.065 23.2453 51.4591C26.8178 52.2704 29.5768 52.7224 32.2061 52.931C32.8487 52.9773 33.509 53.0063 34.1692 53.0063Z" fill="#E2DFEA"/>
<path d="M33.2142 5.70802C31.9703 5.70802 30.7323 5.7254 29.5061 5.78335C25.9394 5.93982 22.4848 6.4208 19.2896 7.71307C17.6036 8.39687 15.9883 9.30667 14.4673 10.512C13.6714 11.1437 12.9051 11.8564 12.174 12.6562C9.3797 15.7159 6.50282 21.8295 5.35325 25.5499C4.1801 29.3572 3.81459 33.3267 4.90521 37.0528C5.13513 37.8294 5.424 38.6001 5.7895 39.3534C6.0371 39.875 6.32597 40.3849 6.64431 40.8891C7.01571 41.4802 7.43427 42.0597 7.90589 42.6218C9.02009 43.9604 10.4232 45.2179 12.1564 46.3827C12.1623 46.3827 12.1682 46.3885 12.174 46.3943C13.1527 47.0491 14.2079 47.6112 15.3044 48.098C15.3162 48.1038 15.328 48.1096 15.3398 48.1154C15.9234 48.3762 16.5188 48.6138 17.1202 48.834C17.1968 48.8629 17.2734 48.8861 17.3501 48.9151C19.378 49.6395 21.4767 50.1726 23.4576 50.6246C26.3875 51.291 29.3233 51.8415 32.2886 52.0733C32.9253 52.1255 33.5502 52.1487 34.1751 52.1487C36.5686 52.1487 38.9031 51.8068 41.3084 51.3895C43.4601 51.0187 45.7828 50.5724 48.082 49.9524C49.0547 49.6916 50.0215 49.3903 50.9707 49.0542C51.401 48.9035 51.8255 48.7412 52.244 48.5732C52.4327 48.4979 52.6154 48.4225 52.8041 48.3414C53.5646 48.0169 54.3074 47.6576 55.0207 47.2635C55.51 46.9912 55.9875 46.7014 56.4415 46.4001C64.795 40.7964 65.7029 33.1644 63.4509 25.8802C62.3131 22.183 59.2004 15.7101 56.4002 12.6504C55.7045 11.8912 54.9735 11.2074 54.2189 10.5932C54.2131 10.5932 54.2131 10.5932 54.2131 10.5932C52.8807 9.52109 51.4836 8.68082 50.0274 8.02599C45.5294 5.99197 40.5125 5.70802 35.3601 5.70802C35.0299 5.70802 34.6939 5.70802 34.3579 5.71381H34.2046C33.8745 5.70802 33.5443 5.70802 33.2142 5.70802ZM33.2142 3.96954C33.5502 3.96954 33.8862 3.96954 34.2223 3.97533H34.3638C34.688 3.97533 35.0299 3.96954 35.3659 3.96954C41.326 3.96954 46.2309 4.39257 50.7761 6.44977C52.2205 7.0988 53.5882 7.9101 54.8379 8.86047H54.8497H54.8556H54.8674L55.3567 9.25452C56.188 9.92094 56.9838 10.6743 57.7266 11.4914C60.8216 14.8756 64.0286 21.731 65.1546 25.376C68.0492 34.7523 65.3845 42.5117 57.4495 47.8198C56.9543 48.1502 56.4356 48.4631 55.8991 48.7644C55.1563 49.1759 54.3545 49.5699 53.5174 49.9234C53.317 50.0103 53.1165 50.0973 52.9102 50.1784C52.4975 50.3464 52.0436 50.5203 51.5838 50.6825C50.6464 51.0187 49.6266 51.3316 48.5595 51.6213C46.0776 52.2935 43.5485 52.7629 41.6208 53.0932C38.8972 53.5626 36.5863 53.8756 34.181 53.8756C33.4913 53.8756 32.8074 53.8466 32.1471 53.7944C29.4825 53.5858 26.6823 53.1222 23.0626 52.3051C21.2999 51.9053 18.9949 51.3374 16.7488 50.5319L16.513 50.4507C15.8291 50.2016 15.2101 49.9524 14.6147 49.6858C14.597 49.68 14.5793 49.6684 14.5557 49.6568C13.359 49.1237 12.2566 48.5268 11.278 47.8778L11.2662 47.872L11.166 47.8083C9.35612 46.5971 7.79978 45.2179 6.54409 43.717C6.01941 43.097 5.54779 42.4479 5.14103 41.7931C4.78731 41.231 4.46307 40.6515 4.19189 40.0778C3.8028 39.2665 3.47267 38.4031 3.21328 37.528C2.11086 33.7845 2.26414 29.5832 3.66721 25.0399C4.76373 21.4876 7.71724 14.9278 10.8594 11.4914C11.6376 10.6395 12.4747 9.8572 13.3531 9.15601C14.9389 7.89851 16.7075 6.8728 18.6176 6.10207C21.6064 4.89093 25.0434 4.2361 29.4294 4.04487C30.5672 3.99272 31.7698 3.96954 33.2142 3.96954Z" fill="#2A364D"/>
<path d="M43.2125 20.601C43.8728 20.3576 44.592 20.3171 45.2994 20.3287C47.9641 20.375 50.6111 21.1689 52.8513 22.5887C53.034 22.7046 52.9633 22.9827 52.751 23.0001C52.4504 23.0291 52.1026 22.9596 51.8373 23.0175C51.6486 23.0581 51.5956 23.3015 51.7488 23.4116C53.0517 24.3967 54.2013 25.5847 55.1386 26.9175C55.2624 27.0971 55.0856 27.3289 54.8792 27.2594C54.8733 27.2594 54.8674 27.2594 54.8674 27.2536C54.6611 27.1899 54.4901 27.4159 54.6139 27.5955C56.3 30.0699 57.2845 33.0022 57.4201 35.975C57.4201 36.0098 57.4201 36.0503 57.4201 36.0851C57.4201 36.2995 57.1371 36.3864 57.0074 36.2184C55.1209 33.7787 53.6412 31.0551 51.7547 28.6096C49.7857 26.0656 47.239 23.7593 44.0791 23.0001C43.354 22.8263 42.6112 22.7625 41.8743 22.6582C41.7328 22.6408 41.6444 22.496 41.6916 22.3627C41.9568 21.5456 42.2103 20.9719 43.2125 20.601Z" fill="#ECEAF4"/>
<path d="M24.1296 20.601C23.4693 20.3576 22.7501 20.3171 22.0427 20.3287C19.378 20.375 16.7311 21.1689 14.4909 22.5887C14.3081 22.7046 14.3789 22.9827 14.5911 23.0001C14.8918 23.0291 15.2396 22.9596 15.5049 23.0175C15.6935 23.0581 15.7466 23.3015 15.5933 23.4116C14.2904 24.3967 13.1409 25.5847 12.2035 26.9175C12.0797 27.0971 12.2566 27.3289 12.4629 27.2594C12.4688 27.2594 12.4747 27.2594 12.4747 27.2536C12.681 27.1899 12.852 27.4159 12.7282 27.5955C11.0422 30.0699 10.0577 33.0022 9.92207 35.975C9.92207 36.0098 9.92207 36.0503 9.92207 36.0851C9.92207 36.2995 10.205 36.3864 10.3347 36.2184C12.2212 33.7787 13.7009 31.0551 15.5874 28.6096C17.5564 26.0656 20.1032 23.7593 23.263 23.0001C23.9881 22.8263 24.7309 22.7625 25.4678 22.6582C25.6093 22.6408 25.6977 22.496 25.6506 22.3627C25.3853 21.5456 25.1318 20.9719 24.1296 20.601Z" fill="#ECEAF4"/>
<g opacity="0.6">
<path d="M17.3501 48.8977C19.378 49.6221 21.4768 50.1552 23.4576 50.6072C26.3875 51.2736 29.3233 51.8241 32.2886 52.0559C35.3601 52.3051 38.2723 51.8995 41.3084 51.3721C43.4601 51.0013 45.7829 50.5551 48.082 49.935C49.0547 49.6742 50.0215 49.3729 50.9707 49.0368C47.9995 48.5094 44.8514 48.3008 43.0003 44.5457C41.9804 42.4653 41.7977 40.0257 41.444 37.7366C41.1315 35.7142 40.3356 33.9236 38.7675 32.7066C37.7241 31.8953 36.4389 31.5361 35.1832 31.3912C34.7882 31.3448 34.3873 31.3159 33.9924 31.2985C33.9098 31.2985 33.8214 31.2927 33.7389 31.2927C33.6563 31.2927 33.5738 31.2927 33.4854 31.2985C33.0904 31.3101 32.6895 31.3448 32.2945 31.3912C31.0388 31.5303 29.7537 31.8953 28.7102 32.7066C27.1421 33.9236 26.3462 35.7142 26.0338 37.7366C25.6801 40.0257 25.4973 42.4653 24.4774 44.5457C22.8032 47.9531 20.056 48.4457 17.3501 48.8977Z" fill="white"/>
</g>
<g opacity="0.6">
<path d="M34.2691 31.3043C34.3516 31.3043 34.4341 31.3043 34.5226 31.31V31.3043C34.4341 31.3043 34.3516 31.3043 34.2691 31.3043Z" fill="white"/>
</g>
<g opacity="0.8">
<path d="M54.915 38.3625C54.3726 39.0347 53.5944 39.5331 52.5333 39.7359C49.5857 40.3038 46.361 38.0611 44.1915 36.4965C39.6286 33.205 38.538 28.7545 40.0766 23.4985C40.2653 22.861 40.507 22.2178 40.9845 21.7542C42.0515 20.7169 43.8201 20.9545 45.235 21.4528C50.1457 23.1855 54.1073 27.3231 55.5752 32.2488C56.1766 34.2655 56.1825 36.7921 54.915 38.3625Z" fill="#2A364D"/>
</g>
<g opacity="0.8">
<path d="M11.9972 38.3625C12.5396 39.0347 13.3177 39.5331 14.3789 39.7359C17.3265 40.3038 20.5512 38.0612 22.7206 36.4965C27.2836 33.205 28.3742 28.7545 26.8355 23.4985C26.6469 22.861 26.4052 22.2178 25.9277 21.7542C24.8606 20.7169 23.092 20.9545 21.6772 21.4529C16.7664 23.1856 12.8048 27.3231 11.3369 32.2488C10.7415 34.2655 10.7297 36.7921 11.9972 38.3625Z" fill="#2A364D"/>
</g>
<path d="M36.0326 37.9859H35.9323C34.4526 38.1134 33.3148 38.9189 33.3148 39.8925C33.3148 40.953 34.9832 42.222 36.6575 42.222C38.3258 42.222 39.3634 40.9587 39.3634 39.8925C39.3634 38.832 38.0075 37.9686 36.3391 37.9686C36.2389 37.9686 36.1328 37.9744 36.0326 37.9802V37.9859Z" fill="#E2DFEA"/>
<path d="M27.2015 39.8925C27.2015 40.953 28.239 42.222 29.9074 42.222C31.5758 42.222 33.25 40.9587 33.25 39.8925C33.25 38.832 31.8941 37.9686 30.2257 37.9686C28.5574 37.9686 27.2015 38.832 27.2015 39.8925Z" fill="#E2DFEA"/>
<path d="M33.7865 38.8552C33.4858 39.1565 33.309 39.51 33.309 39.8925C33.309 40.953 34.9773 42.222 36.6516 42.222C38.3199 42.222 39.3575 40.9587 39.3575 39.8925" stroke="#4C4A45" stroke-width="3" stroke-miterlimit="10" stroke-linecap="round" stroke-linejoin="round"/>
<path d="M27.2015 39.8925C27.2015 40.953 28.239 42.222 29.9074 42.222C31.5758 42.222 33.25 40.9587 33.25 39.8925C33.25 39.51 33.0731 39.1565 32.7725 38.8552" stroke="#4C4A45" stroke-width="3" stroke-miterlimit="10" stroke-linecap="round" stroke-linejoin="round"/>
<g opacity="0.6">
<path d="M45.1344 16.2838C45.0636 16.1331 45.0636 15.9535 45.0577 15.7854C45.0518 15.5652 45.0283 15.3334 44.928 15.1364C44.8278 14.9394 44.6274 14.7771 44.4034 14.7655C44.1381 14.7597 43.9141 14.9567 43.7726 15.1712C43.5957 15.4377 43.525 15.8144 43.3186 16.052C43.2007 16.1911 42.9885 16.2664 42.8293 16.1795C42.7468 16.1389 42.6937 16.0578 42.6407 15.9882C42.4992 15.8086 42.3341 15.6405 42.1573 15.4957C42.0629 15.4203 41.945 15.345 41.8271 15.3798C41.7387 15.4029 41.6798 15.4783 41.6326 15.5536C41.5029 15.7564 41.4204 15.9824 41.385 16.22C41.3555 16.4344 41.3673 16.6547 41.273 16.8517C40.8898 17.6804 39.8404 15.6869 39.2804 17.1936C39.1153 17.634 39.2568 18.1498 39.5575 18.5148C40.2059 19.2971 40.8426 19.1697 41.721 18.9263C42.9708 18.5844 44.0968 17.9469 45.3407 17.5934C45.659 17.5065 45.9892 17.437 46.2722 17.2631C46.5551 17.0893 46.7791 16.7821 46.732 16.4576C46.6848 16.1331 46.2722 15.8897 46.001 16.0752C45.8241 16.1969 45.7475 16.4518 45.5411 16.504C45.3761 16.5619 45.2051 16.4344 45.1344 16.2838Z" fill="white"/>
</g>
<g opacity="0.6">
<path d="M22.1016 16.2838C22.1724 16.1331 22.1724 15.9535 22.1783 15.7854C22.1842 15.5652 22.2078 15.3334 22.308 15.1364C22.4082 14.9394 22.6086 14.7771 22.8327 14.7655C23.0979 14.7597 23.322 14.9567 23.4634 15.1712C23.6403 15.4377 23.711 15.8144 23.9174 16.052C24.0353 16.1911 24.2475 16.2664 24.4067 16.1795C24.4892 16.1389 24.5423 16.0578 24.5953 15.9882C24.7368 15.8086 24.9019 15.6405 25.0787 15.4957C25.1731 15.4203 25.291 15.345 25.4089 15.3798C25.4973 15.4029 25.5563 15.4783 25.6034 15.5536C25.7331 15.7564 25.8156 15.9824 25.851 16.22C25.8805 16.4344 25.8687 16.6547 25.963 16.8517C26.3462 17.6804 27.3956 15.6869 27.9556 17.1936C28.1207 17.634 27.9792 18.1498 27.6785 18.5148C27.0301 19.2971 26.3934 19.1697 25.515 18.9263C24.2652 18.5844 23.1392 17.9469 21.8953 17.5934C21.577 17.5065 21.2468 17.437 20.9639 17.2631C20.6809 17.0893 20.4569 16.7821 20.504 16.4576C20.5512 16.1331 20.9639 15.8897 21.235 16.0752C21.4119 16.1969 21.4885 16.4518 21.6949 16.504C21.8599 16.5619 22.025 16.4344 22.1016 16.2838Z" fill="white"/>
</g>
<path d="M37.9363 38.1829C38.4845 37.6555 38.8854 37.0528 39.0564 36.4212C40.0998 32.5212 24.4833 32.7762 29.0462 37.7598C30.2371 39.0637 31.9349 40.4081 34.1338 40.0488C35.5251 39.817 36.9576 39.1158 37.9363 38.1829Z" fill="#2A364D"/>
<path opacity="0.3" d="M33.6382 36.6182C31.6489 36.6182 30.0362 36.1512 30.0362 35.5751C30.0362 34.999 31.6489 34.532 33.6382 34.532C35.6276 34.532 37.2402 34.999 37.2402 35.5751C37.2402 36.1512 35.6276 36.6182 33.6382 36.6182Z" fill="#B0B0B0"/>
<path d="M43.466 74.8882C43.9612 74.8882 44.4623 74.7433 44.9044 74.4709C45.3348 74.2044 45.6236 73.8741 45.8359 73.6191C46.0304 73.3757 46.2132 73.1207 46.39 72.8657C46.5492 72.6339 46.7025 72.4137 46.8558 72.2399C46.9265 72.1588 47.1387 72.0544 47.3804 71.9385C47.5632 71.8516 47.7459 71.7647 47.9346 71.6604C48.1527 71.5387 48.4769 71.3417 48.7658 71.0229C48.8542 70.9244 48.9309 70.8259 49.0016 70.7158C49.4379 70.0436 49.9095 68.6992 48.135 67.262C48.082 67.2215 48.0348 67.1809 47.9935 67.1461C47.9228 67.0824 47.852 67.0128 47.7872 66.9433C47.7459 66.8969 47.6811 66.8216 47.6162 66.7521C47.5809 66.7115 47.5455 66.6594 47.5101 66.6072C47.3215 66.3464 47.0621 65.9871 46.6671 65.6916C46.2367 65.3729 45.7415 65.2048 45.2287 65.2048C44.8278 65.2048 44.4387 65.3033 44.0732 65.5004C43.9612 65.5641 43.8551 65.6279 43.7549 65.6974C43.4011 65.964 43.1771 66.2653 43.0356 66.4681C42.9177 66.642 42.8116 66.8158 42.7114 66.9897C42.5758 67.2157 42.4579 67.4127 42.3695 67.4764C42.1749 67.6097 41.945 67.743 41.6974 67.8879C41.4262 68.0443 41.155 68.2008 40.8957 68.3747C40.6186 68.5601 40.2649 68.8209 39.9642 69.2149C39.5339 69.7828 39.3511 70.4608 39.4454 71.1215C39.5515 71.8458 39.9878 72.5007 40.6481 72.9121C40.7778 72.9932 40.9074 73.057 41.0371 73.1207C41.0843 73.2366 41.1374 73.3757 41.2199 73.5148C41.5913 74.1928 42.2221 74.6738 42.9472 74.8302C43.1064 74.8708 43.2832 74.8882 43.466 74.8882Z" fill="#AFE017"/>
<path d="M45.2172 66.9374C45.1169 66.9374 45.0108 66.9664 44.8988 67.0243C44.8634 67.0417 44.834 67.0649 44.8045 67.0881C44.6807 67.1808 44.5864 67.3025 44.4979 67.43C44.1383 67.9573 43.9379 68.502 43.3896 68.8903C42.9062 69.2322 42.3639 69.4814 41.8746 69.8117C41.6859 69.9334 41.5032 70.0725 41.3676 70.2521C41.232 70.4318 41.1494 70.6578 41.1789 70.878C41.2143 71.1156 41.3794 71.3242 41.5857 71.4517C41.6446 71.4922 41.7095 71.5212 41.7743 71.5502C41.9276 71.6197 42.0927 71.6777 42.2342 71.7646C42.2872 71.7994 42.3403 71.8341 42.3874 71.8747C42.4228 71.9268 42.4582 71.979 42.4877 72.037C42.5997 72.2514 42.6409 72.489 42.7529 72.6976C42.8708 72.912 43.0654 73.0858 43.3012 73.138C43.3484 73.1496 43.4014 73.1554 43.4545 73.1554C43.6254 73.1554 43.8023 73.0974 43.9497 73.0047C44.1383 72.8888 44.2916 72.7208 44.4331 72.5469C44.8045 72.0891 45.0993 71.5792 45.4824 71.1329C45.9128 70.6288 46.4846 70.4665 47.0447 70.1594C47.1803 70.0841 47.3159 70.0029 47.4161 69.887C47.4397 69.8581 47.4632 69.8291 47.4868 69.8001C47.8877 69.18 47.1331 68.7744 46.7558 68.4209C46.6615 68.334 46.5731 68.2413 46.4846 68.1543C46.3962 68.0616 46.3137 67.9631 46.2311 67.8646C46.0425 67.6386 45.8421 67.2851 45.5827 67.0881C45.4824 66.9954 45.3586 66.9374 45.2172 66.9374ZM45.2172 63.4604C46.1191 63.4604 46.9857 63.7502 47.7226 64.2949C48.3416 64.7527 48.7189 65.2801 48.9489 65.593L49.0019 65.6683C49.0314 65.7031 49.0609 65.7321 49.0903 65.7668C49.1198 65.7958 49.1493 65.8306 49.1847 65.8595L49.2554 65.9175C49.5796 66.1783 50.1161 66.6187 50.5465 67.3199C51.3836 68.6875 51.36 70.3043 50.4757 71.6545C50.3578 71.8341 50.2281 72.008 50.0807 72.1644C49.727 72.5585 49.3085 72.883 48.7897 73.167C48.5421 73.3003 48.3181 73.4104 48.1412 73.4973C48.1117 73.5089 48.0822 73.5263 48.0528 73.5378C47.9879 73.6306 47.9113 73.7349 47.8346 73.845C47.6578 74.1 47.4574 74.3897 47.2098 74.691C46.9386 75.0271 46.5023 75.5197 45.8421 75.9312C45.1169 76.3832 44.2916 76.6207 43.4604 76.6207C43.1538 76.6207 42.8473 76.586 42.5466 76.5222C41.3263 76.2557 40.271 75.4676 39.6579 74.3549C38.5732 73.6653 37.854 72.5701 37.6771 71.3531C37.518 70.2405 37.8186 69.1105 38.5261 68.1717C38.9918 67.5575 39.5282 67.1634 39.8879 66.9258C40.2121 66.7056 40.5245 66.5318 40.7957 66.3753C40.9136 66.3116 41.0256 66.242 41.1259 66.1841C41.1435 66.1551 41.1612 66.1261 41.173 66.1029C41.2732 65.9349 41.397 65.7263 41.5562 65.4945C41.8863 65.0077 42.2518 64.6194 42.6704 64.3065C42.8473 64.1732 43.0359 64.0573 43.2246 63.9588C43.8554 63.6343 44.5274 63.4604 45.2172 63.4604Z" fill="#577708"/>
<g opacity="0.17">
<path d="M44.4449 72.5411C44.3034 72.715 44.1501 72.883 43.9615 72.9989C43.7728 73.1148 43.537 73.1843 43.313 73.1322C43.0772 73.08 42.8767 72.9004 42.7647 72.6918C42.6527 72.4832 42.6056 72.2398 42.4994 72.0312C42.47 71.9732 42.4346 71.9211 42.3992 71.8689C42.3521 71.8283 42.299 71.7936 42.2459 71.7588C42.0986 71.6719 41.9394 71.6139 41.7861 71.5444C41.904 71.4864 42.0337 71.4575 42.1634 71.4401C42.4169 71.4111 42.7058 71.469 42.8649 71.6603C43.0123 71.8399 43.0477 72.1239 43.2599 72.2282C43.4898 72.3383 43.7551 72.1586 43.932 71.9732C44.4272 71.4575 44.7927 70.8374 45.2761 70.3159C45.5591 70.0145 45.8715 69.7422 46.2193 69.5162C46.4669 69.3539 46.7499 69.1743 46.7853 68.8845C46.8207 68.56 46.5141 68.3108 46.2783 68.0848C46.0071 67.824 45.789 67.5053 45.6416 67.1634C45.6298 67.1344 45.618 67.1055 45.6062 67.0765C45.8656 67.2677 46.0661 67.6212 46.2547 67.853C46.3372 67.9515 46.4198 68.0442 46.5082 68.1427C46.5966 68.2355 46.6851 68.3224 46.7794 68.4093C47.1567 68.7628 47.9172 69.1685 47.5104 69.7885C47.4868 69.8233 47.4691 69.8523 47.4397 69.8754C47.3394 69.9855 47.2038 70.0725 47.0683 70.1478C46.5023 70.4607 45.9364 70.6172 45.506 71.1214C45.1169 71.5734 44.8163 72.0833 44.4449 72.5411Z" fill="#7D9067"/>
</g>
<g opacity="0.3">
<path d="M45.506 67.4937C45.4648 67.43 45.4176 67.3662 45.3527 67.3257C44.887 67.0475 44.6099 67.824 44.4508 68.0848C44.1678 68.531 43.7905 68.9193 43.3484 69.2148C43.3012 69.2496 43.2481 69.2844 43.2128 69.3307C43.1833 69.3829 43.1715 69.4524 43.2128 69.493C43.2481 69.5277 43.3012 69.5335 43.3484 69.5335C43.5193 69.5277 43.6785 69.464 43.8318 69.3887C44.4036 69.1105 44.9283 68.728 45.3704 68.2702C45.4589 68.1775 45.5473 68.079 45.5945 67.9573C45.6593 67.8066 45.6004 67.6386 45.506 67.4937Z" fill="#DFEFCB"/>
</g>
<g opacity="0.3">
<path d="M42.8944 69.8059C42.7588 69.916 42.5997 69.9855 42.4523 70.0783C42.2754 70.1884 42.1163 70.3274 41.9807 70.4839C41.9394 70.5361 41.8687 70.594 41.8097 70.5592C41.792 70.5477 41.7802 70.5303 41.7743 70.5071C41.739 70.4086 41.792 70.2985 41.8569 70.2057C42.0219 69.974 42.246 69.7885 42.5054 69.6668C42.6115 69.6147 42.7647 69.5393 42.8885 69.5567C43.0536 69.5799 42.9947 69.7248 42.8944 69.8059Z" fill="#DFEFCB"/>
</g>
<path d="M48.4121 68.9366C48.6302 68.9366 48.8602 68.8671 49.0665 68.7396C49.3023 68.5947 49.4851 68.3919 49.6265 68.2122C49.8034 67.9978 49.9567 67.7718 50.1158 67.5458C50.2986 67.2851 50.4696 67.0359 50.67 66.8041C50.9471 66.4854 51.2831 66.3231 51.6781 66.1319C51.8373 66.0565 51.9964 65.9812 52.1556 65.8943C52.2912 65.8189 52.4622 65.7146 52.6036 65.564C52.639 65.5234 52.6685 65.4828 52.698 65.4423C53.1696 64.7179 52.527 64.1906 52.1379 63.8776C52.0613 63.8139 51.9846 63.7501 51.9198 63.6922C51.8314 63.6111 51.7429 63.5241 51.6604 63.4314C51.5838 63.3445 51.5012 63.2518 51.4246 63.1591C51.3656 63.0895 51.3126 63.0142 51.2536 62.9331C51.1062 62.7302 50.9412 62.4984 50.729 62.3362C50.5521 62.2087 50.3693 62.1392 50.1748 62.1392C50.0215 62.1392 49.8682 62.1797 49.715 62.2608C49.6678 62.284 49.6206 62.313 49.5794 62.3478C49.4143 62.4695 49.2964 62.6317 49.208 62.7592C49.1078 62.9099 49.0193 63.0605 48.9309 63.2054C48.7128 63.5763 48.5182 63.895 48.1704 64.1442C47.9228 64.318 47.6575 64.4687 47.3805 64.631C47.1387 64.7701 46.897 64.9091 46.6612 65.0656C46.4726 65.1931 46.2545 65.3495 46.0835 65.5756C45.889 65.8363 45.8005 66.1319 45.8418 66.41C45.8831 66.7172 46.0835 67.0011 46.3842 67.1865C46.4549 67.2329 46.5315 67.2677 46.6082 67.3082L46.7556 67.372C46.8499 67.4125 46.9442 67.4531 47.0326 67.5053C47.0621 67.5226 47.0916 67.5458 47.1211 67.569C47.1387 67.598 47.1623 67.627 47.1741 67.6617C47.2213 67.7544 47.2508 67.8472 47.2861 67.9457C47.3333 68.079 47.3804 68.2065 47.4453 68.3339C47.6104 68.6411 47.8874 68.8555 48.194 68.9192C48.2647 68.9308 48.3355 68.9366 48.4121 68.9366Z" fill="#AFE017"/>
<path d="M50.1634 62.4347C50.0632 62.4347 49.9571 62.4637 49.845 62.5216C49.8097 62.539 49.7802 62.5622 49.7507 62.5854C49.6269 62.6781 49.5326 62.7998 49.4442 62.9273C49.0846 63.4546 48.8841 63.9993 48.3359 64.3876C47.8524 64.7295 47.3101 64.9787 46.8208 65.309C46.6321 65.4307 46.4494 65.5698 46.3138 65.7494C46.1782 65.9291 46.0957 66.1551 46.1251 66.3753C46.1605 66.6129 46.3256 66.8215 46.5319 66.949C46.5909 66.9895 46.6557 67.0185 46.7206 67.0475C46.8738 67.117 47.0389 67.175 47.1804 67.2619C47.2334 67.2967 47.2865 67.3314 47.3337 67.372C47.369 67.4242 47.4044 67.4763 47.4339 67.5343C47.5459 67.7487 47.5872 67.9863 47.6992 68.1949C47.8171 68.4093 48.0116 68.5831 48.2474 68.6353C48.2946 68.6469 48.3477 68.6527 48.4007 68.6527C48.5717 68.6527 48.7485 68.5947 48.8959 68.502C49.0846 68.3861 49.2378 68.2181 49.3793 68.0442C49.7507 67.5864 50.0455 67.0765 50.4287 66.6303C50.859 66.1261 51.4309 65.9638 51.9909 65.6567C52.1265 65.5814 52.2621 65.5002 52.3623 65.3843C52.3859 65.3554 52.4095 65.3264 52.4331 65.2974C52.8339 64.6774 52.0793 64.2717 51.702 63.9182C51.6077 63.8313 51.5193 63.7386 51.4309 63.6516C51.3424 63.5589 51.2599 63.4604 51.1774 63.3619C50.9887 63.1359 50.7883 62.7824 50.5289 62.5854C50.4287 62.4869 50.3049 62.4347 50.1634 62.4347ZM50.1634 61.8552C50.4228 61.8552 50.6645 61.9421 50.8944 62.1102C51.1479 62.2956 51.3247 62.5506 51.4839 62.7708C51.537 62.8462 51.59 62.9215 51.6431 62.9794C51.7197 63.0722 51.7964 63.1591 51.873 63.246C51.9438 63.3213 52.0322 63.4025 52.1147 63.4836C52.1737 63.5415 52.2444 63.5937 52.3152 63.6574C52.6866 63.9588 53.5473 64.66 52.9342 65.5987C52.8988 65.6567 52.8575 65.7089 52.8104 65.761C52.6453 65.9464 52.4448 66.0681 52.2857 66.1551C52.1206 66.2478 51.9555 66.3231 51.7964 66.4042C51.4191 66.5839 51.1184 66.7288 50.8826 67.0011C50.694 67.2213 50.523 67.4647 50.3461 67.7197C50.187 67.9457 50.0219 68.1775 49.8391 68.4035C49.68 68.6005 49.4795 68.8207 49.2084 68.9946C48.9549 69.151 48.6719 69.238 48.4007 69.238C48.3064 69.238 48.2121 69.2264 48.1236 69.209C47.7345 69.1221 47.3867 68.8555 47.1804 68.473C47.0979 68.3224 47.0448 68.1717 47.0035 68.0442C46.9741 67.9515 46.9446 67.8646 46.9092 67.8008C46.9033 67.795 46.9033 67.7834 46.8974 67.7776C46.8915 67.7719 46.8856 67.7661 46.8738 67.7661C46.809 67.7255 46.7265 67.6907 46.6321 67.656C46.5791 67.6328 46.5201 67.6096 46.4671 67.5864C46.3727 67.5458 46.2843 67.4995 46.2077 67.4473C45.8363 67.2155 45.5887 66.8562 45.5356 66.468C45.4826 66.1145 45.5887 65.7378 45.8304 65.4191C46.0249 65.1641 46.2666 64.9845 46.4789 64.8454C46.7206 64.6831 46.9741 64.5383 47.2158 64.405C47.4869 64.2485 47.7463 64.1037 47.9821 63.9356C48.2769 63.727 48.442 63.443 48.6542 63.0895C48.7426 62.9389 48.837 62.7824 48.9431 62.6259C49.0433 62.4811 49.1848 62.2898 49.3852 62.145C49.4383 62.1044 49.4972 62.0696 49.5562 62.0349C49.7625 61.9074 49.9629 61.8552 50.1634 61.8552Z" fill="#577708"/>
<g opacity="0.17">
<path d="M49.3911 68.0384C49.2496 68.2123 49.0963 68.3803 48.9077 68.4962C48.719 68.6121 48.4832 68.6817 48.2592 68.6295C48.0234 68.5773 47.823 68.3977 47.711 68.1891C47.5989 67.9805 47.5518 67.7371 47.4457 67.5285C47.4162 67.4705 47.3808 67.4184 47.3455 67.3662C47.2983 67.3256 47.2452 67.2909 47.1922 67.2561C47.0448 67.1692 46.8856 67.1112 46.7323 67.0417C46.8503 66.9837 46.9799 66.9548 47.1096 66.9374C47.3631 66.9084 47.652 66.9664 47.8112 67.1576C47.9586 67.3372 47.9939 67.6212 48.2062 67.7255C48.4361 67.8356 48.7014 67.656 48.8782 67.4705C49.3734 66.9548 49.7389 66.3347 50.2223 65.8132C50.5053 65.5118 50.8178 65.2395 51.1656 65.0135C51.4132 64.8512 51.6961 64.6716 51.7315 64.3818C51.7669 64.0573 51.4603 63.8081 51.2245 63.5821C50.9533 63.3213 50.7352 63.0026 50.5878 62.6607C50.576 62.6317 50.5643 62.6028 50.5525 62.5738C50.8119 62.765 51.0123 63.1185 51.2009 63.3503C51.2835 63.4488 51.366 63.5415 51.4544 63.6401C51.5429 63.7328 51.6313 63.8197 51.7256 63.9066C52.1029 64.2601 52.8634 64.6658 52.4566 65.2858C52.433 65.3206 52.4154 65.3496 52.3859 65.3727C52.2857 65.4828 52.1501 65.5698 52.0145 65.6451C51.4485 65.958 50.8826 66.1145 50.4522 66.6187C50.0573 67.0707 49.7625 67.5806 49.3911 68.0384Z" fill="#7D9067"/>
</g>
<g opacity="0.3">
<path d="M50.4523 62.991C50.411 62.9273 50.3638 62.8635 50.299 62.823C49.8333 62.5448 49.5562 63.3213 49.397 63.5821C49.114 64.0283 48.7367 64.4166 48.2946 64.7121C48.2474 64.7469 48.1944 64.7817 48.159 64.828C48.1295 64.8802 48.1177 64.9497 48.159 64.9903C48.1944 65.0251 48.2474 65.0308 48.2946 65.0308C48.4656 65.0251 48.6247 64.9613 48.778 64.886C49.3498 64.6078 49.8745 64.2253 50.3167 63.7675C50.4051 63.6748 50.4935 63.5763 50.5407 63.4546C50.6055 63.304 50.5466 63.1359 50.4523 62.991Z" fill="#DFEFCB"/>
</g>
<g opacity="0.3">
<path d="M47.8407 65.3032C47.7051 65.4133 47.5459 65.4829 47.3985 65.5756C47.2217 65.6857 47.0625 65.8248 46.9269 65.9812C46.8856 66.0334 46.8149 66.0913 46.7559 66.0565C46.7383 66.045 46.7265 66.0276 46.7206 66.0044C46.6852 65.9059 46.7383 65.7958 46.8031 65.7031C46.9682 65.4713 47.1922 65.2858 47.4516 65.1641C47.5577 65.112 47.711 65.0366 47.8348 65.054C47.9998 65.0714 47.935 65.2221 47.8407 65.3032Z" fill="#DFEFCB"/>
</g>
<path d="M53.3524 64.434C53.5705 64.434 53.7945 64.3645 54.0067 64.237C54.2425 64.0921 54.4253 63.8893 54.5668 63.7097C54.7436 63.4953 54.9028 63.2693 55.062 63.0375C55.2447 62.7767 55.4157 62.5275 55.6161 62.2957C55.8873 61.977 56.2292 61.8147 56.6242 61.6235C56.7834 61.5482 56.9426 61.4728 57.1017 61.3859C57.2373 61.3106 57.4142 61.2063 57.5498 61.0498C57.5851 61.0092 57.6146 60.9687 57.6441 60.9223C58.1157 60.1979 57.4672 59.6764 57.0841 59.3635C57.0074 59.2997 56.9308 59.236 56.8659 59.178C56.7775 59.0969 56.6891 59.01 56.6065 58.9173C56.524 58.8303 56.4474 58.7376 56.3648 58.6449C56.3118 58.5812 56.2528 58.5 56.1939 58.4189C56.0465 58.2161 55.8814 57.9843 55.6633 57.822C55.4864 57.6945 55.3037 57.625 55.1091 57.625C54.9559 57.625 54.8026 57.6656 54.6493 57.7467C54.6022 57.7699 54.5609 57.7988 54.5137 57.8336C54.3487 57.9553 54.2249 58.1176 54.1423 58.2451C54.0421 58.3957 53.9537 58.5464 53.8652 58.6913C53.6471 59.0621 53.4526 59.3809 53.1107 59.63C52.8631 59.8039 52.5978 59.9546 52.3207 60.1168C52.079 60.2559 51.8373 60.395 51.6015 60.5514C51.4128 60.6789 51.1947 60.8354 51.0237 61.0614C50.8292 61.3222 50.7408 61.6177 50.782 61.8959C50.8233 62.203 51.0237 62.4869 51.3244 62.6724C51.3951 62.7187 51.4718 62.7535 51.5484 62.7883L51.7017 62.8578C51.796 62.8984 51.8903 62.9389 51.9788 62.9911C52.0082 63.0085 52.0377 63.0317 52.0672 63.0548C52.0908 63.0838 52.1085 63.1186 52.1262 63.1476C52.1733 63.2345 52.2028 63.333 52.2382 63.4257C52.2853 63.559 52.3325 63.6923 52.3973 63.814C52.5624 64.1211 52.8395 64.3355 53.146 64.3993C53.2109 64.4282 53.2816 64.434 53.3524 64.434Z" fill="#AFE017"/>
<path d="M55.1087 57.932C55.0085 57.932 54.9024 57.961 54.7904 58.019C54.755 58.0363 54.7255 58.0595 54.696 58.0827C54.5722 58.1754 54.4779 58.2971 54.3895 58.4246C54.0299 58.9519 53.8294 59.4967 53.2812 59.8849C52.7978 60.2268 52.2554 60.476 51.7661 60.8063C51.5774 60.928 51.3947 61.0671 51.2591 61.2467C51.1235 61.4264 51.041 61.6524 51.0705 61.8726C51.1058 62.1102 51.2709 62.3188 51.4772 62.4463C51.5362 62.4868 51.601 62.5158 51.6659 62.5448C51.8192 62.6143 51.9842 62.6723 52.1257 62.7592C52.1788 62.794 52.2318 62.8287 52.279 62.8693C52.3144 62.9215 52.3497 62.9736 52.3792 63.0316C52.4912 63.246 52.5325 63.4836 52.6445 63.6922C52.7624 63.9066 52.9569 64.0805 53.1927 64.1326C53.2399 64.1442 53.293 64.15 53.346 64.15C53.517 64.15 53.6938 64.092 53.8412 63.9993C54.0299 63.8834 54.1831 63.7154 54.3246 63.5415C54.696 63.0837 54.9908 62.5738 55.374 62.1276C55.8043 61.6234 56.3762 61.4611 56.9362 61.154C57.0718 61.0787 57.2074 60.9975 57.3076 60.8816C57.3312 60.8527 57.3548 60.8237 57.3784 60.7947C57.7792 60.1747 57.0247 59.769 56.6474 59.4155C56.553 59.3286 56.4646 59.2359 56.3762 59.149C56.2877 59.0562 56.2052 58.9577 56.1227 58.8592C55.934 58.6332 55.7336 58.2797 55.4742 58.0827C55.374 57.9842 55.2502 57.932 55.1087 57.932ZM55.1087 57.3525C55.3681 57.3525 55.6098 57.4395 55.8397 57.6075C56.0932 57.7929 56.2701 58.0479 56.4292 58.2681C56.4823 58.3435 56.5353 58.4188 56.5884 58.4768C56.665 58.5695 56.7417 58.6564 56.8183 58.7433C56.8891 58.8187 56.9775 58.8998 57.06 58.9809C57.119 59.0389 57.1897 59.091 57.2605 59.1548C57.6319 59.4561 58.4926 60.1573 57.8795 61.0961C57.8441 61.154 57.8028 61.2062 57.7557 61.2583C57.5906 61.4438 57.3902 61.5655 57.231 61.6524C57.0659 61.7451 56.9009 61.8204 56.7417 61.9016C56.3644 62.0812 56.0637 62.2261 55.8279 62.4984C55.6393 62.7186 55.4683 62.962 55.2915 63.217C55.1323 63.443 54.9672 63.6748 54.7845 63.9008C54.6253 64.0978 54.4248 64.318 54.1537 64.4919C53.9002 64.6484 53.6172 64.7353 53.346 64.7353C53.2517 64.7353 53.1574 64.7237 53.0689 64.7063C52.6799 64.6194 52.332 64.3528 52.1257 63.9704C52.0432 63.8197 51.9901 63.669 51.9488 63.5415C51.9194 63.4488 51.8899 63.3619 51.8545 63.2981C51.8486 63.2923 51.8486 63.2808 51.8427 63.275C51.8368 63.2692 51.8309 63.2634 51.8192 63.2634C51.7543 63.2228 51.6659 63.188 51.5774 63.1533C51.5244 63.1301 51.4654 63.1069 51.4124 63.0837C51.3181 63.0432 51.2296 62.9968 51.153 62.9446C50.7816 62.7129 50.534 62.3536 50.4809 61.9653C50.4279 61.6118 50.534 61.2351 50.7757 60.9164C50.9702 60.6614 51.2119 60.4818 51.4242 60.3427C51.6659 60.1805 51.9194 60.0356 52.1611 59.9023C52.4323 59.7458 52.6916 59.601 52.9275 59.4329C53.2222 59.2243 53.3932 58.9403 53.5995 58.5869C53.6879 58.4362 53.7823 58.2797 53.8884 58.1233C53.9886 57.9784 54.1301 57.7872 54.3305 57.6423C54.3836 57.6017 54.4425 57.5669 54.5015 57.5322C54.7078 57.4047 54.9083 57.3525 55.1087 57.3525Z" fill="#577708"/>
<g opacity="0.17">
<path d="M54.3364 63.5357C54.1949 63.7096 54.0417 63.8776 53.853 63.9935C53.6644 64.1094 53.4285 64.179 53.2045 64.1268C52.9687 64.0747 52.7683 63.895 52.6563 63.6864C52.5443 63.4778 52.4971 63.2344 52.391 63.0258C52.3615 62.9678 52.3261 62.9157 52.2908 62.8635C52.2436 62.823 52.1905 62.7882 52.1375 62.7534C51.9901 62.6665 51.8309 62.6085 51.6777 62.539C51.7956 62.4811 51.9253 62.4521 52.055 62.4347C52.3084 62.4057 52.5973 62.4637 52.7565 62.6549C52.9039 62.8345 52.9392 63.1185 53.1515 63.2228C53.3814 63.3329 53.6467 63.1533 53.8235 62.9678C54.3187 62.4521 54.6842 61.832 55.1676 61.3105C55.4506 61.0091 55.7631 60.7368 56.1109 60.5108C56.3585 60.3485 56.6415 60.1689 56.6768 59.8791C56.7122 59.5546 56.4056 59.3054 56.1698 59.0794C55.8987 58.8186 55.6805 58.4999 55.5331 58.158C55.5214 58.1291 55.5096 58.1001 55.4978 58.0711C55.7572 58.2623 55.9576 58.6158 56.1463 58.8476C56.2288 58.9461 56.3113 59.0389 56.3997 59.1374C56.4882 59.2301 56.5766 59.317 56.6709 59.4039C57.0482 59.7574 57.8087 60.1631 57.4019 60.7831C57.3784 60.8179 57.3607 60.8469 57.3312 60.8701C57.231 60.9802 57.0954 61.0671 56.9598 61.1424C56.3939 61.4553 55.8279 61.6118 55.3976 62.116C55.0026 62.568 54.7019 63.0779 54.3364 63.5357Z" fill="#7D9067"/>
</g>
<g opacity="0.3">
<path d="M55.3917 58.4883C55.3504 58.4246 55.3032 58.3609 55.2384 58.3203C54.7727 58.0421 54.4956 58.8186 54.3364 59.0794C54.0535 59.5256 53.6762 59.9139 53.234 60.2094C53.1869 60.2442 53.1338 60.279 53.0984 60.3253C53.0631 60.3717 53.0572 60.447 53.0984 60.4876C53.1338 60.5224 53.1869 60.5282 53.234 60.5282C53.405 60.5224 53.5642 60.4586 53.7174 60.3833C54.2893 60.1051 54.8139 59.7227 55.2561 59.2649C55.3445 59.1721 55.4329 59.0736 55.4801 58.9519C55.545 58.8013 55.4919 58.6332 55.3917 58.4883Z" fill="#DFEFCB"/>
</g>
<g opacity="0.3">
<path d="M52.7801 60.8005C52.6445 60.9106 52.4853 60.9802 52.3379 61.0729C52.1611 61.183 52.0019 61.3221 51.8663 61.4785C51.8251 61.5307 51.7543 61.5886 51.6954 61.5539C51.6777 61.5423 51.6659 61.5249 51.66 61.5017C51.6246 61.4032 51.6777 61.2931 51.7425 61.2004C51.9076 60.9686 52.1316 60.7831 52.391 60.6614C52.4971 60.6093 52.6504 60.534 52.7742 60.5513C52.9393 60.5687 52.8803 60.7194 52.7801 60.8005Z" fill="#DFEFCB"/>
</g>
<path d="M58.2978 59.9312C58.516 59.9312 58.7459 59.8617 58.9522 59.7342C59.188 59.5893 59.3708 59.3865 59.5122 59.2069C59.6891 58.9925 59.8483 58.7665 60.0074 58.5347C60.1902 58.2739 60.3612 58.0247 60.5616 57.7987C60.8387 57.48 61.1747 57.3177 61.5697 57.1265C61.7289 57.0512 61.888 56.9758 62.0472 56.8889C62.1828 56.8136 62.3538 56.7093 62.4952 56.5586C62.5306 56.518 62.5601 56.4775 62.5896 56.4369C63.0612 55.7125 62.4186 55.1852 62.0295 54.8723C61.9529 54.8085 61.8762 54.7448 61.8114 54.6868C61.723 54.6057 61.6345 54.5188 61.552 54.4261C61.4754 54.3391 61.3928 54.2464 61.3162 54.1537C61.2572 54.0841 61.2042 54.0088 61.1452 53.9277C60.9978 53.7249 60.8328 53.4931 60.6206 53.3308C60.4437 53.2033 60.2609 53.1338 60.0664 53.1338C59.9131 53.1338 59.7598 53.1743 59.6066 53.2555C59.5594 53.2787 59.5122 53.3076 59.471 53.3424C59.3059 53.4641 59.188 53.6264 59.0996 53.7538C58.9994 53.9045 58.9109 54.0552 58.8225 54.2C58.6044 54.5709 58.4098 54.8954 58.062 55.1388C57.8144 55.3127 57.5491 55.4633 57.2721 55.6256C57.0303 55.7647 56.7886 55.9038 56.5528 56.0602C56.3642 56.1877 56.1461 56.3442 55.9751 56.5702C55.7806 56.831 55.6921 57.1265 55.7334 57.4046C55.7747 57.7118 55.9751 57.9957 56.2758 58.1812C56.3465 58.2275 56.4231 58.2623 56.4998 58.2971L56.6531 58.3608C56.7474 58.4014 56.8417 58.4419 56.9301 58.4941C56.9596 58.5115 56.9891 58.5347 57.0186 58.5578C57.0362 58.5868 57.0598 58.6158 57.0716 58.6506C57.1188 58.7433 57.1483 58.836 57.1836 58.9345C57.2308 59.0678 57.2779 59.1953 57.3428 59.3228C57.5079 59.6299 57.7849 59.8443 58.0915 59.9081C58.1504 59.9254 58.2271 59.9312 58.2978 59.9312Z" fill="#AFE017"/>
<path d="M60.055 53.4293C59.9548 53.4293 59.8487 53.4583 59.7366 53.5163C59.7013 53.5336 59.6718 53.5568 59.6423 53.58C59.5185 53.6727 59.4242 53.7944 59.3358 53.9219C58.9762 54.4493 58.7757 54.994 58.2275 55.3822C57.7441 55.7241 57.2017 55.9733 56.7124 56.3036C56.5237 56.4253 56.341 56.5644 56.2054 56.744C56.0698 56.9237 55.9873 57.1497 56.0167 57.3699C56.0521 57.6075 56.2172 57.8161 56.4235 57.9436C56.4825 57.9842 56.5473 58.0131 56.6122 58.0421C56.7654 58.1117 56.9305 58.1696 57.072 58.2565C57.1251 58.2913 57.1781 58.3261 57.2253 58.3666C57.2606 58.4188 57.296 58.4709 57.3255 58.5289C57.4375 58.7433 57.4788 58.9809 57.5908 59.1895C57.7087 59.4039 57.9032 59.5778 58.139 59.6299C58.1862 59.6415 58.2393 59.6473 58.2923 59.6473C58.4633 59.6473 58.6401 59.5894 58.7875 59.4966C58.9762 59.3807 59.1294 59.2127 59.2709 59.0388C59.6423 58.581 59.9371 58.0711 60.3203 57.6249C60.7506 57.1207 61.3225 56.9585 61.8825 56.6513C62.0181 56.576 62.1537 56.4949 62.2539 56.379C62.2775 56.35 62.3011 56.321 62.3247 56.292C62.7255 55.672 61.9709 55.2663 61.5936 54.9128C61.4993 54.8259 61.4109 54.7332 61.3225 54.6463C61.234 54.5536 61.1515 54.455 61.069 54.3565C60.8803 54.1305 60.6799 53.777 60.4205 53.58C60.3144 53.4815 60.1906 53.4293 60.055 53.4293ZM60.055 52.8498C60.3144 52.8498 60.5561 52.9368 60.786 53.1048C61.0395 53.2903 61.2164 53.5452 61.3755 53.7654C61.4286 53.8408 61.4816 53.9161 61.5347 53.9741C61.6113 54.0668 61.688 54.1537 61.7646 54.2406C61.8354 54.316 61.9238 54.3971 62.0063 54.4782C62.0653 54.5362 62.136 54.5883 62.2068 54.6521C62.5782 54.9534 63.4389 55.6546 62.8258 56.5934C62.7904 56.6513 62.7491 56.7035 62.702 56.7556C62.5369 56.9411 62.3364 57.0628 62.1773 57.1497C62.0122 57.2424 61.8471 57.3177 61.688 57.3989C61.3107 57.5785 61.01 57.7234 60.7742 57.9958C60.5856 58.216 60.4146 58.4593 60.2377 58.7143C60.0786 58.9403 59.9135 59.1721 59.7307 59.3981C59.5716 59.5952 59.3711 59.8154 59.1 59.9892C58.8465 60.1457 58.5635 60.2326 58.2923 60.2326C58.198 60.2326 58.1037 60.221 58.0152 60.2036C57.6261 60.1167 57.2783 59.8501 57.072 59.4677C56.9895 59.317 56.9364 59.1663 56.8951 59.0388C56.8657 58.9461 56.8362 58.8592 56.8008 58.7955C56.7949 58.7897 56.7949 58.7781 56.789 58.7723C56.7831 58.7665 56.7772 58.7607 56.7654 58.7607C56.7006 58.7201 56.6181 58.6854 56.5237 58.6506C56.4707 58.6274 56.4117 58.6042 56.3587 58.581C56.2643 58.5405 56.1759 58.4941 56.0993 58.442C55.7279 58.2102 55.4803 57.8509 55.4272 57.4626C55.3742 57.1091 55.4803 56.7325 55.722 56.4137C55.9165 56.1588 56.1582 55.9791 56.3705 55.84C56.6122 55.6778 56.8657 55.5329 57.1074 55.3996C57.3785 55.2432 57.6379 55.0983 57.8737 54.9302C58.1685 54.7216 58.3336 54.4377 58.5458 54.0842C58.6342 53.9335 58.7286 53.777 58.8347 53.6206C58.9349 53.4757 59.0764 53.2845 59.2768 53.1396C59.3299 53.099 59.3888 53.0643 59.4478 53.0295C59.6482 52.902 59.8545 52.8498 60.055 52.8498Z" fill="#577708"/>
<g opacity="0.17">
<path d="M59.2768 59.0273C59.1353 59.2011 58.982 59.3692 58.7934 59.4851C58.6048 59.601 58.3689 59.6705 58.1449 59.6183C57.9091 59.5662 57.7087 59.3865 57.5967 59.1779C57.4847 58.9693 57.4375 58.7259 57.3314 58.5173C57.3019 58.4594 57.2665 58.4072 57.2312 58.355C57.184 58.3145 57.1309 58.2797 57.0779 58.2449C56.9305 58.158 56.7713 58.1001 56.6181 58.0305C56.736 57.9726 56.8657 57.9436 56.9954 57.9262C57.2488 57.8972 57.5377 57.9552 57.6969 58.1464C57.8443 58.3261 57.8796 58.61 58.0919 58.7143C58.3218 58.8244 58.5871 58.6448 58.7639 58.4593C59.2591 57.9436 59.6246 57.3235 60.108 56.802C60.391 56.5007 60.7035 56.2283 61.0513 56.0023C61.2989 55.84 61.5819 55.6604 61.6172 55.3706C61.6526 55.0461 61.346 54.7969 61.1102 54.5709C60.8391 54.3102 60.6209 53.9915 60.4735 53.6496C60.4618 53.6206 60.45 53.5916 60.4382 53.5626C60.6976 53.7539 60.898 54.1073 61.0867 54.3391C61.1692 54.4377 61.2517 54.5304 61.3401 54.6289C61.4286 54.7216 61.517 54.8085 61.6113 54.8955C61.9886 55.249 62.7491 55.6546 62.3423 56.2747C62.3188 56.3094 62.3011 56.3384 62.2716 56.3616C62.1714 56.4717 62.0358 56.5586 61.9002 56.6339C61.3343 56.9469 60.7683 57.1033 60.338 57.6075C59.9489 58.0595 59.6482 58.5752 59.2768 59.0273Z" fill="#7D9067"/>
</g>
<g opacity="0.3">
<path d="M60.3382 53.9856C60.2969 53.9219 60.2498 53.8581 60.1849 53.8176C59.7192 53.5394 59.4421 54.3159 59.283 54.5767C59 55.0229 58.6227 55.4112 58.1805 55.7067C58.1334 55.7415 58.0803 55.7763 58.045 55.8226C58.0155 55.8748 58.0037 55.9443 58.045 55.9849C58.0803 56.0197 58.1334 56.0255 58.1805 56.0255C58.3515 56.0197 58.5107 55.9559 58.664 55.8806C59.2358 55.6024 59.7605 55.22 60.2026 54.7622C60.291 54.6694 60.3795 54.5709 60.4266 54.4492C60.4915 54.2986 60.4325 54.1305 60.3382 53.9856Z" fill="#DFEFCB"/>
</g>
<g opacity="0.3">
<path d="M57.7264 56.292C57.5908 56.4021 57.4316 56.4717 57.2842 56.5644C57.1074 56.6745 56.9482 56.8136 56.8126 56.97C56.7713 57.0222 56.7006 57.0802 56.6417 57.0454C56.624 57.0338 56.6122 57.0164 56.6063 56.9932C56.5709 56.8947 56.624 56.7846 56.6888 56.6919C56.8539 56.4601 57.0779 56.2747 57.3373 56.153C57.4434 56.1008 57.5967 56.0255 57.7205 56.0429C57.8855 56.066 57.8266 56.2167 57.7264 56.292Z" fill="#DFEFCB"/>
</g>
<path d="M54.891 54.3449C55.8342 54.3449 56.2941 52.9368 56.412 52.1081L57.6264 43.6765C57.6382 43.6127 57.6618 43.5026 57.6912 43.3577C57.8858 42.4248 58.0449 41.5555 57.815 41.1441C57.7207 40.976 57.5556 40.8775 57.367 40.8775C56.972 40.8833 56.7303 41.3295 56.5652 41.6251L56.5122 41.7236C55.2683 43.7518 54.5196 46.2842 53.8593 48.521L53.6294 49.2918C53.5646 49.5062 53.4997 49.7206 53.4525 49.9408C53.1814 51.1809 52.9809 52.7397 53.8652 53.7654C54.2012 54.1479 54.5432 54.3449 54.891 54.3449Z" fill="#AFE017"/>
<path d="M57.367 41.1615C57.3611 41.1615 57.3611 41.1615 57.367 41.1615C57.1076 41.1672 56.8659 41.7004 56.7657 41.8626C55.4334 44.0473 54.6847 46.7825 53.9595 49.2106C53.8829 49.4714 53.8004 49.7264 53.7414 49.9929C53.4938 51.1056 53.2698 52.6181 54.0892 53.5684C54.3899 53.9161 54.6552 54.0552 54.8969 54.0552C55.5984 54.0552 56.017 52.8209 56.1231 52.0675C56.5299 49.257 56.9307 46.4464 57.3375 43.6359C57.3847 43.3056 57.8091 41.7294 57.5556 41.2831C57.5144 41.202 57.4495 41.1615 57.367 41.1615ZM57.367 40.582C57.6618 40.582 57.927 40.7384 58.0744 40.9992C58.3279 41.457 58.2395 42.1988 57.9801 43.4099C57.9506 43.5432 57.927 43.6475 57.9211 43.7112L57.3139 47.9299L56.7067 52.1487C56.6714 52.4036 56.3059 54.6347 54.891 54.6347C54.4547 54.6347 54.0362 54.4029 53.6353 53.9451C52.6626 52.8209 52.8689 51.1809 53.1578 49.8712C53.2108 49.6395 53.2757 49.4135 53.3405 49.199L53.3877 49.0484L53.5705 48.4283C54.2366 46.1799 54.9912 43.6243 56.2528 41.5613C56.2646 41.5381 56.2823 41.5092 56.3 41.4744C56.4827 41.1441 56.7893 40.5878 57.3434 40.5762C57.3552 40.582 57.3611 40.582 57.367 40.582Z" fill="#577708"/>
<path opacity="0.25" d="M56.6242 44.1922C56.7952 43.5374 56.9602 42.8826 57.1135 42.2219C57.2196 41.7699 57.3139 41.3121 57.4024 40.8543C57.1253 40.9876 56.9249 41.231 56.7539 41.4802C56.4238 41.9612 56.1703 42.4943 55.9345 43.0274C54.9558 45.2179 54.1954 47.5011 53.6648 49.8307C53.5056 50.5203 53.4113 51.1867 53.5056 51.8879C53.5999 52.5717 53.594 53.1975 54.0833 53.7654C54.2366 53.9451 54.5196 54.0784 54.7613 54.09C54.9323 54.1016 55.1209 54.0146 55.174 53.8582C55.2034 53.777 55.1858 53.6843 55.1681 53.5974C55.0855 53.2091 54.8851 52.8499 54.7849 52.4674C54.5668 51.6677 54.8497 50.7984 55.0443 50.0219C55.2624 49.1527 55.4982 48.2892 55.7399 47.42C56.0347 46.3479 56.3412 45.2701 56.6242 44.1922Z" fill="#689B1F"/>
<path d="M55.2506 49.1701C55.3331 49.1643 55.3803 49.3497 55.3449 49.5583C55.0737 51.0708 55.0207 52.6123 55.174 54.1421C55.2506 54.9128 55.3862 55.6778 55.5689 56.4311C55.6633 56.8136 55.7694 57.1961 55.8932 57.5727C55.9403 57.7176 56.2587 58.3608 55.846 58.1696C55.5984 58.0595 55.4451 57.5843 55.3449 57.3583C55.0796 56.7441 54.9264 56.0892 54.8026 55.4402C54.6021 54.3971 54.4665 53.3366 54.5019 52.2761C54.5255 51.6271 54.6434 50.9839 54.8085 50.358C54.8969 50.0393 54.9912 49.7148 55.1032 49.4019C55.1504 49.2396 55.2034 49.1759 55.2506 49.1701Z" fill="#577708"/>
<path d="M53.7587 71.9499C54.2833 71.9499 54.8021 71.8861 55.144 71.8398C55.3681 71.8108 55.598 71.7587 55.8161 71.7123L56.612 71.5442C58.9288 71.0633 61.5522 70.5243 63.7098 69.4581L63.8159 69.4117C64.1284 69.2726 64.5941 69.0698 64.6295 68.6931C64.6472 68.5019 64.5587 68.3338 64.3937 68.2237C64.2168 68.1078 63.9456 68.0557 63.533 68.0557C63.0613 68.0557 62.5072 68.1252 62.1358 68.1716C61.9884 68.189 61.8764 68.2064 61.8057 68.2122L53.1573 68.7627C52.4263 68.809 51.1117 69.0872 50.8228 69.8463C50.6695 70.252 50.8228 70.6866 51.2885 71.1386C51.8545 71.6891 52.6621 71.9499 53.7587 71.9499Z" fill="#AFE017"/>
<path d="M63.5393 68.3571C62.8967 68.3571 62.0655 68.4962 61.8356 68.5136C58.9528 68.699 56.07 68.8787 53.1873 69.0641C52.1497 69.1278 50.2043 69.6726 51.5071 70.9416C52.0849 71.5038 52.9279 71.6602 53.7591 71.6602C54.2248 71.6602 54.6906 71.6081 55.1032 71.5559C55.3744 71.5211 55.6456 71.4574 55.9109 71.3994C58.4281 70.8721 61.2638 70.3506 63.5806 69.209C63.7574 69.122 64.3175 68.925 64.3411 68.6758C64.347 68.5889 64.3116 68.5252 64.235 68.4788C64.0994 68.3861 63.84 68.3571 63.5393 68.3571ZM63.5393 67.7776C64.0168 67.7776 64.3293 67.8414 64.5592 67.992C64.8186 68.1601 64.9601 68.4382 64.9306 68.7338C64.8775 69.2785 64.288 69.5335 63.9402 69.6899C63.9048 69.7073 63.8695 69.7189 63.8459 69.7305C61.6587 70.8084 59.0118 71.3589 56.6773 71.8399L56.0347 71.9731L55.8814 72.0079C55.6574 72.0543 55.4275 72.1064 55.1858 72.1354C54.832 72.1818 54.3015 72.2455 53.7591 72.2455C52.5742 72.2455 51.7017 71.9558 51.0886 71.3589C50.3988 70.6867 50.4165 70.1188 50.5521 69.7595C50.9707 68.6584 52.922 68.502 53.1401 68.4904L61.7884 67.9399C61.8474 67.9341 61.9594 67.9225 62.095 67.9051C62.4782 67.8472 63.05 67.7776 63.5393 67.7776Z" fill="#577708"/>
<path opacity="0.25" d="M61.2104 69.1626C61.8883 69.0409 62.5663 68.9308 63.2442 68.8381C63.7159 68.7686 64.1816 68.7106 64.6532 68.6585C64.4999 68.9192 64.2346 69.0989 63.9693 69.2496C63.4565 69.5393 62.8964 69.7421 62.3423 69.9392C60.049 70.7331 57.6732 71.301 55.268 71.6429C54.5605 71.7414 53.8708 71.7877 53.1693 71.6429C52.4854 71.498 51.8487 71.4574 51.3123 70.9359C51.1472 70.7736 51.0293 70.4839 51.0293 70.2463C51.0293 70.0782 51.1295 69.8986 51.3005 69.858C51.3889 69.8348 51.4773 69.858 51.5658 69.8812C51.9548 69.9971 52.3027 70.2115 52.6858 70.3448C53.4817 70.6172 54.3837 70.4085 55.1854 70.2753C56.0874 70.1304 56.9776 69.9623 57.8737 69.7885C58.982 69.5799 60.0962 69.3597 61.2104 69.1626Z" fill="#689B1F"/>
<path d="M56.0579 70.1361C56.0697 70.0608 55.887 69.9971 55.6747 70.0145C54.1243 70.1651 52.5503 70.1014 51.0175 69.8348C50.2393 69.7015 49.4729 69.5103 48.7242 69.2727C48.3411 69.151 47.9638 69.0177 47.5924 68.8671C47.4509 68.8091 46.8201 68.444 46.9851 68.8728C47.0795 69.122 47.5452 69.3133 47.7692 69.4292C48.3705 69.7363 49.0249 69.9391 49.6734 70.1072C50.7168 70.3853 51.778 70.5939 52.8627 70.6403C53.523 70.6693 54.1832 70.5997 54.8317 70.4838C55.1619 70.4259 55.4979 70.3506 55.8221 70.2694C55.9813 70.2289 56.052 70.1767 56.0579 70.1361Z" fill="#577708"/>
<path d="M15.3103 64.8338C15.9942 65.6161 16.7193 66.3694 17.4739 67.088C21.07 70.5128 25.4207 73.1785 30.1369 74.8416C35.024 76.5569 40.1293 76.725 45.2759 76.1107C47.6752 75.821 50.334 75.2763 52.244 73.7116C55.0089 71.44 55.2624 67.7544 52.0672 65.7262C50.7054 64.8628 49.1137 64.4397 47.5691 63.9703C42.847 62.5448 38.6142 60.4296 34.8177 57.3004C33.786 56.4485 32.7662 55.5677 31.7463 54.681" fill="#272628"/>
<path d="M15.3103 64.8338C15.9942 65.6161 16.7193 66.3694 17.4739 67.088C21.07 70.5128 25.4207 73.1785 30.1369 74.8416C35.024 76.5569 40.1293 76.725 45.2759 76.1107C47.6752 75.821 50.334 75.2763 52.244 73.7116C55.0089 71.44 55.2624 67.7544 52.0672 65.7262C50.7054 64.8628 49.1137 64.4397 47.5691 63.9703C42.847 62.5448 38.6142 60.4296 34.8177 57.3004C33.786 56.4485 32.7662 55.5677 31.7463 54.681" stroke="#2A364D" stroke-width="3" stroke-miterlimit="10" stroke-linecap="round" stroke-linejoin="round"/>
<path d="M48.3712 72.1528C49.792 71.9847 51.254 72.2571 52.5273 72.9061" stroke="#2A364D" stroke-width="2" stroke-miterlimit="10" stroke-linecap="round" stroke-linejoin="round"/>
<path d="M49.4552 68.5427C51.1353 68.4326 52.839 68.8672 54.2539 69.7654" stroke="#2A364D" stroke-width="2" stroke-miterlimit="10" stroke-linecap="round" stroke-linejoin="round"/>
<g opacity="0.1">
<path d="M31.0153 54.768C30.3137 55.6604 33.3262 57.9668 33.8155 58.4362C37.3644 61.832 41.4204 64.2543 46.0187 66.0275C47.5279 66.607 49.0783 67.1518 50.3753 68.1079C52.5506 69.7305 52.8866 72.0775 51.8137 74.0304C51.9611 73.9261 52.1026 73.8217 52.244 73.7058C55.0089 71.4342 55.2624 67.7486 52.0672 65.7204C50.7054 64.857 49.1137 64.4339 47.5691 63.9645C42.847 62.539 38.6142 60.4238 34.8177 57.2946C33.8745 56.5181 32.9902 55.6024 32.0175 54.8781C31.6991 54.6405 31.652 54.3334 31.1803 54.6173C31.1155 54.6637 31.0565 54.7158 31.0153 54.768Z" fill="#70706F"/>
</g>
<path d="M45.8418 33.4542C46.054 33.4542 46.2663 33.4426 46.4785 33.4194C47.8757 33.2514 49.1196 32.5618 49.9862 31.4781C50.8528 30.3887 51.236 29.0384 51.0709 27.665C50.7526 25.0689 48.5124 23.116 45.8536 23.116C45.6414 23.116 45.4292 23.1276 45.2169 23.1508C43.8197 23.3188 42.5759 24.0084 41.7092 25.0921C40.8426 26.1757 40.4595 27.5318 40.6245 28.9052C40.9429 31.4955 43.189 33.4542 45.8418 33.4542Z" fill="white"/>
<path d="M45.8536 23.9853C45.6767 23.9853 45.4999 23.9968 45.323 24.0142C42.9237 24.2982 41.214 26.4423 41.5029 28.8009C41.7682 30.9855 43.6606 32.5849 45.8418 32.5849C46.0187 32.5849 46.1955 32.5734 46.3724 32.556C48.7717 32.272 50.4814 30.1279 50.1925 27.7694C49.9213 25.5847 48.0348 23.9853 45.8536 23.9853ZM45.8536 22.2468C48.9545 22.2468 51.5779 24.53 51.9493 27.5607C52.3561 30.8696 49.9508 33.883 46.5846 34.2771C46.337 34.306 46.0894 34.3234 45.8418 34.3234C42.7409 34.3234 40.1175 32.0402 39.7461 29.0095C39.3394 25.7006 41.7446 22.6872 45.1108 22.2931C45.3584 22.2584 45.606 22.2468 45.8536 22.2468Z" fill="#2A364D"/>
<path d="M21.2999 33.4542C21.5121 33.4542 21.7243 33.4426 21.9366 33.4194C23.3337 33.2514 24.5776 32.5618 25.4442 31.4781C26.3108 30.3887 26.694 29.0384 26.529 27.665C26.2106 25.0689 23.9704 23.116 21.3117 23.116C21.0994 23.116 20.8872 23.1276 20.675 23.1508C19.2778 23.3188 18.0339 24.0084 17.1673 25.0921C16.3007 26.1815 15.9175 27.5318 16.0826 28.9052C16.4009 31.4955 18.647 33.4542 21.2999 33.4542Z" fill="white"/>
<path d="M21.3117 23.9853C21.1348 23.9853 20.958 23.9968 20.7811 24.0142C18.3817 24.2982 16.6721 26.4423 16.961 28.8009C17.2263 30.9855 19.1186 32.5849 21.2999 32.5849C21.4767 32.5849 21.6536 32.5734 21.8304 32.556C24.2298 32.272 25.9394 30.1279 25.6506 27.7694C25.3794 25.5847 23.4929 23.9853 21.3117 23.9853ZM21.3117 22.2468C24.4126 22.2468 27.036 24.53 27.4074 27.5607C27.8141 30.8696 25.4089 33.883 22.0427 34.2771C21.7951 34.306 21.5475 34.3234 21.2999 34.3234C18.199 34.3234 15.5756 32.0402 15.2042 29.0095C14.7974 25.7006 17.2027 22.6872 20.5689 22.2931C20.8165 22.2584 21.0641 22.2468 21.3117 22.2468Z" fill="#2A364D"/>
<path d="M45.9005 31.2637C44.2237 31.2637 42.8644 29.9275 42.8644 28.2793C42.8644 26.6311 44.2237 25.2949 45.9005 25.2949C47.5772 25.2949 48.9365 26.6311 48.9365 28.2793C48.9365 29.9275 47.5772 31.2637 45.9005 31.2637Z" fill="#2A364D"/>
<path d="M44.4977 28.4416C44.0386 28.4416 43.6665 28.0757 43.6665 27.6245C43.6665 27.1732 44.0386 26.8074 44.4977 26.8074C44.9568 26.8074 45.3289 27.1732 45.3289 27.6245C45.3289 28.0757 44.9568 28.4416 44.4977 28.4416Z" fill="#B0B0B0"/>
<path d="M21.3585 31.2637C19.6817 31.2637 18.3224 29.9275 18.3224 28.2793C18.3224 26.6311 19.6817 25.2949 21.3585 25.2949C23.0352 25.2949 24.3945 26.6311 24.3945 28.2793C24.3945 29.9275 23.0352 31.2637 21.3585 31.2637Z" fill="#2A364D"/>
<path d="M19.9617 28.4416C19.5026 28.4416 19.1304 28.0757 19.1304 27.6245C19.1304 27.1732 19.5026 26.8074 19.9617 26.8074C20.4207 26.8074 20.7929 27.1732 20.7929 27.6245C20.7929 28.0757 20.4207 28.4416 19.9617 28.4416Z" fill="#B0B0B0"/>
<path d="M11.1541 88.1179C11.219 88.1585 11.2897 88.1932 11.3605 88.228C11.9736 88.5293 12.5808 88.7959 13.1821 89.1436C16.0885 90.8241 19.0832 92.3482 22.1252 93.7622C23.2217 94.2721 24.33 94.7647 25.4383 95.2515C28.5215 96.5901 31.7403 97.5752 34.9591 98.5488C36.4624 99.0066 37.9657 99.4644 39.4985 99.8063C40.9133 100.125 42.4579 100.513 43.8786 100.038C46.107 99.2848 47.8579 97.4941 49.0311 95.4659C49.1903 95.1877 49.3435 94.9038 49.4909 94.614C50.6346 92.3192 51.3597 89.7984 51.4069 87.2371C51.4717 84.1368 50.9588 80.5845 48.5005 78.3998C48.2116 78.1448 47.8933 77.9014 47.5219 77.8029C47.1505 77.7044 46.7025 77.7739 46.449 78.0579C46.1955 77.3451 45.2817 77.1481 44.5212 77.0959C43.7784 77.0438 42.8882 77.293 42.8882 78.0579C42.8882 77.6059 42.3282 77.3103 42.0098 77.3335C41.326 77.3799 40.6363 77.7681 40.0939 78.1506C39.3511 78.678 38.8323 79.5762 37.9539 79.9007C37.1581 80.1962 36.315 79.8196 35.5958 79.4892C34.8294 79.1358 33.9805 78.9387 33.167 78.7011C27.03 76.8989 20.5865 75.3633 14.1253 75.7457C12.7694 75.8268 11.4194 76.0065 10.0989 76.302C8.8432 76.586 7.58751 76.9916 6.57352 77.7739C5.72461 78.4288 5.05845 79.3965 4.92876 80.4686C4.79316 81.6102 5.68924 82.6243 6.3613 83.4646C7.31633 84.6641 8.38337 85.7768 9.53884 86.7909C10.0281 87.2255 10.5705 87.7702 11.1541 88.1179Z" fill="#272628"/>
<g opacity="0.15">
<path d="M11.1423 87.8978C11.0597 87.8109 10.9831 87.724 10.9065 87.6371C10.765 87.4748 10.6235 87.2662 10.6942 87.0634C10.7532 86.8895 10.9536 86.7968 11.1364 86.8026C11.3191 86.8084 11.496 86.8895 11.661 86.9649C16.0294 89.0047 20.5629 90.7026 25.2024 92.0412C26.7529 92.4874 28.3564 92.8989 29.9658 92.7308C30.4256 92.6845 30.8854 92.5859 31.2804 92.3541C32.035 91.9195 32.2472 90.975 32.5715 90.2332C32.9783 89.306 33.385 88.3846 33.7446 87.44C34.2104 86.2231 34.6407 84.9366 35.4837 83.9109C35.9318 83.3604 36.6746 82.4854 37.4233 82.3521C37.7475 82.2941 38.1248 82.4042 38.2781 82.694C38.3488 82.8331 38.3606 82.9953 38.3606 83.1518C38.3547 83.7776 38.1779 84.3861 38.0246 84.9946C36.822 89.7754 36.9693 95.0198 39.2803 99.3892C38.0364 99.395 36.6451 98.972 35.525 98.462C33.7623 97.6623 31.8228 97.2857 29.9894 96.6714C28.0793 96.0281 26.1987 95.3038 24.3181 94.5794C21.9424 93.6638 19.5666 92.7482 17.2674 91.6646C15.1864 90.6852 12.7281 89.5958 11.1423 87.8978Z" fill="#2A364D"/>
</g>
<path d="M1.1318 72.9932C1.1318 72.9932 2.35801 82.7866 14.3195 89.8506C16.3415 91.0444 18.4285 92.1223 20.5625 93.1016C25.2905 95.2805 30.2248 97.0248 35.2476 98.4156C36.6683 98.8096 38.095 99.1747 39.5334 99.4992C40.4708 99.7078 41.1959 100.148 42.204 100.125C43.6247 100.096 45.016 99.5456 46.1361 98.6995C47.492 97.6738 48.4824 96.2656 49.2547 94.7763C50.0918 93.1711 50.758 91.705 51.1353 89.9202C51.5421 87.9905 51.7012 86.0202 51.3711 84.0673C50.9525 81.616 49.632 78.0637 46.5842 78.1043C46.5016 78.1043 46.1361 77.5364 45.5761 77.3278C44.6269 76.9685 43.4007 76.9221 42.8643 77.8899C42.145 77.4842 41.7618 77.49 41.5732 77.4784C40.9188 77.4321 40.3588 77.8146 39.9166 78.2608C39.4332 78.7475 39.0147 79.7501 38.4487 80.092C37.7354 80.5208 32.6714 78.452 28.9102 77.49" stroke="#2A364D" stroke-width="3" stroke-miterlimit="10" stroke-linecap="round" stroke-linejoin="round"/>
<path d="M41.9797 96.2482C42.4336 96.8335 42.9937 97.1348 43.5832 97.2159C44.5618 97.3492 45.6347 96.8798 46.4483 96.0975C47.1852 95.3905 47.6922 94.4923 48.1166 93.5767C48.3171 93.1537 48.4998 92.7133 48.659 92.267C49.3193 90.43 49.5905 88.4482 48.9184 86.6517C48.6295 85.8868 48.1461 85.1509 47.421 84.7568C44.8743 83.3834 42.6989 85.9448 41.7262 88.1121C41.5788 88.4424 41.455 88.7669 41.3666 89.0624C41.2428 89.4681 41.1367 89.8969 41.06 90.3373C40.7122 92.2207 40.7299 94.643 41.9797 96.2482Z" fill="#66636B"/>
<g opacity="0.15">
<path d="M41.98 96.2483C42.4339 96.8335 42.9939 97.1349 43.5835 97.216C44.5621 97.3493 45.635 96.8799 46.4486 96.0976C47.1855 95.3906 47.6925 94.4924 48.1169 93.5768C48.3173 93.1538 48.5001 92.7133 48.6593 92.2671C47.5392 93.6927 46.1184 94.504 44.7625 94.3128C42.6343 94.0114 41.3904 91.3457 41.7206 88.1122C41.5732 88.4425 41.4494 88.767 41.361 89.0625C41.2372 89.4682 41.131 89.897 41.0544 90.3374C40.7125 92.2208 40.7302 94.6431 41.98 96.2483Z" fill="#2A364D"/>
</g>
<path d="M47.9699 81.083C47.5631 82.1203 48.2824 85.8059 49.6854 83.9225C50.7643 82.468 48.7186 79.1591 47.9699 81.083Z" fill="#66636B"/>
<path d="M42.5518 80.7584C43.1767 81.9174 42.9586 84.7453 41.4671 84.3512C41.0957 84.2527 40.8068 83.934 40.6712 83.5805C40.5356 83.227 40.5356 82.833 40.5828 82.4563C40.6476 81.9695 40.795 81.4943 41.0131 81.0481C41.1605 80.7526 41.361 80.4512 41.6734 80.3296C42.0507 80.1789 42.3455 80.3817 42.5518 80.7584Z" fill="#66636B"/>
<path d="M45.0396 79.7617C44.8568 79.8486 44.7448 80.0282 44.6564 80.2021C44.4383 80.6251 44.2791 81.0771 44.1907 81.5465C43.9313 82.9373 45.5171 84.5367 46.5016 82.9547C46.9791 82.1955 46.1892 79.2169 45.0396 79.7617Z" fill="#66636B"/>
<g opacity="0.15">
<path d="M49.6847 83.9225C49.8969 83.6327 49.9912 83.2676 49.9912 82.891C49.9499 82.9779 49.9028 83.059 49.8438 83.1401C48.6648 84.7222 47.9691 82.3752 48.0163 80.967C47.9986 81.0018 47.9809 81.0424 47.9632 81.0887C47.5624 82.1202 48.2875 85.8058 49.6847 83.9225Z" fill="#2A364D"/>
</g>
<g opacity="0.15">
<path d="M40.6715 83.5805C40.8071 83.9398 41.096 84.2527 41.4674 84.3513C42.894 84.7337 43.1593 82.1666 42.6287 80.9207C42.8174 82.2129 42.4283 83.8819 41.2551 83.5689C40.9545 83.4878 40.7069 83.2676 40.5536 82.9952C40.5654 83.1981 40.6008 83.3951 40.6715 83.5805Z" fill="#2A364D"/>
</g>
<g opacity="0.15">
<path d="M46.5019 82.9546C46.6434 82.7286 46.6729 82.2998 46.6139 81.8304C46.5903 81.9579 46.555 82.068 46.5019 82.1549C45.6884 83.4588 44.4622 82.5953 44.2087 81.4653C44.2028 81.4943 44.1969 81.5175 44.191 81.5465C43.9316 82.9372 45.5174 84.5366 46.5019 82.9546Z" fill="#2A364D"/>
</g>
<path d="M47.3387 80.6251C47.2739 79.7327 46.9968 78.8519 46.5252 78.0811" stroke="#2A364D" stroke-width="2" stroke-miterlimit="10" stroke-linecap="round" stroke-linejoin="round"/>
<path d="M43.5771 80.1441C43.5123 79.298 43.2352 78.4636 42.7636 77.7334" stroke="#2A364D" stroke-width="2" stroke-miterlimit="10" stroke-linecap="round" stroke-linejoin="round"/>
</g>
<defs>
<clipPath id="clip0_229_14144">
<rect width="78" height="101" fill="white" transform="matrix(-1 0 0 1 78 0)"/>
</clipPath>
</defs>
</svg>
