<svg width="24" height="24" viewBox="0 0 24 24" fill="none" xmlns="http://www.w3.org/2000/svg">
<path d="M21.8906 9.89062H14.1094V2.10938C14.1094 0.944391 13.165 0 12 0C10.835 0 9.89062 0.944391 9.89062 2.10938V9.89062H2.10938C0.944391 9.89062 0 10.835 0 12C0 13.165 0.944391 14.1094 2.10938 14.1094H9.89062V21.8906C9.89062 23.0556 10.835 24 12 24C13.165 24 14.1094 23.0556 14.1094 21.8906V14.1094H21.8906C23.0556 14.1094 24 13.165 24 12C24 10.835 23.0556 9.89062 21.8906 9.89062Z" fill="#C9CBCF"/>
</svg>
