<svg width="69" height="69" viewBox="0 0 69 69" fill="none" xmlns="http://www.w3.org/2000/svg">
<g clip-path="url(#clip0_229_16658)">
<path d="M24.134 66.3061C21.7526 66.436 19.6567 66.1948 17.8872 65.5866C16.2197 65.0165 14.8712 64.1298 13.8822 62.949C8.45938 56.5039 15.2099 43.4526 29.2517 33.2339C32.9055 30.5716 36.7172 28.3622 40.5699 26.6556C43.0328 25.5673 45.4583 24.7117 47.7846 24.111C48.0934 24.0318 48.4021 23.9589 48.7108 23.8859C50.46 23.485 52.1455 23.2372 53.7058 23.1522C58.3522 22.8989 61.8988 24.0587 63.9576 26.503C65.2831 28.077 65.9053 30.0697 65.8046 32.4198C65.6595 36.0194 63.8301 40.2658 60.5283 44.6861C57.498 48.7485 53.3678 52.7338 48.5882 56.2119C40.4517 62.1429 31.3123 65.9148 24.134 66.3061Z" fill="#825CE2"/>
<path d="M53.6505 24.4977C57.7137 24.2127 60.9839 25.0686 62.8562 27.2059C64.0298 28.5461 64.548 30.2694 64.4739 32.249C64.3527 35.5562 62.5784 39.5741 59.4861 43.709C56.644 47.5075 52.6898 51.4024 47.8612 54.9356C39.6478 60.9442 30.8547 64.4856 24.1902 64.9531C22.0282 65.1048 20.0889 64.9342 18.4615 64.4168C17.0392 63.9648 15.8528 63.2448 14.9846 62.2449C10.0461 56.6071 16.7647 44.1918 29.9795 34.5153C33.6269 31.8436 37.3862 29.6608 41.0235 28.02C43.4278 26.9316 45.7817 26.0859 48.0098 25.4882C48.3055 25.4061 48.6012 25.3302 48.8968 25.2604C50.5674 24.8612 52.1611 24.6022 53.6505 24.4977ZM53.6743 22.0435C52.0134 22.16 50.241 22.4437 48.3985 22.8918C48.0823 22.9692 47.7591 23.0532 47.4359 23.1372C45.0222 23.7847 42.5099 24.6967 39.961 25.8443C35.9998 27.6305 32.0954 29.9277 28.3514 32.6674C21.6162 37.5974 16.2375 43.3949 13.2134 48.9843C9.89587 55.1215 9.73478 60.412 12.7602 63.8725C13.9067 65.1778 15.4474 66.1489 17.3414 66.7518C19.2902 67.3692 21.5788 67.595 24.1526 67.4145C31.6338 66.8897 41.0964 62.9211 49.4687 56.791C54.3664 53.2039 58.6038 49.1114 61.71 44.9571C65.1636 40.3431 67.0585 35.9059 67.1981 32.1192C67.2988 29.5185 66.5725 27.3254 65.053 25.5864C62.7333 22.9103 58.7876 21.6848 53.6743 22.0435Z" fill="#6447AD"/>
<path opacity="0.04" d="M62.8737 27.4038C63.2991 27.9995 63.6693 28.629 63.9167 29.2698C64.8868 31.777 64.3515 34.5979 63.469 37.0221C60.7352 44.5447 54.2343 50.8106 47.7071 55.5232C41.2283 60.2023 32.8231 64.7318 24.4891 65.3472C20.9603 65.6101 17.1758 64.5627 14.8272 62.1429C12.6259 59.8751 11.4499 55.1962 14.3763 52.8283C13.0839 58.3021 21.6889 57.7769 25.0242 57.288C31.6058 56.3266 38.0163 53.1605 43.1188 49.2006C46.4443 46.627 49.4559 43.6932 52.1171 40.5399C54.855 37.2949 59.5218 31.0527 57.6701 26.7993C57.1074 25.5077 55.837 24.5229 54.3493 24.2419C55.0014 24.3671 55.8825 23.8955 56.6165 24.0174C57.1601 24.1092 57.687 24.3722 58.2439 24.4823C59.5958 24.7372 60.6215 24.9295 61.5921 25.9075C62.0407 26.357 62.4813 26.8636 62.8737 27.4038Z" fill="white"/>
<path d="M18.7838 54.1577C18.209 54.1891 17.6483 54.1947 17.1083 54.1743L16.712 54.1584L16.3089 54.1305C16.1586 54.12 16.0494 54.1073 15.9539 54.0938C15.947 54.0941 15.5375 54.0416 15.4625 54.027C15.3601 54.0139 15.2441 53.9953 15.1282 53.9704L14.9509 53.9364C14.9099 53.9324 14.8349 53.9178 14.7668 53.8966C14.6918 53.882 14.5622 53.8579 14.4395 53.8271L14.1124 53.7452C14.0239 53.7188 13.7174 53.6295 13.7174 53.6295C13.7174 53.6295 13.588 53.593 13.5268 53.5713C13.377 53.5234 13.2137 53.4637 13.0574 53.3974C13.0233 53.3868 12.9622 53.3589 12.9009 53.3373C12.8465 53.3154 12.7445 53.271 12.6426 53.2267C12.595 53.2044 12.3369 53.0813 12.3369 53.0813C12.2962 53.0585 12.1332 52.9739 12.0857 52.9515C12.0653 52.9402 11.8957 52.8434 11.8481 52.8211C11.7396 52.7584 11.6175 52.684 11.5024 52.603C11.5024 52.603 11.3059 52.4703 11.2654 52.4351C11.2654 52.4351 11.218 52.4002 11.1706 52.3654C10.954 52.2088 10.731 52.0152 10.5149 51.815L10.3867 51.691C10.2586 51.5608 10.1374 51.424 10.023 51.2868C8.39478 49.3553 8.00805 46.6452 8.89977 43.4539C10.4892 37.7553 15.9073 31.0935 23.3943 25.647C26.979 23.0385 30.8586 20.8565 34.613 19.3362C36.2839 18.659 37.9325 18.1077 39.5176 17.7032C39.8813 17.6086 40.2381 17.5206 40.5947 17.445C42.0006 17.1376 43.3503 16.9456 44.6094 16.8769C44.8489 16.8639 45.0884 16.8571 45.3209 16.8506L45.5261 16.8457C49.0411 16.8224 51.7488 17.8221 53.3704 19.7416C53.5049 19.9026 53.6258 20.0644 53.7465 20.2324C53.9947 20.5868 54.2015 20.9621 54.3671 21.3521C54.3671 21.3521 54.4465 21.5411 54.4664 21.5899C54.4861 21.645 54.585 21.9139 54.585 21.9139C54.7623 22.4468 54.8775 23.0204 54.9309 23.6161C55.0496 24.9315 54.8654 26.3945 54.3858 27.9545L54.2571 28.3606C54.2074 28.5005 54.1644 28.64 54.1147 28.7737C53.9442 29.2382 53.7461 29.7229 53.5276 30.1962C53.2527 30.7973 52.9294 31.4323 52.5651 32.0695C52.0816 32.9189 51.5226 33.7912 50.9021 34.6668C48.4617 38.0984 45.0779 41.5129 41.1114 44.5413L40.6761 44.8706L40.0406 45.3417L39.4191 45.7872L39.0531 46.0441C38.701 46.294 38.3421 46.538 37.9832 46.7758L37.7141 46.9526C37.5416 47.068 37.3554 47.1842 37.176 47.3L36.6931 47.6069C36.5828 47.6752 36.1001 47.9697 36.1001 47.9697C35.7415 48.1888 35.3762 48.402 35.0177 48.6148C34.8454 48.7178 34.6593 48.8214 34.4801 48.9247C33.7703 49.3251 33.047 49.7137 32.324 50.0774L32.0762 50.2031C31.6286 50.4271 31.1743 50.6451 30.7202 50.8507L30.4587 50.971C30.1009 51.1339 29.7432 51.2906 29.3925 51.4344L28.4161 51.8306L27.3438 52.2382C27.3369 52.2386 26.3819 52.5713 26.3819 52.5713L25.7294 52.7814L25.235 52.9331C24.7269 53.0855 24.2259 53.2251 23.725 53.3521L22.984 53.5297L22.4902 53.6377C22.3325 53.6712 22.1679 53.7051 22.0103 53.7324L21.5373 53.8206L21.0576 53.8966C20.8177 53.9346 20.5917 53.9657 20.3725 53.9901C20.215 54.0111 19.7835 54.0596 19.7835 54.0596L19.537 54.0855C19.2629 54.1254 19.0233 54.1447 18.7838 54.1577Z" fill="#8DB811"/>
<path d="M44.5522 18.2038C44.7718 18.1884 44.9914 18.1791 45.2109 18.1698C45.2727 18.1655 45.3344 18.1673 45.3962 18.1629C48.4079 18.0927 50.8288 18.8242 52.2533 20.4595C52.3618 20.5868 52.4702 20.7202 52.565 20.8546C52.7679 21.1408 52.9434 21.4412 53.0843 21.7563C53.0978 21.786 53.1111 21.8218 53.1246 21.8515C53.138 21.8812 53.1514 21.9171 53.1648 21.9468C53.1849 21.9945 53.1982 22.0364 53.2183 22.0841C53.2385 22.1256 53.2518 22.1737 53.2651 22.2157C53.4185 22.6648 53.5167 23.1423 53.5667 23.6416C53.6789 24.8048 53.5086 26.0982 53.0837 27.4769C53.0625 27.5397 53.0482 27.6021 53.027 27.6649C53.0058 27.7277 52.9846 27.7905 52.9634 27.8533C52.9211 27.9789 52.8787 28.1045 52.8295 28.2305C52.6675 28.665 52.4918 29.1004 52.2817 29.5504C52.0154 30.1271 51.7148 30.7122 51.3729 31.3126C50.9124 32.1236 50.3831 32.9455 49.792 33.7779C47.5113 36.973 44.2829 40.2897 40.3164 43.3393C40.2404 43.3998 40.1644 43.4542 40.0883 43.5147C40.0262 43.562 39.957 43.6159 39.8949 43.6632C39.7705 43.7578 39.6392 43.8528 39.5149 43.9474C39.425 44.015 39.3352 44.0826 39.2454 44.1502C39.1418 44.2249 39.0382 44.2997 38.9346 44.3744C38.831 44.4491 38.7205 44.5243 38.6168 44.6051C38.5132 44.6798 38.4165 44.7479 38.313 44.8165C37.9677 45.0615 37.6156 45.3008 37.2704 45.5334C37.1806 45.5949 37.0978 45.6498 37.0081 45.7051C36.8355 45.8215 36.656 45.9383 36.4835 46.0485C36.3247 46.1516 36.166 46.2486 36.0073 46.3517C35.9037 46.4203 35.8002 46.4827 35.6967 46.5451C35.607 46.6005 35.5242 46.6554 35.4345 46.7107C35.0826 46.9255 34.7376 47.1336 34.3858 47.3422C34.2133 47.4463 34.0341 47.5447 33.8616 47.6426C33.165 48.041 32.4617 48.4214 31.7656 48.7768C31.6897 48.8189 31.607 48.8554 31.5312 48.8975C31.0901 49.1185 30.649 49.3334 30.208 49.5421C30.1184 49.5852 30.0358 49.6217 29.9462 49.6647C29.6017 49.8238 29.2573 49.9767 28.9198 50.123C28.8371 50.1595 28.7476 50.1964 28.665 50.2329C28.5823 50.2693 28.4928 50.3063 28.4101 50.3427C28.3344 50.3726 28.2586 50.4085 28.1828 50.4384C28.1415 50.4535 28.1002 50.4687 28.0589 50.49C27.9212 50.5426 27.7834 50.6013 27.6458 50.6538C27.5632 50.6842 27.4805 50.7206 27.391 50.7514C27.3084 50.7817 27.2258 50.8182 27.1363 50.849C27.0674 50.8784 26.9918 50.9021 26.916 50.9319C26.8954 50.9395 26.8747 50.9471 26.8609 50.9542C26.7439 50.9992 26.6269 51.038 26.5168 51.0825C26.4617 51.1048 26.4066 51.1209 26.3447 51.1437C26.2759 51.1669 26.2071 51.1901 26.1382 51.2195C26.0831 51.2417 26.0212 51.2583 25.9661 51.2806C25.8973 51.3038 25.8354 51.3265 25.7734 51.3493C25.6427 51.3952 25.5188 51.4346 25.395 51.4739C25.3193 51.4976 25.2368 51.5218 25.161 51.5517C25.0785 51.5758 24.9959 51.6062 24.9133 51.6303C24.4249 51.7811 23.9434 51.9191 23.469 52.0444C23.3934 52.0619 23.3108 52.0861 23.2352 52.1037C23.1596 52.1212 23.077 52.1454 23.0014 52.163C22.9258 52.1806 22.8433 52.1986 22.7676 52.2223C22.692 52.2399 22.6095 52.2579 22.5339 52.2755C22.4583 52.2931 22.3827 52.3106 22.3002 52.3287C22.149 52.3638 21.9909 52.3933 21.8397 52.4284C21.7641 52.446 21.6885 52.4574 21.6129 52.475C21.5373 52.4926 21.4617 52.504 21.3862 52.5154C21.3106 52.5268 21.235 52.5444 21.1594 52.5559C21.0839 52.5673 21.0083 52.5848 20.9258 52.5968C20.7129 52.6301 20.5 52.6634 20.287 52.6968C20.1359 52.7196 19.978 52.7368 19.8337 52.7592C19.717 52.7735 19.6071 52.7874 19.4973 52.7951C19.2707 52.8171 19.0373 52.8396 18.8177 52.855C18.2892 52.8921 17.7747 52.9036 17.2809 52.8954C17.2329 52.8926 17.1781 52.8903 17.13 52.8937C17.0615 52.8923 16.9998 52.8905 16.938 52.8887C16.8763 52.8869 16.8078 52.8856 16.7461 52.8777C16.6639 52.8712 16.5884 52.8704 16.513 52.8634C16.4239 52.8574 16.3348 52.8514 16.2458 52.8392C16.2184 52.835 16.1909 52.8369 16.1635 52.8327C16.1087 52.8243 16.047 52.8225 15.9922 52.8141C15.9306 52.8061 15.8689 52.7982 15.8073 52.7902C15.7045 52.7791 15.6018 52.7617 15.4991 52.7444C15.4512 52.7355 15.3964 52.7271 15.3484 52.7182C15.3074 52.7088 15.2594 52.7061 15.2183 52.6967C15.1088 52.6798 14.9992 52.6569 14.8897 52.6339C14.8418 52.625 14.8007 52.6156 14.7529 52.6006C14.7049 52.5917 14.6571 52.5766 14.6092 52.5677C14.5955 52.5625 14.5818 52.5635 14.5681 52.5583C14.5202 52.5494 14.4723 52.5344 14.4244 52.5194C14.3766 52.5043 14.3287 52.4893 14.2739 52.4809C14.2671 52.4752 14.2534 52.4762 14.2397 52.471C14.1919 52.456 14.144 52.4409 14.0961 52.432C13.9525 52.3869 13.8157 52.3413 13.6791 52.2896C13.6449 52.2797 13.6039 52.2642 13.5697 52.2482C13.4877 52.2172 13.4057 52.1861 13.3238 52.149C13.276 52.1278 13.2282 52.1066 13.1803 52.0855C13.1393 52.0699 13.0984 52.0483 13.0643 52.0323C13.0301 52.0163 12.996 52.0003 12.9687 51.9838C12.9346 51.9678 12.9004 51.9518 12.8595 51.9302C12.8253 51.9142 12.7912 51.8982 12.7571 51.876C12.723 51.86 12.6889 51.844 12.6616 51.8214C12.5593 51.7611 12.457 51.7009 12.3547 51.6406C12.3207 51.6185 12.2866 51.5963 12.2525 51.5742C12.2252 51.5577 12.198 51.5412 12.1775 51.5243C12.1435 51.5021 12.1162 51.4856 12.089 51.463C11.8914 51.3236 11.7077 51.1709 11.5309 51.0117C11.497 50.9772 11.4561 50.9433 11.4222 50.9089C11.3134 50.8062 11.2116 50.6968 11.1167 50.587C9.67852 48.9465 9.42678 46.6159 10.18 43.9204C11.6084 38.7924 16.6778 32.3544 24.1245 26.9024C27.7373 24.2577 31.4751 22.1622 35.0285 20.6928C36.6469 20.0213 38.2297 19.475 39.7426 19.0684C40.0864 18.9769 40.4302 18.8914 40.767 18.8126C42.1008 18.4861 43.3648 18.287 44.5522 18.2038ZM44.576 15.7495C43.2307 15.8439 41.7951 16.0672 40.3034 16.411C39.939 16.4978 39.554 16.5923 39.162 16.6995C37.5116 17.1402 35.7912 17.733 34.0557 18.4556C30.1855 20.0576 26.1921 22.3366 22.5033 25.0357C14.7665 30.6981 9.16439 37.6088 7.51586 43.5125C6.53511 47.0394 7.01354 50.0409 8.89938 52.1957C9.0351 52.3456 9.17762 52.5011 9.32713 52.6439C9.33394 52.6496 9.35435 52.6665 9.36115 52.6722L9.49031 52.7919C9.73501 53.02 10.0005 53.2282 10.273 53.4176C10.3207 53.451 10.3616 53.4788 10.4093 53.5123C10.4501 53.54 10.4842 53.5622 10.5251 53.59C10.5728 53.6234 10.6205 53.6507 10.6682 53.6842C10.7909 53.7614 10.9273 53.8438 11.0637 53.9201C11.1115 53.9474 11.1592 53.9747 11.207 54.002C11.2547 54.0293 11.3025 54.0505 11.3503 54.0778C11.3981 54.099 11.439 54.1267 11.4868 54.1479C11.5277 54.1696 11.5687 54.1912 11.6097 54.2067C11.6575 54.2279 11.7121 54.2547 11.7667 54.2816C11.8282 54.3079 11.9033 54.3394 11.9716 54.3714C12.0741 54.4133 12.1765 54.4613 12.2859 54.4965C12.3405 54.5172 12.3952 54.5379 12.4568 54.5581C12.6276 54.6197 12.8054 54.6808 12.9832 54.7358C13.0447 54.756 13.1062 54.7762 13.1747 54.7898C13.1883 54.795 13.1952 54.7945 13.2089 54.7997C13.2225 54.8049 13.2431 54.8095 13.2567 54.8147L13.2909 54.8246L13.3867 54.8485C13.462 54.8678 13.5304 54.8875 13.6056 54.9067C13.633 54.9171 13.6672 54.9208 13.6946 54.9312L13.7836 54.9494L13.8178 54.9593C13.8314 54.9645 13.8452 54.9635 13.8588 54.9687C13.9273 54.9823 13.982 54.9968 14.0299 55.0057C14.1531 55.0339 14.2832 55.0616 14.4133 55.0831C14.4817 55.0967 14.5433 55.1108 14.6118 55.1182C14.6734 55.1323 14.742 55.1397 14.8036 55.1477C14.9132 55.1645 15.0433 55.186 15.1735 55.2014C15.2488 55.2084 15.3242 55.2215 15.3995 55.2285C15.4681 55.236 15.5366 55.2434 15.6051 55.2509L15.6736 55.2583C15.6873 55.2574 15.701 55.2625 15.7147 55.2616C15.8312 55.2718 15.9477 55.282 16.0642 55.2922L16.1122 55.295C16.1876 55.302 16.263 55.3028 16.3384 55.3098C16.4001 55.3116 16.4824 55.3181 16.5647 55.3185C16.6058 55.3217 16.6744 55.323 16.7429 55.3244L16.7841 55.3276L16.9898 55.3316C17.559 55.3407 18.1627 55.329 18.7872 55.2852C19.0481 55.2669 19.3089 55.2425 19.5698 55.218L19.8788 55.1841L19.9337 55.1802C20.126 55.1545 20.2976 55.1363 20.4762 55.1115C20.7097 55.0768 20.9501 55.0415 21.1975 54.9996C21.2867 54.9872 21.3761 54.9687 21.4723 54.9497L21.6235 54.9207L21.6922 54.9097C21.8021 54.8898 21.8914 54.8712 21.9808 54.8527L22.2213 54.8052C22.3863 54.7691 22.5581 54.7325 22.7299 54.6959C22.8124 54.6779 22.9086 54.6589 22.998 54.6342C23.0599 54.6176 23.1492 54.5991 23.2455 54.5739L23.493 54.5136C23.5824 54.489 23.6786 54.47 23.768 54.4453L23.8918 54.4121L24.0018 54.386C24.5382 54.2441 25.0747 54.09 25.5975 53.9246L25.7627 53.8701L25.8521 53.8392L26.1273 53.7525C26.2512 53.7132 26.3888 53.6667 26.5264 53.6203C26.5952 53.5971 26.6709 53.5733 26.7535 53.543L26.8085 53.5269L26.9737 53.4663L27.0701 53.435L27.1527 53.4047L27.249 53.3734L27.3316 53.3431L27.7171 53.1995C27.7309 53.1924 27.7928 53.1697 27.8135 53.1621L27.9099 53.1247L28.0269 53.0797L28.1026 53.0499L28.3023 52.9745L28.4262 52.9291L28.5363 52.8845L28.9701 52.7131C28.977 52.7126 29.0045 52.6984 29.0114 52.6979L29.1078 52.6605C29.1147 52.66 29.1353 52.6524 29.1422 52.6458L29.3419 52.5644L29.3764 52.5497C29.459 52.5132 29.5554 52.4758 29.6519 52.4323C29.7483 52.3887 29.8447 52.3513 29.9411 52.3077C30.2924 52.1543 30.6575 51.9938 31.0296 51.8206L31.1742 51.7553L31.2913 51.7041C31.7805 51.4736 32.256 51.244 32.7109 51.0159C32.7868 50.9738 32.8764 50.9308 32.9659 50.8877C33.6966 50.5115 34.4481 50.1093 35.1792 49.6901C35.3654 49.5851 35.5517 49.4739 35.7379 49.3689C36.0966 49.1597 36.4691 48.9374 36.8418 48.7028L37.1247 48.5235C37.2213 48.4677 37.3318 48.3925 37.4491 48.323L37.9391 48.0066C38.1323 47.8826 38.3187 47.7592 38.5051 47.6358L38.7743 47.4575C39.1333 47.2177 39.4993 46.9651 39.8653 46.7065L40.183 46.4818L40.5214 46.2435C40.6181 46.1754 40.7355 46.0936 40.8461 46.0061L41.1362 45.7957C41.2674 45.7007 41.3987 45.5995 41.5369 45.4978L41.7442 45.3423L41.8616 45.2543L41.9653 45.1735C46.0562 42.0293 49.5403 38.5107 52.0574 34.9864C52.7041 34.0826 53.2821 33.1775 53.7915 32.2895C54.1752 31.6188 54.5108 30.9576 54.8051 30.3238C55.0363 29.8232 55.2401 29.3184 55.4232 28.8273C55.4726 28.6828 55.5289 28.5378 55.5783 28.3933L55.6489 28.1799C55.6771 28.1044 55.6984 28.0293 55.7198 27.9481C56.2368 26.2625 56.4305 24.6792 56.2936 23.2418C56.2314 22.5778 56.0937 21.9314 55.8868 21.3328C55.8801 21.321 55.8802 21.3087 55.8735 21.297L55.86 21.2672C55.8467 21.2314 55.8334 21.1894 55.82 21.1536C55.7932 21.088 55.7733 21.0219 55.7465 20.9564C55.7263 20.9087 55.7063 20.855 55.6794 20.8017C55.6592 20.7602 55.6458 20.7243 55.6257 20.6828C55.431 20.2427 55.1814 19.8126 54.8972 19.4156C54.7619 19.2228 54.6128 19.037 54.4499 18.8584C52.5708 16.7154 49.4881 15.6257 45.5433 15.7246C45.4953 15.7279 45.4404 15.7257 45.3786 15.73C45.3649 15.731 45.3443 15.7324 45.3306 15.7334C45.0907 15.7195 44.8368 15.7312 44.576 15.7495Z" fill="#6A8F00"/>
<path opacity="0.07" d="M52.2567 20.654C52.3633 20.7887 52.4698 20.9297 52.5627 21.0713C52.7617 21.3728 52.9331 21.6881 53.0703 22.0175C53.0834 22.0485 53.0963 22.0859 53.1094 22.117C53.1225 22.1481 53.1354 22.1854 53.1485 22.2165C53.168 22.2663 53.1809 22.31 53.2004 22.3597C53.2201 22.4032 53.2328 22.4532 53.2456 22.4969C53.3939 22.9648 53.4871 23.4602 53.5323 23.9765C53.6331 25.1794 53.4522 26.5073 53.0176 27.915C52.996 27.9791 52.9812 28.0429 52.9596 28.1069C52.938 28.171 52.9163 28.235 52.8947 28.2991C52.8515 28.4272 52.8083 28.5554 52.7582 28.6838C52.5934 29.1264 52.4149 29.5696 52.2021 30.0269C51.8982 30.6205 51.601 31.2202 51.2835 31.8144C50.8954 32.5378 50.4871 33.2494 50.0247 33.9379C47.44 37.7579 43.9523 41.0079 40.1925 43.8519C40.1164 43.9118 40.0405 43.9655 39.9644 44.0254C39.9022 44.0722 39.8331 44.1255 39.7709 44.1723C39.6465 44.2658 39.5153 44.3595 39.3909 44.453C39.301 44.5199 39.2112 44.5867 39.1214 44.6535C39.0178 44.7272 38.9142 44.8009 38.8106 44.8746C38.707 44.9483 38.5966 45.0223 38.4929 45.1023C38.3893 45.176 38.2927 45.2431 38.1892 45.3105C37.844 45.5519 37.4921 45.7873 37.1471 46.0161C37.0574 46.0766 36.9746 46.1305 36.885 46.1847C36.7125 46.2991 36.5332 46.4138 36.3609 46.5219C36.2022 46.6231 36.0436 46.7243 35.8851 46.8191C35.7817 46.8865 35.6783 46.9476 35.5749 47.0086C35.4853 47.0628 35.4026 47.1167 35.313 47.1709C34.9615 47.381 34.617 47.5845 34.2657 47.7883C34.0934 47.89 33.9144 47.9857 33.7423 48.0812C33.0468 48.4695 32.3448 48.8391 31.6501 49.1832C31.5743 49.2241 31.4919 49.2591 31.4162 49.3C30.9761 49.5137 30.536 49.7211 30.0961 49.9222C30.0068 49.9637 29.9243 49.9986 29.835 50.0402C29.4914 50.1931 29.1479 50.3397 28.8113 50.4797C28.7289 50.5146 28.6396 50.5498 28.5572 50.5847C28.4748 50.6197 28.3855 50.6549 28.3031 50.6898C28.2276 50.7181 28.152 50.7528 28.0765 50.7811C28.0353 50.7954 27.9942 50.8097 27.9529 50.8304C27.8157 50.8801 27.6783 50.9362 27.5411 50.986C27.4588 51.0146 27.3763 51.0496 27.2872 51.0785C27.2049 51.1071 27.1225 51.142 27.0333 51.1709C26.9646 51.1989 26.8893 51.2209 26.8138 51.2493C26.7932 51.2564 26.7726 51.2636 26.7589 51.2704C26.6422 51.3131 26.5257 51.3494 26.4158 51.3917C26.3609 51.4129 26.3061 51.4278 26.2444 51.4492C26.1758 51.471 26.1073 51.4927 26.0386 51.5208C25.9837 51.5419 25.922 51.5571 25.8671 51.5782C25.7986 51.6 25.7368 51.6214 25.6751 51.6429C25.5448 51.6861 25.4214 51.7227 25.2981 51.7592C25.2227 51.7813 25.1405 51.8035 25.065 51.8319C24.9828 51.8542 24.9005 51.8828 24.8183 51.905C24.3318 52.0448 23.8523 52.1716 23.3799 52.2855C23.3047 52.3012 23.2225 52.3235 23.1472 52.3392C23.0719 52.3549 22.9897 52.3771 22.9145 52.3928C22.8392 52.4085 22.7571 52.4245 22.6817 52.4465C22.6065 52.4622 22.5244 52.4781 22.4491 52.4938C22.3739 52.5095 22.2986 52.5252 22.2165 52.5411C22.066 52.5725 21.9087 52.5978 21.7582 52.6292C21.6829 52.6449 21.6078 52.6542 21.5325 52.6699C21.4573 52.6856 21.3821 52.695 21.307 52.7043C21.2318 52.7137 21.1565 52.7294 21.0814 52.7387C21.0062 52.7481 20.931 52.7638 20.849 52.7734C20.6371 52.8073 20.4254 52.8285 20.2136 52.856C20.0633 52.8747 19.9063 52.8874 19.7628 52.9058C19.6467 52.9168 19.5375 52.9276 19.4283 52.932C18.657 52.9885 17.9207 52.9994 17.226 52.9643C17.1784 52.9599 17.1238 52.9621 17.0762 52.9577C17.0081 52.9541 16.9468 52.9503 16.8856 52.9465C16.8243 52.9426 16.7562 52.9391 16.695 52.9289C16.6134 52.9196 16.5385 52.9163 16.4637 52.9067C16.3752 52.8976 16.2868 52.8886 16.1984 52.8732C16.1713 52.868 16.144 52.8691 16.1168 52.8638C16.0625 52.8534 16.0012 52.8496 15.9468 52.8391C15.8857 52.829 15.8245 52.8188 15.7634 52.8086C15.6614 52.7938 15.5595 52.7727 15.4577 52.7515C15.4101 52.7408 15.3558 52.7304 15.3083 52.7196C15.2676 52.7087 15.2199 52.7043 15.1793 52.6933C15.0706 52.6724 14.962 52.6452 14.8534 52.618C14.8059 52.6073 14.7652 52.5963 14.7178 52.5793C14.6703 52.5685 14.6229 52.5515 14.5754 52.5408C14.5618 52.535 14.5482 52.5356 14.5347 52.5298C14.4871 52.5191 14.4397 52.502 14.3923 52.485C14.3449 52.468 14.2975 52.4509 14.2432 52.4405C14.2365 52.4345 14.2228 52.435 14.2093 52.4292C14.1619 52.4122 14.1145 52.3952 14.067 52.3844C13.9248 52.3333 13.7894 52.2819 13.6541 52.2242C13.6202 52.213 13.5796 52.1957 13.5459 52.1781C13.4647 52.1434 13.3835 52.1088 13.3025 52.0679C13.2552 52.0445 13.2079 52.0211 13.1606 51.9978C13.12 51.9805 13.0796 51.9568 13.0458 51.9392C13.012 51.9216 12.9783 51.9041 12.9513 51.8862C12.9176 51.8686 12.8838 51.851 12.8434 51.8274C12.8096 51.8098 12.7758 51.7922 12.7422 51.7683C12.7084 51.7507 12.6747 51.7331 12.6478 51.7089C12.5468 51.6435 12.4457 51.5781 12.3447 51.5127C12.311 51.4887 12.2774 51.4648 12.2437 51.4409C12.2168 51.4231 12.1898 51.4052 12.1697 51.387C12.1361 51.3631 12.1091 51.3453 12.0823 51.3211C11.8874 51.171 11.7063 51.0077 11.5322 50.8378C11.4987 50.8013 11.4585 50.765 11.4251 50.7284C11.318 50.619 11.2179 50.503 11.1246 50.3868C9.71109 48.6494 9.48227 46.2386 10.2549 43.484C10.5747 43.888 10.8182 44.3711 11.1168 44.8139C11.6676 45.6383 12.3373 45.9209 13.4173 46.1299C15.4009 46.5046 17.5734 46.2334 19.5967 45.924C25.2222 45.0644 30.7571 42.4393 35.1473 39.039C38.0027 36.8256 40.5932 34.1869 42.8849 31.4845C44.7099 29.3318 46.6188 27.0682 47.6199 24.4939C48.1133 23.2228 48.2855 22.0026 48.0295 20.7113C47.7166 19.1759 46.5853 18.792 45.4667 18.079C48.4589 18.0906 50.8566 18.9287 52.2567 20.654Z" fill="white"/>
<g opacity="0.08">
<path d="M36.5913 19.7875C35.5127 20.2991 34.5464 21.0086 33.7253 21.9778C33.8419 21.5557 34.0597 21.1864 34.3983 20.9134C35.0272 20.4073 35.7895 20.0602 36.5913 19.7875Z" fill="black"/>
</g>
<g opacity="0.08">
<path d="M41.3699 18.8161C41.2945 18.8619 41.2054 18.9082 41.1027 18.9549C40.4389 19.2367 39.4446 19.231 38.7277 19.3903C38.0449 19.5361 37.3143 19.7021 36.6103 19.9293C38.0412 19.2631 39.6657 18.9446 41.3699 18.8161Z" fill="black"/>
</g>
<path d="M14.2612 41.9779C10.9218 42.1599 8.36232 41.3142 6.86185 39.5377C5.54314 37.9696 5.17642 35.7946 5.80615 33.2597C6.98631 28.4873 11.4461 22.9125 17.7315 18.3357C20.2595 16.4955 22.8997 14.9548 25.5693 13.7554C28.9683 12.2231 32.2559 11.3393 35.0821 11.1852C35.3011 11.1732 35.5199 11.1675 35.732 11.1622C38.755 11.1159 41.0888 11.9677 42.4815 13.6253C42.5891 13.7567 42.6898 13.8884 42.7838 14.0204C42.7838 14.0204 42.8173 14.0685 42.8307 14.0865C43.0452 14.399 43.2519 14.7869 43.4105 15.1898C43.4236 15.2265 43.4961 15.4283 43.4961 15.4283C43.9757 16.8489 43.9464 18.4843 43.4289 20.3146C43.3644 20.5364 43.2929 20.7585 43.2216 20.9744L43.1219 21.2605C43.0651 21.4133 43.0296 21.5087 42.9941 21.6042C41.8249 24.5863 39.5312 27.7856 36.3572 30.8583C35.0059 32.1604 33.5253 33.4197 31.9364 34.5914L31.6118 34.8273C25.8376 39.0208 19.3525 41.7003 14.2612 41.9779Z" fill="#F77928"/>
<path d="M35.0449 12.4856C35.244 12.4717 35.443 12.4639 35.6351 12.4565C38.1601 12.3775 40.1914 12.9831 41.3854 14.3466C41.4736 14.4447 41.5549 14.5493 41.6293 14.6545C41.6361 14.6601 41.6361 14.6663 41.6429 14.6658C41.846 14.9459 42.0077 15.2473 42.1349 15.5634C42.1483 15.5993 42.1685 15.6408 42.1819 15.6766L42.1818 15.6828C42.1952 15.7125 42.2018 15.7427 42.2152 15.7724C42.6223 16.9396 42.5812 18.3468 42.1409 19.8924C42.0841 20.0926 42.0205 20.2872 41.9569 20.4817C41.9358 20.5323 41.9215 20.5885 41.9005 20.639C41.8794 20.6895 41.8651 20.7457 41.8441 20.7963C41.8158 20.878 41.7807 20.9663 41.7456 21.0485C40.6766 23.7726 38.493 26.8387 35.4463 29.7874C34.1722 31.0235 32.7405 32.24 31.1791 33.4043C31.0754 33.4852 30.9718 33.5599 30.8613 33.6351C25.1067 37.847 18.9504 40.3332 14.3104 40.6587C11.5099 40.8552 9.25898 40.265 7.97683 38.7973C6.85071 37.5088 6.60757 35.7046 7.12167 33.6203C8.16412 29.3956 12.3181 24.0266 18.4941 19.5092C20.9949 17.6781 23.568 16.173 26.0621 15.0352C29.3072 13.5443 32.4161 12.6701 35.0449 12.4856ZM35.0688 10.0311C32.0487 10.2429 28.5615 11.2234 24.9857 12.8602C22.216 14.1277 19.4841 15.742 16.8727 17.6545C10.3236 22.4495 5.67806 28.2945 4.44289 33.2931C3.7291 36.164 4.18532 38.6279 5.75922 40.4246C7.53666 42.4524 10.484 43.3801 14.2866 43.1133C19.6747 42.7353 26.4793 39.8847 32.4895 35.4894L32.8143 35.2458C34.4586 34.0205 35.994 32.717 37.3858 31.3684C40.6957 28.162 43.0946 24.811 44.3323 21.6765C44.3674 21.5881 44.4096 21.4809 44.445 21.3742L44.4662 21.3053L44.5014 21.2108C44.5295 21.1414 44.5507 21.0786 44.572 21.0096C44.6566 20.7707 44.7275 20.5388 44.7984 20.2947C45.3807 18.2547 45.3916 16.4203 44.8445 14.8398C44.8445 14.8398 44.8379 14.8096 44.8311 14.8101C44.8176 14.7804 44.8043 14.7445 44.7977 14.7143C44.7709 14.6487 44.7441 14.5832 44.7173 14.5176C44.5364 14.0703 44.287 13.6218 43.9892 13.2073C43.9825 13.1955 43.9757 13.1898 43.9689 13.178C43.8539 13.0205 43.7251 12.864 43.5962 12.7136C41.9409 10.8183 39.2338 9.8799 35.7757 9.98759C35.5423 10.004 35.309 10.0142 35.0688 10.0311Z" fill="#E87226"/>
<path opacity="0.07" d="M41.3914 14.4939C41.4711 14.6044 41.5441 14.7152 41.6171 14.826C41.6238 14.832 41.6237 14.8384 41.6305 14.8381C41.8226 15.1463 41.9941 15.4616 42.111 15.7791C42.1239 15.8165 42.1436 15.8599 42.1566 15.8973L42.1564 15.9036C42.1695 15.9347 42.1758 15.966 42.1888 15.9971C42.641 17.3689 42.4776 18.8605 42.0775 20.2415C42.0193 20.4461 41.9543 20.6446 41.8893 20.8431C41.868 20.8945 41.8533 20.952 41.8319 21.0034C41.8105 21.0548 41.7958 21.1123 41.7744 21.1637C41.7457 21.247 41.7099 21.3369 41.6743 21.4205C39.743 26.4147 35.4403 30.6139 31.0671 33.8176C30.9634 33.8977 30.8598 33.9714 30.7494 34.0453C21.528 40.7121 11.327 42.7679 7.96654 38.6387C6.85981 37.2744 6.63475 35.4069 7.16433 33.275C7.43271 33.5105 7.67311 33.7851 7.92773 34.0276C10.4731 36.4963 13.9154 35.3776 17.1203 34.5717C20.8866 33.6231 24.4576 31.8041 27.4929 29.4507C29.8159 27.6569 31.9136 25.5058 33.7737 23.3074C35.6894 21.0435 39.0478 17.0405 37.7723 14.0907C37.4126 13.2522 36.62 12.6082 35.6835 12.3744C35.6156 12.3582 35.5478 12.342 35.4731 12.326C35.9283 12.4087 36.5409 12.0806 37.0506 12.1674C37.4312 12.2278 37.7891 12.4155 38.1831 12.488C39.1206 12.6649 39.834 12.794 40.5034 13.4683C40.8183 13.7715 41.1255 14.1192 41.3914 14.4939Z" fill="white"/>
<path d="M11.6084 31.2233C8.69224 31.3823 6.46614 30.6053 5.18211 28.972C4.75858 28.4336 4.42353 27.9278 4.17071 27.4112C1.97931 23.1197 4.83795 18.1972 13.1874 11.9272C18.1018 8.23405 22.1362 6.34826 25.5179 6.16389C27.1676 6.07395 28.6681 6.39768 29.985 7.13072C30.8675 7.61916 31.6654 8.29315 32.4262 9.17505C32.7225 9.52076 32.9367 9.85847 33.1028 10.2113C34.4871 13.012 33.2327 17.1732 29.7279 21.3323C28.2814 23.0521 26.5701 24.6303 24.6289 26.0151C20.3043 29.1084 15.5583 31.008 11.6084 31.2233Z" fill="#DD5B70"/>
<path d="M25.4826 7.47951C27.0003 7.37298 28.212 7.67467 29.2088 8.20018C30.0555 8.64414 30.7495 9.25843 31.3333 9.91115C31.5437 10.1481 31.7197 10.3997 31.8542 10.6788C33.0801 13.0606 31.7258 16.8329 28.7126 20.4147C27.4004 21.9802 25.766 23.5068 23.8794 24.8609C19.7052 27.8674 15.1791 29.6646 11.6494 29.9123C9.29391 30.0777 7.38435 29.5548 6.31278 28.2488C5.97372 27.8306 5.6623 27.392 5.4198 26.9241C3.89673 24.0597 4.68353 20.0694 13.975 13.045C19.0978 9.16777 22.7701 7.66992 25.4826 7.47951ZM25.5065 5.02225C21.7982 5.28256 17.4826 7.31055 12.3115 11.2157C7.63123 14.7488 4.6366 17.8382 3.16809 20.6547C1.77662 23.3123 1.69039 25.8292 2.91698 28.1311C3.19991 28.676 3.57193 29.2331 4.05347 29.8194C5.59303 31.6942 8.28115 32.6043 11.6255 32.3696C15.8763 32.0712 20.9264 30.0162 25.4808 26.7314C27.5194 25.2684 29.3267 23.6007 30.8473 21.7873C34.6657 17.2588 35.9798 12.6729 34.3704 9.51379C34.1617 9.09257 33.8911 8.69412 33.545 8.29483C32.6761 7.31834 31.7637 6.58433 30.7395 6.04846C29.1965 5.22979 27.4362 4.8868 25.5065 5.02225Z" fill="#C44558"/>
<path opacity="0.04" d="M31.3177 10.0697C31.5245 10.3204 31.6969 10.5851 31.8279 10.8768C33.0232 13.3686 31.6444 17.2095 28.6205 20.801C27.3035 22.3709 25.667 23.8905 23.7817 25.2242C16.834 30.1625 8.94117 31.6004 6.31138 28.1492C5.97858 27.7077 5.67342 27.2462 5.43693 26.7565C6.66118 26.9092 7.88161 26.8977 8.37313 26.8589C10.7622 26.6864 13.0474 25.8482 15.1582 24.8592C20.3011 22.4521 25.3493 18.8797 27.9681 13.9524C28.8152 12.3573 29.5164 10.1615 29.2241 8.24605C30.0607 8.72403 30.7441 9.37882 31.3177 10.0697Z" fill="white"/>
<path opacity="0.14" d="M14.6596 37.1421C15.1721 37.9883 14.2371 38.8589 13.2727 39.0969C11.7338 39.4738 9.34166 39.0456 8.45477 37.7549C8.15467 37.3226 8.04238 36.7353 8.32045 36.2727C8.53446 35.913 8.94166 35.6859 9.35861 35.593C9.77556 35.5001 10.2162 35.5285 10.6358 35.5827C11.6104 35.7027 12.5611 35.9443 13.4545 36.2951C13.8239 36.4392 14.1926 36.6088 14.4631 36.8879C14.5423 36.9704 14.6078 37.053 14.6596 37.1421Z" fill="white"/>
<path opacity="0.14" d="M21.032 48.2129C21.1124 48.487 21.1167 48.8128 21.024 49.2034C20.8319 49.9845 20.155 50.6161 19.3711 50.9484C17.7555 51.626 15.6106 51.3304 14.1088 50.6397C13.2639 50.2568 12.5217 49.6047 12.2744 48.7505C12.0271 47.8963 12.3832 46.8455 13.2309 46.4169C13.7478 46.1571 14.3593 46.1522 14.9357 46.1858C16.3868 46.2763 20.5537 46.6449 21.032 48.2129Z" fill="white"/>
<path opacity="0.14" d="M24.7506 59.768C24.7561 59.8126 24.7616 59.8572 24.7603 59.9019C24.7763 60.5268 24.4125 61.1358 23.8915 61.542C22.3771 62.7281 19.4076 62.7972 18.0096 61.5839C17.2412 60.9141 16.8798 59.7817 17.3341 58.8594C17.796 57.9115 18.9785 57.4043 20.0723 57.3889C21.533 57.3641 24.5398 58.124 24.7506 59.768Z" fill="white"/>
<path d="M11.4731 18.7779C9.38958 18.8143 7.36479 18.1798 5.78229 16.9889C5.17721 16.5337 4.64188 16.0072 4.18952 15.4217C1.25865 11.645 2.24588 6.19844 6.38757 3.27427C7.16205 2.72482 8.00792 2.29535 8.90467 1.99259C9.87692 1.65661 10.8992 1.47925 11.9375 1.46111C14.8286 1.4106 17.5558 2.66446 19.2279 4.81718C20.6507 6.64887 21.2004 8.9169 20.7862 11.2081C20.372 13.4994 19.0351 15.5452 17.023 16.9648C15.3845 18.1163 13.4683 18.7431 11.4731 18.7779Z" fill="#56CDE8"/>
<path d="M11.8959 2.73799C14.2849 2.69625 16.6192 3.68262 18.1078 5.59609C20.6127 8.8188 19.7693 13.4525 16.229 15.9515C14.7908 16.9655 13.1288 17.473 11.4999 17.5015C9.7489 17.5321 8.02618 17.0135 6.64971 15.9785C6.15113 15.598 5.69499 15.153 5.29486 14.6432C2.78992 11.4205 3.62667 6.78054 7.17375 4.28147C7.84458 3.80402 8.56644 3.4469 9.31272 3.19143C10.1549 2.90238 11.034 2.75304 11.8959 2.73799ZM11.9712 0.184736C10.7835 0.205486 9.61116 0.410982 8.4814 0.80075C7.4682 1.14382 6.49162 1.63937 5.60647 2.2673C0.849251 5.62327 -0.281756 11.8761 3.08213 16.2067C3.60677 16.8802 4.22151 17.4819 4.90635 17.9995C6.72847 19.3648 9.04923 20.0962 11.445 20.0544C13.7322 20.0144 15.9359 19.2933 17.8097 17.9718C20.1124 16.343 21.6473 14.0003 22.1249 11.3698C22.6025 8.73938 21.9668 6.13475 20.3341 4.03241C18.4126 1.56508 15.29 0.126755 11.9712 0.184736Z" fill="#4AB5CC"/>
<g opacity="0.41">
<path d="M18.1216 5.63279C20.6271 8.8485 19.7844 13.4713 16.2444 15.9639C13.2645 18.0585 9.3251 17.98 6.66473 15.9891C7.41606 16.0525 8.19166 15.9691 8.91756 15.7147C9.80093 15.4067 10.5751 14.8714 11.2562 14.2613C12.6461 13.0216 13.7 11.4122 14.0381 9.67503C14.3764 7.93153 13.9516 6.06116 12.7308 4.77738C11.8798 3.87548 10.6197 3.30527 9.32588 3.23211C12.4891 2.14641 16.095 3.02624 18.1216 5.63279Z" fill="#4AB5CC"/>
</g>
<path d="M8.74303 21.1622C8.74303 21.1622 17.1762 20.2002 23.9292 10.6141" stroke="#C44558" stroke-width="4" stroke-miterlimit="10" stroke-linecap="round" stroke-linejoin="round"/>
<path d="M5.37563 9.62363C5.26093 10.3635 5.3761 11.1313 5.8216 11.7217C6.66695 12.8332 8.43796 12.8092 9.35581 11.712C10.7361 10.0598 10.6077 5.46889 7.32722 6.89922C6.42126 7.29644 5.80167 8.14679 5.51323 9.04236C5.45402 9.22786 5.40804 9.42586 5.37563 9.62363Z" fill="#72DBF2"/>
</g>
<defs>
<clipPath id="clip0_229_16658">
<rect width="67.0226" height="68.7598" fill="white" transform="matrix(1 0 -0.0182014 0.999834 1.25195 0)"/>
</clipPath>
</defs>
</svg>
