<svg width="72" height="72" viewBox="0 0 72 72" fill="none" xmlns="http://www.w3.org/2000/svg">
<g clip-path="url(#clip0_134_6787)">
<path d="M14.9216 49.4437C12.3966 46.9186 12.1762 42.9344 14.4049 40.1792L18.2265 35.4602C19.2207 34.2287 19.5479 32.589 19.0977 31.0666L17.3677 25.2252C16.6162 22.6842 17.3528 19.9898 19.2978 18.1932C21.2427 16.3965 23.9893 15.8747 26.4602 16.8298L32.1393 19.0187C33.6211 19.591 35.2833 19.3972 36.589 18.4993L41.601 15.0668C44.3937 13.1566 48.0227 13.5025 50.429 15.9088C51.8195 17.2993 52.5293 19.1553 52.4248 21.1434L52.1151 27.2151C52.0466 28.5738 52.5595 29.9074 53.5272 30.8752C53.6756 31.0235 53.835 31.1607 53.9981 31.2868L58.8278 35C59.0761 35.1891 59.3171 35.4005 59.5358 35.6193C61.2859 37.3694 61.9448 39.8621 61.3041 42.2827C60.6633 44.6884 58.8368 46.5074 56.4274 47.1519L50.5537 48.7171C49.0252 49.1259 47.7938 50.2608 47.2665 51.7522L45.2383 57.4808C44.4455 59.7271 42.5855 61.3794 40.2721 61.8982C37.9329 62.4206 35.5401 61.7433 33.8679 60.0711C33.5193 59.7226 33.2041 59.3333 32.9332 58.9146L29.6158 53.8077C29.4303 53.5261 29.2189 53.2629 28.9816 53.0256C28.1065 52.1506 26.9395 51.649 25.7028 51.6102L19.623 51.4386C17.8235 51.3916 16.1601 50.6821 14.9216 49.4437Z" fill="#FFE033"/>
<path d="M49.6899 16.6478C50.7874 17.7454 51.4709 19.294 51.3772 21.0859L51.0674 27.1576C50.981 28.831 51.6127 30.4462 52.7807 31.6142C52.9586 31.7921 53.1514 31.9627 53.3516 32.1185L58.1813 35.8317C58.4 35.9986 58.6002 36.1766 58.7856 36.362C61.8927 39.4692 60.5677 44.9618 56.1411 46.1403L50.2675 47.7055C48.4058 48.2026 46.9046 49.5852 46.2666 51.4023L44.2384 57.1309C42.7671 61.2941 37.5257 62.2641 34.5965 59.3349C34.3073 59.0457 34.0365 58.7158 33.799 58.3452L30.4817 53.2383C30.2553 52.8937 29.9994 52.5712 29.7102 52.282C28.6572 51.229 27.2345 50.6049 25.7201 50.562L19.6403 50.3904C18.0259 50.3437 16.6625 49.6901 15.6688 48.6964C13.6777 46.7053 13.1915 43.3501 15.228 40.8316L19.0497 36.1126C20.2657 34.6148 20.659 32.6123 20.1084 30.7603L18.3746 24.93C16.9906 20.2703 21.5498 16.0596 26.0916 17.8063L31.7707 19.9952C33.5749 20.6902 35.5998 20.4524 37.1903 19.3661L42.2023 15.9337C44.725 14.1971 47.8137 14.7717 49.6899 16.6478ZM51.1688 15.169C48.4435 12.4437 44.1702 12.0377 41.0114 14.2029L35.9993 17.6354C34.9785 18.3374 33.6754 18.491 32.5158 18.0413L26.8367 15.8524C23.9879 14.7561 20.8268 15.3588 18.5861 17.4216C16.3453 19.4844 15.4944 22.5896 16.365 25.5159L18.0987 31.3535C18.4522 32.5425 18.1985 33.827 17.4187 34.7922L13.597 39.5112C11.0283 42.6879 11.2792 47.272 14.1862 50.179C15.6174 51.6102 17.5328 52.4312 19.5841 52.486L25.6639 52.6576C26.6303 52.6849 27.5416 53.0786 28.2276 53.7646C28.413 53.95 28.5836 54.1576 28.7246 54.3799L32.042 59.4867C32.3537 59.9685 32.7172 60.4133 33.1176 60.8138C35.042 62.7381 37.7978 63.527 40.4923 62.9237C43.161 62.324 45.2983 60.4239 46.2129 57.8335L48.2411 52.1049C48.6541 50.9355 49.6155 50.0482 50.8146 49.7315L56.6883 48.1663C59.4678 47.4261 61.5642 45.3298 62.3044 42.5577C63.0446 39.7707 62.2852 36.9039 60.2645 34.8831C60.0123 34.631 59.7417 34.3973 59.46 34.1748L54.6303 30.4616C54.5006 30.3615 54.3782 30.2539 54.2596 30.1353C53.5032 29.3789 53.1018 28.3342 53.1558 27.2716L53.4656 21.1999C53.5882 18.912 52.7706 16.7707 51.1688 15.169Z" fill="#E8A705"/>
<g opacity="0.35">
<path d="M58.1887 35.8321L53.3553 32.1227C51.8244 30.9468 50.9665 29.0832 51.0674 27.1654L51.3772 21.0937C51.6257 16.2401 46.1971 13.1925 42.1986 15.9378L37.1903 19.374C35.5961 20.464 33.5711 20.7017 31.7744 20.0068L26.0916 17.8216C21.5535 16.0564 16.9906 20.2707 18.3709 24.9268L20.1046 30.7644C20.6516 32.6202 20.2545 34.6116 19.0423 36.1131L15.2206 40.832C12.1677 44.6042 14.7713 50.2543 19.6292 50.3871L25.7127 50.5625C27.6381 50.617 29.4204 51.6156 30.4779 53.2351L33.7953 58.3345C36.4521 62.4185 42.6195 61.7016 44.2384 57.1239L46.2592 51.3953C46.9082 49.5746 48.4021 48.1994 50.26 47.6985L56.1374 46.1296C60.8378 44.8923 62.0435 38.7997 58.1887 35.8321ZM53.7769 44.7748L48.6435 46.1411C47.0187 46.572 45.706 47.7808 45.1455 49.3721L43.3718 54.3791C41.9631 58.3758 36.5694 59.0086 34.254 55.4435L31.3559 50.9778C30.432 49.5658 28.8756 48.6898 27.1872 48.643L21.8776 48.4947C17.6306 48.3738 15.3576 43.4388 18.0224 40.1437L21.3636 36.0164C22.4244 34.7035 22.7625 32.9564 22.29 31.3377L20.772 26.2409C19.5666 22.1664 23.5489 18.4881 27.5165 20.0155L32.477 21.9294C34.0514 22.5352 35.8246 22.3341 37.2154 21.3808L41.5912 18.3769C45.0904 15.9827 49.8297 18.6442 49.6099 22.8832L49.3398 28.1812C49.2533 29.8694 49.9999 31.4885 51.3417 32.5197L55.5598 35.7617C58.9291 38.3546 57.8704 43.6773 53.7769 44.7748Z" fill="#FFF096"/>
</g>
</g>
<defs>
<clipPath id="clip0_134_6787">
<rect width="49.7676" height="50.9117" fill="white" transform="translate(36) rotate(45)"/>
</clipPath>
</defs>
</svg>
