<svg width="50" height="53" viewBox="0 0 50 53" fill="none" xmlns="http://www.w3.org/2000/svg">
<g clip-path="url(#clip0_229_14037)">
<path d="M26.5871 52.0716C24.8565 52.0716 22.8867 51.3195 20.5698 49.7691L4.85366 39.2638C-0.19277 35.8935 0.538869 32.5558 2.04436 30.3554C2.92607 29.0602 4.57695 28.1132 7.09079 27.4633C10.749 26.5813 14.4775 25.6621 18.1873 24.7383C22.6147 23.6474 26.3057 22.6029 29.1666 21.6327C32.1916 20.5975 34.1989 19.3766 35.1369 18.0071C35.7326 17.1344 35.9764 16.2895 35.8826 15.4307C35.7935 14.6322 35.348 13.973 34.5132 13.416C33.9457 13.04 33.35 12.8543 32.6888 12.8543C32.3323 12.8543 31.9524 12.91 31.5585 13.0168C30.7706 13.286 29.6168 13.9081 28.1301 14.869C26.4651 15.946 25.2645 16.5959 24.4531 16.8512C24.0123 16.9858 23.5808 17.0462 23.1446 17.0462C22.1832 17.0462 21.217 16.7259 20.2744 16.0945C18.7407 15.0686 17.8356 13.7084 17.5823 12.0512C17.3337 10.4264 17.7277 8.84342 18.7454 7.34863C19.5005 6.24379 20.6027 5.15287 22.0284 4.10373C24.8096 2.02867 28.0457 0.95632 31.6429 0.928467H31.7977C35.3198 0.928467 38.5606 1.90333 41.4356 3.8252C45.2017 6.34127 47.6123 9.52118 48.6066 13.2814C49.6431 17.2644 48.8786 21.1731 46.3319 24.9054C44.062 28.2339 39.7472 30.9589 33.5095 33.0154C30.794 33.8695 26.5402 34.8583 20.8418 35.9724L27.1124 40.1643C29.3823 41.6823 30.8081 43.1725 31.4787 44.7276C32.1963 46.4035 32.004 48.07 30.9019 49.6855C29.8279 51.2685 28.374 52.0716 26.5871 52.0716Z" fill="#47D68F"/>
<path d="M31.7976 1.85688C35.1463 1.85688 38.1807 2.77139 40.9103 4.59578C44.4981 6.99115 46.7587 9.9668 47.7014 13.5181C48.6722 17.2458 47.9593 20.8713 45.558 24.3901C43.396 27.5607 39.2781 30.1418 33.214 32.138C30.1889 33.0896 25.2598 34.2037 18.4405 35.4896L26.5917 40.9349C30.7799 43.7342 31.9618 46.4823 30.1233 49.1702C29.2228 50.4886 28.0456 51.1478 26.5776 51.1478C25.0534 51.1478 23.2196 50.4329 21.0857 49.0031L5.37888 38.4931C1.82856 36.121 0.97498 33.5817 2.82284 30.8753C3.56386 29.7844 5.06934 28.9488 7.32992 28.3592C11.0444 27.4633 14.7401 26.5534 18.4171 25.6342C22.8913 24.5294 26.5776 23.4895 29.4714 22.5054C32.7122 21.3959 34.8555 20.0682 35.9107 18.5177C36.6283 17.464 36.9331 16.3963 36.8112 15.3193C36.694 14.2423 36.103 13.3463 35.0384 12.6361C34.3208 12.1533 33.5376 11.9165 32.6887 11.9165C32.2385 11.9165 31.7695 11.9862 31.2817 12.1208C30.4141 12.4086 29.19 13.0632 27.6141 14.0844C26.0383 15.1057 24.8892 15.7278 24.1623 15.9599C23.8246 16.062 23.4823 16.1131 23.1446 16.1131C22.3707 16.1131 21.5875 15.8485 20.7996 15.3239C19.4864 14.4465 18.7219 13.3092 18.5109 11.9165C18.2998 10.5192 18.6375 9.17299 19.5239 7.87317C20.218 6.85189 21.2404 5.84917 22.5912 4.85574C25.2222 2.88281 28.2473 1.88473 31.6522 1.85688C31.6991 1.85688 31.7507 1.85688 31.7976 1.85688ZM31.7976 0L31.6335 0C27.8299 0.0278532 24.4062 1.16519 21.4515 3.37488C19.9554 4.47508 18.7735 5.64027 17.9621 6.83332C16.8084 8.52772 16.3628 10.3289 16.6489 12.1951C16.9397 14.1169 17.9809 15.6906 19.7396 16.8651C20.8418 17.6032 21.9815 17.9746 23.1352 17.9746C23.6605 17.9746 24.1858 17.8957 24.7017 17.7425C24.711 17.7378 24.7204 17.7378 24.7298 17.7332C25.635 17.4454 26.8731 16.7816 28.6319 15.6442C30.3672 14.5208 31.3239 14.0752 31.8257 13.8987C32.1306 13.8198 32.4167 13.7781 32.6793 13.7781C33.1577 13.7781 33.5704 13.908 33.9785 14.1819C34.757 14.7018 34.8977 15.1754 34.9399 15.5282C35.0103 16.1595 34.818 16.8001 34.349 17.4872C33.7862 18.3135 32.3745 19.5483 28.8476 20.7553C26.0148 21.7162 22.3473 22.7561 17.9528 23.8377C14.2289 24.7661 10.505 25.6807 6.87499 26.558C6.86561 26.5627 6.85154 26.5627 6.84216 26.5673C4.09851 27.2822 2.27411 28.3499 1.25638 29.8401C-0.314768 32.1426 -0.141238 34.1341 0.285551 35.4014C0.85304 37.0865 2.17093 38.6045 4.31894 40.039L20.0351 50.5443C22.5114 52.2015 24.6548 53.0046 26.5776 53.0046C28.6647 53.0046 30.4281 52.0391 31.6757 50.21C32.9513 48.3439 33.1765 46.3245 32.3416 44.3702C31.6006 42.6433 30.0623 41.0185 27.6376 39.3984L23.2243 36.4506C27.8908 35.5035 31.3614 34.668 33.7768 33.9113C33.7862 33.9066 33.7955 33.9066 33.8002 33.902C40.3334 31.7526 44.6857 28.9813 47.1057 25.4346C49.8072 21.4702 50.6185 17.3061 49.5117 13.0585C48.4565 9.07086 45.9145 5.70991 41.9561 3.06385C38.9311 1.02593 35.5121 0 31.7976 0Z" fill="#2E9161"/>
</g>
<defs>
<clipPath id="clip0_229_14037">
<rect width="50" height="53" fill="white"/>
</clipPath>
</defs>
</svg>
