<svg width="194" height="64" viewBox="0 0 194 64" fill="none" xmlns="http://www.w3.org/2000/svg">
<rect x="1.26953" y="1" width="191.73" height="62" rx="11" fill="white" stroke="#2A364D" stroke-width="2"/>
<path d="M63.2349 45.8441C58.9805 48.9963 52.814 50.6775 47.5057 50.6775C40.0604 50.6775 33.3591 47.9102 28.2891 43.3076C27.8904 42.9411 28.2477 42.4524 28.7254 42.7334C34.1954 45.9345 40.9624 47.8588 47.9518 47.8588C52.9889 47.8349 57.9718 46.8105 62.6138 44.8446C63.3334 44.538 63.9363 45.3187 63.2313 45.8441" fill="#FF9900"/>
<path d="M65.0038 43.8097C64.4629 43.112 61.4094 43.4798 60.0395 43.6435C59.6213 43.6948 59.5533 43.3295 59.9337 43.0668C62.3648 41.3465 66.3555 41.845 66.8211 42.4205C67.2866 42.996 66.6995 47.0193 64.4143 48.9388C64.0642 49.2332 63.7299 49.0756 63.8855 48.6859C64.3984 47.3981 65.5496 44.5122 65.0038 43.8097Z" fill="#FF9900"/>
<mask id="path-4-inside-1_264_3820" fill="white">
<path d="M60.1825 30.9246V29.2703C60.181 29.2144 60.1908 29.1587 60.2114 29.1067C60.232 29.0548 60.263 29.0076 60.3023 28.968C60.3417 28.9285 60.3887 28.8974 60.4404 28.8766C60.4921 28.8559 60.5474 28.846 60.6031 28.8476H68.0022C68.0022 28.8476 68.4325 29.0015 68.4483 29.252V30.6803C68.43 30.9246 68.2295 31.2337 67.8721 31.731L64.0127 37.278C65.4471 37.2425 66.9604 37.4564 68.2611 38.1931C68.554 38.3605 68.6914 38.8443 68.6914 38.8443V40.5768C68.6914 40.8212 68.4227 41.1059 68.1407 40.958C65.8312 39.7509 62.7753 39.614 60.2287 40.9702C59.9686 41.112 59.6963 40.8297 59.6963 40.5866V38.892C59.6963 38.6195 59.6963 38.1589 59.9722 37.7423L64.4698 31.2973H60.5666C60.5106 31.2998 60.4546 31.2907 60.4022 31.2707C60.3497 31.2507 60.3019 31.2202 60.2616 31.1809C60.2213 31.1417 60.1894 31.0946 60.1679 31.0426C60.1463 30.9905 60.1356 30.9346 60.1363 30.8782"/>
</mask>
<path d="M60.1825 30.9246V29.2703C60.181 29.2144 60.1908 29.1587 60.2114 29.1067C60.232 29.0548 60.263 29.0076 60.3023 28.968C60.3417 28.9285 60.3887 28.8974 60.4404 28.8766C60.4921 28.8559 60.5474 28.846 60.6031 28.8476H68.0022C68.0022 28.8476 68.4325 29.0015 68.4483 29.252V30.6803C68.43 30.9246 68.2295 31.2337 67.8721 31.731L64.0127 37.278C65.4471 37.2425 66.9604 37.4564 68.2611 38.1931C68.554 38.3605 68.6914 38.8443 68.6914 38.8443V40.5768C68.6914 40.8212 68.4227 41.1059 68.1407 40.958C65.8312 39.7509 62.7753 39.614 60.2287 40.9702C59.9686 41.112 59.6963 40.8297 59.6963 40.5866V38.892C59.6963 38.6195 59.6963 38.1589 59.9722 37.7423L64.4698 31.2973H60.5666C60.5106 31.2998 60.4546 31.2907 60.4022 31.2707C60.3497 31.2507 60.3019 31.2202 60.2616 31.1809C60.2213 31.1417 60.1894 31.0946 60.1679 31.0426C60.1463 30.9905 60.1356 30.9346 60.1363 30.8782" fill="#2A364D"/>
<path d="M60.1825 29.2703H60.7221V29.263L60.7219 29.2558L60.1825 29.2703ZM60.6031 28.8476L60.5884 29.387L60.5957 29.3872H60.6031V28.8476ZM68.0022 28.8476L68.1839 28.3395L68.0958 28.3079H68.0022V28.8476ZM68.4483 29.252H68.9879V29.235L68.9868 29.218L68.4483 29.252ZM68.4483 30.6803L68.9864 30.7204L68.9879 30.7004V30.6803H68.4483ZM67.8721 31.731L67.4338 31.4161L67.4291 31.4228L67.8721 31.731ZM64.0127 37.278L63.5698 36.9698L62.9617 37.8437L64.026 37.8174L64.0127 37.278ZM68.2611 38.1931L68.5288 37.7246L68.527 37.7236L68.2611 38.1931ZM68.6914 38.8443H69.231V38.7692L69.2105 38.6969L68.6914 38.8443ZM68.1407 40.958L68.3913 40.4801L68.3907 40.4798L68.1407 40.958ZM60.2287 40.9702L59.975 40.4939L59.9705 40.4964L60.2287 40.9702ZM59.9722 37.7423L59.5296 37.4334L59.5223 37.4443L59.9722 37.7423ZM64.4698 31.2973L64.9123 31.6061L65.5044 30.7576H64.4698V31.2973ZM60.5666 31.2973V30.7576H60.5546L60.5426 30.7582L60.5666 31.2973ZM60.7221 30.9246V29.2703H59.6429V30.9246H60.7221ZM60.7219 29.2558C60.7224 29.2727 60.7194 29.2896 60.7131 29.3056L59.7098 28.9079C59.6623 29.0278 59.6396 29.1561 59.6431 29.2848L60.7219 29.2558ZM60.7131 29.3056C60.7067 29.3216 60.6972 29.3363 60.6849 29.3486L59.9198 28.5874C59.8288 28.6789 59.7573 28.7879 59.7098 28.9079L60.7131 29.3056ZM60.6849 29.3486C60.6726 29.361 60.6577 29.3709 60.641 29.3776L60.2397 28.3757C60.1196 28.4238 60.0108 28.4959 59.9198 28.5874L60.6849 29.3486ZM60.641 29.3776C60.6243 29.3843 60.6064 29.3875 60.5884 29.387L60.6178 28.3081C60.4885 28.3046 60.3599 28.3276 60.2397 28.3757L60.641 29.3776ZM60.6031 29.3872H68.0022V28.3079H60.6031V29.3872ZM68.0022 28.8476C67.8204 29.3556 67.8202 29.3556 67.8201 29.3556C67.8201 29.3555 67.82 29.3555 67.8199 29.3555C67.8197 29.3554 67.8196 29.3554 67.8194 29.3553C67.8192 29.3552 67.8189 29.3551 67.8187 29.355C67.8182 29.3549 67.8178 29.3547 67.8175 29.3546C67.8169 29.3544 67.8167 29.3543 67.8168 29.3543C67.8169 29.3544 67.8184 29.355 67.821 29.356C67.8262 29.3581 67.8355 29.3619 67.8474 29.3673C67.8725 29.3786 67.9025 29.3939 67.9293 29.411C67.959 29.4298 67.9667 29.4395 67.9622 29.4343C67.9576 29.429 67.9155 29.3782 67.9097 29.286L68.9868 29.218C68.9731 29.0006 68.8713 28.8366 68.7816 28.7319C68.692 28.6274 68.5892 28.5517 68.5092 28.5007C68.4265 28.448 68.348 28.4091 68.2919 28.3838C68.2632 28.3708 68.2387 28.3607 68.2204 28.3533C68.2111 28.3497 68.2034 28.3467 68.1972 28.3444C68.1942 28.3432 68.1915 28.3422 68.1893 28.3414C68.1882 28.341 68.1872 28.3406 68.1863 28.3403C68.1858 28.3402 68.1854 28.34 68.185 28.3399C68.1848 28.3398 68.1846 28.3397 68.1845 28.3397C68.1844 28.3396 68.1842 28.3396 68.1842 28.3396C68.1841 28.3395 68.1839 28.3395 68.0022 28.8476ZM67.9086 29.252V30.6803H68.9879V29.252H67.9086ZM67.9101 30.6401C67.9104 30.6368 67.9099 30.6502 67.8962 30.6864C67.8824 30.7229 67.8585 30.7736 67.8188 30.8432C67.7373 30.9858 67.6133 31.1665 67.4339 31.4161L68.3103 32.0459C68.4883 31.7983 68.6432 31.5758 68.7559 31.3784C68.8654 31.1868 68.9682 30.9638 68.9864 30.7204L67.9101 30.6401ZM67.4291 31.4228L63.5698 36.9698L64.4557 37.5862L68.315 32.0392L67.4291 31.4228ZM64.026 37.8174C65.405 37.7834 66.81 37.9913 67.9951 38.6626L68.527 37.7236C67.1108 36.9214 65.4891 36.7017 63.9994 36.7385L64.026 37.8174ZM67.9933 38.6616C67.9876 38.6584 68.0009 38.6649 68.0274 38.6986C68.0527 38.7309 68.0788 38.7737 68.1034 38.8229C68.1275 38.871 68.1459 38.9169 68.1582 38.9506C68.1642 38.9671 68.1684 38.9798 68.1708 38.9873C68.172 38.991 68.1727 38.9934 68.173 38.9942C68.1731 38.9946 68.1731 38.9946 68.173 38.9942C68.1729 38.994 68.1728 38.9937 68.1727 38.9933C68.1726 38.9931 68.1726 38.9928 68.1725 38.9926C68.1725 38.9924 68.1724 38.9923 68.1724 38.9922C68.1724 38.9921 68.1723 38.992 68.1723 38.9919C68.1723 38.9918 68.1723 38.9917 68.6914 38.8443C69.2105 38.6969 69.2104 38.6968 69.2104 38.6967C69.2104 38.6967 69.2104 38.6965 69.2103 38.6964C69.2103 38.6963 69.2102 38.6961 69.2102 38.6959C69.2101 38.6955 69.21 38.6951 69.2098 38.6947C69.2096 38.6938 69.2093 38.6928 69.209 38.6917C69.2083 38.6894 69.2075 38.6867 69.2065 38.6835C69.2046 38.6771 69.2021 38.6689 69.199 38.6591C69.1927 38.6395 69.1839 38.6131 69.1724 38.5816C69.1498 38.5194 69.1156 38.4339 69.0687 38.3401C68.9858 38.1744 68.8187 37.8902 68.5288 37.7246L67.9933 38.6616ZM68.1517 38.8443V40.5768H69.231V38.8443H68.1517ZM68.1517 40.5768C68.1517 40.5415 68.1606 40.5224 68.1631 40.5175C68.1659 40.5118 68.1705 40.5046 68.1814 40.4958C68.1928 40.4865 68.2204 40.4683 68.2657 40.4615C68.3163 40.454 68.3622 40.4648 68.3913 40.4801L67.8902 41.436C68.2582 41.6289 68.6262 41.525 68.8622 41.3333C69.0764 41.1591 69.231 40.879 69.231 40.5768H68.1517ZM68.3907 40.4798C65.9344 39.196 62.6896 39.0483 59.975 40.4939L60.4823 41.4465C62.8609 40.1798 65.728 40.3059 67.8908 41.4363L68.3907 40.4798ZM59.9705 40.4964C60.0129 40.4733 60.0694 40.4628 60.1243 40.472C60.1725 40.48 60.1998 40.4995 60.209 40.507C60.2182 40.5147 60.2219 40.5204 60.2243 40.5253C60.2264 40.5293 60.2359 40.5492 60.2359 40.5866H59.1567C59.1567 40.8913 59.3147 41.1679 59.5209 41.3385C59.7433 41.5225 60.1134 41.6476 60.4869 41.4441L59.9705 40.4964ZM60.2359 40.5866V38.892H59.1567V40.5866H60.2359ZM60.2359 38.892C60.2359 38.6147 60.2452 38.3074 60.4221 38.0402L59.5223 37.4443C59.1474 38.0103 59.1567 38.6243 59.1567 38.892H60.2359ZM60.4148 38.0511L64.9123 31.6061L64.0272 30.9885L59.5297 37.4334L60.4148 38.0511ZM64.4698 30.7576H60.5666V31.8369H64.4698V30.7576ZM60.5426 30.7582C60.5604 30.7574 60.5781 30.7603 60.5945 30.7665L60.2099 31.7749C60.3311 31.8212 60.4607 31.8422 60.5907 31.8364L60.5426 30.7582ZM60.5945 30.7665C60.6109 30.7728 60.6257 30.7823 60.6381 30.7944L59.8851 31.5675C59.9781 31.6581 60.0886 31.7287 60.2099 31.7749L60.5945 30.7665ZM60.6381 30.7944C60.6504 30.8064 60.6601 30.8207 60.6665 30.8362L59.6693 31.2489C59.7188 31.3686 59.7922 31.477 59.8851 31.5675L60.6381 30.7944ZM60.6665 30.8362C60.673 30.8519 60.6761 30.8685 60.6759 30.8851L59.5967 30.8713C59.5951 31.0006 59.6197 31.1291 59.6693 31.2489L60.6665 30.8362Z" fill="#2A364D" mask="url(#path-4-inside-1_264_3820)"/>
<mask id="path-6-inside-2_264_3820" fill="white">
<path d="M32.9545 41.31H30.696C30.5921 41.3065 30.493 41.2656 30.4166 41.1947C30.3403 41.1238 30.2919 41.0277 30.2803 40.9239V29.2667C30.2822 29.2095 30.2953 29.1533 30.3189 29.1012C30.3425 29.0491 30.3761 29.0023 30.4178 28.9633C30.4595 28.9244 30.5084 28.8941 30.5618 28.8742C30.6152 28.8544 30.6719 28.8453 30.7288 28.8476H32.8974C33.0029 28.8495 33.1042 28.8902 33.1819 28.962C33.2596 29.0338 33.3085 29.1318 33.3192 29.2374V30.8025H33.3605C33.9111 29.318 34.9407 28.6265 36.341 28.6265C37.7571 28.6265 38.6421 29.318 39.279 30.8025C39.8272 29.318 41.0719 28.6265 42.4054 28.6265C43.3547 28.6265 44.3928 29.0223 45.0261 29.9106C45.7421 30.899 45.5962 32.3346 45.5962 33.5931V41.007C45.5956 41.0636 45.5838 41.1196 45.5616 41.1717C45.5393 41.2238 45.5071 41.271 45.4666 41.3105C45.4262 41.35 45.3784 41.3811 45.3259 41.402C45.2735 41.4229 45.2174 41.4331 45.161 41.4321H42.8418C42.734 41.4257 42.6327 41.3785 42.5581 41.3001C42.4835 41.2217 42.4411 41.1179 42.4394 41.0094V34.8149C42.4394 34.3262 42.4832 33.0909 42.3762 32.623C42.2097 31.8386 41.7113 31.6174 41.0634 31.6174C40.7715 31.627 40.4888 31.723 40.2509 31.8934C40.0131 32.0638 39.8306 32.301 39.7263 32.5753C39.4966 33.1642 39.5185 34.1515 39.5185 34.8149V41.0094C39.5178 41.0656 39.5062 41.121 39.4842 41.1727C39.4622 41.2243 39.4304 41.2711 39.3904 41.3103C39.3505 41.3496 39.3032 41.3806 39.2513 41.4015C39.1995 41.4224 39.144 41.4328 39.0882 41.4321H36.7592C36.6514 41.4259 36.5501 41.3788 36.4756 41.3004C36.4011 41.2219 36.3591 41.1179 36.358 41.0094V34.8149C36.358 33.5112 36.5683 31.5918 34.9845 31.5918C33.3811 31.5918 33.4444 33.4624 33.4444 34.8149V40.9336C33.4434 40.9902 33.4314 41.0461 33.4089 41.098C33.3864 41.1499 33.354 41.1968 33.3135 41.2361C33.2729 41.2753 33.2251 41.3062 33.1726 41.3268C33.1202 41.3475 33.0643 41.3575 33.008 41.3564"/>
</mask>
<path d="M32.9545 41.31H30.696C30.5921 41.3065 30.493 41.2656 30.4166 41.1947C30.3403 41.1238 30.2919 41.0277 30.2803 40.9239V29.2667C30.2822 29.2095 30.2953 29.1533 30.3189 29.1012C30.3425 29.0491 30.3761 29.0023 30.4178 28.9633C30.4595 28.9244 30.5084 28.8941 30.5618 28.8742C30.6152 28.8544 30.6719 28.8453 30.7288 28.8476H32.8974C33.0029 28.8495 33.1042 28.8902 33.1819 28.962C33.2596 29.0338 33.3085 29.1318 33.3192 29.2374V30.8025H33.3605C33.9111 29.318 34.9407 28.6265 36.341 28.6265C37.7571 28.6265 38.6421 29.318 39.279 30.8025C39.8272 29.318 41.0719 28.6265 42.4054 28.6265C43.3547 28.6265 44.3928 29.0223 45.0261 29.9106C45.7421 30.899 45.5962 32.3346 45.5962 33.5931V41.007C45.5956 41.0636 45.5838 41.1196 45.5616 41.1717C45.5393 41.2238 45.5071 41.271 45.4666 41.3105C45.4262 41.35 45.3784 41.3811 45.3259 41.402C45.2735 41.4229 45.2174 41.4331 45.161 41.4321H42.8418C42.734 41.4257 42.6327 41.3785 42.5581 41.3001C42.4835 41.2217 42.4411 41.1179 42.4394 41.0094V34.8149C42.4394 34.3262 42.4832 33.0909 42.3762 32.623C42.2097 31.8386 41.7113 31.6174 41.0634 31.6174C40.7715 31.627 40.4888 31.723 40.2509 31.8934C40.0131 32.0638 39.8306 32.301 39.7263 32.5753C39.4966 33.1642 39.5185 34.1515 39.5185 34.8149V41.0094C39.5178 41.0656 39.5062 41.121 39.4842 41.1727C39.4622 41.2243 39.4304 41.2711 39.3904 41.3103C39.3505 41.3496 39.3032 41.3806 39.2513 41.4015C39.1995 41.4224 39.144 41.4328 39.0882 41.4321H36.7592C36.6514 41.4259 36.5501 41.3788 36.4756 41.3004C36.4011 41.2219 36.3591 41.1179 36.358 41.0094V34.8149C36.358 33.5112 36.5683 31.5918 34.9845 31.5918C33.3811 31.5918 33.4444 33.4624 33.4444 34.8149V40.9336C33.4434 40.9902 33.4314 41.0461 33.4089 41.098C33.3864 41.1499 33.354 41.1968 33.3135 41.2361C33.2729 41.2753 33.2251 41.3062 33.1726 41.3268C33.1202 41.3475 33.0643 41.3575 33.008 41.3564" fill="#2A364D"/>
<path d="M30.696 41.31L30.6781 41.8493L30.687 41.8496H30.696V41.31ZM30.2803 40.9239H29.7406V40.954L29.744 40.9839L30.2803 40.9239ZM30.2803 29.2667L29.7409 29.249L29.7406 29.2578V29.2667H30.2803ZM30.7288 28.8476L30.7071 29.3868L30.718 29.3872H30.7288V28.8476ZM32.8974 28.8476L32.9068 28.308H32.8974V28.8476ZM33.3192 29.2374H33.8588V29.2101L33.856 29.183L33.3192 29.2374ZM33.3192 30.8025H32.7795V31.3421H33.3192V30.8025ZM33.3605 30.8025V31.3421H33.7359L33.8664 30.9902L33.3605 30.8025ZM39.279 30.8025L38.7831 31.0153L39.3165 32.2585L39.7852 30.9894L39.279 30.8025ZM45.0261 29.9106L44.5867 30.2239L44.5891 30.2271L45.0261 29.9106ZM45.5962 41.007L46.1358 41.013V41.007H45.5962ZM45.161 41.4321L45.1703 40.8925H45.161V41.4321ZM42.8418 41.4321L42.8095 41.9708L42.8256 41.9718H42.8418V41.4321ZM42.4394 41.0094H41.8997L41.8999 41.0176L42.4394 41.0094ZM42.3762 32.623L41.8483 32.735L41.8502 32.7432L42.3762 32.623ZM41.0634 31.6174V31.0778H41.0546L41.0458 31.0781L41.0634 31.6174ZM39.7263 32.5753L40.2291 32.7715L40.2307 32.767L39.7263 32.5753ZM39.5185 41.0094L40.0581 41.0155V41.0094H39.5185ZM39.0882 41.4321L39.0944 40.8925H39.0882V41.4321ZM36.7592 41.4321L36.7282 41.9709L36.7437 41.9718H36.7592V41.4321ZM36.358 41.0094H35.8184L35.8184 41.0147L36.358 41.0094ZM33.4444 40.9336L33.984 40.9427V40.9336H33.4444ZM32.9545 40.7703H30.696V41.8496H32.9545V40.7703ZM30.7139 40.7706C30.7404 40.7715 30.7652 40.782 30.7839 40.7993L30.0494 41.5901C30.2208 41.7492 30.4438 41.8415 30.6781 41.8493L30.7139 40.7706ZM30.7839 40.7993C30.8025 40.8166 30.8138 40.8395 30.8166 40.8638L29.744 40.9839C29.77 41.2158 29.8782 41.4311 30.0494 41.5901L30.7839 40.7993ZM30.8199 40.9239V29.2667H29.7406V40.9239H30.8199ZM30.8196 29.2844C30.8192 29.2979 30.8161 29.3114 30.8104 29.324L29.8273 28.8784C29.7744 28.9952 29.7451 29.1211 29.7409 29.249L30.8196 29.2844ZM30.8104 29.324C30.8046 29.3366 30.7964 29.348 30.7862 29.3576L30.0494 28.569C29.9557 28.6565 29.8803 28.7617 29.8273 28.8784L30.8104 29.324ZM30.7862 29.3576C30.7759 29.3672 30.7636 29.3749 30.7499 29.38L30.3736 28.3685C30.2532 28.4133 30.143 28.4815 30.0494 28.569L30.7862 29.3576ZM30.7499 29.38C30.7363 29.3851 30.7217 29.3874 30.7071 29.3868L30.7505 28.3084C30.6222 28.3033 30.4941 28.3237 30.3736 28.3685L30.7499 29.38ZM30.7288 29.3872H32.8974V28.308H30.7288V29.3872ZM32.8879 29.3872C32.8607 29.3867 32.835 29.3762 32.8157 29.3583L33.5481 28.5657C33.3733 28.4041 33.1452 28.3122 32.9068 28.3081L32.8879 29.3872ZM32.8157 29.3583C32.7964 29.3405 32.7848 29.3167 32.7823 29.2917L33.856 29.183C33.8321 28.9468 33.7228 28.7271 33.5481 28.5657L32.8157 29.3583ZM32.7795 29.2374V30.8025H33.8588V29.2374H32.7795ZM33.3192 31.3421H33.3605V30.2629H33.3192V31.3421ZM33.8664 30.9902C34.1129 30.3257 34.4506 29.8795 34.846 29.5967C35.2399 29.3151 35.7323 29.1661 36.341 29.1661V28.0868C35.5494 28.0868 34.8269 28.2836 34.2182 28.7189C33.6111 29.153 33.1587 29.7948 32.8545 30.6148L33.8664 30.9902ZM36.341 29.1661C36.9553 29.1661 37.4108 29.3137 37.7784 29.5895C38.1548 29.8718 38.4865 30.3241 38.7831 31.0153L39.7749 30.5897C39.4345 29.7964 39.0053 29.1607 38.426 28.7261C37.8379 28.285 37.1429 28.0868 36.341 28.0868V29.1661ZM39.7852 30.9894C40.2469 29.7394 41.2729 29.1661 42.4054 29.1661V28.0868C40.871 28.0868 39.4076 28.8966 38.7728 30.6156L39.7852 30.9894ZM42.4054 29.1661C43.2185 29.1661 44.075 29.5061 44.5867 30.2238L45.4655 29.5973C44.7106 28.5385 43.4909 28.0868 42.4054 28.0868V29.1661ZM44.5891 30.2271C44.8637 30.6062 44.9924 31.0983 45.0419 31.6952C45.0925 32.3058 45.0566 32.9226 45.0566 33.5931H46.1358C46.1358 33.0051 46.1729 32.2749 46.1174 31.606C46.0609 30.9233 45.9045 30.2034 45.4632 29.594L44.5891 30.2271ZM45.0566 33.5931V41.007H46.1358V33.5931H45.0566ZM45.0566 41.0009C45.0568 40.9868 45.0597 40.9728 45.0653 40.9598L46.0578 41.3836C46.1079 41.2664 46.1344 41.1405 46.1358 41.013L45.0566 41.0009ZM45.0653 40.9598C45.0708 40.9469 45.0789 40.9349 45.0895 40.9246L45.8437 41.6965C45.9352 41.6071 46.0078 41.5007 46.0578 41.3836L45.0653 40.9598ZM45.0895 40.9246C45.1 40.9143 45.1125 40.9061 45.1264 40.9006L45.5255 41.9034C45.6442 41.8561 45.7523 41.7858 45.8437 41.6965L45.0895 40.9246ZM45.1264 40.9006C45.1403 40.8951 45.1552 40.8923 45.1703 40.8926L45.1518 41.9717C45.2797 41.9739 45.4067 41.9506 45.5255 41.9034L45.1264 40.9006ZM45.161 40.8925H42.8418V41.9718H45.161V40.8925ZM42.8741 40.8935C42.9031 40.8952 42.9297 40.9079 42.949 40.9281L42.1672 41.6721C42.3357 41.8491 42.565 41.9561 42.8095 41.9708L42.8741 40.8935ZM42.949 40.9281C42.9681 40.9482 42.9786 40.9744 42.979 41.0012L41.8999 41.0176C41.9036 41.2614 41.9988 41.4952 42.1672 41.6721L42.949 40.9281ZM42.9791 41.0094V34.8149H41.8998V41.0094H42.9791ZM42.9791 34.8149C42.9791 34.6112 42.9899 34.1182 42.9876 33.7081C42.9852 33.2927 42.9714 32.8051 42.9023 32.5027L41.8502 32.7432C41.888 32.9088 41.9058 33.2728 41.9083 33.7142C41.9109 34.1609 41.8998 34.5299 41.8998 34.8149H42.9791ZM42.9041 32.5109C42.7991 32.0163 42.5709 31.6284 42.2029 31.3792C41.8501 31.1403 41.4394 31.0778 41.0634 31.0778V32.1571C41.3353 32.1571 41.4978 32.2052 41.5977 32.2728C41.6826 32.3303 41.7868 32.4452 41.8484 32.735L42.9041 32.5109ZM41.0458 31.0781C40.647 31.0911 40.2611 31.2223 39.9367 31.4547L40.5652 32.3321C40.7165 32.2237 40.896 32.1628 41.0811 32.1568L41.0458 31.0781ZM39.9367 31.4547C39.6122 31.6871 39.3637 32.0104 39.2219 32.3836L40.2307 32.767C40.2974 32.5917 40.4139 32.4405 40.5652 32.3321L39.9367 31.4547ZM39.2236 32.3792C39.0764 32.7565 39.0214 33.2214 38.9975 33.6361C38.9731 34.0594 38.9788 34.4933 38.9788 34.8149H40.0581C40.0581 34.473 40.0529 34.0817 40.075 33.6982C40.0976 33.3062 40.1465 32.983 40.229 32.7714L39.2236 32.3792ZM38.9788 34.8149V41.0094H40.0581V34.8149H38.9788ZM38.9789 41.0033C38.979 40.9889 38.982 40.9747 38.9877 40.9614L39.9808 41.3839C40.0304 41.2674 40.0566 41.1422 40.0581 41.0155L38.9789 41.0033ZM38.9877 40.9614C38.9933 40.9482 39.0016 40.9359 39.0123 40.9254L39.7686 41.6953C39.8592 41.6063 39.9312 41.5005 39.9808 41.3839L38.9877 40.9614ZM39.0123 40.9254C39.0228 40.915 39.0355 40.9067 39.0497 40.9009L39.453 41.902C39.5709 41.8545 39.6781 41.7842 39.7686 41.6953L39.0123 40.9254ZM39.0497 40.9009C39.0639 40.8952 39.0791 40.8924 39.0944 40.8925L39.0819 41.9717C39.209 41.9732 39.3351 41.9495 39.453 41.902L39.0497 40.9009ZM39.0882 40.8925H36.7592V41.9718H39.0882V40.8925ZM36.7901 40.8934C36.8198 40.8951 36.8473 40.9081 36.867 40.9289L36.0841 41.6718C36.2529 41.8496 36.483 41.9568 36.7282 41.9709L36.7901 40.8934ZM36.867 40.9289C36.8867 40.9497 36.8974 40.9766 36.8976 41.0041L35.8184 41.0147C35.8208 41.2591 35.9155 41.4941 36.0841 41.6718L36.867 40.9289ZM36.8977 41.0094V34.8149H35.8184V41.0094H36.8977ZM36.8977 34.8149C36.8977 34.2241 36.9545 33.316 36.7915 32.5954C36.7069 32.2213 36.5513 31.8289 36.2463 31.5279C35.927 31.2129 35.4993 31.0521 34.9845 31.0521V32.1314C35.2615 32.1314 35.4015 32.2105 35.4883 32.2962C35.5893 32.3959 35.6781 32.5648 35.7389 32.8335C35.8667 33.3986 35.8184 34.102 35.8184 34.8149H36.8977ZM34.9845 31.0521C34.4701 31.0521 34.0395 31.2059 33.7075 31.5031C33.3865 31.7905 33.2036 32.1708 33.0949 32.5459C32.8838 33.274 32.9047 34.1724 32.9047 34.8149H33.984C33.984 34.1048 33.9733 33.3917 34.1314 32.8464C34.2073 32.5848 34.3093 32.4129 34.4273 32.3073C34.5344 32.2114 34.6971 32.1314 34.9845 32.1314V31.0521ZM32.9047 34.8149V40.9336H33.984V34.8149H32.9047ZM32.9048 40.9246C32.905 40.9105 32.908 40.8966 32.9137 40.8836L33.9041 41.3123C33.9547 41.1955 33.9818 41.0699 33.9839 40.9427L32.9048 40.9246ZM32.9137 40.8836C32.9193 40.8706 32.9275 40.8586 32.938 40.8485L33.6889 41.6237C33.7805 41.535 33.8536 41.4291 33.9041 41.3123L32.9137 40.8836ZM32.938 40.8485C32.9484 40.8384 32.9609 40.8302 32.9749 40.8248L33.3704 41.8289C33.4892 41.7821 33.5974 41.7123 33.6889 41.6237L32.938 40.8485ZM32.9749 40.8248C32.989 40.8192 33.0039 40.8166 33.0188 40.8169L32.9971 41.8959C33.1246 41.8985 33.2515 41.8758 33.3704 41.8289L32.9749 40.8248Z" fill="#2A364D" mask="url(#path-6-inside-2_264_3820)"/>
<mask id="path-8-inside-3_264_3820" fill="white">
<path d="M74.8454 28.6143C78.2076 28.6143 80.0272 31.516 80.0272 35.212C80.0272 38.776 78.0167 41.6044 74.8454 41.6044C71.5439 41.6044 69.7461 38.7026 69.7461 35.0861C69.7461 31.4476 71.5694 28.6191 74.8454 28.6191M74.8648 31.0053C73.1946 31.0053 73.0901 33.2925 73.0901 34.7184C73.0901 36.1442 73.067 39.1962 74.8454 39.1962C76.6018 39.1962 76.6845 36.7355 76.6845 35.2376C76.6845 34.2504 76.6431 33.0714 76.3465 32.1367C76.0913 31.323 75.5844 31.0053 74.8648 31.0053Z"/>
</mask>
<path d="M74.8454 28.6143C78.2076 28.6143 80.0272 31.516 80.0272 35.212C80.0272 38.776 78.0167 41.6044 74.8454 41.6044C71.5439 41.6044 69.7461 38.7026 69.7461 35.0861C69.7461 31.4476 71.5694 28.6191 74.8454 28.6191M74.8648 31.0053C73.1946 31.0053 73.0901 33.2925 73.0901 34.7184C73.0901 36.1442 73.067 39.1962 74.8454 39.1962C76.6018 39.1962 76.6845 36.7355 76.6845 35.2376C76.6845 34.2504 76.6431 33.0714 76.3465 32.1367C76.0913 31.323 75.5844 31.0053 74.8648 31.0053Z" fill="#2A364D"/>
<path d="M76.3465 32.1367L75.8317 32.2982L75.8322 32.2999L76.3465 32.1367ZM74.8454 29.1539C76.3503 29.1539 77.4865 29.7941 78.2627 30.8473C79.0516 31.9175 79.4876 33.4446 79.4876 35.212H80.5669C80.5669 33.2834 80.0931 31.5116 79.1315 30.207C78.1574 28.8853 76.7026 28.0746 74.8454 28.0746V29.1539ZM79.4876 35.212C79.4876 36.8976 79.0117 38.3722 78.2001 39.4128C77.3963 40.4433 76.2537 41.0648 74.8454 41.0648V42.144C76.6084 42.144 78.0568 41.3513 79.0511 40.0766C80.0375 38.8119 80.5669 37.0904 80.5669 35.212H79.4876ZM74.8454 41.0648C73.3742 41.0648 72.2581 40.4276 71.4931 39.3827C70.7159 38.3212 70.2857 36.8128 70.2857 35.0861H69.2065C69.2065 36.9759 69.6752 38.7267 70.6223 40.0202C71.5815 41.3303 73.015 42.144 74.8454 42.144V41.0648ZM70.2857 35.0861C70.2857 33.3495 70.7217 31.8556 71.5001 30.8105C72.2665 29.7813 73.3828 29.1587 74.8454 29.1587V28.0795C73.032 28.0795 71.5986 28.8712 70.6345 30.1659C69.6821 31.4446 69.2065 33.1842 69.2065 35.0861H70.2857ZM74.8648 30.4657C74.3093 30.4657 73.8544 30.6616 73.5077 30.9971C73.1746 31.3193 72.9686 31.7429 72.8362 32.1659C72.5737 33.0038 72.5504 34.0085 72.5504 34.7184H73.6297C73.6297 34.0023 73.6587 33.1505 73.8661 32.4884C73.9685 32.1614 74.1018 31.924 74.2581 31.7728C74.4007 31.6349 74.5852 31.5449 74.8648 31.5449V30.4657ZM72.5504 34.7184C72.5504 35.4166 72.5421 36.6008 72.7749 37.613C72.8914 38.119 73.0791 38.6356 73.4003 39.0352C73.7385 39.4559 74.2189 39.7359 74.8454 39.7359V38.6566C74.5827 38.6566 74.399 38.555 74.2414 38.359C74.0668 38.1417 73.9268 37.8062 73.8267 37.371C73.6265 36.5007 73.6297 35.446 73.6297 34.7184H72.5504ZM74.8454 39.7359C75.4265 39.7359 75.8983 39.526 76.2548 39.1704C76.5968 38.8293 76.8065 38.3812 76.9405 37.9334C77.2064 37.0452 77.2241 35.9804 77.2241 35.2376H76.1448C76.1448 35.9928 76.1212 36.9072 75.9066 37.6239C75.8005 37.9786 75.6601 38.2392 75.4926 38.4063C75.3397 38.5589 75.1425 38.6566 74.8454 38.6566V39.7359ZM77.2241 35.2376C77.2241 34.2525 77.1856 32.9966 76.8609 31.9735L75.8322 32.2999C76.1007 33.1461 76.1448 34.2483 76.1448 35.2376H77.2241ZM76.8614 31.9752C76.7092 31.49 76.4635 31.0963 76.0976 30.8297C75.7319 30.5633 75.3038 30.4657 74.8648 30.4657V31.5449C75.1454 31.5449 75.3305 31.6062 75.462 31.702C75.5933 31.7976 75.7286 31.9696 75.8317 32.2982L76.8614 31.9752Z" fill="#2A364D" mask="url(#path-8-inside-3_264_3820)"/>
<mask id="path-10-inside-4_264_3820" fill="white">
<path d="M84.3734 41.31H82.121C82.0108 41.3061 81.9061 41.2605 81.8279 41.1824C81.7497 41.1042 81.7037 40.9993 81.6992 40.8885V29.2277C81.7145 29.1193 81.7692 29.0205 81.8527 28.9503C81.9362 28.8801 82.0426 28.8436 82.1514 28.8477H84.3236C84.4189 28.8499 84.5109 28.8828 84.5862 28.9415C84.6615 29.0002 84.716 29.0817 84.7417 29.1739V30.9247H84.7831C85.4127 29.3254 86.2952 28.563 87.8487 28.563C88.8576 28.563 89.841 28.9295 90.4743 29.9412C91.0626 30.8771 91.0626 32.4495 91.0626 33.5809V40.9435C91.0462 41.0468 90.9933 41.1408 90.9136 41.2081C90.8339 41.2754 90.7328 41.3116 90.6287 41.31H88.2972C88.1994 41.3042 88.1066 41.2645 88.0346 41.1977C87.9625 41.1309 87.9158 41.041 87.9022 40.9435V34.5901C87.9022 33.3121 88.0468 31.4416 86.5067 31.4416C85.9646 31.4416 85.465 31.8081 85.2182 32.3774C84.9046 33.091 84.8633 33.8021 84.8633 34.5901V40.9312C84.8592 41.0459 84.8106 41.1543 84.7279 41.2333C84.6452 41.3123 84.5349 41.3557 84.4208 41.354"/>
</mask>
<path d="M84.3734 41.31H82.121C82.0108 41.3061 81.9061 41.2605 81.8279 41.1824C81.7497 41.1042 81.7037 40.9993 81.6992 40.8885V29.2277C81.7145 29.1193 81.7692 29.0205 81.8527 28.9503C81.9362 28.8801 82.0426 28.8436 82.1514 28.8477H84.3236C84.4189 28.8499 84.5109 28.8828 84.5862 28.9415C84.6615 29.0002 84.716 29.0817 84.7417 29.1739V30.9247H84.7831C85.4127 29.3254 86.2952 28.563 87.8487 28.563C88.8576 28.563 89.841 28.9295 90.4743 29.9412C91.0626 30.8771 91.0626 32.4495 91.0626 33.5809V40.9435C91.0462 41.0468 90.9933 41.1408 90.9136 41.2081C90.8339 41.2754 90.7328 41.3116 90.6287 41.31H88.2972C88.1994 41.3042 88.1066 41.2645 88.0346 41.1977C87.9625 41.1309 87.9158 41.041 87.9022 40.9435V34.5901C87.9022 33.3121 88.0468 31.4416 86.5067 31.4416C85.9646 31.4416 85.465 31.8081 85.2182 32.3774C84.9046 33.091 84.8633 33.8021 84.8633 34.5901V40.9312C84.8592 41.0459 84.8106 41.1543 84.7279 41.2333C84.6452 41.3123 84.5349 41.3557 84.4208 41.354" fill="#2A364D"/>
<path d="M82.121 41.31L82.1019 41.8493L82.1114 41.8496H82.121V41.31ZM81.6992 40.8885H81.1596V40.8995L81.16 40.9105L81.6992 40.8885ZM81.6992 29.2277L81.1649 29.1524L81.1596 29.1899V29.2277H81.6992ZM82.1514 28.8477L82.1311 29.3869L82.1412 29.3873H82.1514V28.8477ZM84.3236 28.8477L84.336 28.308H84.3236V28.8477ZM84.7417 29.1739H85.2814V29.1L85.2615 29.0288L84.7417 29.1739ZM84.7417 30.9247H84.2021V31.4644H84.7417V30.9247ZM84.7831 30.9247V31.4644H85.1506L85.2852 31.1224L84.7831 30.9247ZM90.4743 29.9412L90.0169 30.2275L90.0174 30.2284L90.4743 29.9412ZM91.0626 40.9435L91.5956 41.0279L91.6022 40.9859V40.9435H91.0626ZM90.6287 41.31L90.6369 40.7704H90.6287V41.31ZM88.2972 41.31L88.2652 41.8487L88.2812 41.8496H88.2972V41.31ZM87.9022 40.9435H87.3626V40.9809L87.3677 41.0179L87.9022 40.9435ZM85.2182 32.3774L85.7123 32.5946L85.7134 32.592L85.2182 32.3774ZM84.8633 40.9312L85.4026 40.9506L85.4029 40.9409V40.9312H84.8633ZM84.3734 40.7704H82.121V41.8496H84.3734V40.7704ZM82.1401 40.7707C82.1667 40.7717 82.1914 40.7827 82.2094 40.8007L81.4465 41.564C81.6209 41.7383 81.8549 41.8405 82.1019 41.8493L82.1401 40.7707ZM82.2094 40.8007C82.2273 40.8185 82.2374 40.8421 82.2384 40.8665L81.16 40.9105C81.1701 41.1564 81.2722 41.3898 81.4465 41.564L82.2094 40.8007ZM82.2388 40.8885V29.2277H81.1596V40.8885H82.2388ZM82.2336 29.3029C82.2303 29.326 82.2186 29.3477 82.1998 29.3634L81.5055 28.5372C81.3197 28.6933 81.1986 28.9126 81.1649 29.1524L82.2336 29.3029ZM82.1998 29.3634C82.181 29.3793 82.1565 29.3879 82.1311 29.3869L82.1717 28.3084C81.9288 28.2993 81.6914 28.381 81.5055 28.5372L82.1998 29.3634ZM82.1514 29.3873H84.3236V28.308H82.1514V29.3873ZM84.3112 29.3872C84.2902 29.3867 84.2702 29.3794 84.2543 29.367L84.9181 28.516C84.7516 28.3861 84.5476 28.3131 84.336 28.3082L84.3112 29.3872ZM84.2543 29.367C84.2383 29.3545 84.2272 29.3376 84.222 29.319L85.2615 29.0288C85.2048 28.8257 85.0846 28.6459 84.9181 28.516L84.2543 29.367ZM84.2021 29.1739V30.9247H85.2814V29.1739H84.2021ZM84.7417 31.4644H84.7831V30.3851H84.7417V31.4644ZM85.2852 31.1224C85.5817 30.3694 85.9143 29.8759 86.3043 29.5673C86.6832 29.2675 87.1664 29.1026 87.8487 29.1026V28.0234C86.9775 28.0234 86.2427 28.2397 85.6346 28.7209C85.0376 29.1934 84.6141 29.8808 84.281 30.7271L85.2852 31.1224ZM87.8487 29.1026C88.7195 29.1026 89.5052 29.4101 90.0169 30.2275L90.9317 29.6548C90.1768 28.4489 88.9957 28.0234 87.8487 28.0234V29.1026ZM90.0174 30.2284C90.2466 30.5929 90.3823 31.123 90.4528 31.7483C90.5224 32.3648 90.523 33.0107 90.523 33.5809H91.6022C91.6022 33.0198 91.6028 32.3137 91.5253 31.6272C91.4488 30.9494 91.2903 30.2253 90.9311 29.654L90.0174 30.2284ZM90.523 33.5809V40.9435H91.6022V33.5809H90.523ZM90.5296 40.8591C90.5335 40.8348 90.5459 40.8123 90.5654 40.7958L91.2618 41.6203C91.4407 41.4692 91.559 41.2588 91.5956 41.0279L90.5296 40.8591ZM90.5654 40.7958C90.585 40.7793 90.6104 40.77 90.6369 40.7705L90.6204 41.8496C90.8551 41.8532 91.0829 41.7715 91.2618 41.6203L90.5654 40.7958ZM90.6287 40.7704H88.2972V41.8496H90.6287V40.7704ZM88.3293 40.7713C88.3566 40.773 88.3822 40.7841 88.4016 40.8021L87.6675 41.5933C87.831 41.7449 88.0421 41.8354 88.2652 41.8487L88.3293 40.7713ZM88.4016 40.8021C88.421 40.8201 88.4331 40.8438 88.4366 40.869L87.3677 41.0179C87.3984 41.2383 87.5041 41.4416 87.6675 41.5933L88.4016 40.8021ZM88.4418 40.9435V34.5901H87.3626V40.9435H88.4418ZM88.4418 34.5901C88.4418 33.9994 88.4827 33.1167 88.3056 32.4061C88.2142 32.0391 88.0523 31.6571 87.7486 31.3649C87.4315 31.0598 87.0111 30.9019 86.5067 30.9019V31.9812C86.7724 31.9812 86.9115 32.0572 87.0004 32.1427C87.1027 32.2411 87.1935 32.4067 87.2584 32.6671C87.394 33.2113 87.3626 33.9028 87.3626 34.5901H88.4418ZM86.5067 30.9019C85.7093 30.9019 85.0381 31.4359 84.7231 32.1629L85.7134 32.592C85.8918 32.1802 86.2199 31.9812 86.5067 31.9812V30.9019ZM84.7242 32.1603C84.3628 32.9825 84.3237 33.7896 84.3237 34.5901H85.4029C85.4029 33.8145 85.4464 33.1994 85.7122 32.5946L84.7242 32.1603ZM84.3237 34.5901V40.9312H85.4029V34.5901H84.3237ZM84.324 40.9119C84.3249 40.8864 84.3358 40.8616 84.3551 40.8432L85.1006 41.6235C85.2854 41.447 85.3934 41.2054 85.4026 40.9506L84.324 40.9119ZM84.3551 40.8432C84.3744 40.8247 84.4008 40.814 84.4287 40.8144L84.4129 41.8936C84.669 41.8973 84.9159 41.8 85.1006 41.6235L84.3551 40.8432Z" fill="#2A364D" mask="url(#path-10-inside-4_264_3820)"/>
<mask id="path-12-inside-5_264_3820" fill="white">
<path d="M54.2273 35.8117V35.2802C52.5887 35.2802 50.859 35.6321 50.859 37.5735C50.859 38.551 51.3659 39.2229 52.235 39.2229C52.8731 39.2229 53.4432 38.8295 53.803 38.1881C54.2491 37.4 54.2273 36.6608 54.2273 35.7738M56.4979 41.2841C56.4253 41.3468 56.3354 41.3856 56.2403 41.3954C56.1451 41.4052 56.0492 41.3856 55.9655 41.3391C55.2179 40.7148 55.0854 40.4252 54.6734 39.8302C53.4384 41.0972 52.5644 41.476 50.9623 41.476C49.0684 41.476 47.5928 40.3006 47.5928 37.9486C47.5928 36.1159 48.5847 34.8611 49.9935 34.2502C51.209 33.709 52.923 33.6137 54.2273 33.4634V33.1714C54.2273 32.6338 54.2686 31.996 53.955 31.5317C53.679 31.1151 53.1539 30.9428 52.6908 30.9428C51.8326 30.9428 51.0668 31.3851 50.8796 32.3027C50.8419 32.5055 50.6937 32.7059 50.4907 32.7156L48.3027 32.4798C48.249 32.4724 48.1973 32.454 48.151 32.4258C48.1046 32.3975 48.0645 32.36 48.0331 32.3156C48.0016 32.2712 47.9796 32.2208 47.9682 32.1676C47.9569 32.1143 47.9566 32.0592 47.9672 32.0058C48.4704 29.3447 50.8614 28.5432 53.002 28.5432C54.096 28.5432 55.5291 28.8364 56.3946 29.6697C57.4886 30.6985 57.3853 32.0693 57.3853 33.5624V37.0897C57.3853 38.149 57.8229 38.6145 58.2361 39.1875C58.382 39.3903 58.4136 39.6359 58.2301 39.7886C57.7706 40.1735 56.9537 40.8883 56.504 41.2915L56.4979 41.2841Z"/>
</mask>
<path d="M54.2273 35.8117V35.2802C52.5887 35.2802 50.859 35.6321 50.859 37.5735C50.859 38.551 51.3659 39.2229 52.235 39.2229C52.8731 39.2229 53.4432 38.8295 53.803 38.1881C54.2491 37.4 54.2273 36.6608 54.2273 35.7738M56.4979 41.2841C56.4253 41.3468 56.3354 41.3856 56.2403 41.3954C56.1451 41.4052 56.0492 41.3856 55.9655 41.3391C55.2179 40.7148 55.0854 40.4252 54.6734 39.8302C53.4384 41.0972 52.5644 41.476 50.9623 41.476C49.0684 41.476 47.5928 40.3006 47.5928 37.9486C47.5928 36.1159 48.5847 34.8611 49.9935 34.2502C51.209 33.709 52.923 33.6137 54.2273 33.4634V33.1714C54.2273 32.6338 54.2686 31.996 53.955 31.5317C53.679 31.1151 53.1539 30.9428 52.6908 30.9428C51.8326 30.9428 51.0668 31.3851 50.8796 32.3027C50.8419 32.5055 50.6937 32.7059 50.4907 32.7156L48.3027 32.4798C48.249 32.4724 48.1973 32.454 48.151 32.4258C48.1046 32.3975 48.0645 32.36 48.0331 32.3156C48.0016 32.2712 47.9796 32.2208 47.9682 32.1676C47.9569 32.1143 47.9566 32.0592 47.9672 32.0058C48.4704 29.3447 50.8614 28.5432 53.002 28.5432C54.096 28.5432 55.5291 28.8364 56.3946 29.6697C57.4886 30.6985 57.3853 32.0693 57.3853 33.5624V37.0897C57.3853 38.149 57.8229 38.6145 58.2361 39.1875C58.382 39.3903 58.4136 39.6359 58.2301 39.7886C57.7706 40.1735 56.9537 40.8883 56.504 41.2915L56.4979 41.2841Z" fill="#2A364D"/>
<path d="M54.2273 35.2802H54.7669V34.7406H54.2273V35.2802ZM53.803 38.1881L53.3334 37.9222L53.3324 37.9241L53.803 38.1881ZM55.9655 41.3391L55.6196 41.7533L55.6589 41.7861L55.7036 41.8109L55.9655 41.3391ZM54.6734 39.8302L55.117 39.5229L54.7441 38.9845L54.2869 39.4535L54.6734 39.8302ZM49.9935 34.2502L50.2082 34.7453L50.213 34.7432L49.9935 34.2502ZM54.2273 33.4634L54.289 33.9995L54.7669 33.9444V33.4634H54.2273ZM53.955 31.5317L53.5051 31.8297L53.5078 31.8338L53.955 31.5317ZM50.8796 32.3027L50.3508 32.1948L50.3491 32.2041L50.8796 32.3027ZM50.4907 32.7156L50.4328 33.2522L50.4746 33.2567L50.5166 33.2546L50.4907 32.7156ZM48.3027 32.4798L48.2286 33.0144L48.2367 33.0155L48.2448 33.0164L48.3027 32.4798ZM47.9672 32.0058L48.4965 32.111L48.4974 32.1061L47.9672 32.0058ZM56.3946 29.6697L56.0203 30.0585L56.0249 30.0628L56.3946 29.6697ZM58.2361 39.1875L58.6742 38.8724L58.6738 38.8718L58.2361 39.1875ZM58.2301 39.7886L57.8849 39.3738L57.8836 39.375L58.2301 39.7886ZM56.504 41.2915L56.0886 41.6359L56.4466 42.0677L56.8642 41.6933L56.504 41.2915ZM54.7669 35.8117V35.2802H53.6876V35.8117H54.7669ZM54.2273 34.7406C53.3898 34.7406 52.4378 34.8267 51.6801 35.2198C51.2911 35.4217 50.9429 35.7097 50.6949 36.1139C50.4467 36.5185 50.3193 37.0059 50.3193 37.5735H51.3986C51.3986 37.1704 51.4875 36.8858 51.6148 36.6784C51.7423 36.4706 51.9289 36.3066 52.1772 36.1778C52.694 35.9096 53.4262 35.8198 54.2273 35.8198V34.7406ZM50.3193 37.5735C50.3193 38.1496 50.4684 38.6935 50.802 39.1047C51.146 39.5289 51.6479 39.7626 52.235 39.7626V38.6833C51.9529 38.6833 51.7668 38.581 51.6402 38.4248C51.503 38.2557 51.3986 37.9749 51.3986 37.5735H50.3193ZM52.235 39.7626C53.1151 39.7626 53.8437 39.2186 54.2737 38.4521L53.3324 37.9241C53.0428 38.4404 52.6312 38.6833 52.235 38.6833V39.7626ZM54.2726 38.4539C54.8005 37.5214 54.7669 36.633 54.7669 35.7738H53.6876C53.6876 36.6887 53.6977 37.2787 53.3334 37.9222L54.2726 38.4539ZM56.1454 40.8755C56.1562 40.8662 56.17 40.8602 56.1848 40.8586L56.2957 41.9322C56.5009 41.911 56.6944 41.8273 56.8504 41.6927L56.1454 40.8755ZM56.1848 40.8586C56.1997 40.8571 56.2146 40.8602 56.2274 40.8673L55.7036 41.8109C55.8839 41.911 56.0905 41.9534 56.2957 41.9322L56.1848 40.8586ZM56.3114 40.9249C55.6301 40.3559 55.5381 40.131 55.117 39.5229L54.2297 40.1374C54.6328 40.7194 54.8058 41.0736 55.6196 41.7533L56.3114 40.9249ZM54.2869 39.4535C53.6927 40.0632 53.2215 40.4208 52.7375 40.6345C52.2575 40.8465 51.7206 40.9363 50.9623 40.9363V42.0156C51.8061 42.0156 52.5072 41.916 53.1735 41.6218C53.8357 41.3294 54.419 40.8642 55.0598 40.2068L54.2869 39.4535ZM50.9623 40.9363C50.1257 40.9363 49.4285 40.6781 48.9432 40.207C48.4617 39.7397 48.1324 39.0082 48.1324 37.9486H47.0531C47.0531 39.241 47.4617 40.2732 48.1915 40.9815C48.9175 41.6861 49.905 42.0156 50.9623 42.0156V40.9363ZM48.1324 37.9486C48.1324 36.3477 48.9808 35.2775 50.2082 34.7453L49.7788 33.7551C48.1885 34.4447 47.0531 35.8842 47.0531 37.9486H48.1324ZM50.213 34.7432C50.7535 34.5025 51.4286 34.3519 52.1563 34.244C52.8899 34.1352 53.6106 34.0776 54.289 33.9995L54.1655 32.9273C53.5396 32.9994 52.7512 33.0647 51.9979 33.1764C51.2387 33.289 50.449 33.4567 49.774 33.7573L50.213 34.7432ZM54.7669 33.4634V33.1714H53.6876V33.4634H54.7669ZM54.7669 33.1714C54.7669 32.929 54.7781 32.5901 54.7456 32.2696C54.7123 31.9411 54.6291 31.5657 54.4021 31.2297L53.5078 31.8338C53.5944 31.962 53.6474 32.1376 53.6719 32.3785C53.6971 32.6273 53.6876 32.8762 53.6876 33.1714H54.7669ZM54.4049 31.2338C53.9916 30.6098 53.2547 30.4032 52.6908 30.4032V31.4824C53.0531 31.4824 53.3665 31.6204 53.5051 31.8297L54.4049 31.2338ZM52.6908 30.4032C51.6485 30.4032 50.6025 30.9613 50.3509 32.1948L51.4084 32.4106C51.5311 31.8089 52.0168 31.4824 52.6908 31.4824V30.4032ZM50.3491 32.2041C50.3482 32.2088 50.3463 32.2152 50.3434 32.2213C50.3405 32.2275 50.3388 32.2288 50.3412 32.226C50.3451 32.2216 50.3853 32.1805 50.4647 32.1766L50.5166 33.2546C50.799 33.241 51.0149 33.0949 51.153 32.9371C51.2894 32.7815 51.3752 32.5897 51.4102 32.4013L50.3491 32.2041ZM50.5485 32.1791L48.3605 31.9433L48.2448 33.0164L50.4328 33.2522L50.5485 32.1791ZM48.3767 31.9453C48.3962 31.948 48.4149 31.9547 48.4316 31.9649L47.8703 32.8866C47.9797 32.9533 48.1017 32.9968 48.2286 33.0144L48.3767 31.9453ZM48.4316 31.9649C48.4484 31.9751 48.4626 31.9884 48.4735 32.0039L47.5926 32.6274C47.6664 32.7316 47.7608 32.82 47.8703 32.8866L48.4316 31.9649ZM48.4735 32.0039C48.4845 32.0194 48.4922 32.0369 48.4961 32.0553L47.4404 32.2798C47.467 32.4048 47.5187 32.523 47.5926 32.6274L48.4735 32.0039ZM48.4961 32.0553C48.5 32.0737 48.5001 32.0927 48.4964 32.111L47.4379 31.9006C47.413 32.0258 47.4138 32.1548 47.4404 32.2798L48.4961 32.0553ZM48.4974 32.1061C48.7179 30.9403 49.3388 30.2042 50.1393 29.7446C50.9591 29.2738 51.9896 29.0828 53.002 29.0828V28.0036C51.8738 28.0036 50.6385 28.2134 49.6019 28.8086C48.5459 29.415 47.7197 30.4103 47.4369 31.9055L48.4974 32.1061ZM53.002 29.0828C54.0407 29.0828 55.3031 29.3679 56.0203 30.0584L56.7689 29.281C55.7552 28.305 54.1513 28.0036 53.002 28.0036V29.0828ZM56.0249 30.0628C56.9123 30.8973 56.8456 31.9787 56.8456 33.5624H57.9249C57.9249 32.16 58.0649 30.4996 56.7643 29.2766L56.0249 30.0628ZM56.8456 33.5624V37.0897H57.9249V33.5624H56.8456ZM56.8456 37.0897C56.8456 38.3503 57.4025 38.9542 57.7985 39.5032L58.6738 38.8718C58.2432 38.2748 57.9249 37.9476 57.9249 37.0897H56.8456ZM57.7981 39.5026C57.8102 39.5195 57.8161 39.5321 57.8185 39.5381C57.8209 39.5444 57.8177 39.5392 57.8173 39.5231C57.8167 39.5058 57.8195 39.4775 57.8335 39.445C57.848 39.4115 57.8684 39.3875 57.8849 39.3738L58.5752 40.2035C58.8043 40.0129 58.9038 39.7494 58.896 39.4906C58.8888 39.2504 58.7921 39.0364 58.6742 38.8724L57.7981 39.5026ZM57.8836 39.375C57.4179 39.765 56.5962 40.4841 56.1438 40.8897L56.8642 41.6933C57.3113 41.2925 58.1233 40.582 58.5766 40.2023L57.8836 39.375ZM56.9194 40.9471L56.9133 40.9397L56.0825 41.6285L56.0886 41.6359L56.9194 40.9471Z" fill="#2A364D" mask="url(#path-12-inside-5_264_3820)"/>
<mask id="path-14-inside-6_264_3820" fill="white">
<path d="M24.446 35.8119V35.2804C22.8074 35.2804 21.0777 35.6323 21.0777 37.5738C21.0777 38.5512 21.5846 39.2232 22.4537 39.2232C23.0919 39.2232 23.662 38.8298 24.0218 38.1883C24.4679 37.4003 24.446 36.6611 24.446 35.7741M26.7167 41.2844C26.6441 41.347 26.5542 41.3858 26.459 41.3956C26.3639 41.4055 26.268 41.3858 26.1843 41.3393C25.4367 40.715 25.3042 40.4254 24.8921 39.8304C23.6571 41.0974 22.7831 41.4762 21.181 41.4762C19.2872 41.4762 17.8115 40.3008 17.8115 37.9489C17.8115 36.1162 18.8034 34.8614 20.2122 34.2505C21.4278 33.7092 23.1417 33.6139 24.446 33.4636V33.1716C24.446 32.634 24.4873 31.9963 24.1737 31.532C23.8978 31.1153 23.3727 30.9431 22.9096 30.9431C22.0514 30.9431 21.2856 31.3854 21.0984 32.3029C21.0607 32.5058 20.9124 32.7061 20.7094 32.7159L18.5214 32.4801C18.4677 32.4726 18.4161 32.4542 18.3697 32.426C18.3233 32.3978 18.2832 32.3603 18.2518 32.3159C18.2204 32.2715 18.1983 32.2211 18.187 32.1678C18.1757 32.1145 18.1753 32.0595 18.1859 32.006C18.6892 29.345 21.0801 28.5435 23.2207 28.5435C24.3147 28.5435 25.7479 28.8367 26.6133 29.67C27.7073 30.6987 27.604 32.0696 27.604 33.5626V37.0899C27.604 38.1492 28.0416 38.6147 28.4549 39.1877C28.6008 39.3906 28.6324 39.6362 28.4488 39.7889C27.9893 40.1738 27.1725 40.8885 26.7227 41.2917L26.7167 41.2844Z"/>
</mask>
<path d="M24.446 35.8119V35.2804C22.8074 35.2804 21.0777 35.6323 21.0777 37.5738C21.0777 38.5512 21.5846 39.2232 22.4537 39.2232C23.0919 39.2232 23.662 38.8298 24.0218 38.1883C24.4679 37.4003 24.446 36.6611 24.446 35.7741M26.7167 41.2844C26.6441 41.347 26.5542 41.3858 26.459 41.3956C26.3639 41.4055 26.268 41.3858 26.1843 41.3393C25.4367 40.715 25.3042 40.4254 24.8921 39.8304C23.6571 41.0974 22.7831 41.4762 21.181 41.4762C19.2872 41.4762 17.8115 40.3008 17.8115 37.9489C17.8115 36.1162 18.8034 34.8614 20.2122 34.2505C21.4278 33.7092 23.1417 33.6139 24.446 33.4636V33.1716C24.446 32.634 24.4873 31.9963 24.1737 31.532C23.8978 31.1153 23.3727 30.9431 22.9096 30.9431C22.0514 30.9431 21.2856 31.3854 21.0984 32.3029C21.0607 32.5058 20.9124 32.7061 20.7094 32.7159L18.5214 32.4801C18.4677 32.4726 18.4161 32.4542 18.3697 32.426C18.3233 32.3978 18.2832 32.3603 18.2518 32.3159C18.2204 32.2715 18.1983 32.2211 18.187 32.1678C18.1757 32.1145 18.1753 32.0595 18.1859 32.006C18.6892 29.345 21.0801 28.5435 23.2207 28.5435C24.3147 28.5435 25.7479 28.8367 26.6133 29.67C27.7073 30.6987 27.604 32.0696 27.604 33.5626V37.0899C27.604 38.1492 28.0416 38.6147 28.4549 39.1877C28.6008 39.3906 28.6324 39.6362 28.4488 39.7889C27.9893 40.1738 27.1725 40.8885 26.7227 41.2917L26.7167 41.2844Z" fill="#2A364D"/>
<path d="M24.446 35.2804H24.9856V34.7408H24.446V35.2804ZM24.0218 38.1883L23.5522 37.9225L23.5511 37.9243L24.0218 38.1883ZM26.7167 41.2844L27.1321 40.94L26.7808 40.5163L26.3642 40.8758L26.7167 41.2844ZM26.1843 41.3393L25.8383 41.7535L25.8776 41.7863L25.9224 41.8112L26.1843 41.3393ZM24.8921 39.8304L25.3357 39.5232L24.9628 38.9847L24.5057 39.4538L24.8921 39.8304ZM20.2122 34.2505L20.4269 34.7456L20.4317 34.7434L20.2122 34.2505ZM24.446 33.4636L24.5078 33.9997L24.9856 33.9447V33.4636H24.446ZM24.1737 31.532L23.7238 31.8299L23.7266 31.834L24.1737 31.532ZM21.0984 32.3029L20.5696 32.195L20.5678 32.2044L21.0984 32.3029ZM20.7094 32.7159L20.6516 33.2524L20.6934 33.2569L20.7354 33.2549L20.7094 32.7159ZM18.5214 32.4801L18.4473 33.0146L18.4555 33.0157L18.4636 33.0166L18.5214 32.4801ZM18.1859 32.006L18.7152 32.1112L18.7162 32.1063L18.1859 32.006ZM26.6133 29.67L26.239 30.0587L26.2437 30.0631L26.6133 29.67ZM28.4549 39.1877L28.893 38.8727L28.8926 38.8721L28.4549 39.1877ZM28.4488 39.7889L28.1037 39.3741L28.1023 39.3752L28.4488 39.7889ZM26.7227 41.2917L26.3073 41.6361L26.6653 42.0679L27.0829 41.6935L26.7227 41.2917ZM24.9856 35.8119V35.2804H23.9064V35.8119H24.9856ZM24.446 34.7408C23.6085 34.7408 22.6566 34.8269 21.8989 35.2201C21.5099 35.4219 21.1617 35.7099 20.9137 36.1142C20.6654 36.5187 20.5381 37.0061 20.5381 37.5738H21.6174C21.6174 37.1707 21.7063 36.886 21.8335 36.6786C21.961 36.4708 22.1477 36.3069 22.3959 36.178C22.9128 35.9099 23.6449 35.8201 24.446 35.8201V34.7408ZM20.5381 37.5738C20.5381 38.1499 20.6872 38.6937 21.0207 39.1049C21.3648 39.5291 21.8667 39.7628 22.4537 39.7628V38.6836C22.1717 38.6836 21.9856 38.5812 21.8589 38.4251C21.7217 38.2559 21.6174 37.9751 21.6174 37.5738H20.5381ZM22.4537 39.7628C23.3339 39.7628 24.0625 39.2189 24.4924 38.4523L23.5511 37.9243C23.2615 38.4407 22.8499 38.6836 22.4537 38.6836V39.7628ZM24.4914 38.4542C25.0193 37.5216 24.9856 36.6332 24.9856 35.7741H23.9064C23.9064 36.6889 23.9165 37.2789 23.5522 37.9225L24.4914 38.4542ZM26.3642 40.8758C26.375 40.8665 26.3887 40.8604 26.4036 40.8589L26.5145 41.9324C26.7197 41.9112 26.9132 41.8275 27.0692 41.693L26.3642 40.8758ZM26.4036 40.8589C26.4185 40.8573 26.4333 40.8604 26.4461 40.8675L25.9224 41.8112C26.1026 41.9112 26.3093 41.9536 26.5145 41.9324L26.4036 40.8589ZM26.5302 40.9252C25.8488 40.3562 25.7568 40.1312 25.3357 39.5232L24.4485 40.1376C24.8515 40.7196 25.0245 41.0739 25.8383 41.7535L26.5302 40.9252ZM24.5057 39.4538C23.9114 40.0634 23.4403 40.4211 22.9563 40.6348C22.4762 40.8468 21.9393 40.9366 21.181 40.9366V42.0158C22.0248 42.0158 22.726 41.9163 23.3922 41.6221C24.0545 41.3297 24.6378 40.8644 25.2785 40.2071L24.5057 39.4538ZM21.181 40.9366C20.3445 40.9366 19.6472 40.6783 19.1619 40.2073C18.6804 39.74 18.3512 39.0085 18.3512 37.9489H17.2719C17.2719 39.2412 17.6805 40.2734 18.4103 40.9817C19.1362 41.6864 20.1238 42.0158 21.181 42.0158V40.9366ZM18.3512 37.9489C18.3512 36.3479 19.1996 35.2778 20.4269 34.7456L19.9976 33.7554C18.4073 34.445 17.2719 35.8844 17.2719 37.9489H18.3512ZM20.4317 34.7434C20.9723 34.5027 21.6473 34.3522 22.375 34.2442C23.1087 34.1354 23.8293 34.0779 24.5078 33.9997L24.3842 32.9276C23.7584 32.9997 22.9699 33.0649 22.2167 33.1767C21.4575 33.2893 20.6677 33.4569 19.9927 33.7575L20.4317 34.7434ZM24.9856 33.4636V33.1716H23.9064V33.4636H24.9856ZM24.9856 33.1716C24.9856 32.9292 24.9969 32.5904 24.9643 32.2699C24.931 31.9414 24.8479 31.566 24.6209 31.2299L23.7266 31.834C23.8132 31.9623 23.8662 32.1379 23.8906 32.3787C23.9158 32.6276 23.9064 32.8764 23.9064 33.1716H24.9856ZM24.6236 31.234C24.2104 30.61 23.4735 30.4034 22.9096 30.4034V31.4827C23.2719 31.4827 23.5852 31.6207 23.7238 31.8299L24.6236 31.234ZM22.9096 30.4034C21.8672 30.4034 20.8213 30.9616 20.5696 32.1951L21.6271 32.4108C21.7499 31.8092 22.2355 31.4827 22.9096 31.4827V30.4034ZM20.5678 32.2044C20.567 32.209 20.565 32.2154 20.5621 32.2215C20.5592 32.2278 20.5575 32.229 20.56 32.2262C20.5638 32.2218 20.604 32.1807 20.6835 32.1769L20.7354 33.2549C21.0178 33.2413 21.2336 33.0951 21.3718 32.9374C21.5081 32.7817 21.5939 32.59 21.6289 32.4015L20.5678 32.2044ZM20.7672 32.1794L18.5792 31.9436L18.4636 33.0166L20.6516 33.2524L20.7672 32.1794ZM18.5955 31.9456C18.615 31.9483 18.6337 31.9549 18.6504 31.9651L18.089 32.8869C18.1985 32.9535 18.3204 32.997 18.4473 33.0146L18.5955 31.9456ZM18.6504 31.9651C18.6672 31.9753 18.6813 31.9887 18.6923 32.0041L17.8113 32.6276C17.8851 32.7319 17.9795 32.8202 18.089 32.8869L18.6504 31.9651ZM18.6923 32.0041C18.7033 32.0197 18.7109 32.0372 18.7148 32.0556L17.6592 32.28C17.6857 32.405 17.7375 32.5233 17.8113 32.6276L18.6923 32.0041ZM18.7148 32.0556C18.7187 32.074 18.7188 32.0929 18.7152 32.1112L17.6566 31.9008C17.6318 32.0261 17.6326 32.1551 17.6592 32.28L18.7148 32.0556ZM18.7162 32.1063C18.9366 30.9405 19.5576 30.2045 20.358 29.7448C21.1779 29.274 22.2084 29.0831 23.2207 29.0831V28.0038C22.0925 28.0038 20.8572 28.2136 19.8206 28.8089C18.7646 29.4152 17.9385 30.4105 17.6557 31.9058L18.7162 32.1063ZM23.2207 29.0831C24.2594 29.0831 25.5218 29.3681 26.2391 30.0587L26.9876 29.2812C25.974 28.3053 24.37 28.0038 23.2207 28.0038V29.0831ZM26.2437 30.0631C27.1311 30.8976 27.0644 31.9789 27.0644 33.5626H28.1436C28.1436 32.1603 28.2836 30.4999 26.983 29.2768L26.2437 30.0631ZM27.0644 33.5626V37.0899H28.1436V33.5626H27.0644ZM27.0644 37.0899C27.0644 38.3506 27.6213 38.9544 28.0172 39.5034L28.8926 38.8721C28.4619 38.275 28.1436 37.9479 28.1436 37.0899H27.0644ZM28.0168 39.5028C28.029 39.5197 28.0349 39.5323 28.0372 39.5384C28.0396 39.5446 28.0365 39.5395 28.036 39.5234C28.0355 39.5061 28.0382 39.4778 28.0522 39.4453C28.0667 39.4117 28.0872 39.3878 28.1037 39.3741L28.794 40.2037C29.023 40.0131 29.1226 39.7496 29.1148 39.4909C29.1075 39.2506 29.0109 39.0366 28.893 38.8727L28.0168 39.5028ZM28.1023 39.3752C27.6366 39.7653 26.815 40.4843 26.3625 40.8899L27.0829 41.6935C27.53 41.2927 28.342 40.5823 28.7953 40.2026L28.1023 39.3752ZM27.1382 40.9473L27.1321 40.94L26.3012 41.6288L26.3073 41.6361L27.1382 40.9473Z" fill="#2A364D" mask="url(#path-14-inside-6_264_3820)"/>
<path d="M71.4574 22.8422C71.6987 22.8422 71.9517 22.7943 72.2161 22.699C72.4799 22.6032 72.7323 22.4628 72.9748 22.2793V21.1535C72.5786 21.0582 72.1903 21.0103 71.8095 21.0103C70.9806 21.0103 70.5669 21.3304 70.5669 21.9704C70.5669 22.2501 70.6438 22.4657 70.7973 22.6156C70.9515 22.7665 71.1715 22.8422 71.4574 22.8422ZM71.1939 23.6705C70.6729 23.6705 70.2573 23.521 69.9461 23.223C69.634 22.9246 69.4785 22.5261 69.4785 22.0255C69.4785 21.4884 69.6688 21.0597 70.0501 20.7396C70.4309 20.4192 70.9444 20.2591 71.589 20.2591C71.9994 20.2591 72.4613 20.3224 72.9748 20.447V19.7188C72.9748 19.3212 72.8845 19.042 72.7052 18.8795C72.5258 18.7181 72.2199 18.6372 71.7871 18.6372C71.2812 18.6372 70.7868 18.7109 70.3031 18.8575C70.1346 18.9093 70.0282 18.9347 69.9838 18.9347C69.8964 18.9347 69.8521 18.8691 69.8521 18.7368V18.4384C69.8521 18.3426 69.8664 18.2726 69.8964 18.229C69.9256 18.1845 69.9838 18.1442 70.0716 18.1074C70.2987 18.0044 70.587 17.9215 70.9348 17.8587C71.2832 17.7964 71.6291 17.7649 71.9736 17.7649C72.6699 17.7649 73.1838 17.9104 73.5135 18.2012C73.8432 18.492 74.0079 18.9347 74.0079 19.5311V23.3054C74.0079 23.4529 73.9344 23.5263 73.7879 23.5263H73.3155C73.1756 23.5263 73.0955 23.4564 73.073 23.3169L73.0182 22.9528C72.7548 23.1809 72.4627 23.3571 72.1445 23.4822C71.8252 23.6072 71.5089 23.6705 71.1939 23.6705Z" fill="#2A364D"/>
<path d="M77.0208 23.5263C76.9182 23.5263 76.8428 23.5124 76.795 23.4822C76.7473 23.4529 76.6977 23.3682 76.6466 23.2283L74.7008 18.3281C74.6859 18.2841 74.6692 18.2396 74.6515 18.1954C74.633 18.1514 74.6239 18.1107 74.6239 18.0743C74.6239 17.9785 74.6788 17.9305 74.7885 17.9305H75.4375C75.5472 17.9305 75.624 17.9454 75.6684 17.9751C75.7119 18.0044 75.7595 18.0886 75.8111 18.229L77.317 22.5332L78.8236 18.229C78.8745 18.0886 78.9228 18.0044 78.9662 17.9751C79.0106 17.9454 79.0875 17.9305 79.1972 17.9305H79.8017C79.912 17.9305 79.9674 17.9785 79.9674 18.0743C79.9674 18.1107 79.9578 18.1514 79.9392 18.1954C79.9216 18.2396 79.9043 18.2841 79.8905 18.3281L77.9551 23.2283C77.9035 23.3682 77.8539 23.4529 77.8066 23.4822C77.759 23.5124 77.684 23.5263 77.5815 23.5263H77.0208Z" fill="#2A364D"/>
<path d="M82.3853 22.8422C82.6267 22.8422 82.8801 22.7943 83.144 22.699C83.4079 22.6032 83.6607 22.4628 83.9027 22.2793V21.1535C83.5066 21.0582 83.1187 21.0103 82.7374 21.0103C81.9085 21.0103 81.4949 21.3304 81.4949 21.9704C81.4949 22.2501 81.5717 22.4657 81.7257 22.6156C81.8794 22.7665 82.0999 22.8422 82.3853 22.8422ZM82.1219 23.6705C81.6013 23.6705 81.1852 23.521 80.8741 23.223C80.5619 22.9246 80.4064 22.5261 80.4064 22.0255C80.4064 21.4884 80.5972 21.0597 80.978 20.7396C81.3588 20.4192 81.8723 20.2591 82.5174 20.2591C82.9273 20.2591 83.3893 20.3224 83.9027 20.447V19.7188C83.9027 19.3212 83.8124 19.042 83.6331 18.8795C83.4537 18.7181 83.1478 18.6372 82.7155 18.6372C82.2091 18.6372 81.7147 18.7109 81.231 18.8575C81.0625 18.9093 80.9561 18.9347 80.9122 18.9347C80.8243 18.9347 80.78 18.8691 80.78 18.7368V18.4384C80.78 18.3426 80.7943 18.2726 80.8243 18.229C80.8535 18.1845 80.9122 18.1442 81 18.1074C81.2271 18.0044 81.5154 17.9215 81.8627 17.8587C82.2111 17.7964 82.557 17.7649 82.902 17.7649C83.5978 17.7649 84.1117 17.9104 84.4414 18.2012C84.7711 18.492 84.9358 18.9347 84.9358 19.5311V23.3054C84.9358 23.4529 84.8623 23.5263 84.7158 23.5263H84.2434C84.1035 23.5263 84.0234 23.4564 84.0009 23.3169L83.9461 22.9528C83.6827 23.1809 83.3911 23.3571 83.0724 23.4822C82.7531 23.6072 82.4368 23.6705 82.1219 23.6705Z" fill="#2A364D"/>
<path d="M86.6508 23.5263C86.5043 23.5263 86.4313 23.4529 86.4313 23.3054V18.1514C86.4313 18.0044 86.5043 17.9305 86.6508 17.9305H87.2997C87.4458 17.9305 87.5192 18.0044 87.5192 18.1514V23.3054C87.5192 23.4529 87.4458 23.5263 87.2997 23.5263H86.6508ZM86.9805 16.9371C86.7682 16.9371 86.6011 16.8766 86.4809 16.755C86.3597 16.6338 86.2996 16.4738 86.2996 16.275C86.2996 16.0762 86.3597 15.9161 86.4809 15.7945C86.6011 15.6738 86.7682 15.6125 86.9805 15.6125C87.1933 15.6125 87.3598 15.6738 87.4811 15.7945C87.6023 15.9161 87.6624 16.0762 87.6624 16.275C87.6624 16.4738 87.6023 16.6338 87.4811 16.755C87.3598 16.8766 87.1933 16.9371 86.9805 16.9371Z" fill="#2A364D"/>
<path d="M90.2244 23.5813C89.8359 23.5813 89.5386 23.4697 89.334 23.2451C89.1288 23.0204 89.0257 22.699 89.0257 22.2793V15.5799C89.0257 15.4323 89.0992 15.3586 89.2462 15.3586H89.8942C90.0412 15.3586 90.1146 15.4323 90.1146 15.5799V22.2132C90.1146 22.3823 90.1489 22.5054 90.2192 22.5831C90.2878 22.6602 90.4037 22.699 90.5651 22.699C90.609 22.699 90.6548 22.6957 90.7025 22.6874C90.7502 22.6803 90.7922 22.6769 90.829 22.6769C90.9024 22.6769 90.9516 22.6957 90.9779 22.7321C91.0032 22.7689 91.0155 22.8241 91.0155 22.8973V23.2503C91.0155 23.3242 90.9998 23.3816 90.9664 23.4219C90.9334 23.4626 90.8766 23.4936 90.796 23.5157C90.6123 23.5594 90.4224 23.5813 90.2244 23.5813Z" fill="#2A364D"/>
<path d="M93.6209 22.8422C93.8629 22.8422 94.1157 22.7943 94.3796 22.699C94.6435 22.6032 94.8964 22.4628 95.1383 22.2793V21.1535C94.7428 21.0582 94.3543 21.0103 93.9731 21.0103C93.1447 21.0103 92.7305 21.3304 92.7305 21.9704C92.7305 22.2501 92.8073 22.4657 92.9615 22.6156C93.1156 22.7665 93.3355 22.8422 93.6209 22.8422ZM93.3575 23.6705C92.8369 23.6705 92.4213 23.521 92.1096 23.223C91.7977 22.9246 91.642 22.5261 91.642 22.0255C91.642 21.4884 91.833 21.0597 92.2142 20.7396C92.5945 20.4192 93.1084 20.2591 93.753 20.2591C94.1635 20.2591 94.6249 20.3224 95.1383 20.447V19.7188C95.1383 19.3212 95.0487 19.042 94.8687 18.8795C94.6893 18.7181 94.3835 18.6372 93.9511 18.6372C93.4453 18.6372 92.951 18.7109 92.4671 18.8575C92.2981 18.9093 92.1922 18.9347 92.1479 18.9347C92.0601 18.9347 92.0162 18.8691 92.0162 18.7368V18.4384C92.0162 18.3426 92.0305 18.2726 92.0601 18.229C92.0891 18.1845 92.1479 18.1442 92.2356 18.1074C92.4628 18.0044 92.751 17.9215 93.0989 17.8587C93.4468 17.7964 93.7931 17.7649 94.1377 17.7649C94.8339 17.7649 95.3473 17.9104 95.677 18.2012C96.0077 18.492 96.1724 18.9347 96.1724 19.5311V23.3054C96.1724 23.4529 96.0985 23.5263 95.9514 23.5263H95.479C95.3398 23.5263 95.259 23.4564 95.2371 23.3169L95.1823 22.9528C94.9183 23.1809 94.6268 23.3571 94.308 23.4822C93.9893 23.6072 93.6724 23.6705 93.3575 23.6705Z" fill="#2A364D"/>
<path d="M100.163 22.7646C101.174 22.7646 101.68 22.0805 101.68 20.7124C101.68 20.0135 101.557 19.4942 101.312 19.1559C101.066 18.8173 100.69 18.6482 100.184 18.6482C99.6639 18.6482 99.1725 18.8173 98.711 19.1559V22.2348C99.1725 22.5884 99.6567 22.7646 100.163 22.7646ZM100.415 23.6479C99.7417 23.6479 99.151 23.4127 98.6451 22.9414L98.5688 23.3054C98.5464 23.4529 98.4614 23.5263 98.3159 23.5263H97.8425C97.6956 23.5263 97.623 23.4529 97.623 23.3054V15.5799C97.623 15.4324 97.6956 15.3587 97.8425 15.3587H98.4914C98.638 15.3587 98.711 15.4324 98.711 15.5799V18.4608C99.2607 17.9971 99.8549 17.7649 100.492 17.7649C101.203 17.7649 101.764 18.023 102.174 18.538C102.584 19.053 102.791 19.7595 102.791 20.6573C102.791 21.5618 102.574 22.287 102.142 22.8312C101.709 23.3759 101.134 23.6479 100.415 23.6479Z" fill="#2A364D"/>
<path d="M105.166 23.5813C104.777 23.5813 104.48 23.4697 104.275 23.2451C104.07 23.0204 103.967 22.699 103.967 22.2793V15.5799C103.967 15.4323 104.04 15.3586 104.187 15.3586H104.836C104.982 15.3586 105.055 15.4323 105.055 15.5799V22.2132C105.055 22.3823 105.089 22.5054 105.16 22.5831C105.229 22.6602 105.345 22.699 105.506 22.699C105.55 22.699 105.595 22.6957 105.643 22.6874C105.691 22.6803 105.734 22.6769 105.77 22.6769C105.843 22.6769 105.893 22.6957 105.919 22.7321C105.944 22.7689 105.957 22.8241 105.957 22.8973V23.2503C105.957 23.3242 105.94 23.3816 105.908 23.4219C105.874 23.4626 105.817 23.4936 105.738 23.5157C105.554 23.5594 105.363 23.5813 105.166 23.5813Z" fill="#2A364D"/>
<path d="M110.442 20.2372C110.45 20.1787 110.453 20.0829 110.453 19.9502C110.453 19.5019 110.349 19.1632 110.139 18.9347C109.93 18.7071 109.625 18.5931 109.222 18.5931C108.76 18.5931 108.401 18.7306 108.145 19.0065C107.888 19.283 107.742 19.6929 107.704 20.2372H110.442ZM109.387 23.6921C108.485 23.6921 107.804 23.442 107.342 22.9414C106.88 22.4412 106.649 21.7021 106.649 20.7229C106.649 19.7888 106.88 19.0616 107.342 18.5432C107.804 18.025 108.449 17.7649 109.277 17.7649C109.973 17.7649 110.508 17.9617 110.882 18.356C111.256 18.7493 111.443 19.3069 111.443 20.0279C111.443 20.2631 111.424 20.5026 111.387 20.7449C111.373 20.8336 111.349 20.8926 111.317 20.9217C111.283 20.9509 111.23 20.9658 111.157 20.9658H107.704C107.719 21.5991 107.875 22.0662 108.172 22.368C108.469 22.6698 108.928 22.8196 109.551 22.8196C109.772 22.8196 109.982 22.8053 110.183 22.7761C110.385 22.7469 110.641 22.6841 110.948 22.5884C110.999 22.5739 111.044 22.5605 111.079 22.55C111.116 22.5384 111.15 22.5332 111.178 22.5332C111.274 22.5332 111.322 22.5994 111.322 22.7321V23.041C111.322 23.1368 111.307 23.2048 111.278 23.2451C111.249 23.2858 111.185 23.328 111.091 23.372C110.87 23.4679 110.61 23.5449 110.305 23.6039C110.001 23.6623 109.694 23.6921 109.387 23.6921Z" fill="#2A364D"/>
<path d="M116.928 22.8422C117.171 22.8422 117.424 22.7943 117.687 22.699C117.951 22.6032 118.204 22.4628 118.446 22.2793V21.1535C118.05 21.0582 117.661 21.0103 117.28 21.0103C116.451 21.0103 116.037 21.3304 116.037 21.9704C116.037 22.2501 116.115 22.4657 116.269 22.6156C116.423 22.7665 116.642 22.8422 116.928 22.8422ZM116.665 23.6705C116.143 23.6705 115.728 23.521 115.417 23.223C115.105 22.9246 114.949 22.5261 114.949 22.0255C114.949 21.4884 115.14 21.0597 115.521 20.7396C115.902 20.4192 116.415 20.2591 117.061 20.2591C117.471 20.2591 117.933 20.3224 118.446 20.447V19.7188C118.446 19.3212 118.355 19.042 118.176 18.8795C117.996 18.7181 117.691 18.6372 117.258 18.6372C116.752 18.6372 116.258 18.7109 115.774 18.8575C115.606 18.9093 115.499 18.9347 115.455 18.9347C115.367 18.9347 115.323 18.8691 115.323 18.7368V18.4384C115.323 18.3426 115.338 18.2726 115.367 18.229C115.397 18.1845 115.455 18.1442 115.544 18.1074C115.77 18.0044 116.057 17.9215 116.406 17.8587C116.754 17.7964 117.1 17.7649 117.445 17.7649C118.142 17.7649 118.655 17.9104 118.984 18.2012C119.314 18.492 119.479 18.9347 119.479 19.5311V23.3054C119.479 23.4529 119.406 23.5263 119.259 23.5263H118.786C118.648 23.5263 118.566 23.4564 118.545 23.3169L118.49 22.9528C118.225 23.1809 117.934 23.3571 117.615 23.4822C117.297 23.6072 116.98 23.6705 116.665 23.6705Z" fill="#2A364D"/>
<path d="M122.844 23.6039C121.803 23.6039 121.283 23.0817 121.283 22.037V18.7919H120.49C120.344 18.7919 120.271 18.7181 120.271 18.5706V18.2947C120.271 18.2218 120.288 18.1658 120.32 18.1293C120.354 18.0926 120.418 18.0667 120.513 18.0522L121.316 17.9526L121.458 16.584C121.473 16.4373 121.55 16.3636 121.69 16.3636H122.151C122.298 16.3636 122.371 16.4373 122.371 16.584V17.9306H123.8C123.947 17.9306 124.021 18.0044 124.021 18.1514V18.5706C124.021 18.7181 123.947 18.7919 123.8 18.7919H122.371V21.9813C122.371 22.2534 122.432 22.4451 122.552 22.5552C122.674 22.6655 122.88 22.7206 123.174 22.7206C123.313 22.7206 123.485 22.7023 123.69 22.6655C123.8 22.6434 123.874 22.6324 123.911 22.6324C123.969 22.6324 124.009 22.6492 124.031 22.6822C124.053 22.7153 124.065 22.7689 124.065 22.8422V23.1402C124.065 23.236 124.049 23.3079 124.021 23.3553C123.991 23.4031 123.932 23.442 123.844 23.4717C123.559 23.5594 123.225 23.6039 122.844 23.6039Z" fill="#2A364D"/>
<path d="M102.297 38.6169C102.696 38.6169 103.117 38.5307 103.558 38.3565C103.999 38.1846 104.427 37.9388 104.84 37.6195V35.6262C104.11 35.4746 103.461 35.3983 102.896 35.3983C101.462 35.3983 100.745 35.9582 100.745 37.0804C100.745 37.564 100.883 37.9421 101.159 38.212C101.434 38.4813 101.814 38.6169 102.297 38.6169ZM101.614 40.3616C100.648 40.3616 99.8664 40.0706 99.2665 39.489C98.6664 38.9074 98.3662 38.1525 98.3662 37.2249C98.3662 36.2012 98.735 35.3842 99.4732 34.7753C100.21 34.1655 101.2 33.8618 102.442 33.8618C103.172 33.8618 103.972 33.9654 104.84 34.1726V32.9473C104.84 32.2418 104.689 31.7498 104.385 31.4729C104.082 31.1964 103.551 31.0576 102.793 31.0576C102.338 31.0576 101.835 31.1037 101.283 31.1932C100.731 31.2836 100.207 31.4108 99.7106 31.5769C99.5727 31.6179 99.4559 31.6391 99.3588 31.6391C99.1801 31.6391 99.0905 31.5082 99.0905 31.245V30.476C99.0905 30.2829 99.1177 30.144 99.173 30.0616C99.2279 29.9783 99.3729 29.8888 99.6074 29.7908C100.683 29.3755 101.875 29.1678 103.186 29.1678C104.537 29.1678 105.533 29.4447 106.173 29.9995C106.816 30.5522 107.137 31.4178 107.137 32.5951V39.5926C107.137 39.8977 106.985 40.0494 106.682 40.0494H105.585C105.282 40.0494 105.11 39.9114 105.067 39.6336L104.964 39.0322C104.481 39.4466 103.948 39.773 103.362 40.0084C102.775 40.2434 102.193 40.3616 101.614 40.3616Z" fill="#2A364D"/>
<path d="M114.238 38.3471C115.119 38.3471 115.775 38.0457 116.202 37.443C116.63 36.8411 116.843 35.9243 116.843 34.6914C116.843 33.4733 116.634 32.5706 116.212 31.9819C115.792 31.3928 115.141 31.0999 114.258 31.0999C113.362 31.0999 112.534 31.3622 111.775 31.8886V37.5371C112.548 38.0763 113.369 38.3471 114.238 38.3471ZM109.79 44.3275C109.486 44.3275 109.335 44.1744 109.335 43.8707V29.9368C109.335 29.6322 109.486 29.48 109.79 29.48H110.927C111.231 29.48 111.411 29.618 111.465 29.8944L111.59 30.5381C112.072 30.0955 112.607 29.7569 113.193 29.5215C113.778 29.2861 114.389 29.1678 115.023 29.1678C116.333 29.1678 117.378 29.6599 118.157 30.6423C118.935 31.6264 119.326 32.9473 119.326 34.6096C119.326 35.758 119.136 36.761 118.757 37.6195C118.377 38.478 117.849 39.1359 117.174 39.5926C116.498 40.0494 115.727 40.2777 114.858 40.2777C114.279 40.2777 113.721 40.1774 113.182 39.9763C112.644 39.7762 112.175 39.4961 111.775 39.1359V43.8707C111.775 44.1744 111.624 44.3275 111.32 44.3275H109.79Z" fill="#2A364D"/>
<path d="M125.987 38.3471C126.869 38.3471 127.524 38.0457 127.951 37.443C128.379 36.8411 128.592 35.9243 128.592 34.6914C128.592 33.4733 128.382 32.5706 127.962 31.9819C127.54 31.3928 126.89 31.0999 126.006 31.0999C125.111 31.0999 124.283 31.3622 123.524 31.8886V37.5371C124.297 38.0763 125.118 38.3471 125.987 38.3471ZM121.539 44.3275C121.235 44.3275 121.084 44.1744 121.084 43.8707V29.9368C121.084 29.6322 121.235 29.48 121.539 29.48H122.676C122.98 29.48 123.159 29.618 123.215 29.8944L123.339 30.5381C123.821 30.0955 124.355 29.7569 124.942 29.5215C125.527 29.2861 126.138 29.1678 126.772 29.1678C128.082 29.1678 129.127 29.6599 129.906 30.6423C130.685 31.6264 131.075 32.9473 131.075 34.6096C131.075 35.758 130.885 36.761 130.506 37.6195C130.126 38.478 129.599 39.1359 128.923 39.5926C128.248 40.0494 127.476 40.2777 126.607 40.2777C126.028 40.2777 125.469 40.1774 124.931 39.9763C124.393 39.7762 123.924 39.4961 123.524 39.1359V43.8707C123.524 44.1744 123.373 44.3275 123.069 44.3275H121.539Z" fill="#2A364D"/>
<path d="M135.652 40.3616C134.562 40.3616 133.556 40.1811 132.632 39.8209C132.412 39.7376 132.27 39.6515 132.208 39.5606C132.146 39.4716 132.115 39.3227 132.115 39.1146V38.3674C132.115 38.0905 132.211 37.9515 132.405 37.9515C132.501 37.9515 132.694 37.9939 132.984 38.0763C133.963 38.3541 134.845 38.4921 135.632 38.4921C136.321 38.4921 136.825 38.3847 137.141 38.1705C137.459 37.9553 137.617 37.6266 137.617 37.1839C137.617 36.8793 137.521 36.633 137.328 36.447C137.134 36.2595 136.776 36.0688 136.252 35.8763L134.536 35.2109C132.991 34.6161 132.218 33.6461 132.218 32.3045C132.218 31.3354 132.577 30.5702 133.294 30.0089C134.011 29.448 134.969 29.1678 136.169 29.1678C137.024 29.1678 137.886 29.3138 138.755 29.6034C138.962 29.6732 139.1 29.7532 139.169 29.8427C139.238 29.9336 139.272 30.0889 139.272 30.3103V31.0378C139.272 31.1894 139.247 31.2963 139.199 31.3589C139.151 31.4211 139.065 31.4516 138.941 31.4516C138.872 31.4516 138.699 31.4178 138.424 31.3481C137.555 31.1409 136.851 31.0378 136.314 31.0378C135.68 31.0378 135.214 31.1305 134.918 31.3175C134.621 31.5035 134.473 31.7979 134.473 32.1995C134.473 32.5046 134.58 32.7504 134.794 32.9379C135.007 33.1239 135.39 33.3287 135.941 33.5501L137.534 34.1726C138.362 34.4913 138.959 34.8719 139.323 35.3144C139.689 35.758 139.872 36.3185 139.872 36.9966C139.872 38.0354 139.499 38.8556 138.755 39.4575C138.01 40.0602 136.976 40.3616 135.652 40.3616Z" fill="#2A364D"/>
<path d="M145.663 40.1944C144.574 40.1944 143.767 39.9387 143.244 39.4269C142.72 38.9145 142.457 38.1318 142.457 37.0804V31.3481H141.133C140.83 31.3481 140.677 31.1964 140.677 30.8918V30.29C140.677 30.1102 140.713 29.9815 140.782 29.9047C140.85 29.8294 140.961 29.7782 141.113 29.7494L142.54 29.5426L142.85 27.029C142.864 26.8633 142.912 26.745 142.995 26.6758C143.077 26.6076 143.202 26.5723 143.367 26.5723H144.443C144.746 26.5723 144.898 26.7252 144.898 27.029V29.4801H147.442C147.745 29.4801 147.897 29.6322 147.897 29.9368V30.8918C147.897 31.1964 147.745 31.3481 147.442 31.3481H144.898V36.9556C144.898 37.4265 145.012 37.7617 145.239 37.9618C145.467 38.1634 145.849 38.2632 146.387 38.2632C146.704 38.2632 146.96 38.2421 147.152 38.2011C147.346 38.1601 147.504 38.1384 147.628 38.1384C147.863 38.1384 147.98 38.2708 147.98 38.5331V39.2809C147.98 39.5031 147.941 39.6586 147.867 39.748C147.79 39.8389 147.649 39.9114 147.442 39.9655C146.863 40.1191 146.271 40.1944 145.663 40.1944Z" fill="#2A364D"/>
<path d="M153.715 38.4294C155.451 38.4294 156.32 37.2037 156.32 34.7541C156.32 32.3172 155.451 31.0999 153.715 31.0999C151.977 31.0999 151.108 32.3172 151.108 34.7541C151.108 37.2037 151.977 38.4294 153.715 38.4294ZM153.715 40.3616C152.114 40.3616 150.866 39.8657 149.971 38.8754C149.074 37.8865 148.626 36.5129 148.626 34.7541C148.626 32.9967 149.074 31.6264 149.971 30.6423C150.866 29.6599 152.114 29.1678 153.715 29.1678C155.314 29.1678 156.562 29.6599 157.458 30.6423C158.355 31.6264 158.803 32.9967 158.803 34.7541C158.803 36.5129 158.355 37.8865 157.458 38.8754C156.562 39.8657 155.314 40.3616 153.715 40.3616Z" fill="#2A364D"/>
<path d="M160.994 40.0494C160.69 40.0494 160.539 39.8977 160.539 39.5926V29.9368C160.539 29.6322 160.69 29.48 160.994 29.48H162.09C162.285 29.48 162.418 29.5074 162.494 29.5625C162.569 29.618 162.622 29.7226 162.649 29.8741L162.897 31.0576C163.448 30.4487 163.966 30.0193 164.449 29.7706C164.931 29.5215 165.455 29.3968 166.021 29.3968H166.103C166.284 29.3968 166.431 29.4141 166.548 29.448C166.665 29.4833 166.748 29.5426 166.796 29.6246C166.844 29.7084 166.87 29.86 166.87 30.0814V31.2036C166.87 31.4946 166.745 31.6391 166.496 31.6391C166.414 31.6391 166.3 31.6321 166.155 31.6179C166.011 31.6052 165.855 31.5976 165.689 31.5976C164.67 31.5976 163.767 31.8604 162.98 32.3864V39.5926C162.98 39.8977 162.829 40.0494 162.525 40.0494H160.994Z" fill="#2A364D"/>
<path d="M174.456 33.7158V33.5501C174.456 32.7057 174.274 32.062 173.908 31.6179C173.544 31.1752 173.008 30.954 172.304 30.954C171.56 30.954 170.954 31.2036 170.485 31.7018C170.016 32.1995 169.747 32.872 169.678 33.7158H174.456ZM172.719 40.3616C170.981 40.3616 169.664 39.8901 168.768 38.9489C167.871 38.008 167.423 36.6363 167.423 34.8374C167.423 33.0518 167.861 31.6603 168.737 30.6629C169.612 29.6661 170.837 29.1678 172.408 29.1678C173.76 29.1678 174.797 29.5389 175.521 30.2797C176.246 31.0198 176.607 32.0691 176.607 33.4253C176.607 33.8962 176.573 34.3882 176.504 34.8987C176.476 35.079 176.424 35.2 176.349 35.2627C176.273 35.3248 176.173 35.3569 176.049 35.3569H169.678C169.719 36.4084 170.012 37.1807 170.557 37.6713C171.101 38.1634 171.941 38.4092 173.071 38.4092C173.897 38.4092 174.766 38.2774 175.676 38.0141C175.787 37.9868 175.87 37.9657 175.925 37.9515C175.98 37.9388 176.028 37.9312 176.07 37.9312C176.277 37.9312 176.38 38.0692 176.38 38.3471V39.0949C176.38 39.3021 176.349 39.4499 176.288 39.5408C176.225 39.6302 176.083 39.7174 175.862 39.7997C174.939 40.1742 173.891 40.3616 172.719 40.3616Z" fill="#2A364D"/>
</svg>
