<svg width="194" height="64" viewBox="0 0 194 64" fill="none" xmlns="http://www.w3.org/2000/svg">
<rect x="1.26953" y="1" width="191.73" height="62" rx="11" fill="white"/>
<path d="M40.059 32.9097C40.0915 30.3748 41.4476 27.9761 43.5989 26.6483C42.2418 24.7025 39.9686 23.4688 37.6036 23.3945C35.0811 23.1287 32.6356 24.9098 31.3502 24.9098C30.0399 24.9098 28.0608 23.4209 25.9297 23.4649C23.1518 23.555 20.5621 25.1405 19.2106 27.5786C16.3054 32.6281 18.4725 40.0492 21.2554 44.1308C22.6477 46.1295 24.275 48.362 26.4042 48.2828C28.4878 48.1961 29.266 46.949 31.7811 46.949C34.2728 46.949 35.0029 48.2828 37.1753 48.2325C39.4111 48.1961 40.8198 46.225 42.1633 44.2074C43.1637 42.7833 43.9335 41.2093 44.4442 39.5438C41.8167 38.4282 40.0621 35.7737 40.059 32.9097Z" fill="#2A364D"/>
<path d="M35.9556 20.7102C37.1746 19.2411 37.7752 17.3528 37.6298 15.4463C35.7674 15.6427 34.047 16.5363 32.8115 17.949C31.6033 19.3294 30.9746 21.1845 31.0934 23.0181C32.9565 23.0373 34.7881 22.168 35.9556 20.7102Z" fill="#2A364D"/>
<path d="M114.375 30.2914V33.3633H112.457V35.3778H114.375V42.2227C114.375 44.5599 115.428 45.4949 118.078 45.4949C118.543 45.4949 118.987 45.4392 119.375 45.3724V43.3802C119.042 43.4136 118.832 43.4358 118.466 43.4358C117.28 43.4358 116.758 42.8793 116.758 41.6105V35.3778H119.375V33.3633H116.758V30.2914H114.375Z" fill="#2A364D"/>
<path d="M126.125 45.6618C129.65 45.6618 131.812 43.2911 131.812 39.3623C131.812 35.4557 129.639 33.0739 126.125 33.0739C122.599 33.0739 120.426 35.4557 120.426 39.3623C120.426 43.2911 122.588 45.6618 126.125 45.6618ZM126.125 43.536C124.052 43.536 122.888 42.0112 122.888 39.3623C122.888 36.7356 124.052 35.1997 126.125 35.1997C128.187 35.1997 129.362 36.7356 129.362 39.3623C129.362 42.0001 128.187 43.536 126.125 43.536Z" fill="#2A364D"/>
<path d="M133.662 45.4281H136.046V38.2716C136.046 36.5687 137.321 35.4223 139.128 35.4223C139.549 35.4223 140.259 35.5002 140.458 35.567V33.2075C140.203 33.1407 139.749 33.1073 139.394 33.1073C137.819 33.1073 136.478 33.9754 136.134 35.1663H135.957V33.3076H133.662V45.4281Z" fill="#2A364D"/>
<path d="M146.377 35.1107C148.139 35.1107 149.292 36.3461 149.348 38.2493H143.25C143.383 36.3572 144.614 35.1107 146.377 35.1107ZM149.337 42.1559C148.893 43.1019 147.907 43.625 146.465 43.625C144.558 43.625 143.328 42.2783 143.25 40.1525V40.019H151.776V39.1842C151.776 35.3778 149.747 33.0739 146.388 33.0739C142.984 33.0739 140.822 35.5336 140.822 39.4068C140.822 43.28 142.94 45.6618 146.399 45.6618C149.159 45.6618 151.088 44.3262 151.632 42.1559H149.337Z" fill="#2A364D"/>
<path d="M98.7434 40.9522C98.9273 43.9284 101.398 45.8318 105.075 45.8318C109.005 45.8318 111.464 43.8361 111.464 40.6523C111.464 38.149 110.062 36.7647 106.661 35.9687L104.834 35.5188C102.673 35.0113 101.8 34.3306 101.8 33.1425C101.8 31.6428 103.156 30.6623 105.19 30.6623C107.12 30.6623 108.453 31.6197 108.695 33.154H111.2C111.05 30.3508 108.591 28.3782 105.224 28.3782C101.605 28.3782 99.1916 30.3508 99.1916 33.3155C99.1916 35.7611 100.559 37.2146 103.558 37.9183L105.695 38.4374C107.89 38.9565 108.855 39.7179 108.855 40.9868C108.855 42.4634 107.339 43.5362 105.27 43.5362C103.053 43.5362 101.513 42.5326 101.294 40.9522H98.7434Z" fill="#2A364D"/>
<path d="M74.0515 33.1073C72.4107 33.1073 70.9916 33.9309 70.2599 35.311H70.0825V33.3076H67.7876V49.4571H70.1712V43.5916H70.3597C70.9916 44.8716 72.3553 45.6284 74.0737 45.6284C77.1225 45.6284 79.0627 43.2132 79.0627 39.3623C79.0627 35.5114 77.1225 33.1073 74.0515 33.1073ZM73.3752 43.4804C71.3797 43.4804 70.1269 41.8999 70.1269 39.3734C70.1269 36.8358 71.3797 35.2554 73.3863 35.2554C75.4041 35.2554 76.6125 36.8024 76.6125 39.3623C76.6125 41.9333 75.4041 43.4804 73.3752 43.4804Z" fill="#2A364D"/>
<path d="M87.4034 33.1073C85.7625 33.1073 84.3435 33.9309 83.6117 35.311H83.4344V33.3076H81.1394V49.4571H83.523V43.5916H83.7115C84.3435 44.8716 85.7071 45.6284 87.4255 45.6284C90.4743 45.6284 92.4145 43.2132 92.4145 39.3623C92.4145 35.5114 90.4743 33.1073 87.4034 33.1073ZM86.7271 43.4804C84.7315 43.4804 83.4787 41.8999 83.4787 39.3734C83.4787 36.8358 84.7315 35.2554 86.7382 35.2554C88.7559 35.2554 89.9644 36.8024 89.9644 39.3623C89.9644 41.9333 88.7559 43.4804 86.7271 43.4804Z" fill="#2A364D"/>
<path d="M63.511 45.4281H66.2458L60.259 28.7819H57.4897L51.5029 45.4281H54.1458L55.6741 41.0099H61.9942L63.511 45.4281ZM58.7422 31.8043H58.9376L61.3392 38.8411H56.3291L58.7422 31.8043Z" fill="#2A364D"/>
<path d="M51.4365 17.0408V23.6206H53.8029C55.756 23.6206 56.887 22.4122 56.887 20.3102C56.887 18.24 55.747 17.0408 53.8029 17.0408H51.4365ZM52.4539 17.971H53.6894C55.0475 17.971 55.8514 18.8374 55.8514 20.3238C55.8514 21.8331 55.0611 22.6904 53.6894 22.6904H52.4539V17.971Z" fill="#2A364D"/>
<path d="M60.3508 23.7163C61.7952 23.7163 62.6809 22.7451 62.6809 21.1355C62.6809 19.535 61.7906 18.5592 60.3508 18.5592C58.9064 18.5592 58.0162 19.535 58.0162 21.1355C58.0162 22.7451 58.9019 23.7163 60.3508 23.7163ZM60.3508 22.8454C59.5014 22.8454 59.0245 22.2207 59.0245 21.1355C59.0245 20.0594 59.5014 19.4301 60.3508 19.4301C61.1956 19.4301 61.6771 20.0594 61.6771 21.1355C61.6771 22.2162 61.1956 22.8454 60.3508 22.8454Z" fill="#2A364D"/>
<path d="M70.2235 18.655H69.2469L68.3657 22.4442H68.2885L67.2711 18.655H66.3354L65.318 22.4442H65.2453L64.3596 18.655H63.3695L64.7321 23.6206H65.7359L66.7533 19.9636H66.8305L67.8525 23.6206H68.8654L70.2235 18.655Z" fill="#2A364D"/>
<path d="M71.3481 23.6206H72.3246V20.716C72.3246 19.9408 72.7834 19.4575 73.5056 19.4575C74.2278 19.4575 74.5729 19.8542 74.5729 20.6522V23.6206H75.5495V20.4059C75.5495 19.2249 74.9409 18.5592 73.8371 18.5592C73.0922 18.5592 72.6017 18.8921 72.361 19.4438H72.2883V18.655H71.3481V23.6206Z" fill="#2A364D"/>
<path d="M77.0874 23.6206H78.064V16.717H77.0874V23.6206Z" fill="#2A364D"/>
<path d="M81.7367 23.7163C83.1811 23.7163 84.0668 22.7451 84.0668 21.1355C84.0668 19.535 83.1765 18.5592 81.7367 18.5592C80.2923 18.5592 79.4021 19.535 79.4021 21.1355C79.4021 22.7451 80.2878 23.7163 81.7367 23.7163ZM81.7367 22.8454C80.8873 22.8454 80.4104 22.2207 80.4104 21.1355C80.4104 20.0594 80.8873 19.4301 81.7367 19.4301C82.5815 19.4301 83.063 20.0594 83.063 21.1355C83.063 22.2162 82.5815 22.8454 81.7367 22.8454Z" fill="#2A364D"/>
<path d="M86.9764 22.8773C86.445 22.8773 86.0589 22.6174 86.0589 22.1706C86.0589 21.7328 86.3678 21.5003 87.0491 21.4547L88.2573 21.3772V21.7921C88.2573 22.4077 87.7123 22.8773 86.9764 22.8773ZM86.7266 23.7027C87.3761 23.7027 87.9167 23.42 88.2119 22.9229H88.2891V23.6206H89.2293V20.2281C89.2293 19.1793 88.5298 18.5592 87.2899 18.5592C86.168 18.5592 85.3686 19.1064 85.2686 19.9591H86.2134C86.3224 19.608 86.6994 19.4073 87.2444 19.4073C87.9121 19.4073 88.2573 19.7037 88.2573 20.2281V20.6567L86.9174 20.7342C85.741 20.8072 85.0779 21.3224 85.0779 22.2162C85.0779 23.1236 85.7728 23.7027 86.7266 23.7027Z" fill="#2A364D"/>
<path d="M92.5432 23.7027C93.2245 23.7027 93.8014 23.3789 94.0966 22.8363H94.1738V23.6206H95.1095V16.717H94.1329V19.4438H94.0603C93.7923 18.8966 93.22 18.5729 92.5432 18.5729C91.2941 18.5729 90.4902 19.5669 90.4902 21.1355C90.4902 22.7086 91.2851 23.7027 92.5432 23.7027ZM92.8203 19.4529C93.6379 19.4529 94.1511 20.105 94.1511 21.1401C94.1511 22.1797 93.6424 22.8226 92.8203 22.8226C91.9936 22.8226 91.4985 22.1888 91.4985 21.1355C91.4985 20.0913 91.9982 19.4529 92.8203 19.4529Z" fill="#2A364D"/>
<path d="M101.442 23.7163C102.886 23.7163 103.772 22.7451 103.772 21.1355C103.772 19.535 102.882 18.5592 101.442 18.5592C99.9977 18.5592 99.1074 19.535 99.1074 21.1355C99.1074 22.7451 99.9931 23.7163 101.442 23.7163ZM101.442 22.8454C100.593 22.8454 100.116 22.2207 100.116 21.1355C100.116 20.0594 100.593 19.4301 101.442 19.4301C102.287 19.4301 102.768 20.0594 102.768 21.1355C102.768 22.2162 102.287 22.8454 101.442 22.8454Z" fill="#2A364D"/>
<path d="M105.065 23.6206H106.041V20.716C106.041 19.9408 106.5 19.4575 107.222 19.4575C107.944 19.4575 108.29 19.8542 108.29 20.6522V23.6206H109.266V20.4059C109.266 19.2249 108.658 18.5592 107.554 18.5592C106.809 18.5592 106.318 18.8921 106.078 19.4438H106.005V18.655H105.065V23.6206Z" fill="#2A364D"/>
<path d="M113.764 17.4193V18.6778H112.978V19.5031H113.764V22.3074C113.764 23.2649 114.195 23.6479 115.281 23.6479C115.472 23.6479 115.653 23.6251 115.812 23.5978V22.7816C115.676 22.7953 115.59 22.8044 115.44 22.8044C114.954 22.8044 114.74 22.5764 114.74 22.0566V19.5031H115.812V18.6778H114.74V17.4193H113.764Z" fill="#2A364D"/>
<path d="M117.123 23.6206H118.1V20.7205C118.1 19.9682 118.545 19.462 119.344 19.462C120.035 19.462 120.402 19.8633 120.402 20.6567V23.6206H121.379V20.415C121.379 19.2341 120.73 18.5638 119.676 18.5638C118.931 18.5638 118.409 18.8966 118.168 19.4529H118.091V16.717H117.123V23.6206Z" fill="#2A364D"/>
<path d="M124.902 19.3936C125.624 19.3936 126.096 19.8998 126.119 20.6795H123.621C123.676 19.9043 124.18 19.3936 124.902 19.3936ZM126.115 22.28C125.933 22.6676 125.529 22.8819 124.938 22.8819C124.157 22.8819 123.653 22.3302 123.621 21.4592V21.4045H127.114V21.0625C127.114 19.5031 126.283 18.5592 124.906 18.5592C123.512 18.5592 122.626 19.5669 122.626 21.1537C122.626 22.7405 123.494 23.7163 124.911 23.7163C126.042 23.7163 126.832 23.1692 127.055 22.28H126.115Z" fill="#2A364D"/>
<rect x="1.26953" y="1" width="191.73" height="62" rx="11" stroke="#2A364D" stroke-width="2"/>
</svg>
