<svg width="194" height="64" viewBox="0 0 194 64" fill="none" xmlns="http://www.w3.org/2000/svg">
<rect x="1.26953" y="1" width="191.73" height="62" rx="11" fill="white"/>
<g filter="url(#filter0_ii_264_3809)">
<path d="M18.3366 17.1936C17.9888 17.5632 17.7832 18.1368 17.7832 18.8796V45.4188C17.7832 46.1628 17.9888 46.7352 18.3366 47.1048L18.4251 47.1912L33.2341 32.3244V32.1492V31.974L18.4251 17.106L18.3366 17.1936Z" fill="url(#paint0_linear_264_3809)"/>
<path d="M38.1689 37.2812L33.2334 32.324V32.1488V31.9736L38.1701 27.0176L38.2813 27.0812L44.1301 30.4172C45.7999 31.37 45.7999 32.9288 44.1301 33.8828L38.2813 37.2188L38.1689 37.2812Z" fill="url(#paint1_linear_264_3809)"/>
<g filter="url(#filter1_i_264_3809)">
<path d="M38.2823 37.2177L33.2332 32.1489L18.3369 47.1045C18.8868 47.6901 19.7964 47.7621 20.8208 47.1789L38.2823 37.2177Z" fill="url(#paint2_linear_264_3809)"/>
</g>
<path d="M38.2823 27.0803L20.8208 17.1203C19.7964 16.5359 18.8868 16.6091 18.3369 17.1947L33.2344 32.1503L38.2823 27.0803Z" fill="url(#paint3_linear_264_3809)"/>
</g>
<path d="M82.9424 33.6011C80.2871 33.6011 78.1229 35.6198 78.1229 38.4001C78.1229 41.1635 80.2871 43.1991 82.9424 43.1991C85.5988 43.1991 87.763 41.1635 87.763 38.4001C87.7619 35.6198 85.5977 33.6011 82.9424 33.6011ZM82.9424 41.3102C81.4872 41.3102 80.2329 40.1108 80.2329 38.4013C80.2329 36.6737 81.4883 35.4923 82.9424 35.4923C84.3976 35.4923 85.6519 36.6737 85.6519 38.4013C85.6519 40.1096 84.3976 41.3102 82.9424 41.3102ZM72.4273 33.6011C69.772 33.6011 67.6078 35.6198 67.6078 38.4001C67.6078 41.1635 69.772 43.1991 72.4273 43.1991C75.0837 43.1991 77.2479 41.1635 77.2479 38.4001C77.2479 35.6198 75.0837 33.6011 72.4273 33.6011ZM72.4273 41.3102C70.9721 41.3102 69.7178 40.1108 69.7178 38.4013C69.7178 36.6737 70.9732 35.4923 72.4273 35.4923C73.8825 35.4923 75.1368 36.6737 75.1368 38.4013C75.1379 40.1096 73.8825 41.3102 72.4273 41.3102ZM59.9207 35.0748V37.1104H64.7956C64.6499 38.2557 64.2683 39.0918 63.6858 39.673C62.9768 40.3816 61.8671 41.1635 59.9207 41.1635C56.92 41.1635 54.574 38.7454 54.574 35.7462C54.574 32.7469 56.92 30.3288 59.9207 30.3288C61.5397 30.3288 62.7217 30.9652 63.5944 31.7833L65.0315 30.3469C63.8122 29.1835 62.1945 28.2932 59.9207 28.2932C55.8102 28.2932 52.3545 31.6377 52.3545 35.7462C52.3545 39.8546 55.8102 43.1991 59.9207 43.1991C62.1391 43.1991 63.8134 42.4713 65.1218 41.1083C66.4675 39.7632 66.8864 37.8721 66.8864 36.3454C66.8864 35.8737 66.8503 35.437 66.7769 35.0737L59.9207 35.0748ZM111.071 36.6557C110.672 35.5837 109.452 33.6011 106.961 33.6011C104.487 33.6011 102.432 35.5465 102.432 38.4001C102.432 41.0902 104.469 43.1991 107.197 43.1991C109.397 43.1991 110.671 41.8541 111.199 41.0721L109.562 39.981C109.017 40.781 108.27 41.308 107.197 41.308C106.124 41.308 105.36 40.8171 104.869 39.8535L111.289 37.1995L111.071 36.6557ZM104.523 38.2557C104.469 36.4006 105.961 35.4562 107.034 35.4562C107.871 35.4562 108.58 35.8748 108.817 36.474L104.523 38.2557ZM99.3043 42.9092H101.413V28.8032H99.3043V42.9092ZM95.8475 34.6742H95.7752C95.3022 34.11 94.3922 33.6011 93.2475 33.6011C90.8462 33.6011 88.6459 35.7101 88.6459 38.4193C88.6459 41.1094 90.8462 43.2003 93.2475 43.2003C94.3934 43.2003 95.3022 42.6914 95.7752 42.1103H95.8475V42.8008C95.8475 44.6367 94.8653 45.6184 93.2836 45.6184C91.9921 45.6184 91.1916 44.692 90.8642 43.91L89.0274 44.6739C89.5547 45.9456 90.9546 47.5096 93.2836 47.5096C95.7571 47.5096 97.8491 46.0551 97.8491 42.5097V33.8934H95.8486L95.8475 34.6742ZM93.4292 41.3102C91.974 41.3102 90.7559 40.0916 90.7559 38.4193C90.7559 36.7279 91.974 35.4923 93.4292 35.4923C94.8653 35.4923 95.9931 36.7279 95.9931 38.4193C95.9931 40.0916 94.8653 41.3102 93.4292 41.3102ZM120.954 28.8032H115.907V42.9092H118.012V37.5651H120.953C123.288 37.5651 125.584 35.8759 125.584 33.1848C125.584 30.4936 123.289 28.8032 120.954 28.8032ZM121.008 35.6017H118.012V30.7666H121.008C122.583 30.7666 123.477 32.0699 123.477 33.1848C123.477 34.277 122.583 35.6017 121.008 35.6017ZM134.028 33.5763C132.502 33.5763 130.923 34.2477 130.269 35.736L132.139 36.5157C132.538 35.736 133.284 35.481 134.064 35.481C135.153 35.481 136.261 36.1343 136.279 37.2955V37.441C135.897 37.2232 135.08 36.8971 134.082 36.8971C132.067 36.8971 130.014 38.0041 130.014 40.0724C130.014 41.9602 131.667 43.1755 133.518 43.1755C134.934 43.1755 135.715 42.5402 136.205 41.7954H136.278V42.8843H138.312V37.476C138.313 34.9732 136.441 33.5763 134.028 33.5763ZM133.772 41.3069C133.084 41.3069 132.121 40.9616 132.121 40.1085C132.121 39.0196 133.32 38.6021 134.355 38.6021C135.28 38.6021 135.716 38.8018 136.279 39.0738C136.115 40.3816 134.989 41.3069 133.772 41.3069ZM145.72 33.8843L143.305 40.0002H143.233L140.727 33.8843H138.458L142.216 42.4318L140.073 47.1869H142.27L148.063 33.8843H145.72ZM126.747 42.9092H128.852V28.8032H126.747V42.9092Z" fill="#2A364D"/>
<path d="M59.6575 20.4596C59.6575 21.3881 59.3778 22.1271 58.8172 22.6788C58.1811 23.3347 57.3509 23.6627 56.3312 23.6627C55.3544 23.6627 54.5231 23.3303 53.8407 22.6655C53.1572 21.9996 52.8154 21.1753 52.8154 20.1915C52.8154 19.2065 53.1572 18.3822 53.8407 17.7175C54.5231 17.0516 55.3544 16.7192 56.3312 16.7192C56.8162 16.7192 57.2798 16.8123 57.7197 16.9973C58.1608 17.1834 58.5138 17.4305 58.7777 17.7396L58.1833 18.3246C57.7355 17.7983 57.1185 17.5358 56.3301 17.5358C55.6172 17.5358 55.0014 17.7817 54.4814 18.2736C53.9614 18.7656 53.702 19.4048 53.702 20.1904C53.702 20.9759 53.9614 21.6152 54.4814 22.1071C55.0014 22.599 55.6172 22.845 56.3301 22.845C57.0858 22.845 57.7163 22.5979 58.2205 22.1027C58.5476 21.7803 58.7371 21.3316 58.7879 20.7565H56.3301V19.9577H59.609C59.6429 20.1317 59.6575 20.299 59.6575 20.4596Z" fill="#2A364D"/>
<path d="M64.8575 17.6832H61.7759V19.7905H64.5552V20.5893H61.7759V22.6966H64.8575V23.5143H60.9063V16.8666H64.8575V17.6832Z" fill="#2A364D"/>
<path d="M68.5243 23.5143H67.6546V17.6832H65.7642V16.8666H70.4147V17.6832H68.5243V23.5143Z" fill="#2A364D"/>
<path d="M73.7793 23.5143V16.8666H74.649V23.5143H73.7793Z" fill="#2A364D"/>
<path d="M78.5056 23.5143H77.6359V17.6832H75.7455V16.8666H80.396V17.6832H78.5056V23.5143Z" fill="#2A364D"/>
<path d="M89.1994 22.6556C88.5339 23.327 87.7071 23.6627 86.7179 23.6627C85.7287 23.6627 84.9019 23.327 84.2375 22.6556C83.572 21.9842 83.2404 21.1621 83.2404 20.1904C83.2404 19.2188 83.572 18.3967 84.2375 17.7253C84.9019 17.0539 85.7287 16.717 86.7179 16.717C87.7014 16.717 88.5271 17.055 89.1948 17.7297C89.8626 18.4044 90.1964 19.2243 90.1964 20.1904C90.1964 21.1621 89.8637 21.9842 89.1994 22.6556ZM84.8793 22.0983C85.3801 22.5969 85.9926 22.8451 86.7179 22.8451C87.4431 22.8451 88.0567 22.5958 88.5564 22.0983C89.0572 21.5997 89.3088 20.9638 89.3088 20.1904C89.3088 19.4171 89.0572 18.7811 88.5564 18.2826C88.0567 17.784 87.4431 17.5358 86.7179 17.5358C85.9926 17.5358 85.3801 17.7851 84.8793 18.2826C84.3797 18.7811 84.1281 19.4171 84.1281 20.1904C84.1281 20.9638 84.3797 21.5997 84.8793 22.0983Z" fill="#2A364D"/>
<path d="M91.4169 23.5143V16.8666H92.4749L95.764 22.0374H95.8012L95.764 20.7566V16.8666H96.6336V23.5143H95.7257L92.2843 18.092H92.2471L92.2843 19.3728V23.5143H91.4169Z" fill="#2A364D"/>
<path d="M59.6575 20.4596C59.6575 21.3881 59.3778 22.1271 58.8172 22.6788C58.1811 23.3347 57.3509 23.6627 56.3312 23.6627C55.3544 23.6627 54.5231 23.3303 53.8407 22.6655C53.1572 21.9996 52.8154 21.1753 52.8154 20.1915C52.8154 19.2065 53.1572 18.3822 53.8407 17.7175C54.5231 17.0516 55.3544 16.7192 56.3312 16.7192C56.8162 16.7192 57.2798 16.8123 57.7197 16.9973C58.1608 17.1834 58.5138 17.4305 58.7777 17.7396L58.1833 18.3246C57.7355 17.7983 57.1185 17.5358 56.3301 17.5358C55.6172 17.5358 55.0014 17.7817 54.4814 18.2736C53.9614 18.7656 53.702 19.4048 53.702 20.1904C53.702 20.9759 53.9614 21.6152 54.4814 22.1071C55.0014 22.599 55.6172 22.845 56.3301 22.845C57.0858 22.845 57.7163 22.5979 58.2205 22.1027C58.5476 21.7803 58.7371 21.3316 58.7879 20.7565H56.3301V19.9577H59.609C59.6429 20.1317 59.6575 20.299 59.6575 20.4596Z" stroke="white" stroke-width="0.204511" stroke-miterlimit="10"/>
<path d="M64.8575 17.6832H61.7759V19.7905H64.5552V20.5893H61.7759V22.6966H64.8575V23.5143H60.9063V16.8666H64.8575V17.6832Z" stroke="white" stroke-width="0.204511" stroke-miterlimit="10"/>
<path d="M68.5243 23.5143H67.6546V17.6832H65.7642V16.8666H70.4147V17.6832H68.5243V23.5143Z" stroke="white" stroke-width="0.204511" stroke-miterlimit="10"/>
<path d="M73.7793 23.5143V16.8666H74.649V23.5143H73.7793Z" stroke="white" stroke-width="0.204511" stroke-miterlimit="10"/>
<path d="M78.5056 23.5143H77.6359V17.6832H75.7455V16.8666H80.396V17.6832H78.5056V23.5143Z" stroke="white" stroke-width="0.204511" stroke-miterlimit="10"/>
<path d="M89.1994 22.6556C88.5339 23.327 87.7071 23.6627 86.7179 23.6627C85.7287 23.6627 84.9019 23.327 84.2375 22.6556C83.572 21.9842 83.2404 21.1621 83.2404 20.1904C83.2404 19.2188 83.572 18.3967 84.2375 17.7253C84.9019 17.0539 85.7287 16.717 86.7179 16.717C87.7014 16.717 88.5271 17.055 89.1948 17.7297C89.8626 18.4044 90.1964 19.2243 90.1964 20.1904C90.1964 21.1621 89.8637 21.9842 89.1994 22.6556ZM84.8793 22.0983C85.3801 22.5969 85.9926 22.8451 86.7179 22.8451C87.4431 22.8451 88.0567 22.5958 88.5564 22.0983C89.0572 21.5997 89.3088 20.9638 89.3088 20.1904C89.3088 19.4171 89.0572 18.7811 88.5564 18.2826C88.0567 17.784 87.4431 17.5358 86.7179 17.5358C85.9926 17.5358 85.3801 17.7851 84.8793 18.2826C84.3797 18.7811 84.1281 19.4171 84.1281 20.1904C84.1281 20.9638 84.3797 21.5997 84.8793 22.0983Z" stroke="white" stroke-width="0.204511" stroke-miterlimit="10"/>
<path d="M91.4169 23.5143V16.8666H92.4749L95.764 22.0374H95.8012L95.764 20.7566V16.8666H96.6336V23.5143H95.7257L92.2843 18.092H92.2471L92.2843 19.3728V23.5143H91.4169Z" stroke="white" stroke-width="0.204511" stroke-miterlimit="10"/>
<rect x="1.26953" y="1" width="191.73" height="62" rx="11" stroke="#2A364D" stroke-width="2"/>
<defs>
<filter id="filter0_ii_264_3809" x="17.7832" y="16.717" width="27.5996" height="30.8647" filterUnits="userSpaceOnUse" color-interpolation-filters="sRGB">
<feFlood flood-opacity="0" result="BackgroundImageFix"/>
<feBlend mode="normal" in="SourceGraphic" in2="BackgroundImageFix" result="shape"/>
<feColorMatrix in="SourceAlpha" type="matrix" values="0 0 0 0 0 0 0 0 0 0 0 0 0 0 0 0 0 0 127 0" result="hardAlpha"/>
<feOffset dy="-0.795"/>
<feComposite in2="hardAlpha" operator="arithmetic" k2="-1" k3="1"/>
<feColorMatrix type="matrix" values="0 0 0 0 0 0 0 0 0 0 0 0 0 0 0 0 0 0 0.12 0"/>
<feBlend mode="normal" in2="shape" result="effect1_innerShadow_264_3809"/>
<feColorMatrix in="SourceAlpha" type="matrix" values="0 0 0 0 0 0 0 0 0 0 0 0 0 0 0 0 0 0 127 0" result="hardAlpha"/>
<feOffset dy="0.795"/>
<feComposite in2="hardAlpha" operator="arithmetic" k2="-1" k3="1"/>
<feColorMatrix type="matrix" values="0 0 0 0 1 0 0 0 0 1 0 0 0 0 1 0 0 0 0.25 0"/>
<feBlend mode="normal" in2="effect1_innerShadow_264_3809" result="effect2_innerShadow_264_3809"/>
</filter>
<filter id="filter1_i_264_3809" x="18.3369" y="32.1489" width="19.9453" height="15.4329" filterUnits="userSpaceOnUse" color-interpolation-filters="sRGB">
<feFlood flood-opacity="0" result="BackgroundImageFix"/>
<feBlend mode="normal" in="SourceGraphic" in2="BackgroundImageFix" result="shape"/>
<feColorMatrix in="SourceAlpha" type="matrix" values="0 0 0 0 0 0 0 0 0 0 0 0 0 0 0 0 0 0 127 0" result="hardAlpha"/>
<feOffset dy="-0.795"/>
<feComposite in2="hardAlpha" operator="arithmetic" k2="-1" k3="1"/>
<feColorMatrix type="matrix" values="0 0 0 0 0 0 0 0 0 0 0 0 0 0 0 0 0 0 0.08 0"/>
<feBlend mode="normal" in2="shape" result="effect1_innerShadow_264_3809"/>
</filter>
<linearGradient id="paint0_linear_264_3809" x1="31.9214" y1="18.5988" x2="11.7831" y2="38.6587" gradientUnits="userSpaceOnUse">
<stop stop-color="#00A0FF"/>
<stop offset="0.0066" stop-color="#00A1FF"/>
<stop offset="0.2601" stop-color="#00BEFF"/>
<stop offset="0.5122" stop-color="#00D2FF"/>
<stop offset="0.7604" stop-color="#00DFFF"/>
<stop offset="1" stop-color="#00E3FF"/>
</linearGradient>
<linearGradient id="paint1_linear_264_3809" x1="46.3038" y1="32.1488" x2="17.3816" y2="32.1488" gradientUnits="userSpaceOnUse">
<stop stop-color="#FFE000"/>
<stop offset="0.4087" stop-color="#FFBD00"/>
<stop offset="0.7754" stop-color="#FFA500"/>
<stop offset="1" stop-color="#FF9C00"/>
</linearGradient>
<linearGradient id="paint2_linear_264_3809" x1="35.5403" y1="34.9016" x2="8.2303" y2="62.1054" gradientUnits="userSpaceOnUse">
<stop stop-color="#FF3A44"/>
<stop offset="1" stop-color="#C31162"/>
</linearGradient>
<linearGradient id="paint3_linear_264_3809" x1="14.5852" y1="8.36009" x2="26.7799" y2="20.5073" gradientUnits="userSpaceOnUse">
<stop stop-color="#32A071"/>
<stop offset="0.0685" stop-color="#2DA771"/>
<stop offset="0.4762" stop-color="#15CF74"/>
<stop offset="0.8009" stop-color="#06E775"/>
<stop offset="1" stop-color="#00F076"/>
</linearGradient>
</defs>
</svg>
