<svg width="157" height="264" viewBox="0 0 157 264" fill="none" xmlns="http://www.w3.org/2000/svg">
<path d="M52.2491 256.474C50.9799 256.474 49.8164 255.933 49.0526 254.992C48.6589 254.503 48.3945 253.938 48.2769 253.332C47.8833 253.491 47.4602 253.574 47.0254 253.574C45.7385 253.574 44.4987 252.844 43.8758 251.714C43.5585 251.144 43.4763 250.602 43.5115 250.12C42.8534 250.114 42.1953 249.849 41.7487 249.408C40.5735 248.213 39.6804 246.172 42.0719 243.136C42.2129 242.959 42.354 242.788 42.4891 242.624L42.6595 242.418C43.8347 241.006 45.1686 239.876 46.661 238.652L47.0606 238.323C47.4543 237.999 47.5483 237.917 47.231 236.604H47.2369C47.1664 236.357 47.09 236.028 46.9783 235.563L45.1039 230.326C44.7455 229.332 44.8924 228.214 45.5035 227.343C46.1087 226.484 47.0841 225.972 48.13 225.972C48.1829 225.972 48.2417 225.972 48.3004 225.978L73.4202 227.273C75.2417 227.361 76.652 228.885 76.6167 230.732L76.4111 242.212C76.4111 248.596 72.1569 250.561 71.1697 250.932C62.7788 255.245 53.8356 256.316 52.966 256.416C52.7192 256.457 52.4841 256.474 52.2491 256.474Z" fill="#EDB659"/>
<path d="M48.1242 227.743C48.1477 227.743 48.1771 227.743 48.2006 227.743L71.0111 228.914L73.3145 229.032C74.1782 229.073 74.854 229.814 74.8422 230.697L74.6366 242.177C74.6366 248.043 70.4587 249.302 70.4587 249.302C61.9797 253.691 52.7133 254.656 52.7133 254.656C52.5547 254.686 52.4019 254.698 52.2491 254.698C50.8448 254.698 49.6931 253.568 50.0221 252.014C50.122 251.561 51.0034 250.538 50.1632 250.137C49.9399 250.032 49.7518 249.984 49.5873 249.984C48.7941 249.984 48.5825 251.073 47.9127 251.52C47.6365 251.703 47.3309 251.791 47.0195 251.791C46.379 251.791 45.7385 251.426 45.4095 250.838C44.8454 249.82 46.0441 249.084 45.8149 248.108C45.7327 247.76 45.4447 247.537 45.1039 247.537C45.0922 247.537 45.0746 247.537 45.0628 247.537C44.7866 247.554 44.2754 247.866 44.0933 248.066C43.9111 248.266 43.7055 248.331 43.5233 248.331C43.2824 248.331 43.0767 248.219 42.9886 248.131C41.6783 246.807 42.5479 245.354 43.4528 244.201C43.6467 243.959 43.8406 243.724 44.0169 243.512C45.1216 242.188 46.4495 241.076 47.7716 239.994C47.9068 239.888 48.0302 239.776 48.1653 239.67C49.3934 238.652 49.2876 237.628 48.941 236.175C48.9351 236.169 48.6707 235.039 48.6707 235.039L46.761 229.708C46.4143 228.767 47.1253 227.743 48.1242 227.743ZM48.1242 224.213C46.5083 224.213 44.9923 225.007 44.058 226.337C43.1179 227.679 42.8887 229.397 43.4469 230.938L45.2861 236.075C45.3742 236.451 45.4506 236.763 45.5211 237.022H45.5153C45.5388 237.116 45.5564 237.193 45.574 237.263L45.5505 237.281C44.0404 238.517 42.5831 239.752 41.3139 241.27L41.3022 241.282L41.2904 241.294L41.1259 241.494C40.9849 241.665 40.838 241.841 40.6911 242.024C37.2008 246.448 39.3807 249.514 40.4796 250.632C40.8909 251.044 41.3786 251.355 41.9133 251.567C42.0073 251.891 42.1425 252.22 42.3305 252.556C43.2765 254.268 45.0746 255.327 47.0254 255.327C47.0724 255.327 47.1194 255.327 47.1664 255.327C47.3192 255.592 47.4896 255.851 47.6835 256.092C48.7823 257.451 50.4452 258.234 52.2491 258.234C52.5605 258.234 52.8778 258.21 53.1893 258.163C54.341 258.034 63.3958 256.892 71.916 252.526C73.4144 251.914 78.1504 249.408 78.1621 242.212L78.3678 230.762C78.4148 227.949 76.2701 225.643 73.4907 225.507L71.1932 225.39L48.3827 224.219C48.3005 224.213 48.2123 224.213 48.1242 224.213Z" fill="#997738"/>
<path opacity="0.05" d="M42.9888 248.154C43.1416 248.307 43.6822 248.543 44.0935 248.084C44.2757 247.89 44.7869 247.572 45.0631 247.554C45.4215 247.537 45.7329 247.76 45.8211 248.119C46.0502 249.102 44.8515 249.831 45.4156 250.849C45.8974 251.72 47.0726 252.097 47.9129 251.532C48.7238 250.99 48.8589 249.52 50.1634 250.149C51.0037 250.549 50.1223 251.567 50.0224 252.026C49.6581 253.744 51.1094 254.945 52.7136 254.668C52.7136 254.668 61.9741 253.697 70.459 249.314C70.459 249.314 74.6368 248.054 74.6368 242.188L74.8425 230.709C74.8601 229.826 74.1785 229.085 73.3147 229.043L71.0113 228.926C71.0583 231.515 70.9056 234.11 70.8351 236.698C70.8292 236.834 70.8292 236.969 70.8292 237.104C70.8292 237.24 70.8233 237.381 70.8174 237.534C70.8292 237.61 70.8233 237.705 70.8116 237.805C70.8057 237.846 70.7998 237.887 70.7939 237.928C69.889 244.971 66.4986 251.008 57.6083 250.849C53.0485 250.767 47.6661 250.026 44.7105 246.348C44.2169 245.73 43.788 245.03 43.4472 244.236C42.5481 245.377 41.6844 246.831 42.9888 248.154Z" fill="#2D2D2D"/>
<path d="M44.4044 249.69C44.4044 249.69 44.7922 248.272 46.555 246.837L44.4044 249.69Z" fill="#EDB659"/>
<path d="M44.4044 249.69C44.4044 249.69 44.7922 248.272 46.555 246.837" stroke="#997738" stroke-width="4" stroke-miterlimit="10" stroke-linecap="round" stroke-linejoin="round"/>
<path d="M48.9708 252.338C48.9708 252.338 49.3233 250.791 50.9627 249.555L48.9708 252.338Z" fill="#EDB659"/>
<path d="M48.9708 252.338C48.9708 252.338 49.3233 250.791 50.9627 249.555" stroke="#997738" stroke-width="4" stroke-miterlimit="10" stroke-linecap="round" stroke-linejoin="round"/>
<path d="M78.5151 219.971L78.1332 231.868C78.1273 232.091 78.0979 232.427 77.8688 232.468C73.0857 233.256 67.0864 233.762 62.2563 233.592C58.3605 233.457 55.6341 233.339 51.7618 232.898C50.4691 232.75 48.8826 232.533 47.6134 232.274C46.1679 231.986 44.8869 231.68 44.3229 231.232C44.0232 230.991 43.8058 230.185 43.6824 229.814C42.8127 227.078 42.0841 222.877 41.3496 218.788C40.9618 216.611 40.3448 212.221 40.1157 210.021C39.9688 208.585 39.5927 206.52 40.4153 205.314C41.2262 204.125 43.1653 203.184 44.3287 202.448C50.0696 198.818 58.196 195.14 64.8946 198.177C73.4912 202.066 78.8148 210.698 78.5151 219.971Z" fill="#4571B2" stroke="#3D5488" stroke-width="6" stroke-miterlimit="10"/>
<g opacity="0.11">
<path d="M76.6759 220.465C76.7112 221.865 76.5584 230.903 76.3998 231.062C76.2823 231.179 71.3171 231.756 71.3053 231.621C71.2642 231.103 71.2583 230.485 71.27 229.967C71.2818 229.432 71.1055 220.535 70.6589 216.646C70.418 214.534 70.2711 212.727 69.2076 210.868C68.238 209.174 66.9865 207.685 65.9229 206.055C65.1297 204.831 64.0309 203.384 62.744 202.348C64.1249 202.719 65.4822 203.201 66.7397 203.807C72.1044 206.396 75.1952 211.504 76.3528 217.358C76.5584 218.376 76.6524 219.417 76.6759 220.465Z" fill="#2B2B2B"/>
</g>
<path opacity="0.06" d="M44.2929 208.832C44.4868 210.28 44.5867 211.557 44.7395 213.128C45.0215 216.046 46.2555 221.153 48.4355 226.402C48.7821 227.231 51.491 231.097 51.679 231.097C49.8516 231.085 45.615 229.956 45.615 229.956C45.615 229.956 45.3212 229.067 45.2801 228.92C44.5456 226.331 43.7934 222.665 43.2587 219.365C43.0354 217.976 42.1188 213.08 41.8955 209.262C42.1247 209.285 43.7758 208.985 44.2929 208.832Z" fill="#F3FBFF"/>
<path d="M107.453 256.245C107.218 256.245 106.983 256.227 106.748 256.186C105.872 256.086 96.9292 255.015 88.5383 250.702C87.5511 250.332 83.2969 248.36 83.2969 241.953L83.0913 230.503C83.0619 228.649 84.4662 227.131 86.2937 227.043L111.408 225.749C111.466 225.749 111.519 225.743 111.578 225.743C112.618 225.743 113.599 226.255 114.199 227.114C114.81 227.984 114.957 229.102 114.598 230.103L112.724 235.333C112.606 235.822 112.53 236.145 112.465 236.375H112.471C112.16 237.687 112.254 237.769 112.653 238.099L113.035 238.411C114.534 239.635 115.862 240.764 117.031 242.165L117.225 242.394C117.354 242.547 117.489 242.712 117.624 242.883C120.022 245.919 119.129 247.966 117.965 249.149C117.513 249.602 116.855 249.867 116.191 249.873C116.22 250.355 116.138 250.896 115.826 251.467C115.203 252.597 113.964 253.327 112.677 253.327C112.242 253.327 111.819 253.244 111.425 253.085C111.308 253.691 111.043 254.25 110.65 254.745C109.886 255.704 108.722 256.245 107.453 256.245Z" fill="#EDB659"/>
<path d="M111.578 227.514C112.583 227.514 113.294 228.538 112.942 229.508L111.032 234.839C111.032 234.839 110.762 235.969 110.762 235.975C110.415 237.428 110.309 238.452 111.537 239.47C111.672 239.576 111.796 239.688 111.931 239.794C113.253 240.876 114.587 241.988 115.686 243.312C115.862 243.524 116.056 243.753 116.25 244.001C117.155 245.148 118.024 246.607 116.714 247.931C116.626 248.019 116.42 248.131 116.179 248.131C115.991 248.131 115.786 248.066 115.609 247.866C115.427 247.672 114.916 247.354 114.64 247.337C114.628 247.337 114.61 247.337 114.599 247.337C114.258 247.337 113.97 247.56 113.888 247.907C113.658 248.89 114.857 249.62 114.293 250.638C113.97 251.226 113.329 251.591 112.683 251.591C112.377 251.591 112.066 251.508 111.79 251.32C111.12 250.867 110.908 249.784 110.115 249.784C109.951 249.784 109.763 249.831 109.539 249.937C108.699 250.337 109.581 251.355 109.68 251.814C110.009 253.368 108.858 254.497 107.453 254.497C107.301 254.497 107.142 254.486 106.989 254.456C106.989 254.456 97.7287 253.485 89.2438 249.102C89.2438 249.102 85.066 247.843 85.066 241.976L84.8603 230.497C84.8427 229.614 85.5243 228.873 86.3881 228.832L88.6915 228.714L111.502 227.543C111.525 227.514 111.549 227.514 111.578 227.514ZM111.578 223.983C111.49 223.983 111.408 223.983 111.32 223.989L88.5093 225.16L86.2001 225.278C83.4266 225.413 81.2819 227.72 81.3289 230.532L81.5345 241.988C81.5522 249.184 86.2882 251.691 87.7807 252.303C96.3008 256.669 105.356 257.81 106.507 257.94C106.819 257.987 107.136 258.01 107.448 258.01C109.251 258.01 110.914 257.228 112.013 255.868C112.207 255.627 112.383 255.374 112.53 255.103C112.577 255.103 112.624 255.103 112.671 255.103C114.622 255.103 116.42 254.044 117.366 252.332C117.554 251.997 117.689 251.661 117.783 251.344C118.312 251.132 118.794 250.826 119.194 250.426C120.316 249.29 122.496 246.225 119.011 241.806C118.859 241.618 118.712 241.441 118.577 241.27L118.412 241.07L118.4 241.059L118.389 241.047C117.119 239.529 115.662 238.293 114.158 237.057L114.129 237.034C114.146 236.963 114.164 236.881 114.187 236.793H114.181C114.252 236.528 114.328 236.222 114.416 235.845L116.262 230.703C116.814 229.167 116.585 227.449 115.645 226.113C114.71 224.778 113.188 223.983 111.578 223.983Z" fill="#997738"/>
<path opacity="0.05" d="M116.884 248.154C116.731 248.307 116.191 248.543 115.78 248.084C115.597 247.89 115.086 247.572 114.81 247.554C114.452 247.537 114.14 247.76 114.052 248.119C113.823 249.102 115.022 249.831 114.457 250.849C113.976 251.72 112.8 252.097 111.96 251.532C111.149 250.99 111.014 249.52 109.71 250.149C108.869 250.549 109.751 251.567 109.851 252.026C110.215 253.744 108.764 254.945 107.159 254.668C107.159 254.668 97.899 253.697 89.4141 249.314C89.4141 249.314 85.2363 248.054 85.2363 242.188L85.0306 230.709C85.013 229.826 85.6946 229.085 86.5584 229.043L88.8617 228.926C88.8147 231.515 88.9675 234.11 89.038 236.698C89.0439 236.834 89.0439 236.969 89.0439 237.104C89.0439 237.24 89.0498 237.381 89.0556 237.534C89.0439 237.61 89.0498 237.705 89.0615 237.805C89.0674 237.846 89.0733 237.887 89.0791 237.928C89.984 244.971 93.3745 251.008 102.265 250.849C106.825 250.767 112.207 250.026 115.163 246.348C115.656 245.73 116.085 245.03 116.426 244.236C117.325 245.377 118.195 246.831 116.884 248.154Z" fill="#2D2D2D"/>
<path d="M115.468 249.69C115.468 249.69 115.08 248.272 113.317 246.836L115.468 249.69Z" fill="#EDB659"/>
<path d="M115.468 249.69C115.468 249.69 115.08 248.272 113.317 246.836" stroke="#997738" stroke-width="4" stroke-miterlimit="10" stroke-linecap="round" stroke-linejoin="round"/>
<path d="M110.903 252.338C110.903 252.338 110.55 250.791 108.911 249.555L110.903 252.338Z" fill="#EDB659"/>
<path d="M110.903 252.338C110.903 252.338 110.55 250.791 108.911 249.555" stroke="#997738" stroke-width="4" stroke-miterlimit="10" stroke-linecap="round" stroke-linejoin="round"/>
<path d="M82.4277 219.971L82.8097 231.868C82.8155 232.091 82.8449 232.427 83.0741 232.468C87.8571 233.256 93.8565 233.762 98.6865 233.592C102.582 233.457 105.309 233.339 109.181 232.898C110.474 232.75 112.06 232.533 113.329 232.274C114.775 231.986 116.056 231.68 116.62 231.232C116.92 230.991 117.137 230.185 117.26 229.814C118.13 227.078 118.859 222.877 119.593 218.788C119.981 216.611 120.598 212.221 120.827 210.021C120.974 208.585 121.35 206.52 120.527 205.314C119.717 204.125 117.778 203.184 116.614 202.448C110.873 198.818 102.747 195.14 96.0482 198.177C87.4517 202.066 82.1339 210.698 82.4277 219.971Z" fill="#4571B2" stroke="#3D5488" stroke-width="6" stroke-miterlimit="10"/>
<g opacity="0.11">
<path d="M84.22 220.465C84.1847 221.865 84.3375 230.903 84.4961 231.062C84.6137 231.179 89.5788 231.756 89.5906 231.621C89.6317 231.103 89.6376 230.485 89.6259 229.967C89.6141 229.432 89.7904 220.535 90.237 216.646C90.4779 214.534 90.6248 212.727 91.6883 210.868C92.6578 209.174 93.9094 207.685 94.973 206.055C95.7662 204.831 96.865 203.384 98.1519 202.348C96.771 202.719 95.4137 203.201 94.1562 203.807C88.7915 206.396 85.7007 211.504 84.5431 217.358C84.3375 218.376 84.2493 219.417 84.22 220.465Z" fill="#2B2B2B"/>
</g>
<path opacity="0.06" d="M116.908 208.832C116.714 210.28 116.614 211.557 116.462 213.128C116.18 216.046 114.946 221.153 112.766 226.402C112.419 227.231 109.834 231.021 109.64 231.038C113.306 230.709 115.392 229.932 115.392 229.932C115.392 229.932 115.616 229.073 115.657 228.92C116.391 226.331 117.161 222.571 117.696 219.27C117.919 217.882 118.777 212.951 119.129 209.026C118.906 209.05 117.431 208.985 116.908 208.832Z" fill="#F3FBFF"/>
<path d="M82.0755 222.048V222.071C81.9345 222.071 81.7934 222.077 81.6524 222.077C81.4997 222.077 81.3469 222.077 81.1941 222.071C81.4879 222.071 81.7817 222.059 82.0755 222.048Z" fill="#5B82BE"/>
<path d="M120.152 197.553C119.917 202.719 40.6203 204.614 40.4911 200.542C40.397 197.512 40.4969 193.746 40.8025 189.08C41.5546 177.471 43.5054 161.649 50.063 146.504C50.2217 146.133 50.6212 145.933 51.0149 146.021C55.8215 147.086 85.4657 153.129 109.604 146.092C110.033 145.968 110.48 146.192 110.621 146.616C112.266 151.393 121.051 178.001 120.152 197.553Z" fill="#F44D4D" stroke="#BF3D3D" stroke-width="6" stroke-miterlimit="10"/>
<path d="M112.977 146.992C112.566 145.915 112.108 144.45 111.038 143.856C109.916 143.232 108.294 143.956 108.006 145.209C107.818 146.033 108.141 146.88 108.441 147.675C111.573 155.983 112.531 165.003 115.862 173.235C115.363 172.299 116.109 171.005 117.161 170.828C118.207 170.646 119.276 171.44 119.582 172.458C118.912 168.474 118.342 164.503 117.349 160.578C116.338 156.601 115.081 152.688 113.671 148.834C113.441 148.216 113.212 147.604 112.977 146.992Z" fill="#F44D4D"/>
<path d="M80.3066 221.388C77.492 221.436 75.0417 221.171 73.0615 220.818C73.0792 220.753 73.1027 220.682 73.1144 220.618C75.6998 221.135 78.1149 221.353 80.3066 221.388Z" fill="#4571B2"/>
<path d="M87.5517 220.818C85.5714 221.171 83.1212 221.436 80.3066 221.389C82.4983 221.353 84.9133 221.136 87.4988 220.618C87.5105 220.683 87.534 220.753 87.5517 220.818Z" fill="#4571B2"/>
<path d="M80.7774 207.609C60.3877 207.914 40.004 208.109 39.9864 207.726C39.8042 203.76 39.2108 192.304 40.1509 189.068C40.3213 188.474 41.2321 190.074 44.2523 190.663C46.068 191.016 47.9659 191.186 49.6876 190.404C51.9851 189.357 53.4541 186.962 54.0358 184.485C54.547 182.29 54.4648 180.007 54.312 177.753C54.2826 177.324 54.6763 176.989 55.0994 177.089C63.455 179.036 72.0398 179.995 80.6187 179.954H80.3425C88.5513 179.989 96.76 179.119 104.769 177.336C105.727 177.124 106.626 177.871 106.579 178.854C106.479 180.748 106.491 182.643 106.92 184.485C107.501 186.962 108.97 189.357 111.268 190.404C112.989 191.186 114.887 191.016 116.703 190.663C119.723 190.074 120.634 188.474 120.804 189.068C121.745 192.304 121.157 203.76 120.969 207.726C120.951 208.109 100.568 207.914 80.178 207.609H80.7774Z" fill="#4571B2" stroke="#3D5488" stroke-width="6" stroke-miterlimit="10"/>
<path d="M118.883 211.221L118.636 211.315C118.454 211.298 117.672 211.192 116.438 211.18C114.893 211.162 112.636 211.292 109.939 211.904C105.509 212.91 101.566 214.581 101.296 214.657C91.4829 221.395 83.2331 221.524 78.2503 221.253C71.9865 220.912 65.094 218.659 60.2345 214.816C55.9568 211.427 48.4356 211.062 44.5516 211.109C43.1707 211.121 42.2482 211.186 42.0954 211.186H42.0719C42.066 211.151 42.066 211.121 42.0602 211.08C41.9955 210.368 41.6606 206.143 41.5019 199.936C41.4961 199.865 41.4961 199.801 41.4961 199.73C41.4432 197.694 41.4138 195.441 41.4197 193.04C41.4197 193.04 41.4373 193.034 41.4784 193.04C41.6959 193.028 42.5067 193.04 43.7466 193.058C50.5803 193.175 70.3177 193.622 73.2028 193.664C73.5142 193.664 73.8315 193.669 74.143 193.675C76.176 193.699 78.2385 193.722 80.3127 193.752C88.4979 193.646 96.6891 193.558 103.429 193.505C104.504 193.499 105.538 193.493 106.531 193.487C106.625 193.487 106.719 193.481 106.807 193.487C107.125 193.481 107.436 193.481 107.742 193.481C111.72 193.458 114.928 193.452 116.926 193.464C118.248 193.475 119.047 193.493 119.194 193.522C119.212 193.528 119.223 193.528 119.223 193.534C119.811 207.15 118.9 211.104 118.883 211.221Z" fill="#4571B2"/>
<path opacity="0.06" d="M118.882 211.315C118.7 211.298 117.877 211.192 116.643 211.18C117.548 202.901 116.879 192.516 116.879 192.498C118.453 192.063 119.423 191.598 119.423 191.633C119.429 192.134 119.805 204.46 118.882 211.315Z" fill="#F3FBFF"/>
<path d="M74.1432 193.675C73.8318 193.67 73.5145 193.664 73.2031 193.664L74.1315 193.458L74.1432 193.675Z" fill="#4571B2"/>
<path opacity="0.06" d="M44.5516 211.109C43.1707 211.121 42.2482 211.186 42.0954 211.186H42.0719C42.066 211.151 42.066 211.121 42.0602 211.08C41.9133 209.727 41.6018 206.155 41.5019 199.936C41.4961 199.865 41.4961 199.8 41.4961 199.73C41.4667 197.776 41.4549 195.564 41.4784 193.081V193.04C41.4843 192.575 41.4902 192.11 41.4961 191.628C41.4961 191.592 42.2717 191.998 43.7818 192.263C43.7818 192.281 43.7701 192.557 43.7466 193.022V193.057C43.6819 194.47 43.5585 197.576 43.6467 200.842C43.7466 204.684 44.3753 209.332 44.5516 211.109Z" fill="#F3FBFF"/>
<path d="M60.2754 215.293C60.2754 215.293 68.3196 221.93 79.7895 221.771C79.7895 221.771 93.5451 221.859 100.138 214.822" stroke="#3D5488" stroke-width="6" stroke-miterlimit="10" stroke-linecap="round" stroke-linejoin="round"/>
<path d="M107.207 155.53C106.784 157.766 106.367 159.984 106.76 162.279C107.154 164.579 108.511 166.662 110.339 168.104C111.931 169.357 114.158 170.398 116.209 170.522C118.353 170.651 120.874 169.622 122.86 168.869C125.275 167.945 127.826 166.692 128.819 164.173C129.894 161.431 130.158 158.601 128.725 155.9C128.19 154.9 127.479 154.012 126.756 153.135C125.052 151.064 123.201 148.975 120.739 147.916C117.836 146.669 114.411 147.063 111.578 148.457C108.928 149.769 107.73 152.753 107.207 155.53Z" fill="#F44D4D"/>
<path d="M60.0055 182.596C56.8619 182.596 54.4057 180.466 54.0355 177.412C52.3491 163.667 49.6286 151.576 41.7959 137.219C39.9391 133.812 41.9193 131.806 43.1004 130.605C43.8642 129.835 45.2921 128.958 46.2969 128.652C47.002 128.434 47.7306 128.217 48.5239 128.217C50.6686 128.217 51.7968 129.852 52.4608 131.088C60.3581 145.762 64.248 158.831 65.8697 176.182C66.0813 178.424 65.2234 179.883 64.4713 180.713C63.3783 181.907 61.7507 182.596 60.0055 182.596Z" fill="#4571B2"/>
<path d="M48.5182 129.982C49.3644 129.982 50.0989 130.429 50.9039 131.923C58.9128 146.798 62.5736 159.943 64.1131 176.347C64.3892 179.313 62.2093 180.837 60.0058 180.837C58.0549 180.837 56.0806 179.642 55.7868 177.206C53.9241 161.984 50.8863 150.211 43.3474 136.383C42.1252 134.148 43.1887 133.041 44.3581 131.853C44.8869 131.317 46.0503 130.582 46.8142 130.347C47.4488 130.147 48.007 129.982 48.5182 129.982ZM48.5182 126.451C47.4664 126.451 46.5322 126.734 45.78 126.963C44.4991 127.352 42.8068 128.387 41.8431 129.364C40.6209 130.605 37.7652 133.506 40.2508 138.066C47.9424 152.176 50.6277 164.085 52.2847 177.63C52.7725 181.596 55.9455 184.361 60.0058 184.361C62.2445 184.361 64.3481 183.461 65.7701 181.896C67.1744 180.354 67.8267 178.265 67.621 176.012C65.9934 158.636 61.9213 144.95 54.0064 130.247C52.6549 127.728 50.804 126.451 48.5182 126.451Z" fill="#3D5488"/>
<path d="M100.361 182.596C98.616 182.596 96.9883 181.907 95.8954 180.707C95.1433 179.877 94.2913 178.424 94.4969 176.176C96.1246 158.825 100.009 145.762 107.906 131.082C108.57 129.852 109.698 128.211 111.843 128.211C112.636 128.211 113.365 128.434 114.07 128.646C115.075 128.952 116.502 129.829 117.266 130.6C118.447 131.8 120.428 133.806 118.571 137.213C110.744 151.57 108.018 163.661 106.331 177.406C105.961 180.466 103.505 182.596 100.361 182.596Z" fill="#4571B2"/>
<path d="M111.849 129.982C112.366 129.982 112.924 130.147 113.559 130.341C114.322 130.57 115.486 131.312 116.015 131.847C117.184 133.03 118.248 134.142 117.025 136.378C109.486 150.205 106.449 161.979 104.586 177.2C104.286 179.642 102.318 180.831 100.367 180.831C98.1635 180.831 95.9835 179.307 96.2597 176.341C97.7933 159.943 101.46 146.798 109.469 131.918C110.268 130.423 111.002 129.982 111.849 129.982ZM111.849 126.451C109.563 126.451 107.718 127.728 106.36 130.247C98.4455 144.95 94.3735 158.636 92.7458 176.012C92.5343 178.265 93.1924 180.354 94.5968 181.896C96.0246 183.461 98.1224 184.361 100.361 184.361C104.421 184.361 107.594 181.59 108.082 177.63C110.374 158.907 114.552 148.269 120.116 138.066C122.602 133.512 119.74 130.605 118.524 129.364C117.56 128.387 115.868 127.352 114.587 126.963C113.835 126.734 112.9 126.451 111.849 126.451Z" fill="#3D5488"/>
<path d="M100.673 179.107C101.874 179.107 102.847 178.114 102.847 176.888C102.847 175.663 101.874 174.67 100.673 174.67C99.4722 174.67 98.4988 175.663 98.4988 176.888C98.4988 178.114 99.4722 179.107 100.673 179.107Z" fill="#3D5488"/>
<path d="M60.2345 179.107C61.4353 179.107 62.4086 178.114 62.4086 176.888C62.4086 175.663 61.4353 174.67 60.2345 174.67C59.0338 174.67 58.0604 175.663 58.0604 176.888C58.0604 178.114 59.0338 179.107 60.2345 179.107Z" fill="#3D5488"/>
<path d="M128.66 206.49C127.114 206.49 125.816 205.602 125.322 204.331C125.111 204.378 124.917 204.39 124.752 204.39C124.335 204.39 123.918 204.296 123.507 204.113C121.761 203.337 121.162 201.348 122.049 199.277C122.049 199.277 122.208 198.9 122.261 198.783C122.196 198.788 122.138 198.788 122.073 198.788C121.297 198.788 120.557 198.494 119.934 197.941C118.547 196.711 118.447 194.876 119.67 193.146C121.556 190.486 121.009 187.221 120.228 183.837C119.552 180.919 118.917 178.518 118.212 176.277L117.707 174.67L119.288 174.094C121.115 173.429 122.796 172.417 124.764 171.105C127.015 169.604 129.565 167.898 131.439 165.88L133.278 163.897L134.348 166.38C137.203 173.023 138.772 180.301 138.884 187.421C138.908 188.88 138.461 195.752 137.298 200.312C136.91 201.836 135.881 205.884 133.026 205.884C132.52 205.884 132.021 205.749 131.545 205.478C131.463 205.431 131.38 205.378 131.304 205.331C130.664 206.067 129.712 206.49 128.66 206.49Z" fill="#EDB659"/>
<path d="M132.72 167.086C135.465 173.464 137.004 180.425 137.116 187.456C137.133 188.609 136.74 195.335 135.582 199.889C134.965 202.319 134.125 204.131 133.014 204.131C132.814 204.131 132.609 204.072 132.397 203.955C131.604 203.507 131.874 202.76 132.104 202.083C132.433 201.107 132.885 199.006 132.474 199.006C132.409 199.006 132.327 199.053 132.221 199.165C131.698 199.706 130.74 202.931 130.088 204.008C129.788 204.502 129.224 204.737 128.66 204.737C127.785 204.737 126.892 204.196 126.868 203.231C126.85 202.378 127.473 201.507 127.773 200.73C127.961 200.242 128.184 199.748 128.331 199.253C128.455 198.836 128.196 198.441 127.89 198.441C127.761 198.441 127.62 198.518 127.497 198.694C127.262 199.042 127.138 199.606 126.962 200.006C126.768 200.448 126.404 200.883 126.21 201.319C125.887 202.036 125.411 202.642 124.753 202.642C124.588 202.642 124.412 202.607 124.224 202.519C123.331 202.119 123.196 201.101 123.671 199.989C124.053 199.094 125.587 195.552 124.964 195.552C124.947 195.552 124.935 195.552 124.911 195.558C124.753 195.599 124.006 196.129 123.783 196.282C123.219 196.664 122.649 197.041 122.067 197.041C121.75 197.041 121.427 196.929 121.098 196.635C120.199 195.835 120.657 194.805 121.098 194.181C123.389 190.939 122.772 187.103 121.932 183.455C121.333 180.86 120.675 178.289 119.881 175.765C121.932 175.017 123.789 173.882 125.734 172.581C128.073 171.01 130.717 169.239 132.72 167.086ZM133.819 160.719L130.135 164.679C128.402 166.545 125.94 168.186 123.771 169.634C121.915 170.875 120.334 171.828 118.671 172.434L115.51 173.588L116.515 176.806C117.202 178.995 117.831 181.354 118.495 184.232C119.323 187.815 119.541 190.257 118.219 192.122C116.485 194.57 116.703 197.435 118.753 199.259C119.129 199.595 119.541 199.865 119.97 200.077C119.535 202.513 120.592 204.755 122.784 205.732C123.284 205.955 123.795 206.09 124.318 206.138C125.276 207.426 126.856 208.256 128.654 208.256C129.724 208.256 130.723 207.956 131.557 207.42C132.027 207.579 132.515 207.656 133.008 207.656C137.233 207.656 138.555 202.46 138.99 200.754C140.206 195.964 140.653 188.962 140.63 187.397C140.512 180.048 138.896 172.54 135.952 165.691L133.819 160.719Z" fill="#997738"/>
<path d="M132.244 200.112C132.244 200.112 131.815 202.372 130.799 204.708L132.244 200.112Z" fill="#EDB659"/>
<path d="M132.244 200.112C132.244 200.112 131.815 202.372 130.799 204.708" stroke="#997738" stroke-width="5" stroke-miterlimit="10" stroke-linecap="round" stroke-linejoin="round"/>
<path d="M128.132 198.777C128.132 198.777 127.468 200.971 126.204 203.166L128.132 198.777Z" fill="#EDB659"/>
<path d="M128.132 198.777C128.132 198.777 127.468 200.971 126.204 203.166" stroke="#997738" stroke-width="5" stroke-miterlimit="10" stroke-linecap="round" stroke-linejoin="round"/>
<path d="M132.721 167.086C132.298 167.539 131.851 167.98 131.381 168.398C133.931 174.806 135.371 181.749 135.471 188.762C135.488 189.957 135.094 196.929 133.937 201.642C133.708 202.572 133.449 203.413 133.155 204.108C134.195 203.961 134.989 202.207 135.576 199.883C136.734 195.335 137.128 188.603 137.11 187.45C136.998 180.425 135.459 173.464 132.721 167.086Z" fill="#F0C170"/>
<path d="M116.697 169.834C116.115 170.116 115.516 170.369 114.922 170.616C114.182 170.928 113.441 171.234 112.695 171.546C113.647 173.599 114.999 175.382 115.956 177.442C116.667 178.977 117.355 180.525 117.989 182.09C118.072 182.296 118.266 182.431 118.471 182.431C118.988 182.437 119.5 182.431 120.017 182.413C123.789 182.26 127.544 181.19 130.752 179.13C132.327 178.118 133.761 176.871 134.983 175.429C135.946 174.3 136.875 172.858 137.586 171.54C138.444 169.951 137.38 168.292 136.657 166.856C135.782 165.121 134.818 163.432 133.761 161.802C132.862 160.413 131.904 159.06 130.893 157.748C130.37 157.071 129.947 156.254 129.248 155.73C128.919 155.483 127.256 154.818 127.068 155.453C127.038 155.547 127.056 155.648 127.074 155.748C127.179 156.377 127.197 157.018 127.109 157.648C127.021 158.301 126.833 158.943 126.598 159.554C125.299 162.955 122.631 165.65 119.746 167.863C118.93 168.486 118.089 169.086 117.19 169.575C117.032 169.669 116.867 169.751 116.697 169.834Z" fill="#F44D4D"/>
<path d="M113.283 172.105C115.71 176.594 117.502 180.884 117.989 182.09C118.072 182.296 118.266 182.431 118.471 182.431C118.988 182.437 119.5 182.431 120.017 182.414C123.789 182.261 127.544 181.19 130.752 179.13C132.327 178.118 133.761 176.871 134.983 175.429C135.946 174.3 136.875 172.858 137.586 171.54C138.444 169.951 137.38 168.292 136.657 166.856C135.782 165.121 134.818 163.432 133.761 161.802C129.33 154.959 115.375 141.15 107.883 140.108" stroke="#BF3D3D" stroke-width="6" stroke-miterlimit="10" stroke-linecap="round" stroke-linejoin="round"/>
<path d="M13.4912 60.2926C11.8812 60.2926 9.58373 59.4688 7.77393 55.5443C3.49623 46.2771 3.98393 24.6066 10.0891 17.4223C11.8754 15.3217 14.7076 15.2923 16.2353 15.2747H16.7113C24.6321 15.2747 32.4471 17.4929 40.5971 22.0471C42.0778 22.8767 44.3401 24.9655 42.8946 29.6726C41.3786 34.5975 38.2702 38.7045 35.1383 42.4113C31.3601 46.8772 28.0108 50.2781 24.5968 53.1083C23.6273 53.9144 22.6225 54.7087 21.6001 55.4854C20.989 55.9444 20.4366 56.4386 19.9019 56.9093C18.6445 58.0214 17.34 59.1746 15.3657 59.9337C14.737 60.169 14.1082 60.2926 13.4912 60.2926Z" fill="#EDB659"/>
<path d="M16.7054 17.034C25.0023 17.034 32.5705 19.5818 39.7333 23.5828C41.8134 24.7478 41.8957 26.8955 41.2023 29.1431C39.7921 33.7326 36.8482 37.6336 33.7868 41.2581C30.6021 45.0239 27.2763 48.5777 23.4686 51.7374C22.505 52.5317 21.5296 53.3084 20.5307 54.0616C18.4447 55.6385 17.1872 57.3271 14.7193 58.2745C14.2904 58.4392 13.8791 58.5157 13.4854 58.5157C5.59394 58.5157 4.2366 27.0132 11.4288 18.5521C12.5981 17.1752 14.5019 17.0458 16.253 17.0222C16.4057 17.034 16.5585 17.034 16.7054 17.034ZM16.7054 13.5037C16.5409 13.5037 16.3763 13.5037 16.2118 13.5037C14.5313 13.5213 11.0468 13.5625 8.74346 16.275C4.48339 21.2881 3.48447 30.6671 3.26706 35.8096C2.92625 43.9412 4.00743 51.5962 6.16979 56.2798C8.37328 61.0517 11.3641 62.0578 13.4854 62.0578C14.3198 62.0578 15.16 61.899 15.9827 61.5812C18.2567 60.7045 19.7433 59.3924 21.0536 58.2274C21.5883 57.7567 22.0937 57.3095 22.646 56.8858C23.6861 56.1033 24.7143 55.2854 25.7074 54.4617C29.2036 51.5609 32.6234 48.0894 36.4663 43.547C39.7216 39.6989 42.9534 35.4154 44.5634 30.1905C46.4437 24.0771 43.0062 21.3822 41.4432 20.5055C33.0347 15.7925 24.9376 13.5037 16.7054 13.5037Z" fill="#997738"/>
<path d="M15.1076 47.6599C14.8725 46.8891 14.7726 46.0301 14.661 45.271C14.3731 43.3411 14.6669 41.4936 14.7139 39.5813C14.7609 37.5101 15.1663 35.3919 15.56 33.362C16.0183 31.0143 16.8938 27.8605 19.2501 26.7131C21.2656 25.7364 23.6806 26.2012 25.8018 26.4896C28.6517 26.8838 31.6014 27.5487 33.9988 29.202C36.2082 30.7201 36.4197 33.7327 35.5383 36.0568C33.1762 42.2938 27.1298 46.2713 21.2714 48.9014C21.0893 48.9838 20.9071 49.0603 20.725 49.1427C19.6967 49.5781 18.6214 50.1017 17.4873 49.9429C16.0888 49.7428 15.4542 48.7896 15.1076 47.6599Z" fill="#BF9146"/>
<path d="M40.4737 24.1124C33.0171 21.4176 25.1726 19.823 16.7289 19.8936C14.5254 19.9113 12.1339 20.0466 10.659 21.4234C9.95976 22.0766 9.32516 22.8709 8.75519 23.777C9.45443 21.6353 10.3476 19.8348 11.4288 18.558C12.5981 17.1811 14.5019 17.0517 16.2529 17.0281C24.7261 16.934 32.4412 19.4994 39.7333 23.577C40.0153 23.7417 40.2621 23.9182 40.4737 24.1124Z" fill="#F0C170"/>
<path d="M143.039 60.2926C142.422 60.2926 141.793 60.169 141.176 59.9337C139.196 59.1746 137.897 58.0214 136.64 56.9093C136.105 56.4327 135.547 55.9444 134.942 55.4854C133.919 54.7146 132.909 53.9144 131.945 53.1083C128.531 50.2781 125.182 46.8772 121.404 42.4113C118.272 38.7045 115.163 34.5975 113.647 29.6726C112.202 24.9655 114.464 22.8767 115.945 22.0471C124.095 17.487 131.91 15.2747 139.831 15.2747H140.307C141.829 15.2923 144.667 15.3217 146.453 17.4223C152.558 24.6066 153.046 46.2771 148.768 55.5443C146.946 59.4688 144.649 60.2926 143.039 60.2926Z" fill="#EDB659"/>
<path d="M139.825 17.034C139.978 17.034 140.125 17.034 140.277 17.034C142.028 17.0517 143.932 17.187 145.101 18.5638C152.288 27.019 150.93 58.5275 143.045 58.5275C142.651 58.5275 142.24 58.451 141.811 58.2862C139.343 57.3389 138.091 55.6502 136 54.0733C135.001 53.3202 134.025 52.5435 133.062 51.7492C129.254 48.5895 125.928 45.0356 122.743 41.2699C119.676 37.6454 116.738 33.7385 115.328 29.1549C114.635 26.9072 114.717 24.7596 116.797 23.5946C123.96 19.5818 131.528 17.034 139.825 17.034ZM139.825 13.5037C131.593 13.5037 123.496 15.7925 115.081 20.5055C113.518 21.3822 110.081 24.0771 111.961 30.1905C113.571 35.4154 116.803 39.6989 120.058 43.547C123.901 48.0953 127.321 51.5609 130.817 54.4617C131.81 55.2854 132.838 56.1033 133.878 56.8858C134.437 57.3036 134.942 57.7508 135.471 58.2274C136.781 59.3865 138.268 60.7045 140.542 61.5812C141.364 61.899 142.205 62.0578 143.039 62.0578C145.16 62.0578 148.151 61.0576 150.355 56.2798C152.517 51.5962 153.604 43.9412 153.257 35.8096C153.04 30.6671 152.041 21.2881 147.781 16.275C145.478 13.5625 141.987 13.5213 140.313 13.5037C140.154 13.5037 139.989 13.5037 139.825 13.5037Z" fill="#997738"/>
<path d="M141.423 47.6599C141.658 46.8891 141.758 46.0301 141.869 45.271C142.157 43.3411 141.863 41.4936 141.816 39.5813C141.769 37.5101 141.364 35.3919 140.97 33.362C140.512 31.0143 139.637 27.8605 137.28 26.7131C135.265 25.7364 132.85 26.2012 130.729 26.4896C127.879 26.8838 124.929 27.5487 122.532 29.202C120.322 30.7201 120.111 33.7327 120.992 36.0568C123.354 42.2938 129.401 46.2713 135.259 48.9014C135.441 48.9838 135.623 49.0603 135.805 49.1427C136.834 49.5781 137.909 50.1017 139.043 49.9429C140.447 49.7428 141.082 48.7896 141.423 47.6599Z" fill="#BF9146"/>
<path d="M116.056 24.1124C123.512 21.4176 131.357 19.823 139.8 19.8936C142.004 19.9113 144.395 20.0466 145.87 21.4234C146.57 22.0766 147.204 22.8709 147.774 23.777C147.075 21.6353 146.182 19.8348 145.101 18.558C143.931 17.1811 142.027 17.0517 140.276 17.0281C131.803 16.934 124.088 19.4994 116.796 23.577C116.514 23.7417 116.267 23.9182 116.056 24.1124Z" fill="#F0C170"/>
<path d="M152.006 76.3381C149.661 63.9936 144.32 52.2669 136.229 42.9703C126.639 31.9497 114.605 24.8537 100.25 21.7058C95.4378 20.6526 95.4496 20.629 96.3192 15.9749C96.6189 14.3744 96.0313 13.839 94.4918 14.3685C92.1238 15.1805 90.3669 16.828 88.657 18.5579C88.0811 19.1345 87.6052 20.2525 86.5769 19.8112C85.5427 19.364 85.5251 18.2284 85.4369 17.1987C85.1902 14.2568 86.0363 11.509 86.8648 8.7494C87.0822 8.03156 87.376 7.20781 86.8648 6.63707C86.2596 5.97219 85.3664 6.31345 84.5908 6.53116C80.4776 7.68441 77.3105 10.2204 74.6428 13.4154C73.2737 15.057 72.0632 16.828 70.7882 18.5461C69.4602 20.3407 68.9725 20.3643 67.7797 18.5285C66.7396 16.9281 65.488 15.563 63.8016 14.6392C63.2552 14.3391 62.6617 13.739 61.9742 14.2744C61.3513 14.751 61.8097 15.3629 61.9154 15.9396C62.6264 19.8053 62.1857 20.6349 59.1655 21.2174C44.1583 23.9123 31.5484 30.8553 21.2831 42.0995C10.7534 53.632 5.05369 67.2768 3.84324 82.6221C2.92071 94.2781 3.94313 105.881 8.16208 116.978C18.8387 145.08 51.7735 151.599 78.6561 151.552C100.609 151.511 126.351 148.746 141.282 130.758C152.129 117.69 154.656 99.762 153.011 83.3223C152.776 80.9805 152.447 78.6504 152.006 76.3381Z" fill="#ECBB68"/>
<path d="M78.3682 152.611C59.3947 152.611 33.4111 149.269 17.405 133.33C17.2699 133.2 17.1112 133.041 16.9467 132.871C12.3693 128.205 8.85548 122.662 6.51097 116.408C2.49768 105.705 1.05219 94.0604 2.08636 80.8216C3.34382 64.6408 9.36669 50.4723 19.9787 38.6985C30.4497 27.0719 43.5296 19.7582 58.8541 16.9751C60.2408 16.7044 60.376 16.4808 60.376 16.4808C60.4641 16.3102 60.5522 15.7218 60.1821 13.686C60.1644 13.6095 60.1409 13.5389 60.1174 13.4741C59.9529 12.9622 59.4534 11.4089 60.8931 10.2909C61.3749 9.90849 61.9507 9.70255 62.5501 9.70255C63.4021 9.70255 64.0367 10.1085 64.4539 10.3792C64.5244 10.4263 64.5949 10.4733 64.6595 10.5087C66.44 11.503 67.9501 12.9858 69.2663 15.0452C69.2722 15.0569 69.2839 15.0687 69.2898 15.0805C69.3133 15.0452 69.3427 15.0099 69.3721 14.9746C69.7305 14.4862 70.0831 13.9919 70.4356 13.4977C71.3346 12.2326 72.2689 10.9323 73.2855 9.69078C76.5173 5.76032 80.0605 3.28907 84.1149 2.13582L84.3088 2.07698C84.7554 1.92989 85.3195 1.76514 85.9423 1.76514C86.8296 1.76514 87.6052 2.1064 88.1811 2.74775C89.321 4.03633 88.8509 5.60146 88.5982 6.44286L88.5219 6.70763C87.7345 9.36717 86.9882 11.8855 87.1998 14.4862C87.1998 14.4862 87.2291 14.8628 87.2409 14.951C87.2938 14.8922 87.3467 14.8333 87.4054 14.7745C89.1976 12.9328 91.1778 11.05 93.9219 10.0909C94.4977 9.89084 95.0031 9.79081 95.4731 9.79081C96.3134 9.79081 97.042 10.1144 97.5356 10.7087C98.4229 11.7796 98.1526 13.2329 98.0644 13.7095C97.8353 14.9451 97.6002 16.2161 97.6531 16.6691C98.0703 16.9045 99.4335 17.2104 100.644 17.4752C115.352 20.7408 127.779 28.1898 137.58 39.6047C145.683 49.0425 151.271 61.028 153.751 74.2669C154.186 76.5969 154.532 79.027 154.773 81.4982C156.742 101.404 152.435 118.938 142.657 130.882C142.081 131.588 141.494 132.265 140.918 132.888C140.765 133.059 140.606 133.23 140.442 133.4C124.465 150.358 99.0398 152.576 78.6737 152.617H78.3682V152.611Z" fill="#EDB659"/>
<path d="M85.942 3.53036C86.2828 3.53036 86.6001 3.63038 86.8704 3.92458C87.3816 4.5012 87.0878 5.33672 86.8704 6.06633C86.0419 8.86119 85.1957 11.6502 85.4425 14.6333C85.5307 15.6748 85.5483 16.828 86.5825 17.2811C86.747 17.3517 86.8939 17.3811 87.029 17.3811C87.7577 17.3811 88.1749 16.5044 88.6567 16.0102C90.3666 14.2509 92.1235 12.5857 94.4915 11.762C94.8735 11.6266 95.1966 11.5619 95.4669 11.5619C96.2719 11.5619 96.5481 12.1738 96.3248 13.3918C95.4552 18.1107 95.4493 18.1401 100.256 19.2051C114.611 22.3942 126.645 29.5903 136.234 40.7638C144.326 50.1958 149.667 62.0813 152.011 74.5964C152.452 76.9382 152.781 79.3036 153.01 81.6748C154.656 98.3439 152.135 116.519 141.282 129.77C140.741 130.429 140.183 131.07 139.613 131.694C139.46 131.859 139.313 132.018 139.161 132.177C124.007 148.257 99.6036 150.817 78.6558 150.858C78.5618 150.858 78.4619 150.858 78.3679 150.858C57.6962 150.858 33.5225 146.898 18.6445 132.094C18.4976 131.953 18.3566 131.812 18.2156 131.665C13.979 127.346 10.5239 122.109 8.1618 115.802C3.94285 104.551 2.92043 92.7895 3.84296 80.9687C5.05341 65.3998 10.7531 51.5667 21.2828 39.8813C31.5482 28.4841 44.158 21.441 59.1652 18.7109C62.1796 18.1225 62.6262 17.2811 61.9152 13.3624C61.8153 12.7799 61.3569 12.1562 61.9739 11.6737C62.1737 11.5148 62.3617 11.456 62.5439 11.456C62.9963 11.456 63.4077 11.8267 63.8013 12.0444C65.4819 12.9858 66.7393 14.3627 67.7794 15.9866C68.3728 16.9163 68.7959 17.3752 69.2307 17.3752C69.6656 17.3752 70.1239 16.9163 70.7879 16.0043C72.063 14.2626 73.2734 12.4622 74.6425 10.797C77.3102 7.55496 80.4773 4.98957 84.5905 3.81867C85.0312 3.69511 85.5013 3.53036 85.942 3.53036ZM85.942 0C85.0665 0 84.3085 0.223589 83.809 0.370687L83.6327 0.423643C79.2258 1.67692 75.3946 4.33645 71.9278 8.55523C70.9759 9.71436 70.1063 10.9088 69.2719 12.0738C68.1554 10.7617 66.9156 9.7379 65.523 8.96122C65.4878 8.94357 65.4525 8.91415 65.4114 8.89061C64.9295 8.57876 63.9247 7.93153 62.5556 7.93153C61.5626 7.93153 60.6107 8.26692 59.8057 8.90238C58.9008 9.60845 57.5434 11.2089 58.4483 14.0096C58.4542 14.0332 58.4601 14.0508 58.4718 14.0744C58.56 14.5686 58.6129 14.9393 58.6481 15.2217C58.607 15.2276 58.5659 15.2394 58.5247 15.2453C42.8183 18.1048 29.4093 25.601 18.6798 37.5218C7.78573 49.5838 1.62184 64.1113 0.329129 80.6863C-0.728545 94.1899 0.758075 106.081 4.8595 117.031C7.28628 123.515 10.9294 129.264 15.6889 134.112C15.8534 134.283 16.018 134.448 16.1884 134.612C32.6293 150.946 59.0712 154.377 78.3679 154.377H78.6617C92.1118 154.353 102.683 153.259 111.937 150.946C124.412 147.828 134.425 142.326 141.711 134.607C141.881 134.43 142.04 134.259 142.204 134.077C142.798 133.436 143.409 132.735 144.008 132C149.455 125.351 153.245 117.19 155.278 107.741C157.029 99.6031 157.447 90.7125 156.518 81.3217C156.271 78.8034 155.919 76.3204 155.472 73.9374C152.934 60.3985 147.205 48.1305 138.902 38.4515C128.848 26.7366 116.103 19.0992 101.014 15.7513C100.532 15.6454 99.9973 15.5277 99.539 15.4159C99.6095 14.9864 99.7035 14.498 99.7858 14.039C100.127 12.215 99.821 10.7146 98.8809 9.57903C98.0465 8.57876 96.836 8.02568 95.4669 8.02568C94.7971 8.02568 94.0978 8.15512 93.334 8.4199C91.771 8.96122 90.4489 9.74967 89.2737 10.6558C89.5146 9.53196 89.8554 8.38459 90.2079 7.20193L90.2491 7.0666L90.2843 6.94303C90.5605 6.02514 91.295 3.59508 89.5028 1.57689C88.5862 0.558973 87.3228 0 85.942 0Z" fill="#997738"/>
<path d="M139.161 132.171C124.007 148.251 99.6036 150.811 78.6558 150.852C57.9195 150.887 33.593 146.963 18.6445 132.088C27.7993 134.171 36.9599 131.853 44.8043 127.181C49.3817 124.457 53.2011 120.685 57.3202 117.331C63.6545 112.183 72.0982 108.258 80.3657 108.258H80.3775V108.176C88.645 108.176 95.3553 112.177 101.69 117.331C105.809 120.685 109.628 124.457 114.205 127.181C121.932 131.782 130.159 134.101 139.161 132.171Z" fill="#F3D198"/>
<path d="M30.7021 133.406C30.655 133.442 30.602 133.477 30.5549 133.506C30.5372 133.483 30.5136 133.459 30.496 133.436C30.5608 133.424 30.6315 133.418 30.7021 133.406Z" fill="#E2B465"/>
<g opacity="0.1">
<path d="M95.5965 11.5679C95.7022 12.1151 95.9138 12.5976 96.3897 12.8918C96.4485 12.0621 96.1899 11.6208 95.5965 11.5679ZM28.2226 130.829C23.9861 126.381 20.531 120.991 18.1688 114.49C13.9499 102.898 12.9275 90.7832 13.85 78.6034C15.0605 62.5697 20.7602 48.3189 31.2899 36.2862C37.0366 29.7139 43.5119 24.5478 50.7335 20.7762C39.3693 24.3183 29.5623 30.6847 21.2772 39.8813C10.7534 51.5668 5.05369 65.3999 3.84324 80.9629C2.92071 92.7837 3.94313 104.546 8.16207 115.796C10.5242 122.103 13.9793 127.334 18.2159 131.659C18.3569 131.806 18.4979 131.947 18.6448 132.088C33.5933 146.963 57.9198 150.893 78.6561 150.852C81.8996 150.846 85.2313 150.776 88.5923 150.611C67.8737 150.64 43.5883 146.586 28.6575 131.276C28.5106 131.129 28.3695 130.982 28.2226 130.829Z" fill="#997738"/>
</g>
<path d="M33.1525 87.941C33.4639 85.3521 34.6332 82.9397 37.201 81.4687C40.0743 79.8212 43.1181 79.5035 46.156 81.0451C46.9199 81.4334 47.7131 82.0453 47.6896 83.075C47.6661 84.0635 46.8493 84.446 46.0972 84.7931C42.7832 86.3112 39.6572 88.147 36.6604 90.224C35.9905 90.6888 35.1738 91.4243 34.2278 90.7535C33.3699 90.1475 33.1466 89.2178 33.1525 87.941Z" fill="#7C5F33"/>
<path d="M126.357 88.0234C126.369 89.112 126.451 90.3005 125.311 90.8771C124.306 91.3832 123.513 90.5653 122.732 90.0593C119.97 88.2588 117.279 86.3583 114.182 85.105C113.207 84.7108 111.82 84.2106 111.967 82.8338C112.108 81.4923 113.407 80.9745 114.552 80.5685C120.017 78.6268 126.31 82.6161 126.357 88.0234Z" fill="#7C5F33"/>
<path d="M79.9784 125.934L79.8606 135.807" stroke="#7C5F33" stroke-width="5" stroke-miterlimit="10" stroke-linecap="round" stroke-linejoin="round"/>
<path d="M79.7018 143.368C77.5512 143.368 75.4653 142.962 73.6731 142.203C73.4322 142.103 73.1913 141.991 72.9621 141.873C70.5412 140.673 68.8607 138.825 68.1144 136.536C67.6855 135.218 67.8148 133.989 68.4846 133.065C69.1133 132.2 70.124 131.717 71.3345 131.717C71.6811 131.717 72.0396 131.759 72.4098 131.835C72.5567 131.865 72.7212 131.906 72.8798 131.941C73.4381 132.065 74.0021 132.206 74.5662 132.347L75.3301 132.535C76.6875 132.859 77.8333 133.088 79.0143 133.147C79.2024 133.159 79.3963 133.159 79.5843 133.159C81.2648 133.159 82.9336 132.812 84.4907 132.435C84.8551 132.347 85.2194 132.253 85.5896 132.165C85.9832 132.065 86.3828 131.965 86.7824 131.87L87.0644 131.806C87.5521 131.688 88.0927 131.559 88.6686 131.559C89.9378 131.559 90.7017 132.2 91.1188 132.741C92.0002 133.883 92.1001 135.313 91.4126 136.989C90.6076 138.943 89.0505 140.567 86.9058 141.691C84.8492 142.767 82.2931 143.368 79.7018 143.368Z" fill="#BF5858"/>
<path d="M88.6628 133.03C89.1446 133.03 89.5912 133.177 89.9496 133.642C90.596 134.483 90.4373 135.477 90.0436 136.431C89.3326 138.155 87.9459 139.478 86.2184 140.385C84.3204 141.385 82.0053 141.891 79.7019 141.891C77.7981 141.891 75.8943 141.544 74.2432 140.843C74.0316 140.755 73.826 140.655 73.6262 140.555C71.693 139.596 70.177 138.102 69.5071 136.072C68.9489 134.359 69.7774 133.183 71.3287 133.183C71.5696 133.183 71.8223 133.212 72.0926 133.271C72.2395 133.3 72.3864 133.336 72.5332 133.371C73.35 133.559 74.1609 133.765 74.9718 133.965C76.2704 134.277 77.5748 134.554 78.9322 134.618C79.1437 134.63 79.3611 134.636 79.5727 134.636C81.3707 134.636 83.1041 134.289 84.8258 133.871C85.5897 133.683 86.3535 133.489 87.1174 133.3C87.2114 133.277 87.2996 133.259 87.3936 133.236C87.8225 133.136 88.2573 133.03 88.6628 133.03ZM88.6628 130.088C87.9165 130.088 87.2525 130.247 86.7237 130.37L86.5709 130.405L86.4534 130.435C86.0304 130.535 85.6249 130.641 85.2253 130.741C84.861 130.829 84.5026 130.923 84.1383 131.011C82.6752 131.364 81.1063 131.694 79.5785 131.694C79.414 131.694 79.2436 131.688 79.0791 131.682C78.0155 131.629 76.9461 131.417 75.6651 131.106C75.4125 131.041 75.1481 130.976 74.8895 130.911C74.3254 130.77 73.7613 130.629 73.1914 130.5C73.0445 130.464 72.8682 130.423 72.6978 130.388C72.2453 130.288 71.7811 130.241 71.3287 130.241C69.6599 130.241 68.1909 130.953 67.2919 132.194C66.34 133.512 66.1343 135.213 66.716 136.984C67.5916 139.655 69.5306 141.803 72.3217 143.191C72.5509 143.309 72.8212 143.432 73.0915 143.55C75.0717 144.391 77.3574 144.833 79.7019 144.833C82.5283 144.833 85.3311 144.174 87.5875 142.985C90.0319 141.703 91.8182 139.826 92.7583 137.548C93.8865 134.807 93.1168 132.93 92.2706 131.835C91.401 130.711 90.12 130.088 88.6628 130.088Z" fill="#9E4848"/>
<path d="M86.2125 140.385C82.7457 142.214 77.8921 142.397 74.2431 140.844C74.0316 140.755 73.8259 140.655 73.6262 140.555C75.3067 137.196 82.5753 138.302 85.0784 139.567C85.5191 139.79 85.9011 140.067 86.2125 140.385Z" fill="#E87272"/>
<path d="M78.3558 127.275C78.0091 127.181 77.6742 127.052 77.3569 126.899C74.3719 125.481 71.8863 123.227 70.2293 120.362C68.349 117.119 69.4302 114.236 73.085 113.389C77.5978 112.342 82.228 112.342 86.7525 113.313C90.1606 114.048 91.3358 116.972 89.5906 120.003C88.7562 121.45 87.7573 122.803 86.5586 123.968C85.4128 125.075 84.0848 125.992 82.6276 126.646C81.8461 126.999 80.9882 127.352 80.1303 127.44C79.5368 127.505 78.9316 127.434 78.3558 127.275Z" fill="#2E3537"/>
<path d="M84.4198 114.919C85.3599 114.46 86.4822 114.454 87.4341 114.889C88.0688 115.178 88.5094 115.648 88.5036 116.513C88.4977 117.99 87.2167 118.484 85.9475 118.484C84.6783 118.484 83.4032 117.99 83.3915 116.513C83.3915 115.66 83.8322 115.207 84.4198 114.919Z" fill="#6B7071"/>
<path d="M49.804 116.678C42.3827 116.655 36.5655 110.853 36.5596 103.463C36.5478 96.055 42.3474 90.224 49.7629 90.1829H49.8393C53.4471 90.1829 56.814 91.5479 59.3231 94.0251C61.8439 96.5081 63.2247 99.8502 63.2247 103.422C63.2247 110.853 57.3429 116.678 49.8452 116.678H49.804Z" fill="#FEFEFE"/>
<path d="M49.8395 91.6539C56.4911 91.6539 61.7619 96.8494 61.7619 103.422C61.7619 110.053 56.544 115.207 49.8513 115.207C49.8395 115.207 49.8278 115.207 49.816 115.207C43.2173 115.19 38.0406 110.023 38.0347 103.457C38.0288 96.9023 43.2173 91.6833 49.7749 91.648C49.7925 91.6539 49.816 91.6539 49.8395 91.6539ZM49.8395 88.7119H49.7514C41.5192 88.759 35.0791 95.2372 35.085 103.463C35.0967 111.677 41.5544 118.126 49.7984 118.149H49.8454C58.1716 118.149 64.694 111.683 64.694 103.422C64.694 99.4501 63.1545 95.7373 60.3516 92.9778C57.5723 90.2241 53.8352 88.7119 49.8395 88.7119Z" fill="#7C5F33"/>
<path d="M108.464 116.678C101.131 116.643 95.161 110.706 95.1551 103.445C95.1551 99.8972 96.5536 96.561 99.1037 94.0545C101.642 91.5597 105.021 90.1829 108.611 90.1829C115.974 90.2123 121.95 96.155 121.985 103.428C122.002 106.905 120.645 110.194 118.171 112.689C115.615 115.26 112.195 116.678 108.541 116.678H108.464Z" fill="#FEFEFE"/>
<path d="M108.611 91.6539C108.629 91.6539 108.647 91.6539 108.664 91.6539C115.181 91.6833 120.487 96.9553 120.516 103.433C120.551 109.923 115.163 115.207 108.535 115.207C108.512 115.207 108.494 115.207 108.47 115.207C101.925 115.172 96.6304 109.918 96.6245 103.445C96.6245 96.9259 101.989 91.6539 108.611 91.6539ZM108.611 88.7119C104.633 88.7119 100.89 90.2359 98.0759 93.0072C95.2437 95.7903 93.6865 99.4971 93.6865 103.445C93.6924 111.512 100.315 118.108 108.453 118.149H108.529C112.578 118.149 116.374 116.578 119.206 113.724C121.962 110.953 123.472 107.293 123.448 103.422C123.407 95.3431 116.779 88.7472 108.67 88.7119H108.611Z" fill="#7C5F33"/>
<path d="M108.214 109.423C113.426 109.458 117.65 105.334 117.65 100.215C117.65 95.1841 113.514 91.0536 108.407 91.0006C103.225 90.9418 98.9941 95.09 99 100.221C99 105.293 103.107 109.394 108.214 109.423Z" fill="#473321"/>
<path d="M108.261 105.693C111.363 105.716 113.872 103.263 113.872 100.215C113.872 97.22 111.41 94.7664 108.372 94.7311C105.287 94.6958 102.772 97.1611 102.772 100.215C102.778 103.233 105.223 105.675 108.261 105.693Z" fill="#252728"/>
<path opacity="0.9" d="M111.404 94.7369C110.005 94.7722 108.777 95.9725 108.766 97.3199C108.754 98.7379 110.046 99.9677 111.527 99.9382C112.92 99.9147 114.171 98.7026 114.16 97.3846C114.148 95.9195 112.879 94.6957 111.404 94.7369Z" fill="white"/>
<path d="M50.2135 109.423C55.4255 109.458 59.6503 105.334 59.6503 100.215C59.6503 95.1841 55.5136 91.0536 50.4074 91.0006C45.2248 90.9418 40.9941 95.09 41 100.221C41 105.293 45.1073 109.394 50.2135 109.423Z" fill="#473321"/>
<path d="M50.2616 105.693C53.3641 105.716 55.8731 103.263 55.8731 100.215C55.8731 97.22 53.4111 94.7664 50.3732 94.7311C47.2884 94.6958 44.7734 97.1611 44.7734 100.215C44.7793 103.233 47.2237 105.675 50.2616 105.693Z" fill="#252728"/>
<path opacity="0.9" d="M53.404 94.7369C52.0055 94.7722 50.7775 95.9725 50.7657 97.3199C50.754 98.7379 52.0467 99.9677 53.5274 99.9382C54.92 99.9147 56.1716 98.7026 56.1598 97.3846C56.154 95.9195 54.8789 94.6957 53.404 94.7369Z" fill="white"/>
<path d="M37.9532 188.039C37.7299 188.033 37.5302 187.903 37.4361 187.697L26.2601 163.561C26.025 163.026 26.407 162.255 26.4833 162.102C26.7008 161.684 26.9652 161.443 27.2707 161.384C28.1169 161.22 32.6707 160.414 39.2812 160.414C51.4033 160.414 68.5435 163.091 81.3414 175.847C81.4471 175.953 81.5118 176.1 81.5118 176.247L81.8408 188.586C81.8467 188.745 81.7821 188.904 81.6704 189.015C81.5588 189.127 81.4119 189.186 81.2532 189.186C81.2474 189.192 37.9532 188.039 37.9532 188.039Z" fill="#E3E3E3"/>
<path d="M39.2808 161.002C50.8565 161.002 68.1495 163.532 80.9297 176.265L81.2588 188.609L37.9705 187.45L26.7944 163.308C26.6651 163.02 27.0647 162.02 27.382 161.961C28.9274 161.661 33.352 161.002 39.2808 161.002ZM39.2808 159.825C32.6175 159.825 28.0166 160.643 27.1587 160.808C26.671 160.902 26.2714 161.243 25.9659 161.826C25.7837 162.173 25.3959 163.055 25.7191 163.785L36.9011 187.944C37.0891 188.35 37.4887 188.615 37.9352 188.627L81.2235 189.786C81.2353 189.786 81.247 189.786 81.2529 189.786C81.5643 189.786 81.864 189.663 82.0814 189.439C82.3106 189.21 82.434 188.898 82.4281 188.574L82.099 176.23C82.0932 175.93 81.9698 175.641 81.7523 175.429C68.8135 162.532 51.5146 159.825 39.2808 159.825Z" fill="#A0AEB3"/>
<path d="M35.3853 190.333C35.162 190.327 34.9623 190.198 34.8682 189.992L23.9272 166.421C23.7333 165.986 23.8273 164.791 24.0917 164.285C24.2562 163.967 24.4854 163.867 24.6499 163.832C25.9191 163.591 29.6269 163.226 34.6391 163.226C44.5753 163.226 69.0252 164.756 81.3824 178.93C81.5058 179.071 81.5528 179.254 81.5176 179.436L79.1378 191.004C79.079 191.281 78.8381 191.475 78.5619 191.475C78.5561 191.487 35.3853 190.333 35.3853 190.333Z" fill="#DEDEDE"/>
<path d="M34.6388 163.826C47.6129 163.826 69.5244 166.233 80.9356 179.33L78.5558 190.898L35.3968 189.745L24.4558 166.174C24.3265 165.886 24.4381 164.473 24.7496 164.415C26.0188 164.179 29.6736 163.826 34.6388 163.826ZM34.6388 162.649C29.9028 162.649 26.0834 162.967 24.538 163.261C24.2971 163.308 23.8564 163.467 23.5685 164.014C23.2512 164.626 23.1043 166.021 23.3863 166.656L34.3333 190.239C34.5213 190.645 34.9209 190.91 35.3674 190.922L78.5264 192.075C78.5382 192.075 78.5499 192.075 78.5558 192.075C79.114 192.075 79.5958 191.687 79.7075 191.134L82.0872 179.566C82.1636 179.207 82.0637 178.83 81.8228 178.554C76.6108 172.576 68.8252 168.192 58.6715 165.527C49.6108 163.15 40.6029 162.649 34.6388 162.649Z" fill="#A0AEB3"/>
<path d="M37.6761 199.906C37.4528 199.906 37.2471 199.777 37.1472 199.577L22.4514 169.74C22.2458 169.287 22.2516 168.798 22.4632 168.386C22.6747 167.969 23.0743 167.674 23.5502 167.574C25.0897 167.262 27.9337 167.086 31.3535 167.086C45.732 167.086 66.6034 170.034 78.1203 178.342C78.2966 178.471 78.3906 178.689 78.3554 178.907L78.2731 179.436C78.3789 179.495 78.4905 179.554 78.5963 179.613C78.7785 179.719 78.896 179.913 78.896 180.125L78.9547 199.306C78.9547 199.465 78.896 199.612 78.7843 199.724C78.6727 199.836 78.5258 199.895 78.3671 199.895H37.6761V199.906Z" fill="#D9D9D9"/>
<path d="M31.3596 167.68C43.517 167.68 65.4696 169.94 77.7857 178.824L77.6388 179.766C77.8679 179.883 78.0971 180.013 78.3145 180.136L78.3733 199.318H37.6763L22.9805 169.481C22.722 168.904 23.0452 168.28 23.6739 168.151C25.0606 167.874 27.7871 167.68 31.3596 167.68ZM31.3596 166.503C27.8987 166.503 25.0136 166.686 23.4388 167.004C22.7807 167.139 22.2343 167.551 21.9405 168.127C21.6467 168.698 21.6349 169.369 21.9052 169.969C21.9111 169.981 21.917 169.993 21.9228 170.004L36.6186 199.842C36.8184 200.242 37.2239 200.501 37.6704 200.501H78.3674C78.6788 200.501 78.9785 200.377 79.2018 200.154C79.4251 199.93 79.5485 199.63 79.5426 199.318L79.4838 180.136C79.4838 179.725 79.2664 179.348 78.9197 179.136L78.9374 179.013C79.002 178.577 78.8198 178.136 78.4614 177.877C72.8381 173.823 64.8585 170.757 54.7342 168.775C44.322 166.721 34.9205 166.503 31.3596 166.503Z" fill="#A0AEB3"/>
<path d="M80.2257 189.192C80.0729 189.192 79.9201 189.127 79.8085 189.021C79.6968 188.909 79.6322 188.751 79.6381 188.592L79.973 176.253C79.9789 176.1 80.0376 175.959 80.1434 175.853C92.9471 163.097 110.087 160.419 122.215 160.419C128.826 160.419 133.38 161.226 134.226 161.39C134.525 161.449 134.79 161.69 135.007 162.108C135.084 162.261 135.466 163.032 135.236 163.556L124.043 187.697C123.949 187.897 123.749 188.033 123.526 188.039C123.526 188.039 80.2315 189.192 80.2257 189.192Z" fill="#E3E3E3"/>
<path d="M122.215 161.002C128.144 161.002 132.568 161.667 134.114 161.961C134.425 162.02 134.825 163.02 134.701 163.308L123.513 187.444L80.2252 188.603L80.5601 176.259C93.3404 163.532 110.639 161.002 122.215 161.002ZM122.215 159.825C109.981 159.825 92.6823 162.532 79.7316 175.429C79.5201 175.641 79.3967 175.93 79.3849 176.23L79.05 188.574C79.0441 188.898 79.1675 189.21 79.3908 189.439C79.6141 189.663 79.9079 189.786 80.2193 189.786C80.2311 189.786 80.2428 189.786 80.2487 189.786L123.537 188.627C123.984 188.615 124.383 188.35 124.571 187.944L135.759 163.809C136.088 163.061 135.706 162.173 135.524 161.826C135.218 161.243 134.819 160.902 134.331 160.808C133.479 160.643 128.878 159.825 122.215 159.825Z" fill="#A0AEB3"/>
<path d="M82.9154 191.487C82.6392 191.487 82.3983 191.292 82.3396 191.016L79.9657 179.448C79.9304 179.266 79.9774 179.083 80.1008 178.942C92.4639 164.768 116.908 163.238 126.85 163.238C131.862 163.238 135.57 163.597 136.839 163.844C137.004 163.873 137.233 163.979 137.397 164.291C137.662 164.797 137.756 165.991 137.562 166.421L126.609 189.998C126.515 190.198 126.315 190.333 126.092 190.339C126.092 190.333 82.9213 191.487 82.9154 191.487Z" fill="#DEDEDE"/>
<path d="M126.851 163.826C131.816 163.826 135.471 164.179 136.734 164.42C137.046 164.479 137.157 165.897 137.028 166.18L126.081 189.751L82.9221 190.904L80.5482 179.336C91.9652 166.233 113.877 163.826 126.851 163.826ZM126.851 162.649C120.887 162.649 111.879 163.15 102.812 165.527C92.6586 168.192 84.867 172.576 79.655 178.554C79.4141 178.83 79.3142 179.207 79.3906 179.566L81.7645 191.134C81.8761 191.681 82.358 192.075 82.9162 192.075C82.9279 192.075 82.9397 192.075 82.9456 192.075L126.105 190.922C126.551 190.91 126.951 190.645 127.139 190.239L138.086 166.668C138.379 166.015 138.233 164.626 137.915 164.009C137.627 163.456 137.187 163.297 136.946 163.25C135.406 162.967 131.581 162.649 126.851 162.649Z" fill="#A0AEB3"/>
<path d="M83.1041 199.906C82.9455 199.906 82.7986 199.842 82.6869 199.736C82.5753 199.63 82.5165 199.477 82.5165 199.318L82.5812 180.136C82.5812 179.925 82.6987 179.73 82.8809 179.625C82.9866 179.566 83.0924 179.507 83.204 179.448L83.1218 178.918C83.0865 178.701 83.1805 178.483 83.3568 178.354C94.8737 170.046 115.751 167.098 130.13 167.098C133.555 167.098 136.399 167.274 137.933 167.586C138.415 167.686 138.814 167.98 139.026 168.398C139.237 168.81 139.243 169.298 139.043 169.734L124.324 199.589C124.224 199.789 124.019 199.918 123.795 199.918H83.1041V199.906Z" fill="#D9D9D9"/>
<path d="M130.129 167.68C133.702 167.68 136.428 167.874 137.815 168.157C138.444 168.286 138.767 168.904 138.508 169.487L123.801 199.324H83.1038L83.1685 180.142C83.3918 180.019 83.6151 179.895 83.8442 179.772L83.7032 178.83C96.0192 169.94 117.972 167.68 130.129 167.68ZM130.129 166.503C126.568 166.503 117.167 166.721 106.749 168.769C96.6244 170.752 88.639 173.817 83.0157 177.877C82.6573 178.136 82.4751 178.571 82.5398 179.013L82.5574 179.136C82.2107 179.348 81.9933 179.73 81.9933 180.136L81.9286 199.318C81.9286 199.63 82.052 199.93 82.2695 200.154C82.4869 200.377 82.7924 200.501 83.1038 200.501H123.801C124.247 200.501 124.659 200.248 124.853 199.848L139.56 170.01C139.566 169.998 139.572 169.987 139.578 169.975C139.848 169.375 139.836 168.704 139.543 168.133C139.249 167.557 138.702 167.145 138.05 167.009C136.475 166.686 133.59 166.503 130.129 166.503Z" fill="#A0AEB3"/>
<path d="M76.5455 221.436C76.475 221.436 76.4045 221.43 76.334 221.424L70.029 220.665C63.542 219.882 57.1137 218.911 50.9145 217.782C44.8858 216.681 38.8511 215.393 32.981 213.94C32.7225 213.881 32.4463 213.781 32.1878 213.651C31.5003 213.304 30.8951 212.769 30.472 212.127C30.2663 211.833 30.0959 211.486 29.9843 211.121C28.8032 207.049 27.7103 203.59 26.6526 200.242C24.0378 191.957 21.7814 184.802 19.9893 173.917L19.8835 173.282C19.5721 172.158 19.719 171.075 20.2948 170.293C20.8002 169.61 21.5817 169.216 22.4513 169.216C22.5453 169.216 22.6452 169.222 22.7451 169.233C22.8156 169.239 22.892 169.251 22.9625 169.269L31.5062 171.216C39.286 172.993 47.4065 174.382 55.627 175.341L73.6545 177.442C74.4948 177.542 75.1529 178.224 75.2116 179.071L75.288 180.207L78.1849 217.917L78.2965 219.547C78.3318 220.071 78.132 220.583 77.7501 220.947C77.4269 221.265 76.9921 221.436 76.5455 221.436Z" fill="#74A840"/>
<path d="M22.4521 170.987C22.4932 170.987 22.5343 170.987 22.5755 170.993L31.1191 172.94C38.9577 174.729 47.0606 176.118 55.428 177.1L63.2548 178.012L73.4555 179.201L73.5319 180.336L76.4287 218.058L76.5345 219.67L70.2296 218.917C63.7543 218.135 57.42 217.182 51.2267 216.046C45.1568 214.94 39.2103 213.663 33.399 212.227C33.2521 212.192 33.1052 212.139 32.9642 212.074C32.5646 211.874 32.1886 211.539 31.93 211.156C31.8066 210.98 31.7126 210.786 31.6538 210.597C27.5113 196.329 24.1914 188.674 21.7176 173.641L21.5942 172.899C21.2769 171.817 21.6471 170.987 22.4521 170.987ZM22.4521 167.457C21.0183 167.457 19.7139 168.11 18.8736 169.251C17.9922 170.451 17.7337 172.046 18.1567 173.658L18.2449 174.205C20.0547 185.22 22.3287 192.428 24.967 200.777C26.0188 204.113 27.1117 207.567 28.2752 211.58C28.281 211.604 28.2869 211.627 28.2987 211.651C28.4632 212.168 28.7041 212.669 29.0214 213.133C29.6149 214.016 30.4551 214.757 31.3894 215.228C31.7714 215.416 32.1651 215.564 32.5764 215.658C38.4817 217.117 44.5457 218.417 50.598 219.518C56.8324 220.659 63.2959 221.636 69.8124 222.418L76.1173 223.177C76.2583 223.195 76.3994 223.201 76.5345 223.201C77.4335 223.201 78.3032 222.86 78.9613 222.23C79.7252 221.506 80.1247 220.482 80.0542 219.435L79.9484 217.823C79.9484 217.811 79.9484 217.799 79.9484 217.788L77.0516 180.066L76.9752 178.96C76.8577 177.265 75.5532 175.894 73.8668 175.694L63.6661 174.505L55.8393 173.593C47.6776 172.64 39.6275 171.263 31.9065 169.498L23.3629 167.551C23.216 167.515 23.0749 167.492 22.928 167.48C22.7694 167.462 22.6107 167.457 22.4521 167.457Z" fill="#5C8533"/>
<g opacity="0.18">
<path d="M31.9414 211.151C32.1941 211.533 32.576 211.874 32.9756 212.068C33.1166 212.139 33.2635 212.192 33.4104 212.221C39.2217 213.657 45.1682 214.934 51.2381 216.04C57.4314 217.176 63.7657 218.129 70.241 218.911L76.5459 219.665L73.461 179.189L63.2603 178C65.2758 191.175 56.0446 211.415 31.9414 211.151Z" fill="#648F38"/>
</g>
<g opacity="0.3">
<path d="M21.6113 172.893L21.7347 173.635C24.2085 188.668 27.5226 196.323 31.671 210.592C31.7297 210.78 31.8238 210.974 31.9472 211.151C32.1998 211.533 32.5818 211.874 32.9813 212.068C33.1224 212.139 33.2692 212.192 33.4161 212.221C39.2275 213.657 45.174 214.934 51.2438 216.04C57.4371 217.176 63.7714 218.129 70.2467 218.911L76.5516 219.665L76.4459 218.052C76.205 218.011 75.964 217.982 75.729 217.964C61.7501 216.505 48.2471 215.487 35.7078 211.574C34.9439 211.333 34.1448 211.062 33.5572 210.527C33.0401 210.056 32.7639 209.438 32.4877 208.844C30.1844 203.731 27.0113 188.621 27.7987 182.867C28.6449 176.712 35.0555 176.977 41.713 177C46.5254 177.018 67.4204 179.089 73.549 180.331L73.4726 179.195L63.2719 178.006L55.4452 177.094C47.0778 176.118 38.9748 174.723 31.1363 172.934L22.5926 170.987C21.6877 170.905 21.2588 171.764 21.6113 172.893Z" fill="#95CC5C"/>
</g>
<path d="M80.9185 221.571C80.4425 221.571 79.99 221.383 79.6551 221.036C79.2849 220.659 79.1087 220.135 79.1674 219.606L79.3554 217.929L84.303 180.172L84.4264 179.107C84.5204 178.277 85.1844 177.63 86.007 177.553L104.358 175.794C112.807 174.982 121.175 173.746 129.237 172.134L138.115 170.357C138.18 170.346 138.25 170.334 138.321 170.328C138.409 170.322 138.491 170.316 138.573 170.316C139.484 170.316 140.301 170.722 140.812 171.434C141.376 172.211 141.517 173.27 141.2 174.353L141.094 174.959C139.091 186.685 136.864 193.311 133.502 203.331C132.609 205.985 131.599 208.997 130.506 212.369C130.382 212.745 130.194 213.104 129.948 213.445C129.513 214.069 128.86 214.61 128.138 214.94C127.856 215.069 127.568 215.158 127.274 215.216C120.975 216.54 114.494 217.694 108.03 218.641C101.414 219.618 94.5742 220.406 87.7111 221L81.0595 221.571C81.0183 221.571 80.9713 221.571 80.9185 221.571Z" fill="#84BD4A"/>
<path d="M138.573 172.081C139.425 172.081 139.824 172.893 139.483 173.941L139.36 174.659C136.833 189.427 133.919 196.117 128.83 211.821C128.766 212.021 128.66 212.216 128.531 212.398C128.254 212.792 127.843 213.134 127.414 213.328C127.261 213.398 127.103 213.445 126.95 213.475C120.686 214.787 114.293 215.928 107.788 216.882C101.172 217.858 94.4324 218.641 87.5751 219.229L80.9235 219.8L81.1116 218.123L86.0532 180.401L86.1766 179.307L96.536 178.312L104.527 177.548C113.106 176.718 121.468 175.488 129.582 173.858L138.461 172.081C138.502 172.081 138.537 172.081 138.573 172.081ZM138.573 168.551C138.443 168.551 138.314 168.557 138.179 168.569C138.044 168.58 137.903 168.598 137.768 168.628L128.889 170.404C120.886 172.011 112.577 173.235 104.186 174.041L96.1952 174.806L85.8358 175.8C84.1788 175.959 82.8626 177.253 82.6687 178.913L82.5453 179.978L77.6095 217.67C77.6095 217.694 77.6036 217.711 77.6036 217.735L77.4156 219.412C77.2981 220.465 77.6565 221.512 78.391 222.271C79.055 222.954 79.9716 223.336 80.9177 223.336C81.0175 223.336 81.1174 223.33 81.2173 223.324L87.8689 222.754C94.7673 222.159 101.642 221.365 108.294 220.383C114.781 219.429 121.291 218.276 127.643 216.94C128.066 216.858 128.478 216.723 128.866 216.546C129.864 216.087 130.758 215.346 131.386 214.457C131.733 213.975 131.997 213.457 132.174 212.916C133.261 209.556 134.271 206.544 135.165 203.896C138.555 193.793 140.8 187.121 142.827 175.259L142.915 174.741C143.344 173.164 143.103 171.599 142.233 170.399C141.393 169.222 140.053 168.551 138.573 168.551Z" fill="#5C8533"/>
<g opacity="0.18">
<path d="M128.531 212.404C128.255 212.798 127.844 213.139 127.415 213.334C127.262 213.404 127.103 213.451 126.95 213.481C120.687 214.793 114.294 215.934 107.789 216.887C101.172 217.864 94.4327 218.647 87.5755 219.235L80.9239 219.806L86.177 179.313L96.5363 178.318C94.0449 191.116 102.794 211.904 128.531 212.404Z" fill="#648F38"/>
</g>
<g opacity="0.7">
<path d="M139.484 173.941L139.36 174.659C136.834 189.427 133.302 197.17 128.831 211.821C128.766 212.022 128.66 212.216 128.531 212.398C128.255 212.792 127.843 213.134 127.415 213.328C127.262 213.398 127.103 213.445 126.95 213.475C120.687 214.787 114.294 215.928 107.789 216.882C101.172 217.858 94.4327 218.641 87.5755 219.229L80.9239 219.8L81.1119 218.123C81.3705 218.088 81.6231 218.07 81.8699 218.053C96.6304 217.011 111.003 216.405 124.488 212.722C125.311 212.498 126.175 212.239 126.803 211.692C127.362 211.215 127.667 210.58 127.961 209.968C130.452 204.72 133.872 189.333 133.044 183.608C132.162 177.559 125.493 177.724 118.612 177.648C113.653 177.595 92.288 179.289 86.0536 180.395L86.177 179.301L96.5363 178.307L104.528 177.542C113.107 176.712 121.468 175.482 129.583 173.852L138.461 172.076C139.39 172.011 139.842 172.846 139.484 173.941Z" fill="#95CC5C"/>
</g>
<path d="M80.0538 182.025C76.017 182.019 72.7382 180.142 72.5796 177.753C72.5267 176.918 72.8499 176.1 73.5138 175.388C74.8124 173.999 77.3156 173.14 80.0479 173.14C82.8096 173.146 85.3187 174.011 86.6173 175.406C87.2812 176.118 87.6044 176.941 87.5457 177.777C87.3811 180.16 84.0965 182.025 80.0773 182.025C80.0773 182.025 80.0597 182.025 80.0538 182.025Z" fill="#B8C8CF"/>
<path d="M80.0542 173.735C80.0601 173.735 80.066 173.735 80.0777 173.735C84.0323 173.741 87.1171 175.576 86.9644 177.742C86.8233 179.819 83.7443 181.437 80.0836 181.437C80.0777 181.437 80.0719 181.437 80.066 181.437C76.3935 181.431 73.3145 179.801 73.1793 177.718C73.0324 175.553 76.1056 173.735 80.0542 173.735ZM80.0542 172.558C77.1221 172.558 74.5191 173.47 73.0912 174.994C72.3097 175.829 71.9336 176.794 71.9983 177.8C72.1746 180.542 75.6414 182.613 80.0542 182.619C84.4788 182.619 87.9457 180.56 88.1337 177.824C88.2042 176.818 87.8281 175.847 87.0525 175.011C85.6305 173.482 83.0216 172.564 80.0777 172.558H80.0542Z" fill="#A0AEB3"/>
<path d="M79.9781 222.777C78.468 222.777 76.999 222.577 75.6181 222.189C74.9071 221.989 74.4018 221.365 74.343 220.635L70.9115 178.136C70.8645 177.536 71.123 176.953 71.6048 176.588C71.9163 176.353 72.2923 176.229 72.6684 176.229C72.874 176.229 73.0797 176.265 73.2795 176.341C74.7896 176.9 76.3174 177.277 77.8157 177.453C78.5561 177.547 79.2906 177.589 80.0721 177.589C81.1239 177.589 82.1169 177.512 83.0688 177.353C84.3498 177.147 85.6249 176.818 86.8706 176.365C87.0645 176.294 87.2702 176.259 87.4758 176.259C87.8578 176.259 88.2338 176.382 88.5453 176.624C89.0212 176.989 89.2797 177.577 89.2327 178.177L85.5779 220.647C85.5133 221.383 85.002 222.001 84.2969 222.195C82.922 222.583 81.4706 222.777 79.9781 222.777Z" fill="#87C24C"/>
<path d="M72.6622 177.989C74.3016 178.595 75.9587 179.001 77.6039 179.195C78.4266 179.295 79.2433 179.342 80.066 179.342C80.0777 179.342 80.0895 179.342 80.1012 179.342C81.1824 179.342 82.2695 179.26 83.3506 179.083C84.7256 178.866 86.1065 178.507 87.4697 178.007L83.8207 220.494C82.5985 220.836 81.2882 221.006 79.9778 221.006C78.6499 221.006 77.3278 220.83 76.0938 220.483L72.6622 177.989ZM72.6622 174.458C71.9042 174.458 71.1521 174.706 70.5293 175.176C69.5715 175.906 69.0485 177.071 69.1425 178.271L72.5741 220.771C72.6916 222.242 73.714 223.483 75.1302 223.883C76.6697 224.319 78.2973 224.542 79.972 224.542C81.6231 224.542 83.2331 224.325 84.7609 223.901C86.177 223.507 87.1994 222.271 87.3287 220.8L90.9776 178.312C91.0834 177.112 90.5663 175.941 89.6085 175.206C88.9857 174.729 88.2277 174.482 87.4638 174.482C87.0584 174.482 86.647 174.553 86.2534 174.694C85.1193 175.112 83.9559 175.412 82.7983 175.594C81.9228 175.741 81.0179 175.812 80.0953 175.812H80.066C79.3608 175.812 78.6969 175.771 78.0329 175.688C76.6579 175.523 75.2653 175.182 73.8844 174.67C73.4908 174.529 73.0736 174.458 72.6622 174.458Z" fill="#5C8533"/>
<g opacity="0.35">
<path d="M76.5166 179.036L78.1031 220.889C77.4215 220.8 76.7458 220.665 76.0994 220.483L72.6678 177.983C73.9429 178.465 75.2239 178.807 76.5166 179.036Z" fill="#648F38"/>
</g>
<g opacity="0.1">
<path d="M87.4697 178.012L83.8207 220.5C83.3036 220.641 82.7807 220.759 82.246 220.835L84.4436 178.889C85.4601 178.677 86.4649 178.383 87.4697 178.012Z" fill="#648F38"/>
</g>
<path d="M81.9926 219.494C81.546 219.494 81.1935 219.229 81.2052 218.894L82.2335 183.926C82.257 182.89 82.9328 182.037 83.7319 182.043C84.5369 182.043 85.1363 182.902 85.0834 183.931L82.8329 218.9C82.8094 219.229 82.4333 219.494 81.9926 219.494Z" fill="#95CC5C"/>
<path d="M25.6257 198.241C23.3576 198.241 20.0729 197.423 18.2807 195.111C15.7247 191.822 15.0783 186.026 18.2396 182.961C18.8801 182.337 19.5029 181.866 20.0964 181.413C20.7134 180.943 21.2951 180.501 21.8416 179.931C22.5643 179.171 23.5221 178.736 24.4622 178.736C25.3965 178.736 26.2485 179.16 26.8479 179.931C27.2768 180.478 27.6294 181.243 27.5412 182.225C27.6411 182.178 27.7293 182.137 27.8233 182.102C28.1876 181.966 28.7634 181.802 29.4098 181.802C30.8905 181.802 32.007 182.661 32.3302 184.049C32.5006 184.791 32.4301 185.408 32.2303 185.926C33.047 186.391 33.6287 187.185 33.8285 188.168C34.0753 189.38 33.6699 190.645 32.8061 191.475C32.9354 191.693 33.0353 191.928 33.0999 192.193C33.5406 193.94 33.0294 196.347 28.0995 197.888C27.3591 198.124 26.5247 198.241 25.6257 198.241Z" fill="#EDB659"/>
<path d="M24.4621 180.501C24.8147 180.501 25.1673 180.648 25.461 181.019C26.1662 181.919 25.6608 182.943 24.9087 183.92C24.7383 184.138 24.1566 184.891 24.468 185.208C24.5797 185.32 24.7383 185.367 24.9322 185.367C25.9605 185.367 27.8996 183.961 28.446 183.755C28.7398 183.643 29.0865 183.567 29.4156 183.567C29.962 183.567 30.4674 183.785 30.6143 184.449C30.8552 185.503 30.0972 186.026 29.2746 186.474C28.8691 186.691 28.4284 187.027 28.0406 187.238C27.6528 187.45 27.1651 187.574 26.8713 187.827C26.4247 188.215 26.6245 188.715 27.0476 188.715C27.1004 188.715 27.1533 188.709 27.2121 188.692C27.7409 188.545 28.0994 188.262 28.5636 188.092C29.2334 187.85 29.9209 187.262 30.6378 187.262C30.7142 187.262 30.7906 187.268 30.8669 187.285C32.3594 187.568 32.5475 189.592 31.3546 190.386C30.3381 191.069 27.6587 191.875 27.0711 192.657C26.8066 193.011 26.8889 193.14 27.1475 193.14C27.7644 193.14 29.3744 192.428 29.6741 192.375C29.8269 192.346 30.3028 192.087 30.7259 192.087C31.0197 192.087 31.2841 192.21 31.3899 192.634C31.8541 194.476 29.6271 195.57 27.5705 196.217C26.9947 196.4 26.3248 196.488 25.6256 196.488C23.4338 196.488 20.9072 195.629 19.6673 194.04C17.6989 191.504 16.9174 186.709 19.4617 184.243C20.6898 183.055 21.9237 182.419 23.1165 181.16C23.4573 180.796 23.9627 180.501 24.4621 180.501ZM24.4621 176.971C23.0401 176.971 21.6182 177.606 20.5605 178.718C20.1139 179.189 19.6145 179.572 19.0269 180.013C18.4158 180.478 17.7224 181.001 17.0055 181.696C13.1156 185.467 13.8031 192.24 16.8821 196.2C19.068 199.012 22.9579 200.007 25.6197 200.007C26.7009 200.007 27.7057 199.859 28.6223 199.577C35.3973 197.453 35.2269 193.458 34.8156 191.798C35.556 190.651 35.838 189.233 35.5501 187.821C35.3444 186.815 34.8567 185.926 34.1751 185.232C34.2104 184.75 34.1751 184.226 34.0458 183.661C33.5405 181.466 31.719 180.042 29.4097 180.042C29.251 180.042 29.0924 180.048 28.9396 180.06C28.7222 179.53 28.4519 179.124 28.2345 178.848C27.312 177.653 25.9311 176.971 24.4621 176.971Z" fill="#997738"/>
<path d="M27.753 192.758C27.753 192.758 30.6028 192.093 32.9297 190.639L27.753 192.758Z" fill="#EDB659"/>
<path d="M27.753 192.758C27.753 192.758 30.6028 192.093 32.9297 190.639" stroke="#997738" stroke-width="2" stroke-miterlimit="10" stroke-linecap="round" stroke-linejoin="round"/>
<path d="M27.1357 188.315C27.1357 188.315 29.8621 187.462 32.0656 185.909L27.1357 188.315Z" fill="#EDB659"/>
<path d="M27.1357 188.315C27.1357 188.315 29.8621 187.462 32.0656 185.909" stroke="#997738" stroke-width="2" stroke-miterlimit="10" stroke-linecap="round" stroke-linejoin="round"/>
<path d="M135.323 198.241C134.424 198.241 133.59 198.124 132.849 197.894C127.913 196.347 127.402 193.94 127.849 192.193C127.913 191.934 128.013 191.693 128.143 191.475C127.279 190.639 126.873 189.38 127.12 188.168C127.32 187.185 127.902 186.391 128.718 185.926C128.519 185.408 128.448 184.791 128.619 184.049C128.936 182.661 130.058 181.802 131.539 181.802C132.185 181.802 132.761 181.966 133.125 182.108C133.214 182.143 133.308 182.184 133.408 182.231C133.319 181.249 133.672 180.484 134.101 179.936C134.706 179.166 135.552 178.736 136.487 178.736C137.433 178.736 138.384 179.171 139.107 179.931C139.654 180.501 140.235 180.948 140.852 181.413C141.452 181.866 142.069 182.337 142.709 182.961C145.87 186.026 145.224 191.822 142.668 195.111C140.876 197.423 137.591 198.241 135.323 198.241Z" fill="#EDB659"/>
<path d="M136.487 180.501C136.986 180.501 137.492 180.796 137.833 181.149C139.025 182.408 140.259 183.043 141.487 184.232C144.032 186.697 143.25 191.492 141.282 194.028C140.048 195.617 137.515 196.476 135.324 196.476C134.624 196.476 133.954 196.388 133.379 196.206C131.322 195.558 129.095 194.464 129.559 192.622C129.665 192.204 129.929 192.075 130.223 192.075C130.646 192.075 131.122 192.34 131.275 192.363C131.575 192.416 133.185 193.128 133.802 193.128C134.06 193.128 134.142 193.005 133.878 192.646C133.296 191.863 130.617 191.057 129.595 190.375C128.402 189.574 128.59 187.556 130.082 187.274C130.159 187.256 130.235 187.25 130.311 187.25C131.028 187.25 131.716 187.839 132.386 188.08C132.85 188.25 133.208 188.533 133.737 188.68C133.796 188.698 133.849 188.703 133.902 188.703C134.325 188.703 134.524 188.203 134.078 187.815C133.784 187.562 133.296 187.438 132.909 187.227C132.521 187.015 132.08 186.679 131.675 186.462C130.846 186.009 130.088 185.491 130.335 184.438C130.488 183.779 130.987 183.555 131.534 183.555C131.863 183.555 132.203 183.632 132.503 183.743C133.05 183.949 134.989 185.356 136.017 185.356C136.205 185.356 136.364 185.308 136.481 185.197C136.798 184.879 136.211 184.126 136.04 183.908C135.288 182.931 134.783 181.913 135.488 181.007C135.776 180.648 136.129 180.501 136.487 180.501ZM136.487 176.971C135.018 176.971 133.643 177.653 132.709 178.848C132.491 179.124 132.221 179.53 132.004 180.06C131.851 180.048 131.692 180.042 131.534 180.042C129.224 180.042 127.403 181.46 126.897 183.661C126.768 184.226 126.727 184.75 126.768 185.232C126.087 185.92 125.599 186.815 125.393 187.821C125.105 189.233 125.387 190.651 126.128 191.798C125.722 193.458 125.546 197.453 132.321 199.577C133.232 199.865 134.242 200.007 135.324 200.007C137.985 200.007 141.875 199.006 144.061 196.2C147.14 192.24 147.828 185.467 143.938 181.696C143.221 181.001 142.528 180.472 141.916 180.013C141.335 179.572 140.829 179.189 140.383 178.718C139.331 177.606 137.909 176.971 136.487 176.971Z" fill="#997738"/>
<path d="M133.196 192.758C133.196 192.758 130.347 192.093 128.02 190.639L133.196 192.758Z" fill="#EDB659"/>
<path d="M133.196 192.758C133.196 192.758 130.347 192.093 128.02 190.639" stroke="#997738" stroke-miterlimit="10" stroke-linecap="round" stroke-linejoin="round"/>
<path d="M133.814 188.315C133.814 188.315 131.087 187.462 128.884 185.909L133.814 188.315Z" fill="#EDB659"/>
<path d="M133.814 188.315C133.814 188.315 131.087 187.462 128.884 185.909" stroke="#997738" stroke-miterlimit="10" stroke-linecap="round" stroke-linejoin="round"/>
</svg>
