<svg width="169" height="239" viewBox="0 0 169 239" fill="none" xmlns="http://www.w3.org/2000/svg">
<g clip-path="url(#clip0_229_13279)">
<path d="M55.1447 223.841C53.3219 223.841 51.609 223.235 50.0576 222.035C48.7454 221.018 47.6724 219.61 46.9614 217.954C46.3603 216.552 46.0112 214.994 45.966 213.449L44.8348 182.642C44.796 181.56 45.2162 180.543 45.9983 179.845C47.0842 178.874 48.2348 178.065 49.4177 177.446C51.7059 176.24 54.2398 175.62 56.9352 175.62C61.9253 175.62 66.6375 177.746 69.7079 179.532C73.3535 181.645 75.4672 186.15 74.963 190.74C74.3619 196.301 73.1596 201.504 71.382 206.205C71.2851 206.466 71.1816 206.727 71.0782 206.987C67.4132 216.304 62.7204 220.51 62.52 220.686C62.5006 220.699 62.4877 220.712 62.4683 220.731C59.9797 222.798 57.5105 223.841 55.1447 223.841Z" fill="#27B7FF"/>
<path d="M56.9352 177.583C61.3824 177.583 65.655 179.441 68.7383 181.227C71.7052 182.948 73.4505 186.697 73.0368 190.531C72.3839 196.536 71.0847 201.504 69.5721 205.52C69.4752 205.775 69.3782 206.022 69.2812 206.27C65.7455 215.261 61.2466 219.225 61.2466 219.225C58.8873 221.168 56.8576 221.885 55.1447 221.885C53.5804 221.885 52.2812 221.292 51.2405 220.484C50.161 219.649 49.3143 218.501 48.739 217.171C48.2348 216.011 47.9439 214.713 47.8987 213.383L47.5302 203.291L46.774 182.57C46.7546 182.068 46.9549 181.605 47.2846 181.312C48.2671 180.432 49.2755 179.728 50.3097 179.186C52.4816 178.039 54.731 177.583 56.9352 177.583ZM56.9352 173.671C53.9166 173.671 51.0854 174.362 48.5127 175.718C47.2006 176.403 45.9207 177.302 44.7184 178.378C43.5032 179.467 42.8439 181.045 42.9021 182.714L43.6584 203.434L44.0268 213.527C44.085 215.3 44.4857 217.106 45.1838 218.73C46.0241 220.686 47.304 222.368 48.8812 223.587C50.7493 225.034 52.9147 225.797 55.1447 225.797C57.9694 225.797 60.8459 224.604 63.7029 222.257C63.7352 222.231 63.7675 222.198 63.7999 222.172C64.0132 221.983 69.0486 217.471 72.8881 207.711C72.9915 207.457 73.1014 207.17 73.2113 206.877C75.0341 202.045 76.2752 196.679 76.8957 190.955C77.4775 185.609 74.9759 180.334 70.6775 177.837C67.4003 175.94 62.352 173.671 56.9352 173.671Z" fill="#048BAF"/>
<path d="M73.0367 190.531C72.3838 196.536 71.0846 201.504 69.572 205.52C69.4815 205.775 69.3781 206.022 69.2811 206.27C60.975 207.307 53.6902 206.009 47.5301 203.297L46.7738 182.577C46.7545 182.075 46.9548 181.612 47.2845 181.319C48.267 180.438 49.2754 179.734 50.3096 179.193C56.8575 175.731 64.1294 178.561 68.7382 181.24C71.7051 182.955 73.4504 186.697 73.0367 190.531Z" fill="#048BAF"/>
<path opacity="0.1" d="M48.7384 217.171C49.3137 218.495 50.154 219.649 51.2399 220.477C53.4247 222.172 56.7407 222.935 61.246 219.225C61.246 219.225 65.9905 215.039 69.5715 205.52C71.0841 201.504 72.3833 196.542 73.0362 190.531C73.4499 186.697 71.7111 182.948 68.7441 181.227C64.1289 178.547 56.8635 175.718 50.3156 179.18C50.4319 179.199 50.5547 179.219 50.6711 179.245C53.5281 179.845 56.2171 181.299 58.1886 183.47C60.884 186.437 62.2027 190.492 62.3966 194.508C62.584 198.524 61.7308 202.528 60.5156 206.355C59.3521 210.012 57.7555 213.716 54.8209 216.154C53.8642 216.956 52.7331 217.621 51.4985 217.739C50.5289 217.849 49.5981 217.615 48.7384 217.171Z" fill="black"/>
<path d="M46.1929 237.37C45.9602 237.37 45.7339 237.363 45.5012 237.344C45.3267 237.337 45.1134 237.318 44.9066 237.298L44.8096 237.285C44.6351 237.266 44.48 237.24 44.3313 237.213H44.105L43.9628 237.148C43.8723 237.129 43.7819 237.116 43.6978 237.09C43.5815 237.063 43.4716 237.037 43.3617 237.005C43.2518 236.979 43.1419 236.946 43.032 236.914C42.9739 236.9 42.9222 236.881 42.864 236.868C42.7024 236.822 42.5408 236.77 42.3792 236.705C42.3339 236.692 42.2822 236.672 42.237 236.653C42.1206 236.607 42.0107 236.568 41.8944 236.516C41.791 236.477 41.694 236.431 41.5971 236.385C39.7548 235.557 38.1841 234.214 37.0465 232.486C36.8008 232.128 36.5875 231.763 36.3936 231.385C36.3096 231.235 36.2191 231.046 36.1415 230.85C36.064 230.687 35.9799 230.452 35.8959 230.185C35.1719 227.74 36.1609 225.386 38.8305 223.183L38.9339 223.098C40.4206 221.866 41.7845 220.529 43.0967 219.016C43.478 218.58 43.7301 217.928 43.853 217.093C43.8917 216.819 43.9176 216.519 43.9305 216.18C43.9887 214.87 45.0423 213.84 46.3286 213.84C46.4579 213.84 46.5872 213.853 46.7165 213.872C49.5218 214.329 52.8119 214.57 56.2119 214.57C56.9036 214.57 57.5823 214.563 58.2545 214.537C59.4245 214.505 60.5751 214.446 61.6739 214.355C62.7534 214.27 63.7941 214.153 64.7701 214.016L64.9834 213.983C65.1515 213.957 65.326 213.937 65.4941 213.905C65.6557 213.872 65.785 213.859 65.9078 213.859C66.2051 213.859 66.6576 213.937 67.0907 214.289C67.3945 214.537 67.6207 214.876 67.75 215.261C67.8146 215.457 67.8534 215.659 67.8728 215.88C67.8987 216.206 67.8663 216.5 67.8469 216.715L67.834 216.871L67.2523 225.347L67.207 226.019V226.188L67.1876 226.273C67.1876 226.293 67.1812 226.312 67.1812 226.332C67.1488 226.769 67.0907 227.186 67.0196 227.577C66.9743 227.825 66.9161 228.066 66.8515 228.288C66.8257 228.379 66.7933 228.49 66.7546 228.601L66.6576 228.888C66.5994 229.051 66.5348 229.207 66.4637 229.35C66.4249 229.435 66.3926 229.513 66.3473 229.592C66.2504 229.794 66.1534 229.97 66.0435 230.133C66.0112 230.192 65.9466 230.296 65.8755 230.394C65.5846 230.824 65.2226 231.235 64.7766 231.626C64.6279 231.756 64.4728 231.887 64.3112 232.004C64.2724 232.037 64.2142 232.076 64.1496 232.121C64.0462 232.2 63.9428 232.271 63.8329 232.343C63.7682 232.389 63.6648 232.454 63.5549 232.526C63.4967 232.565 63.4321 232.597 63.3739 232.63C63.2253 232.721 63.0701 232.806 62.915 232.884C62.7728 232.962 62.6047 233.047 62.4367 233.132C62.0812 233.308 61.7321 233.471 61.3637 233.634C61.0146 233.79 60.6462 233.947 60.2713 234.103C59.8317 234.286 59.3922 234.469 58.9332 234.638C58.7264 234.716 58.5001 234.801 58.2739 234.879C57.6146 235.108 56.9617 235.323 56.3024 235.525C56.0697 235.596 55.837 235.662 55.6043 235.727C55.1971 235.844 54.7511 235.962 54.2986 236.079C52.4176 236.548 50.3815 236.92 48.2484 237.181L47.5374 237.266C47.059 237.35 46.6195 237.37 46.1929 237.37Z" fill="#40A516"/>
<path d="M46.3347 215.489C46.3735 215.489 46.4188 215.496 46.464 215.502C49.2564 215.959 52.6112 216.219 56.2181 216.219C56.9291 216.219 57.6272 216.213 58.3124 216.187C59.4759 216.154 60.6458 216.096 61.8093 215.998C62.8759 215.913 63.9424 215.796 65.0025 215.646C65.274 215.607 65.5455 215.574 65.8105 215.522C65.8493 215.515 65.8816 215.509 65.9139 215.509C65.9656 215.509 66.0109 215.522 66.069 215.574C66.1401 215.633 66.1918 215.717 66.2242 215.809C66.25 215.887 66.263 215.965 66.2694 216.05C66.2888 216.291 66.2436 216.558 66.2306 216.787C66.1918 217.308 66.1595 217.83 66.1207 218.351C66.0755 218.99 66.0303 219.629 65.9915 220.268C65.9527 220.862 65.9074 221.461 65.8687 222.055C65.8428 222.446 65.8169 222.837 65.7911 223.235C65.7846 223.307 65.7782 223.378 65.7782 223.45L65.6489 225.269L65.6036 225.999C65.6036 226.012 65.6036 226.032 65.5972 226.051C65.5907 226.071 65.5907 226.084 65.5907 226.097C65.5907 226.13 65.5842 226.162 65.5842 226.195C65.5584 226.586 65.5067 226.958 65.442 227.297C65.4033 227.492 65.3645 227.681 65.3128 227.864C65.2869 227.949 65.261 228.04 65.2352 228.125C65.2093 228.21 65.177 228.288 65.1512 228.373C65.1059 228.49 65.0607 228.607 65.009 228.718C64.9766 228.796 64.9379 228.868 64.8991 228.946C64.8409 229.064 64.7763 229.174 64.7052 229.285C64.6599 229.357 64.6211 229.422 64.5759 229.487C64.3302 229.846 64.0458 230.159 63.7291 230.439C63.6192 230.537 63.5029 230.635 63.3801 230.726C63.3348 230.765 63.2896 230.798 63.2443 230.824C63.1603 230.889 63.0827 230.948 62.9922 231.007C62.9017 231.065 62.8112 231.13 62.7143 231.189C62.6755 231.215 62.6367 231.235 62.6044 231.254C62.4751 231.333 62.3394 231.411 62.2036 231.483C62.055 231.561 61.8998 231.646 61.7382 231.724C61.4215 231.88 61.0918 232.037 60.7428 232.187C60.3937 232.337 60.0382 232.493 59.6633 232.65C59.2432 232.832 58.8165 233.002 58.3835 233.165C58.1766 233.243 57.9698 233.321 57.7565 233.393C57.1295 233.608 56.496 233.817 55.8625 234.012C55.6492 234.077 55.4359 234.143 55.2226 234.195C54.796 234.319 54.3629 234.43 53.9363 234.54C52.0036 235.023 50.0321 235.368 48.08 235.61C47.8538 235.636 47.6146 235.668 47.3754 235.694C46.9811 235.74 46.5933 235.76 46.2055 235.76C46.0116 235.76 45.8241 235.753 45.6302 235.74C45.4492 235.733 45.2617 235.714 45.0808 235.694C45.042 235.688 45.0032 235.688 44.9709 235.681C44.8093 235.662 44.6541 235.636 44.499 235.603C44.4861 235.603 44.4667 235.603 44.4473 235.597C44.318 235.577 44.1887 235.551 44.0659 235.518C43.969 235.499 43.872 235.473 43.775 235.447C43.6716 235.421 43.5747 235.394 43.4712 235.362C43.426 235.355 43.3807 235.336 43.342 235.323C43.1998 235.284 43.064 235.238 42.9218 235.179C42.883 235.173 42.8442 235.153 42.8119 235.14C42.7214 235.108 42.6309 235.075 42.5469 235.029C42.4499 234.99 42.353 234.951 42.2625 234.905C40.7435 234.221 39.4119 233.106 38.4165 231.6C38.2161 231.3 38.0286 230.994 37.8606 230.661C37.783 230.524 37.7184 230.387 37.6667 230.25C37.5891 230.074 37.5245 229.898 37.4727 229.729C36.8199 227.518 38.3001 225.771 39.8902 224.467C39.9161 224.454 39.9355 224.428 39.9613 224.408C41.5515 223.091 42.9735 221.696 44.3503 220.112C45.0097 219.349 45.3458 218.351 45.488 217.347C45.5397 216.989 45.572 216.63 45.5849 216.265C45.5655 215.828 45.9146 215.489 46.3347 215.489ZM46.3347 212.229C44.1758 212.229 42.4112 213.944 42.3207 216.128C42.3077 216.408 42.2884 216.65 42.256 216.858C42.1526 217.582 41.9587 217.869 41.8747 217.96C40.6594 219.362 39.3861 220.614 37.9963 221.774L37.8153 221.924C33.7948 225.236 33.7108 228.496 34.3507 230.648C34.4541 230.98 34.5575 231.267 34.6739 231.535C34.7644 231.75 34.8678 231.958 34.9777 232.174C35.191 232.591 35.4366 233.002 35.7081 233.406C37.0138 235.375 38.8172 236.92 40.918 237.865C41.0279 237.918 41.1442 237.963 41.2606 238.015C41.4287 238.087 41.5709 238.139 41.6678 238.178C41.7066 238.191 41.7648 238.218 41.8423 238.244C42.0233 238.315 42.2043 238.374 42.3918 238.426C42.4435 238.446 42.5146 238.465 42.5922 238.485C42.715 238.524 42.8313 238.557 42.9541 238.583C43.0899 238.622 43.2127 238.648 43.342 238.68C43.4906 238.713 43.6393 238.746 43.7944 238.772C43.8591 238.785 43.9237 238.798 43.9884 238.804C44.1758 238.837 44.3697 238.87 44.583 238.896L44.6735 238.909L44.7058 238.915L44.7382 238.922C44.9644 238.948 45.1906 238.961 45.4169 238.974C45.656 238.993 45.9146 239 46.1925 239C46.6838 239 47.1815 238.974 47.7051 238.915H47.7245H47.7439C47.996 238.883 48.2351 238.857 48.4678 238.83C50.6656 238.557 52.7599 238.178 54.7055 237.689C55.2291 237.559 55.6622 237.442 56.0694 237.324C56.315 237.259 56.5542 237.187 56.7998 237.116C57.4333 236.92 58.0926 236.705 58.8036 236.464L58.823 236.457L58.8424 236.451C59.0816 236.366 59.3207 236.281 59.5534 236.19C60.0253 236.007 60.4842 235.825 60.9302 235.636C61.2987 235.479 61.6736 235.316 62.0291 235.16C62.4686 234.971 62.8565 234.782 63.1474 234.638L63.1667 234.632L63.1861 234.625C63.3671 234.534 63.5352 234.443 63.7032 234.358C63.8842 234.267 64.0458 234.175 64.201 234.077C64.2721 234.038 64.3496 233.993 64.4337 233.941C64.5436 233.875 64.6534 233.804 64.7698 233.725C64.8861 233.647 65.0025 233.569 65.1124 233.484C65.2029 233.425 65.2804 233.367 65.3451 233.315C65.5584 233.152 65.7394 232.995 65.8622 232.891C66.4116 232.402 66.8512 231.9 67.2325 231.352C67.3101 231.241 67.3812 231.13 67.4523 231.013C67.5881 230.804 67.6979 230.596 67.8014 230.387L67.8143 230.368C67.866 230.27 67.9112 230.165 67.9565 230.061C68.047 229.859 68.131 229.663 68.1957 229.474C68.2344 229.364 68.2668 229.259 68.3055 229.155C68.3508 229.025 68.3896 228.888 68.4284 228.757C68.4995 228.496 68.5641 228.223 68.6223 227.91C68.7063 227.479 68.7645 227.016 68.8033 226.527C68.8097 226.482 68.8162 226.436 68.8162 226.384C68.8227 226.306 68.8291 226.234 68.8356 226.156L68.8808 225.478L69.0036 223.678L69.0166 223.463L69.023 223.333L69.0941 222.289L69.1523 221.396L69.2105 220.503L69.2816 219.486L69.3398 218.586L69.4432 217.041L69.4561 216.924C69.482 216.663 69.5208 216.272 69.482 215.802C69.4561 215.45 69.385 215.111 69.2816 214.785C69.0554 214.107 68.6546 213.514 68.1116 213.064C67.4782 212.536 66.7154 212.262 65.9074 212.262C65.5972 212.262 65.3515 212.301 65.1899 212.334C65.0477 212.36 64.9055 212.379 64.7633 212.399L64.5436 212.431C63.5934 212.568 62.585 212.679 61.5378 212.764C60.4648 212.849 59.3466 212.914 58.2154 212.94C57.5819 212.959 56.9291 212.973 56.2051 212.973C52.8827 212.973 49.6831 212.738 46.9617 212.294C46.7614 212.249 46.5481 212.229 46.3347 212.229Z" fill="#246B0C"/>
<g opacity="0.2">
<path d="M66.2759 216.043C66.2953 216.304 66.2371 216.604 66.2242 216.832C66.1854 217.36 66.1531 217.889 66.1143 218.41C66.069 219.049 66.0302 219.688 65.985 220.32C65.9462 220.907 65.9074 221.501 65.8622 222.087C65.8363 222.472 65.8105 222.857 65.7846 223.235C65.7782 223.3 65.7717 223.365 65.7717 223.43L65.6424 225.249L65.5907 225.98C65.5842 225.999 65.5842 226.019 65.5907 226.032C65.5842 226.051 65.5842 226.064 65.5842 226.078C65.5842 226.11 65.5778 226.143 65.5778 226.175C65.5519 226.567 65.5002 226.938 65.4356 227.277C65.3968 227.473 65.358 227.662 65.3063 227.844C65.2804 227.929 65.2546 228.02 65.2287 228.105C65.2029 228.19 65.1705 228.268 65.1447 228.353C65.0994 228.47 65.0542 228.588 65.0025 228.699C64.9702 228.777 64.9314 228.848 64.8926 228.927C64.8344 229.044 64.7698 229.155 64.6987 229.266C64.6534 229.337 64.6147 229.403 64.5694 229.468C64.3238 229.826 64.0394 230.139 63.7226 230.42C63.6128 230.518 63.4899 230.615 63.3736 230.707C63.3283 230.746 63.2831 230.778 63.2378 230.804C63.1538 230.87 63.0762 230.928 62.9858 230.987C62.8953 231.046 62.8048 231.111 62.7078 231.17C62.669 231.196 62.6302 231.215 62.5979 231.235C62.4686 231.313 62.3329 231.391 62.1972 231.463C62.0485 231.541 61.8934 231.626 61.7318 231.704C61.415 231.867 61.0854 232.017 60.7363 232.167C60.3873 232.317 60.0317 232.474 59.6568 232.63C59.2367 232.813 58.8101 232.982 58.377 233.145C58.1701 233.223 57.9633 233.302 57.75 233.373C57.1295 233.595 56.4895 233.804 55.8561 233.993C55.6428 234.058 55.4295 234.123 55.2161 234.175C54.7895 234.299 54.3564 234.41 53.9298 234.521C51.9971 235.003 50.0256 235.349 48.0735 235.59C47.8473 235.616 47.6081 235.649 47.369 235.675C46.9747 235.72 46.5868 235.74 46.199 235.74C46.0051 235.74 45.8176 235.733 45.6237 235.72C45.4427 235.714 45.2553 235.694 45.0743 235.675C45.0355 235.668 44.9967 235.668 44.9644 235.662C44.8028 235.642 44.6477 235.616 44.4925 235.584C44.4796 235.584 44.4602 235.584 44.4408 235.577C44.3115 235.557 44.1823 235.531 44.0595 235.499C43.9625 235.479 43.8655 235.453 43.7686 235.427C43.6652 235.401 43.5682 235.375 43.4648 235.342C43.4195 235.336 43.3743 235.316 43.3355 235.303C43.1933 235.264 43.0576 235.218 42.9153 235.16C42.8766 235.153 42.8378 235.134 42.8055 235.121C42.715 235.088 42.6245 235.055 42.5404 235.01C42.4435 234.971 42.3465 234.932 42.256 234.886C45.0614 234.436 47.8667 233.738 50.5363 232.728C50.9694 232.565 51.396 232.395 51.8161 232.219C53.9104 231.339 56.6253 230.296 57.304 227.857C57.9439 225.562 57.9245 223.163 58.0409 220.803C58.0603 220.431 58.2089 218.045 58.3253 216.174C59.4952 216.141 60.6587 216.083 61.8222 215.985C62.8888 215.9 63.9553 215.783 65.0154 215.633C65.2352 215.6 65.455 215.567 65.6683 215.535C65.7523 215.522 65.888 215.47 65.9721 215.489C66.069 215.502 66.1531 215.62 66.1983 215.698C66.2436 215.809 66.2629 215.92 66.2759 216.043Z" fill="#7A7A7A"/>
</g>
<path d="M65.4418 227.284C64.8406 230.433 62.6235 231.372 59.6566 232.63C59.2364 232.806 58.8098 232.976 58.3767 233.139C55.0543 234.39 51.5379 235.166 48.0668 235.59C47.8341 235.616 47.5949 235.649 47.3558 235.675C43.7683 236.066 40.4006 234.645 38.3839 231.593C38.8428 232.082 39.5215 232.545 39.9288 232.845C40.6204 233.367 41.3831 233.81 42.1976 234.117C46.1858 235.61 51.2018 233.823 54.9896 232.428C58.2151 231.235 61.4083 229.774 64.3881 228.047C64.4463 228.014 64.9182 227.668 65.4418 227.284Z" fill="white"/>
<g opacity="0.15">
<path d="M39.2115 227.375C38.4876 227.949 38.4553 229.246 39.4184 229.859C40.1165 230.302 42.4499 231.254 43.3355 230.759C43.691 230.563 43.7557 230.185 43.6458 229.866C43.4712 229.357 42.6309 228.888 42.2431 228.418C41.907 228.014 41.5515 227.603 41.0085 227.342C40.2328 226.964 39.6123 227.055 39.2115 227.375Z" fill="white"/>
</g>
<path d="M53.7428 216.174C53.1094 218.293 52.2173 220.34 51.1056 222.244C49.8645 224.356 48.2356 226.39 45.9732 227.29C45.7082 227.394 45.4238 227.486 45.1329 227.434C44.7128 227.362 44.409 226.997 44.1181 226.671C42.9093 225.367 41.3968 225.002 39.923 224.395C41.5131 223.078 42.9352 221.683 44.312 220.099C44.9713 219.336 45.3074 218.338 45.4496 217.334C45.5014 216.976 45.5337 216.617 45.5466 216.252C45.566 215.769 45.9861 215.411 46.458 215.483C48.5976 215.848 51.0732 216.082 53.7428 216.174Z" fill="#246B0C"/>
<path d="M39.9552 222.844C43.2259 222.42 46.6518 223.3 49.3149 225.262" stroke="white" stroke-width="5" stroke-miterlimit="10" stroke-linecap="round" stroke-linejoin="round"/>
<path d="M43.1476 219.258C43.613 219.623 43.8974 220.164 44.143 220.705C45.3065 223.235 45.927 225.98 46.5346 228.705" stroke="white" stroke-width="5" stroke-miterlimit="10" stroke-linecap="round" stroke-linejoin="round"/>
<path d="M44.6993 214.302C45.9662 217.934 48.7586 220.992 52.2427 222.563" stroke="white" stroke-width="5" stroke-miterlimit="10" stroke-linecap="round" stroke-linejoin="round"/>
<path d="M43.0763 218.873C46.8447 219.479 50.8459 218.449 53.8645 216.102" stroke="white" stroke-width="5" stroke-miterlimit="10" stroke-linecap="round" stroke-linejoin="round"/>
<path d="M109.533 223.841C107.167 223.841 104.698 222.798 102.203 220.744C102.183 220.731 102.171 220.718 102.151 220.699C101.951 220.523 97.258 216.311 93.5929 206.987C93.4895 206.733 93.3861 206.466 93.2891 206.192C91.5245 201.504 90.3157 196.295 89.7146 190.74C89.2169 186.15 91.3306 181.645 94.9697 179.532C98.0401 177.746 102.746 175.62 107.742 175.62C110.444 175.62 112.972 176.233 115.266 177.446C116.443 178.065 117.587 178.867 118.679 179.838C119.461 180.536 119.882 181.553 119.843 182.636L118.712 213.449C118.66 214.987 118.317 216.546 117.716 217.941C117.005 219.597 115.932 221.012 114.62 222.022C113.069 223.235 111.362 223.841 109.533 223.841Z" fill="#27B7FF"/>
<path d="M107.748 177.583C109.952 177.583 112.202 178.039 114.374 179.186C115.408 179.728 116.416 180.432 117.399 181.312C117.728 181.612 117.929 182.075 117.909 182.57L117.153 203.291L116.785 213.383C116.739 214.707 116.449 216.011 115.944 217.171C115.376 218.501 114.529 219.642 113.443 220.484C112.402 221.292 111.103 221.885 109.539 221.885C107.826 221.885 105.796 221.168 103.437 219.225C103.437 219.225 98.9379 215.261 95.4021 206.27C95.3052 206.022 95.2082 205.775 95.1112 205.52C93.5987 201.504 92.2994 196.542 91.6466 190.531C91.2329 186.697 92.9782 182.955 95.9451 181.227C99.0219 179.441 103.295 177.583 107.748 177.583ZM107.748 173.671C102.325 173.671 97.2831 175.94 94.0059 177.837C89.7074 180.334 87.2059 185.609 87.7876 190.955C88.4082 196.679 89.6493 202.045 91.4785 206.903C91.5755 207.163 91.6854 207.45 91.7953 207.731C95.6219 217.465 100.657 221.977 100.871 222.166C100.903 222.192 100.935 222.224 100.968 222.25C103.818 224.598 106.701 225.791 109.526 225.791C111.756 225.791 113.921 225.028 115.789 223.581C117.366 222.361 118.646 220.686 119.487 218.723C120.185 217.1 120.585 215.294 120.644 213.501L121.012 203.427L121.768 182.707C121.833 181.045 121.174 179.46 119.958 178.378C118.75 177.296 117.47 176.402 116.151 175.711C113.598 174.362 110.76 173.671 107.748 173.671Z" fill="#048BAF"/>
<path d="M91.6405 190.531C92.2934 196.536 93.5926 201.504 95.1052 205.52C95.1956 205.775 95.2991 206.022 95.396 206.27C103.702 207.307 110.987 206.009 117.147 203.297L117.903 182.577C117.923 182.075 117.722 181.612 117.393 181.319C116.41 180.438 115.402 179.734 114.368 179.193C107.82 175.731 100.548 178.561 95.939 181.24C92.9721 182.955 91.2268 186.697 91.6405 190.531Z" fill="#048BAF"/>
<path opacity="0.1" d="M115.937 217.171C115.362 218.495 114.522 219.649 113.436 220.477C111.251 222.172 107.935 222.935 103.43 219.225C103.43 219.225 98.6854 215.039 95.1044 205.52C93.5918 201.504 92.2926 196.542 91.6397 190.531C91.226 186.697 92.9648 182.948 95.9317 181.227C100.547 178.547 107.812 175.718 114.36 179.18C114.244 179.199 114.121 179.219 114.005 179.245C111.148 179.845 108.459 181.299 106.487 183.47C103.792 186.437 102.473 190.492 102.279 194.508C102.092 198.524 102.945 202.528 104.16 206.355C105.324 210.012 106.92 213.716 109.855 216.154C110.812 216.956 111.943 217.621 113.177 217.739C114.147 217.849 115.078 217.615 115.937 217.171Z" fill="black"/>
<path d="M118.49 237.37C118.063 237.37 117.624 237.344 117.152 237.292L116.415 237.201C114.282 236.94 112.252 236.568 110.371 236.099C109.919 235.988 109.473 235.864 109.027 235.74C108.827 235.688 108.594 235.623 108.361 235.551C107.708 235.355 107.062 235.14 106.409 234.912C106.17 234.827 105.944 234.749 105.724 234.658C105.278 234.488 104.838 234.312 104.392 234.123C104.017 233.967 103.655 233.81 103.3 233.654C102.932 233.491 102.582 233.328 102.24 233.158C102.052 233.067 101.884 232.976 101.723 232.891C101.581 232.819 101.432 232.734 101.283 232.643C101.225 232.611 101.167 232.578 101.109 232.539C100.992 232.467 100.882 232.395 100.773 232.324C100.701 232.285 100.611 232.213 100.501 232.135C100.436 232.095 100.378 232.05 100.314 231.998C100.165 231.887 100.023 231.763 99.8806 231.646C99.4345 231.248 99.0726 230.837 98.7623 230.387C98.7106 230.316 98.6524 230.224 98.5942 230.126C98.4908 229.97 98.4003 229.807 98.3228 229.637C98.271 229.533 98.2323 229.448 98.1935 229.364C98.1224 229.214 98.0577 229.057 97.9996 228.901L97.9026 228.614C97.8703 228.51 97.8315 228.392 97.7992 228.281C97.741 228.073 97.6828 227.831 97.6376 227.584C97.5665 227.206 97.5083 226.788 97.476 226.351C97.4695 226.299 97.4631 226.254 97.4631 226.201C97.4566 226.143 97.4501 226.091 97.4501 226.052L97.4049 225.354L96.8231 216.891L96.8102 216.741C96.7908 216.526 96.7585 216.233 96.7843 215.913C96.8037 215.704 96.8425 215.496 96.9072 215.3C97.0364 214.902 97.2691 214.57 97.5665 214.316C97.9996 213.957 98.452 213.879 98.7494 213.879C98.8657 213.879 99.0015 213.892 99.1501 213.918C99.3247 213.951 99.4927 213.977 99.6672 213.996L99.887 214.029C100.863 214.166 101.904 214.283 102.983 214.368C104.082 214.459 105.233 214.518 106.396 214.55C107.075 214.576 107.754 214.583 108.445 214.583C111.852 214.583 115.135 214.342 117.947 213.885C118.076 213.866 118.206 213.853 118.329 213.853C119.621 213.853 120.675 214.876 120.727 216.187C120.74 216.526 120.765 216.819 120.804 217.093C120.927 217.934 121.179 218.586 121.56 219.023C122.873 220.529 124.23 221.866 125.723 223.105L125.82 223.183C128.496 225.386 129.485 227.74 128.761 230.179C128.677 230.452 128.593 230.687 128.49 230.909C128.438 231.046 128.348 231.235 128.244 231.424C128.076 231.763 127.856 232.122 127.604 232.5C126.473 234.208 124.909 235.551 123.079 236.373C122.957 236.425 122.86 236.47 122.763 236.509C122.653 236.562 122.537 236.607 122.427 236.646C122.381 236.666 122.33 236.679 122.284 236.699C122.123 236.764 121.961 236.816 121.8 236.862C121.748 236.881 121.69 236.894 121.632 236.907C121.522 236.94 121.418 236.972 121.308 236.998C121.192 237.031 121.082 237.057 120.972 237.083C120.895 237.103 120.817 237.122 120.74 237.135L120.617 237.201L120.358 237.207C120.21 237.233 120.054 237.259 119.899 237.272L119.789 237.285C119.557 237.311 119.343 237.324 119.137 237.337C118.949 237.364 118.716 237.37 118.49 237.37Z" fill="#40A516"/>
<path d="M118.341 215.489C118.761 215.489 119.11 215.828 119.13 216.265C119.143 216.624 119.175 216.989 119.227 217.347C119.369 218.351 119.705 219.342 120.364 220.112C121.735 221.696 123.157 223.091 124.753 224.408C124.779 224.428 124.799 224.454 124.824 224.467C126.408 225.778 127.895 227.525 127.242 229.729C127.19 229.898 127.132 230.074 127.048 230.25C126.99 230.387 126.925 230.524 126.854 230.661C126.686 230.994 126.499 231.3 126.298 231.6C125.303 233.106 123.971 234.221 122.452 234.905C122.355 234.951 122.265 234.99 122.168 235.029C122.077 235.075 121.987 235.108 121.903 235.14C121.864 235.153 121.825 235.166 121.793 235.179C121.651 235.238 121.515 235.284 121.373 235.323C121.327 235.336 121.289 235.349 121.243 235.362C121.14 235.394 121.043 235.421 120.94 235.447C120.843 235.473 120.746 235.499 120.649 235.518C120.519 235.551 120.397 235.577 120.267 235.597C120.248 235.603 120.229 235.603 120.216 235.603C120.06 235.636 119.899 235.662 119.744 235.681C119.705 235.688 119.666 235.688 119.634 235.694C119.453 235.714 119.272 235.727 119.084 235.74C118.891 235.753 118.703 235.76 118.509 235.76C118.121 235.76 117.733 235.733 117.339 235.694C117.1 235.668 116.861 235.636 116.635 235.61C114.683 235.368 112.711 235.023 110.778 234.54C110.345 234.43 109.919 234.319 109.492 234.195C109.279 234.136 109.065 234.077 108.852 234.012C108.212 233.817 107.585 233.608 106.958 233.393C106.745 233.315 106.538 233.243 106.331 233.165C105.898 233.002 105.471 232.832 105.051 232.65C104.683 232.493 104.321 232.337 103.972 232.187C103.623 232.037 103.3 231.88 102.976 231.724C102.815 231.646 102.66 231.561 102.511 231.483C102.375 231.411 102.24 231.339 102.11 231.254C102.071 231.235 102.033 231.215 102 231.189C101.903 231.13 101.806 231.072 101.722 231.007C101.632 230.948 101.554 230.896 101.47 230.824C101.425 230.798 101.38 230.765 101.335 230.726C101.212 230.635 101.095 230.537 100.986 230.439C100.669 230.159 100.384 229.846 100.139 229.487C100.093 229.422 100.048 229.357 100.009 229.285C99.9384 229.174 99.8737 229.064 99.8155 228.946C99.7768 228.868 99.738 228.803 99.7057 228.718C99.6539 228.607 99.6022 228.49 99.5635 228.373C99.5376 228.294 99.5053 228.21 99.4794 228.125C99.4536 228.04 99.4212 227.949 99.4019 227.864C99.3501 227.681 99.3049 227.499 99.2726 227.297C99.2079 226.958 99.1627 226.586 99.1304 226.195C99.1239 226.162 99.1239 226.13 99.1239 226.097C99.1239 226.084 99.1239 226.071 99.1174 226.051C99.111 226.032 99.111 226.012 99.111 225.999L99.0657 225.269L98.9365 223.45C98.93 223.378 98.9235 223.307 98.9235 223.235C98.8977 222.844 98.8718 222.452 98.846 222.055C98.8072 221.461 98.7619 220.862 98.7231 220.268C98.6779 219.629 98.6326 218.99 98.5939 218.351C98.5551 217.83 98.5228 217.308 98.484 216.787C98.4711 216.558 98.4258 216.291 98.4452 216.05C98.4517 215.965 98.4646 215.887 98.4904 215.809C98.5228 215.717 98.5745 215.633 98.6456 215.574C98.7038 215.528 98.749 215.509 98.8007 215.509C98.833 215.509 98.8654 215.515 98.9041 215.522C99.1692 215.574 99.4406 215.607 99.7121 215.646C100.772 215.796 101.839 215.906 102.905 215.998C104.069 216.089 105.232 216.154 106.402 216.187C107.087 216.213 107.786 216.219 108.497 216.219C112.11 216.219 115.465 215.952 118.251 215.502C118.264 215.496 118.302 215.489 118.341 215.489ZM118.341 212.229C118.128 212.229 117.914 212.249 117.701 212.281C114.98 212.725 111.78 212.959 108.458 212.959C107.734 212.959 107.081 212.946 106.473 212.927C105.323 212.894 104.205 212.836 103.132 212.751C102.091 212.666 101.076 212.555 100.126 212.418L99.906 212.386C99.7638 212.366 99.6216 212.347 99.4794 212.321C99.3178 212.288 99.0722 212.249 98.7619 212.249C97.9539 212.249 97.1912 212.529 96.5577 213.051C96.0148 213.501 95.614 214.094 95.3878 214.765C95.2779 215.085 95.2133 215.431 95.1874 215.783C95.1486 216.252 95.1874 216.643 95.2132 216.904L95.2262 217.008L95.2779 217.791L95.3296 218.573L95.3878 219.473L95.4589 220.49L95.4718 220.686L95.5817 222.27L95.6528 223.32L95.6593 223.45L95.6722 223.665L95.8015 225.484L95.8467 226.143C95.8532 226.227 95.8532 226.306 95.8661 226.384C95.8726 226.43 95.8726 226.475 95.879 226.514C95.9178 227.003 95.976 227.473 96.06 227.91C96.1182 228.21 96.1828 228.49 96.2539 228.744C96.2927 228.875 96.3315 229.011 96.3768 229.142C96.4091 229.246 96.4479 229.344 96.4802 229.442C96.5513 229.644 96.6353 229.839 96.7258 230.042C96.771 230.146 96.8228 230.25 96.8745 230.348L96.8809 230.368C96.9844 230.576 97.0942 230.785 97.23 230.994C97.3011 231.111 97.3722 231.222 97.4562 231.339C97.8376 231.893 98.2771 232.395 98.8136 232.871C98.9429 232.989 99.1304 233.145 99.3372 233.308C99.4019 233.36 99.4794 233.419 99.5699 233.478C99.6863 233.562 99.7962 233.641 99.9125 233.719C100.029 233.797 100.145 233.869 100.249 233.934C100.333 233.986 100.41 234.032 100.481 234.071C100.636 234.162 100.798 234.253 100.979 234.351C101.147 234.443 101.322 234.534 101.496 234.619L101.516 234.625L101.535 234.632C101.826 234.775 102.22 234.964 102.653 235.153C103.009 235.31 103.384 235.473 103.765 235.629C104.198 235.812 104.657 235.994 105.155 236.19C105.362 236.268 105.594 236.353 105.833 236.438L105.853 236.444L105.879 236.451C106.59 236.698 107.249 236.914 107.889 237.109C108.128 237.181 108.367 237.253 108.606 237.318C109.014 237.435 109.447 237.553 109.964 237.683C111.916 238.172 114.017 238.55 116.214 238.824C116.447 238.85 116.686 238.883 116.925 238.909H116.945H116.971C117.494 238.967 117.992 238.993 118.483 238.993C118.761 238.993 119.02 238.987 119.259 238.967C119.485 238.954 119.711 238.935 119.938 238.915L119.97 238.909L120.002 238.902L120.119 238.889C120.313 238.87 120.5 238.837 120.687 238.804C120.752 238.798 120.817 238.785 120.875 238.772C121.03 238.746 121.185 238.713 121.327 238.68C121.457 238.654 121.579 238.622 121.715 238.583C121.832 238.557 121.948 238.524 122.077 238.485C122.155 238.465 122.226 238.446 122.278 238.426C122.459 238.374 122.646 238.315 122.827 238.244C122.905 238.218 122.969 238.191 123.008 238.178C123.105 238.139 123.247 238.087 123.415 238.015C123.532 237.97 123.641 237.918 123.758 237.865C125.859 236.92 127.656 235.381 128.968 233.406C129.239 233.002 129.485 232.584 129.698 232.174C129.808 231.965 129.911 231.75 130.002 231.535C130.125 231.267 130.228 230.98 130.325 230.668C130.965 228.496 130.888 225.243 126.867 221.924L126.68 221.774C125.29 220.614 124.023 219.362 122.801 217.954C122.73 217.869 122.53 217.576 122.426 216.865C122.394 216.643 122.375 216.402 122.362 216.122C122.271 213.944 120.506 212.229 118.341 212.229C118.348 212.229 118.348 212.229 118.341 212.229Z" fill="#246B0C"/>
<g opacity="0.2">
<path d="M98.4064 216.043C98.387 216.304 98.4452 216.604 98.4581 216.832C98.4969 217.36 98.5292 217.889 98.568 218.41C98.6133 219.049 98.652 219.688 98.6973 220.32C98.7361 220.907 98.7749 221.501 98.8201 222.087C98.846 222.472 98.8718 222.857 98.8977 223.235C98.9041 223.3 98.9106 223.365 98.9106 223.43L99.0399 225.249L99.0916 225.98C99.0981 225.999 99.0981 226.019 99.0916 226.032C99.0981 226.051 99.098 226.064 99.098 226.078C99.098 226.11 99.1045 226.143 99.1045 226.175C99.1304 226.567 99.1821 226.938 99.2467 227.277C99.2855 227.473 99.3243 227.662 99.376 227.844C99.4019 227.929 99.4277 228.02 99.4536 228.105C99.4794 228.19 99.5117 228.268 99.5376 228.353C99.5828 228.47 99.6281 228.588 99.6798 228.699C99.7121 228.777 99.7509 228.848 99.7897 228.927C99.8479 229.044 99.9125 229.155 99.9836 229.266C100.029 229.337 100.068 229.403 100.113 229.468C100.359 229.826 100.643 230.139 100.96 230.42C101.07 230.518 101.192 230.615 101.309 230.707C101.354 230.746 101.399 230.778 101.444 230.804C101.528 230.87 101.606 230.928 101.697 230.987C101.787 231.046 101.878 231.111 101.974 231.17C102.013 231.196 102.052 231.215 102.084 231.235C102.214 231.313 102.349 231.391 102.485 231.463C102.634 231.541 102.789 231.626 102.951 231.704C103.267 231.867 103.597 232.017 103.946 232.167C104.295 232.317 104.651 232.474 105.025 232.63C105.446 232.813 105.872 232.982 106.305 233.145C106.512 233.223 106.719 233.302 106.932 233.373C107.553 233.595 108.193 233.804 108.826 233.993C109.04 234.058 109.253 234.123 109.466 234.175C109.893 234.299 110.326 234.41 110.752 234.521C112.685 235.003 114.657 235.349 116.609 235.59C116.835 235.616 117.074 235.649 117.313 235.675C117.708 235.72 118.095 235.74 118.483 235.74C118.677 235.74 118.865 235.733 119.059 235.72C119.24 235.714 119.427 235.694 119.608 235.675C119.647 235.668 119.686 235.668 119.718 235.662C119.879 235.642 120.035 235.616 120.19 235.584C120.203 235.584 120.222 235.584 120.241 235.577C120.371 235.557 120.5 235.531 120.623 235.499C120.72 235.479 120.817 235.453 120.914 235.427C121.017 235.401 121.114 235.375 121.218 235.342C121.263 235.336 121.308 235.316 121.347 235.303C121.489 235.264 121.625 235.218 121.767 235.16C121.806 235.153 121.845 235.134 121.877 235.121C121.967 235.088 122.058 235.055 122.142 235.01C122.239 234.971 122.336 234.932 122.426 234.886C119.621 234.436 116.816 233.738 114.146 232.728C113.713 232.565 113.286 232.395 112.866 232.219C110.772 231.339 108.057 230.296 107.378 227.857C106.738 225.562 106.758 223.163 106.641 220.803C106.622 220.431 106.473 218.045 106.357 216.174C105.187 216.141 104.024 216.083 102.86 215.985C101.794 215.9 100.727 215.783 99.6669 215.633C99.4471 215.6 99.2273 215.567 99.014 215.535C98.93 215.522 98.7943 215.47 98.7102 215.489C98.6133 215.502 98.5292 215.62 98.484 215.698C98.4387 215.809 98.4129 215.92 98.4064 216.043Z" fill="#7A7A7A"/>
</g>
<path d="M99.2403 227.284C99.8415 230.433 102.059 231.372 105.026 232.63C105.446 232.806 105.872 232.976 106.305 233.139C109.628 234.39 113.144 235.166 116.615 235.59C116.848 235.616 117.087 235.649 117.326 235.675C120.914 236.066 124.281 234.645 126.298 231.593C125.839 232.082 125.161 232.545 124.753 232.845C124.062 233.367 123.299 233.81 122.485 234.117C118.496 235.61 113.48 233.823 109.692 232.428C106.467 231.235 103.274 229.774 100.294 228.047C100.236 228.014 99.7574 227.668 99.2403 227.284Z" fill="white"/>
<g opacity="0.15">
<path d="M125.47 227.375C126.194 227.949 126.227 229.246 125.264 229.859C124.565 230.302 122.232 231.254 121.346 230.759C120.991 230.563 120.926 230.185 121.036 229.866C121.211 229.357 122.051 228.888 122.439 228.418C122.775 228.014 123.13 227.603 123.673 227.342C124.443 226.964 125.063 227.055 125.47 227.375Z" fill="white"/>
</g>
<path d="M110.933 216.174C111.566 218.293 112.458 220.34 113.57 222.244C114.811 224.356 116.44 226.391 118.702 227.29C118.967 227.395 119.252 227.486 119.543 227.434C119.963 227.362 120.267 226.997 120.557 226.671C121.766 225.367 123.279 225.002 124.753 224.395C123.162 223.078 121.74 221.683 120.364 220.099C119.704 219.336 119.368 218.338 119.226 217.334C119.174 216.976 119.142 216.617 119.129 216.252C119.11 215.77 118.689 215.411 118.218 215.483C116.078 215.848 113.602 216.083 110.933 216.174Z" fill="#246B0C"/>
<path d="M124.721 222.844C121.45 222.42 118.024 223.3 115.361 225.262" stroke="white" stroke-width="5" stroke-miterlimit="10" stroke-linecap="round" stroke-linejoin="round"/>
<path d="M121.535 219.258C121.069 219.623 120.785 220.164 120.539 220.705C119.376 223.235 118.755 225.98 118.148 228.705" stroke="white" stroke-width="5" stroke-miterlimit="10" stroke-linecap="round" stroke-linejoin="round"/>
<path d="M119.977 214.302C118.71 217.934 115.918 220.992 112.434 222.563" stroke="white" stroke-width="5" stroke-miterlimit="10" stroke-linecap="round" stroke-linejoin="round"/>
<path d="M121.6 218.873C117.831 219.479 113.83 218.449 110.812 216.102" stroke="white" stroke-width="5" stroke-miterlimit="10" stroke-linecap="round" stroke-linejoin="round"/>
<path d="M126.473 142.062C125.071 142.062 123.649 142.036 122.252 141.977C119.285 141.853 116.125 141.586 113.164 140.478C111.858 139.989 110.953 139.037 110.682 137.863C110.404 136.65 110.811 135.392 111.826 134.31C112.776 133.293 113.998 132.791 114.974 132.386C121.787 129.576 128.781 126.968 135.768 124.634C139.175 123.5 142.64 122.405 146.078 121.387C146.718 121.198 147.378 121.029 148.043 120.853C150.183 120.299 152.394 119.725 153.932 118.434C154.708 117.782 155.541 117.443 156.356 117.443C157.164 117.443 157.907 117.769 158.508 118.382C159.284 119.171 159.478 120.018 159.42 120.788C159.588 120.703 160.053 120.462 160.053 120.462C160.732 120.11 161.404 119.927 162.057 119.927C163.234 119.927 164.216 120.527 164.74 121.563C165.018 122.111 165.153 122.757 165.03 123.415C166.026 123.695 166.834 124.497 167.189 125.619C167.622 126.981 167.28 128.396 166.343 129.257C166.433 129.368 166.524 129.485 166.601 129.609C167.021 130.281 167.131 131.063 166.899 131.806C166.485 133.162 165.024 134.323 162.16 135.555C156.543 137.987 147.423 139.904 147.332 139.923C140.481 141.345 133.461 142.062 126.473 142.062Z" fill="#EAC8A7"/>
<path d="M156.368 119.066C156.698 119.066 157.047 119.19 157.364 119.523C158.224 120.403 157.713 121.342 157.196 122.261C157.06 122.496 156.595 123.285 156.569 123.448C156.549 123.578 156.627 123.63 156.782 123.63C157.545 123.63 160.085 122.281 160.809 121.909C161.249 121.681 161.682 121.557 162.07 121.557C162.606 121.557 163.059 121.792 163.317 122.307C163.789 123.233 163.123 123.93 162.276 124.393C161.863 124.621 161.462 125.019 161.048 125.241C160.673 125.443 160.13 125.606 159.807 125.867C159.342 126.245 159.684 126.721 160.156 126.721C160.24 126.721 160.324 126.708 160.408 126.675C160.88 126.499 161.346 126.238 161.811 126.017C162.548 125.664 163.356 124.973 164.19 124.941C164.209 124.941 164.229 124.941 164.248 124.941C165.761 124.941 166.323 127.308 165.159 128.155C164.157 128.885 161.074 130.059 160.576 130.62C160.318 130.913 160.441 131.024 160.757 131.024C161.365 131.024 162.703 130.607 163.414 130.313C163.763 130.17 164.125 130.007 164.461 130.007C164.759 130.007 165.037 130.131 165.263 130.489C165.993 131.65 164.235 132.908 161.553 134.069C156.556 136.233 148.34 138.072 147.035 138.339C140.28 139.728 133.389 140.439 126.492 140.439C125.109 140.439 123.719 140.413 122.336 140.354C119.427 140.236 116.473 139.976 113.746 138.952C112.084 138.326 111.716 136.82 113.015 135.431C113.707 134.695 114.67 134.284 115.601 133.899C122.407 131.089 129.311 128.514 136.292 126.186C139.692 125.052 143.111 123.976 146.55 122.952C149.375 122.118 152.658 121.648 154.985 119.692C155.328 119.386 155.832 119.066 156.368 119.066ZM156.368 115.806C155.173 115.806 153.977 116.282 152.91 117.176C151.65 118.232 149.711 118.734 147.649 119.268C146.989 119.438 146.304 119.614 145.625 119.816C142.167 120.84 138.683 121.942 135.264 123.083C128.238 125.43 121.205 128.051 114.36 130.874C113.3 131.311 111.845 131.911 110.649 133.182C109.273 134.655 108.71 136.494 109.111 138.228C109.505 139.943 110.779 141.312 112.601 141.997C115.775 143.19 119.085 143.47 122.187 143.601C123.609 143.659 125.051 143.692 126.473 143.692C133.564 143.692 140.694 142.962 147.662 141.527C147.752 141.508 157.034 139.558 162.807 137.061C166.187 135.601 167.874 134.173 168.45 132.295C168.747 131.317 168.695 130.307 168.307 129.387C169.031 128.162 169.206 126.61 168.734 125.117C168.353 123.924 167.609 122.972 166.659 122.372C166.588 121.824 166.426 121.303 166.181 120.82C165.379 119.242 163.841 118.297 162.057 118.297C161.565 118.297 161.074 118.369 160.583 118.506C160.357 118.062 160.053 117.638 159.665 117.241C158.767 116.315 157.597 115.806 156.368 115.806Z" fill="#AD886D"/>
<path d="M160.938 130.613C160.938 130.613 163.116 130.039 165.32 128.853L160.938 130.613Z" fill="#EAC8A7"/>
<path d="M160.938 130.613C160.938 130.613 163.116 130.039 165.32 128.853" stroke="#AD886D" stroke-width="4" stroke-miterlimit="10" stroke-linecap="round" stroke-linejoin="round"/>
<path d="M159.367 126.532C159.367 126.532 161.462 125.717 163.524 124.295L159.367 126.532Z" fill="#EAC8A7"/>
<path d="M159.367 126.532C159.367 126.532 161.462 125.717 163.524 124.295" stroke="#AD886D" stroke-width="4" stroke-miterlimit="10" stroke-linecap="round" stroke-linejoin="round"/>
<path d="M127.048 147.454C126.531 147.454 126.014 147.448 125.497 147.441C124.469 147.422 123.422 147.382 122.382 147.324C119.337 147.161 116.137 146.854 112.867 146.398C111.781 146.248 110.675 146.078 109.564 145.889C105.336 145.192 102.608 144.514 102.492 144.488L100.333 143.946L112.531 124.217L112.666 124.08C113.326 123.422 114.088 122.881 114.935 122.476C115.989 121.974 117.146 121.714 118.277 121.714H118.484C118.872 121.72 119.285 121.759 119.725 121.844L119.886 121.864L120.074 121.929C121.27 122.353 122.866 122.62 124.825 122.718C125.394 122.75 126.008 122.763 126.654 122.763C126.945 122.763 127.229 122.763 127.527 122.757C129.188 122.724 131.037 122.594 133.176 122.366C134.198 122.248 135.148 122.124 135.988 122C138.729 121.609 140.758 121.192 141.14 121.114C141.288 121.081 141.424 121.068 141.566 121.068C142.245 121.068 142.885 121.401 143.286 121.948C144.391 123.559 145.283 125.189 145.949 126.819C146.343 127.764 146.666 128.736 146.912 129.714C147.5 132.022 147.675 134.369 147.416 136.677C147.287 137.844 147.048 139.004 146.712 140.119C146.363 141.247 145.923 142.323 145.393 143.294C144.857 144.305 144.003 145.035 143.008 145.348C141.127 145.942 139.065 146.411 136.887 146.743C135.833 146.913 134.734 147.05 133.642 147.148C131.547 147.35 129.337 147.454 127.048 147.454Z" fill="#40A516"/>
<path d="M141.567 122.705C141.728 122.705 141.883 122.783 141.974 122.913C143.047 124.478 143.855 125.997 144.45 127.445C144.831 128.357 145.122 129.257 145.342 130.118C145.949 132.491 146.014 134.649 145.807 136.501C145.678 137.674 145.439 138.737 145.161 139.643C144.779 140.902 144.32 141.873 143.971 142.525C143.661 143.105 143.163 143.601 142.53 143.796C140.662 144.383 138.677 144.827 136.641 145.14C135.607 145.303 134.553 145.433 133.493 145.531C131.36 145.733 129.195 145.824 127.055 145.824C126.551 145.824 126.04 145.818 125.536 145.811C124.508 145.792 123.487 145.752 122.479 145.7C119.111 145.524 115.905 145.179 113.093 144.787C111.936 144.624 110.844 144.455 109.842 144.285C105.621 143.588 102.893 142.91 102.893 142.91L106.293 137.413L107.786 134.995L111.212 129.459L112.725 127.008L113.811 125.241C114.347 124.706 114.961 124.276 115.634 123.956C116.461 123.565 117.366 123.35 118.284 123.35C118.335 123.35 118.394 123.35 118.445 123.35C118.794 123.357 119.137 123.396 119.48 123.461C119.499 123.461 119.525 123.467 119.544 123.467C120.999 123.982 122.802 124.25 124.754 124.348C125.381 124.38 126.021 124.393 126.674 124.393C126.971 124.393 127.269 124.393 127.566 124.387C129.512 124.348 131.502 124.185 133.351 123.982C134.353 123.865 135.329 123.741 136.227 123.611C138.761 123.246 140.733 122.861 141.476 122.705C141.502 122.705 141.534 122.705 141.567 122.705ZM141.567 119.445C141.321 119.445 141.075 119.471 140.83 119.516C140.287 119.627 138.367 120.012 135.762 120.39C134.935 120.514 133.997 120.631 132.976 120.749C130.908 120.97 129.104 121.094 127.488 121.127C127.217 121.133 126.939 121.133 126.667 121.133C126.04 121.133 125.452 121.12 124.916 121.088C123.106 120.996 121.664 120.762 120.617 120.39L120.216 120.247L119.951 120.227C119.46 120.136 118.988 120.09 118.51 120.084C118.432 120.084 118.355 120.084 118.284 120.084C116.913 120.084 115.524 120.403 114.257 121.003C113.242 121.485 112.33 122.131 111.542 122.92L111.27 123.187L111.07 123.513L109.984 125.28L108.472 127.725L105.046 133.26L103.552 135.679L100.152 141.175L97.7932 144.983L102.117 146.065C102.234 146.091 105.02 146.789 109.318 147.493C110.417 147.682 111.548 147.852 112.654 148.008C115.97 148.471 119.221 148.784 122.311 148.947C123.345 149.006 124.411 149.045 125.478 149.064C126.002 149.078 126.525 149.078 127.055 149.078C129.395 149.078 131.664 148.973 133.797 148.771C134.915 148.673 136.047 148.53 137.145 148.354C139.388 148.015 141.534 147.526 143.493 146.9C144.883 146.47 146.072 145.459 146.815 144.057C147.391 142.994 147.869 141.827 148.25 140.595C148.619 139.389 148.877 138.124 149.02 136.853C149.298 134.349 149.117 131.806 148.47 129.303C148.205 128.259 147.856 127.21 147.436 126.186C146.731 124.471 145.788 122.737 144.637 121.055L144.618 121.022L144.598 120.996C143.887 120.025 142.756 119.445 141.567 119.445Z" fill="#246B0C"/>
<path opacity="0.05" d="M144.113 140.947C144.378 140.862 144.624 140.725 144.844 140.562C144.54 141.384 144.223 142.043 143.965 142.525C143.654 143.105 143.15 143.601 142.523 143.803C126.654 148.823 102.88 142.91 102.88 142.91C102.88 142.91 101.749 142.897 102.033 141.293C108.879 142.577 129.415 145.772 144.113 140.947Z" fill="#2D2D2D"/>
<path d="M22.7534 178.782C22.5013 178.782 22.2427 178.75 21.9842 178.684C21.396 178.534 20.8207 178.208 20.4135 177.68C19.9351 177.993 19.3728 178.163 18.7652 178.163C17.7697 178.163 16.7549 177.7 16.0633 176.924C15.5138 176.311 15.2165 175.568 15.21 174.805C15.0743 174.805 14.9321 174.792 14.7769 174.766C14.0013 174.642 13.3484 174.205 12.9477 173.534C12.2172 172.321 12.3207 170.45 13.2967 167.47C15.21 161.609 19.8317 153.452 19.877 153.368C24.0914 145.994 29.172 139.161 34.9766 133.058C37.0386 130.894 39.3268 128.69 42.1128 127.184C42.7786 126.825 43.4508 126.643 44.1101 126.643C45.9911 126.643 47.3873 128.097 47.5812 130.255C47.704 131.643 47.271 132.895 46.9219 133.906C44.498 140.915 41.796 147.93 38.9002 154.756C37.4911 158.075 36.0044 161.42 34.4789 164.699C34.1945 165.306 33.8842 165.918 33.574 166.538C32.5656 168.52 31.5249 170.574 31.4667 172.595C31.4086 174.623 30.2321 175.992 28.4739 176.089C28.4093 176.096 28.3382 176.096 28.2736 176.096C27.2717 176.096 26.5736 175.711 26.0823 175.19C26.0371 175.366 25.9078 175.874 25.9078 175.874C25.4618 177.667 24.253 178.782 22.7534 178.782Z" fill="#EAC8A7"/>
<path d="M44.1169 128.273C45.1123 128.273 45.8557 129.029 45.972 130.405C46.0625 131.415 45.7264 132.413 45.3967 133.371C42.9728 140.374 40.3096 147.298 37.4138 154.118C36.0047 157.443 34.5374 160.735 33.0184 164.008C31.7708 166.694 29.9415 169.485 29.8511 172.543C29.8317 173.299 29.5796 174.394 28.3837 174.453C28.345 174.453 28.3062 174.453 28.2739 174.453C27.1427 174.453 26.7936 173.482 26.4704 172.51C26.3864 172.256 26.1085 171.382 26.005 171.252C25.9727 171.206 25.9339 171.187 25.8951 171.187C25.391 171.187 24.5636 174.583 24.3438 175.47C24.0917 176.481 23.5229 177.146 22.7537 177.146C22.6373 177.146 22.5145 177.133 22.3853 177.1C21.3833 176.839 21.3122 175.881 21.5256 174.929C21.629 174.466 21.6031 173.899 21.713 173.436C21.81 173.019 22.0556 172.504 22.075 172.086C22.0944 171.728 21.894 171.565 21.6678 171.565C21.4415 171.565 21.1894 171.721 21.0795 172.008C20.8986 172.484 20.7822 173.006 20.64 173.501C20.4138 174.29 20.3879 175.359 19.8643 176.011C19.5735 176.37 19.1792 176.52 18.7719 176.52C17.7959 176.52 16.7358 175.64 16.8328 174.616C16.9556 173.371 18.1255 170.267 18.035 169.524C18.0092 169.309 17.951 169.218 17.867 169.218C17.4985 169.218 16.6906 170.958 16.3868 171.865C16.1799 172.478 15.9666 173.162 15.2426 173.162C15.178 173.162 15.1069 173.156 15.0293 173.143C13.6848 172.927 13.9111 170.763 14.829 167.966C16.5354 162.756 20.6141 155.33 21.2735 154.17C25.4039 146.933 30.4069 140.204 36.1404 134.18C38.1572 132.061 40.3032 130 42.8758 128.618C43.3154 128.39 43.7355 128.273 44.1169 128.273ZM44.1169 125.013C43.1861 125.013 42.2553 125.26 41.3568 125.743C38.3705 127.353 35.9659 129.668 33.8134 131.924C27.9119 138.124 22.7537 145.061 18.4746 152.546C18.4293 152.631 13.7236 160.931 11.7586 166.949C10.608 170.469 10.5499 172.693 11.5647 174.368C12.0883 175.242 12.8769 175.868 13.8141 176.187C14.021 176.846 14.3765 177.459 14.8677 178.006C15.8632 179.115 17.324 179.78 18.7719 179.78C19.2309 179.78 19.6833 179.715 20.1164 179.584C20.5689 179.897 21.0731 180.119 21.5902 180.256C21.978 180.354 22.3659 180.406 22.7602 180.406C24.5894 180.406 26.1602 179.323 27.0199 177.557C27.4012 177.654 27.8214 177.713 28.2868 177.713C28.3773 177.713 28.4742 177.713 28.5712 177.707C31.1891 177.563 33.0054 175.529 33.0959 172.634C33.1476 170.985 34.0591 169.185 35.0286 167.275C35.3389 166.662 35.6621 166.029 35.9594 165.384C37.4849 162.091 38.9845 158.734 40.4001 155.389C43.3154 148.53 46.0237 141.475 48.4606 134.434C48.842 133.339 49.3591 131.846 49.204 130.105C48.926 127.112 46.8382 125.013 44.1169 125.013Z" fill="#AD886D"/>
<path d="M17.7891 169.811C17.7891 169.811 16.7743 171.839 16.1926 174.29L17.7891 169.811Z" fill="#EAC8A7"/>
<path d="M17.7891 169.811C17.7891 169.811 16.7743 171.839 16.1926 174.29" stroke="#AD886D" stroke-width="4" stroke-miterlimit="10" stroke-linecap="round" stroke-linejoin="round"/>
<path d="M21.8553 171.323C21.8553 171.323 21.0731 173.449 20.7629 175.94L21.8553 171.323Z" fill="#EAC8A7"/>
<path d="M21.8553 171.323C21.8553 171.323 21.0731 173.449 20.7629 175.94" stroke="#AD886D" stroke-width="4" stroke-miterlimit="10" stroke-linecap="round" stroke-linejoin="round"/>
<path d="M36.0378 162.215L35.9085 162.202C33.9823 161.967 32.1788 161.563 30.5305 160.989C29.5674 160.657 28.6301 160.259 27.7446 159.796C25.6374 158.714 23.7822 157.286 22.2373 155.558C21.4552 154.691 20.7507 153.739 20.1495 152.742C19.5419 151.731 19.0377 150.688 18.6628 149.645C18.2685 148.569 18.2879 147.441 18.721 146.483C19.5225 144.67 20.5438 142.805 21.7396 140.934C22.3149 140.028 22.9419 139.109 23.5948 138.215C25.1009 136.129 26.8461 133.997 28.7724 131.885C29.4769 131.115 30.1944 130.346 30.9248 129.609C33.0515 127.419 35.4108 125.208 37.9188 123.031C38.7655 122.294 39.6252 121.57 40.4849 120.873C43.8074 118.141 46.115 116.53 46.212 116.459L48.0477 115.181L54.615 137.472L54.6279 137.661C54.6797 138.6 54.5762 139.532 54.3177 140.432C53.9686 141.632 53.3546 142.734 52.5336 143.62C52.2686 143.914 51.9584 144.201 51.6093 144.475L51.5059 144.579L51.3249 144.683C50.2196 145.303 48.9591 146.339 47.5888 147.748C47.0199 148.334 46.4253 148.993 45.7724 149.762C44.6994 151.04 43.5682 152.52 42.3207 154.287C41.7389 155.128 41.196 155.93 40.7241 156.654C39.2503 158.91 38.242 160.65 37.9705 161.133C37.5891 161.798 36.8845 162.202 36.1347 162.202H36.0378V162.215Z" fill="#40A516"/>
<path d="M47.1229 117.802L48.9521 124.015L49.7601 126.747L51.6023 133L52.4168 135.764L53.005 137.753C53.0503 138.509 52.9598 139.265 52.7529 139.982C52.4814 140.921 52.0031 141.795 51.3373 142.512C51.1046 142.773 50.8461 143.008 50.5681 143.223C50.5552 143.236 50.5358 143.249 50.5164 143.262C49.1719 144.018 47.7757 145.205 46.4118 146.613C45.7719 147.272 45.1384 147.976 44.5179 148.713C43.2575 150.212 42.0616 151.823 40.9822 153.348C40.4004 154.183 39.851 155.004 39.3533 155.767C37.9441 157.919 36.9228 159.666 36.5479 160.331C36.4574 160.487 36.2894 160.585 36.1148 160.585C36.1019 160.585 36.0825 160.585 36.0696 160.585C34.1951 160.357 32.5338 159.966 31.0601 159.451C30.1293 159.131 29.2696 158.76 28.4874 158.349C26.322 157.234 24.6802 155.852 23.4391 154.47C22.6505 153.596 22.0235 152.709 21.5323 151.901C20.8536 150.779 20.4334 149.788 20.1813 149.091C19.9551 148.471 19.9163 147.767 20.1943 147.154C20.9958 145.355 21.9783 143.562 23.0965 141.814C23.6589 140.921 24.2601 140.041 24.8935 139.174C26.4578 137.016 28.1772 134.936 29.9612 132.98C30.6593 132.217 31.3639 131.467 32.0684 130.744C34.4342 128.318 36.8129 126.121 38.9654 124.256C39.851 123.487 40.7042 122.776 41.4928 122.131C44.8088 119.412 47.1229 117.802 47.1229 117.802ZM48.9521 112.573L45.2871 115.122C45.1902 115.194 42.8308 116.837 39.4502 119.614C38.5841 120.325 37.705 121.062 36.8582 121.798C34.3179 124.002 31.9327 126.245 29.7673 128.468C29.0369 129.212 28.3 129.994 27.5825 130.783C25.611 132.941 23.8334 135.125 22.2886 137.264C21.6228 138.176 20.9764 139.122 20.3752 140.074C19.1406 141.997 18.087 143.94 17.2467 145.831C16.6456 147.167 16.6068 148.732 17.1562 150.225C17.5635 151.36 18.1129 152.501 18.7787 153.602C19.4315 154.685 20.1943 155.715 21.0475 156.667C22.7216 158.532 24.7319 160.083 27.0201 161.257C27.9639 161.746 28.9787 162.183 30.0258 162.541C31.7711 163.148 33.678 163.578 35.6947 163.826L35.7335 163.832L35.7723 163.839C35.8886 163.852 36.0114 163.858 36.1278 163.858C37.4529 163.858 38.6939 163.141 39.3597 161.981C39.5601 161.635 40.5814 159.849 42.0681 157.573C42.527 156.869 43.0571 156.08 43.6453 155.232C44.8476 153.524 45.9529 152.077 47 150.832C47.6206 150.101 48.1894 149.469 48.7324 148.908C49.9993 147.604 51.1305 146.665 52.1001 146.124L52.4685 145.916L52.6624 145.726C53.0567 145.413 53.4058 145.087 53.729 144.729C54.7115 143.66 55.4548 142.343 55.8685 140.908C56.1788 139.826 56.3081 138.705 56.2434 137.583L56.224 137.198L56.1142 136.833L55.5259 134.845L54.7115 132.08L52.8693 125.828L52.0613 123.096L50.232 116.889L48.9521 112.573Z" fill="#246B0C"/>
<path opacity="0.05" d="M21.2612 150.251C21.1513 150.505 21.0866 150.786 21.0608 151.06C20.6536 150.29 20.3691 149.606 20.1882 149.097C19.9619 148.478 19.9296 147.767 20.2011 147.161C26.9882 131.846 47.1297 117.802 47.1297 117.802C47.1297 117.802 47.886 116.954 48.8943 118.232C43.3936 122.548 27.4148 135.947 21.2612 150.251Z" fill="#2D2D2D"/>
<path d="M88.447 197.357C86.398 197.357 84.3101 197.338 82.2481 197.292C80.1861 197.338 78.0983 197.357 76.0557 197.357C65.5777 197.357 56.0047 196.797 49.1013 195.773C39.9936 194.423 35.9278 192.428 35.9278 189.305C35.9278 185.4 36.0312 183.001 36.3544 177.296C37.5567 155.747 40.9567 137.883 46.7419 122.691L47.2655 121.309L48.6811 121.7C48.8362 121.74 64.091 125.938 82.2675 126.121C100.438 125.938 115.666 121.746 115.822 121.7L117.237 121.303L117.761 122.685C123.546 137.876 126.94 155.734 128.148 177.289C128.471 183.001 128.575 185.406 128.575 189.299C128.575 192.422 124.516 194.417 115.401 195.767C108.498 196.797 98.925 197.357 88.447 197.357Z" fill="#40A516"/>
<path d="M116.248 123.278C123.559 142.486 125.705 162.652 126.532 177.387C126.862 183.229 126.952 185.511 126.952 189.305C126.952 193.687 108.343 195.727 88.4403 195.727C86.3848 195.727 84.3099 195.708 82.2479 195.662C80.1794 195.708 78.111 195.727 76.0555 195.727C56.1531 195.727 37.5436 193.687 37.5436 189.305C37.5436 185.511 37.6341 183.229 37.9637 177.387C38.7846 162.652 40.9306 142.486 48.2478 123.278C48.2478 123.278 63.6254 127.568 82.2479 127.757C100.87 127.568 116.248 123.278 116.248 123.278ZM118.213 119.347L115.388 120.136C115.24 120.175 100.179 124.315 82.2479 124.491C64.317 124.308 49.2562 120.175 49.1075 120.136L46.2828 119.347L45.2291 122.105C39.3858 137.459 35.9534 155.48 34.7382 177.198C34.415 182.935 34.3116 185.354 34.3116 189.299C34.3116 194.521 41.6675 196.314 48.8683 197.377C55.8429 198.414 65.4999 198.981 76.0555 198.981C78.1045 198.981 80.1859 198.961 82.2479 198.916C84.3099 198.961 86.3913 198.981 88.4403 198.981C98.9959 198.981 108.653 198.414 115.627 197.377C122.822 196.308 130.178 194.515 130.178 189.299C130.178 185.354 130.074 182.935 129.751 177.198C128.536 155.48 125.104 137.459 119.26 122.105L118.213 119.347Z" fill="#246B0C"/>
<g opacity="0.13">
<path d="M36.1407 189.305C36.1407 193.922 56.7541 195.936 77.8006 195.714C63.942 183.561 54.8667 163.337 54.8667 140.439C54.8667 135.242 55.3321 130.183 56.2176 125.332C50.4195 124.282 46.845 123.285 46.845 123.285C39.5278 142.493 37.3818 162.659 36.5609 177.394C36.2312 183.229 36.1407 185.511 36.1407 189.305Z" fill="#246B0C"/>
</g>
<path d="M74.9695 186.652C74.8079 186.652 74.6463 186.632 74.4847 186.587C73.0238 186.202 71.5048 185.628 69.9793 184.872C68.5185 184.148 67.0964 183.359 65.752 182.525C64.4398 181.71 63.2246 180.895 62.1516 180.106C61.0398 179.284 60.1995 178.58 59.5789 177.954C58.9584 177.328 58.8291 176.37 59.2622 175.601C60.6649 173.11 62.1192 170.202 63.5801 166.955C65.0603 163.669 66.5018 160.259 67.8721 156.81C69.2489 153.348 70.5158 149.886 71.6406 146.528C72.7588 143.19 73.6767 140.126 74.3554 137.42C74.5752 136.553 75.3508 135.947 76.2364 135.947C79.9402 135.947 82.7326 136.09 84.7881 136.377C86.8113 136.664 88.3174 136.938 89.3904 137.205C89.9075 137.335 90.3471 137.674 90.6056 138.137C91.6722 140.035 92.8034 142.167 93.9669 144.455C95.1498 146.789 96.3391 149.267 97.5091 151.822C98.6791 154.391 99.8361 157.032 100.928 159.672C102.027 162.313 103.042 164.908 103.941 167.386C104.852 169.889 105.634 172.275 106.261 174.479C106.908 176.742 107.341 178.756 107.554 180.458C107.664 181.364 107.14 182.225 106.294 182.538C104.07 183.353 102.176 183.979 100.657 184.389C99.1186 184.813 97.7741 185.107 96.6559 185.263C95.5699 185.42 94.5939 185.524 93.7471 185.583C92.9844 185.628 92.2216 185.7 91.4783 185.798C91.4007 185.811 91.3167 185.811 91.2326 185.811C90.7737 185.811 90.3342 185.648 89.9786 185.348C89.565 184.996 89.3129 184.481 89.2935 183.933C89.2482 182.746 89.1513 181.495 89.0091 180.197C88.925 179.421 88.8151 178.619 88.6923 177.804C87.4965 177.83 86.2037 177.856 84.8398 177.869C83.3467 177.889 81.9699 177.902 80.7159 177.902C79.3843 181.358 77.9946 183.979 76.4885 185.889C76.1136 186.391 75.5512 186.652 74.9695 186.652ZM84.8205 164.667C85.1566 164.719 85.4927 164.771 85.8353 164.823C85.887 164.83 85.9387 164.843 85.9904 164.849C85.7706 163.995 85.5509 163.167 85.3311 162.359C85.1695 163.121 85.0014 163.897 84.8205 164.667Z" fill="#E76B6B"/>
<path d="M76.2364 137.909C79.8174 137.909 82.5775 138.046 84.5166 138.32C86.4558 138.594 87.9231 138.861 88.9186 139.109C89.9592 140.967 91.071 143.047 92.2345 145.355C93.4045 147.663 94.5745 150.095 95.738 152.651C96.9079 155.206 98.0391 157.801 99.1315 160.435C100.224 163.069 101.219 165.612 102.118 168.07C103.01 170.528 103.773 172.849 104.393 175.027C105.014 177.211 105.427 179.102 105.621 180.706C103.436 181.508 101.607 182.107 100.14 182.512C98.6726 182.909 97.4186 183.19 96.3714 183.34C95.3307 183.49 94.4064 183.587 93.6114 183.64C92.8163 183.692 92.0212 183.763 91.2262 183.868C91.1745 182.616 91.0775 181.325 90.9288 179.995C90.7802 178.665 90.5798 177.276 90.3342 175.822C88.6923 175.874 86.8566 175.914 84.814 175.933C82.7779 175.959 80.9615 175.972 79.3714 175.972C77.9816 179.832 76.5143 182.74 74.9695 184.696C73.625 184.344 72.2482 183.816 70.8326 183.118C69.417 182.414 68.0596 181.664 66.7668 180.862C65.474 180.06 64.317 179.284 63.3021 178.528C62.2808 177.778 61.4987 177.126 60.9493 176.572C62.3907 174.016 63.858 171.082 65.3512 167.77C66.8443 164.458 68.2858 161.048 69.6755 157.54C71.0653 154.033 72.3387 150.571 73.4828 147.161C74.6204 143.751 75.5448 140.667 76.2364 137.909ZM88.6212 167.32C87.9231 164.51 87.2444 161.928 86.5722 159.575C85.8999 157.221 85.2923 155.363 84.7429 154.007C84.5425 155.813 84.2452 157.769 83.8509 159.875C83.4566 161.98 82.9847 164.139 82.4353 166.342C83.4307 166.44 84.4585 166.584 85.5315 166.753C86.5916 166.936 87.6258 167.118 88.6212 167.32ZM76.2364 133.997C74.4653 133.997 72.9139 135.21 72.4809 136.944C71.8151 139.598 70.9101 142.61 69.8048 145.909C68.6866 149.241 67.4326 152.664 66.0751 156.093C64.7177 159.522 63.2827 162.906 61.8219 166.16C60.3804 169.354 58.9584 172.21 57.5816 174.642C56.7154 176.174 56.974 178.098 58.2086 179.343C58.9002 180.041 59.8181 180.81 61.0074 181.69C62.1128 182.505 63.3668 183.353 64.7371 184.2C66.1333 185.067 67.6071 185.882 69.1196 186.632C70.7679 187.447 72.4098 188.073 73.9934 188.49C74.3166 188.575 74.6463 188.614 74.9695 188.614C76.133 188.614 77.2577 188.086 78.0075 187.134C79.4489 185.309 80.774 182.916 82.028 179.878C82.9395 179.871 83.8896 179.865 84.8657 179.852C85.6026 179.845 86.3136 179.832 87.0052 179.819C87.0311 180.028 87.057 180.236 87.0764 180.445C87.2121 181.684 87.309 182.896 87.3543 184.031C87.3995 185.126 87.8908 186.15 88.7246 186.86C89.4292 187.46 90.3212 187.786 91.2326 187.786C91.3942 187.786 91.5558 187.773 91.7174 187.754C92.422 187.662 93.1459 187.597 93.857 187.552C94.7619 187.493 95.7897 187.382 96.9273 187.219C98.1361 187.043 99.5258 186.743 101.161 186.293C102.732 185.863 104.678 185.224 106.953 184.389C108.653 183.763 109.7 182.042 109.48 180.23C109.26 178.43 108.802 176.318 108.129 173.951C107.489 171.702 106.694 169.27 105.77 166.727C104.852 164.217 103.831 161.589 102.725 158.929C101.62 156.269 100.463 153.609 99.2802 151.021C98.1038 148.439 96.9015 145.935 95.7057 143.581C94.5292 141.26 93.3851 139.109 92.3056 137.185C91.7821 136.253 90.903 135.581 89.8688 135.321C88.7311 135.034 87.1604 134.753 85.0725 134.453C82.9136 134.147 80.0307 133.997 76.2364 133.997Z" fill="#AE5151"/>
<g opacity="0.24">
<path d="M60.9492 176.578C61.4986 177.133 62.2808 177.785 63.302 178.534C64.3233 179.284 65.4804 180.067 66.7732 180.869C68.0659 181.67 69.4169 182.42 70.839 183.124C72.2546 183.822 73.6314 184.35 74.9759 184.702C75.7451 183.724 76.5013 182.512 77.2318 181.058C76.6694 180.836 76.1006 180.575 75.5188 180.295C74.1032 179.591 72.7458 178.841 71.453 178.039C70.1602 177.237 69.0032 176.455 67.9819 175.705C67.969 175.698 67.9625 175.692 67.9496 175.685C66.5857 174.681 66.172 172.81 66.9542 171.304C67.969 169.367 68.9903 167.248 70.0245 164.953C71.5177 161.641 72.9591 158.231 74.3489 154.724C75.7451 151.216 77.0055 147.754 78.1561 144.344C78.9124 142.082 79.5717 139.969 80.134 137.994C78.9641 137.948 77.6648 137.928 76.2298 137.928C75.5382 140.686 74.6139 143.77 73.4698 147.18C72.3257 150.597 71.0587 154.052 69.6625 157.56C68.2728 161.068 66.8313 164.484 65.3382 167.79C63.8579 171.082 62.3906 174.016 60.9492 176.578ZM79.2032 176.083C79.8044 176.076 84.1675 175.939 84.8139 175.933C86.8565 175.907 88.6922 175.874 90.3341 175.822C90.5862 177.283 90.7866 178.671 90.9352 180.001C91.0839 181.325 91.1808 182.616 91.2326 183.874C92.0341 183.776 92.8291 183.698 93.6177 183.646C94.4128 183.6 95.3371 183.496 96.3778 183.346C97.4185 183.203 98.679 182.922 100.14 182.518C101.607 182.114 103.436 181.514 105.621 180.712C105.576 180.327 105.511 179.923 105.44 179.506C105.227 179.565 105.02 179.623 104.82 179.682C103.352 180.086 102.098 180.36 101.058 180.51C100.017 180.66 99.0927 180.764 98.2976 180.81C98.2911 180.81 98.2847 180.81 98.2717 180.81C96.9984 180.895 95.8995 179.923 95.8607 178.639C95.809 176.898 95.1885 174.844 94.652 174.192C92.312 171.363 79.5781 175.209 79.2032 176.083Z" fill="#AE5151"/>
</g>
<g opacity="0.15">
<path d="M91.2642 146.457C90.6566 145.081 89.9844 143.731 89.254 142.421C88.8403 141.678 88.2973 140.732 87.4635 140.406C86.7007 140.106 85.8927 140.048 85.0848 139.982C84.5676 139.943 83.5334 139.708 83.1197 140.087C82.8935 140.289 82.887 140.66 83.0228 140.934C83.152 141.208 83.3912 141.41 83.6239 141.612C84.3996 142.29 85.0783 143.021 85.7505 143.783C86.4163 144.533 87.1532 145.185 87.7737 145.981C89.0148 147.565 90.049 149.299 91.1931 150.955C91.3612 151.197 91.5357 151.444 91.7749 151.614C92.014 151.783 92.3308 151.868 92.6023 151.757C93.4684 151.405 92.5893 149.814 92.3954 149.273C92.0399 148.315 91.665 147.382 91.2642 146.457Z" fill="white"/>
</g>
<g opacity="0.15">
<path d="M93.1655 153.954C92.9457 154.228 93.0039 154.619 93.0814 154.959C93.3529 156.106 93.7472 157.214 94.148 158.323C94.594 159.562 95.04 160.794 95.4795 162.033C95.5442 162.209 95.6088 162.398 95.7445 162.528C95.8803 162.659 96.1001 162.724 96.2552 162.619C96.3457 162.561 96.3974 162.456 96.4362 162.359C96.5784 161.961 96.5267 161.518 96.462 161.1C96.2164 159.542 95.8027 158.01 95.2404 156.536C95.0658 156.06 94.0381 152.82 93.1655 153.954Z" fill="white"/>
</g>
<path opacity="0.11" d="M122.026 170.482C121.742 172.654 121.257 174.733 120.546 176.644C120.074 177.909 119.247 179.291 117.915 179.395C114.813 179.643 114.412 175.777 113.817 173.592C112.996 170.58 112.292 167.542 111.691 164.478C110.469 158.232 109.7 151.888 109.396 145.531C109.318 143.862 109.299 142.082 110.178 140.66C113.856 134.727 118.872 146.613 119.751 149.241C121.794 155.402 122.951 163.421 122.026 170.482Z" fill="white"/>
<path d="M64.3948 144.924C65.9477 144.924 67.2066 143.654 67.2066 142.088C67.2066 140.522 65.9477 139.252 64.3948 139.252C62.8419 139.252 61.583 140.522 61.583 142.088C61.583 143.654 62.8419 144.924 64.3948 144.924Z" fill="#F2BB0A"/>
<path d="M52.7269 178.443C54.9082 178.443 56.6764 176.66 56.6764 174.459C56.6764 172.259 54.9082 170.476 52.7269 170.476C50.5457 170.476 48.7775 172.259 48.7775 174.459C48.7775 176.66 50.5457 178.443 52.7269 178.443Z" fill="#F2BB0A"/>
<path d="M81.0128 185.263V185.282C81.1356 185.282 81.2584 185.289 81.3813 185.289C81.5105 185.289 81.6463 185.289 81.782 185.282C81.5299 185.276 81.2714 185.269 81.0128 185.263Z" fill="#5B82BE"/>
<path d="M136.382 65.1143C139.743 61.1436 145.069 59.2333 150.247 59.2203C153.123 59.2138 156.065 59.7679 158.501 61.3001C162.974 64.1102 165.049 70.1411 163.55 75.2397C162.05 80.3382 157.28 84.185 152.05 84.8696C146.828 85.5476 141.391 83.1939 138.024 79.106" fill="#EAC8A7"/>
<path d="M136.382 65.1143C139.743 61.1436 145.069 59.2333 150.247 59.2203C153.123 59.2138 156.065 59.7679 158.501 61.3001C162.974 64.1102 165.049 70.1411 163.55 75.2397C162.05 80.3382 157.28 84.185 152.05 84.8696C146.828 85.5476 141.391 83.1939 138.024 79.106" stroke="#AD886D" stroke-width="4" stroke-miterlimit="10" stroke-linecap="round"/>
<path d="M141.289 73.251C141.916 71.2559 143.416 69.5673 145.31 68.7197C147.301 67.833 149.893 67.8265 151.851 68.9218C154.353 70.3236 154.469 72.912 154.262 75.5069" fill="#EAC8A7"/>
<path d="M141.289 73.251C141.916 71.2559 143.416 69.5673 145.31 68.7197C147.301 67.833 149.893 67.8265 151.851 68.9218C154.353 70.3236 154.469 72.912 154.262 75.5069" stroke="#AD886D" stroke-width="6" stroke-miterlimit="10" stroke-linecap="round"/>
<path d="M81.8853 132.387C70.1663 132.387 59.1389 130.3 49.1069 126.18C19.4311 113.994 20.4912 84.6414 24.4148 53.0655L24.4665 52.6483L24.6604 52.3288C24.8479 51.9245 25.3068 50.3141 25.6171 49.2383C26.3023 46.839 26.619 45.8089 26.9616 45.2351L27.0844 45.033L27.2524 44.8635C31.9776 40.1366 40.3548 37.7438 52.1643 37.7438C63.8769 37.7438 76.1583 40.1105 81.4005 41.1211C82.1697 41.271 82.7967 41.3884 83.2686 41.4731C83.8504 41.3688 84.7036 41.1928 85.7378 40.9776C91.8397 39.7258 104.528 37.1113 116.5 37.1113C128.464 37.1113 136.699 39.7649 140.978 45.0004C141.773 45.9719 142.239 48.2734 143.784 61.6588C144.049 63.9407 144.275 65.9097 144.443 67.142C146.085 79.1712 145.283 96.1621 139.789 106.998C135.322 115.807 127.572 122.444 117.366 126.193C112.311 128.064 98.7303 132.387 81.8853 132.387Z" fill="#EAC8A7"/>
<path d="M116.506 39.0804C126.028 39.0804 135.006 40.7756 139.486 46.2588C140.384 47.3607 141.877 62.702 142.524 67.4224C144.094 78.917 143.422 95.5558 138.063 106.125C133.577 114.972 125.724 121.055 116.7 124.374C109.861 126.884 96.9983 130.437 81.8857 130.437C71.8279 130.437 60.7746 128.866 49.8377 124.374C21.1444 112.592 22.5406 83.8852 26.3349 53.3199C26.8262 52.5114 28.1254 47.0738 28.6102 46.2653C33.6327 41.245 42.7532 39.7063 52.1582 39.7063C65.7712 39.7063 79.9982 42.9206 83.269 43.4683C86.6884 42.9011 102.215 39.0804 116.506 39.0804ZM116.506 35.1685C104.341 35.1685 91.5169 37.8025 85.3503 39.0739C84.5165 39.2434 83.799 39.3934 83.2625 39.4977C82.8553 39.4194 82.3446 39.3216 81.7629 39.2108C76.4625 38.1872 64.0582 35.8009 52.1647 35.8009C39.8251 35.8009 30.9889 38.3893 25.8889 43.4878L25.5528 43.8204L25.3072 44.2246C24.8353 45.007 24.525 46.0176 23.7558 48.7038C23.4973 49.6166 23.1094 50.9597 22.922 51.4552L22.5923 51.9963L22.4889 52.8309C20.7307 66.9595 19.1147 83.1745 22.1205 96.7424C25.4752 111.895 34.0657 122.118 48.3768 127.992C58.6415 132.204 69.9145 134.343 81.8857 134.343C99.0409 134.343 112.874 129.942 118.032 128.044C128.555 124.178 136.893 117.026 141.522 107.904C144.198 102.623 146.008 95.5623 146.757 87.4841C147.391 80.6643 147.255 73.349 146.37 66.8878C146.201 65.6816 145.982 63.7256 145.717 61.4567C144.043 46.9434 143.609 45.1504 142.485 43.7747C137.811 38.0633 129.072 35.1685 116.506 35.1685Z" fill="#AD886D"/>
<path d="M36.7936 54.8322C32.1138 49.5511 29.9484 42.5618 33.8526 35.7094C36.4898 31.0737 40.9241 27.2531 45.9789 25.584C49.2431 24.5082 52.7207 24.3256 56.153 24.3908C62.1451 24.5082 69.2166 25.3688 74.1938 29.0265C81.4269 34.3402 84.3162 45.913 79.5782 53.5674C76.6824 58.2552 70.7097 60.7914 65.7131 62.4931C60.2576 64.3513 54.2009 64.4556 48.7131 62.6561C44.3176 61.2283 39.9739 58.4247 36.7936 54.8322Z" fill="#C17E08"/>
<path d="M58.8998 45.0981C56.1333 45.0981 54.2781 45.0785 53.3797 45.0329C52.6428 45.0003 52.0222 44.4657 51.8736 43.7354C51.7249 43.0052 52.0804 42.2684 52.7462 41.9425C53.2116 41.7143 53.8644 41.0753 54.2264 40.5863C54.1295 40.5407 54.0325 40.495 53.9355 40.4559C53.1017 40.0778 51.9511 39.5562 51.5439 38.3369C51.2595 37.4959 51.699 36.5766 52.5264 36.2767C54.3686 35.6116 56.896 35.5595 59.1261 35.5138C59.5915 35.5073 60.0375 35.4943 60.4447 35.4812C60.7614 35.4682 61.0782 35.4617 61.4014 35.4617C63.2306 35.4617 65.2603 35.6442 67.5938 36.0159C67.8652 36.0615 68.6021 36.1723 69.1386 36.8178C69.4618 37.209 69.5653 37.6393 69.6105 37.8219C69.6816 38.1087 69.8432 38.6955 70.0307 39.3801C70.8257 42.2815 70.9873 42.9596 70.9873 43.4094C70.9873 44.3027 70.2763 45.0329 69.3907 45.0394C69.3326 45.0394 63.5732 45.0981 58.8998 45.0981Z" fill="#D19E0F"/>
<g opacity="0.36">
<path d="M124.438 117.117C129.104 117.117 132.886 113.302 132.886 108.595C132.886 103.889 129.104 100.074 124.438 100.074C119.772 100.074 115.989 103.889 115.989 108.595C115.989 113.302 119.772 117.117 124.438 117.117Z" fill="url(#paint0_radial_229_13279)"/>
</g>
<g opacity="0.36">
<path d="M50.9426 118.062C55.6084 118.062 59.3909 114.247 59.3909 109.541C59.3909 104.834 55.6084 101.019 50.9426 101.019C46.2767 101.019 42.4942 104.834 42.4942 109.541C42.4942 114.247 46.2767 118.062 50.9426 118.062Z" fill="url(#paint1_radial_229_13279)"/>
</g>
<g opacity="0.19">
<path fill-rule="evenodd" clip-rule="evenodd" d="M136.138 67.9635C133.468 67.644 134.651 74.4377 134.638 81.0228C134.625 87.6079 132.427 96.5793 135.007 97.5117C137.489 98.4114 140.986 88.8467 140.999 82.2616C141.005 75.683 138.807 68.283 136.138 67.9635Z" fill="white"/>
</g>
<path d="M58.1561 61.3654C57.9557 61.3654 57.7489 61.3589 57.5485 61.3458C52.1576 61.0525 46.4371 56.984 43.9355 51.6703C42.2614 48.1105 42.4553 42.9011 46.1203 40.254C46.8766 39.7128 48.3698 38.7935 49.947 38.7544C49.9599 38.7544 50.0116 38.7544 50.031 38.7544C51.2268 38.7544 52.1511 39.3281 52.8945 39.7845C53.1337 39.9345 53.3664 40.0714 53.5409 40.1562C55.1439 40.8994 55.5447 42.0795 55.6416 42.9011C56.7599 42.9467 59.4295 43.0119 61.6595 43.0641C63.5535 43.1097 65.4991 43.1553 66.9664 43.201C70.1402 43.2988 70.89 43.3183 71.2584 44.8049C71.6269 46.2979 71.2649 47.6997 70.974 48.8276C70.8253 49.4079 70.709 49.9621 70.5862 50.5293C70.5086 50.8879 70.431 51.2465 70.347 51.6116C69.0801 57.1796 63.8379 61.3654 58.1561 61.3654Z" fill="#D19E0F"/>
<path d="M86.4168 65.3621C78.1948 65.3621 70.3153 65.0817 63.0111 64.521L62.7719 64.5015C55.9913 63.9864 47.5559 63.3409 42.3007 57.4926C41.3441 56.4233 40.5684 55.1715 39.9996 53.7697C38.571 50.249 38.584 46.0175 40.0254 42.4512C41.4475 38.9239 44.6924 36.2051 48.4802 35.3575C49.2623 35.1815 50.0574 35.0967 50.846 35.0967C52.0353 35.0967 53.1859 35.2988 54.2654 35.6965C56.4179 36.492 57.8011 37.5743 58.37 38.9109C58.7643 39.8432 58.7578 40.8407 58.3441 41.8057C57.7882 43.1162 56.6506 43.866 55.235 43.866C54.3494 43.866 53.5091 43.5791 52.8304 43.3444C52.5783 43.2596 52.3198 43.1684 52.1582 43.1357C51.8931 43.0771 51.6217 43.0445 51.3566 43.0445C50.4 43.0445 49.5532 43.4487 48.9779 44.192C48.1893 45.196 47.9114 46.7478 48.254 48.2343C48.7775 50.4837 50.3741 52.4201 52.6365 53.5285C53.1019 53.7567 53.5285 53.9457 53.9487 54.1022C55.6551 54.7542 57.4521 55.0932 59.1715 55.0932C60.9879 55.0932 62.6167 54.7216 64.013 53.9914C68.473 51.6573 68.7704 45.5611 68.6928 43.0445C68.6476 41.6883 68.4472 40.3713 68.0981 39.1325C66.3917 32.9321 61.1171 28.3421 54.6726 27.4228C53.3411 27.2337 52.0483 27.1359 50.8266 27.1359C47.3296 27.1359 44.5954 27.8987 42.6885 29.3983C39.4631 31.9346 37.0456 35.3184 35.4942 39.4585C33.8912 43.7421 33.2189 48.2604 32.5661 53.3068C32.1976 56.1429 31.8551 58.9791 31.5125 61.8153L31.4995 61.9065C31.3767 62.891 30.5493 63.6213 29.5733 63.6213C29.5345 63.6213 29.4957 63.6213 29.4505 63.6148C28.8687 63.5822 28.3645 63.2888 28.0349 62.8584C27.1493 62.5129 24.7965 62.0891 23.8592 61.9261C23.0641 61.7827 22.6375 61.7044 22.3467 61.6262C22.114 61.561 21.4934 61.3849 21.028 60.7721C20.5562 60.1527 20.5562 59.4811 20.5562 59.2595C20.5303 55.993 20.7178 52.6874 21.112 49.4274C21.92 42.7902 23.6136 36.3942 26.0052 30.937C29.8706 22.1221 36.3087 14.9959 44.13 10.8753C52.9597 6.20703 63.373 3.61211 77.8974 2.44505C81.9309 2.11905 86.029 1.95605 90.0754 1.95605C99.2994 1.95605 108.207 2.7906 116.545 4.43362C129.137 6.9177 138.858 11.7033 145.432 18.647C153.784 27.4684 157.313 42.5164 147.423 53.033C141.244 59.605 132.55 63.1975 120.85 64.0255C108.064 64.9253 96.7979 65.3621 86.4168 65.3621Z" fill="#F2BB0A"/>
<path d="M90.0749 3.91194C98.8464 3.91194 107.715 4.68781 116.17 6.3569C126.292 8.35199 136.77 12.3357 144.029 19.9965C152.245 28.6745 154.746 42.4054 146.013 51.6833C139.317 58.803 130.093 61.4044 120.714 62.0695C109.421 62.8649 97.9027 63.406 86.4228 63.406C78.6209 63.406 70.8383 63.1583 63.1592 62.5715C56.5208 62.0629 48.5314 61.5153 43.7352 56.182C42.9078 55.2627 42.2614 54.1869 41.796 53.0329C40.542 49.9424 40.5873 46.2391 41.8219 43.1878C43.0242 40.2017 45.8036 37.9589 48.8999 37.2678C49.5398 37.1243 50.1926 37.0526 50.8455 37.0526C51.7763 37.0526 52.7136 37.2091 53.5927 37.5351C54.9759 38.0501 57.3417 39.1977 56.5596 41.0297C56.2752 41.6948 55.7904 41.9099 55.2345 41.9099C54.3748 41.9099 53.3341 41.4014 52.5907 41.2253C52.1771 41.1275 51.7698 41.0819 51.3626 41.0819C49.8694 41.0819 48.4409 41.7209 47.4584 42.9662C46.2238 44.5374 45.92 46.7216 46.366 48.6711C47.0512 51.6311 49.1196 53.9717 51.7892 55.2822C52.274 55.517 52.7717 55.7386 53.2759 55.9277C55.1117 56.6253 57.1478 57.0361 59.171 57.0361C61.1683 57.0361 63.1463 56.6384 64.9045 55.7191C69.468 53.3328 70.7802 47.8039 70.625 42.9727C70.5798 41.4535 70.3535 39.98 69.9592 38.5848C68.0524 31.6737 62.2543 26.5164 54.9371 25.4733C53.625 25.2842 52.2288 25.1668 50.8196 25.1668C47.4713 25.1668 44.039 25.8384 41.4858 27.8465C37.8466 30.7087 35.2998 34.4055 33.6709 38.7543C31.958 43.3182 31.2599 48.2016 30.6329 53.0394C30.2644 55.9082 29.9154 58.7769 29.5663 61.6457C29.5663 60.7198 23.7553 59.9701 22.8697 59.7223C22.7599 59.6897 22.637 59.6571 22.5724 59.5593C22.5013 59.468 22.5013 59.3441 22.4948 59.2268C22.469 56.0842 22.65 52.8634 23.0378 49.6425C23.7941 43.4421 25.3454 37.2612 27.7823 31.7063C31.3245 23.6346 37.2261 16.6975 45.0344 12.5834C55.1504 7.25013 66.7984 5.28764 78.065 4.38137C82.0079 4.07494 86.0285 3.91194 90.0749 3.91194ZM90.0749 0C85.9768 0 81.827 0.169517 77.7418 0.495513C62.9459 1.68865 52.2999 4.34877 43.2246 9.12786C35.0154 13.4506 28.2671 20.9158 24.2207 30.135C21.7127 35.8464 20.0192 42.2555 19.1724 49.1796C18.7652 52.5178 18.5712 55.9147 18.5971 59.2724C18.6036 60.2961 18.9009 61.1958 19.4697 61.9521C20.045 62.7084 20.8271 63.23 21.8097 63.5038C22.1846 63.6082 22.6241 63.6864 23.4967 63.8429C24.2401 63.9733 26.0177 64.2927 26.9485 64.5601C27.5819 65.1338 28.4028 65.5055 29.3142 65.5641C29.3918 65.5706 29.4758 65.5706 29.5534 65.5706C31.499 65.5706 33.1603 64.1037 33.3994 62.1347C33.742 59.3246 34.0975 56.4167 34.466 53.5545C35.0994 48.6319 35.7523 44.231 37.2842 40.143C38.7257 36.2898 40.8782 33.2776 43.858 30.9304C45.7972 29.4048 48.7059 29.0788 50.8067 29.0788C51.9379 29.0788 53.1402 29.17 54.3812 29.3461C60.0695 30.1545 64.7106 34.1969 66.2102 39.6345C66.5204 40.7429 66.695 41.9034 66.7338 43.1031C66.7984 45.2481 66.5786 50.4314 63.101 52.2505C61.9828 52.8308 60.6577 53.1307 59.1516 53.1307C57.6649 53.1307 56.1006 52.8308 54.6269 52.2701C54.2455 52.1266 53.8706 51.9636 53.4634 51.768C51.7246 50.9139 50.5094 49.46 50.1215 47.7844C49.9147 46.8781 50.0504 45.9392 50.4771 45.3981C50.5546 45.3003 50.7938 44.9938 51.3368 44.9938C51.4531 44.9938 51.5759 45.0069 51.7052 45.0395C51.7828 45.059 52.0155 45.1373 52.1835 45.196C52.9527 45.4568 54.0128 45.8219 55.2151 45.8219C57.4128 45.8219 59.2421 44.6092 60.1083 42.575C60.7288 41.1275 60.7353 39.5497 60.1341 38.1349C59.3455 36.2898 57.5938 34.8489 54.9177 33.8578C53.625 33.3819 52.2546 33.1407 50.8326 33.1407C49.9082 33.1407 48.971 33.245 48.0466 33.4536C43.6447 34.4316 39.8763 37.6003 38.215 41.7143C36.5861 45.7371 36.5797 50.5227 38.1956 54.5129C38.8485 56.1298 39.7405 57.5773 40.8588 58.8095C46.6375 65.2316 55.506 65.9097 62.6292 66.4508L62.8683 66.4704C70.2243 67.0311 78.149 67.318 86.4228 67.318C96.8491 67.318 108.154 66.8812 120.985 65.9749C133.189 65.1143 142.297 61.3197 148.832 54.3825C153.68 49.2318 155.955 42.4315 155.244 35.2336C154.598 28.7136 151.618 22.3437 146.841 17.3038C139.983 10.0602 129.918 5.08552 116.926 2.5232C108.452 0.847587 99.4217 0 90.0749 0Z" fill="#C17E08"/>
<path opacity="0.17" d="M22.483 58.7639C22.483 58.8812 22.4895 59.0051 22.5606 59.0964C22.6317 59.1877 22.7415 59.2268 22.8579 59.2594C22.9096 58.7378 22.9678 58.2097 23.0324 57.6816C23.7887 51.4811 25.34 45.3003 27.7769 39.7453C31.3127 31.6737 37.2207 24.7365 45.0291 20.6225C55.1451 15.2892 66.793 13.3267 78.0596 12.4204C90.5866 11.4098 103.831 11.9445 116.177 14.3829C126.3 16.378 136.778 20.3617 144.037 28.0225C147.631 31.8236 150.139 36.5897 151.076 41.5318C152.64 33.8709 149.693 25.4993 144.037 19.5271C136.784 11.8662 126.3 7.88257 116.177 5.88748C103.831 3.44903 90.5866 2.9144 78.0596 3.92499C66.793 4.83125 55.1451 6.79374 45.0291 12.127C37.2142 16.2411 31.3127 23.1717 27.7769 31.2499C25.34 36.8048 23.7822 42.9857 23.0324 49.1861C22.6381 52.407 22.4636 55.6278 22.483 58.7639Z" fill="#C17E08"/>
<g opacity="0.5">
<path d="M123.674 64.4884C123.868 64.4884 124.069 64.4492 124.256 64.3645C126.499 63.3409 128.613 61.6326 130.733 59.142C138.619 49.8838 141.03 36.0159 136.738 24.6257C132.439 13.2419 121.483 4.44007 109.46 2.72534C108.691 2.6145 107.98 3.15565 107.87 3.93152C107.76 4.70739 108.297 5.42458 109.066 5.53541C120.106 7.10671 130.17 15.1849 134.113 25.6363C138.056 36.0812 135.839 48.808 128.606 57.2969C126.758 59.4615 124.961 60.935 123.099 61.7826C122.394 62.1086 122.078 62.9431 122.401 63.6603C122.634 64.1754 123.144 64.4884 123.674 64.4884Z" fill="#C17E08"/>
</g>
<g opacity="0.5">
<path d="M88.899 65.8313C89.0089 65.8313 89.1188 65.8182 89.2352 65.7922C97.9356 63.6406 105.376 57.4597 109.131 49.2577C114.037 38.539 111.936 26.1968 103.21 14.5132C98.0778 7.64118 89.0348 2.93381 79.0222 1.92323C78.2595 1.84499 77.5614 2.41222 77.4838 3.18809C77.4062 3.96396 77.9686 4.66159 78.7378 4.73983C87.9876 5.67869 96.2938 9.96878 100.961 16.2214C105.634 22.4805 112.576 34.9465 106.571 48.0711C103.223 55.3864 96.3196 61.1239 88.5629 63.0408C87.8067 63.2298 87.3477 63.9927 87.5352 64.7555C87.6903 65.401 88.2656 65.8313 88.899 65.8313Z" fill="#C17E08"/>
</g>
<g opacity="0.5">
<path d="M63.6311 65.2904C66.3783 65.2904 69.0673 65.0035 71.8661 63.6083C75.6152 61.7371 78.8666 58.9661 81.2711 55.6018C88.1487 45.9785 87.3213 32.078 79.2738 21.7961C69.1319 8.84111 51.9897 8.53467 40.3999 12.2119C39.663 12.4466 39.2493 13.242 39.482 13.9853C39.7147 14.7286 40.5033 15.1459 41.2402 14.9111C51.9832 11.5077 67.8133 11.7229 77.0696 23.55C84.3479 32.8409 85.1365 45.3395 78.9894 53.9393C76.8498 56.9319 73.954 59.3964 70.6186 61.0655C67.503 62.6238 64.4391 62.5129 60.8904 62.389L60.1988 62.363C59.4361 62.3434 58.7768 62.9498 58.7509 63.7321C58.725 64.5145 59.3327 65.1665 60.1083 65.1926L60.7935 65.2187C61.7501 65.2578 62.6939 65.2904 63.6311 65.2904Z" fill="#C17E08"/>
</g>
<path d="M33.4256 65.1143C30.0644 61.1436 24.7381 59.2333 19.5605 59.2203C16.6841 59.2138 13.743 59.7679 11.3061 61.3001C6.83311 64.1102 4.7582 70.1411 6.25782 75.2397C7.75745 80.3382 12.5278 84.185 17.7571 84.8696C22.9864 85.5541 28.4161 83.1939 31.7838 79.106" fill="#EAC8A7"/>
<path d="M33.4256 65.1143C30.0644 61.1436 24.7381 59.2333 19.5605 59.2203C16.6841 59.2138 13.743 59.7679 11.3061 61.3001C6.83311 64.1102 4.7582 70.1411 6.25782 75.2397C7.75745 80.3382 12.5278 84.185 17.7571 84.8696C22.9864 85.5542 28.4161 83.1939 31.7838 79.106" stroke="#AD886D" stroke-width="4" stroke-miterlimit="10" stroke-linecap="round"/>
<path d="M28.5194 73.2511C27.6597 70.5062 24.5183 68.3611 21.9327 67.4288C19.7544 66.6399 17.1818 66.6855 15.2684 68.0025C14.0338 68.8567 13.1547 70.2128 12.8639 71.6928C12.4179 73.9813 13.5684 76.5697 15.6886 77.4955" fill="#EAC8A7"/>
<path d="M28.5194 73.2511C27.6597 70.5062 24.5183 68.3611 21.9327 67.4288C19.7544 66.6399 17.1818 66.6855 15.2684 68.0025C14.0338 68.8567 13.1547 70.2128 12.8639 71.6928C12.4179 73.9813 13.5684 76.5697 15.6886 77.4955" stroke="#AD886D" stroke-width="4" stroke-miterlimit="10" stroke-linecap="round"/>
<path d="M81.0773 98.2028C81.0773 98.2028 86.3907 88.5795 93.4751 98.2028" stroke="#AD886D" stroke-width="5" stroke-miterlimit="10" stroke-linecap="round" stroke-linejoin="round"/>
<path opacity="0.19" d="M131.095 26.2491C132.181 29.9002 131.981 33.8969 130.055 37.2351C128.982 39.0998 124.599 41.3622 123.978 37.8936C123.468 35.0444 123.578 32.1105 123.106 29.2548C122.808 27.4487 122.272 25.6753 121.522 24.0062C120.843 22.5001 119.712 21.1831 119.499 19.501C119.389 18.6469 119.583 17.708 120.197 17.1147C120.785 16.554 121.664 16.391 122.459 16.5214C123.254 16.6518 123.985 17.0495 124.67 17.4798C127.747 19.4423 130.035 22.6762 131.095 26.2491Z" fill="white"/>
<path opacity="0.19" d="M146.201 28.4331C146.777 29.711 147.21 31.0607 147.494 32.4364C148.011 34.9661 148.703 39.4322 146.182 41.1078C145.665 41.4534 144.941 41.5381 144.437 41.173C144.042 40.8861 143.861 40.3841 143.726 39.9147C143.163 37.8935 143.125 35.768 142.788 33.6947C142.459 31.68 141.845 29.7306 141.088 27.8463C140.468 26.3142 139.175 24.5016 139.098 22.813C139.072 22.3305 139.33 21.7894 139.796 21.659C140.093 21.5742 140.403 21.6655 140.688 21.7894C141.515 22.1479 142.207 22.7608 142.834 23.4128C144.23 24.8667 145.361 26.5815 146.201 28.4331Z" fill="white"/>
<path opacity="0.19" d="M104.516 26.36C106.539 30.9957 106.08 36.5441 102.796 40.7299C102.137 41.571 101.277 42.386 100.217 42.4446C99.965 42.4577 99.7 42.4251 99.4996 42.2751C99.1117 42.0013 99.0471 41.4536 99.0277 40.9777C98.8855 37.7438 98.9372 34.6338 97.8384 31.5368C96.7653 28.5051 95.0395 25.7667 93.6691 22.8784C93.4041 22.3242 93.1585 21.7113 93.2748 21.105C93.3524 20.6877 93.611 20.3161 93.9212 20.0227C96.4939 17.656 99.868 20.2379 101.717 22.1612C102.913 23.4065 103.85 24.8344 104.516 26.36Z" fill="white"/>
<path d="M114.593 97.1594C107.373 97.1594 101.717 91.5132 101.717 84.3087C101.717 80.8401 103.049 77.6062 105.473 75.2004C107.89 72.8011 111.129 71.4775 114.6 71.4775H114.677C121.814 71.5167 127.392 77.1694 127.379 84.3478C127.373 91.5067 121.775 97.1334 114.632 97.1594H114.593Z" fill="white"/>
<path d="M114.606 72.7815C114.632 72.7815 114.652 72.7815 114.671 72.7815C121.051 72.8141 126.099 77.9257 126.086 84.3478C126.08 90.7765 121.044 95.8359 114.632 95.8555C114.619 95.8555 114.606 95.8555 114.593 95.8555C108.078 95.8555 103.01 90.8091 103.01 84.3087C103.01 77.8671 108.136 72.7815 114.606 72.7815ZM114.606 70.1736C110.793 70.1736 107.231 71.6275 104.568 74.2746C101.898 76.9282 100.425 80.4946 100.431 84.3087C100.431 92.2434 106.656 98.4569 114.6 98.4569H114.645C122.505 98.4308 128.672 92.2369 128.678 84.3478C128.691 76.4392 122.544 70.2127 114.69 70.1736H114.606Z" fill="#AD886D"/>
<path d="M60.4321 97.1529C56.9157 97.1529 53.6191 95.7772 51.1628 93.2866C48.7777 90.8677 47.472 87.686 47.4913 84.3152C47.5301 77.2672 53.2765 71.5036 60.3028 71.4775C63.8127 71.4775 67.064 72.8076 69.5074 75.233C71.9572 77.6584 73.3082 80.8923 73.3017 84.3348C73.2952 91.3698 67.5553 97.1203 60.4967 97.1594H60.4321V97.1529Z" fill="white"/>
<path d="M60.3539 72.7815C66.792 72.7815 72.0148 77.9453 72.0083 84.3283C72.0019 90.6656 66.8566 95.8164 60.4897 95.849C60.4703 95.849 60.4509 95.849 60.4315 95.849C53.987 95.849 48.7512 90.6722 48.7835 84.3218C48.8159 77.9714 53.9741 72.8076 60.3087 72.7815C60.3216 72.7815 60.3345 72.7815 60.3539 72.7815ZM60.3539 70.1736H60.2958C52.5585 70.2062 46.2303 76.55 46.1915 84.3087C46.1721 88.0251 47.6071 91.5458 50.2379 94.2059C52.9398 96.9443 56.5596 98.4569 60.425 98.4569H60.4961C68.2593 98.4178 74.581 92.0805 74.5874 84.3283C74.5874 80.5337 73.1007 76.9738 70.4053 74.2942C67.7228 71.6406 64.1482 70.1736 60.3539 70.1736Z" fill="#AD886D"/>
<path d="M114.593 96.8336C107.554 96.8336 102.04 91.3308 102.04 84.3089C102.04 80.9316 103.339 77.7759 105.699 75.4353C108.052 73.0947 111.219 71.8037 114.599 71.8037H114.671C121.626 71.8428 127.062 77.3521 127.055 84.348C127.049 91.3308 121.587 96.8141 114.632 96.8336C114.632 96.8336 114.599 96.8336 114.593 96.8336Z" fill="white"/>
<path d="M114.606 72.7817C114.632 72.7817 114.651 72.7817 114.671 72.7817C121.05 72.8143 126.099 77.9259 126.086 84.348C126.079 90.7766 121.044 95.836 114.632 95.8556C114.619 95.8556 114.606 95.8556 114.593 95.8556C108.077 95.8556 103.01 90.8092 103.01 84.3088C103.01 77.8672 108.136 72.7817 114.606 72.7817ZM114.606 70.8257C110.96 70.8257 107.554 72.2144 105.02 74.7376C102.473 77.2673 101.07 80.6707 101.07 84.3088C101.07 91.8784 107.011 97.8116 114.593 97.8116H114.638C122.136 97.792 128.018 91.8784 128.025 84.348C128.031 76.8044 122.169 70.8648 114.677 70.8257H114.606Z" fill="#AD886D"/>
<path d="M60.4313 96.8271C56.999 96.8271 53.7864 95.4905 51.3883 93.0586C49.0678 90.7049 47.7944 87.6014 47.8138 84.3154C47.8461 77.4434 53.4503 71.8298 60.3085 71.8037C63.7344 71.8037 66.9017 73.1012 69.2869 75.4679C71.6785 77.8346 72.9907 80.9837 72.9842 84.335C72.9778 91.1939 67.38 96.801 60.5024 96.8336C60.4895 96.8271 60.4313 96.8271 60.4313 96.8271Z" fill="white"/>
<path d="M60.3542 72.7817C66.7922 72.7817 72.0151 77.9454 72.0086 84.3284C72.0021 90.6657 66.8569 95.8165 60.4899 95.8491C60.4706 95.8491 60.4512 95.8491 60.4318 95.8491C53.9873 95.8491 48.7515 90.6723 48.7838 84.3219C48.8161 77.9715 53.9743 72.8077 60.309 72.7817C60.3219 72.7817 60.3348 72.7817 60.3542 72.7817ZM60.3542 70.8257H60.296C52.9143 70.8583 46.877 76.9088 46.8382 84.3154C46.8188 87.8622 48.1891 91.2134 50.6971 93.7497C53.2762 96.3641 56.7344 97.8116 60.4253 97.8116H60.4964C67.904 97.7724 73.9413 91.7285 73.9413 84.3349C73.9413 80.7164 72.5257 77.3195 69.9531 74.7702C67.3934 72.2275 63.9804 70.8257 60.3542 70.8257Z" fill="#AD886D"/>
<path d="M115.959 91.0412C121.027 91.0738 125.131 87.038 125.131 82.0242C125.131 77.0951 121.104 73.0528 116.146 73.0006C111.105 72.9419 106.994 77.0039 107 82.0307C107 86.9923 110.995 91.0021 115.959 91.0412Z" fill="#2E3537"/>
<path d="M113.691 76.2475C112.23 76.2866 110.951 77.5514 110.938 78.9662C110.925 80.4593 112.276 81.7502 113.82 81.7242C115.275 81.6981 116.581 80.4267 116.574 79.038C116.561 77.4928 115.23 76.2083 113.691 76.2475Z" fill="#959899"/>
<path d="M61.959 91.0412C67.0267 91.0738 71.1312 87.038 71.1312 82.0242C71.1312 77.0951 67.1042 73.0528 62.1464 73.0006C57.1046 72.9419 52.9935 77.0039 53 82.0307C53 86.9923 56.9947 91.0021 61.959 91.0412Z" fill="#2E3537"/>
<path d="M59.6895 76.2475C58.2286 76.2866 56.9488 77.5514 56.9359 78.9662C56.9229 80.4593 58.2739 81.7502 59.8188 81.7242C61.2731 81.6981 62.5788 80.4267 62.5724 79.038C62.5594 77.4928 61.2279 76.2083 59.6895 76.2475Z" fill="#959899"/>
<path d="M72.5065 110.401C72.1897 110.134 72.5064 109.632 72.8878 109.802C73.5536 110.095 74.2194 110.375 74.8916 110.636C76.2232 111.151 77.5612 111.601 78.9186 111.96C80.2696 112.318 81.6335 112.612 83.0038 112.794L84.0316 112.918C84.3742 112.964 84.7168 112.977 85.0593 113.003C85.4019 113.036 85.7445 113.049 86.0871 113.062C86.4297 113.075 86.7723 113.094 87.1149 113.081C88.4917 113.101 89.862 112.983 91.2259 112.794C91.5685 112.742 91.9111 112.71 92.2472 112.638C92.5833 112.566 92.9259 112.501 93.2685 112.442C93.6111 112.39 93.9407 112.279 94.2833 112.207C94.6194 112.123 94.9685 112.064 95.2982 111.953C97.3278 111.386 99.3252 110.63 101.329 109.763C101.71 109.6 102.014 110.108 101.697 110.369C99.9845 111.803 98.0389 112.977 95.9575 113.877C94.5677 114.457 93.1263 114.933 91.6331 115.226L91.0837 115.344C91.0772 115.344 91.0708 115.344 91.0643 115.35L90.5084 115.428C90.1335 115.48 89.7586 115.546 89.3772 115.578L88.2396 115.663C87.9164 115.683 87.5932 115.683 87.27 115.689C86.8628 115.696 86.462 115.683 86.0548 115.663C85.6411 115.643 85.2274 115.63 84.8202 115.572C84.0639 115.494 83.3141 115.376 82.5707 115.233C81.084 114.933 79.6361 114.476 78.2464 113.903C76.8567 113.322 75.5316 112.618 74.2905 111.784C73.6699 111.373 73.0753 110.923 72.5065 110.441C72.5194 110.408 72.5129 110.401 72.5065 110.401Z" fill="black"/>
<path d="M87.108 123.585C80.1399 123.585 74.206 119.738 71.6334 113.557C71.4201 113.042 71.1227 112.338 71.0452 111.555C70.9805 110.936 70.9611 110.036 71.5429 109.384C71.8855 109 72.3767 108.784 72.9262 108.784C73.5208 108.784 74.0961 109.026 74.6456 109.26C74.8201 109.332 74.9946 109.41 75.1627 109.469C76.2421 109.86 77.4509 110.186 78.86 110.48C81.7946 111.086 84.9361 111.379 88.446 111.379C93.365 111.379 97.9609 110.747 101.374 109.593C101.51 109.547 101.645 109.528 101.781 109.528C102.014 109.528 102.253 109.593 102.453 109.717C102.776 109.919 103.003 110.251 103.054 110.636C103.061 110.682 103.455 115.161 98.1418 119.744C95.33 122.189 91.303 123.585 87.108 123.585Z" fill="#AD446F"/>
<path d="M72.9265 110.088C73.4113 110.088 74.1029 110.473 74.7299 110.701C75.9904 111.158 77.2896 111.49 78.6018 111.758C81.8337 112.423 85.1562 112.683 88.4528 112.683C93.6691 112.683 98.3942 111.973 101.794 110.825C101.827 111.04 101.84 114.848 97.3212 118.747C94.7874 120.931 91.0707 122.274 87.1083 122.274C80.7995 122.274 75.2535 118.877 72.8231 113.042C72.6033 112.514 72.39 111.979 72.3318 111.412C72.2219 110.401 72.4934 110.088 72.9265 110.088ZM72.9265 107.48C72.0086 107.48 71.1748 107.846 70.5866 108.511C69.5523 109.671 69.7075 111.19 69.7592 111.692C69.8626 112.67 70.2117 113.505 70.4379 114.066C73.2174 120.748 79.6037 124.895 87.1083 124.895C91.6072 124.895 95.938 123.383 99.0019 120.742C104.929 115.63 104.36 110.499 104.348 110.454C104.238 109.691 103.792 109.019 103.139 108.615C102.725 108.361 102.26 108.23 101.788 108.23C101.51 108.23 101.232 108.276 100.967 108.367C97.7285 109.463 93.165 110.088 88.4463 110.088C85.0204 110.088 81.9695 109.802 79.1189 109.215C77.768 108.934 76.6174 108.621 75.5961 108.256C75.4474 108.204 75.2923 108.139 75.1436 108.074C74.5425 107.8 73.7862 107.48 72.9265 107.48Z" fill="#AD886D"/>
<path d="M97.3275 118.669C97.3275 118.695 97.3275 118.721 97.321 118.753C94.6773 120.801 91.0704 122.281 87.108 122.281C83.1392 122.281 79.5388 120.801 76.8951 118.753C76.8886 118.721 76.8886 118.695 76.8886 118.669C76.8886 115.663 81.4651 116.836 87.108 116.836C92.751 116.836 97.3275 115.663 97.3275 118.669Z" fill="#C76A87"/>
</g>
<defs>
<radialGradient id="paint0_radial_229_13279" cx="0" cy="0" r="1" gradientUnits="userSpaceOnUse" gradientTransform="translate(124.439 108.595) rotate(180) scale(8.45026 8.52347)">
<stop stop-color="#FF6554"/>
<stop offset="0.168" stop-color="#FF675B" stop-opacity="0.832"/>
<stop offset="0.4115" stop-color="#FF6E6E" stop-opacity="0.5885"/>
<stop offset="0.7011" stop-color="#FF7A8E" stop-opacity="0.2989"/>
<stop offset="1" stop-color="#FF88B6" stop-opacity="0"/>
</radialGradient>
<radialGradient id="paint1_radial_229_13279" cx="0" cy="0" r="1" gradientUnits="userSpaceOnUse" gradientTransform="translate(50.9455 109.539) rotate(180) scale(8.45026 8.52347)">
<stop stop-color="#FF6554"/>
<stop offset="0.168" stop-color="#FF675B" stop-opacity="0.832"/>
<stop offset="0.4115" stop-color="#FF6E6E" stop-opacity="0.5885"/>
<stop offset="0.7011" stop-color="#FF7A8E" stop-opacity="0.2989"/>
<stop offset="1" stop-color="#FF88B6" stop-opacity="0"/>
</radialGradient>
<clipPath id="clip0_229_13279">
<rect width="169" height="239" fill="white"/>
</clipPath>
</defs>
</svg>
