<svg width="150" height="284" viewBox="0 0 150 284" fill="none" xmlns="http://www.w3.org/2000/svg">
<g clip-path="url(#clip0_229_13864)">
<path d="M49.8763 205.737C48.5718 205.737 47.3652 205.148 46.5825 204.658C38.9319 199.84 31.9334 193.668 26.6895 188.824C22.5674 185.019 18.8105 181.593 14.4667 178.187C14.421 178.147 14.3688 178.115 14.3232 178.082C14.1406 177.958 13.9645 177.834 13.7949 177.677C13.3905 177.317 12.9796 176.99 12.5752 176.663C11.3882 175.709 10.1554 174.722 9.13144 173.159C6.58774 169.295 6.82906 165.314 9.78367 162.496C11.499 160.862 13.4753 160.031 15.6668 160.031C17.2648 160.031 18.9671 160.489 20.7216 161.391C22.5348 162.319 24.348 163.444 26.1025 164.529C26.7091 164.902 27.3091 165.275 27.9026 165.641C31.0464 167.55 33.7597 169.858 36.7338 172.46C37.0339 172.721 37.2752 172.989 37.4904 173.224C37.6013 173.349 37.7122 173.473 37.8296 173.584C41.9582 177.651 46.2499 181.331 50.2741 184.705C51.409 185.659 52.5048 186.62 53.4244 187.882C54.7811 189.752 56.216 192.119 56.5812 195.518C56.9465 198.95 55.8246 202.062 53.4244 204.285C52.557 205.083 51.6438 205.514 50.4633 205.684C50.2676 205.724 50.072 205.737 49.8763 205.737Z" fill="#21B4CC"/>
<path d="M15.6538 161.999C16.9974 161.999 18.3932 162.411 19.815 163.137C22.1696 164.346 24.5698 165.915 26.8787 167.314C29.9833 169.197 32.7031 171.538 35.4294 173.93C35.7947 174.251 36.1012 174.637 36.4469 174.983C40.4581 178.938 44.6846 182.586 49.0089 186.215C50.0264 187.065 51.0243 187.928 51.833 189.046C53.3332 191.105 54.3441 193.08 54.6311 195.74C54.9181 198.401 54.1289 200.971 52.0939 202.853C51.5395 203.363 51.0178 203.638 50.1829 203.756C50.0851 203.769 49.9807 203.775 49.8764 203.775C49.1198 203.775 48.2849 203.416 47.6196 202.997C40.556 198.552 34.0663 192.975 28.0136 187.379C23.8654 183.547 20.0433 180.069 15.6669 176.637C15.4712 176.48 15.269 176.376 15.0864 176.212C13.5536 174.852 11.9491 173.891 10.7556 172.08C9.05323 169.491 8.56406 166.36 11.1208 163.921C12.5166 162.587 14.0493 161.999 15.6538 161.999ZM15.6538 158.076C12.9862 158.076 10.4816 159.116 8.42709 161.077C4.78765 164.549 4.42892 169.589 7.4944 174.244C8.69451 176.062 10.1033 177.199 11.3491 178.2C11.7535 178.527 12.1383 178.834 12.497 179.154C12.7905 179.416 13.0645 179.599 13.221 179.71L13.2797 179.749C17.5518 183.103 21.2826 186.496 25.359 190.268C30.6616 195.172 37.7514 201.422 45.539 206.325C46.5369 206.953 48.1023 207.705 49.8764 207.705C50.1633 207.705 50.4503 207.685 50.7308 207.646C52.3092 207.423 53.581 206.815 54.742 205.743C57.6118 203.089 58.9554 199.388 58.5184 195.329C58.1075 191.465 56.503 188.823 54.9964 186.744C53.9463 185.3 52.7527 184.254 51.52 183.221C47.5283 179.873 43.2693 176.219 39.1928 172.205C39.1015 172.113 39.0102 172.015 38.9254 171.917C38.6841 171.655 38.3906 171.328 38.0123 171.002C34.9729 168.334 32.1879 165.967 28.9071 163.98C28.3136 163.62 27.7201 163.254 27.12 162.882C25.3329 161.777 23.4871 160.633 21.6087 159.665C19.5672 158.606 17.5714 158.076 15.6538 158.076Z" fill="#7C7369"/>
<path d="M26.8785 167.308C24.5631 165.85 22.1694 164.49 19.8279 163.091C19.3648 162.81 18.8561 162.614 18.3734 162.444C15.6471 161.489 13.1817 161.96 11.0815 163.882C9.69877 165.144 9.24873 166.831 9.31395 168.524C9.36613 169.943 10.0053 171.041 10.7749 172.113C11.9555 173.754 13.56 174.931 15.0927 176.206C15.2753 176.356 15.4841 176.493 15.6797 176.637C20.4736 175.036 24.374 172.675 26.6568 168.034C26.7742 167.785 26.7872 167.563 26.8785 167.308Z" fill="#FFAB3F"/>
<path d="M54.6312 195.741C54.3442 193.08 53.3333 191.105 51.8331 189.046C51.0244 187.934 50.0265 187.072 49.009 186.215C44.6847 182.593 40.4648 178.932 36.447 174.99C35.86 177.847 34.9143 180.292 33.1989 182.645C31.7705 184.607 29.9769 186.045 27.968 187.359C34.1773 193.014 40.4778 198.513 47.6197 202.991C48.3763 203.468 49.3416 203.867 50.1765 203.749C51.0113 203.632 51.5331 203.357 52.0875 202.847C54.129 200.971 54.9117 198.395 54.6312 195.741Z" fill="#96B53F"/>
<path opacity="0.1" d="M18.3668 162.45C15.6274 161.509 13.2207 161.94 11.0683 163.895C9.65299 165.183 9.37253 166.759 9.25513 168.563C10.7944 168.707 12.0989 168.641 13.5925 168.073C15.0795 167.504 16.5014 166.608 17.4732 165.268C18.0929 164.418 18.3277 163.483 18.3668 162.45Z" fill="black"/>
<path opacity="0.21" d="M19.183 177.487C18.3873 176.768 17.5068 176.055 16.9002 175.205C16.2936 174.355 15.8697 173.277 16.2806 172.296C17.5524 169.256 20.6897 170.733 22.7311 172.119C25.6531 174.107 27.7598 175.839 30.434 178.33C32.632 180.383 35.9453 182.979 36.3889 186.306C36.5258 187.352 35.9519 188.215 35.117 188.653C34.7322 188.856 34.3213 188.804 33.9039 188.719C31.758 188.3 30.0231 187.032 28.399 185.633C26.3249 183.842 24.3617 182.155 22.405 180.239C21.4463 179.291 20.194 178.396 19.183 177.487Z" fill="white"/>
<path d="M104.669 205.736C104.473 205.736 104.277 205.723 104.088 205.697C102.908 205.527 101.995 205.096 101.127 204.298C98.7203 202.075 97.605 198.963 97.9703 195.531C98.3355 192.125 99.7704 189.758 101.127 187.895C102.047 186.633 103.142 185.672 104.277 184.717C108.302 181.344 112.593 177.663 116.722 173.597C116.839 173.479 116.95 173.355 117.061 173.237C117.276 173.002 117.524 172.734 117.818 172.472C120.785 169.864 123.505 167.556 126.649 165.653C127.242 165.294 127.849 164.921 128.456 164.542C130.21 163.457 132.023 162.332 133.83 161.404C135.584 160.502 137.28 160.044 138.885 160.044C141.076 160.044 143.052 160.874 144.768 162.509C147.716 165.32 147.964 169.308 145.42 173.172C144.39 174.734 143.163 175.721 141.976 176.676C141.572 177.003 141.161 177.33 140.757 177.689C140.587 177.84 140.411 177.964 140.228 178.088C140.183 178.121 140.13 178.154 140.085 178.186C135.741 181.592 131.978 185.018 127.855 188.823C122.612 193.668 115.613 199.846 107.962 204.658C107.18 205.148 105.973 205.736 104.669 205.736Z" fill="#21B4CC"/>
<path d="M138.892 161.999C140.503 161.999 142.029 162.587 143.425 163.921C145.988 166.366 145.493 169.498 143.79 172.08C142.597 173.891 140.992 174.852 139.46 176.212C139.277 176.375 139.075 176.48 138.879 176.637C134.503 180.069 130.687 183.541 126.532 187.378C120.473 192.975 113.99 198.545 106.926 202.997C106.268 203.415 105.433 203.775 104.67 203.775C104.565 203.775 104.467 203.769 104.363 203.755C103.528 203.638 103.006 203.363 102.452 202.853C100.417 200.97 99.6278 198.401 99.9148 195.74C100.202 193.079 101.213 191.105 102.713 189.046C103.522 187.934 104.52 187.071 105.537 186.215C109.861 182.593 114.081 178.938 118.099 174.983C118.445 174.636 118.751 174.251 119.116 173.93C121.843 171.537 124.563 169.197 127.667 167.314C129.976 165.915 132.376 164.346 134.731 163.136C136.153 162.411 137.549 161.999 138.892 161.999ZM138.892 158.076C136.981 158.076 134.979 158.606 132.944 159.645C131.065 160.613 129.22 161.757 127.432 162.862C126.832 163.234 126.232 163.601 125.645 163.96C122.365 165.948 119.58 168.314 116.54 170.982C116.162 171.315 115.862 171.635 115.627 171.897C115.536 171.995 115.451 172.093 115.36 172.185C111.277 176.205 107.024 179.853 103.032 183.201C101.8 184.234 100.606 185.28 99.5561 186.725C98.0429 188.804 96.4449 191.445 96.034 195.309C95.597 199.369 96.9406 203.069 99.8104 205.723C100.971 206.796 102.243 207.397 103.822 207.626C104.102 207.665 104.389 207.685 104.676 207.685C106.45 207.685 108.016 206.933 109.013 206.305C116.801 201.402 123.884 195.152 129.193 190.248C133.276 186.476 137.001 183.083 141.273 179.729L141.331 179.69C141.495 179.579 141.762 179.396 142.055 179.134C142.414 178.814 142.799 178.507 143.203 178.18C144.449 177.179 145.858 176.042 147.058 174.224C150.124 169.576 149.765 164.529 146.125 161.057C144.058 159.116 141.56 158.076 138.892 158.076Z" fill="#7C7369"/>
<path d="M127.668 167.307C129.983 165.849 132.377 164.49 134.719 163.091C135.182 162.809 135.69 162.613 136.173 162.443C138.899 161.489 141.365 161.96 143.465 163.882C144.848 165.143 145.298 166.83 145.233 168.523C145.18 169.942 144.541 171.04 143.772 172.113C142.591 173.754 140.987 174.93 139.454 176.205C139.271 176.356 139.062 176.493 138.867 176.637C134.073 175.035 130.173 172.675 127.89 168.033C127.772 167.785 127.759 167.562 127.668 167.307Z" fill="#FFAB3F"/>
<path d="M99.9144 195.74C100.201 193.079 101.212 191.105 102.712 189.045C103.521 187.934 104.519 187.071 105.537 186.215C109.861 182.593 114.081 178.932 118.099 174.989C118.686 177.846 119.631 180.291 121.347 182.645C122.775 184.606 124.569 186.045 126.578 187.359C120.368 193.014 114.068 198.512 106.926 202.99C106.169 203.468 105.204 203.867 104.369 203.749C103.534 203.631 103.013 203.357 102.458 202.847C100.417 200.97 99.634 198.394 99.9144 195.74Z" fill="#7E78C2"/>
<path opacity="0.1" d="M136.179 162.45C138.918 161.509 141.325 161.94 143.477 163.895C144.893 165.183 145.173 166.758 145.29 168.563C143.751 168.707 142.447 168.641 140.953 168.072C139.466 167.504 138.044 166.608 137.072 165.268C136.453 164.418 136.211 163.483 136.179 162.45Z" fill="black"/>
<path opacity="0.21" d="M135.364 177.487C136.159 176.768 137.04 176.055 137.646 175.205C138.253 174.355 138.677 173.277 138.266 172.296C136.994 169.256 133.857 170.733 131.815 172.119C128.893 174.107 126.787 175.839 124.113 178.33C121.915 180.383 118.601 182.979 118.158 186.306C118.021 187.352 118.595 188.215 119.43 188.653C119.814 188.856 120.225 188.804 120.643 188.719C122.789 188.3 124.523 187.032 126.147 185.633C128.222 183.842 130.185 182.155 132.141 180.239C133.1 179.291 134.353 178.396 135.364 177.487Z" fill="white"/>
<path d="M99.3685 282.039C96.9291 282.039 94.3854 280.973 91.8091 278.861L91.7569 278.816C91.5417 278.626 86.4282 274.063 82.5931 263.923C80.7603 259.072 79.5145 253.717 78.8884 248.01C78.3731 243.303 80.5516 238.68 84.3084 236.516C87.4848 234.686 92.3635 232.496 97.5226 232.496C100.308 232.496 102.923 233.123 105.291 234.372C106.517 235.013 107.704 235.843 108.819 236.83C109.615 237.53 110.045 238.569 110 239.674L108.832 271.395C108.78 272.984 108.421 274.579 107.802 276.004C107.065 277.704 105.956 279.149 104.606 280.189C103.008 281.418 101.247 282.039 99.3685 282.039Z" fill="#4786BF"/>
<path d="M97.5157 234.463C99.7985 234.463 102.127 234.934 104.377 236.111C105.447 236.673 106.497 237.392 107.514 238.301C107.86 238.608 108.062 239.086 108.043 239.602L106.875 271.33C106.83 272.696 106.523 274.036 106.008 275.233C105.414 276.599 104.54 277.783 103.418 278.639C102.336 279.469 100.992 280.084 99.3746 280.084C97.6005 280.084 95.4938 279.345 93.0479 277.351C93.0479 277.351 88.1301 273.036 84.4255 263.236C82.8601 259.098 81.51 253.992 80.8382 247.807C80.4077 243.858 82.2144 240.001 85.2864 238.229C88.4758 236.379 92.9045 234.463 97.5157 234.463ZM97.5157 230.541C91.9196 230.541 86.7148 232.868 83.3232 234.823C78.9076 237.366 76.3378 242.753 76.9313 248.225C77.5705 254.096 78.8554 259.614 80.7469 264.622C84.7581 275.22 90.2238 280.097 90.4521 280.3L90.5042 280.345L90.5564 280.391C93.4915 282.79 96.4526 284.007 99.355 284.007C101.644 284.007 103.868 283.229 105.786 281.751C107.397 280.515 108.708 278.802 109.582 276.802C110.299 275.148 110.71 273.304 110.776 271.474L111.943 239.752C112.008 238.066 111.336 236.464 110.097 235.372C108.871 234.28 107.554 233.365 106.184 232.646C103.542 231.247 100.62 230.541 97.5157 230.541Z" fill="#7C7369"/>
<path d="M80.8248 247.794C81.5031 253.979 82.8467 259.091 84.4121 263.229C93.8173 266.073 101.559 263.55 107.331 258.751L108.036 239.595C108.055 239.086 107.86 238.608 107.514 238.301C100.033 231.626 90.8105 235.026 85.2796 238.223C82.201 239.994 80.3943 243.852 80.8248 247.794Z" fill="#D66969"/>
<path opacity="0.1" d="M106.001 275.226C105.408 276.593 104.534 277.776 103.412 278.633C101.149 280.378 97.7114 281.163 93.0414 277.345C93.0414 277.345 88.1236 273.03 84.4189 263.23C82.8536 259.091 81.5035 253.985 80.8317 247.8C80.4012 243.852 82.2079 239.994 85.2799 238.223C90.0607 235.464 97.594 232.554 104.377 236.111C104.253 236.131 104.129 236.15 104.005 236.176C101.044 236.791 98.2593 238.295 96.2178 240.53C93.4262 243.584 92.0566 247.761 91.8544 251.9C91.6587 256.038 92.5392 260.157 93.8045 264.099C95.0112 267.865 96.6613 271.676 99.7072 274.193C100.699 275.017 101.873 275.704 103.151 275.821C104.149 275.926 105.108 275.684 106.001 275.226Z" fill="black"/>
<path d="M53.6915 282.039C51.8131 282.039 50.052 281.418 48.4541 280.189C47.3192 279.319 46.38 278.188 45.656 276.828C44.7951 275.194 44.2994 273.317 44.2276 271.395L43.0666 239.668C43.0406 238.909 43.2297 238.183 43.621 237.562C43.7645 237.327 43.9537 237.098 44.208 236.856C47.4692 233.954 51.2717 232.496 55.5373 232.496C60.6964 232.496 65.5686 234.679 68.745 236.516C72.4953 238.674 74.6803 243.289 74.1715 248.003C73.5389 253.75 72.2931 259.104 70.4603 263.923C66.6252 274.063 61.5117 278.626 61.2965 278.816L61.2443 278.861C58.6745 280.973 56.1308 282.039 53.6915 282.039Z" fill="#4786BF"/>
<path d="M55.544 234.463C60.1552 234.463 64.5839 236.379 67.7798 238.223C70.8583 239.994 72.665 243.852 72.2345 247.8C71.5562 253.985 70.2126 259.098 68.6408 263.23C64.9296 273.03 60.0183 277.345 60.0183 277.345C57.5724 279.345 55.4657 280.077 53.6916 280.077C52.0741 280.077 50.724 279.463 49.6478 278.632C48.7216 277.92 47.965 276.991 47.3911 275.906C46.6671 274.54 46.2497 272.951 46.191 271.323L45.03 239.596C45.017 239.236 45.1018 238.889 45.2779 238.615C45.3496 238.491 45.4474 238.393 45.5453 238.295C48.7021 235.483 52.1719 234.463 55.544 234.463ZM55.544 230.541C50.7762 230.541 46.5367 232.169 42.9429 235.372L42.9103 235.405L42.8776 235.438C42.5059 235.784 42.2059 236.15 41.958 236.549C41.3645 237.497 41.0775 238.602 41.1166 239.752L42.2776 271.48C42.3624 273.696 42.9298 275.867 43.9277 277.756C44.7822 279.365 45.904 280.711 47.2672 281.758C49.1847 283.229 51.4023 284.013 53.6916 284.013C56.5941 284.013 59.5552 282.797 62.4902 280.398L62.5424 280.352L62.5946 280.306C62.8229 280.103 68.2885 275.226 72.2998 264.635C74.1847 259.666 75.4761 254.149 76.1218 248.245C76.7154 242.76 74.1391 237.373 69.7235 234.836C64.8056 231.979 60.0378 230.541 55.544 230.541Z" fill="#7C7369"/>
<path d="M72.2346 247.794C71.5562 253.979 70.2126 259.091 68.6473 263.229C59.2421 266.073 51.5001 263.55 45.7279 258.751L45.0235 239.595C45.0039 239.086 45.1996 238.608 45.5453 238.301C53.0264 231.626 62.2489 235.026 67.7798 238.223C70.8584 239.994 72.665 243.852 72.2346 247.794Z" fill="#D66969"/>
<path opacity="0.1" d="M72.2342 247.8C71.5559 253.985 70.2123 259.098 68.6404 263.23C64.9292 273.03 60.0179 277.345 60.0179 277.345C55.3479 281.163 51.9107 280.378 49.6474 278.632C48.7213 277.92 47.9647 276.991 47.3907 275.906C47.8668 275.985 48.3625 275.991 48.8321 275.932C50.8345 275.664 52.5694 274.383 53.9913 272.938C58.1721 268.695 60.3831 262.582 59.9005 256.633C59.6396 253.39 58.5634 250.226 56.8741 247.46C55.3088 244.904 53.2021 242.636 50.6845 241.008C49.6213 240.321 46.8363 239.654 45.284 238.615C45.3557 238.491 45.4536 238.393 45.5514 238.295C53.039 231.626 62.255 235.026 67.786 238.216C70.858 239.994 72.6581 243.852 72.2342 247.8Z" fill="black"/>
<path d="M75.5932 254.331C71.2297 254.305 60.0179 253.723 49.8431 248.912C40.2162 244.355 34.7244 237.366 33.9548 228.697C33.7591 226.454 33.6939 224.166 33.7656 221.885C34.0069 212.294 36.4528 202.847 38.5595 195.688L38.8074 194.844C40.5097 189.111 42.1468 184.502 43.96 180.331C45.5319 176.715 47.2081 173.505 49.0996 170.504C49.7518 169.465 50.3649 168.55 50.9845 167.7C56.4958 159.972 64.1661 151.002 74.6409 150.309C74.7648 150.296 74.8822 150.29 75.0062 150.29L75.1105 150.283C75.3584 150.27 75.5736 150.27 75.7888 150.27C83.8634 150.27 92.4272 156.298 100.561 167.706C101.2 168.608 101.754 169.432 102.263 170.23C104.298 173.414 106.098 176.866 107.768 180.769C109.516 184.861 111.14 189.49 112.868 195.341L112.894 195.426C112.907 195.492 112.933 195.551 112.953 195.609L112.979 195.681C115.138 203.049 117.642 212.764 117.786 222.558C117.812 224.003 117.786 225.376 117.708 226.762C117.675 227.389 117.629 228.037 117.577 228.677C116.808 237.353 111.309 244.342 101.682 248.905C91.5076 253.723 80.2892 254.305 75.9388 254.325H75.9323H75.5932V254.331Z" fill="#7E78C2"/>
<path d="M75.7897 152.225C85.4296 152.225 93.8825 161.711 98.9699 168.844C99.5374 169.641 100.092 170.452 100.614 171.282C102.688 174.538 104.449 177.99 105.975 181.547C107.964 186.202 109.562 191.053 110.997 195.904C111.03 196.021 111.062 196.132 111.101 196.244C113.619 204.834 115.7 213.693 115.83 222.597C115.85 223.957 115.83 225.304 115.758 226.664C115.726 227.285 115.687 227.906 115.634 228.527C114.043 246.454 91.0453 252.285 75.9397 252.377H75.6005C60.4949 252.285 37.5037 246.454 35.9123 228.527C35.7231 226.337 35.6644 224.134 35.7297 221.95C35.9514 213.261 37.9864 204.618 40.4453 196.25C40.5236 195.969 40.6149 195.675 40.6931 195.394C42.128 190.556 43.7521 185.744 45.761 181.122C47.1959 177.814 48.8395 174.61 50.7636 171.557C51.3375 170.642 51.9376 169.74 52.5768 168.857C57.7164 161.646 65.0018 152.898 74.8113 152.271C74.9483 152.258 75.0918 152.258 75.2287 152.251C75.4114 152.231 75.6005 152.225 75.7897 152.225ZM75.7897 148.302C75.5483 148.302 75.307 148.309 75.0722 148.315H75.0461H75.02H74.9483C74.7983 148.322 74.6483 148.328 74.4982 148.341C63.2147 149.093 55.1531 158.468 49.3939 166.556C48.7677 167.419 48.1286 168.373 47.4502 169.452C45.5131 172.531 43.7847 175.833 42.1737 179.54C40.3279 183.783 38.6647 188.464 36.9428 194.256L36.8124 194.694L36.6819 195.139C34.5491 202.396 32.0641 212.006 31.8163 221.832C31.7445 224.166 31.8098 226.54 32.0119 228.854C32.8468 238.255 38.7234 245.8 49.0156 250.67C59.5426 255.659 71.1001 256.254 75.5809 256.28H75.9397C80.4401 256.254 91.9976 255.652 102.531 250.67C112.823 245.8 118.706 238.255 119.535 228.854C119.6 228.089 119.639 227.435 119.672 226.834C119.75 225.435 119.776 224.009 119.75 222.512C119.6 212.49 117.063 202.605 114.865 195.119L114.845 195.054L114.826 194.988L114.8 194.903L114.787 194.851L114.76 194.766C113.006 188.836 111.362 184.142 109.582 179.984C107.866 175.977 106.014 172.433 103.92 169.151C103.405 168.334 102.825 167.477 102.166 166.549C93.5173 154.448 84.647 148.302 75.7897 148.302Z" fill="#7C7369"/>
<path d="M115.83 222.591C104.997 226.768 91.4564 229.384 76.7291 229.384C61.2451 229.384 46.9547 226.487 35.7168 221.937C35.8799 215.569 37.0213 209.228 38.5801 203.004C39.1475 200.735 39.7737 198.473 40.4259 196.237C40.5042 195.956 40.5955 195.662 40.6803 195.381C43.1457 187.084 46.1329 178.847 50.7507 171.544C58.6231 170.053 67.2848 169.223 76.3899 169.223C84.9472 169.223 93.1196 169.955 100.607 171.276C105.408 178.794 108.46 187.32 110.991 195.891C111.023 196.008 111.056 196.113 111.095 196.231C111.643 198.081 112.158 199.951 112.647 201.82C114.421 208.646 115.726 215.602 115.83 222.591Z" fill="#FFAB3F"/>
<path d="M112.647 201.827C102.681 204.965 86.4336 208.43 74.0347 208.43C60.9966 208.43 48.8195 206.384 38.586 203.004C39.1534 200.735 39.7796 198.473 40.4318 196.237C40.51 195.956 40.6014 195.662 40.6862 195.381C43.1516 187.084 46.1388 178.847 50.7566 171.544C58.629 170.053 67.2906 169.223 76.3958 169.223C84.953 169.223 93.1255 169.955 100.613 171.276C105.414 178.794 108.466 187.32 110.997 195.891C111.029 196.008 111.062 196.113 111.101 196.231C111.642 198.087 112.164 199.957 112.647 201.827Z" fill="#96B53F"/>
<path d="M105.974 181.54C97.104 183.632 87.2423 184.829 76.8392 184.829C65.7252 184.829 55.1656 183.462 45.7539 181.109C47.1888 177.801 48.8324 174.597 50.7565 171.544C51.3305 170.629 51.9305 169.727 52.5697 168.844C57.7093 161.633 64.9947 152.885 74.8043 152.258C74.9412 152.245 75.0847 152.245 75.2217 152.238C85.103 151.852 93.7842 161.574 98.9694 168.844C99.5368 169.642 100.091 170.452 100.613 171.283C102.687 174.538 104.448 177.984 105.974 181.54Z" fill="#D66969"/>
<path opacity="0.1" d="M115.758 226.657C115.726 227.279 115.687 227.9 115.628 228.521C114.036 246.447 91.0388 252.279 75.9331 252.37H75.5875C60.4818 252.285 37.4842 246.447 35.8992 228.521C35.7036 226.324 35.6449 224.127 35.7101 221.937C35.9318 213.249 37.9668 204.612 40.4257 196.237C40.504 195.956 40.5953 195.662 40.6801 195.381C43.1455 187.084 46.1327 178.847 50.7505 171.544C51.3245 170.622 51.9245 169.727 52.5572 168.838C57.7033 161.626 64.9822 152.879 74.7917 152.258C66.091 155.978 58.7599 162.895 54.5204 171.368C53.4638 173.492 52.5898 175.709 51.9506 177.997C50.1309 184.437 49.9744 191.236 50.2679 197.931C50.5549 204.632 51.2984 211.372 53.4312 217.727C55.5575 224.088 59.1578 230.083 64.4082 234.241C71.5241 239.87 81.0271 241.649 90.08 241.354C97.3785 241.112 105.049 239.413 110.306 234.333C112.582 232.13 114.239 229.456 115.758 226.657Z" fill="black"/>
<path opacity="0.1" d="M72.3512 238.17C75.8885 238.17 78.7561 235.296 78.7561 231.75C78.7561 228.205 75.8885 225.33 72.3512 225.33C68.8139 225.33 65.9463 228.205 65.9463 231.75C65.9463 235.296 68.8139 238.17 72.3512 238.17Z" fill="black"/>
<path opacity="0.1" d="M73.6951 217.89C77.2325 217.89 80.1 215.016 80.1 211.47C80.1 207.924 77.2325 205.05 73.6951 205.05C70.1578 205.05 67.2902 207.924 67.2902 211.47C67.2902 215.016 70.1578 217.89 73.6951 217.89Z" fill="black"/>
<path opacity="0.1" d="M75.0446 195.59C78.5819 195.59 81.4495 192.716 81.4495 189.17C81.4495 185.624 78.5819 182.75 75.0446 182.75C71.5072 182.75 68.6396 185.624 68.6396 189.17C68.6396 192.716 71.5072 195.59 75.0446 195.59Z" fill="black"/>
<path d="M75.7234 193.864C72.397 193.864 69.6902 191.151 69.6902 187.817C69.6902 184.482 72.397 181.769 75.7234 181.769C79.0498 181.769 81.7565 184.482 81.7565 187.817C81.7565 191.151 79.0498 193.864 75.7234 193.864Z" fill="#E8E0D9"/>
<path d="M75.7234 182.743C78.5149 182.743 80.7782 185.012 80.7782 187.81C80.7782 190.608 78.5149 192.877 75.7234 192.877C72.9318 192.877 70.6686 190.608 70.6686 187.81C70.6686 185.012 72.9253 182.743 75.7234 182.743ZM75.7234 180.782C71.8557 180.782 68.7119 183.933 68.7119 187.81C68.7119 191.687 71.8557 194.838 75.7234 194.838C79.5911 194.838 82.7349 191.687 82.7349 187.81C82.7349 183.933 79.5911 180.782 75.7234 180.782Z" fill="#D1C6BD"/>
<path d="M75.0449 216.171C71.7185 216.171 69.0118 213.458 69.0118 210.124C69.0118 206.789 71.7185 204.076 75.0449 204.076C78.3713 204.076 81.078 206.789 81.078 210.124C81.0846 213.458 78.3778 216.171 75.0449 216.171Z" fill="#E8E0D9"/>
<path d="M75.0449 205.05C77.8365 205.05 80.0997 207.319 80.0997 210.117C80.0997 212.915 77.8365 215.184 75.0449 215.184C72.2534 215.184 69.9901 212.915 69.9901 210.117C69.9901 207.319 72.2534 205.05 75.0449 205.05ZM75.0449 203.089C71.1772 203.089 68.0334 206.24 68.0334 210.117C68.0334 213.994 71.1772 217.145 75.0449 217.145C78.9127 217.145 82.0564 213.994 82.0564 210.117C82.0564 206.24 78.9127 203.089 75.0449 203.089Z" fill="#D1C6BD"/>
<path d="M73.6951 235.771C70.3687 235.771 67.6619 233.058 67.6619 229.724C67.6619 226.389 70.3687 223.676 73.6951 223.676C77.0214 223.676 79.7282 226.389 79.7282 229.724C79.7282 233.058 77.028 235.771 73.6951 235.771Z" fill="#E8E0D9"/>
<path d="M73.6951 224.657C76.4866 224.657 78.7499 226.925 78.7499 229.724C78.7499 232.522 76.4866 234.79 73.6951 234.79C70.9035 234.79 68.6403 232.522 68.6403 229.724C68.6403 226.925 70.9035 224.657 73.6951 224.657ZM73.6951 222.696C69.8273 222.696 66.6836 225.847 66.6836 229.724C66.6836 233.601 69.8273 236.752 73.6951 236.752C77.5628 236.752 80.7066 233.601 80.7066 229.724C80.7066 225.847 77.5628 222.696 73.6951 222.696Z" fill="#D1C6BD"/>
<path opacity="0.21" d="M88.7237 212.49C87.7454 217.662 89.1151 223.696 91.5479 227.841C93.172 230.613 95.8852 233.065 99.0877 233.097C107.26 233.182 108.897 223.023 108.46 216.903C108.258 214.046 107.834 211.143 106.575 208.574C105.31 206.005 103.079 203.782 100.301 203.128C96.8897 202.324 93.2111 204.076 91.0979 206.881C89.8782 208.502 89.1151 210.424 88.7237 212.49Z" fill="white"/>
<path d="M133.284 143.295C126.879 143.295 123.964 136.156 123.964 129.52C123.964 123.146 129.136 117.961 135.495 117.961C141.855 117.961 147.027 123.146 147.027 129.52C147.027 135.96 139.702 143.295 133.284 143.295Z" fill="#DDBA9E"/>
<path d="M135.488 119.923C140.778 119.923 145.063 124.218 145.063 129.52C145.063 134.822 138.567 141.334 133.277 141.334C127.987 141.334 125.913 134.822 125.913 129.52C125.913 124.224 130.199 119.923 135.488 119.923ZM135.488 116C128.053 116 122 122.067 122 129.52C122 137.097 125.529 145.256 133.277 145.256C140.758 145.256 148.976 137.019 148.976 129.52C148.983 122.067 142.93 116 135.488 116Z" fill="#AD886D"/>
<path d="M15.6995 143.223C9.27506 143.223 1.95703 135.887 1.95703 129.448C1.95703 123.073 7.12922 117.889 13.4885 117.889C19.8477 117.889 25.0199 123.073 25.0199 129.448C25.0199 136.083 22.1044 143.223 15.6995 143.223Z" fill="#DDBA9E"/>
<path d="M13.4881 119.85C18.7777 119.85 23.0629 124.145 23.0629 129.448C23.0629 134.75 20.9823 141.261 15.6992 141.261C10.4161 141.261 3.91338 134.75 3.91338 129.448C3.91338 124.152 8.19854 119.85 13.4881 119.85ZM13.4881 115.927C6.0527 115.927 0 121.995 0 129.448C0 136.946 8.21811 145.184 15.6992 145.184C23.4477 145.184 26.9763 137.025 26.9763 129.448C26.9763 121.995 20.9301 115.927 13.4881 115.927Z" fill="#AD886D"/>
<path d="M76.8581 172.316C59.411 172.316 45.3489 167.87 40.1115 165.954C29.5453 162.097 21.5229 155.272 16.9051 146.217C11.2176 135.07 10.3893 117.588 12.0916 105.206C12.2677 103.937 12.5025 101.911 12.7765 99.5636C14.3744 85.7951 14.8571 83.4219 15.6724 82.4347C20.0945 77.0541 28.6126 74.3279 40.992 74.3279C53.3909 74.3279 66.5399 77.0149 72.86 78.3028C73.9361 78.5251 74.8232 78.7016 75.4298 78.8128C75.9189 78.7278 76.5777 78.597 77.3799 78.4467C82.813 77.4072 95.5315 74.9686 107.663 74.9686C119.879 74.9686 128.554 77.4268 133.439 82.2843L133.609 82.4543L133.733 82.657C134.085 83.2388 134.411 84.3045 135.122 86.7692C135.448 87.8937 135.937 89.6001 136.126 89.9793L136.342 90.3388L136.361 90.6984C140.425 123.191 141.527 153.395 110.807 165.928C100.41 170.165 88.9961 172.316 76.8581 172.316Z" fill="#EAC8A7"/>
<path d="M40.9854 76.2891C55.7911 76.2891 71.8816 80.2183 75.4232 80.8067C78.8148 80.2444 93.5487 76.9363 107.656 76.9363C117.407 76.9363 126.858 78.5185 132.05 83.6833C132.559 84.5136 133.902 90.1165 134.411 90.9467C138.344 122.419 139.792 151.983 110.063 164.117C98.7274 168.739 87.2808 170.361 76.8581 170.361C61.1981 170.361 47.8665 166.706 40.7833 164.117C31.4368 160.705 23.2969 154.441 18.6465 145.328C13.0961 134.449 12.3982 117.314 14.0288 105.474C14.694 100.616 16.2463 84.8143 17.179 83.6833C21.8164 78.0347 31.1172 76.2891 40.9854 76.2891ZM40.9854 72.3665C27.993 72.3665 18.9661 75.3346 14.1527 81.1859C13.0047 82.585 12.5547 84.4286 10.8263 99.3412C10.5524 101.675 10.3241 103.689 10.148 104.938C9.23486 111.58 9.09137 119.105 9.7436 126.12C10.5198 134.429 12.3917 141.686 15.1571 147.106C19.938 156.475 28.5604 163.823 39.4397 167.798C44.7749 169.746 59.0914 174.277 76.8516 174.277C89.244 174.277 100.912 172.08 111.531 167.746C126.323 161.711 135.2 151.205 138.677 135.639C141.788 121.681 140.111 104.996 138.292 90.4564L138.187 89.6196L137.855 89.0704C137.666 88.5605 137.261 87.1614 136.987 86.22C136.192 83.4676 135.872 82.4281 135.389 81.637L135.141 81.2316L134.802 80.8982C129.539 75.668 120.408 73.0137 107.65 73.0137C95.3358 73.0137 82.4869 75.4719 77.0016 76.5245C76.3885 76.6421 75.8537 76.7467 75.4232 76.8252C74.8623 76.7206 74.1122 76.5637 73.2382 76.3872C66.8594 75.0796 53.58 72.3665 40.9854 72.3665Z" fill="#AD886D"/>
<path d="M82.266 139.352C82.266 142.968 79.3375 144.968 75.7307 144.968C72.1238 144.968 69.1953 142.968 69.1953 139.352C69.1953 135.737 72.1238 134.671 75.7307 134.671C79.3375 134.671 82.266 135.73 82.266 139.352Z" fill="#D66969"/>
<path d="M121.041 106.304C113.684 106.304 107.129 101.839 104.318 95.059L103.261 95.0721C102.27 95.0852 101.344 95.4186 100.665 96.007C95.5323 100.453 87.9273 103.009 79.7939 103.009C72.4433 103.009 65.5753 100.956 60.4684 97.2361C60.077 96.9484 59.6726 96.7131 59.2552 96.53C58.1725 96.0266 57.0311 95.7782 55.8245 95.7782H55.6614C54.6244 95.7913 53.6656 95.9743 52.7851 96.3143C52.4133 96.4581 52.0676 96.6281 51.7154 96.8373C49.4978 98.1775 46.9737 98.8902 44.4365 98.8902C41.5211 98.8902 37.4316 98.2364 34.7248 96.4058C34.353 96.1574 33.8965 96.0266 33.4008 96.0266H33.2834L32.2202 96.0724C30.4918 100.623 26.3632 103.669 21.6672 103.826C21.5106 103.833 21.3606 103.833 21.2171 103.833C16.4493 103.833 13.6382 101.446 12.1185 99.4393C10.5662 97.3996 9.7509 94.7518 9.8096 91.9863C9.82917 91.0579 9.88787 90.025 9.99223 88.9397C11.0358 77.7144 16.9059 55.1264 44.5213 30.0934C45.9627 28.7793 47.4955 27.4391 49.0674 26.1184C50.2153 25.1574 77.7655 1.96143 102.576 1.96143C106.216 1.96143 109.666 2.47137 112.816 3.48472C113.716 3.72662 121.758 6.10636 123.422 14.0497C124.27 18.1162 123.35 22.3004 120.969 25.2358C119.195 27.426 116.795 28.7008 114.16 28.8577C114.336 31.3552 114.93 36.4938 116.925 42.2144C118.758 47.4838 121.074 51.8314 123.8 55.1395C124.439 55.8521 132.455 64.9135 136.949 75.4131C138.097 78.087 138.925 80.689 139.421 83.1276C140.869 90.3911 138.39 97.6807 132.951 102.146C129.611 104.905 125.6 106.304 121.041 106.304Z" fill="#19ABC4"/>
<path d="M102.576 3.92265C105.902 3.92265 109.157 4.36068 112.268 5.3675C112.268 5.3675 120.01 7.31575 121.503 14.4484C122.834 20.8293 119.083 26.9159 113.585 26.9159C113.109 26.9159 112.62 26.8702 112.124 26.7786C112.079 26.7786 112.176 27.2624 112.131 27.2624C112.131 27.2624 112.124 34.4082 115.079 42.8615C116.709 47.536 119.038 52.4459 122.319 56.4208C122.319 56.4208 130.641 65.6521 135.148 76.1844C136.178 78.5903 137.007 81.0681 137.496 83.5133C138.761 89.8614 136.7 96.5234 131.704 100.629C129.2 102.695 125.73 104.343 121.027 104.343C113.866 104.343 107.787 99.6223 105.654 93.078L103.215 93.1172C101.806 93.1368 100.43 93.6141 99.3666 94.5294C94.7749 98.5109 87.7047 101.054 79.7735 101.054C72.6121 101.054 66.1615 98.9816 61.6024 95.6539C61.1067 95.2943 60.5784 94.9805 60.024 94.7386C58.7065 94.124 57.2716 93.8233 55.8106 93.8233C55.7454 93.8233 55.6736 93.8233 55.6084 93.8233C54.3953 93.8364 53.1821 94.0521 52.0603 94.4967C51.5907 94.6797 51.1406 94.902 50.7036 95.1635C48.8317 96.2946 46.6989 96.9418 44.4226 96.9418C41.8855 96.9418 38.1808 96.3992 35.8067 94.7909C35.0957 94.3071 34.2478 94.0717 33.3869 94.0717C33.3217 94.0717 33.2499 94.0717 33.1847 94.0783L31.4041 94.1567C31.0324 94.1763 30.7128 94.4248 30.5954 94.7778C30.5497 94.9216 30.4975 95.0589 30.4453 95.1962C29.03 99.0927 25.5927 101.747 21.5815 101.878C21.4511 101.884 21.3206 101.884 21.1967 101.884C17.3746 101.884 15.0397 100.093 13.6569 98.269C12.3068 96.4972 11.7002 94.2809 11.7459 92.0516C11.7589 91.2605 11.8111 90.2864 11.922 89.1488C12.8416 79.2245 18.1834 56.6169 45.8119 31.5708C47.2468 30.2633 48.7469 28.9557 50.3058 27.6416C50.3188 27.6416 78.2017 3.92265 102.576 3.92265ZM102.576 0C77.0537 0 48.9687 23.6471 47.7882 24.6539C46.2098 25.981 44.6575 27.3409 43.1965 28.668C30.7845 39.913 21.4185 51.9098 15.3527 64.3053C10.2131 74.8115 8.53691 83.4217 8.04122 88.7892C7.93034 89.9137 7.86512 90.9925 7.84555 91.9797C7.7738 95.1701 8.73258 98.2559 10.5523 100.649C12.3394 103.002 15.6397 105.807 21.2032 105.807C21.3728 105.807 21.5424 105.807 21.712 105.8C26.7668 105.63 31.2476 102.623 33.5043 98.0075C33.563 98.0205 33.6021 98.0336 33.6217 98.0467C37.4894 100.662 42.8703 100.864 44.4292 100.864C47.3251 100.864 50.1949 100.054 52.7321 98.5239C52.9669 98.3867 53.2212 98.2559 53.4952 98.1513C54.1539 97.8898 54.8844 97.759 55.6671 97.7459H55.8236C56.7433 97.7459 57.6042 97.929 58.3869 98.2951C58.413 98.3082 58.4391 98.3147 58.4586 98.3278C58.7456 98.452 59.0261 98.622 59.3 98.8181C64.7462 102.787 72.0185 104.97 79.7801 104.97C88.3765 104.97 96.4511 102.244 101.936 97.4844C102.217 97.2425 102.615 97.0856 103.065 97.0399C106.437 103.852 113.337 108.259 121.034 108.259C126.062 108.259 130.491 106.709 134.196 103.65C140.19 98.7266 142.929 90.7113 141.338 82.7353C140.816 80.1529 139.948 77.4266 138.748 74.6219C134.196 63.9785 126.141 54.7994 125.286 53.8449C122.716 50.7199 120.525 46.588 118.777 41.554C117.251 37.1802 116.579 33.1595 116.279 30.4986C118.666 29.9102 120.818 28.5242 122.488 26.4583C125.241 23.0652 126.304 18.273 125.338 13.6312C123.473 4.73987 114.72 1.96133 113.383 1.58867C110.044 0.542634 106.411 0 102.576 0Z" fill="#118793"/>
<path opacity="0.59" d="M113.586 27.2623C113.586 27.7461 113.155 27.7657 113.103 27.7461C113.103 27.7461 112.125 34.4081 115.08 42.8614C111.59 42.5345 108.27 41.1354 105.903 38.5399C106.066 44.2474 101.454 49.6999 95.8062 50.4648C90.1644 51.2428 84.2617 47.2221 82.8985 41.6846C78.946 49.3076 69.2147 53.1714 60.964 50.8309C52.7068 48.4839 46.5562 40.4817 45.8518 31.9237C45.8453 31.8061 45.8388 31.6884 45.8322 31.5707C47.2672 30.2632 48.7673 28.9556 50.3261 27.6415C50.3261 27.6415 86.3227 -2.98786 112.275 5.36739C112.275 5.36739 120.017 7.31564 121.511 14.4483C122.952 21.3783 119.86 28.4457 113.586 27.2623Z" fill="#37C5DB"/>
<path d="M107.703 30.4921C107.703 30.4921 115.38 30.0214 114.402 20.9404" stroke="#118793" stroke-width="6" stroke-miterlimit="10" stroke-linecap="round" stroke-linejoin="round"/>
<path d="M104.977 83.2124C104.977 83.2124 102.498 89.6913 105.342 95.8107" stroke="#118793" stroke-width="6" stroke-miterlimit="10" stroke-linecap="round" stroke-linejoin="round"/>
<path d="M48.1082 92.3C48.1082 92.3 54.7349 97.4714 63.5791 92.3" stroke="#118793" stroke-width="6" stroke-miterlimit="10" stroke-linecap="round" stroke-linejoin="round"/>
<path d="M32.5265 87.3379C33.57 90.7441 33.2309 93.0519 31.9395 95.3793" stroke="#118793" stroke-width="6" stroke-miterlimit="10" stroke-linecap="round" stroke-linejoin="round"/>
<g opacity="0.35">
<path d="M47.8929 92.9276C49.2104 93.6206 50.6193 94.1436 52.0672 94.4901C51.5976 94.6732 51.1476 94.8955 50.7106 95.157C48.8387 96.288 46.7059 96.9352 44.4296 96.9352C41.925 96.9352 38.2725 96.4057 35.8984 94.8432C35.0636 94.294 34.0787 94.0325 33.0873 94.0782L31.4111 94.1502C32.1155 93.2479 32.6307 92.2085 32.8916 91.0513C36.9616 94.5097 43.099 95.2747 47.8929 92.9276Z" fill="#118793"/>
</g>
<g opacity="0.35">
<path d="M131.711 100.629C129.207 102.695 125.737 104.342 121.034 104.342C113.873 104.342 107.794 99.6222 105.661 93.0779L103.222 93.1171C101.813 93.1367 100.437 93.614 99.3739 94.5293C94.7822 98.5108 87.712 101.054 79.7809 101.054C72.6194 101.054 66.1688 98.9815 61.6097 95.6538C61.114 95.2942 60.5857 94.9804 60.0313 94.7385C61.6228 94.4573 62.1054 91.7376 63.5729 91.0512C65.784 95.4838 76.9176 97.6543 81.9919 96.9613C91.1688 95.7126 97.502 91.5088 103.398 85.6052C102.276 90.6066 108.955 93.7055 113.971 94.6731C118.869 95.608 124.152 94.3724 128.124 91.3258C132.09 88.2922 134.679 83.5132 135.064 78.5314C135.123 77.7469 135.136 76.9689 135.155 76.1843C136.186 78.5902 137.014 81.068 137.503 83.5197C138.769 89.8678 136.708 96.5233 131.711 100.629Z" fill="#118793"/>
</g>
<path opacity="0.59" d="M126.905 77.1716C126.983 82.3626 122.769 90.3059 116.599 86.3375C111.492 83.049 108.349 73.3862 107.194 67.8095C106.705 65.4429 106.327 62.9912 106.77 60.618C107.214 58.2448 108.622 55.9239 110.834 54.9694C114.61 53.3415 118.889 57.8002 120.76 60.7161C123.448 64.9002 126.813 71.3791 126.905 77.1716Z" fill="#37C5DB"/>
<path opacity="0.59" d="M16.1292 96.3795C17.3424 98.1709 19.3317 99.3608 21.6667 99.4981C33.022 100.191 26.004 78.7276 17.4272 86.4618C15.6661 88.0504 14.7074 90.4825 14.903 92.8426C15.0074 94.1632 15.4444 95.3662 16.1292 96.3795Z" fill="#37C5DB"/>
<g opacity="0.36">
<path d="M115.647 159.07C120.481 159.07 124.4 155.142 124.4 150.296C124.4 145.451 120.481 141.523 115.647 141.523C110.812 141.523 106.894 145.451 106.894 150.296C106.894 155.142 110.812 159.07 115.647 159.07Z" fill="url(#paint0_radial_229_13864)"/>
</g>
<g opacity="0.36">
<path d="M41.9775 160.044C46.8117 160.044 50.7305 156.116 50.7305 151.27C50.7305 146.425 46.8117 142.497 41.9775 142.497C37.1434 142.497 33.2246 146.425 33.2246 151.27C33.2246 156.116 37.1434 160.044 41.9775 160.044Z" fill="url(#paint1_radial_229_13864)"/>
</g>
<g opacity="0.19">
<path fill-rule="evenodd" clip-rule="evenodd" d="M22.6849 121.426C22.6718 114.646 23.898 107.651 21.1261 107.978C18.3606 108.304 16.0843 115.927 16.0908 122.707C16.1039 129.487 19.7238 139.333 22.2935 138.411C24.9742 137.443 22.6914 128.205 22.6849 121.426Z" fill="white"/>
</g>
<path d="M34.556 108.625C35.2017 106.363 36.5909 104.388 39.0824 103.447C41.8675 102.388 44.6199 102.545 47.0918 104.343C47.718 104.794 48.3311 105.454 48.1615 106.369C47.9984 107.245 47.2158 107.468 46.4983 107.67C43.335 108.546 40.2956 109.736 37.341 111.155C36.6757 111.475 35.8474 112.011 35.1038 111.279C34.432 110.619 34.3668 109.762 34.556 108.625Z" fill="#AD886D"/>
<path d="M115.523 108.625C114.877 106.363 113.488 104.388 110.996 103.447C108.211 102.388 105.459 102.545 102.987 104.343C102.361 104.794 101.748 105.454 101.917 106.369C102.08 107.245 102.863 107.468 103.58 107.67C106.744 108.546 109.783 109.736 112.738 111.155C113.403 111.475 114.231 112.011 114.975 111.279C115.64 110.619 115.705 109.762 115.523 108.625Z" fill="#AD886D"/>
<path d="M102.179 142.922C109.747 142.922 115.882 136.772 115.882 129.186C115.882 121.6 109.747 115.45 102.179 115.45C94.6106 115.45 88.4754 121.6 88.4754 129.186C88.4754 136.772 94.6106 142.922 102.179 142.922Z" fill="white"/>
<path d="M102.179 116.758C109.027 116.758 114.578 122.321 114.578 129.186C114.578 136.051 109.027 141.614 102.179 141.614C95.3303 141.614 89.7798 136.051 89.7798 129.186C89.7798 122.321 95.3303 116.758 102.179 116.758ZM102.179 114.143C93.9019 114.143 87.1709 120.89 87.1709 129.186C87.1709 137.482 93.9019 144.229 102.179 144.229C110.456 144.229 117.187 137.482 117.187 129.186C117.18 120.89 110.449 114.143 102.179 114.143Z" fill="#AD886D"/>
<path d="M118.634 128.768C119.841 128.768 120.819 127.787 120.819 126.577C120.819 125.368 119.841 124.387 118.634 124.387C117.427 124.387 116.449 125.368 116.449 126.577C116.449 127.787 117.427 128.768 118.634 128.768Z" fill="#AD886D"/>
<path d="M116.136 123.76C117.343 123.76 118.321 122.779 118.321 121.57C118.321 120.36 117.343 119.379 116.136 119.379C114.929 119.379 113.951 120.36 113.951 121.57C113.951 122.779 114.929 123.76 116.136 123.76Z" fill="#AD886D"/>
<path d="M51.6955 142.222C44.1426 142.222 37.9921 136.064 37.9921 128.487C37.9921 120.916 44.1361 114.751 51.6955 114.751C59.2548 114.751 65.3988 120.909 65.3988 128.487C65.3988 136.064 59.2483 142.222 51.6955 142.222Z" fill="white"/>
<path d="M51.6954 116.065C58.5439 116.065 64.0944 121.628 64.0944 128.493C64.0944 135.358 58.5439 140.921 51.6954 140.921C44.847 140.921 39.2965 135.358 39.2965 128.493C39.2965 121.628 44.847 116.065 51.6954 116.065ZM51.6954 113.45C43.4186 113.45 36.6876 120.197 36.6876 128.493C36.6876 136.789 43.4186 143.536 51.6954 143.536C59.9723 143.536 66.7033 136.789 66.7033 128.493C66.7033 120.197 59.9657 113.45 51.6954 113.45Z" fill="#AD886D"/>
<path d="M35.057 129.945C36.2638 129.945 37.242 128.964 37.242 127.754C37.242 126.545 36.2638 125.564 35.057 125.564C33.8503 125.564 32.8721 126.545 32.8721 127.754C32.8721 128.964 33.8503 129.945 35.057 129.945Z" fill="#AD886D"/>
<path d="M36.3091 124.943C37.5158 124.943 38.494 123.962 38.494 122.753C38.494 121.543 37.5158 120.563 36.3091 120.563C35.1023 120.563 34.1241 121.543 34.1241 122.753C34.1241 123.962 35.1023 124.943 36.3091 124.943Z" fill="#AD886D"/>
<path d="M53.4007 132.841C58.0403 132.841 61.8015 129.071 61.8015 124.421C61.8015 119.77 58.0403 116 53.4007 116C48.7611 116 45 119.77 45 124.421C45 129.071 48.7611 132.841 53.4007 132.841Z" fill="#35322F"/>
<g opacity="0.26">
<path d="M56.1206 124.277C57.6731 124.277 58.9317 123.015 58.9317 121.459C58.9317 119.903 57.6731 118.641 56.1206 118.641C54.568 118.641 53.3094 119.903 53.3094 121.459C53.3094 123.015 54.568 124.277 56.1206 124.277Z" fill="#EDE6DF"/>
</g>
<path d="M76.8858 162.006C71.6027 162.006 67.1024 159.103 65.1391 154.428C64.9239 153.918 64.7282 153.415 64.6695 152.8C64.6369 152.467 64.5326 151.46 65.2044 150.708C65.5892 150.283 66.124 150.048 66.7175 150.048C67.285 150.048 67.7872 150.257 68.2242 150.44C68.3351 150.486 68.4525 150.538 68.5634 150.578C69.3004 150.846 70.1352 151.068 71.1201 151.271C73.1746 151.696 75.3792 151.898 77.8511 151.898C81.2558 151.898 84.5495 151.447 86.8976 150.663C87.0671 150.604 87.2432 150.578 87.4128 150.578C87.7128 150.578 88.0063 150.656 88.2672 150.82C88.6781 151.075 88.9586 151.493 89.0304 151.977C89.0369 152.009 89.4217 155.54 85.2735 159.103C83.1146 160.947 80.0557 162.006 76.8858 162.006Z" fill="#BF5858"/>
<path d="M66.7232 151.682C67.0689 151.682 67.5646 151.957 68.0146 152.114C68.9147 152.434 69.8539 152.676 70.7931 152.866C73.1085 153.343 75.4892 153.526 77.8502 153.526C81.594 153.526 84.9791 153.023 87.4119 152.205C87.4315 152.356 87.4446 155.076 84.2095 157.848C82.3963 159.404 79.7287 160.358 76.8915 160.358C72.3715 160.358 68.3929 157.939 66.6514 153.781C66.4949 153.408 66.3384 153.023 66.2992 152.617C66.2144 151.905 66.4101 151.682 66.7232 151.682ZM66.7232 148.414C65.6601 148.414 64.6947 148.839 63.9969 149.61C63.2272 150.466 62.9076 151.597 63.0511 152.964C63.1424 153.866 63.4555 154.611 63.6447 155.049C65.8622 160.338 70.9366 163.627 76.8915 163.627C80.4461 163.627 83.8899 162.424 86.3292 160.332C90.2491 156.972 90.8622 153.232 90.6405 151.722C90.497 150.767 89.9426 149.924 89.1208 149.414C88.599 149.093 88.012 148.93 87.4185 148.93C87.0728 148.93 86.7206 148.989 86.3814 149.1C84.1964 149.832 81.0918 150.251 77.8568 150.251C75.4957 150.251 73.402 150.055 71.4519 149.656C70.5518 149.473 69.7887 149.263 69.1169 149.028C69.0321 148.995 68.9473 148.963 68.8625 148.924C68.3342 148.714 67.6167 148.414 66.7232 148.414Z" fill="#AD886D"/>
<path d="M84.2099 157.795C84.2099 157.815 84.2099 157.834 84.2099 157.854C82.3119 159.312 79.7291 160.365 76.8919 160.365C74.0482 160.365 71.4653 159.312 69.5674 157.854C69.5674 157.834 69.5674 157.815 69.5674 157.795C69.5674 155.651 72.8481 156.488 76.8919 156.488C80.9292 156.488 84.2099 155.651 84.2099 157.795Z" fill="#E87272"/>
<path d="M103.401 132.841C108.04 132.841 111.801 129.071 111.801 124.421C111.801 119.77 108.04 116 103.401 116C98.7611 116 95 119.77 95 124.421C95 129.071 98.7611 132.841 103.401 132.841Z" fill="#35322F"/>
<g opacity="0.26">
<path d="M106.121 124.277C107.673 124.277 108.932 123.015 108.932 121.459C108.932 119.903 107.673 118.641 106.121 118.641C104.568 118.641 103.309 119.903 103.309 121.459C103.309 123.015 104.568 124.277 106.121 124.277Z" fill="#EDE6DF"/>
</g>
<path d="M118.634 133.292C119.841 133.292 120.819 132.311 120.819 131.102C120.819 129.892 119.841 128.911 118.634 128.911C117.428 128.911 116.449 129.892 116.449 131.102C116.449 132.311 117.428 133.292 118.634 133.292Z" fill="#AD886D"/>
<path d="M116.136 138.299C117.343 138.299 118.321 137.319 118.321 136.109C118.321 134.9 117.343 133.919 116.136 133.919C114.929 133.919 113.951 134.9 113.951 136.109C113.951 137.319 114.929 138.299 116.136 138.299Z" fill="#AD886D"/>
<path d="M35.4292 134.586C36.6359 134.586 37.6141 133.606 37.6141 132.396C37.6141 131.186 36.6359 130.206 35.4292 130.206C34.2224 130.206 33.2442 131.186 33.2442 132.396C33.2442 133.606 34.2224 134.586 35.4292 134.586Z" fill="#AD886D"/>
<path d="M37.5755 139.274C38.7822 139.274 39.7604 138.293 39.7604 137.083C39.7604 135.874 38.7822 134.893 37.5755 134.893C36.3688 134.893 35.3905 135.874 35.3905 137.083C35.3905 138.293 36.3688 139.274 37.5755 139.274Z" fill="#AD886D"/>
</g>
<defs>
<radialGradient id="paint0_radial_229_13864" cx="0" cy="0" r="1" gradientUnits="userSpaceOnUse" gradientTransform="translate(115.646 150.297) scale(8.756 8.77674)">
<stop stop-color="#FF6554"/>
<stop offset="0.168" stop-color="#FF675B" stop-opacity="0.832"/>
<stop offset="0.4115" stop-color="#FF6E6E" stop-opacity="0.5885"/>
<stop offset="0.7011" stop-color="#FF7A8E" stop-opacity="0.2989"/>
<stop offset="1" stop-color="#FF88B6" stop-opacity="0"/>
</radialGradient>
<radialGradient id="paint1_radial_229_13864" cx="0" cy="0" r="1" gradientUnits="userSpaceOnUse" gradientTransform="translate(41.9788 151.269) scale(8.756 8.77674)">
<stop stop-color="#FF6554"/>
<stop offset="0.168" stop-color="#FF675B" stop-opacity="0.832"/>
<stop offset="0.4115" stop-color="#FF6E6E" stop-opacity="0.5885"/>
<stop offset="0.7011" stop-color="#FF7A8E" stop-opacity="0.2989"/>
<stop offset="1" stop-color="#FF88B6" stop-opacity="0"/>
</radialGradient>
<clipPath id="clip0_229_13864">
<rect width="150" height="284" fill="white"/>
</clipPath>
</defs>
</svg>
