<svg width="181" height="260" viewBox="0 0 181 260" fill="none" xmlns="http://www.w3.org/2000/svg">
<g clip-path="url(#clip0_229_13768)">
<path d="M111.819 258.217C106.259 258.217 100.89 256.314 96.7078 252.86C93.0268 249.828 91.1654 246.035 91.595 242.456C91.8098 240.696 92.5316 239.192 93.2296 237.741C93.3728 237.444 93.516 237.147 93.6532 236.844C95.2938 233.288 98.3484 207.088 100.061 185.798L100.204 183.997L121.132 185.947L120.906 187.772C119.897 195.84 118.203 209.341 116.658 220.78C115.823 226.969 115.131 231.808 114.594 235.167C114.301 236.992 114.057 238.425 113.854 239.43C116.264 239.899 118.788 240.583 120.989 242.099C123.877 244.091 126.108 248.062 124.801 251.796C123.817 254.608 121.073 256.671 117.069 257.61C115.369 258.014 113.603 258.217 111.819 258.217Z" fill="#F4D3A2"/>
<path d="M101.844 185.947L119.127 187.558C117.01 204.49 112.446 240.839 111.581 240.839C114.51 241.344 117.529 241.891 119.975 243.573C122.415 245.256 124.097 248.419 123.113 251.213C122.194 253.823 119.36 255.244 116.664 255.88C115.077 256.255 113.454 256.433 111.825 256.433C106.784 256.433 101.737 254.691 97.853 251.487C95.1922 249.293 92.967 246.082 93.3786 242.67C93.5993 240.862 94.53 239.239 95.2877 237.587C97.155 233.532 100.269 205.524 101.844 185.947ZM98.563 182.059L98.2707 185.662C96.4272 208.562 93.3905 233.08 92.0243 236.1C91.8871 236.392 91.7499 236.683 91.6127 236.968C90.8848 238.478 90.0675 240.185 89.811 242.236C89.3039 246.433 91.3979 250.809 95.5562 254.233C100.06 257.949 105.835 259.994 111.813 259.994C113.734 259.994 115.637 259.774 117.475 259.346C122.093 258.264 125.29 255.791 126.483 252.384C127.921 248.282 126.084 243.449 122.003 240.637C120.088 239.317 117.964 238.562 115.924 238.062C116.055 237.313 116.198 236.445 116.359 235.446C116.896 232.07 117.588 227.218 118.429 221.018C119.981 209.555 121.735 195.525 122.677 187.992L123.137 184.342L119.462 183.997L102.178 182.386L98.563 182.059Z" fill="#A88446"/>
<g opacity="0.11">
<path d="M92.9311 242.628C92.5195 246.041 94.7448 249.251 97.4056 251.445C101.498 254.822 106.891 256.576 112.195 256.373C108.872 255.636 105.722 254.144 103.097 251.974C100.436 249.78 98.211 246.57 98.6226 243.157C98.8434 241.35 99.774 239.727 100.532 238.074C102.405 234.014 105.519 206.006 107.094 186.429L101.403 185.899C99.8277 205.477 96.7135 233.485 94.8402 237.545C94.0826 239.198 93.1519 240.821 92.9311 242.628Z" fill="#A88446"/>
</g>
<path d="M67.0395 257.598C64.4921 257.598 62.0043 257.2 59.6537 256.409C55.758 255.101 53.2165 252.794 52.5006 249.905C51.546 246.064 54.1412 242.319 57.1958 240.607C59.5284 239.299 62.1117 238.853 64.5517 238.609C64.4443 237.593 64.331 236.16 64.2117 234.335C63.9969 230.946 63.7523 226.059 63.5017 219.817C63.0304 208.271 62.6068 194.657 62.3503 186.524L62.2907 184.687H83.3086L83.2847 186.494C83.0043 207.849 83.5949 234.216 84.9015 237.908C85.0089 238.217 85.1282 238.526 85.2415 238.841C85.8023 240.351 86.381 241.915 86.4288 243.686C86.5242 247.295 84.3168 250.898 80.3674 253.573C76.5432 256.165 71.8063 257.598 67.0395 257.598Z" fill="#F4D3A2"/>
<path d="M81.5005 186.458C81.244 206.101 81.7272 234.275 83.2127 238.49C83.8153 240.203 84.5908 241.909 84.6386 243.728C84.7281 247.164 82.2104 250.155 79.3587 252.093C75.7553 254.542 71.3942 255.815 67.0331 255.815C64.7184 255.815 62.4096 255.458 60.2141 254.721C57.5831 253.841 54.8925 252.164 54.2243 249.477C53.5084 246.605 55.4772 243.609 58.0604 242.158C60.6496 240.708 63.7101 240.446 66.6752 240.214C65.8161 240.214 64.6587 203.539 64.1277 186.464H81.5005M85.1278 182.891H81.5005H64.1397H60.4468L60.5601 186.571C60.8107 194.71 61.2402 208.33 61.7115 219.882C61.9681 226.136 62.2067 231.035 62.4275 234.442C62.4931 235.435 62.5527 236.297 62.6124 237.046C60.5303 237.355 58.3468 237.908 56.3184 239.043C51.9931 241.469 49.7081 246.112 50.7581 250.327C51.6291 253.829 54.5823 256.587 59.0806 258.092C61.6161 258.942 64.2948 259.37 67.0391 259.37C72.1638 259.37 77.2587 257.83 81.3812 255.024C85.8437 251.998 88.3374 247.836 88.2241 243.615C88.1644 241.546 87.5022 239.769 86.9235 238.199C86.8102 237.896 86.7028 237.599 86.5954 237.295C85.5156 234.156 84.7758 209.466 85.0801 186.494L85.1278 182.891Z" fill="#A88446"/>
<g opacity="0.11">
<path d="M85.0803 243.722C85.1698 247.159 82.6522 250.149 79.8004 252.087C75.4095 255.072 69.8791 256.314 64.6172 255.624C67.9939 255.202 71.2752 254.001 74.0851 252.087C76.9368 250.149 79.4544 247.159 79.3649 243.722C79.3112 241.903 78.5357 240.203 77.9391 238.485C76.4536 234.269 75.9644 206.095 76.2269 186.452H81.9422C81.6857 206.095 82.1689 234.269 83.6544 238.485C84.257 240.203 85.0266 241.909 85.0803 243.722Z" fill="#A88446"/>
</g>
<path d="M12.3677 186.334C11.1327 186.334 10.041 185.763 9.29521 184.722C8.94322 184.235 8.72845 183.735 8.65089 183.218C7.59493 183.165 6.64634 182.701 5.88867 181.875C5.1131 181.024 4.83271 180.186 4.76708 179.503C4.06907 179.348 3.43071 178.979 2.88782 178.42C2.03469 177.547 1.67077 176.435 1.82588 175.21C2.39861 170.674 10.8404 165.305 12.5287 164.277C14.0023 163.379 15.464 162.47 16.9256 161.566C18.9182 160.329 20.9765 159.057 23.0228 157.82C27.1035 155.359 30.4802 153.463 33.6421 151.852L33.8569 151.745C40.7654 148.231 47.9066 144.598 55.4058 142.732C58.0606 142.072 61.145 141.364 64.2175 141.364C66.8246 141.364 69.0379 141.864 70.9709 142.886C71.5496 143.189 72.3729 143.701 72.8979 144.598C74.8249 147.91 73.3692 152.41 71.2035 155.187C69.5212 157.339 67.1825 159.087 63.8416 160.68C59.2538 162.862 54.3976 164.527 49.6964 166.132C44.3987 167.939 38.922 169.812 33.9583 172.416C27.1333 175.989 21.6626 179.752 17.2358 183.92C16.2694 184.817 14.3603 186.334 12.3677 186.334Z" fill="#F4D3A2"/>
<path d="M64.2172 143.142C66.2873 143.142 68.3098 143.493 70.1294 144.456C70.6067 144.705 71.078 145.02 71.3464 145.484C72.8856 148.13 71.5016 151.887 69.7834 154.087C68.0533 156.304 65.6072 157.85 63.0657 159.063C53.389 163.67 42.6265 165.846 33.1168 170.828C26.966 174.051 21.0657 177.844 15.9947 182.612C15.2668 183.295 13.7336 184.544 12.3614 184.544C11.7648 184.544 11.1921 184.306 10.7387 183.676C9.50373 181.958 12.1705 180.085 12.612 179.621C11.9617 179.966 10.3867 181.435 8.85941 181.435C8.28668 181.435 7.71396 181.227 7.20685 180.668C5.14265 178.409 8.45373 176.571 8.89521 176.108C8.23896 176.459 6.89663 177.802 5.56623 177.802C5.08895 177.802 4.61168 177.63 4.1702 177.172C1.14548 174.063 10.5418 167.57 13.4591 165.787C16.9671 163.641 20.4333 161.453 23.9472 159.336C27.3776 157.268 30.8558 155.258 34.4532 153.433C41.2186 149.991 48.4552 146.293 55.841 144.45C58.4362 143.808 61.3714 143.142 64.2172 143.142ZM64.2172 139.575C60.9419 139.575 57.7262 140.306 54.97 140.996C47.268 142.916 39.7092 146.756 33.0393 150.151L32.8245 150.258C29.6268 151.887 26.2143 153.802 22.0918 156.293C20.0395 157.529 17.9753 158.807 15.9827 160.044C14.5211 160.948 13.0594 161.857 11.5918 162.755C8.33441 164.747 0.692071 169.925 0.0477518 174.99C-0.172987 176.744 0.375877 178.403 1.60486 179.663C2.09406 180.168 2.64293 180.567 3.23355 180.846C3.46622 181.554 3.87787 182.315 4.56395 183.07C5.32162 183.902 6.24634 184.479 7.26651 184.776C7.43952 185.15 7.6364 185.477 7.83924 185.757C8.931 187.279 10.5418 188.117 12.3674 188.117C14.8492 188.117 17.0506 186.536 18.4586 185.21C22.766 181.155 28.1114 177.487 34.7873 173.991C39.6316 171.453 44.8041 169.687 50.2748 167.814C55.0237 166.191 59.9277 164.515 64.6109 162.285C68.1666 160.591 70.7797 158.629 72.6112 156.281C75.2183 152.933 76.7993 147.749 74.4427 143.701C73.691 142.411 72.5814 141.715 71.8118 141.311C69.6462 140.157 67.0868 139.575 64.2172 139.575Z" fill="#A88446"/>
<g opacity="0.11">
<path d="M12.6233 179.627C12.5398 179.699 12.4622 179.764 12.3846 179.841C11.4003 180.751 9.69402 182.219 10.75 183.682C12.2415 185.751 14.9619 183.599 16.006 182.618C21.071 177.85 26.9713 174.051 33.1281 170.828C42.6319 165.852 53.4003 163.67 63.0711 159.063C65.6126 157.85 68.0646 156.304 69.7947 154.087C71.0237 152.511 72.0856 150.133 72.02 147.939C70.1288 149.812 67.7842 151.215 65.368 152.369C65.2904 152.404 65.2069 152.446 65.1293 152.482C59.7719 155.014 54.0805 157.149 48.4069 158.849C44.535 160.014 40.9017 162.024 37.3878 163.974C32.0841 166.916 26.8699 170.014 21.7511 173.26C20.5222 174.039 19.2991 174.823 18.0821 175.62C16.9963 176.334 16.0537 177.1 15.0395 177.903C14.24 178.498 13.375 178.997 12.6233 179.627Z" fill="#A88446"/>
</g>
<path d="M168.634 182.005C166.641 182.005 164.732 180.489 163.772 179.586C159.339 175.418 153.868 171.655 147.049 168.082C142.08 165.478 136.603 163.611 131.311 161.798C126.61 160.192 121.754 158.534 117.166 156.346C113.825 154.753 111.486 153.011 109.804 150.853C107.638 148.076 106.183 143.576 108.11 140.264C108.635 139.366 109.458 138.861 110.037 138.552C111.97 137.523 114.183 137.03 116.79 137.03C119.863 137.03 122.947 137.737 125.602 138.397C133.107 140.264 140.254 143.903 147.163 147.416L147.371 147.523C150.533 149.134 153.91 151.031 157.991 153.492C160.031 154.723 162.089 155.995 164.076 157.226C165.544 158.135 167.011 159.045 168.485 159.949C170.173 160.977 178.615 166.352 179.188 170.882C179.343 172.107 178.973 173.218 178.126 174.092C177.583 174.651 176.944 175.02 176.246 175.174C176.181 175.852 175.9 176.696 175.125 177.546C174.373 178.373 173.419 178.836 172.363 178.89C172.285 179.407 172.07 179.907 171.718 180.394C170.961 181.434 169.869 182.005 168.634 182.005Z" fill="#F4D3A2"/>
<path d="M116.783 138.82C119.629 138.82 122.564 139.485 125.16 140.133C132.539 141.97 139.776 145.674 146.547 149.117C150.145 150.948 153.623 152.951 157.053 155.02C160.561 157.137 164.028 159.324 167.542 161.471C170.459 163.254 179.861 169.74 176.83 172.856C176.389 173.307 175.912 173.486 175.434 173.486C174.104 173.486 172.762 172.142 172.105 171.791C172.547 172.255 175.858 174.086 173.794 176.351C173.287 176.91 172.72 177.118 172.141 177.118C170.614 177.118 169.033 175.65 168.389 175.305C168.83 175.769 171.497 177.647 170.262 179.36C169.809 179.99 169.242 180.228 168.639 180.228C167.267 180.228 165.734 178.979 165.006 178.295C159.941 173.527 154.041 169.734 147.884 166.512C138.38 161.536 127.612 159.354 117.935 154.747C115.393 153.534 112.941 151.988 111.217 149.771C109.499 147.571 108.115 143.813 109.654 141.168C109.923 140.704 110.394 140.389 110.871 140.139C112.685 139.17 114.713 138.82 116.783 138.82ZM116.783 135.252C113.914 135.252 111.36 135.835 109.189 136.988C108.419 137.399 107.31 138.088 106.558 139.378C104.201 143.427 105.782 148.611 108.389 151.958C110.221 154.307 112.84 156.275 116.39 157.963C121.073 160.192 125.977 161.869 130.726 163.492C136.197 165.365 141.369 167.13 146.213 169.663C152.889 173.159 158.235 176.827 162.542 180.882C163.95 182.207 166.151 183.789 168.633 183.789C170.459 183.789 172.07 182.951 173.161 181.429C173.358 181.155 173.561 180.822 173.734 180.448C174.754 180.15 175.679 179.568 176.437 178.741C177.123 177.986 177.534 177.225 177.767 176.518C178.358 176.232 178.907 175.834 179.396 175.335C180.619 174.074 181.174 172.416 180.953 170.662C180.315 165.597 172.666 160.418 169.409 158.427C167.941 157.529 166.48 156.625 165.018 155.716C163.019 154.479 160.961 153.201 158.909 151.964C154.786 149.479 151.374 147.559 148.176 145.93L147.961 145.823C141.291 142.428 133.733 138.588 126.031 136.667C123.274 135.984 120.059 135.252 116.783 135.252Z" fill="#A88446"/>
<g opacity="0.11">
<path d="M168.376 175.305C168.46 175.376 168.537 175.442 168.615 175.519C169.599 176.429 171.305 177.897 170.249 179.36C168.758 181.428 166.037 179.276 164.993 178.295C159.928 173.527 154.028 169.728 147.871 166.506C138.368 161.53 127.599 159.348 117.928 154.741C115.387 153.528 112.935 151.982 111.205 149.764C109.976 148.189 108.914 145.811 108.979 143.617C110.871 145.49 113.215 146.893 115.631 148.046C115.709 148.082 115.793 148.124 115.87 148.159C121.227 150.692 126.919 152.826 132.593 154.527C136.464 155.692 140.098 157.701 143.612 159.651C148.915 162.594 154.13 165.692 159.248 168.938C160.477 169.716 161.7 170.501 162.917 171.298C164.003 172.011 164.946 172.778 165.96 173.581C166.759 174.169 167.624 174.669 168.376 175.305Z" fill="#A88446"/>
</g>
<path d="M23.3025 215.405C21.3576 215.405 19.6096 214.448 18.6253 212.849C17.7005 211.351 17.6289 209.52 18.4284 207.956L55.4469 135.788C56.3299 134.058 58.1375 132.946 60.154 132.892L113.823 131.376L114.348 131.358L119.181 131.222H119.342C120.189 131.222 121.03 131.412 121.776 131.775C121.991 131.882 122.182 131.989 122.367 132.108C122.486 132.185 122.575 132.25 122.665 132.316C122.802 132.417 122.945 132.536 123.077 132.649C123.077 132.649 123.214 132.779 123.244 132.809C123.363 132.928 123.476 133.053 123.578 133.178C123.643 133.255 123.727 133.35 123.81 133.475C123.918 133.624 124.019 133.778 124.109 133.939L152.393 183.664C155.609 189.318 158.818 194.972 162.04 200.626L165.273 206.321L165.279 206.327L166.091 207.76C166.401 208.301 166.604 208.889 166.699 209.496C166.914 210.929 166.479 212.397 165.506 213.527C164.48 214.716 162.953 215.399 161.33 215.399H23.3025V215.405Z" fill="#E76B6B"/>
<path d="M119.342 133.005C119.927 133.005 120.494 133.136 121.001 133.38C121.144 133.451 121.281 133.529 121.412 133.612C121.478 133.653 121.544 133.701 121.609 133.754C121.705 133.826 121.8 133.903 121.884 133.98C121.908 134.004 121.937 134.028 121.961 134.058C122.051 134.141 122.134 134.23 122.206 134.331C122.254 134.385 122.295 134.438 122.331 134.492C122.409 134.593 122.474 134.7 122.54 134.807L148.349 180.186C152.387 187.291 156.426 194.401 160.471 201.512C160.483 201.535 160.495 201.559 160.513 201.583L163.824 207.403C163.83 207.409 163.83 207.415 163.836 207.421L164.254 208.158L164.528 208.64C164.737 209.008 164.868 209.383 164.922 209.763C165.214 211.713 163.615 213.622 161.318 213.622H23.3029C20.6302 213.622 18.8762 211.018 20.0276 208.765L57.0402 136.602C57.6248 135.461 58.8479 134.712 60.2021 134.682L77.9209 134.182L104.362 133.433C104.368 133.433 108.323 133.32 112.153 133.213L112.744 133.196C113.12 133.184 113.502 133.172 113.872 133.166L114.408 133.148C117.075 133.071 119.235 133.011 119.235 133.011C119.271 133.005 119.306 133.005 119.342 133.005ZM119.342 129.438C119.271 129.438 119.199 129.438 119.133 129.444L114.307 129.581L113.77 129.599C113.37 129.611 112.995 129.617 112.619 129.628L112.046 129.646C108.973 129.73 105.812 129.819 104.69 129.854L104.314 129.866H104.26L77.8195 130.615L60.1007 131.115C57.4339 131.186 55.0356 132.666 53.8544 134.985L16.8418 207.142C15.756 209.27 15.8515 211.749 17.1043 213.782C18.4168 215.917 20.7316 217.189 23.3029 217.189H161.33C163.478 217.189 165.495 216.279 166.867 214.692C168.185 213.17 168.77 211.178 168.472 209.228C168.346 208.402 168.072 207.605 167.642 206.862L167.38 206.398L166.962 205.655L166.724 205.233L166.718 205.227L163.639 199.817V199.811C163.621 199.781 163.609 199.758 163.591 199.728C160.632 194.526 157.673 189.318 154.714 184.116L151.475 178.42L125.666 133.041C125.559 132.851 125.433 132.655 125.29 132.452C125.195 132.31 125.081 132.167 124.962 132.03C124.825 131.864 124.682 131.709 124.533 131.555C124.485 131.507 124.437 131.46 124.401 131.424L124.36 131.382L124.288 131.317C124.163 131.204 123.966 131.032 123.721 130.859C123.62 130.788 123.512 130.705 123.405 130.633L123.369 130.609L123.333 130.586C123.101 130.437 122.856 130.3 122.606 130.175L122.582 130.164L122.558 130.152C121.568 129.694 120.458 129.438 119.342 129.438Z" fill="#AE5151"/>
<path opacity="0.05" d="M161.33 213.622H110.542C118.297 207.124 124.979 199.074 126.745 189.151C128.064 181.744 126.316 174.366 123.339 167.57C122.742 166.209 115.929 153.023 115.219 153.54C109.814 157.464 102.846 158.462 96.1698 158.825C91.9638 159.057 87.6803 159.075 83.6235 157.945C76.9178 156.078 70.4865 150.11 70.7729 142.767C70.9399 138.445 73.0936 137.321 76.4286 135.128C76.9238 134.801 77.4249 134.486 77.926 134.176L104.367 133.427C104.373 133.427 108.328 133.314 112.158 133.207L112.749 133.19C113.125 133.178 113.507 133.166 113.877 133.16L114.414 133.142C117.08 133.065 119.24 133.005 119.24 133.005C119.866 132.987 120.469 133.118 121.006 133.38C121.149 133.451 121.286 133.528 121.418 133.612C121.483 133.653 121.549 133.701 121.614 133.754C121.71 133.826 121.805 133.903 121.889 133.98C121.913 134.004 121.943 134.028 121.966 134.058C122.056 134.141 122.139 134.23 122.211 134.331C122.259 134.385 122.301 134.438 122.336 134.492C122.414 134.593 122.48 134.7 122.545 134.807C123.064 135.716 123.577 136.62 124.096 137.53C132.18 151.75 140.264 165.971 148.354 180.186C152.393 187.291 156.432 194.401 160.476 201.511C160.488 201.535 160.5 201.559 160.518 201.583C161.616 203.515 162.642 205.518 163.829 207.403C163.835 207.409 163.835 207.415 163.841 207.421L164.259 208.158C164.533 208.681 164.754 209.222 164.927 209.763C165.225 211.713 163.626 213.622 161.33 213.622Z" fill="#2D2D2D"/>
<path d="M73.9482 202.469C72.045 202.469 70.4939 200.923 70.4939 199.026V165.769C70.4939 163.873 72.045 162.327 73.9482 162.327H109.958C111.862 162.327 113.413 163.873 113.413 165.769V199.026C113.413 200.923 111.862 202.469 109.958 202.469H73.9482Z" fill="#F2BB0A"/>
<path d="M109.958 164.116C110.877 164.116 111.623 164.86 111.623 165.775V199.032C111.623 199.948 110.877 200.691 109.958 200.691H73.9479C73.0291 200.691 72.2834 199.948 72.2834 199.032V165.775C72.2834 164.86 73.0291 164.116 73.9479 164.116H109.958ZM109.958 160.549H73.9479C71.0604 160.549 68.7039 162.892 68.7039 165.775V199.032C68.7039 201.91 71.0544 204.258 73.9479 204.258H109.958C112.846 204.258 115.202 201.916 115.202 199.032V165.775C115.196 162.892 112.846 160.549 109.958 160.549Z" fill="#C17E08"/>
<g opacity="0.09">
<path d="M111.616 165.341V199.472C111.616 200.144 111.074 200.691 110.393 200.691H73.5062C72.8321 200.691 72.2832 200.15 72.2832 199.472V194.11C74.2699 194.549 76.34 194.787 78.4699 194.787C93.6472 194.787 105.949 182.826 105.949 168.064C105.949 166.726 105.847 165.406 105.651 164.122H110.399C111.074 164.116 111.616 164.663 111.616 165.341Z" fill="#C17E08"/>
</g>
<path opacity="0.18" d="M37.9611 184.395C37.5733 185.341 37.2094 186.286 36.8753 187.249C36.4219 188.551 36.1892 190.073 37.0722 191.256C38.6233 193.343 41.4512 192.308 42.9367 190.739C44.7503 188.819 45.9733 186.429 47.1964 184.116C49.2844 180.15 51.6469 175.971 52.7685 171.607C53.3234 169.449 53.8364 165.288 50.7759 164.705C47.4171 164.069 45.341 169.087 44.2015 171.411C42.0955 175.698 39.7807 179.96 37.9611 184.395Z" fill="white"/>
<path opacity="0.18" d="M31.0585 206.41C31.3389 206.606 31.6611 206.749 32.0071 206.809C35.4614 207.415 37.5673 203.563 37.8477 200.697C38.0327 198.836 37.7881 196.345 35.5449 195.923C33.2958 195.501 31.5835 197.225 30.6529 199.074C29.7818 200.81 29.227 202.605 29.7818 204.549C29.9906 205.281 30.4381 205.982 31.0585 206.41Z" fill="white"/>
<path opacity="0.12" d="M75.7307 168.403C76.1006 168.052 76.548 167.773 77.1446 167.511C78.5287 166.905 80.0023 166.506 81.4997 166.34C82.4364 166.233 83.4029 166.221 84.2978 166.53C84.954 166.756 85.5983 167.226 85.7117 167.909C85.8191 168.563 85.4015 169.188 84.9242 169.645C83.8682 170.656 82.4722 171.191 81.3506 172.113C80.1634 173.088 79.6324 174.984 79.1253 176.393C78.6719 177.659 77.431 180.555 75.5398 179.788C74.7583 179.473 74.5137 178.504 74.4182 177.665C74.096 174.954 73.5531 170.496 75.7307 168.403Z" fill="white"/>
<path opacity="0.12" d="M74.3358 184.389C74.4074 183.878 74.5267 183.397 74.7236 182.975C75.3261 181.655 76.8892 181.435 77.6409 182.778C77.9392 183.307 77.9929 183.932 78.0227 184.532C78.0884 185.864 78.4225 191.5 76.0958 191.393C74.1986 191.316 74.1628 185.674 74.3358 184.389Z" fill="white"/>
<path d="M79.0782 4.38757C80.1162 2.56835 81.9836 1.48633 84.0836 1.48633C85.9628 1.48633 87.6631 2.36027 88.7549 3.88223L126.042 55.7419L48.5088 57.9773L79.0782 4.38757Z" fill="#5B82BE"/>
<path d="M84.0832 2.97258C85.3838 2.97258 86.6904 3.55521 87.5435 4.74424L123.196 54.3329L51.1096 56.4137L80.3665 5.12473C81.1838 3.69789 82.6335 2.97258 84.0832 2.97258ZM84.0832 0C81.4821 0 79.0659 1.39711 77.7773 3.65033L48.5204 54.9452L45.9014 59.5409L51.1991 59.3863L123.285 57.3055L128.887 57.145L125.624 52.6028L89.9716 3.0142C88.5935 1.09986 86.4457 0 84.0832 0Z" fill="#415F8B"/>
<g opacity="0.17">
<path d="M86.124 55.4565C88.5163 48.0309 89.7334 39.7434 89.4769 31.0278C89.1666 20.4394 86.7266 10.5942 82.7413 2.25911C84.4178 1.71215 86.3686 2.22938 87.52 3.85836L123.202 54.3863L86.124 55.4565Z" fill="#415F8B"/>
</g>
<path d="M90.1932 129.331C88.7852 129.331 87.425 128.826 86.363 127.898L15.2791 66.0865C13.4595 64.5051 12.8092 62.02 13.6266 59.7549C14.4439 57.4898 16.526 55.9797 18.9422 55.9083L150.604 52.1094H150.783C153.122 52.1094 155.162 53.4411 156.105 55.5873C157.047 57.7276 156.648 60.1294 155.055 61.8476L94.4827 127.452C93.3849 128.647 91.8218 129.331 90.1932 129.331Z" fill="#5B82BE"/>
<path d="M150.783 53.5956C154.529 53.5956 156.528 58.0604 153.962 60.8428L93.3846 126.448C92.5314 127.369 91.3621 127.845 90.1928 127.845C89.1786 127.845 88.1644 127.494 87.347 126.781L16.2572 64.9628C13.2861 62.3766 15.0401 57.5016 18.9836 57.3886L150.645 53.5897C150.693 53.5956 150.741 53.5956 150.783 53.5956ZM150.783 50.623C150.711 50.623 150.633 50.623 150.562 50.629L18.8941 54.422C15.8634 54.5112 13.2384 56.4018 12.2182 59.2495C11.1921 62.0972 12.0094 65.2184 14.2944 67.2041L85.3783 129.016C86.7087 130.175 88.4209 130.811 90.1868 130.811C92.2272 130.811 94.1899 129.955 95.574 128.457L156.152 62.8463C158.151 60.6823 158.652 57.6681 157.47 54.9809C156.289 52.2936 153.724 50.623 150.783 50.623Z" fill="#415F8B"/>
<g opacity="0.36">
<path d="M136.411 91.942C129.252 74.38 109.368 62.0853 86.3391 62.7453C67.0155 63.3041 50.4422 72.8342 41.9825 86.4903C48.3482 69.4514 65.9715 56.9131 87.061 56.3066C111.426 55.6051 132.092 71.0625 136.411 91.942Z" fill="#415F8B"/>
</g>
<path d="M87.621 153.041C71.2744 153.041 55.8405 146.132 46.3428 134.563C38.1277 124.557 35.0076 112.12 37.561 99.54C40.2874 86.0861 49.4093 74.1007 61.9675 67.4777C69.8008 63.3518 78.8332 61.1699 88.0923 61.1699C89.5957 61.1699 91.123 61.2294 92.6204 61.3423C104.427 62.2579 115.518 66.7346 123.852 73.958C132.813 81.7283 138.427 92.5842 139.25 103.737C139.298 104.373 139.328 105.016 139.345 105.646C139.65 117.952 134.119 130.526 124.55 139.289C115.184 147.862 101.969 152.874 88.2951 153.035C88.0684 153.035 87.8417 153.041 87.621 153.041Z" fill="#F4D3A2"/>
<path d="M88.0863 62.6562C89.5599 62.6562 91.0335 62.7156 92.5011 62.8286C103.574 63.6847 114.486 67.8166 122.868 75.0816C131.25 82.3466 136.941 92.8101 137.759 103.85C137.806 104.463 137.836 105.075 137.848 105.681C138.152 117.851 132.55 129.938 123.536 138.195C114.068 146.864 101.128 151.4 88.2713 151.548C88.0565 151.548 87.8358 151.554 87.621 151.554C72.4676 151.554 57.0934 145.306 47.5002 133.624C29.7337 111.983 38.8436 81.3537 62.6656 68.7916C70.4511 64.6894 79.2747 62.6562 88.0863 62.6562ZM88.0923 59.6836C78.5886 59.6836 69.3176 61.9249 61.2695 66.1638C54.7905 69.5823 49.0633 74.4454 44.7022 80.242C40.4425 85.9077 37.4655 92.4771 36.0934 99.2427C33.4564 112.269 36.684 125.146 45.1854 135.502C54.9636 147.41 70.8269 154.521 87.615 154.521C87.8417 154.521 88.0744 154.521 88.3011 154.515C102.339 154.348 115.917 149.194 125.546 140.377C135.432 131.329 141.141 118.327 140.825 105.598C140.807 104.938 140.777 104.272 140.73 103.618C139.876 92.0729 134.078 80.8484 124.818 72.8224C116.251 65.391 104.851 60.7835 92.7278 59.8441C91.1946 59.743 89.6315 59.6836 88.0923 59.6836Z" fill="#A88446"/>
<g opacity="0.11">
<path d="M95.6754 63.2981C118.793 62.6322 138.105 81.8054 138.809 106.121C139.513 130.437 121.347 150.686 98.2288 151.358C96.7553 151.4 95.2996 151.358 93.8618 151.251C114.862 148.35 130.749 129.141 130.087 106.377C129.425 83.6127 112.452 65.3492 91.3203 63.6667C92.7521 63.4645 94.2018 63.3397 95.6754 63.2981Z" fill="#A88446"/>
</g>
<path d="M87.5663 118.622C87.8956 118.613 88.1518 118.232 88.1385 117.773C88.1251 117.313 87.8473 116.949 87.518 116.958C87.1886 116.968 86.9324 117.348 86.9458 117.807C86.9591 118.267 87.2369 118.632 87.5663 118.622Z" fill="#93733D"/>
<path d="M91.1397 118.521C91.4691 118.512 91.7253 118.132 91.712 117.672C91.6986 117.213 91.4208 116.848 91.0915 116.857C90.7621 116.867 90.5059 117.247 90.5193 117.706C90.5326 118.166 90.8104 118.531 91.1397 118.521Z" fill="#93733D"/>
<path d="M84.5497 117.257C84.0366 115.984 84.3587 114.474 85.2715 113.303C86.1903 112.126 87.6997 111.389 89.2389 111.329C90.7781 111.258 92.3531 111.882 93.3553 112.994C93.8565 113.541 94.2383 114.225 94.3875 114.938C94.5306 115.651 94.465 116.371 94.1488 116.983C93.2539 115.931 92.4426 115.497 91.6431 115.223C90.8437 114.95 90.1099 114.879 89.3761 114.896C87.9144 114.98 86.4588 115.354 84.5497 117.257Z" fill="#93733D"/>
<g opacity="0.19">
<path fill-rule="evenodd" clip-rule="evenodd" d="M48.5748 108.238C48.4137 102.459 49.3623 96.3474 46.8626 96.9538C44.3629 97.5602 42.4717 104.32 42.6327 110.099C42.7938 115.877 46.3018 123.844 48.6106 122.756C51.0089 121.626 48.7359 114.016 48.5748 108.238Z" fill="white"/>
</g>
<g opacity="0.36">
<path d="M118.424 134.26C122.806 134.26 126.359 130.72 126.359 126.353C126.359 121.986 122.806 118.446 118.424 118.446C114.042 118.446 110.489 121.986 110.489 126.353C110.489 130.72 114.042 134.26 118.424 134.26Z" fill="url(#paint0_radial_229_13768)"/>
</g>
<g opacity="0.36">
<path d="M68.5548 143.647C72.937 143.647 76.4895 140.107 76.4895 135.74C76.4895 131.373 72.937 127.833 68.5548 127.833C64.1726 127.833 60.6201 131.373 60.6201 135.74C60.6201 140.107 64.1726 143.647 68.5548 143.647Z" fill="url(#paint1_radial_229_13768)"/>
</g>
<path opacity="0.07" d="M22.6582 59.1663C21.6559 59.1961 20.6298 59.2971 19.6872 59.6301C18.0525 60.2008 17.4977 62.0973 17.9869 63.6371C18.5596 65.4504 20.3554 66.8772 21.8528 67.9117C22.2585 68.1911 22.6821 68.4646 23.1593 68.5716C23.6724 68.6905 24.2093 68.6132 24.7105 68.4705C25.5159 68.2446 26.2676 67.8701 27.0133 67.5015C29.5429 66.2649 32.1381 65.1591 34.781 64.1781C36.0994 63.6906 37.7281 63.6312 38.5216 62.2816C38.9332 61.5741 38.9332 60.5991 38.3963 59.9808C38.1517 59.6955 37.8176 59.4993 37.4656 59.3566C35.998 58.7561 34.1963 59.0415 32.6511 59.0593C30.9449 59.0772 29.2326 59.095 27.5264 59.1128C26.0946 59.1247 24.6568 59.1426 23.225 59.1545C23.0341 59.1545 22.8491 59.1604 22.6582 59.1663Z" fill="white"/>
<path opacity="0.07" d="M64.7899 38.8457C64.3544 39.7375 63.9367 40.6352 63.549 41.5448C63.024 42.7814 62.7018 44.244 63.4833 45.4508C64.8555 47.5732 67.6654 46.7528 69.2106 45.326C71.0958 43.5781 72.4441 41.3368 73.7745 39.1668C76.0595 35.4511 78.6248 31.5451 79.997 27.3716C80.6771 25.3086 81.4467 21.3016 78.5115 20.5406C75.2899 19.7083 72.9453 24.4465 71.6924 26.6284C69.3777 30.6652 66.8481 34.6603 64.7899 38.8457Z" fill="white"/>
<path opacity="0.07" d="M43.4918 62.6738C46.2242 63.1078 53.3058 63.203 52.739 60.1234C52.6436 59.618 52.0589 59.3862 51.5578 59.2613C49.7799 58.8273 47.9484 58.6311 46.1228 58.6906C44.87 58.7322 43.5933 58.8927 42.4836 59.4634C41.7498 59.838 41.0398 60.593 41.2725 61.3837C41.4515 61.9842 42.0958 62.2993 42.6924 62.4955C42.8654 62.5609 43.1458 62.6203 43.4918 62.6738Z" fill="white"/>
<path d="M89.4585 139.646C84.9542 139.646 81.0406 137.208 79.2568 133.291C79.0599 132.863 78.8809 132.429 78.8093 131.923C78.7735 131.65 78.6602 130.829 79.1911 130.229C79.4835 129.896 79.907 129.712 80.3724 129.712C80.8139 129.712 81.2195 129.872 81.5835 130.009C81.6909 130.051 81.7982 130.092 81.9056 130.128C82.5977 130.354 83.3732 130.538 84.2801 130.693C85.8431 130.966 87.5494 131.103 89.3511 131.103C89.721 131.103 90.0849 131.097 90.4548 131.085C93.6108 130.996 96.546 130.508 98.7056 129.718C98.8369 129.67 98.9801 129.646 99.1173 129.646C99.3261 129.646 99.5289 129.7 99.7139 129.807C100.018 129.979 100.233 130.282 100.293 130.627C100.43 131.394 100.149 134.188 97.1605 136.882C95.3051 138.558 92.6383 139.563 89.8284 139.64C89.7031 139.64 89.5778 139.646 89.4585 139.646Z" fill="#BF5858"/>
<path d="M99.1118 130.829C99.1357 130.966 99.2192 133.409 96.3555 135.996C94.7507 137.446 92.3643 138.374 89.7871 138.451C89.6737 138.457 89.5663 138.457 89.4589 138.457C85.4976 138.457 81.9777 136.394 80.337 132.797C80.1879 132.464 80.0328 132.125 79.9851 131.763C79.8956 131.097 80.0745 130.895 80.3669 130.895C80.6831 130.895 81.1305 131.121 81.5302 131.251C82.3595 131.519 83.2067 131.709 84.0657 131.858C85.8078 132.161 87.5797 132.286 89.3456 132.286C89.7214 132.286 90.1033 132.28 90.4791 132.268C93.8737 132.173 96.9283 131.626 99.1118 130.829ZM99.1118 128.451C98.8314 128.451 98.557 128.499 98.2885 128.6C96.272 129.337 93.4024 129.807 90.4135 129.896C90.0615 129.908 89.7035 129.914 89.3515 129.914C87.6155 129.914 85.9748 129.783 84.4834 129.521C83.6362 129.373 82.9143 129.2 82.276 128.992C82.1924 128.962 82.103 128.927 82.0135 128.897C81.6018 128.737 81.0351 128.517 80.3728 128.517C79.5555 128.517 78.8157 128.844 78.2907 129.438C77.7061 130.104 77.4794 130.99 77.6285 132.072C77.724 132.797 77.9924 133.386 78.1714 133.778C80.1581 138.13 84.4834 140.835 89.4649 140.835C89.5962 140.835 89.7334 140.835 89.8646 140.829C92.949 140.74 95.9021 139.622 97.9663 137.761C101.367 134.688 101.647 131.418 101.468 130.413C101.343 129.723 100.919 129.117 100.305 128.766C99.9351 128.558 99.5234 128.451 99.1118 128.451Z" fill="#A88446"/>
<path d="M96.3551 135.942C96.3551 135.96 96.3551 135.978 96.3551 135.996C94.6727 137.357 92.3639 138.374 89.7866 138.451C87.2093 138.522 84.8409 137.643 83.0869 136.382C83.0809 136.364 83.0809 136.346 83.0809 136.329C83.0272 134.396 86.0161 135.068 89.6852 134.961C93.3483 134.848 96.3014 134.01 96.3551 135.942Z" fill="#E87272"/>
<path d="M67.0753 117.393C61.4136 117.393 56.8497 112.994 56.6827 107.376C56.5096 101.597 60.9185 96.918 66.7293 96.7159C66.8545 96.71 66.9858 96.71 67.1111 96.71C72.8205 96.71 77.4202 101.115 77.5872 106.739C77.6648 109.534 76.6744 112.161 74.7892 114.147C72.8742 116.163 70.2372 117.31 67.3676 117.381C67.2662 117.387 67.1707 117.393 67.0753 117.393Z" fill="#FEFEFE"/>
<path d="M67.1106 97.8991C72.1697 97.8991 76.2504 101.763 76.3936 106.775C76.5427 111.936 72.5754 116.062 67.3313 116.198C67.2478 116.198 67.1583 116.204 67.0748 116.204C62.0455 116.204 58.0245 112.358 57.8694 107.34C57.7143 102.251 61.6458 98.0834 66.7646 97.905C66.8839 97.8991 66.9973 97.8991 67.1106 97.8991ZM67.1166 95.521C66.9734 95.521 66.8362 95.521 66.693 95.5269C60.22 95.7469 55.2981 100.967 55.495 107.411C55.6859 113.672 60.7748 118.582 67.0808 118.582C67.1882 118.582 67.2956 118.582 67.397 118.576C70.5887 118.493 73.524 117.215 75.6538 114.968C77.7598 112.75 78.8694 109.819 78.7799 106.71C78.601 100.438 73.4762 95.521 67.1166 95.521Z" fill="#93733D"/>
<path d="M110.56 116.133C104.857 116.133 100.251 111.728 100.084 106.109C100 103.369 101.009 100.753 102.912 98.7493C104.863 96.6982 107.511 95.527 110.375 95.4556C110.465 95.4556 110.554 95.4497 110.638 95.4497C116.317 95.4497 120.917 99.8551 121.114 105.485C121.209 108.208 120.213 110.812 118.316 112.816C116.359 114.884 113.692 116.062 110.817 116.127C110.727 116.133 110.644 116.133 110.56 116.133Z" fill="#FEFEFE"/>
<path d="M110.638 96.6447C115.619 96.6447 119.748 100.574 119.921 105.533C120.094 110.586 115.983 114.819 110.787 114.944C110.709 114.944 110.632 114.944 110.56 114.944C105.555 114.944 101.426 111.026 101.277 106.074C101.128 100.997 105.215 96.7755 110.405 96.6447C110.482 96.6447 110.56 96.6447 110.638 96.6447ZM110.638 94.2666C110.542 94.2666 110.441 94.2666 110.345 94.2726C107.165 94.3498 104.218 95.6518 102.047 97.9348C99.9228 100.17 98.8012 103.089 98.8907 106.145C99.0757 112.411 104.2 117.322 110.554 117.322C110.65 117.322 110.745 117.322 110.84 117.316C114.038 117.239 116.997 115.931 119.175 113.63C121.293 111.395 122.402 108.487 122.301 105.444C122.092 99.1773 116.967 94.2666 110.638 94.2666Z" fill="#93733D"/>
<path d="M108.574 111.31C104.511 111.453 101.116 108.349 101.003 104.372C100.89 100.466 104.028 97.1664 108.007 97.0059C112.052 96.8454 115.446 99.9666 115.56 103.956C115.667 107.892 112.559 111.167 108.574 111.31Z" fill="#2E3537"/>
<path d="M110.053 99.5266C111.223 99.5207 112.285 100.496 112.326 101.619C112.374 102.802 111.312 103.861 110.071 103.873C108.902 103.884 107.828 102.909 107.804 101.804C107.78 100.585 108.818 99.5326 110.053 99.5266Z" fill="#959899"/>
<path d="M65.5737 112.31C61.5109 112.453 58.1163 109.349 58.003 105.372C57.8896 101.466 61.0277 98.1664 65.007 98.0059C69.0519 97.8454 72.4465 100.967 72.5598 104.956C72.6672 108.897 69.559 112.173 65.5737 112.31Z" fill="#2E3537"/>
<path d="M67.0523 100.533C68.2216 100.527 69.2835 101.502 69.3253 102.625C69.373 103.809 68.3111 104.867 67.0702 104.879C65.9009 104.891 64.827 103.916 64.8031 102.81C64.7793 101.591 65.8173 100.539 67.0523 100.533Z" fill="#959899"/>
<path d="M52.7745 89.5937C53.2995 87.5426 54.5046 85.7234 56.7359 84.8078C59.2356 83.7853 61.7294 83.8507 64.0203 85.4083C64.599 85.8007 65.1717 86.3774 65.0405 87.2037C64.9152 87.9944 64.2112 88.2204 63.5669 88.4166C60.7211 89.2905 58.0007 90.4379 55.3578 91.7934C54.7671 92.0966 54.0274 92.6079 53.3353 91.9658C52.7149 91.3891 52.6373 90.6163 52.7745 89.5937Z" fill="#93733D"/>
<path d="M120.5 88.1667C120.637 89.0347 120.84 89.986 119.993 90.5745C119.241 91.0977 118.507 90.5329 117.815 90.2119C115.375 89.0823 112.983 87.8754 110.34 87.2215C109.505 87.0134 108.329 86.7756 108.282 85.6519C108.24 84.558 109.224 83.9932 110.101 83.5355C114.283 81.3536 119.832 83.8327 120.5 88.1667Z" fill="#93733D"/>
<path d="M78.3623 130.681C78.3623 130.681 88.0032 137.964 100.705 130.485" stroke="#A88446" stroke-width="4" stroke-miterlimit="10" stroke-linecap="round" stroke-linejoin="round"/>
</g>
<defs>
<radialGradient id="paint0_radial_229_13768" cx="0" cy="0" r="1" gradientUnits="userSpaceOnUse" gradientTransform="translate(118.421 126.362) rotate(-1.65029) scale(7.9364 7.90884)">
<stop stop-color="#FF6554"/>
<stop offset="0.168" stop-color="#FF675B" stop-opacity="0.832"/>
<stop offset="0.4115" stop-color="#FF6E6E" stop-opacity="0.5885"/>
<stop offset="0.7011" stop-color="#FF7A8E" stop-opacity="0.2989"/>
<stop offset="1" stop-color="#FF88B6" stop-opacity="0"/>
</radialGradient>
<radialGradient id="paint1_radial_229_13768" cx="0" cy="0" r="1" gradientUnits="userSpaceOnUse" gradientTransform="translate(68.5658 135.735) rotate(-17.7066) scale(7.93356 7.91108)">
<stop stop-color="#FF6554"/>
<stop offset="0.168" stop-color="#FF675B" stop-opacity="0.832"/>
<stop offset="0.4115" stop-color="#FF6E6E" stop-opacity="0.5885"/>
<stop offset="0.7011" stop-color="#FF7A8E" stop-opacity="0.2989"/>
<stop offset="1" stop-color="#FF88B6" stop-opacity="0"/>
</radialGradient>
<clipPath id="clip0_229_13768">
<rect width="181" height="260" fill="white"/>
</clipPath>
</defs>
</svg>
