<svg width="32" height="32" viewBox="0 0 32 32" fill="none" xmlns="http://www.w3.org/2000/svg">
<path d="M32 16C32 7.16344 24.8366 0 16 0C7.16344 0 0 7.16344 0 16C0 24.8366 7.16344 32 16 32C24.8366 32 32 24.8366 32 16Z" fill="url(#paint0_linear_106_5470)"/>
<path opacity="0.1" d="M28.0421 5.47368C25.7095 9.75579 22.4105 14.1726 18.2884 18.2947C14.1663 22.4168 9.74948 25.7095 5.47369 28.0421C5.20562 27.8091 4.94527 27.5663 4.69264 27.3137C3.1656 25.8376 1.94771 24.0723 1.10998 22.1207C0.272245 20.1691 -0.168558 18.0702 -0.186731 15.9465C-0.204904 13.8227 0.199917 11.7166 1.00413 9.75097C1.80834 7.7853 2.99584 5.99942 4.4974 4.49744C5.99895 2.99547 7.78451 1.80746 9.74995 1.00271C11.7154 0.197947 13.8214 -0.207462 15.9451 -0.189881C18.0689 -0.172301 20.1679 0.267916 22.1197 1.1051C24.0716 1.94229 25.8372 3.15969 27.3137 4.68631C27.5663 4.93894 27.8091 5.2014 28.0421 5.47368Z" fill="white"/>
<path d="M19.7895 7.57886H12.2106C10.9822 7.57886 9.80413 8.06683 8.93554 8.93542C8.06695 9.804 7.57898 10.9821 7.57898 12.2104V19.7894C7.57898 21.0178 8.06695 22.1958 8.93554 23.0644C9.80413 23.933 10.9822 24.421 12.2106 24.421H19.7895C21.0179 24.421 22.1959 23.933 23.0645 23.0644C23.9331 22.1958 24.4211 21.0178 24.4211 19.7894V12.2104C24.4211 10.9821 23.9331 9.804 23.0645 8.93542C22.1959 8.06683 21.0179 7.57886 19.7895 7.57886ZM22.9474 19.1241C22.9474 20.1381 22.5446 21.1105 21.8276 21.8275C21.1106 22.5445 20.1382 22.9473 19.1242 22.9473H12.8758C11.8619 22.9473 10.8894 22.5445 10.1724 21.8275C9.45546 21.1105 9.05266 20.1381 9.05266 19.1241V12.8757C9.05266 11.8617 9.45546 10.8893 10.1724 10.1723C10.8894 9.45534 11.8619 9.05254 12.8758 9.05254H19.1242C20.1382 9.05254 21.1106 9.45534 21.8276 10.1723C22.5446 10.8893 22.9474 11.8617 22.9474 12.8757V19.1241Z" fill="white"/>
<path d="M19.0716 12.9599L19.0316 12.9199L18.9979 12.8862C18.2019 12.093 17.1238 11.6478 16 11.6483C15.4325 11.6522 14.8713 11.7678 14.3485 11.9886C13.8258 12.2094 13.3516 12.5311 12.9531 12.9352C12.5547 13.3393 12.2398 13.818 12.0264 14.3438C11.813 14.8697 11.7053 15.4324 11.7095 15.9999C11.7086 17.1516 12.1626 18.257 12.9726 19.0757C13.3694 19.4773 13.8422 19.7958 14.3634 20.0127C14.8847 20.2296 15.4439 20.3405 16.0084 20.3389C16.8552 20.3211 17.6786 20.0573 18.378 19.5796C19.0775 19.102 19.6229 18.4311 19.9476 17.6488C20.2724 16.8666 20.3624 16.0067 20.2069 15.1741C20.0513 14.3415 19.6569 13.5722 19.0716 12.9599ZM16 18.8546C15.4337 18.8626 14.8779 18.7019 14.4032 18.3931C13.9285 18.0843 13.5564 17.6413 13.3342 17.1204C13.112 16.5995 13.0497 16.0243 13.1553 15.4679C13.2609 14.9115 13.5296 14.3991 13.9272 13.9959C14.3248 13.5926 14.8334 13.3167 15.3882 13.2033C15.943 13.0899 16.519 13.144 17.043 13.3589C17.567 13.5737 18.0152 13.9395 18.3307 14.4098C18.6462 14.8801 18.8147 15.4336 18.8147 15.9999C18.8175 16.3722 18.7469 16.7414 18.6069 17.0864C18.4669 17.4314 18.2603 17.7454 17.9989 18.0106C17.7375 18.2757 17.4264 18.4867 17.0835 18.6315C16.7405 18.7763 16.3723 18.8522 16 18.8546ZM21.5642 11.4483C21.5653 11.5834 21.5398 11.7174 21.489 11.8426C21.4383 11.9678 21.3634 12.0818 21.2685 12.178C21.1737 12.2742 21.0608 12.3508 20.9363 12.4033C20.8119 12.4558 20.6782 12.4833 20.5432 12.4841C20.4092 12.4841 20.2766 12.4574 20.153 12.4057C20.0294 12.3541 19.9173 12.2784 19.8232 12.1831C19.6805 12.0384 19.5835 11.855 19.5441 11.6556C19.5048 11.4563 19.5248 11.2498 19.6016 11.0617C19.6785 10.8737 19.8089 10.7123 19.9767 10.5977C20.1444 10.483 20.3421 10.4201 20.5453 10.4167C20.783 10.4167 21.0133 10.5002 21.1958 10.6525L21.2168 10.6736C21.2508 10.7012 21.2818 10.7323 21.3095 10.7662L21.3326 10.7915C21.4833 10.9771 21.5651 11.2092 21.5642 11.4483Z" fill="white"/>
<defs>
<linearGradient id="paint0_linear_106_5470" x1="4.68632" y1="4.68632" x2="27.3137" y2="27.3137" gradientUnits="userSpaceOnUse">
<stop stop-color="#FAE100"/>
<stop offset="0.15" stop-color="#FCB720"/>
<stop offset="0.3" stop-color="#FF7950"/>
<stop offset="0.5" stop-color="#FF1C74"/>
<stop offset="1" stop-color="#6C1CD1"/>
</linearGradient>
</defs>
</svg>
