<svg width="32" height="32" viewBox="0 0 32 32" fill="none" xmlns="http://www.w3.org/2000/svg">
<g clip-path="url(#clip0_106_5482)">
<path d="M16 31.625C24.6294 31.625 31.625 24.6294 31.625 16C31.625 7.37055 24.6294 0.375 16 0.375C7.37055 0.375 0.375 7.37055 0.375 16C0.375 24.6294 7.37055 31.625 16 31.625Z" fill="#CCFFFF"/>
<path opacity="0.49" d="M31.625 16C31.625 15.9831 31.6245 15.9663 31.6244 15.9495L20.6921 5.03635C20.5686 4.91345 20.4013 4.84462 20.227 4.84497H16.7044C16.6183 4.8447 16.533 4.86139 16.4533 4.8941C16.3737 4.9268 16.3012 4.97487 16.2402 5.03556C16.1791 5.09626 16.1306 5.16839 16.0974 5.24784C16.0642 5.32729 16.047 5.4125 16.0467 5.4986V14.7847L13.9993 12.7375C13.8758 12.6146 13.7086 12.5457 13.5343 12.546C9.48158 12.546 6.18433 15.8227 6.18433 19.8507C6.18424 20.811 6.37468 21.7618 6.74463 22.6479C7.11457 23.5341 7.65667 24.338 8.33951 25.0132L14.9132 31.5867C15.2723 31.6117 15.6346 31.625 16 31.625C24.6295 31.625 31.625 24.6294 31.625 16Z" fill="url(#paint0_linear_106_5482)"/>
<path fill-rule="evenodd" clip-rule="evenodd" d="M21.369 5.98706C21.4552 5.98675 21.5405 6.00342 21.6202 6.0361C21.6998 6.06879 21.7723 6.11686 21.8334 6.17756C21.8944 6.23827 21.943 6.31042 21.9761 6.38988C22.0093 6.46935 22.0265 6.55457 22.0267 6.64069C22.0267 8.98231 23.9437 10.8874 26.3 10.8874C26.4739 10.8868 26.6409 10.9554 26.7642 11.078C26.8876 11.2006 26.9572 11.3671 26.9577 11.541V15.0418C26.9575 15.1279 26.9402 15.2131 26.907 15.2925C26.8738 15.372 26.8253 15.4441 26.7642 15.5048C26.7032 15.5655 26.6307 15.6136 26.5511 15.6463C26.4714 15.679 26.3861 15.6957 26.3 15.6954C24.8106 15.6988 23.3431 15.3363 22.0267 14.6396V20.9927C22.0267 25.0203 18.729 28.297 14.6763 28.297C10.6236 28.297 7.32629 25.0203 7.32629 20.9927C7.32629 16.9651 10.6235 13.6879 14.6763 13.6879C14.8501 13.6875 15.017 13.7561 15.1403 13.8787C15.2636 14.0012 15.3333 14.1677 15.334 14.3415V17.8423C15.3337 17.9284 15.3165 18.0136 15.2833 18.093C15.2501 18.1725 15.2016 18.2446 15.1405 18.3053C15.0794 18.366 15.007 18.4141 14.9274 18.4468C14.8477 18.4795 14.7624 18.4961 14.6763 18.4959C14.1831 18.499 13.7019 18.648 13.2934 18.9243C12.8848 19.2005 12.5672 19.5915 12.3806 20.048C12.1941 20.5045 12.1468 21.0061 12.2449 21.4894C12.3431 21.9727 12.5821 22.4162 12.9319 22.7638C13.2817 23.1114 13.7266 23.3477 14.2106 23.4427C14.6945 23.5378 15.1957 23.4875 15.651 23.298C16.1064 23.1086 16.4954 22.7885 16.7691 22.3783C17.0428 21.968 17.1888 21.4859 17.1888 20.9927V6.64069C17.1891 6.55458 17.2063 6.46937 17.2395 6.38993C17.2727 6.31048 17.3212 6.23835 17.3823 6.17765C17.4434 6.11696 17.5158 6.06889 17.5955 6.03619C17.6751 6.00349 17.7604 5.98679 17.8465 5.98706H21.369Z" fill="#FF0B53"/>
<path fill-rule="evenodd" clip-rule="evenodd" d="M20.227 4.84498C20.3131 4.84466 20.3985 4.86133 20.4781 4.89401C20.5578 4.9267 20.6302 4.97477 20.6913 5.03547C20.7524 5.09618 20.8009 5.16833 20.8341 5.24779C20.8673 5.32726 20.8845 5.41249 20.8847 5.4986C20.8847 7.84029 22.8016 9.74535 25.158 9.74535C25.2441 9.74508 25.3294 9.76177 25.409 9.79447C25.4887 9.82717 25.5611 9.87525 25.6222 9.93594C25.6832 9.99664 25.7318 10.0688 25.765 10.1482C25.7982 10.2277 25.8154 10.3129 25.8156 10.399V13.9C25.8154 13.9861 25.7982 14.0713 25.765 14.1507C25.7318 14.2302 25.6832 14.3023 25.6222 14.363C25.5611 14.4237 25.4887 14.4717 25.409 14.5044C25.3294 14.5371 25.2441 14.5538 25.158 14.5535C23.6686 14.557 22.2011 14.1945 20.8847 13.4978V19.8506C20.8847 23.8782 17.587 27.155 13.5343 27.155C9.48164 27.155 6.18439 23.8782 6.18439 19.8506C6.18439 15.823 9.48158 12.5458 13.5344 12.5458C13.7083 12.5454 13.8752 12.6139 13.9985 12.7365C14.1219 12.8591 14.1915 13.0256 14.1921 13.1995V16.7C14.1918 16.7861 14.1746 16.8713 14.1414 16.9507C14.1082 17.0302 14.0597 17.1023 13.9986 17.163C13.9375 17.2237 13.8651 17.2718 13.7855 17.3045C13.7058 17.3372 13.6205 17.3539 13.5344 17.3536C13.0412 17.3567 12.5601 17.5058 12.1515 17.782C11.743 18.0582 11.4254 18.4493 11.2388 18.9058C11.0523 19.3623 11.0051 19.8638 11.1032 20.3471C11.2013 20.8304 11.4403 21.2738 11.7901 21.6214C12.1399 21.969 12.5848 22.2053 13.0688 22.3003C13.5527 22.3954 14.0539 22.345 14.5092 22.1556C14.9645 21.9662 15.3535 21.6461 15.6272 21.2359C15.9009 20.8256 16.0469 20.3435 16.0469 19.8503V5.4986C16.0474 5.32474 16.117 5.15821 16.2403 5.03563C16.3636 4.91306 16.5305 4.84448 16.7044 4.84498H20.227Z" fill="#00F0E9"/>
<path d="M20.8847 19.8506V13.4975C22.2011 14.1942 23.6685 14.5567 25.1579 14.5533C25.3318 14.5538 25.4987 14.4853 25.622 14.3628C25.7454 14.2403 25.815 14.0738 25.8156 13.8999V10.8594C25.2018 10.7898 24.6103 10.5883 24.0817 10.2686C23.5532 9.94883 23.1 9.51851 22.7535 9.00713C22.2478 8.6655 21.8218 8.21889 21.5043 7.69772C21.1868 7.17656 20.9854 6.59309 20.9138 5.98706H17.8465C17.7604 5.98678 17.6751 6.00347 17.5954 6.03617C17.5157 6.06887 17.4433 6.11694 17.3822 6.17763C17.3211 6.23833 17.2726 6.31046 17.2394 6.38992C17.2062 6.46937 17.189 6.55458 17.1887 6.64069V20.9927C17.1847 21.5588 16.9897 22.107 16.6354 22.5485C16.2811 22.99 15.7881 23.2991 15.2363 23.4257C14.6845 23.5522 14.1062 23.4889 13.5948 23.2459C13.0835 23.003 12.6691 22.5946 12.4187 22.0868C11.9113 21.8382 11.5034 21.4246 11.2618 20.9138C11.0202 20.403 10.9592 19.8253 11.0889 19.2753C11.2185 18.7254 11.5311 18.2357 11.9754 17.8866C12.4197 17.5375 12.9694 17.3497 13.5344 17.3538C13.6205 17.3541 13.7059 17.3374 13.7855 17.3046C13.8652 17.2719 13.9376 17.2238 13.9986 17.1631C14.0597 17.1024 14.1082 17.0302 14.1414 16.9507C14.1746 16.8713 14.1918 16.7861 14.192 16.6999V13.7042C10.3642 13.9529 7.32642 17.1265 7.32642 20.9927C7.32539 22.6453 7.88974 24.2485 8.92573 25.5361C10.2322 26.5858 11.8584 27.157 13.5343 27.1549C17.587 27.1549 20.8847 23.8781 20.8847 19.8506Z" fill="black"/>
</g>
<defs>
<linearGradient id="paint0_linear_106_5482" x1="10.3882" y1="10.8875" x2="26.7989" y2="27.2982" gradientUnits="userSpaceOnUse">
<stop stop-color="#1D1D1B"/>
<stop offset="0.369" stop-color="#1D1D1B" stop-opacity="0.856"/>
<stop offset="0.75" stop-color="#1D1D1B" stop-opacity="0.429"/>
<stop offset="1" stop-color="#1D1D1B" stop-opacity="0"/>
</linearGradient>
<clipPath id="clip0_106_5482">
<rect width="32" height="32" fill="white"/>
</clipPath>
</defs>
</svg>
