<svg width="32" height="32" viewBox="0 0 32 32" fill="none" xmlns="http://www.w3.org/2000/svg">
<path d="M16 32C24.8366 32 32 24.8366 32 16C32 7.16344 24.8366 0 16 0C7.16344 0 0 7.16344 0 16C0 24.8366 7.16344 32 16 32Z" fill="#F20000"/>
<path d="M23.6253 12.1517C23.3053 11.158 22.2463 10.5706 21.2632 10.4338C17.7587 10.0611 14.2245 10.0611 10.72 10.4338C9.74527 10.5706 8.68632 11.1664 8.36632 12.1517C7.86739 14.6937 7.86739 17.3085 8.36632 19.8506C8.69475 20.8422 9.75369 21.4317 10.7369 21.5685C14.2415 21.939 17.7754 21.939 21.28 21.5685C22.2547 21.4317 23.3137 20.8338 23.6337 19.8506C24.1298 17.308 24.127 14.6932 23.6253 12.1517ZM14.0863 19.0654V12.9348L19.0779 16.0001C17.3958 17.0338 15.7621 18.0401 14.0863 19.0654Z" fill="white"/>
</svg>
